<?xml version="1.0" encoding="utf-8"?>
<!-- Generator: Adobe Illustrator 27.7.0, SVG Export Plug-In . SVG Version: 6.00 Build 0)  -->
<svg version="1.1" id="logo-no-text" xmlns="http://www.w3.org/2000/svg" xmlns:xlink="http://www.w3.org/1999/xlink" x="0px"
	 y="0px" viewBox="0 0 829.9 830" style="enable-background:new 0 0 829.9 830;" xml:space="preserve">
<style type="text/css">
	.st0{clip-path:url(#SVGID_00000047761540829981417080000014083440587945778858_);}
	.st1{fill:#16687B;}
	.st2{fill:#0B4452;}
	.st3{opacity:0.2;}
	.st4{fill:#7CCBDB;}
</style>
<g>
	<g>
		<defs>
			<path id="SVGID_1_" d="M801.9,415.5c0-5.3-2.8-10.2-7.3-12.9l-62.1-37.2l62.1-37c4.5-2.7,7.3-7.6,7.3-12.9s-2.8-10.2-7.3-12.9
				l-372-223c-4.7-2.8-10.7-2.8-15.4,0l-372,223c-4.5,2.7-7.3,7.6-7.3,12.9s2.8,10.2,7.3,12.9l62.1,37l-62.1,37.2
				c-4.5,2.7-7.3,7.6-7.3,12.9s2.8,10.2,7.3,12.9l62.1,37l-62.1,37.2c-4.5,2.7-7.3,7.6-7.3,12.9s2.8,10.2,7.3,12.9l372,222
				c2.4,1.4,5,2.1,7.7,2.1s5.3-0.7,7.7-2.1l372-222c4.5-2.7,7.3-7.6,7.3-12.9c0-5.3-2.8-10.2-7.3-12.9l-62.1-37.2l62.1-37
				C799.1,425.7,801.9,420.8,801.9,415.5z"/>
		</defs>
		<clipPath id="SVGID_00000052099498804627466370000014493531824472722822_">
			<use xlink:href="#SVGID_1_"  style="overflow:visible;"/>
		</clipPath>
		<g style="clip-path:url(#SVGID_00000052099498804627466370000014493531824472722822_);">
			<g>
				<g>
					<g>
						<g>
							<polygon class="st1" points="786.9,515.5 415,737.5 43,515.5 415,292.5 							"/>
							<path class="st2" d="M415,752.5c-2.7,0-5.3-0.7-7.7-2.1l-372-222c-4.5-2.7-7.3-7.6-7.3-12.9c0-5.3,2.8-10.2,7.3-12.9l372-223
								c4.7-2.8,10.7-2.8,15.4,0l372,223c4.5,2.7,7.3,7.6,7.3,12.9s-2.8,10.2-7.3,12.9l-372,222C420.3,751.8,417.6,752.5,415,752.5z
								 M72.2,515.5L415,720l342.7-204.6L415,310L72.2,515.5z"/>
						</g>
					</g>
				</g>
				<polygon class="st3" points="786.9,465.5 415,687.5 43,465.5 415,242.5 				"/>
				<g>
					<g>
						<g>
							<polygon class="st1" points="786.9,415.5 415,637.5 43,415.5 415,192.5 							"/>
							<path class="st2" d="M415,652.5c-2.7,0-5.3-0.7-7.7-2.1l-372-222c-4.5-2.7-7.3-7.6-7.3-12.9s2.8-10.2,7.3-12.9l372-223
								c4.7-2.8,10.7-2.8,15.4,0l372,223c4.5,2.7,7.3,7.6,7.3,12.9s-2.8,10.2-7.3,12.9l-372,222C420.3,651.8,417.6,652.5,415,652.5z
								 M72.2,415.5L415,620l342.7-204.6L415,210L72.2,415.5z"/>
						</g>
					</g>
				</g>
				<polygon class="st3" points="786.9,365.5 415,587.5 43,365.5 415,142.5 				"/>
				<g>
					<g>
						<g>
							<polygon class="st1" points="786.9,315.5 415,537.5 43,315.5 415,92.5 							"/>
							<path class="st2" d="M415,552.5c-2.7,0-5.3-0.7-7.7-2.1l-372-222c-4.5-2.7-7.3-7.6-7.3-12.9s2.8-10.2,7.3-12.9l372-223
								c4.7-2.8,10.7-2.8,15.4,0l372,223c4.5,2.7,7.3,7.6,7.3,12.9s-2.8,10.2-7.3,12.9l-372,222C420.3,551.8,417.6,552.5,415,552.5z
								 M72.2,315.5L415,520l342.7-204.6L415,110L72.2,315.5z"/>
						</g>
					</g>
				</g>
			</g>
			<g id="blue_00000047743683463349392120000009322035155289683612_">
				<path id="bottom_00000004521897303577927780000011950595154916218267_" class="st4" d="M561.5,265.8c-1.9-5.1-7.4-9.3-13-10.3
					c-1.1-0.4-5.7-0.1-6.4,0.5c-3.7,1.5-5.6,5.2-4.2,9.6l0.1,0.3c0.1,0.4-1.2,1.2-2.9,1.8l-51.5,19c-1.9,0.7-5,0.1-6.8-1.3
					c0,0-3.5-2.8-7.9-2.8c-6.8-0.1-11.8,5.1-11.1,11.8l0.1,1.1c0.4,1.1-0.9,2.8-2.9,3.7l-59.8,28.5c-2.2,1-5.4,0.6-7.2-1.1
					c0,0-3-2.8-7.5-2.9c-11.4,0-13.6,9.6-13.6,9.6c-1.2,2.3-3.2,4.5-5.6,5L300,348.6c-2.6,0.4-5.5-1-6.6-3.1c0,0-2.9-5.9-8.9-6
					c-7.7-0.1-15.9,6.6-18.3,15.1c-2.5,8.9,2,16.3,10.2,16.4c0.3,0,0.7,0,1-0.1c12.7,27,33.6,49.8,60.7,65.5
					c0,10.4,6.1,18.6,14.7,18.7c4.7,0,9.1-2.4,12.5-6.2c16,5.5,32.9,8.5,50.3,8.7c0.3,0,0.6,0,0.9,0c20.5,0.1,40-3.8,57.8-10.8
					c3.1,2.6,6.7,4.2,10.4,4.3c8.2,0.1,13.9-7.2,14.2-16.7c22.2-14,39.5-33.1,50.9-54.9c0.3,0,0.6,0.1,0.9,0.1
					c8.3,0.1,12.9-7.5,10.2-16.6c-0.5-1.7-1.2-3.4-2.1-4.9c8.8-27,8.9-55.7,0.4-83.1C561.9,273,562.9,269.6,561.5,265.8L561.5,265.8
					z M483.2,297.7c0,0,0.2-0.6-0.2-3l-0.1-0.4c-0.1-0.4,1.4-1.3,3.4-2.1l52-19.5c1.8-0.7,4.8-0.1,6.8,1.2c0,0,0.1,0.1,0.3,0.2
					c6.8,24.3,6,49.5-2.3,73c-0.3,0-0.7-0.1-1-0.1c-2.5,0-2.8,0.1-2.8,0.1c-2,1-5.5,0.2-7.7-1.7l-46.2-41.2
					C483.6,302.6,482.6,299.7,483.2,297.7L483.2,297.7z M467.7,310.4c0.9-2,2.4-3.5,3.4-3.3h0.9c2.4,0,2.6-0.1,2.6-0.1
					c2-0.9,5.1-0.2,6.9,1.5l46.3,42c2.2,2,3.3,6.9,3.4,8.4c0.1,1.4-1.9,2.9-4.4,3.2L452,372c-2.6,0.3-5.2-0.5-5.9-1.9
					c-0.7-1.4-2.1-6.4-1-8.8L467.7,310.4L467.7,310.4z M393.4,338.8c0.1-2.4,1.8-3.6,4-4.6l61-29.6c2-0.9,3.5-2,4-1.3
					s0.2,2.4-0.7,4.3L439,357.4c-1.1,2.4-3.2,4.2-4.7,3.8h-1.4c-4.1,0-6.5,1.8-6.5,1.8c-2.1,1.6-5.6,1.6-7.8,0L396,346.2
					C392.2,343.6,393.4,340.6,393.4,338.8L393.4,338.8z M382.8,352.5c1.7-0.5,7.1-1.7,9.2-0.2l23.1,17.5c2.2,1.7,3.7,4.5,3.4,6.2
					v1.7v2.1c0.6,2.2-0.8,5.3-3.1,6.9l-42.6,29.8c-2.6,1.8-6.7,0.7-7.7-0.1c-0.9-0.8-1-4.1-0.1-7.5l13.3-50.8
					C379.1,355.5,381.1,352.9,382.8,352.5L382.8,352.5z M292.9,359.4c1.9-1.7,4.3-3.1,6.2-3.4l62.8-10.7c2.5-0.4,5.3,0.5,6.3,2.1
					c2.1,2,5.4,3.3,3.4,9.4L357.7,407c-0.9,3.3-3.9,7.3-6.6,8.7c0,0-0.5,0.3-1.3,0.8C324.9,403.4,305.2,383.4,292.9,359.4
					L292.9,359.4z M416.2,433.2c-0.3,0-0.5,0-0.8,0c-14.2-0.1-28-2.4-41.2-6.4c0.6-0.6,1.2-1.1,1.8-1.6l43.8-31.2
					c2.3-1.6,6.1-1.6,8.5,0.1c0,0,2.2,1.6,6.1,1.6c3.1,0,3.9-0.4,3.9-0.4c2.4-1.3,6.1-0.6,8.2,1.6l16.4,17.3c2.3,2.4,3.4,7,2.5,10.2
					c0,0,0,0.1,0,0.3C450.2,430.2,433.6,433.2,416.2,433.2L416.2,433.2z M489.1,413.1c-2.9-2.2-6.1-3.5-9.5-3.5
					c-2.8,0-3.1,0.1-3.1,0.1c-2.5,1.3-6.3,0.4-8.6-2l-16.8-17.3c-2.1-2.2-3.6-4.8-3.3-5.8c0.3-1,1.1-4.5,5.5-4.5l76.5-10.3
					c0.7-0.1,1.5,0,2.4,0.2C521.9,387.1,507.3,402,489.1,413.1L489.1,413.1z"/>
				<path id="middle_00000003814896418219066190000011806325695435233672_" class="st4" d="M213,349.3c-4.7,0-10.4-1-10.4-6.4
					c0-6.4,7.8-12.1,10.4-13.9c3.5-2.5,8.3-5.5,14.1-8.7c9.4-5.2,18.5-9.4,18.9-9.6c3.3-1.5,6.5-0.5,7.1,2.3s-1.6,6.4-5,8
					c-0.1,0-7.3,3.5-15.2,7.8c-5.6,3-9.5,5.4-12.2,7.2c6.2-0.4,18.9-2.3,44.5-8.6c36.4-8.9,88.5-24.2,151.6-44.2
					c58.9-18.7,99.8-32.8,124.2-42.7c16.3-6.6,23.1-10.5,26-12.6c-4.6-0.2-11.6,0.1-18,0.8c-2.5,0.3-5.4-1.2-6.5-3.3s0-4,2.4-4.2
					c0.3,0,6.3-0.7,12.7-0.9c8.5-0.2,16.8,0.2,20.4,5.1c3.3,4.5-1.5,8-3.6,9.5c-4,2.9-10.9,6.4-20.9,10.8
					c-24.2,10.5-67.7,26.1-132.9,47.3c-70.7,23-128,40-165.7,49c-16.8,4-29.2,6.3-37.5,6.9C216.3,349.2,214.7,349.3,213,349.3
					L213,349.3z"/>
				<path id="top_00000019653000707043309020000002411214333124297635_" class="st4" d="M536.9,230c-10.7-13.4-23.3-24.7-37.3-33.7
					c-2.5-1.6-5-3.1-7.5-4.6c-1.3-0.7-2.5-1.4-3.8-2.1c-2.6-1.4-5.2-2.7-7.8-3.9c-6.7-3.1-13.5-5.7-20.4-7.8
					c-14.8-4.6-30.4-6.9-46-7c-20.8-0.1-40.7,3.9-58.7,11.2c-4.2-2.6-9.8-4.2-16.1-4.2c-15.1-0.1-30,8.8-33.4,20.5
					c-1.5,5.1-0.6,10,2.2,14C292,227.7,278.7,247.5,271,271c-4.4,13.5-6.8,27.8-7,42.4c0,3.5,2.5,5.7,5.9,5.8c0.8,0,1.6-0.1,2.4-0.3
					c0.7-0.2,2.5-0.8,2.9-0.9l117.5-36.6c1.6-0.5,3.3-2,4-3.4l2.5-5.7c0.6-1.4-0.1-2.9-1.5-3.5l-45.5-18.1c-1.3-0.5-1.6-1.8-0.6-2.9
					l10.6-11.2c0.9-1,2.7-1.3,3.8-0.6l14.2,7.9c1.2,0.7,1.2,1.8,0,2.6l-4.6,2.8c-1.3,0.8-1.3,2,0,2.6l27.1,14.2
					c1.4,0.7,2.6,2.4,2.7,3.9l0.4,4.7c0.1,1.5,1.5,2.3,3,1.8l73.3-22.8c1.4-0.4,2-1.8,1.4-3.1l-5.2-11.5c-0.5-1.2,0.2-2.3,1.6-2.6
					l4.7-0.7c1.4-0.2,1.5-1.1,0.3-1.9L454,211.7c-1.1-0.8-3-1.3-4.3-1.1l-7,0.8c-1.3,0.1-1.7-0.3-0.7-1l6.4-5
					c0.9-0.7,2.6-0.8,3.8-0.3l74.6,32.7c1.4,0.6,3.7,0.8,4.9,0.4l3.6-1.1C538.5,235.9,539.1,232.8,536.9,230L536.9,230z
					 M448.7,198.2c-1.2-0.5-2.8-0.4-3.7,0.3l-52.5,42.1c-1.1,0.9-3,1-4.2,0.3l-23.2-13.3c-1.1-0.6-2.8-0.4-3.7,0.6l-81,82.2
					c0.1-0.5,0.1-1,0.1-1.5c-0.4-12.9,1.4-25.7,4.9-37.8c6-20.6,17-38.2,30.6-52.1c3.9,1.9,8.6,3,13.9,3c17.1,0.1,32.4-10.7,34-23.3
					c0.5-3.7-0.3-7.1-2.1-10.1c16-6.4,33.7-9.9,52.3-9.8c41.4,0.2,84.1,19.7,110.5,53.4L448.7,198.2L448.7,198.2z"/>
			</g>
		</g>
	</g>
</g>
</svg>
