<?xml version="1.0" encoding="utf-8"?>
<!-- Generator: Adobe Illustrator 27.7.0, SVG Export Plug-In . SVG Version: 6.00 Build 0)  -->
<svg version="1.1" id="logo-no-text" xmlns="http://www.w3.org/2000/svg" xmlns:xlink="http://www.w3.org/1999/xlink" x="0px"
	 y="0px" viewBox="0 0 829.9 830" style="enable-background:new 0 0 829.9 830;" xml:space="preserve">
<style type="text/css">
	.st0{clip-path:url(#SVGID_00000041266950693350120970000011973678780963560869_);}
	.st1{fill:#16687B;}
	.st2{fill:#0B4452;}
	.st3{opacity:0.2;}
	.st4{fill:#7CCBDB;}
</style>
<g>
	<g>
		<defs>
			<path id="SVGID_1_" d="M723.4,415.4c0-4.2-2.2-8.1-5.8-10.3L668,375.5l49.5-29.5c3.6-2.2,5.8-6.1,5.8-10.3
				c0-4.2-2.2-8.1-5.8-10.3L421,147.7c-3.7-2.2-8.5-2.2-12.3,0L112.3,325.4c-3.6,2.2-5.8,6.1-5.8,10.3c0,4.2,2.2,8.1,5.8,10.3
				l49.5,29.5l-49.5,29.6c-3.6,2.2-5.8,6.1-5.8,10.3c0,4.2,2.2,8.1,5.8,10.3l49.5,29.5l-49.5,29.6c-3.6,2.2-5.8,6.1-5.8,10.3
				c0,4.2,2.2,8.1,5.8,10.3l296.5,176.9c1.9,1.1,4,1.7,6.1,1.7s4.2-0.6,6.1-1.7l296.5-176.9c3.6-2.2,5.8-6.1,5.8-10.3
				c0-4.2-2.2-8.1-5.8-10.3L668,455.2l49.5-29.5C721.1,423.5,723.4,419.6,723.4,415.4z"/>
		</defs>
		<clipPath id="SVGID_00000082358504872273390650000005057931950397607855_">
			<use xlink:href="#SVGID_1_"  style="overflow:visible;"/>
		</clipPath>
		<g style="clip-path:url(#SVGID_00000082358504872273390650000005057931950397607855_);">
			<g>
				<g>
					<g>
						<g>
							<polygon class="st1" points="711.4,495.1 415,672 118.5,495.1 415,317.4 							"/>
							<path class="st2" d="M415,684c-2.2,0-4.2-0.6-6.1-1.7L112.3,505.4c-3.6-2.2-5.8-6.1-5.8-10.3c0-4.2,2.2-8.1,5.8-10.3
								l296.5-177.7c3.7-2.2,8.5-2.2,12.3,0l296.5,177.7c3.6,2.2,5.8,6.1,5.8,10.3c0,4.2-2.2,8.1-5.8,10.3L421.1,682.3
								C419.2,683.4,417.1,684,415,684z M141.8,495.1l273.2,163L688.1,495L415,331.3L141.8,495.1z"/>
						</g>
					</g>
				</g>
				<polygon class="st3" points="711.4,455.3 415,632.2 118.5,455.3 415,277.5 				"/>
				<g>
					<g>
						<g>
							<polygon class="st1" points="711.4,415.4 415,592.3 118.5,415.4 415,237.7 							"/>
							<path class="st2" d="M415,604.3c-2.2,0-4.2-0.6-6.1-1.7L112.3,425.7c-3.6-2.2-5.8-6.1-5.8-10.3c0-4.2,2.2-8.1,5.8-10.3
								l296.5-177.7c3.7-2.2,8.5-2.2,12.3,0l296.5,177.7c3.6,2.2,5.8,6.1,5.8,10.3c0,4.2-2.2,8.1-5.8,10.3L421.1,602.6
								C419.2,603.7,417.1,604.3,415,604.3z M141.8,415.4l273.2,163l273.1-163.1L415,251.6L141.8,415.4z"/>
						</g>
					</g>
				</g>
				<polygon class="st3" points="711.4,375.5 415,552.5 118.5,375.5 415,197.8 				"/>
				<g>
					<g>
						<g>
							<polygon class="st1" points="711.4,335.7 415,512.6 118.5,335.7 415,158 							"/>
							<path class="st2" d="M415,524.6c-2.2,0-4.2-0.6-6.1-1.7L112.3,346c-3.6-2.2-5.8-6.1-5.8-10.3c0-4.2,2.2-8.1,5.8-10.3
								l296.5-177.7c3.7-2.2,8.5-2.2,12.3,0l296.5,177.7c3.6,2.2,5.8,6.1,5.8,10.3c0,4.2-2.2,8.1-5.8,10.3L421.1,522.9
								C419.2,524,417.1,524.6,415,524.6z M141.8,335.7l273.2,163l273.1-163.1L415,171.9L141.8,335.7z"/>
						</g>
					</g>
				</g>
			</g>
			<g id="blue_00000047743683463349392120000009322035155289683612_">
				<path id="bottom_00000004521897303577927780000011950595154916218267_" class="st4" d="M531.7,296.1c-1.5-4.1-5.9-7.4-10.4-8.2
					c-0.9-0.3-4.5-0.1-5.1,0.4c-2.9,1.2-4.5,4.1-3.3,7.7l0.1,0.2c0.1,0.3-1,1-2.3,1.4l-41,15.1c-1.5,0.6-4,0.1-5.4-1
					c0,0-2.8-2.2-6.3-2.2c-5.4-0.1-9.4,4.1-8.8,9.4l0.1,0.9c0.3,0.9-0.7,2.2-2.3,2.9l-47.7,22.7c-1.8,0.8-4.3,0.5-5.7-0.9
					c0,0-2.4-2.2-6-2.3c-9.1,0-10.8,7.7-10.8,7.7c-1,1.8-2.6,3.6-4.5,4l-48.9,8.2c-2.1,0.3-4.4-0.8-5.3-2.5c0,0-2.3-4.7-7.1-4.8
					c-6.1-0.1-12.7,5.3-14.6,12c-2,7.1,1.6,13,8.1,13.1c0.2,0,0.6,0,0.8-0.1c10.1,21.5,26.8,39.7,48.4,52.2
					c0,8.3,4.9,14.8,11.7,14.9c3.7,0,7.3-1.9,10-4.9c12.8,4.4,26.2,6.8,40.1,6.9c0.2,0,0.5,0,0.7,0c16.3,0.1,31.9-3,46.1-8.6
					c2.5,2.1,5.3,3.3,8.3,3.4c6.5,0.1,11.1-5.7,11.3-13.3c17.7-11.2,31.5-26.4,40.6-43.8c0.2,0,0.5,0.1,0.7,0.1
					c6.6,0.1,10.3-6,8.1-13.2c-0.4-1.4-1-2.7-1.7-3.9c7-21.5,7.1-44.4,0.3-66.2C532.1,301.8,532.9,299.1,531.7,296.1L531.7,296.1z
					 M469.3,321.5c0,0,0.2-0.5-0.2-2.4l-0.1-0.3c-0.1-0.3,1.1-1,2.7-1.7l41.4-15.5c1.4-0.6,3.8-0.1,5.4,1c0,0,0.1,0.1,0.2,0.2
					c5.4,19.4,4.8,39.5-1.8,58.2c-0.2,0-0.6-0.1-0.8-0.1c-2,0-2.2,0.1-2.2,0.1c-1.6,0.8-4.4,0.2-6.1-1.4l-36.8-32.8
					C469.7,325.4,468.9,323.1,469.3,321.5L469.3,321.5z M457,331.6c0.7-1.6,1.9-2.8,2.7-2.6h0.7c1.9,0,2.1-0.1,2.1-0.1
					c1.6-0.7,4.1-0.2,5.5,1.2l36.9,33.5c1.8,1.6,2.6,5.5,2.7,6.7c0.1,1.1-1.5,2.3-3.5,2.6l-59.6,7.9c-2.1,0.2-4.1-0.4-4.7-1.5
					c-0.6-1.1-1.7-5.1-0.8-7L457,331.6L457,331.6z M397.8,354.3c0.1-1.9,1.4-2.9,3.2-3.7l48.6-23.6c1.6-0.7,2.8-1.6,3.2-1
					c0.4,0.6,0.2,1.9-0.6,3.4l-18.1,39.7c-0.9,1.9-2.6,3.3-3.7,3h-1.1c-3.3,0-5.2,1.4-5.2,1.4c-1.7,1.3-4.5,1.3-6.2,0l-18-13.4
					C396.8,358.1,397.8,355.7,397.8,354.3L397.8,354.3z M389.3,365.2c1.4-0.4,5.7-1.4,7.3-0.2l18.4,13.9c1.8,1.4,2.9,3.6,2.7,4.9
					v1.4v1.7c0.5,1.8-0.6,4.2-2.5,5.5l-34,23.8c-2.1,1.4-5.3,0.6-6.1-0.1c-0.7-0.6-0.8-3.3-0.1-6l10.6-40.5
					C386.4,367.6,388,365.5,389.3,365.2L389.3,365.2z M317.7,370.7c1.5-1.4,3.4-2.5,4.9-2.7l50.1-8.5c2-0.3,4.2,0.4,5,1.7
					c1.7,1.6,4.3,2.6,2.7,7.5l-11.1,40c-0.7,2.6-3.1,5.8-5.3,6.9c0,0-0.4,0.2-1,0.6C343.2,405.8,327.5,389.8,317.7,370.7
					L317.7,370.7z M415.9,429.5c-0.2,0-0.4,0-0.6,0c-11.3-0.1-22.3-1.9-32.8-5.1c0.5-0.5,1-0.9,1.4-1.3l34.9-24.9
					c1.8-1.3,4.9-1.3,6.8,0.1c0,0,1.8,1.3,4.9,1.3c2.5,0,3.1-0.3,3.1-0.3c1.9-1,4.9-0.5,6.5,1.3l13.1,13.8c1.8,1.9,2.7,5.6,2,8.1
					c0,0,0,0.1,0,0.2C443,427.1,429.8,429.5,415.9,429.5L415.9,429.5z M474,413.5c-2.3-1.8-4.9-2.8-7.6-2.8c-2.2,0-2.5,0.1-2.5,0.1
					c-2,1-5,0.3-6.9-1.6l-13.4-13.8c-1.7-1.8-2.9-3.8-2.6-4.6c0.2-0.8,0.9-3.6,4.4-3.6l61-8.2c0.6-0.1,1.2,0,1.9,0.2
					C500.2,392.8,488.5,404.6,474,413.5L474,413.5z"/>
				<path id="middle_00000003814896418219066190000011806325695435233672_" class="st4" d="M254,362.6c-3.7,0-8.3-0.8-8.3-5.1
					c0-5.1,6.2-9.6,8.3-11.1c2.8-2,6.6-4.4,11.2-6.9c7.5-4.1,14.7-7.5,15.1-7.7c2.6-1.2,5.2-0.4,5.7,1.8c0.5,2.2-1.3,5.1-4,6.4
					c-0.1,0-5.8,2.8-12.1,6.2c-4.5,2.4-7.6,4.3-9.7,5.7c4.9-0.3,15.1-1.8,35.5-6.9c29-7.1,70.5-19.3,120.8-35.2
					c46.9-14.9,79.5-26.1,99-34c13-5.3,18.4-8.4,20.7-10c-3.7-0.2-9.2,0.1-14.3,0.6c-2,0.2-4.3-1-5.2-2.6c-0.9-1.7,0-3.2,1.9-3.3
					c0.2,0,5-0.6,10.1-0.7c6.8-0.2,13.4,0.2,16.3,4.1c2.6,3.6-1.2,6.4-2.9,7.6c-3.2,2.3-8.7,5.1-16.7,8.6
					c-19.3,8.4-54,20.8-105.9,37.7c-56.4,18.3-102,31.9-132.1,39.1c-13.4,3.2-23.3,5-29.9,5.5C256.6,362.6,255.3,362.6,254,362.6
					L254,362.6z"/>
				<path id="top_00000019653000707043309020000002411214333124297635_" class="st4" d="M512.1,267.5c-8.5-10.7-18.6-19.7-29.7-26.9
					c-2-1.3-4-2.5-6-3.7c-1-0.6-2-1.1-3-1.7c-2.1-1.1-4.1-2.2-6.2-3.1c-5.3-2.5-10.8-4.5-16.3-6.2c-11.8-3.7-24.2-5.5-36.7-5.6
					c-16.6-0.1-32.4,3.1-46.8,8.9c-3.3-2.1-7.8-3.3-12.8-3.3c-12-0.1-23.9,7-26.6,16.3c-1.2,4.1-0.5,8,1.8,11.2
					c-12.8,12.2-23.4,28-29.6,46.7c-3.5,10.8-5.4,22.2-5.6,33.8c0,2.8,2,4.5,4.7,4.6c0.6,0,1.3-0.1,1.9-0.2c0.6-0.2,2-0.6,2.3-0.7
					l93.7-29.2c1.3-0.4,2.6-1.6,3.2-2.7l2-4.5c0.5-1.1-0.1-2.3-1.2-2.8L364.9,284c-1-0.4-1.3-1.4-0.5-2.3l8.4-8.9
					c0.7-0.8,2.2-1,3-0.5l11.3,6.3c1,0.6,1,1.4,0,2.1l-3.7,2.2c-1,0.6-1,1.6,0,2.1l21.6,11.3c1.1,0.6,2.1,1.9,2.2,3.1l0.3,3.7
					c0.1,1.2,1.2,1.8,2.4,1.4l58.4-18.2c1.1-0.3,1.6-1.4,1.1-2.5l-4.1-9.2c-0.4-1,0.2-1.8,1.3-2.1l3.7-0.6c1.1-0.2,1.2-0.9,0.2-1.5
					L446.1,253c-0.9-0.6-2.4-1-3.4-0.9l-5.6,0.6c-1,0.1-1.4-0.2-0.6-0.8l5.1-4c0.7-0.6,2.1-0.6,3-0.2l59.5,26.1
					c1.1,0.5,2.9,0.6,3.9,0.3l2.9-0.9C513.4,272.3,513.9,269.8,512.1,267.5L512.1,267.5z M441.8,242.2c-1-0.4-2.2-0.3-2.9,0.2
					L397,276c-0.9,0.7-2.4,0.8-3.3,0.2l-18.5-10.6c-0.9-0.5-2.2-0.3-2.9,0.5l-64.6,65.5c0.1-0.4,0.1-0.8,0.1-1.2
					c-0.3-10.3,1.1-20.5,3.9-30.1c4.8-16.4,13.5-30.4,24.4-41.5c3.1,1.5,6.9,2.4,11.1,2.4c13.6,0.1,25.8-8.5,27.1-18.6
					c0.4-2.9-0.2-5.7-1.7-8.1c12.8-5.1,26.9-7.9,41.7-7.8c33,0.2,67,15.7,88.1,42.6L441.8,242.2L441.8,242.2z"/>
			</g>
		</g>
	</g>
</g>
</svg>
