# Alias OBJ Model File
# Exported from SketchUp, (c) 2000-2012 Trimble Navigation Limited
# File units = meters

mtllib FH.mtl

g Mesh1 Model

usemtl FrontColor
v 0.675961 0.266625 0.0285503
vt 26.6126 -1.12403
vn 0 1 -0
v 0.0259605 0.266625 -0.30145
vt 1.02207 11.8681
v 0.0259605 0.266625 0.0285503
vt 1.02207 -1.12403
f 1/1/1 2/2/1 3/3/1

v 0.675961 0.266625 -0.30145
vt 26.6126 11.8681
f 2/2/1 1/1/1 4/4/1

usemtl BackColor
vn -0 -1 0
f 3/3/2 2/2/2 1/1/2

usemtl FrontColor
vt 11.8681 10.497
vn 1 0 -0
v 0.0259605 0.608553 0.0285503
vt -1.12403 23.9588
vt -1.12403 10.497
f 2/5/3 5/6/3 3/7/3

v 0.0259605 0.608553 -0.30145
vt 11.8681 23.9588
f 5/6/3 2/5/3 6/8/3

usemtl BackColor
vn -1 -0 0
f 3/7/4 5/6/4 2/5/4

usemtl FrontColor
v -0.00873638 0.636625 0.0285503
vt -0.343952 25.064
vn 0 0 1
vt 1.02207 10.497
vt 1.02207 23.9588
f 7/9/5 3/10/5 5/11/5

v -0.00873638 0.0266248 0.0285503
vt -0.343952 1.04822
f 8/12/5 3/10/5 7/9/5

vt 26.6126 10.497
f 3/10/5 8/12/5 1/13/5

usemtl BackColor
vn -0 -0 -1
f 7/9/6 3/10/6 8/12/6

f 5/11/6 3/10/6 7/9/6

usemtl FrontColor
v 0.711264 0.636625 0.0285503
vt 28.0025 25.064
f 7/9/5 5/11/5 9/14/5

usemtl BackColor
f 9/14/6 5/11/6 7/9/6

usemtl FrontColor
v 0.675961 0.608553 0.0285503
vt 26.6126 23.9588
f 10/15/5 9/14/5 5/11/5

f 1/13/5 9/14/5 10/15/5

v 0.711264 0.0266248 0.0285503
vt 28.0025 1.04822
f 1/13/5 11/16/5 9/14/5

f 11/16/5 1/13/5 8/12/5

usemtl BackColor
f 8/12/6 1/13/6 11/16/6

f 1/13/6 8/12/6 3/10/6

f 9/14/6 11/16/6 1/13/6

usemtl FrontColor
v 0.711264 0.0266248 -0.35145
vt 13.8366 1.04822
vt -1.12403 25.064
vt -1.12403 1.04822
f 12/17/3 9/18/3 11/19/3

v 0.711264 0.636625 -0.35145
vt 13.8366 25.064
f 9/18/3 12/17/3 13/20/3

usemtl BackColor
f 11/19/4 9/18/4 12/17/4

f 13/20/4 12/17/4 9/18/4

usemtl FrontColor
vt -28.0025 1.04822
vn 0 0 -1
v -0.00873638 0.636625 -0.35145
vt 0.343952 25.064
vt -28.0025 25.064
f 12/21/7 14/22/7 13/23/7

v -0.00873638 0.0266248 -0.35145
vt 0.343952 1.04822
f 14/22/7 12/21/7 15/24/7

usemtl BackColor
vn -0 -0 1
f 15/24/8 12/21/8 14/22/8

usemtl FrontColor
vt -28.0025 13.8366
vn 0 -1 -0
vt 0.343952 -1.12403
vt 0.343952 13.8366
f 12/25/9 8/26/9 15/27/9

vt -28.0025 -1.12403
f 8/26/9 12/25/9 11/28/9

usemtl BackColor
vn -0 1 0
f 15/27/10 8/26/10 12/25/10

usemtl FrontColor
vt 1.12403 1.04822
vn -1 0 -0
vt -13.8366 25.064
vt -13.8366 1.04822
f 8/29/11 14/30/11 15/31/11

vt 1.12403 25.064
f 14/30/11 8/29/11 7/32/11

usemtl BackColor
vn 1 -0 0
f 7/32/12 8/29/12 14/30/12

f 15/31/12 14/30/12 8/29/12

usemtl FrontColor
v 0.0259605 0.636625 0.0285503
vt -0.343952 13.8366
vt -0.343952 -1.12403
f 16/3/1 14/33/1 7/34/1

vt 28.0025 13.8366
f 14/33/1 16/3/1 13/35/1

usemtl BackColor
f 7/34/2 14/33/2 16/3/2

f 13/35/2 16/3/2 14/33/2

usemtl FrontColor
vt 28.0025 -1.12403
f 13/35/1 16/3/1 9/36/1

usemtl BackColor
f 9/36/2 16/3/2 13/35/2

usemtl FrontColor
vt 1.02207 25.064
f 7/9/5 9/14/5 16/37/5

usemtl BackColor
f 16/37/6 9/14/6 7/9/6

f 13/23/8 14/22/8 12/21/8

f 11/28/10 12/25/10 8/26/10

f 10/15/6 9/14/6 1/13/6

f 5/11/6 9/14/6 10/15/6

usemtl FrontColor
vt -1.02207 -1.12403
v 0.675961 0.608553 -0.30145
vt -26.6126 11.8681
vt -26.6126 -1.12403
f 5/38/9 17/39/9 10/40/9

vt -1.02207 11.8681
f 17/39/9 5/38/9 6/41/9

usemtl BackColor
f 6/41/10 5/38/10 17/39/10

f 6/8/4 2/5/4 5/6/4

usemtl FrontColor
f 2/10/5 17/15/5 6/11/5

f 17/15/5 2/10/5 4/13/5

usemtl BackColor
f 4/13/6 2/10/6 17/15/6

f 4/4/2 1/1/2 2/2/2

usemtl FrontColor
vt 1.12403 10.497
vt -11.8681 23.9588
vt -11.8681 10.497
f 1/42/11 17/43/11 4/44/11

vt 1.12403 23.9588
f 17/43/11 1/42/11 10/45/11

usemtl BackColor
f 10/45/12 1/42/12 17/43/12

f 4/44/12 17/43/12 1/42/12

f 10/40/10 17/39/10 5/38/10

f 6/11/6 17/15/6 2/10/6

g Mesh2 Model

l 1 3

l 4 1

l 2 4

l 3 2

l 3 5

l 10 5

l 1 10

l 17 10

l 4 17

l 17 6

l 6 5

l 2 6

g Mesh3 Model

v -0.0392646 1.02662 0.0453684
v -0.0192646 1.02662 0.0453684
l 18 19

g Mesh4 Model

l 7 14

l 8 7

l 11 8

l 12 11

l 15 12

l 15 14

l 8 15

l 14 13

l 12 13

l 13 9

l 11 9

l 9 16

l 16 7

