<?xml version="1.0" encoding="utf-8"?>
<!-- Generator: Adobe Illustrator 28.0.0, SVG Export Plug-In . SVG Version: 6.00 Build 0)  -->
<svg version="1.1" id="Layer_1" xmlns="http://www.w3.org/2000/svg" xmlns:xlink="http://www.w3.org/1999/xlink" x="0px" y="0px"
	 viewBox="0 0 250 50" style="enable-background:new 0 0 250 50;" xml:space="preserve">
<path d="M177.7,5.4c-10,0-18.2,7.4-19.5,17H99.1c-1.3-9.6-9.5-17-19.5-17s-18.2,7.4-19.5,17H46.1c-1.3-9.6-9.5-17-19.5-17
	C15.8,5.4,7,14.2,7,25s8.8,19.6,19.6,19.6c9.3,0,17.2-6.5,19.1-15.2h14.8c2,8.7,9.8,15.2,19.1,15.2s17.2-6.5,19.1-15.2h59.8
	c2,8.7,9.8,15.2,19.1,15.2c10.8,0,19.6-8.8,19.6-19.6S188.6,5.4,177.7,5.4L177.7,5.4z M26.6,37.7c-7,0-12.7-5.7-12.7-12.7
	s5.7-12.7,12.7-12.7S39.3,18,39.3,25S33.6,37.7,26.6,37.7L26.6,37.7z M79.7,37.7C72.7,37.7,67,32,67,25s5.7-12.7,12.7-12.7
	c7,0,12.7,5.7,12.7,12.7S86.7,37.7,79.7,37.7L79.7,37.7z M177.7,37.7c-7,0-12.7-5.7-12.7-12.7s5.7-12.7,12.7-12.7S190.4,18,190.4,25
	S184.7,37.7,177.7,37.7L177.7,37.7z"/>
</svg>
