# Alias OBJ Model File
# Exported from SketchUp, (c) 2000-2012 Trimble Navigation Limited
# File units = meters

mtllib 002.mtl

g Mesh1 Model

usemtl FrontColor
v 0.51 0 -13.68
vt -20.0787 538.583
vn 0 -1 -0
v 0 0 -0
vt 0 0
v 0 0 -13.68
vt 0 538.583
f 1/1/1 2/2/1 3/3/1

v 0.51 0 -0
vt -20.0787 0
f 2/2/1 1/1/1 4/4/1

usemtl BackColor
vn -0 1 0
f 3/3/2 2/2/2 1/1/2

usemtl FrontColor
vn -1 0 -0
v 0 10.92 -13.68
vt -538.583 429.921
vt -538.583 0
f 2/2/3 5/5/3 3/6/3

v 0 10.92 -0
vt 0 429.921
f 5/5/3 2/2/3 6/7/3

usemtl BackColor
vn 1 -0 0
f 6/7/4 2/2/4 5/5/4

usemtl FrontColor
vn 0 0 1
v 0.51 10.92 -0
vt 20.0787 429.921
f 2/2/5 7/8/5 6/7/5

vt 20.0787 0
f 7/8/5 2/2/5 4/9/5

usemtl BackColor
vn -0 -0 -1
f 4/9/6 2/2/6 7/8/6

f 4/4/2 1/1/2 2/2/2

usemtl FrontColor
v 0.51 0 -12.94
vt -20.0787 509.449
f 4/4/1 1/1/1 8/10/1

usemtl BackColor
f 8/10/2 1/1/2 4/4/2

usemtl FrontColor
v 19.99 0 -13.68
vt -787.008 538.583
f 9/11/1 8/10/1 1/1/1

v 19.665 0 -12.94
vt -774.213 509.449
f 8/10/1 9/11/1 10/12/1

usemtl BackColor
f 1/1/2 8/10/2 9/11/2

usemtl FrontColor
vt 538.583 0
vn 1 0 -0
v 0.51 10.9 -12.94
vt 509.449 429.134
vt 509.449 0
f 1/13/7 11/14/7 8/15/7

v 0.51 10.9 -13.68
vt 538.583 429.134
f 11/14/7 1/13/7 12/16/7

usemtl BackColor
vn -1 -0 0
f 8/15/8 11/14/8 1/13/8

usemtl FrontColor
v 0.51 10.92 -12.94
vt 509.449 429.921
f 13/17/7 8/15/7 11/14/7

f 7/7/7 8/15/7 13/17/7

f 8/15/7 7/7/7 4/2/7

usemtl BackColor
f 4/2/8 7/7/8 8/15/8

f 13/17/8 8/15/8 7/7/8

f 11/14/8 8/15/8 13/17/8

usemtl FrontColor
v 19.665 10.89 -12.94
vt 774.213 428.74
vt 20.0787 429.134
f 8/9/5 14/18/5 11/19/5

vt 774.213 0
f 14/18/5 8/9/5 10/20/5

usemtl BackColor
f 10/20/6 8/9/6 14/18/6

f 10/12/2 9/11/2 8/10/2

usemtl FrontColor
v 19.99 0 -12.94
vt -787.008 509.449
f 10/12/1 9/11/1 15/21/1

usemtl BackColor
f 15/21/2 9/11/2 10/12/2

usemtl FrontColor
v 19.99 10.89 -12.94
vt 509.449 428.74
f 9/13/7 16/22/7 15/15/7

v 19.99 10.9 -12.94
f 16/22/7 9/13/7 17/14/7

usemtl BackColor
f 15/15/8 16/22/8 9/13/8

usemtl FrontColor
vt 787.008 428.74
vt 787.008 0
f 16/23/5 10/20/5 15/24/5

f 10/20/5 16/23/5 14/18/5

usemtl BackColor
f 15/24/6 10/20/6 16/23/6

usemtl FrontColor
v 19.665 0 -0
vt -774.213 0
f 15/21/1 18/25/1 10/12/1

v 19.99 0 -0
vt -787.008 0
f 18/25/1 15/21/1 19/26/1

usemtl BackColor
f 10/12/2 18/25/2 15/21/2

usemtl FrontColor
vt -509.449 428.74
vt -509.449 0
f 18/2/3 14/27/3 10/28/3

v 19.665 10.89 -0
vt 0 428.74
f 14/27/3 18/2/3 20/29/3

usemtl BackColor
f 20/29/4 18/2/4 14/27/4

usemtl FrontColor
v 19.99 10.89 -0
f 18/20/5 21/23/5 20/18/5

f 21/23/5 18/20/5 19/24/5

usemtl BackColor
f 19/24/6 18/20/6 21/23/6

f 19/26/2 15/21/2 18/25/2

usemtl FrontColor
f 15/15/7 21/29/7 19/2/7

f 21/29/7 15/15/7 16/22/7

usemtl BackColor
f 19/2/8 21/29/8 15/15/8

f 16/22/8 15/15/8 21/29/8

usemtl FrontColor
vt 774.213 509.449
vn 0 1 -0
vt 787.008 509.449
f 14/30/9 21/24/9 16/31/9

f 21/24/9 14/30/9 20/20/9

usemtl BackColor
vn -0 -1 0
f 20/20/10 14/30/10 21/24/10

f 16/31/10 21/24/10 14/30/10

usemtl FrontColor
vt 787.008 429.134
f 17/32/5 14/18/5 16/23/5

v 19.665 10.9 -12.94
vt 774.213 429.134
f 14/18/5 17/32/5 22/33/5

usemtl BackColor
f 16/23/6 14/18/6 17/32/6

f 14/18/6 16/23/6 10/20/6

f 10/28/4 14/27/4 18/2/4

f 22/33/6 17/32/6 14/18/6

usemtl FrontColor
v 19.99 10.9 -13.68
vt 787.008 538.583
f 23/34/9 22/30/9 17/31/9

vt 20.0787 538.583
f 12/35/9 22/30/9 23/34/9

vt 20.0787 509.449
f 22/30/9 12/35/9 11/36/9

usemtl BackColor
f 11/36/10 12/35/10 22/30/10

usemtl FrontColor
f 12/16/7 13/17/7 11/14/7

v 0.51 10.92 -13.68
vt 538.583 429.921
f 13/17/7 12/16/7 24/37/7

usemtl BackColor
f 11/14/8 13/17/8 12/16/8

f 24/37/8 12/16/8 13/17/8

usemtl FrontColor
vt -20.0787 429.134
vn 0 0 -1
vt -20.0787 429.921
f 12/38/11 5/7/11 24/39/11

f 1/4/11 5/7/11 12/38/11

f 5/7/11 1/4/11 3/2/11

usemtl BackColor
vn -0 -0 1
f 3/2/12 1/4/12 5/7/12

f 12/38/12 5/7/12 1/4/12

f 24/39/12 5/7/12 12/38/12

usemtl FrontColor
f 5/3/9 7/9/9 24/35/9

f 7/9/9 5/3/9 6/2/9

usemtl BackColor
f 6/2/10 5/3/10 7/9/10

f 24/35/10 7/9/10 5/3/10

usemtl FrontColor
f 24/35/9 7/9/9 13/36/9

usemtl BackColor
f 13/36/10 7/9/10 24/35/10

f 6/7/6 7/8/6 2/2/6

usemtl FrontColor
f 12/38/11 9/26/11 1/4/11

vt -787.008 429.134
f 9/26/11 12/38/11 23/40/11

usemtl BackColor
f 1/4/12 9/26/12 12/38/12

f 23/40/12 12/38/12 9/26/12

f 23/34/10 22/30/10 12/35/10

f 17/31/10 22/30/10 23/34/10

usemtl FrontColor
f 17/14/7 9/13/7 23/16/7

usemtl BackColor
f 17/14/8 9/13/8 16/22/8

f 23/16/8 9/13/8 17/14/8

f 12/16/8 1/13/8 11/14/8

f 3/6/4 5/5/4 2/2/4

usemtl FrontColor
f 11/19/5 14/18/5 22/33/5

usemtl BackColor
f 11/19/6 14/18/6 8/9/6

f 22/33/6 14/18/6 11/19/6

f 20/18/6 21/23/6 18/20/6

g Mesh2 Model

l 3 2

l 1 3

l 1 9

l 8 1

l 4 8

l 2 4

l 2 6

l 5 6

l 24 5

l 13 24

l 7 13

l 6 7

l 4 7

l 11 13

l 8 11

l 10 8

l 15 10

l 9 15

l 9 23

l 12 23

l 1 12

l 11 12

l 22 11

l 17 22

l 23 17

l 16 17

l 15 16

l 15 19

l 19 18

l 19 21

l 16 21

l 16 14

l 10 14

l 18 10

l 18 20

l 20 14

l 21 20

l 14 22

l 12 24

l 3 5

