# Alias OBJ Model File
# Exported from SketchUp, (c) 2000-2012 Trimble Navigation Limited
# File units = meters

mtllib BMSTEST001.mtl

g Mesh1 Model

usemtl FrontColor
v 2.45127 0 -0
vt -96.5068 0
vn 0 -1 -0
v 1.44051 0 -0
vt -56.7128 0
v 1.44051 0 -65.7543
vt -56.7128 2588.75
v 2.45127 0 -65.7543
vt -96.5068 2588.75
f 1/1/1 2/2/1 3/3/1 4/4/1 

usemtl BackColor
vn -0 1 0
f 4/4/2 3/3/2 2/2/2 1/1/2 

usemtl FrontColor
vn 0 0 -1
v 1.44051 30.1 -65.7543
vt -56.7128 1185.04
v 2.45127 30.1 -65.7543
vt -96.5068 1185.04
f 4/1/3 3/2/3 5/5/3 6/6/3 

usemtl BackColor
vn -0 -0 1
f 6/6/4 5/5/4 3/2/4 4/1/4 

usemtl FrontColor
v 1.44051 30.1 -0
vt 56.7128 0
vn 0 1 -0
v 2.45127 30.1 -0
vt 96.5068 0
vt 96.5068 2588.75
vt 56.7128 2588.75
f 7/7/5 8/8/5 6/9/5 5/10/5 

usemtl BackColor
vn -0 -1 0
f 5/10/6 6/9/6 8/8/6 7/7/6 

usemtl FrontColor
vt 0 0
vn 1 0 -0
vt 2588.75 0
vt 2588.75 1185.04
vt 0 1185.04
f 1/11/7 4/12/7 6/13/7 8/14/7 

usemtl BackColor
vn -1 -0 0
f 8/14/8 6/13/8 4/12/8 1/11/8 

usemtl FrontColor
vn 0 0 1
vt 96.5068 1185.04
vt 56.7128 1185.04
f 2/7/9 1/8/9 8/15/9 7/16/9 

usemtl BackColor
vn -0 -0 -1
f 7/16/10 8/15/10 1/8/10 2/7/10 

usemtl FrontColor
vt -2588.75 0
vn -1 0 -0
vt -2588.75 1185.04
f 3/17/11 2/11/11 7/14/11 5/18/11 

usemtl BackColor
vn 1 -0 0
f 5/18/12 7/14/12 2/11/12 3/17/12 

g Mesh2 Model

usemtl FrontColor
v 10.7607 -1.15506e-14 -53.4439
vt -423.651 2104.09
v 11.7307 -1.15506e-14 -53.4439
vt -461.84 2104.09
v 11.7307 -1.15506e-14 -10.6839
vt -461.84 420.628
v 11.7307 -1.15506e-14 -9.37394
vt -461.84 369.053
v 10.7607 -1.15506e-14 -9.37394
vt -423.651 369.053
f 9/19/1 10/20/1 11/21/1 12/22/1 13/23/1 

usemtl BackColor
f 13/23/2 12/22/2 11/21/2 10/20/2 9/19/2 

usemtl FrontColor
vt 423.651 -4.54747e-13
vt 461.84 -4.54747e-13
v 11.7307 20.83 -9.37394
vt 461.84 820.079
v 11.7307 20.95 -9.37394
vt 461.84 824.803
v 10.7607 20.95 -9.37394
vt 423.651 824.803
f 13/24/9 12/25/9 14/26/9 15/27/9 16/28/9 

usemtl BackColor
f 16/28/10 15/27/10 14/26/10 12/25/10 13/24/10 

usemtl FrontColor
v 11.7307 20.95 -53.4439
vt 461.84 2104.09
v 10.7607 20.95 -53.4439
vt 423.651 2104.09
vt 423.651 369.053
vt 461.84 369.053
f 17/29/5 18/30/5 16/31/5 15/32/5 

usemtl BackColor
f 15/32/6 16/31/6 18/30/6 17/29/6 

usemtl FrontColor
vt -2104.09 -4.54747e-13
vt -369.053 -4.54747e-13
vt -369.053 824.803
vt -2104.09 824.803
f 9/33/11 13/34/11 16/35/11 18/36/11 

usemtl BackColor
f 18/36/12 16/35/12 13/34/12 9/33/12 

usemtl FrontColor
vt -461.84 -4.54747e-13
vt -423.651 -4.54747e-13
vt -423.651 824.803
vt -461.84 824.803
f 10/37/3 9/38/3 18/39/3 17/40/3 

usemtl BackColor
f 17/40/4 18/39/4 9/38/4 10/37/4 

usemtl FrontColor
vt 369.053 824.803
vn 1 2.31581e-17 -7.80018e-18
vt 369.053 820.079
v 11.7307 20.83 -10.6839
vt 420.628 820.079
vt 420.628 -4.65443e-13
vt 2104.09 -4.65443e-13
vt 2104.09 824.803
f 15/41/13 14/42/13 19/43/13 11/44/13 10/45/13 17/46/13 

usemtl BackColor
vn -1 -2.31581e-17 7.80018e-18
f 17/46/14 10/45/14 11/44/14 19/43/14 14/42/14 15/41/14 

usemtl FrontColor
v 88.2239 -1.15506e-14 -10.6839
vt -3473.38 -4.54747e-13
vt -461.84 820.079
v 88.2239 20.83 -10.6839
vt -3473.38 820.079
f 20/47/3 11/37/3 19/48/3 21/49/3 

vt -3473.38 420.628
v 88.2239 -1.15506e-14 -9.37394
vt -3473.38 369.053
f 11/21/1 20/50/1 22/51/1 12/22/1 

usemtl BackColor
f 12/22/2 22/51/2 20/50/2 11/21/2 

usemtl FrontColor
vt 3473.38 -4.54747e-13
v 88.2239 20.83 -9.37394
vt 3473.38 820.079
f 12/25/9 22/52/9 23/53/9 14/26/9 

usemtl BackColor
f 14/26/10 23/53/10 22/52/10 12/25/10 

usemtl FrontColor
vt 3473.38 420.628
vt 461.84 420.628
vt 3473.38 369.053
f 21/54/5 19/55/5 14/32/5 23/56/5 

usemtl BackColor
f 23/56/6 14/32/6 19/55/6 21/54/6 

usemtl FrontColor
vt 369.053 -4.54747e-13
vn 1 0 1.10215e-15
vt 420.628 -4.54747e-13
f 12/57/15 11/58/15 19/43/15 14/42/15 

usemtl BackColor
vn -1 -0 -1.10215e-15
f 14/42/16 19/43/16 11/58/16 12/57/16 

f 21/49/4 19/48/4 11/37/4 20/47/4 

usemtl FrontColor
f 22/57/7 20/58/7 21/43/7 23/42/7 

usemtl BackColor
f 23/42/8 21/43/8 20/58/8 22/57/8 

g Mesh3 Model

usemtl BMSLayout
v 0 0 -0
vn 0 0.0254 -0
v 183.775 0 -0
vt 1 0
v 183.775 0 -68.2484
vt 1 1
v 0 0 -68.2484
vt 0 1
f 24/11/17 25/59/17 26/60/17 27/61/17 

vn -0 -0.0254 0
f 24/11/18 27/61/18 26/60/18 25/59/18 

g Mesh4 Model

l 4 3

l 1 4

l 2 1

l 3 2

l 3 5

l 5 7

l 6 5

l 8 6

l 7 8

l 2 7

l 1 8

l 4 6

g Mesh5 Model

l 9 13

l 10 9

l 10 17

l 11 10

l 12 11

l 13 12

l 13 16

l 16 15

l 18 16

l 17 18

l 15 17

l 14 15

l 12 14

l 12 22

l 22 20

l 22 23

l 23 21

l 14 23

l 14 19

l 21 19

l 20 21

l 20 11

l 11 19

l 9 18

