<?xml version="1.0" encoding="utf-8"?>
<!-- Generator: Adobe Illustrator 28.0.0, SVG Export Plug-In . SVG Version: 6.00 Build 0)  -->
<svg version="1.1" id="Layer_1" xmlns="http://www.w3.org/2000/svg" xmlns:xlink="http://www.w3.org/1999/xlink" x="0px" y="0px"
	 viewBox="0 0 500 500" style="enable-background:new 0 0 500 500;" xml:space="preserve">
<style type="text/css">
	.st0{fill:#117D3F;}
	.st1{fill:#146A7D;}
	.st2{font-family:'Verdana';}
	.st3{font-size:95.426px;}
</style>
<g id="coloured">
	<g id="flat">
		<path class="st0" d="M356.1,264.1c-5.8-8.2-9.9-20.5-9.9-30s4.1-21.8,9.9-30c3.5-5,5.4-10.8,5.4-17c0-16.2-13.2-29.4-29.4-29.4
			c-16.2,0-29.4,13.2-29.4,29.4c0,6.1,1.9,12,5.4,17c5.8,8.2,9.9,20.5,9.9,30s-4.1,21.8-9.9,30c-3.5,5-5.4,10.8-5.4,17
			c0,16.2,13.2,29.4,29.4,29.4c16.2,0,29.4-13.2,29.4-29.4C361.5,274.9,359.6,269,356.1,264.1C356.1,264.1,356.1,264.1,356.1,264.1
			L356.1,264.1z"/>
		<path class="st0" d="M191.7,172c-5.8-8.2-9.9-20.5-9.9-30c0-9.5,4.1-21.8,9.9-30c3.5-5,5.4-10.8,5.4-17
			c0-16.2-13.2-29.4-29.4-29.4S138.4,78.9,138.4,95c0,6.1,1.9,12,5.4,17c5.8,8.2,9.9,20.5,9.9,30c0,9.5-4.1,21.8-9.9,30
			c-3.5,5-5.4,10.8-5.4,17c0,16.2,13.2,29.4,29.4,29.4s29.4-13.2,29.4-29.4C197.1,182.9,195.2,177,191.7,172
			C191.7,172,191.7,172,191.7,172L191.7,172z"/>
		<circle class="st0" cx="249.9" cy="54.2" r="29.4"/>
		<circle class="st0" cx="249.9" cy="321.9" r="29.4"/>
		<path class="st1" d="M357.6,80.9c-7.9-14.1-25.8-19.2-39.9-11.4c-5.3,3-9.6,7.5-12.2,13c0,0,0,0,0,0c-4.3,9.1-13.1,18.6-21.4,23.2
			c-8.3,4.6-21,7.1-31,6c-6.1-0.7-12.1,0.6-17.4,3.5c-12.1,6.7-17.6,20.8-14,33.6c0,0.1,0.1,0.2,0.1,0.3c0.1,0.2,0.1,0.4,0.2,0.7
			c0.9,2.9,2.3,5.7,4.1,8.2c5.8,8.2,9.9,20.5,9.9,30c0,9.5-3.4,20.2-12.5,34.8c-9.1,14.5-13.5,18.6-21.2,22.9c-8.3,4.6-21,7.1-31,6
			c-6.1-0.7-12.1,0.6-17.4,3.5c-14.1,7.9-19.2,25.8-11.4,39.9c7.9,14.1,25.8,19.2,39.9,11.4c5.3-3,9.6-7.5,12.2-13c0,0,0,0,0,0
			c4.3-9.1,13.1-18.6,21.4-23.2c8.3-4.6,21-7.1,31-6c6.1,0.7,12.1-0.6,17.4-3.5c12.1-6.7,17.6-20.8,14-33.6c0-0.1-0.1-0.2-0.1-0.3
			c-0.1-0.2-0.1-0.4-0.2-0.7c-0.9-2.9-2.3-5.7-4.1-8.2c-5.8-8.2-9.9-20.5-9.9-30c0-9.5,3.4-20.2,12.5-34.8
			c9.1-14.5,13.5-18.6,21.2-22.9c8.3-4.6,21-7.1,31-6c6.1,0.7,12.1-0.6,17.4-3.5C360.4,113,365.5,95.1,357.6,80.9L357.6,80.9z"/>
	</g>
	<text transform="matrix(1 0 0 1 116.5342 446.2412)" class="st1 st2 st3">CMCL</text>
</g>
</svg>
