<?xml version="1.0" encoding="utf-8"?>
<!-- Uploaded to: SVG Repo, www.svgrepo.com, Generator: SVG Repo Mixer Tools -->
<svg width="800px" height="800px" viewBox="0 0 1024 1024" class="icon"  version="1.1" xmlns="http://www.w3.org/2000/svg"><path d="M913.88 548.4c-66.14 35.43-141.83-7.68-141.83-7.68-112.76-53.91-246.31-55.82-246.31-55.82-34.09-2.34-25.47-17.51-20.69-25.88 0.73-1.27 1.74-2.36 2.59-3.56a187.06 187.06 0 0 0 34.17-108.08c0-103.78-84.13-187.92-187.92-187.92C251 159.47 167.37 242.24 166 344.87c-1 3.81-42.28 9.32-73-5.06-40-18.71-25.08 73.65 42.35 95.45l-2.31-0.1c-28.06-1.52-30.8 7.68-30.8 7.68s-16.14 29.75 83.13 38.37c31.39 2.72 35.71 8.11 42 16.64 11.92 16.14 3.57 39.25-12.15 59-44.53 55.77-71.84 180.68 49.78 270.85 103.12 76.47 377.65 79.95 497.37-15.13 108-85.76 156.72-170.47 185.79-241.14 3.9-9.54 31.84-58.43-34.28-23.03z" fill="#DFEDFF" /><path d="M497.6 892c-45.54 0-90.26-4.72-129.91-13.76-44.48-10.13-81.54-25.54-107.18-44.55-51.15-37.93-81.9-86.48-88.93-140.4-7.75-59.47 14.44-111.93 37.79-141.21 5.94-7.45 24.37-33.06 12-49.83-5.31-7.2-8.24-11.16-36.63-13.62-49.83-4.32-79.54-14.77-88.3-31A20 20 0 0 1 95.31 440c1-2.48 3.9-7 12.58-9.9-25-17-39.75-43.45-43.46-65.14-2.49-14.57 0.26-25.73 7.75-31.43 4.34-3.31 12-6.08 24-0.48 22.57 10.56 52.33 9.36 62.45 7.08A195.41 195.41 0 0 1 353.9 152c107.75 0 195.42 87.66 195.42 195.42a194.18 194.18 0 0 1-35.54 112.4c-0.39 0.55-0.8 1.09-1.22 1.62a14.24 14.24 0 0 0-1 1.35c-1.33 2.32-4.44 7.76-3.45 9.6 0.09 0.16 2.3 4 18 5.07 3.19 0.06 35.67 0.78 81.68 7.77 43.83 6.66 108.47 20.53 167.55 48.77l0.48 0.25c0.72 0.41 73 40.58 134.58 7.58l3.54 6.61-3.54-6.61c26.78-14.35 41.69-17.16 49.86-9.43 10 9.45 1.46 27.71-3.64 38.63-0.64 1.38-1.2 2.56-1.5 3.3C930.2 634.73 883.66 725.8 767 818.44c-29.48 23.42-68.66 41.78-116.44 54.6-43.33 11.62-92.79 18.16-143 18.92q-4.99 0.04-9.96 0.04zM108.93 446.26c-0.19 0.58-0.51 2.28 1 4.7 3.12 5.13 16.77 17.6 76.12 22.75 31.67 2.75 39.06 8.37 47.4 19.66 12.64 17.12 8 42.58-12.32 68.09-21.43 26.87-41.79 75.1-34.65 129.91a171.55 171.55 0 0 0 23.39 66.51c14.09 23.45 34.14 44.91 59.6 63.79 48 35.59 139.14 56.78 237.88 55.29 49-0.74 97.21-7.11 139.36-18.41 45.79-12.28 83.13-29.73 111-51.86C871.59 716.23 917 627.47 941.2 568.58c0.43-1.06 1-2.33 1.78-3.94a113.36 113.36 0 0 0 5.47-13.25c1.59-5 1.45-7.32 1.31-8.1-1.55-0.37-8.86-0.86-32.33 11.71-28.67 15.36-63.59 18.86-101 10.14a197.41 197.41 0 0 1-47.86-17.77c-109.85-52.44-241.64-55-243-55h-0.4c-16.57-1.14-26.21-5.26-30.34-13-4.9-9.16 0.67-18.89 3.66-24.12a25.75 25.75 0 0 1 2.2-3.16c0.26-0.33 0.52-0.66 0.76-1a179.26 179.26 0 0 0 32.8-103.76C534.32 247.9 453.38 167 353.9 167a180.41 180.41 0 0 0-180.38 178 7.5 7.5 0 0 1-0.25 1.83 9.3 9.3 0 0 1-5.5 6c-9.4 4.38-48.35 7.63-77.94-6.22-3.92-1.83-7.12-2.27-8.56-1.18-2.11 1.61-3.65 7.6-2.05 17 3.4 19.92 21.78 53.87 58.44 65.72a7.5 7.5 0 0 1-2.66 14.59l-2.31-0.1c-17.46-0.94-22.63 2.51-23.63 3.37z m-0.09 0.14z" fill="#66A9F7" /><path d="M393.54 600.36a2.5 2.5 0 0 1-0.35-5c0.05 0 5.5-0.79 14.94-1.9a2.5 2.5 0 0 1 0.58 5c-9.37 1.1-14.76 1.87-14.82 1.88zM550.28 786.86c-3.57 0-7.16-0.05-10.67-0.16a2.5 2.5 0 1 1 0.15-5c9.75 0.29 19.84 0.17 29.92-0.36a2.5 2.5 0 0 1 0.26 5c-6.58 0.35-13.2 0.52-19.66 0.52z m-40.63-2.39h-0.3a301.55 301.55 0 0 1-29.93-5.15 2.5 2.5 0 0 1 1.1-4.88 296.47 296.47 0 0 0 29.43 5.06 2.5 2.5 0 0 1-0.3 5z m90.17-0.83a2.5 2.5 0 0 1-0.31-5 420.3 420.3 0 0 0 29.56-4.86 2.5 2.5 0 0 1 1 4.9c-9.89 2-20 3.65-29.92 4.92z m59.05-11.93a2.5 2.5 0 0 1-0.68-4.91c9.47-2.67 14.94-4.66 15-4.68s5.09-2 13.08-5.51a2.5 2.5 0 0 1 2 4.58c-8.1 3.56-13.28 5.59-13.33 5.61-0.28 0.1-5.73 2.09-15.4 4.82a2.49 2.49 0 0 1-0.67 0.09zM451 771.14a2.5 2.5 0 0 1-0.82-0.14 252.81 252.81 0 0 1-28.09-11.65 2.5 2.5 0 1 1 2.19-4.49 247.67 247.67 0 0 0 27.53 11.42 2.5 2.5 0 0 1-0.82 4.86z m263.58-22.69a2.5 2.5 0 0 1-1.14-4.73c9.37-4.78 18.21-9.68 26.25-14.54a2.5 2.5 0 0 1 2.59 4.28c-8.15 4.92-17.09 9.87-26.56 14.71a2.49 2.49 0 0 1-1.14 0.28zM397 744.72a2.49 2.49 0 0 1-1.37-0.41 239.3 239.3 0 0 1-24.3-18.31 2.5 2.5 0 0 1 3.25-3.8 234.35 234.35 0 0 0 23.8 17.91 2.5 2.5 0 0 1-1.37 4.59z m369-27.78a2.5 2.5 0 0 1-1.52-4.48 135.63 135.63 0 0 0 21.63-20.14 2.5 2.5 0 0 1 3.84 3.2 140.53 140.53 0 0 1-22.43 20.91 2.49 2.49 0 0 1-1.52 0.51z m34.69-47.28h-0.2a2.5 2.5 0 0 1-2.29-2.69c0.06-0.75 0.09-1.5 0.09-2.24 0-7.94-3.54-15.6-10.52-22.75a2.5 2.5 0 1 1 3.58-3.49c7.92 8.12 11.94 16.95 11.94 26.24 0 0.87 0 1.76-0.11 2.64a2.5 2.5 0 0 1-2.51 2.28z m-35.75-44.08a2.49 2.49 0 0 1-1.14-0.28l-1.44-0.73a224.37 224.37 0 0 0-26-10.88A2.5 2.5 0 0 1 738 609a229.39 229.39 0 0 1 26.55 11.13l1.49 0.75a2.5 2.5 0 0 1-1.14 4.73z m-56.63-20.28a2.5 2.5 0 0 1-0.6-0.07c-9.21-2.27-19.07-4.32-29.33-6.1a2.5 2.5 0 0 1 0.85-4.93c10.37 1.79 20.35 3.87 29.67 6.17a2.5 2.5 0 0 1-0.6 4.93z m-269.93-10a2.5 2.5 0 0 1-0.23-5c9.94-0.92 20.07-1.74 30.09-2.44a2.5 2.5 0 0 1 0.35 5c-10 0.7-20.07 1.51-30 2.43z m210.6-0.46h-0.29c-9.56-1.12-19.62-2.06-29.9-2.81a2.5 2.5 0 0 1 0.36-5c10.35 0.75 20.49 1.71 30.12 2.83a2.5 2.5 0 0 1-0.29 5z m-150.48-3.69a2.5 2.5 0 0 1-0.12-5c10.16-0.48 20.31-0.83 30.18-1a2.5 2.5 0 1 1 0.11 5c-9.83 0.22-19.94 0.57-30.05 1z m90.38-0.71h-0.09c-9.73-0.35-19.84-0.55-30-0.6a2.5 2.5 0 0 1 0-5c10.26 0.05 20.42 0.26 30.2 0.61a2.5 2.5 0 0 1-0.09 5zM351.56 705.86a2.49 2.49 0 0 1-1.85-0.81c-3.37-3.69-6.69-7.55-9.88-11.48a2.5 2.5 0 1 1 3.88-3.15c3.13 3.86 6.39 7.65 9.69 11.26a2.5 2.5 0 0 1-1.85 4.19z" fill="#66A9F7" /></svg>