<?xml version="1.0" encoding="utf-8"?>
<!-- Uploaded to: SVG Repo, www.svgrepo.com, Generator: SVG Repo Mixer Tools -->
<svg width="800px" height="800px" viewBox="0 0 1024 1024" class="icon"  version="1.1" xmlns="http://www.w3.org/2000/svg"><path d="M160.85 596.71a7.5 7.5 0 0 1-7.5-7.5V183.33c0-64.4 48.22-116.79 107.5-116.79 34 0 66.3 17.73 86.5 47.43a7.5 7.5 0 1 1-12.4 8.44c-17.67-26-44.68-40.87-74.1-40.87-51 0-92.5 45.66-92.5 101.79v405.88a7.5 7.5 0 0 1-7.5 7.5z" fill="#66A9F7" /><path d="M96.48 637.38a25 25 0 0 1-25-25 25 25 0 0 1 25-25h830a25 25 0 0 1 25 25 25 25 0 0 1-25 25" fill="#FFFFFF" /><path d="M926.48 644.88a7.5 7.5 0 0 1 0-15 17.5 17.5 0 0 0 0-35h-830a17.5 17.5 0 0 0 0 35 7.5 7.5 0 1 1 0 15 32.5 32.5 0 0 1 0-65h830a32.5 32.5 0 0 1 0 65z" fill="#66A9F7" /><path d="M268.67 124.01l150 0 0 30-150 0 0-30Z" fill="#FFFFFF" /><path d="M403.67 161.51h-120a22.5 22.5 0 0 1 0-45h120a22.5 22.5 0 1 1 0 45z m-120-30a7.5 7.5 0 0 0 0 15h120a7.5 7.5 0 0 0 0-15zM859 959.53a47.5 47.5 0 0 1 0-95 7.5 7.5 0 0 1 0 15 32.5 32.5 0 0 0 0 65 7.5 7.5 0 0 1 0 15zM165.9 959.53a7.5 7.5 0 0 1 0-15 32.5 32.5 0 0 0 0-65 7.5 7.5 0 0 1 0-15 47.5 47.5 0 0 1 0 95z" fill="#66A9F7" /><path d="M926.77 638v145.67c0 55-45 100-100 100h-630c-55 0-100-45-100-100V638" fill="#DFEDFF" /><path d="M826.77 891.17h-630a107.62 107.62 0 0 1-107.5-107.5V638a7.5 7.5 0 1 1 15 0v145.67a92.61 92.61 0 0 0 92.5 92.5h630a92.61 92.61 0 0 0 92.5-92.5V638a7.5 7.5 0 0 1 15 0v145.67a107.62 107.62 0 0 1-107.5 107.5zM88.29 590.77a2.5 2.5 0 0 1-0.29-5 27.85 27.85 0 0 1 3.29-0.2h12a2.5 2.5 0 0 1 0 5h-12a22.7 22.7 0 0 0-2.7 0.16z" fill="#66A9F7" /><path d="M916.68 640.59h-30a2.5 2.5 0 1 1 0-5h30a2.5 2.5 0 0 1 0 5z m-60.06 0h-30a2.5 2.5 0 0 1 0-5h30a2.5 2.5 0 0 1 0 5z m-60.06 0h-30a2.5 2.5 0 0 1 0-5h30a2.5 2.5 0 1 1 0 5z m-60.06 0h-30a2.5 2.5 0 0 1 0-5h30a2.5 2.5 0 1 1 0 5z m-60.06 0h-30a2.5 2.5 0 0 1 0-5h30a2.5 2.5 0 0 1 0 5z m-60.06 0h-30a2.5 2.5 0 0 1 0-5h30a2.5 2.5 0 1 1 0 5z m-60.06 0h-30a2.5 2.5 0 0 1 0-5h30a2.5 2.5 0 0 1 0 5z m-60.06 0h-30a2.5 2.5 0 0 1 0-5h30a2.5 2.5 0 1 1 0 5z m-60.06 0h-30a2.5 2.5 0 0 1 0-5h30a2.5 2.5 0 1 1 0 5z m-60.06 0h-30a2.5 2.5 0 1 1 0-5h30a2.5 2.5 0 1 1 0 5z m-60.06 0H286a2.5 2.5 0 1 1 0-5h30a2.5 2.5 0 0 1 0 5z m-60.06 0H226a2.5 2.5 0 0 1 0-5h30a2.5 2.5 0 0 1 0 5z m-60.06 0h-30a2.5 2.5 0 1 1 0-5h30a2.5 2.5 0 0 1 0 5z m-60.06 0h-30a2.5 2.5 0 1 1 0-5h30a2.5 2.5 0 0 1 0 5zM945.75 636a2.5 2.5 0 0 1-1.45-4.54 22.54 22.54 0 0 0 8.81-23.86 2.5 2.5 0 1 1 4.85-1.22 27.54 27.54 0 0 1-10.77 29.15 2.49 2.49 0 0 1-1.44 0.47z m-869 0a2.49 2.49 0 0 1-1.45-0.47 27.54 27.54 0 0 1-10.67-29.23 2.5 2.5 0 1 1 4.85 1.23 22.54 22.54 0 0 0 8.75 23.88 2.5 2.5 0 0 1-1.46 4.53zM934.29 590.77h-0.3a22.86 22.86 0 0 0-2.7-0.16h-12a2.5 2.5 0 0 1 0-5h12a28 28 0 0 1 3.29 0.2 2.5 2.5 0 0 1-0.29 5zM343 175.47a2.5 2.5 0 0 1-2.5-2.5V158a2.5 2.5 0 0 1 5 0v15a2.5 2.5 0 0 1-2.5 2.47zM343 493.56a2.5 2.5 0 0 1-2.5-2.5v-31.81a2.5 2.5 0 0 1 5 0v31.81a2.5 2.5 0 0 1-2.5 2.5z m0-63.62a2.5 2.5 0 0 1-2.5-2.5v-31.81a2.5 2.5 0 0 1 5 0v31.81a2.5 2.5 0 0 1-2.5 2.5z m0-63.62a2.5 2.5 0 0 1-2.5-2.5V332a2.5 2.5 0 0 1 5 0v31.81a2.5 2.5 0 0 1-2.5 2.51z m0-63.62a2.5 2.5 0 0 1-2.5-2.5v-31.8a2.5 2.5 0 0 1 5 0v31.81a2.5 2.5 0 0 1-2.5 2.5z m0-63.62a2.5 2.5 0 0 1-2.5-2.5v-31.8a2.5 2.5 0 0 1 5 0v31.81a2.5 2.5 0 0 1-2.5 2.5zM343 540.37a2.5 2.5 0 0 1-2.5-2.5v-15a2.5 2.5 0 0 1 5 0v15a2.5 2.5 0 0 1-2.5 2.5zM307.11 177.29a2.5 2.5 0 0 1-2.5-2.5v-15a2.5 2.5 0 0 1 5 0v15a2.5 2.5 0 0 1-2.5 2.5zM307.11 495.38a2.5 2.5 0 0 1-2.5-2.5v-31.81a2.5 2.5 0 1 1 5 0v31.81a2.5 2.5 0 0 1-2.5 2.5z m0-63.62a2.5 2.5 0 0 1-2.5-2.5v-31.81a2.5 2.5 0 0 1 5 0v31.81a2.5 2.5 0 0 1-2.5 2.5z m0-63.62a2.5 2.5 0 0 1-2.5-2.5v-31.8a2.5 2.5 0 0 1 5 0v31.81a2.5 2.5 0 0 1-2.5 2.5z m0-63.62a2.5 2.5 0 0 1-2.5-2.5v-31.8a2.5 2.5 0 0 1 5 0V302a2.5 2.5 0 0 1-2.5 2.53z m0-63.62a2.5 2.5 0 0 1-2.5-2.5v-31.8a2.5 2.5 0 0 1 5 0v31.81a2.5 2.5 0 0 1-2.5 2.5zM307.11 542.19a2.5 2.5 0 0 1-2.5-2.5v-15a2.5 2.5 0 0 1 5 0v15a2.5 2.5 0 0 1-2.5 2.5zM378.9 177.29a2.5 2.5 0 0 1-2.5-2.5v-15a2.5 2.5 0 1 1 5 0v15a2.5 2.5 0 0 1-2.5 2.5zM378.9 495.38a2.5 2.5 0 0 1-2.5-2.5v-31.81a2.5 2.5 0 0 1 5 0v31.81a2.5 2.5 0 0 1-2.5 2.5z m0-63.62a2.5 2.5 0 0 1-2.5-2.5v-31.81a2.5 2.5 0 0 1 5 0v31.81a2.5 2.5 0 0 1-2.5 2.5z m0-63.62a2.5 2.5 0 0 1-2.5-2.5v-31.8a2.5 2.5 0 1 1 5 0v31.81a2.5 2.5 0 0 1-2.5 2.5z m0-63.62a2.5 2.5 0 0 1-2.5-2.5v-31.8a2.5 2.5 0 0 1 5 0V302a2.5 2.5 0 0 1-2.5 2.53z m0-63.62a2.5 2.5 0 0 1-2.5-2.5v-31.8a2.5 2.5 0 1 1 5 0v31.81a2.5 2.5 0 0 1-2.5 2.5zM378.9 542.19a2.5 2.5 0 0 1-2.5-2.5v-15a2.5 2.5 0 0 1 5 0v15a2.5 2.5 0 0 1-2.5 2.5z" fill="#66A9F7" /></svg>