<?xml version="1.0" encoding="utf-8"?>
<!-- Generator: Adobe Illustrator 28.0.0, SVG Export Plug-In . SVG Version: 6.00 Build 0)  -->
<svg version="1.1" id="Layer_1" xmlns="http://www.w3.org/2000/svg" xmlns:xlink="http://www.w3.org/1999/xlink" x="0px" y="0px"
	 viewBox="0 0 500 500" style="enable-background:new 0 0 500 500;" xml:space="preserve">
<style type="text/css">
	.st0{fill-rule:evenodd;clip-rule:evenodd;fill:#1D1D1B;}
	.st1{fill-rule:evenodd;clip-rule:evenodd;fill:#5514B4;}
	.st2{fill-rule:evenodd;clip-rule:evenodd;fill:#FF80FF;}
	.st3{fill-rule:evenodd;clip-rule:evenodd;fill:#87005F;}
	.st4{fill-rule:evenodd;clip-rule:evenodd;fill:#C81E6E;}
	.st5{fill-rule:evenodd;clip-rule:evenodd;fill:#43B072;}
	.st6{fill-rule:evenodd;clip-rule:evenodd;fill:#142032;}
	.st7{fill-rule:evenodd;clip-rule:evenodd;fill:#EDF23B;}
	.st8{fill-rule:evenodd;clip-rule:evenodd;fill:#009BA5;}
</style>
<g>
	<path class="st0" d="M58.8,179.9c13.5,0,22.7,7.5,22.7,18.6c0,7.3-5.1,13.2-13.3,15.9c10,2.3,16.1,8.6,16.1,17.4
		c0,12.7-10,21.5-24.6,21.5H25.8v-73.4H58.8z M56.9,209.9c7,0,10.2-4.3,10.2-9.4c0-5.6-3.7-8.9-10.2-8.9H39.7v18.3H56.9z
		 M58.2,241.5c7.3,0,11.7-3.8,11.7-10.1c0-5.9-4.7-9.8-11.7-9.8H39.9v20.1h18.3V241.5z"/>
	<path class="st0" d="M127.2,192.2v61.1h-14.4v-61.1h-23v-12.3h60.4v12.3H127.2z"/>
	<path class="st0" d="M233.6,253h-13.6v-12.5c-3.7,9.3-10.2,13.7-19.8,13.7c-16.8,0-27.8-14.6-27.8-37.1c0-23.6,12.5-38.1,32.9-38.1
		c11.2,0,20.1,4.9,26.7,15.1l-11.3,7c-4-6.7-9-9.8-15.1-9.8c-11.1,0-18.4,10.3-18.4,25.8c0,14.9,6.6,24.7,16.5,24.7
		c8.2,0,14.8-6.6,15.6-15.3h-10.2v-11.8h24.6V253H233.6z"/>
	<path class="st0" d="M243,200.3h21v11.6c2.6-7.2,8-11.6,15.9-11.6h5.8V213h-8.3c-8.6,0-13,3.7-13,11.3v28.9h-13.8v-41.9H243V200.3z
		"/>
	<path class="st0" d="M290.4,226.3c0-16.7,11-27.9,27.4-27.9s27.4,11.2,27.4,27.9s-11,27.9-27.4,27.9S290.4,243,290.4,226.3z
		 M330.9,226.3c0-9.8-5.3-16.4-13.1-16.4s-13.1,6.6-13.1,16.4s5.3,16.4,13.1,16.4S330.9,236.1,330.9,226.3z"/>
	<path class="st0" d="M410.9,253.2h-21.3v-10.4c-3.2,7.1-9.2,11.4-17,11.4c-11.2,0-18.1-8.5-18.1-20.5v-33.3h14v31.4
		c0,7.5,3.9,10.9,9.6,10.9c6.1,0,11.1-4.9,11.1-10.7v-31.6h14v41.7h7.9v11.1H410.9z"/>
	<path class="st0" d="M413.9,200.5h21.5v10c3.4-7,9.2-11.2,16.9-11.2c12.8,0,22,11.4,22,27.3c0,15.8-9.1,27.3-22,27.3
		c-7.3,0-12.9-3.7-16.4-10.3v29h-14.1v-61.3h-7.9V200.5z M459.9,226.7c0-9.9-4.7-15.9-12.7-15.9c-7,0-11.9,4.9-11.9,12v7.9
		c0,7.1,5,12,11.9,12C455.2,242.6,459.9,236.6,459.9,226.7z"/>
	<path class="st1" d="M89.8,296.9h60.4V309H89.8V296.9z"/>
	<path class="st2" d="M25.8,284.8h64.1v12.1H25.8V284.8z"/>
	<path class="st3" d="M264.4,284.8h45.5v12.1h-45.5V284.8z"/>
	<path class="st4" d="M309.9,296.9h44.6V309h-44.6V296.9z"/>
	<path class="st5" d="M354.5,309h56.6V321h-56.6V309z"/>
	<path class="st6" d="M411.1,296.9h61.3V309h-61.3V296.9z"/>
	<path class="st7" d="M150.2,284.8h24.1v12.1h-24.1V284.8z"/>
	<path class="st8" d="M174.3,296.9h90.1V309h-90.1V296.9z"/>
</g>
</svg>
