<?xml version="1.0" encoding="utf-8"?>
<!-- Generator: Adobe Illustrator 28.0.0, SVG Export Plug-In . SVG Version: 6.00 Build 0)  -->
<svg version="1.1" id="Layer_1" xmlns="http://www.w3.org/2000/svg" xmlns:xlink="http://www.w3.org/1999/xlink" x="0px" y="0px"
	 viewBox="0 0 500 500" style="enable-background:new 0 0 500 500;" xml:space="preserve">
<style type="text/css">
	.st0{fill-rule:evenodd;clip-rule:evenodd;fill:#017256;}
</style>
<g>
	<path class="st0" d="M415.3,202.2c-8.9,0-11.9-4.8-11.9-12.7c0-7.9,3-12.7,11.9-12.7h54.6c8.9,0,11.9,4.8,11.9,12.7
		c0,7.9-3,12.7-11.9,12.7l-13.5,0v71.5c0,9.7-5.3,13.8-13.8,13.8c-8.6,0-13.9-4.1-13.9-13.8v-71.5L415.3,202.2z"/>
	<path class="st0" d="M285.8,204.5c0-8.6,4.5-11.4,11.9-11.4c7.4,0,12,3,12,11.5v42.6c0,13.4,5.2,19.7,14.4,19.7
		c9.2,0,14.5-6.3,14.5-19.7l0-48.5c0-8.6,4.5-11.5,12-11.5c7.4,0,11.9,3,11.9,11.5v47.3c0,24.7-10.6,41.4-38.4,41.4
		c-27.7,0-38.3-16.5-38.3-41.2L285.8,204.5z"/>
	<path class="st0" d="M381.1,286.6c-8.8,0-11.7-4.8-11.7-12.6v-79.7c0-9.1,4.8-12.2,12.8-12.2c8,0,12.8,3.1,12.8,12.2v68.9h17.5
		c8.2,0,10.9,4.5,10.9,11.7c0,7.3-2.7,11.7-10.9,11.7L381.1,286.6z"/>
	<path class="st0" d="M241.4,245.2v-24.5h3.7c12,0,13.6,6.6,13.6,12.3c0,6.2-1.8,12.2-13.6,12.2L241.4,245.2L241.4,245.2z
		 M219.5,276.4c0,8.2,4.3,11.1,11.3,11.1c7,0,11.3-2.8,11.3-11.1l0-13.4h8.3c21.4,0,30.9-12.5,30.9-29.9c0-17.4-9.4-30.2-35.9-30.2
		h-15c-8.2,0-10.9,4.4-10.9,11.7V276.4z"/>
	<path class="st0" d="M115.8,237.9c-5.8,0-7.8-3.2-7.8-8.3c0-5.2,2-8.3,7.8-8.3h34.1c5.8,0,7.8,3.2,7.8,8.4c0,5.2-2,8.3-7.8,8.3
		h-7.5l0,40.6c0,6.6-3.6,8.9-9.4,8.9c-5.8,0-9.4-2.3-9.4-8.9l0-40.6L115.8,237.9z"/>
	<path class="st0" d="M174,254.7l7.8-28l6.9,28H174L174,254.7z M170.5,272.3l21.8,0l1.6,5.8c1.9,7.3,5.9,9.4,11.9,9.4
		c7.4,0,11.9-4.1,9.8-12.1c-1.9-7-16.5-50.9-16.5-50.9c-4-11.8-7.3-14.6-16.7-14.6c-9.3,0-12.4,2.8-16.7,14.6
		c0,0-15.8,43.6-17.8,50.9c-2.3,8.1,1.9,12.1,9.3,12.1c5.9,0,9.1-2.1,11.5-9.5L170.5,272.3L170.5,272.3z"/>
	<path class="st0" d="M85.5,261.3l5.4-22.3l6.1,22.3H85.5z M82.7,275.3l17.1,0l1.3,4.7c1.5,5.8,4.6,7.5,9.3,7.5
		c5.8,0,9.4-3.3,7.7-9.6c-1.5-5.6-13.7-40.7-13.7-40.7c-3-9.1-5.7-11.6-13.1-11.6c-7.3,0-9.7,2.2-13.1,11.6c0,0-11.7,34.8-13.3,40.6
		c-1.8,6.5,1.5,9.7,7.3,9.7c4.6,0,7.1-1.7,9-7.6L82.7,275.3z"/>
	<path class="st0" d="M42.9,273.4c3.8,0,5.6-1.6,7.4-3c3.9-2.9,6.7-1.7,9.1,0.7c3.4,3.5,2.2,7.5-0.4,10c-3.6,3.4-9,6.3-16.8,6.3
		c-14,0-24-10.9-24-26.5c0-15.6,11.3-26.6,24.8-26.6c7.5,0,13,2.6,16.4,5.9c2.7,2.6,3.1,5.8,0.8,9.2c-2.3,3.3-6,4.3-9,1.9
		c-1.8-1.4-3.8-3.5-7.9-3.5c-6.2,0-10.3,5.4-10.3,13.1C33,268.6,37,273.4,42.9,273.4"/>
	<path class="st0" d="M235.8,301.4c2.8,0,6.2,0.8,6.2,3.3c0,1.1-0.8,2.2-2,2.2c-1.1,0-2.3-1-4.1-1c-3.8,0-5.3,3.1-5.3,6.3
		s1.7,6.2,4.9,6.2c2.9,0,3.4-1,4.6-1c1.8,0,2.1,1.6,2.1,2.2c0,2.6-3.9,3.5-6.5,3.5c-6.5,0-10.1-4.9-10.1-10.9
		C225.6,306,229.6,301.4,235.8,301.4z"/>
	<path class="st0" d="M258.7,314.9c0,4.6-3.1,8.3-7.8,8.3s-7.8-3.7-7.8-8.3s3.1-8.3,7.8-8.3S258.7,310.3,258.7,314.9z M247.7,314.9
		c0,2.1,1.1,3.9,3.2,3.9s3.2-1.8,3.2-3.9s-1.1-3.9-3.2-3.9S247.7,312.8,247.7,314.9z"/>
	<path class="st0" d="M259.6,309.4c0-1.4,1-2.4,2.4-2.4c1.3,0,2.1,0.8,2.4,1.5c0.8-1.2,2-1.8,4.1-1.8c3.3,0,5.9,1.7,5.9,5.5v8.6
		c0,1.3-1,2.4-2.4,2.4c-1.4,0-2.4-1.1-2.4-2.4v-7.4c0-1.6-1-2.8-2.6-2.8c-1.7,0-2.6,1.2-2.6,2.8v7.4c0,1.3-1,2.4-2.4,2.4
		c-1.4,0-2.4-1.1-2.4-2.4L259.6,309.4L259.6,309.4z"/>
	<path class="st0" d="M276.1,309.4c0-1.4,1-2.4,2.4-2.4c1.3,0,2.1,0.8,2.4,1.5c0.8-1.2,2-1.8,4.1-1.8c3.3,0,5.9,1.7,5.9,5.5v8.6
		c0,1.3-1,2.4-2.4,2.4c-1.4,0-2.4-1.1-2.4-2.4v-7.4c0-1.6-1-2.8-2.6-2.8c-1.7,0-2.6,1.2-2.6,2.8v7.4c0,1.3-1,2.4-2.4,2.4
		c-1.4,0-2.4-1.1-2.4-2.4L276.1,309.4L276.1,309.4z"/>
	<path class="st0" d="M296.8,316.4c0,1,0.7,2.6,3.7,2.6c2.3,0,3.7-1.4,4.8-1.4s1.9,0.8,1.9,2c0,2.2-3.8,3.7-7.3,3.7
		c-5,0-8.1-3.7-8.1-8.3s3.4-8.3,8.1-8.3c4.8,0,7.5,3.8,7.5,7.8c0,1.6-0.8,2-2.3,2H296.8z M302.9,313.3c0-1-1.2-2.8-3-2.8
		c-1.8,0-3,1.7-3,2.8H302.9L302.9,313.3z"/>
	<path class="st0" d="M316.1,306.6c2,0,5.4,0.6,5.4,3c0,1.2-0.8,2.1-1.9,2.1c-1.2,0-1.5-0.8-3.3-0.8c-2.3,0-3.4,1.8-3.4,3.9
		s1.1,3.9,3.1,3.9c2,0,2.9-0.8,3.5-0.8c1.1,0,1.9,1.1,1.9,2c0,2.3-3.6,3.2-5.4,3.2c-4.6,0-7.7-3.7-7.7-8.3S311.5,306.6,316.1,306.6z
		"/>
	<path class="st0" d="M325.3,311.8h-0.5c-1.5,0-2.4-0.6-2.4-2.1c0-1.5,0.9-2.1,2.4-2.1h0.5v-3c0-1.3,1-2.3,2.3-2.3
		c1.4,0,2.3,1,2.3,2.3v3h1.3c1.5,0,2.4,0.6,2.4,2.1c0,1.4-0.9,2.1-2.4,2.1h-1.3v9.1c0,1.3-0.9,2.3-2.3,2.3c-1.4,0-2.3-1-2.3-2.3
		V311.8z"/>
	<path class="st0" d="M338.7,316.4c0,1,0.7,2.6,3.7,2.6c2.3,0,3.7-1.4,4.8-1.4s1.9,0.8,1.9,2c0,2.2-3.8,3.7-7.3,3.7
		c-5,0-8.1-3.7-8.1-8.3s3.4-8.3,8.1-8.3c4.8,0,7.5,3.8,7.5,7.8c0,1.6-0.8,2-2.3,2H338.7z M344.7,313.3c0-1-1.2-2.8-3-2.8
		c-1.8,0-3,1.7-3,2.8H344.7L344.7,313.3z"/>
	<path class="st0" d="M365,320.6c0,1.3-0.9,2.3-2.2,2.3c-1.1,0-1.7-0.7-2.1-1.4c-1,1.2-2.1,1.7-3.8,1.7c-3.8,0-6.8-3.6-6.8-8.1
		c0-4.5,3-8.1,6.8-8.1c1.9,0,2.8,0.6,3.6,1.3v-5.3c0-1.3,0.9-2.3,2.2-2.3s2.2,1,2.2,2.3V320.6z M354.6,315.1c0,2.1,1.1,3.8,3,3.8
		s3-1.7,3-3.8c0-2.1-1.1-3.8-3-3.8S354.6,313,354.6,315.1z"/>
	<path class="st0" d="M375.5,304.6c0-1.5,1.2-2.4,2.4-2.4h6c3.7,0,7.3,2.4,7.3,7c0,4.1-2.5,7-7.2,7h-3.7v4.3c0,1.7-1,2.5-2.4,2.5
		c-1.4,0-2.4-0.8-2.4-2.5L375.5,304.6L375.5,304.6z M380.3,312.2h2.6c2.1,0,3.2-1.4,3.2-2.8c0-1.9-1.3-2.8-3.2-2.8h-2.6V312.2z"/>
	<path class="st0" d="M392.9,302.9c0-1.3,0.9-2.4,2.2-2.4s2.2,1,2.2,2.4v17.9c0,1.3-0.9,2.4-2.2,2.4s-2.2-1-2.2-2.4V302.9z"/>
	<path class="st0" d="M413.8,320.5c0,1.3-1,2.4-2.3,2.4c-1.1,0-1.8-0.8-2.2-1.5c-1,1.3-2.2,1.8-4,1.8c-4.1,0-7.2-3.7-7.2-8.3
		s3.1-8.3,7.2-8.3c1.8,0,3,0.5,4,1.8c0.3-0.7,1-1.5,2.2-1.5c1.4,0,2.3,1.1,2.3,2.4V320.5L413.8,320.5z M402.8,314.9
		c0,2.1,1.1,3.9,3.2,3.9c2.1,0,3.2-1.8,3.2-3.9c0-2.1-1.1-3.9-3.2-3.9C403.9,311.1,402.8,312.8,402.8,314.9z"/>
	<path class="st0" d="M423.2,306.6c2,0,5.4,0.6,5.4,3c0,1.2-0.8,2.1-1.9,2.1c-1.2,0-1.5-0.8-3.3-0.8c-2.3,0-3.4,1.8-3.4,3.9
		s1.1,3.9,3.1,3.9c2,0,2.9-0.8,3.5-0.8c1.1,0,1.9,1.1,1.9,2c0,2.3-3.6,3.2-5.4,3.2c-4.6,0-7.7-3.7-7.7-8.3S418.6,306.6,423.2,306.6z
		"/>
	<path class="st0" d="M434.2,316.4c0,1,0.7,2.6,3.5,2.6c2.2,0,3.5-1.4,4.5-1.4c1,0,1.8,0.8,1.8,2c0,2.2-3.6,3.7-6.9,3.7
		c-4.7,0-7.7-3.7-7.7-8.3s3.2-8.3,7.7-8.3c4.5,0,7.1,3.8,7.1,7.8c0,1.6-0.7,2-2.1,2H434.2z M439.9,313.3c0-1-1.1-2.8-2.8-2.8
		c-1.7,0-2.8,1.7-2.8,2.8H439.9L439.9,313.3z"/>
	<path class="st0" d="M447.1,317.8c1.5,0,2.5,1.3,4.5,1.3c1,0,1.3-0.4,1.3-0.9c0-0.9-1-1-3.6-2.1c-2.4-1-3.7-1.8-3.7-4.3
		c0-2.6,2.3-5.2,6-5.2c1.9,0,5.4,0.9,5.4,3.3c0,1.2-0.8,1.9-1.9,1.9c-0.9,0-2.3-1.2-3.7-1.2c-0.6,0-1.2,0.3-1.2,1
		c0,1.8,7.3,1.4,7.3,6.4c0,3.2-2.8,5.1-6,5.1c-2.9,0-6.2-1.2-6.2-3.2C445.2,318.7,446.1,317.8,447.1,317.8L447.1,317.8z"/>
</g>
</svg>
