<?xml version="1.0" encoding="utf-8"?>
<!-- Generator: Adobe Illustrator 28.0.0, SVG Export Plug-In . SVG Version: 6.00 Build 0)  -->
<svg version="1.1" id="Layer_1" xmlns="http://www.w3.org/2000/svg" xmlns:xlink="http://www.w3.org/1999/xlink" x="0px" y="0px"
	 viewBox="0 0 500 500" style="enable-background:new 0 0 500 500;" xml:space="preserve">
<style type="text/css">
	.st0{fill-rule:evenodd;clip-rule:evenodd;fill:#494949;}
	.st1{fill:none;stroke:#494949;stroke-width:7;stroke-miterlimit:8;}
	.st2{fill-rule:evenodd;clip-rule:evenodd;fill:#A9416A;}
	.st3{fill-rule:evenodd;clip-rule:evenodd;fill:#20AA65;}
	.st4{fill-rule:evenodd;clip-rule:evenodd;fill:#5382AC;}
	.st5{fill-rule:evenodd;clip-rule:evenodd;fill:#E9AB04;}
</style>
<g>
	<path class="st0" d="M147.2,277.7v-56.2h36.6c10.5,0,18.5,2.4,24.1,7.3c5.6,4.9,8.4,11.7,8.4,20.5c0.1,5.3-1.3,10.6-3.9,15.2
		c-2.6,4.6-6.7,8.3-11.7,10.3c-4.6,1.9-11.3,2.8-20.4,2.8H147.2z M160.4,267.2h17.1c8.7,0,15-1.3,18.8-3.8c4.2-2.8,6.3-7.5,6.3-14.2
		c0-11.7-6.2-17.5-18.7-17.5h-23.4V267.2z"/>
	<path class="st0" d="M219.3,277.7l32.1-56.1h12.8l32.5,56.1h-14.8l-6.8-12.3h-36l-6.6,12.3L219.3,277.7z M244.7,255.3h24.9
		l-12.2-22.8L244.7,255.3z"/>
	<path class="st0" d="M306.5,277.7v-56.2h57.7v9.8h-44.4v14.8h24v10.2h-24v21.3H306.5z"/>
	<path class="st0" d="M374.8,277.7v-56.2h8.9l39.5,33.1c2.3,1.9,4.4,3.9,6.4,6.1c-0.4-5.2-0.5-8.5-0.5-9.7v-29.5h11.8v56.2h-8.9
		L390.7,243c-1.7-1.4-3.2-2.9-4.7-4.6c0.4,3.6,0.5,6.6,0.5,8.9v30.3L374.8,277.7z"/>
	<path class="st0" d="M456,277.7v-56.2h12.9v56.2H456z"/>
	<path class="st1" d="M44,275.4c-11.1-15.1-11.1-35.7,0-50.8"/>
	<path class="st1" d="M92.5,290.7c-17.8,5.8-37.5-0.3-48.6-15.3"/>
	<path class="st1" d="M120.6,262.5c-4.1,13.2-14.6,23.7-28.1,28.1"/>
	<path class="st1" d="M92.5,209.4c13.5,4.4,23.9,14.8,28.1,28.1"/>
	<path class="st1" d="M44,224.6c11.1-14.9,30.7-21.1,48.6-15.3"/>
	<path class="st0" d="M122.1,240.9c5.2,0,9.3,4.1,9.3,9.1c0,5-4.2,9.1-9.3,9.1s-9.3-4.1-9.3-9.1c0,0,0,0,0,0
		C112.8,245,117,240.9,122.1,240.9 M122.1,236c-8,0-14.4,6.3-14.4,14c0,7.8,6.5,14,14.4,14s14.4-6.3,14.4-14c0,0,0,0,0,0
		C136.5,242.2,130.1,236,122.1,236z"/>
	<path class="st2" d="M105.4,290.6c0,7.1-5.8,12.9-12.9,12.9s-12.9-5.8-12.9-12.9c0-7.1,5.8-12.9,12.9-12.9S105.4,283.5,105.4,290.6
		z"/>
	<path class="st3" d="M56.9,275.4c0,7.1-5.8,12.9-12.9,12.9s-12.9-5.8-12.9-12.9c0-7.1,5.8-12.9,12.9-12.9S56.9,268.3,56.9,275.4z"
		/>
	<path class="st4" d="M56.9,224.6c0,7.1-5.8,12.9-12.9,12.9s-12.9-5.8-12.9-12.9s5.8-12.9,12.9-12.9S56.9,217.5,56.9,224.6z"/>
	<path class="st5" d="M105.4,209.4c0,7.1-5.8,12.9-12.9,12.9s-12.9-5.8-12.9-12.9s5.8-12.9,12.9-12.9S105.4,202.3,105.4,209.4z"/>
</g>
</svg>
