<?xml version="1.0" encoding="utf-8"?>
<!-- Generator: Adobe Illustrator 28.0.0, SVG Export Plug-In . SVG Version: 6.00 Build 0)  -->
<svg version="1.1" id="Layer_1" xmlns="http://www.w3.org/2000/svg" xmlns:xlink="http://www.w3.org/1999/xlink" x="0px" y="0px"
	 viewBox="0 0 500 500" style="enable-background:new 0 0 500 500;" xml:space="preserve">
<style type="text/css">
	.st0{fill-rule:evenodd;clip-rule:evenodd;fill:#FFFFFF;}
	.st1{fill-rule:evenodd;clip-rule:evenodd;fill:#6C3F99;}
	.st2{fill-rule:evenodd;clip-rule:evenodd;fill:#231F20;}
</style>
<g>
	<path class="st0" d="M135.9,324.5c40.5,0,73.4-32.6,73.4-72.9c0-40.2-32.9-72.9-73.4-72.9s-73.4,32.6-73.4,72.9
		C62.5,291.8,95.4,324.5,135.9,324.5"/>
	<path class="st1" d="M192.8,248.2h-24.5c-2.7,0-4.9,2.2-4.9,4.9v24.5H134v-29.4l-29.4,29.4H75.2v-29.4h24.5c2.7,0,4.9-2.2,4.9-4.9
		v-24.5H134v29.4l29.4-29.4h29.4L192.8,248.2L192.8,248.2z M135.9,141.2c-60.1,0-108.8,48.7-108.8,108.8s48.7,108.8,108.8,108.8
		S244.6,310.1,244.6,250S195.9,141.2,135.9,141.2"/>
	<path class="st2" d="M280,186.6v21.7h4.5c2.1,0,3.9-0.5,5.4-1.4c1.5-0.9,2.6-2.2,3.3-3.9c0.7-1.7,1.1-3.6,1.1-5.8
		c0-2.2-0.4-4-1.1-5.6c-0.7-1.6-1.8-2.8-3.2-3.7c-1.4-0.9-3.1-1.3-5.2-1.3L280,186.6L280,186.6z M271.5,211.9V183
		c0-1.3,0.4-2.4,1.3-3.1c0.9-0.8,1.9-1.1,3-1.1H286c2.8,0,5.2,0.5,7.4,1.5c2.2,1,4.1,2.4,5.6,4.1c1.5,1.7,2.7,3.7,3.5,5.9
		c0.8,2.2,1.2,4.6,1.2,7c0,3-0.4,5.7-1.4,8c-0.9,2.4-2.2,4.4-3.9,6c-1.7,1.6-3.5,2.9-5.7,3.7c-2.1,0.8-4.4,1.3-6.7,1.3h-10.3
		c-1.2,0-2.2-0.4-3-1.1C271.8,214.3,271.4,213.3,271.5,211.9"/>
	<path class="st2" d="M318.6,183.2v28.6c0,1.4-0.3,2.5-1,3.3c-0.7,0.8-1.6,1.1-2.7,1.1s-2-0.4-2.7-1.2c-0.7-0.8-1.1-1.9-1.1-3.3
		v-28.6c0-1.4,0.4-2.5,1.1-3.3c0.7-0.8,1.6-1.1,2.7-1.1s2,0.4,2.7,1.1C318.2,180.6,318.6,181.7,318.6,183.2"/>
	<path class="st2" d="M347.8,194.6h9.2c3,0,4.5,1.7,4.5,5.1c0,2.4-0.4,4.8-1.2,6.9c-0.8,2.2-1.9,4-3.4,5.6c-1.5,1.6-3.3,2.9-5.4,3.7
		c-2.1,0.9-4.4,1.3-7,1.3c-3.8,0-7.1-0.9-9.9-2.6c-2.8-1.7-4.9-4-6.3-7c-1.4-2.9-2.2-6.2-2.2-9.7c0-3.6,0.8-7,2.4-9.9
		c1.6-3,3.8-5.2,6.6-6.9c2.8-1.7,5.9-2.5,9.4-2.5c2.4,0,4.7,0.3,6.9,1c2.3,0.7,4.1,1.6,5.4,2.8c1.4,1.2,2.1,2.7,2.1,4.3
		c0,1.1-0.4,1.9-1,2.6c-0.7,0.7-1.6,1-2.8,1c-0.6,0-1.2-0.1-1.6-0.4c-0.5-0.2-1.2-0.7-2.3-1.4c-1.1-0.7-2-1.2-3-1.6
		c-0.9-0.4-2.1-0.5-3.4-0.5c-1.9,0-3.6,0.5-5.1,1.5c-1.4,1-2.6,2.4-3.4,4.1c-0.8,1.8-1.2,3.7-1.2,5.9c0,3.1,0.8,5.9,2.4,8.1
		c1.6,2.3,4,3.4,7,3.4c1.5,0,2.8-0.3,4-0.9c1.1-0.6,2.1-1.4,2.8-2.5c0.7-1.1,1.1-2.3,1.3-3.8h-4.9c-1.3,0-2.4-0.4-3.1-1.1
		c-0.8-0.7-1.1-1.6-1.1-2.9c0-1.2,0.4-2.2,1.1-2.9C345.3,194.9,346.4,194.6,347.8,194.6"/>
	<path class="st2" d="M377.5,183.2v28.6c0,1.4-0.4,2.5-1.2,3.3c-0.8,0.8-1.8,1.1-3.1,1.1c-1.3,0-2.3-0.4-3.1-1.2
		c-0.8-0.8-1.2-1.9-1.2-3.3v-28.6c0-1.4,0.4-2.5,1.2-3.3c0.8-0.8,1.8-1.1,3.1-1.1s2.3,0.4,3.1,1.1
		C377.1,180.6,377.5,181.7,377.5,183.2"/>
	<path class="st2" d="M391,211.8v-25.2h-4.8c-1.4,0-2.5-0.4-3.2-1.1c-0.8-0.7-1.2-1.7-1.2-2.9c0-1.2,0.4-2.2,1.2-2.9
		c0.8-0.7,1.8-1,3.2-1h18c1.4,0,2.5,0.3,3.3,1c0.8,0.7,1.1,1.7,1.1,2.9c0,1.2-0.4,2.2-1.1,2.9c-0.7,0.7-1.8,1.1-3.3,1.1h-4.8v25.2
		c0,1.4-0.4,2.5-1.2,3.3c-0.8,0.8-1.8,1.2-3.1,1.2c-1.3,0-2.3-0.4-3.1-1.2C391.4,214.3,391,213.2,391,211.8"/>
	<path class="st2" d="M432.9,200.9l-4.3-13.7h-0.1l-4.6,13.7H432.9L432.9,200.9z M413.1,207.5l8.2-22.1c0.5-1.4,1-2.5,1.3-3.3
		c0.4-0.8,0.8-1.5,1.3-2.2c0.5-0.7,1.1-1.2,1.9-1.6c0.7-0.4,1.6-0.6,2.6-0.6c1,0,2,0.2,2.7,0.6c0.8,0.4,1.4,0.9,1.9,1.6
		c0.5,0.7,1,1.4,1.3,2.2c0.4,0.8,0.8,1.9,1.3,3.3l8.2,22.1c0.8,2.3,1.3,4,1.3,5.3c0,1.1-0.4,1.9-1.1,2.5c-0.7,0.6-1.7,0.9-3,0.9
		c-0.9,0-1.6-0.2-2.2-0.5c-0.6-0.3-1-0.8-1.4-1.4c-0.3-0.6-0.7-1.4-1-2.2l-1-3.4h-14l-1.1,3.4c-0.4,1.4-1,2.4-1.6,3.1
		c-0.6,0.7-1.6,1-2.9,1c-1.2,0-2.2-0.3-3-0.9c-0.8-0.6-1.1-1.5-1.1-2.5C411.8,211.5,412.2,209.8,413.1,207.5"/>
	<path class="st2" d="M450.4,212v-28.8c0-1.4,0.4-2.5,1.2-3.3c0.8-0.8,1.9-1.2,3.2-1.2c1.3,0,2.4,0.4,3.2,1.1
		c0.8,0.8,1.2,1.9,1.2,3.4v25.2h9.4c1.4,0,2.5,0.3,3.2,1c0.8,0.7,1.1,1.7,1.1,2.9c0,1.2-0.4,2.2-1.2,2.9c-0.8,0.7-1.9,1.1-3.2,1.1
		h-13.8c-1.2,0-2.2-0.4-3.1-1.1C450.8,214.4,450.4,213.3,450.4,212"/>
	<path class="st2" d="M277.4,265.3v-25.2h-4.8c-1.4,0-2.5-0.4-3.2-1.1c-0.8-0.7-1.2-1.7-1.2-2.9c0-1.2,0.4-2.2,1.2-2.9
		c0.8-0.7,1.8-1,3.2-1h18c1.4,0,2.5,0.3,3.3,1c0.8,0.7,1.1,1.7,1.1,2.9c0,1.2-0.4,2.2-1.1,2.9c-0.7,0.7-1.8,1.1-3.3,1.1h-4.8v25.2
		c0,1.4-0.4,2.5-1.2,3.3c-0.8,0.8-1.8,1.2-3.1,1.2c-1.3,0-2.3-0.4-3.1-1.2C277.8,267.9,277.4,266.8,277.4,265.3"/>
	<path class="st2" d="M303.7,263.5l-5.7-22.8c-0.6-2.2-0.9-3.6-0.9-4.3c0-0.7,0.2-1.4,0.5-2.1c0.4-0.6,0.9-1.1,1.5-1.5
		c0.6-0.4,1.4-0.5,2.2-0.5c2.4,0,3.8,1.2,4.4,3.7l4.4,19.9h0.1l6.1-19.3c0.5-1.6,1.2-2.7,2-3.3c0.8-0.6,1.7-1,2.9-1
		c1.2,0,2.1,0.3,2.9,1c0.8,0.7,1.4,1.8,1.9,3.3l6.2,19.3h0.1l4.4-19.9c0.5-2.5,2-3.7,4.4-3.7c0.8,0,1.6,0.2,2.2,0.5
		c0.6,0.4,1.1,0.8,1.5,1.5c0.4,0.6,0.5,1.3,0.5,2.1c0,0.3,0,0.8-0.2,1.4c-0.1,0.6-0.2,1.2-0.4,1.8c-0.2,0.6-0.3,1-0.3,1.1l-5.7,22.8
		c-0.6,2.3-1.2,3.9-2,4.8c-0.8,1-2.1,1.4-4,1.4c-1.1,0-2-0.2-2.8-0.5c-0.8-0.4-1.4-0.9-2-1.5c-0.5-0.7-1-1.5-1.3-2.6l-5.5-16.9h-0.1
		l-5.5,16.9c-0.4,1-0.8,1.9-1.3,2.6c-0.5,0.7-1.2,1.2-2,1.5c-0.8,0.4-1.7,0.5-2.8,0.5c-1.3,0-2.3-0.2-3.1-0.7
		c-0.8-0.5-1.3-1.1-1.7-1.9C304.5,266.3,304.1,265.1,303.7,263.5"/>
	<path class="st2" d="M360.4,236.8v28.6c0,1.4-0.4,2.5-1.2,3.3c-0.8,0.8-1.8,1.1-3.1,1.1c-1.3,0-2.3-0.4-3.1-1.2
		c-0.8-0.8-1.2-1.9-1.2-3.3v-28.6c0-1.4,0.4-2.5,1.2-3.3c0.8-0.8,1.8-1.1,3.1-1.1s2.3,0.4,3.1,1.1
		C360,234.2,360.4,235.3,360.4,236.8"/>
	<path class="st2" d="M367.9,265.4v-28.6c0-1.4,0.4-2.5,1.2-3.3c0.8-0.8,1.8-1.1,3.1-1.1c0.8,0,1.4,0.1,1.9,0.4c0.5,0.2,1,0.6,1.4,1
		c0.4,0.4,1.3,1.5,2.7,3.1l14.3,17.5h0.1v-17.5c0-1.4,0.4-2.5,1.2-3.3c0.8-0.8,1.8-1.1,3.1-1.1c1.3,0,2.3,0.4,3.1,1.1
		c0.8,0.7,1.2,1.9,1.2,3.3v28.6c0,1.4-0.4,2.5-1.2,3.3c-0.8,0.8-1.8,1.1-3.1,1.1c-0.8,0-1.4-0.1-1.9-0.4c-0.5-0.3-1-0.7-1.5-1.2
		c-0.5-0.5-1.3-1.5-2.5-2.9l-14.3-17.5h-0.1v17.5c0,1.4-0.4,2.5-1.2,3.3c-0.8,0.8-1.8,1.1-3.1,1.1c-1.3,0-2.3-0.4-3.1-1.2
		C368.3,267.9,367.9,266.8,367.9,265.4"/>
	<path class="st2" d="M280,308.1V319c0,1.4-0.4,2.5-1.2,3.3c-0.8,0.8-1.8,1.1-3.1,1.1c-1.3,0-2.3-0.4-3.1-1.2
		c-0.8-0.8-1.2-1.9-1.2-3.3v-28.6c0-1.4,0.4-2.5,1.2-3.3c0.8-0.8,1.8-1.1,3.1-1.1c1.2,0,2.3,0.4,3.1,1.1c0.8,0.8,1.2,1.9,1.2,3.3
		v9.9h16v-9.9c0-1.4,0.4-2.5,1.2-3.3c0.8-0.8,1.9-1.1,3.1-1.1c1.3,0,2.3,0.4,3.1,1.1c0.8,0.8,1.2,1.9,1.2,3.3V319
		c0,1.4-0.4,2.5-1.2,3.3c-0.8,0.8-1.8,1.1-3.1,1.1c-1.3,0-2.3-0.4-3.1-1.2c-0.8-0.8-1.2-1.9-1.2-3.3v-10.9H280z"/>
	<path class="st2" d="M320.6,290.4v18.2c0,1.6,0.3,3,1,4.1c0.7,1.2,1.6,2,2.7,2.6c1.2,0.6,2.5,0.9,3.9,0.9c1.4,0,2.7-0.3,3.9-0.9
		c1.1-0.6,2.1-1.5,2.8-2.6c0.7-1.2,1-2.6,1-4.2v-18.2c0-1.4,0.4-2.6,1.2-3.3c0.8-0.8,1.8-1.2,3-1.2c1.2,0,2.3,0.4,3.1,1.1
		c0.8,0.8,1.2,1.9,1.2,3.4v18.2c0,2.5-0.4,4.7-1.2,6.6c-0.8,1.9-1.9,3.6-3.3,5c-1.5,1.4-3.2,2.5-5.2,3.2c-2,0.7-4.1,1.1-6.5,1.1
		c-2.3,0-4.5-0.4-6.4-1.1c-2-0.7-3.7-1.8-5.1-3.2c-1.5-1.4-2.6-3.1-3.3-5.1c-0.8-2-1.2-4.1-1.2-6.5v-18.2c0-1.5,0.4-2.6,1.2-3.4
		c0.8-0.8,1.8-1.1,3.1-1.1c1.3,0,2.3,0.4,3,1.1C320.2,287.8,320.6,289,320.6,290.4"/>
	<path class="st2" d="M360.3,308.1v7.7h5.4c1.5,0,2.7-0.3,3.7-0.9c1-0.6,1.4-1.6,1.4-2.9c0-1.4-0.5-2.3-1.5-2.9
		c-1-0.6-2.2-0.9-3.6-0.9H360.3z M360.3,293.5v7h3.9c1.2,0,2.2-0.3,2.9-0.9c0.7-0.6,1-1.5,1-2.6c0-1.1-0.3-2-1-2.6
		c-0.7-0.6-1.6-0.9-2.9-0.9H360.3z M351.8,319.1v-29c0-1.3,0.4-2.4,1.3-3.1c0.9-0.8,1.9-1.1,3-1.1h10c1.6,0,3,0.2,4.4,0.7
		c1.3,0.5,2.4,1.1,3.3,2c0.9,0.8,1.6,1.9,2.1,3.1c0.5,1.2,0.7,2.6,0.7,4c0,1.7-0.5,3.1-1.3,4.3c-0.9,1.2-1.9,2.1-3.2,2.8
		c1.5,0.3,2.9,0.9,4,1.7c1.1,0.9,2,1.9,2.6,3.2c0.6,1.3,0.9,2.7,0.9,4.3c0,1.5-0.2,3-0.7,4.3c-0.5,1.3-1.3,2.5-2.4,3.6
		c-1.1,1.1-2.4,1.9-4.1,2.5c-1.6,0.6-3.6,0.9-5.8,0.9h-10.5c-1.1,0-2.1-0.4-3-1.1C352.2,321.5,351.8,320.5,351.8,319.1"/>
</g>
</svg>
