<?xml version="1.0" encoding="utf-8"?>
<!-- Generator: Adobe Illustrator 28.0.0, SVG Export Plug-In . SVG Version: 6.00 Build 0)  -->
<svg version="1.1" id="Layer_1" xmlns="http://www.w3.org/2000/svg" xmlns:xlink="http://www.w3.org/1999/xlink" x="0px" y="0px"
	 viewBox="0 0 500 500" style="enable-background:new 0 0 500 500;" xml:space="preserve">
<style type="text/css">
	.st0{fill-rule:evenodd;clip-rule:evenodd;fill:#3F3F3F;}
</style>
<g>
	<path class="st0" d="M246.3,221.7h-21.4c-5.1,10.1-15.3,16.3-26.7,16.3c-16.4,0-30.2-12.5-30.2-31.3c0-18.6,13.8-30.9,30.2-30.9
		c11.6,0,21.9,6.2,26.9,16.5h21.3c-5.6-21.5-24-35.7-48.2-35.7c-29.2,0-50.1,20.8-50.1,50.1c0,29.5,20.8,50.5,50.1,50.5
		C222.2,257.2,240.5,243.1,246.3,221.7z"/>
	<path class="st0" d="M182.9,295.5h7.2v46.7h-7.2V295.5z"/>
	<path class="st0" d="M128.8,225.3h-22.4l-0.1,0.2C101.8,233.2,92.1,238,81,238c-1.2,0-2.4-0.1-3.6-0.2c-0.1,0-0.2,0-0.3,0
		c-0.4,0-0.7-0.1-1.1-0.2c-0.2,0-0.5-0.1-0.7-0.1c-7.8-1.4-14.5-6-18.9-12.6c-0.7-1-1.3-2-1.9-3.1c-1.3-2.5-2.3-5.1-2.9-7.9h57.7
		h21.9l0-0.3c1.3-16.6-3.2-31.4-12.7-41.8c-9.1-9.9-22.4-15.3-37.5-15.3c-29.1,0-50.2,21.2-50.2,50.3s21.1,50.3,50.2,50.3
		c22.6,0,40.9-12.1,47.6-31.5L128.8,225.3z M57,187.3c5.1-6.7,12.8-11,21.6-11.4c0.7,0,1.5-0.1,2.3-0.1c14.2,0,25.3,8.4,29,21.9
		h-1.2H51.9C53,193.8,54.7,190.3,57,187.3z"/>
	<path class="st0" d="M126.6,342.2h7.9v-18h24.4v-7.1h-24.4v-14.4h25.6v-7.2h-33.5V342.2z"/>
	<path class="st0" d="M293.2,318.2l-18-22.6H268v46.7h7.9v-33.4l16.4,20.5h1.7l16.4-20.5v33.5h7.9v-46.7h-7.1L293.2,318.2z"/>
	<path class="st0" d="M223.3,295.5h-8.1v46.7h33.5V335h-25.5V295.5z"/>
	<path class="st0" d="M356.6,315c-8-1.2-11.4-3.3-11.4-7.1c0-3.8,4.4-6.6,10.7-6.6c4.7,0,9.6,1.5,13.5,4.5l4-5.6
		c-4.8-3.7-11.3-5.9-17.6-5.9c-10.9,0-18.4,5.6-18.4,13.5c0,8.3,5.5,12.5,18.4,14.3c8.3,1.1,11.9,3.2,11.9,7.1c0,4.3-4.5,7-11.4,7
		c-5.9,0-11.9-2-15.9-5.3l-4.1,5.9c5.6,4.3,12.9,6.6,20.1,6.6c11.7,0,19.5-5.7,19.5-14.4C375.8,321,370.1,316.9,356.6,315z"/>
	<path class="st0" d="M312.9,257.2c29.7,0,50.9-21,50.9-50.5c0-29.4-21.2-50.1-50.9-50.1c-29.7,0-50.9,20.8-50.9,50.1
		C262,236.2,283.2,257.2,312.9,257.2z M312.9,175.8c16.7,0,30.7,12.3,30.7,30.9c0,18.8-14.1,31.3-30.7,31.3
		c-16.7,0-30.7-12.5-30.7-31.3C282.2,188.1,296.2,175.8,312.9,175.8z"/>
	<path class="st0" d="M435,157.8c-15.2,0-25.7,7.2-32.1,17.9v-15h-21.1v93h21.1v-46.5c0-18.4,9.8-31.3,25.2-31.3
		c12.9,0,20,9.3,20,24.1v53.7h21.2v-54.5C469.2,171.9,457.8,157.8,435,157.8z"/>
</g>
</svg>
