<?xml version="1.0" encoding="utf-8"?>
<!-- Generator: Adobe Illustrator 28.0.0, SVG Export Plug-In . SVG Version: 6.00 Build 0)  -->
<svg version="1.1" id="Layer_1" xmlns="http://www.w3.org/2000/svg" xmlns:xlink="http://www.w3.org/1999/xlink" x="0px" y="0px"
	 viewBox="0 0 500 500" style="enable-background:new 0 0 500 500;" xml:space="preserve">
<style type="text/css">
	.st0{fill-rule:evenodd;clip-rule:evenodd;fill:#092040;}
	.st1{fill-rule:evenodd;clip-rule:evenodd;fill:#FFFFFF;}
	.st2{fill-rule:evenodd;clip-rule:evenodd;fill:#DD1E34;}
</style>
<g>
	<path class="st0" d="M28,238.8c1,0.2,1.2,0.1,1.3-0.6l0.2,0.1L29,241l-0.2-0.1c0.1-0.6,0-1-1-1.2l-5.8-1.3l-0.2,1.1
		c-0.2,1,0,1.6,0.7,1.8l-0.1,0.2l-1.7-0.4l0.1-0.2c0.1-0.1,0.2-0.1,0.4-0.4c0.1-0.1,0.2-0.4,0.2-0.7l1-4c0.1-0.6,0.1-1,0-1.3v-0.2
		l1.7,0.4v0.1c-0.7,0-1.2,0.2-1.4,1.5l-0.2,1.2L28,238.8L28,238.8z"/>
	<path class="st0" d="M28.6,229.9l2.2,1c0.9,0.4,1.3,0.4,1.7-0.3l0.3,0.1l-1.3,2.6l-0.3-0.1c0.3-0.5,0.3-1-0.8-1.4l-4.7-2.3
		c-0.9-0.4-1.3-0.4-1.7,0.3l-0.1-0.1l1.3-2.6l0.1,0.1c-0.3,0.5-0.1,1,0.8,1.4l2.2,1l1.9-4l-2.2-1c-0.9-0.4-1.3-0.4-1.6,0.3l-0.3-0.1
		l1.3-2.6l0.3,0.1c-0.4,0.6-0.1,1,0.8,1.4l4.7,2.3c0.9,0.4,1.3,0.4,1.7-0.3l0.3,0.1l-1.3,2.6l-0.3-0.1c0.3-0.5,0.3-0.9-0.8-1.4
		l-2.2-1L28.6,229.9L28.6,229.9z"/>
	<path class="st0" d="M38.3,216.7l-0.1,0.3c-0.7-0.4-0.8-0.3-1.4,0.4l-1.3,1.6l2.4,1.9c0.4,0.3,0.5,0.3,0.8-0.1l0.9-1
		c0.8-0.9,0.9-1.1,0.4-2.3l0.1-0.3l0.9,1.3l-3.9,4.5l-0.1-0.1c0.4-0.5,0.4-0.8-0.4-1.5l-4.1-3.3c-0.8-0.6-1.2-0.6-1.7-0.1l-0.3-0.1
		l3.9-4.5l1,0.9l-0.1,0.1c-0.8-0.4-1-0.3-1.7,0.4l-1.6,1.8l2.8,2.3l1.6-1.8c0.4-0.4,0.4-0.6,0-1.1l0.1-0.1L38.3,216.7L38.3,216.7z"
		/>
	<path class="st0" d="M52.9,207.2c-0.2,1.1-0.7,1.9-1.6,2.4c-1.7,1-3.1,0.1-3.7-1.1l-2-3.4c-0.5-1-0.9-1-1.5-0.6l-0.1-0.2l2.5-1.5
		l0.1,0.2c-0.5,0.4-0.6,0.6-0.1,1.6l2,3.5c0.6,1.1,1.6,1.5,2.8,0.8c0.7-0.4,1.2-1.2,1.3-2.2l-2.3-4.2c-0.4-0.9-0.7-1-1.3-0.7
		l-0.1-0.2l2.5-1.3l0.1,0.2c-0.6,0.4-0.6,0.7-0.1,1.6l2.5,4.3c0.5,1,0.9,1,1.5,0.6l0.1,0.2l-1.7,1L52.9,207.2L52.9,207.2L52.9,207.2
		z"/>
	<path class="st0" d="M65.9,204.1h-0.2l-6.8-5.7l0,0l1.4,5.8c0.2,0.8,0.6,1.1,1.2,0.8v0.3l-2.2,0.7l-0.1-0.3
		c0.6-0.1,0.9-0.5,0.6-1.7l-1.2-4.9c-0.2-0.9-0.6-1.3-1.4-1.2l-0.1-0.3l1.9-0.5l6.1,5.2h0.1l-1-4.8c-0.2-1.1-0.6-1.3-1.2-1.1
		l-0.1-0.3l2.2-0.7l0.1,0.3c-0.7,0.1-0.9,0.7-0.7,1.6L65.9,204.1L65.9,204.1L65.9,204.1z"/>
	<path class="st0" d="M73,202c0,1,0.4,1.2,1,1.2v0.2l-2.9,0.1v-0.2c0.6,0,0.9-0.4,0.9-1.3l-0.2-4.9c-0.1-1-0.2-1.2-1-1.2v-0.2
		l2.9-0.1v0.2c-0.6,0-0.9,0.4-0.9,1.3L73,202L73,202z"/>
	<path class="st0" d="M81.1,203.6h-0.3l-1.7-6.3c-0.3-0.9-0.4-1.4-1.2-1.5v-0.2l3,0.3v0.2c-0.5-0.1-0.9,0.1-0.8,0.8l1.3,5.1l2.6-4.4
		c0.4-0.6,0.3-1-0.5-1.2v-0.2l2.5,0.3v0.2c-0.6,0-1.2,0.3-1.7,1.3L81.1,203.6L81.1,203.6L81.1,203.6z"/>
	<path class="st0" d="M94.1,203.8l-0.3-0.1c0.1-0.8,0-0.9-0.8-1.1l-2-0.8l-1.1,2.8c-0.1,0.4-0.1,0.5,0.4,0.8l1.5,0.5
		c1.2,0.4,1.5,0.5,2.4-0.4l0.3,0.1l-0.9,1.3l-5.8-2l0.1-0.3c0.7,0.3,1.1,0.1,1.3-0.9l1.9-4.8c0.4-1,0.3-1.3-0.4-1.5l0.1-0.3l5.8,2
		l-0.5,1.3l-0.1-0.1c0.1-0.9-0.1-1-0.9-1.4l-2.4-0.8l-1.2,3.3l2.3,0.8c0.5,0.1,0.8,0.1,1.2-0.4l0.3,0.1L94.1,203.8L94.1,203.8
		L94.1,203.8z"/>
	<path class="st0" d="M103.1,203.5l0.7,0.5c0.9,0.6,1.2,1.8,0.7,2.7c-0.5,0.8-1.4,1.3-2.5,0.5l-0.8-0.6L103.1,203.5L103.1,203.5
		L103.1,203.5z M100.9,206.9l0.5,0.4c1.2,0.8,0.5,2.7,0.7,5.1l1.3,0.9l0.1-0.3c-0.9-0.9,0-3.4-0.7-5.1c1.2,0.4,1.9,0,2.4-0.8
		c0.6-0.9,0.4-2.3-1.1-3.3l-2.6-1.9l-0.1,0.3c0.6,0.4,0.6,0.6,0.1,1.5l-2.6,4.3c-0.6,0.9-0.9,0.9-1.4,0.5l-0.1,0.3l2.2,1.6l0.1-0.3
		c-0.5-0.4-0.6-0.8-0.1-1.6L100.9,206.9L100.9,206.9z"/>
	<path class="st0" d="M113.8,214.2l-0.1-0.1c0.8-1,0.5-1.9-0.1-2.5c-0.6-0.6-1.4-0.7-1.9-0.1c-1.1,1,0.1,2.7,0.1,4.4
		c0,0.7-0.3,1.2-0.6,1.6c-1,0.9-2.4,0.9-3.3,0c-0.6-0.6-0.8-1.5-1-1.6c-0.1-0.1-0.3-0.1-0.4,0l-0.1-0.1l1.5-1.5l0.1,0.3
		c-1,1-0.5,2.2,0,2.7c0.6,0.8,1.5,0.8,2.2,0.1c1-1-0.1-3-0.1-4.2c0-0.7,0.3-1.2,0.8-1.6c0.9-0.9,2.2-0.9,3.1,0.1
		c0.6,0.6,0.6,1.1,0.9,1.4c0.1,0.1,0.2,0.1,0.4,0l0.1,0.1L113.8,214.2L113.8,214.2z"/>
	<path class="st0" d="M114.4,222.9c-0.8,0.5-1.1,0.9-0.5,1.6l-0.1,0.1l-1.8-2.5l0.1-0.1c0.4,0.5,0.8,0.6,1.8,0l4.5-3
		c1-0.6,1.1-1,0.5-1.6l0.1-0.1l1.8,2.5l-0.1,0.1c-0.4-0.5-0.8-0.6-1.8,0L114.4,222.9L114.4,222.9z"/>
	<path class="st0" d="M118.9,230.3c-0.9,0.4-1,0.6-0.8,1.4l-0.3,0.1l-1.1-2.7l0.3-0.1c0.3,0.5,0.5,0.8,1.5,0.4l5.7-2.6l-0.5-1
		c-0.5-1-1-1.3-1.8-1l-0.1-0.3l1.6-0.8l0.1,0.3v0.5c0,0.1,0.1,0.4,0.3,0.8l1.8,4c0.3,0.6,0.5,0.9,0.8,1l0.1,0.3l-1.6,0.8l-0.1-0.1
		c0.5-0.4,0.9-0.9,0.4-2.1l-0.5-1.1L118.9,230.3L118.9,230.3L118.9,230.3z"/>
	<path class="st0" d="M122,240.2c-1,0.3-1.2,0.5-1.1,1.2l-0.2,0.1l-0.6-3.1l0.2-0.1c0.1,0.7,0.4,1.1,1.5,0.8l2.5-0.5l2.2-2.4
		c0.7-0.8,0.9-1.1,0.7-1.7l0.2-0.1l0.6,3.4l-0.2,0.1c-0.1-0.9-0.5-0.9-0.9-0.5l-2.1,2.3l2.2,0.9c0.7,0.3,1.2,0.1,1.1-0.5h0.2
		l0.5,2.3l-0.2,0.1c-0.1-0.7-0.4-0.8-1.1-1.2l-3.2-1.3L122,240.2L122,240.2L122,240.2z"/>
	<path class="st0" d="M25.1,260.7c2.3-0.6,4.1,0.1,4.8,1.9c0.5,1.7-0.5,3.4-3.1,4.1c-1.9,0.5-4.1,0.1-4.8-1.9
		C21.5,263,22.6,261.4,25.1,260.7 M24.7,259.4c-2.3,0.6-3.7,3.1-3,5.5c0.6,2.4,3.1,3.7,5.5,3.1c2.3-0.6,3.6-3.1,3-5.5
		C29.3,260.1,27,258.8,24.7,259.4"/>
	<path class="st0" d="M28.1,275.5c-0.9,0.5-1.1,0.9-0.7,1.5l-0.3,0.1l-1.6-2.5l0.3-0.1c0.4,0.6,0.8,0.6,1.7,0.1l4.7-2.5
		c0.9-0.5,1.1-0.8,0.7-1.4l0.3-0.1l2.9,4.9l-1.3,0.8l-0.1-0.1c0.8-0.6,0.8-0.9,0.3-1.6l-1.1-1.8l-3.2,1.6l1.1,1.9
		c0.4,0.5,0.7,0.5,1.3,0.4l0.1,0.1l-2.1,1.1l-0.1-0.1c0.5-0.4,0.7-0.8,0.4-1.3l-1.1-1.9L28.1,275.5L28.1,275.5L28.1,275.5z"/>
	<path class="st0" d="M43.8,291.2l-0.3-0.1c0.4-0.7,0.3-0.8-0.4-1.5l-1.5-1.3l-1.9,2.4c-0.3,0.4-0.3,0.5,0.1,0.8l1.1,0.9
		c1,0.8,1.1,0.9,2.3,0.4l0.1,0.1l-1.3,1.1l-4.5-3.9l0.1-0.1c0.5,0.4,0.9,0.4,1.5-0.4l3.3-4.2c0.6-0.8,0.6-1.2,0.1-1.7l0.1-0.1
		l4.5,3.9l-0.9,1.1l-0.1-0.1c0.4-0.8,0.3-1.1-0.4-1.7l-1.8-1.6l-2.1,2.8l1.8,1.6c0.4,0.4,0.6,0.4,1.1-0.1l0.1,0.1L43.8,291.2
		L43.8,291.2L43.8,291.2z"/>
	<path class="st0" d="M53.2,291.1l1.4,0.6c2.4,1,2.4,3.3,1.7,5.1c-1,2-2.7,2.8-4.5,1.9l-0.8-0.4c-0.6-0.4-0.9-0.6-0.4-1.8
		L53.2,291.1L53.2,291.1z M49.7,296.4c-0.4,1-0.8,1-1.4,0.8l-0.1,0.3l3.6,1.6c2.9,1.4,5,0.1,5.7-1.6c0.9-1.9,0.4-4.4-2.4-5.8
		l-3.4-1.6l-0.1,0.3c0.6,0.3,0.8,0.6,0.4,1.5L49.7,296.4L49.7,296.4z"/>
	<path class="st0" d="M63.5,301.9c-0.3,1,0,1.4,0.6,1.6l-0.1,0.3l-2.9-0.7l0.1-0.3c0.6,0.1,0.9-0.1,1.1-1l1.1-5.1
		c0.3-1,0.1-1.3-0.6-1.6l0.1-0.3l2.9,0.7l-0.1,0.3c-0.6-0.1-1,0.1-1.3,1L63.5,301.9L63.5,301.9z"/>
	<path class="st0" d="M78.5,304.5h-0.3l-6-6.9l0,0l0.1,5.5c0,0.7,0.4,1.1,1.2,1.1v0.2H71v-0.2c0.7,0,1-0.3,1-1.3v-4.6
		c0-0.9-0.3-1.5-1.3-1.5v-0.2H73l5.4,6.1l0,0l-0.1-4.6c0-1-0.4-1.3-1-1.3v-0.2h2.5v0.2c-0.8,0-1,0.4-1,1.2L78.5,304.5L78.5,304.5
		L78.5,304.5z"/>
	<path class="st0" d="M87,298.8l-0.8-3.5l0.7-0.3c1.2-0.4,1.9,0.1,2.3,1.1c0.2,1-0.2,1.9-1.3,2.2L87,298.8L87,298.8L87,298.8z
		 M86.7,301.9c0.2,1,0.1,1.3-0.5,1.5l0.1,0.3l3.4-1c1.4-0.4,2.1-1.5,1.9-2.6c-0.2-1-1.3-1.8-2.5-1.7c0.9-0.6,1.3-1.4,1.1-2.3
		c-0.2-1-1.3-1.7-3.1-1.2l-2.7,0.8l0.1,0.3c0.6-0.1,0.9,0,1.2,1L86.7,301.9L86.7,301.9L86.7,301.9z M87.1,299.1l0.7-0.3
		c1.3-0.4,2.4,0.1,2.6,1.3c0.4,1.1-0.2,1.9-1.1,2.2l-0.6,0.1c-0.6,0.1-0.8,0-1.1-1.2L87.1,299.1L87.1,299.1z"/>
	<path class="st0" d="M103.5,295c-0.3,1.2-0.8,2.1-1.7,2.6c-1.8,1-3.1,0.1-3.9-1l-2.1-3.6c-0.5-1-0.9-1-1.6-0.6l-0.1-0.3l2.6-1.5
		l0.1,0.3c-0.5,0.4-0.6,0.6-0.1,1.7L99,296c0.6,1.2,1.7,1.5,3,0.8c0.8-0.5,1.3-1.3,1.4-2.5l-2.5-4.4c-0.5-0.8-0.8-1-1.4-0.6
		l-0.1-0.3l2.6-1.5l0.1,0.3c-0.6,0.4-0.6,0.8-0.1,1.7l2.6,4.5c0.5,1,0.9,1,1.6,0.6l0.1,0.3l-1.8,1L103.5,295L103.5,295L103.5,295z"
		/>
	<path class="st0" d="M107,284.1l0.6-0.6c0.9-0.9,2-1,2.8-0.1c0.6,0.6,0.9,1.7,0,2.6l-0.8,0.7L107,284.1z M109.9,286.9l0.5-0.5
		c1-1,2.7,0,5.2,0.1l1.1-1.1l-0.1-0.3c-1,0.9-3.3-0.6-5.1-0.3c0.6-1.1,0.4-2-0.3-2.5c-0.8-0.7-2.2-0.9-3.4,0.4l-2.4,2.4l0.1,0.1
		c0.5-0.4,0.8-0.5,1.5,0.2l3.7,3.5c0.8,0.7,0.8,1.1,0.3,1.6l0.1,0.1l2-2.1l-0.1-0.1c-0.5,0.5-0.9,0.4-1.6-0.3L109.9,286.9
		L109.9,286.9L109.9,286.9z"/>
	<path class="st0" d="M123.2,275.7c-0.1,0.5-0.7,1.8-1,2c-1.8,3-4.2,2.9-5.8,2c-2.3-1.5-2.6-4.2-1.6-5.9c0.6-1,1.1-1.1,1.5-1.6
		c0.1-0.3,0.1-0.4,0-0.5l0.1-0.3l2,1.3l-0.1,0.1c-1.5-0.6-2.6,0.3-3.2,1.1c-0.9,1.4-0.2,3.3,1.6,4.4c2,1.3,4.2,1,5.2-0.8
		c0.4-0.5,0.6-1.3,0-1.6l-0.7-0.5c-0.7-0.5-1.2-0.5-1.6,0.1l-0.1,0.3l-0.2-0.1l1.7-2.8l0.2,0.1c-0.4,0.6-0.1,1,0.4,1.4L123.2,275.7
		L123.2,275.7L123.2,275.7z"/>
	<path class="st0" d="M122.8,266.1l2.2,0.6c0.8,0.3,1.2,0.1,1.4-0.6h0.2l-0.7,2.9l-0.2-0.1c0.1-0.6,0.1-1-1-1.3l-4.7-1.4
		c-1-0.2-1.2-0.1-1.4,0.5l-0.2-0.1l0.7-2.9l0.2,0.1c-0.1,0.6,0,1,1,1.2l2.2,0.6l1.2-4.2l-2.2-0.6c-1-0.2-1.2-0.1-1.4,0.5l-0.2-0.1
		l0.7-2.8l0.2,0.1c-0.1,0.6,0.1,1,1,1.3l4.7,1.4c0.8,0.2,1.2,0.1,1.4-0.5l0.2,0.1l-0.7,2.8l-0.2-0.1c0.1-0.6,0.1-1-1-1.3l-2.2-0.6
		L122.8,266.1L122.8,266.1z"/>
	<path class="st0" d="M24.7,250.4c0,0.4-0.4,0.8-0.8,0.8c-0.4,0-0.8-0.4-0.8-0.8s0.4-0.8,0.8-0.8C24.3,249.6,24.7,250,24.7,250.4"/>
	<path class="st0" d="M126.5,250.4c0,0.4-0.4,0.8-0.8,0.8s-0.8-0.4-0.8-0.8s0.4-0.8,0.8-0.8C126.2,249.7,126.5,250,126.5,250.4"/>
	<path class="st0" d="M95.5,287.3c0.5-0.4,1.1-0.6,1.6-1l1.4-0.9l1.3-1l1.4-1l0.3-0.3l0.4-0.1c0.4-0.3,0.7-0.6,1.1-1l0.8-0.9l1-0.8
		c0.1-0.1,0.1-0.3,0.4-0.4c0.2-0.3,0.5-0.5,0.8-0.8l0.5-0.6c0.5-0.5,1.1-1.1,1.5-1.8l1.1-1.4c0.3-0.4,0.5-0.8,0.8-1l0.4-0.4l1.2-1.8
		c0.1-0.1,0.1-0.4,0.4-0.6c0.1-0.1,0.1-0.3,0.3-0.4c0.1-0.1,0.1-0.4,0.2-0.5l0.8-1.5c0.3-0.4,0.4-0.8,0.6-1c0.1-0.4,0.3-0.8,0.4-1.1
		c0.1-0.4,0.4-0.8,0.5-1.1c0.6-1.6,1.2-3.4,1.7-5.2c0-0.3,0-0.4,0.1-0.6c0.1-0.6,0.4-1.3,0.4-1.9l0.1-1c0.1-0.6,0.3-1.1,0.3-1.6
		l0.1-1.4l0.1-0.5l0.1-1.1l0.1-0.6v-0.8c0.1-1.8,0.1-3.5,0-5.2c-0.1-0.9-0.2-1.8-0.4-2.5c-0.1-0.9-0.1-1.8-0.4-2.6
		c-0.5-2.4-1.1-4.7-2-6.9c-0.1-0.4-0.4-0.6-0.4-1c-0.3-0.6-0.6-1.3-0.9-1.9l-0.4-0.5c-0.3-0.5-0.4-1.1-0.8-1.6
		c-0.3-0.4-0.4-0.6-0.6-0.9l-0.5-1c-0.6-1-1.2-1.9-1.9-2.8l-0.8-0.8l-0.7-1c-0.3-0.3-0.5-0.5-0.8-0.8c-0.1-0.1-0.2-0.4-0.4-0.5
		c-0.1-0.3-0.4-0.4-0.6-0.6l-0.4-0.4c-0.4-0.4-0.6-0.6-0.9-1l-0.8-0.8l-0.8-0.8l-1.1-0.9l-1.1-1c-0.2-0.3-0.5-0.4-0.7-0.5l-1-0.8
		c-0.3-0.1-0.5-0.4-0.6-0.5l-0.5-0.4l-0.8-0.5c-0.8-0.5-1.6-0.9-2.4-1.3c-0.2-0.1-0.6-0.4-0.9-0.5c-0.5-0.3-1-0.5-1.5-0.8l-1.2-0.5
		c-0.3-0.1-0.4-0.3-0.6-0.4l-0.5-0.3c-0.4,0-0.5-0.1-0.9-0.3c-0.8-0.3-1.6-0.5-2.4-0.8c-0.4-0.1-0.8-0.3-1.1-0.4
		c-0.9-0.3-1.8-0.4-2.5-0.5c-0.6-0.1-1.1-0.3-1.8-0.4l-1.1-0.1c-0.6-0.1-1.2-0.3-2-0.4h-0.8l-0.5-0.1h-1c-0.8-0.1-1.6-0.1-2.4-0.1
		c-0.4,0.1-0.7,0-1,0h-2.4l-0.5,0.1l-0.5,0.1h-0.6c-0.1,0-0.4,0-0.5,0.1c-0.4,0-1,0.1-1.2,0.3h-0.3c-0.3,0-0.6,0-0.8,0.1
		c-0.6,0-1.2,0.3-1.7,0.4c-0.4,0.1-0.8,0.1-1,0.3c-0.3,0-0.6,0.1-0.8,0.3c-0.4,0-0.7,0.3-1.1,0.4c-0.3,0.1-0.5,0.1-0.6,0.3
		c-0.4,0-0.7,0.3-1.1,0.4l-0.7,0.4c-1.3,0.5-2.5,1.1-3.8,1.8c-0.3,0.1-0.4,0.3-0.6,0.4c-1.5,0.9-2.9,1.6-4.1,2.8
		c-0.4,0.3-0.8,0.5-1.1,0.9c-0.3,0.1-0.4,0.4-0.6,0.5c-0.4,0.3-0.7,0.5-1.1,0.9c-0.7,0.6-1.5,1.4-2.1,2c-0.4,0.4-0.9,0.8-1.2,1.1
		c-0.1,0.3-0.3,0.4-0.4,0.5c-0.3,0.3-0.4,0.4-0.6,0.6c-0.4,0.4-0.5,0.8-0.8,1l-0.7,0.8l-0.4,0.4c-0.5,0.5-0.9,1-1.2,1.5l-0.8,1.3
		c-0.4,0.5-0.7,1.1-1.1,1.6c-0.1,0.3-0.1,0.4-0.2,0.5l-0.8,1.3c-0.2,0.5-0.4,1-0.6,1.4l-0.3,0.4c-0.2,0.4-0.4,0.8-0.6,1.3
		c-0.1,0.3-0.3,0.5-0.4,0.8c-0.1,0.3-0.3,0.5-0.4,0.8l-0.4,0.9c-0.1,0.4-0.3,0.6-0.4,1c-0.6,2.1-1.1,4.2-1.6,6.3l-0.1,1.3
		c0,0.5-0.3,1-0.3,1.5c0,0.4,0,0.8-0.1,1.1c0,0.3-0.1,0.6-0.1,0.9c-0.1,1.8,0,3.5,0,5.2c0,0.8,0.1,1.6,0.2,2.5l0.1,1
		c0.1,1.1,0.4,2.3,0.5,3.3c0.1,0.3,0.1,0.5,0.2,0.9c0.1,0.9,0.4,1.6,0.6,2.5l0.3,0.6c0,0.1,0.1,0.4,0.1,0.6l1,2.8
		c0.3,0.4,0.4,0.6,0.5,1c0.1,0.3,0.1,0.5,0.3,0.8c0.3,0.6,0.6,1.1,0.9,1.6c0.3,0.5,0.5,0.9,0.7,1.4c0,0.1,0,0.4,0.1,0.5
		c0,0.1,0.1,0.1,0.3,0.4c0.1,0.1,0.1,0.4,0.3,0.6c0.2,0.4,0.5,0.8,0.7,1.1l0.5,0.6c0.3,0.3,0.5,0.6,0.8,0.9l0.5,0.8
		c0.4,0.4,0.6,0.8,1,1.1c0.3,0.4,0.5,0.6,0.7,1l1,1c0.2,0.4,0.5,0.6,0.7,1c0.4,0.4,0.7,0.8,1.3,1.1l0.6,0.6c0.4,0.4,0.7,0.5,1.1,0.8
		l1,1l0.7,0.5c0.3,0.3,0.5,0.5,0.9,0.8l1.1,0.8c0.3,0.1,0.5,0.3,0.8,0.4c0.2,0.3,0.6,0.4,0.9,0.6l0.9,0.5c1.1,0.6,2.3,1.3,3.4,1.8
		c0.5,0.3,1,0.5,1.5,0.8c0.5,0.3,1,0.4,1.5,0.6c0.1,0.1,0.4,0.1,0.5,0.1c0.5,0.1,1,0.4,1.5,0.5l0.4,0.1c0.4,0.1,0.9,0.4,1.3,0.5
		l1.6,0.4c0.8,0.1,1.6,0.4,2.4,0.5c0.4,0,0.6,0.1,0.9,0.1c0.4,0,0.8,0.1,1.2,0.1l1,0.1l0.6,0.1h0.6c0.5,0.1,1,0.1,1.5,0.3h0.8
		l0.5-0.1c0.5,0,1,0.1,1.5,0.1h0.7c0.6,0,1.1-0.1,1.6-0.1h0.8c0.4,0,0.6-0.1,1-0.1c1.1-0.1,2.3-0.3,3.4-0.5c0.4-0.1,0.8-0.1,1.1-0.4
		l1.5-0.4c0.2-0.1,0.4-0.1,0.6-0.3c0.4-0.1,0.8-0.3,1.1-0.4l0.5-0.1l0.8-0.3c0.6-0.1,1.1-0.4,1.7-0.6l1-0.5c0.4-0.1,0.6-0.3,1-0.4
		l0.3-0.1c0.4-0.3,0.6-0.4,1-0.5l1.1-0.6C95,287.4,95.2,287.4,95.5,287.3"/>
	<path class="st1" d="M74.5,289.2L74.5,289.2l-0.1-0.1l-0.4-0.8l-0.9-1c-0.9-0.9-2-1.6-3-2.1l-0.8-0.3c-0.3-0.1-0.5-0.3-0.8-0.4
		c-0.3-0.1-0.5-0.1-0.8-0.1c-0.3-0.1-0.5-0.1-0.9-0.3l-1.8-0.4c-0.5-0.1-1.1-0.1-1.6-0.3h-1.3c-2-0.3-4-0.4-6-0.8
		c-0.6-0.1-1.4-0.1-2-0.3c-0.6-0.1-1.3-0.4-1.9-0.5c-0.4-0.1-0.8-0.1-1-0.4c-0.4-0.1-0.6-0.3-1-0.4c-0.3-0.1-0.5-0.3-0.6-0.4
		c-0.1-0.1-0.4-0.3-0.5-0.4l-0.3-0.1c-0.5-0.4-1-1-1.4-1.5c-0.4-0.4-0.5-0.9-0.6-1.4c0-0.3-0.1-0.5-0.3-0.8
		c-0.3-1.1-0.3-2.3-0.3-3.5v-0.8c0-0.9,0.1-1.9,0.1-2.8v-3.4c0-0.6,0.1-1.1,0-1.8c0-2.4,0-4.9,0.1-7.4l-0.1-1v-1.6l0.1-1.6v-1.3
		c0-0.4,0.1-0.6,0-0.9c0-0.3-0.1-0.5-0.1-0.8v-2.3c0-0.3,0.1-0.6,0-0.9c0-0.4-0.1-0.6-0.1-1c0-0.4,0-0.9,0.1-1.3v-4.3l-0.1-1.1
		l0.1-1c0-1.5,0-3.1,0.1-4.7V232c0-0.4-0.1-0.8-0.1-1.1v-8.9c0-0.4-0.1-0.8,0-1l0.1-0.1c0.8-0.1,1.4-0.1,2-0.1c0.8,0.1,1.5,0,2.1,0
		h2c0.4,0,0.8,0,1.1-0.1h6.8c0.4,0,0.6,0.1,1,0.1h3l0.9,0.1c0.9,0,1.8,0,2.6-0.1l1.8,0.1c0.5,0,1-0.1,1.5-0.1h2.1l1.1,0.1h0.9
		l1.8,0.1c0.3,0,0.5,0,0.8-0.1H83l1-0.1h2.5c0.6,0.1,1.3,0,2,0c0.3,0,0.5,0.1,0.8,0.1h0.9c0.5,0,1,0.1,1.5,0.1c0.4,0,0.6-0.1,1-0.1
		l0.8,0.1h1l0.8,0.1h4.9l0.9-0.1h1.3c0.1,0.3,0,0.5,0,0.9v5.8l-0.1,1.1l0.1,1.5l-0.1,0.5c0,0.4,0.1,0.6,0.1,1l-0.1,1v1.1l-0.1,0.9
		l0.1,1.5c-0.1,0.1-0.1,0.4-0.1,0.5c0,0.4-0.1,0.8,0,1.1c0,0.8,0.1,1.5,0.1,2.1l-0.1,0.5v1c0,0.4-0.1,0.8-0.1,1.1
		c0,0.3,0.1,0.5,0.1,0.9l-0.1,0.5v0.6c0,0.8-0.1,1.5-0.1,2.3v1.1l0.1,0.4v1.3l-0.1,0.8c0,0.4,0.1,0.8,0.1,1.1c0,1.1-0.1,2.1-0.1,3.3
		c0,0.5,0.1,0.9,0.1,1.3c0,0.3-0.1,0.5-0.1,0.8v5.5c0,0.8-0.1,1.5-0.1,2.3l0.1,1.1v6.4l0.1,0.4c0,0.5,0,1-0.1,1.5v1.3
		c0,0.3-0.1,0.5-0.1,0.8c0,0.3,0,0.5-0.1,0.8c-0.1,0.5-0.4,1.1-0.6,1.5c-0.3,0.4-0.5,0.5-0.9,0.8c-0.1,0.1-0.4,0.3-0.5,0.4
		c-0.4,0.3-0.6,0.5-1,0.8c-0.3,0.1-0.5,0.1-0.8,0.3c-0.5,0.1-1,0.4-1.5,0.6c-0.4,0.1-0.9,0.3-1.4,0.5l-0.4,0.1
		c-0.3,0-0.5,0.1-0.8,0.3c-0.3,0-0.4,0-0.6,0.1c-0.4,0-0.5,0.1-0.8,0.1l-0.3,0.1c-0.1,0-0.3,0-0.4,0.1c-0.3,0-0.8,0.1-1,0.3H90
		c-0.1,0-0.3,0-0.4,0.1c-0.3,0-0.4,0-0.6,0.1h-0.4c-0.1,0-0.4,0-0.5,0.1c-0.1,0-0.4,0-0.4,0.1h-1.3c-0.3,0-0.5-0.1-0.8,0H83
		l-0.4,0.1h-0.4c-0.1,0-0.4,0-0.5,0.1c-0.1,0-0.4,0-0.5,0.1c-0.1,0-0.3,0-0.4,0.1h-0.6c-0.1,0-0.5,0.1-0.6,0.1h-0.4
		c-0.4,0-0.8,0.1-1,0.4c-0.3,0.1-0.5,0.1-0.8,0.3c-0.5,0-1,0.5-1.4,0.8c-0.4,0.3-0.8,0.4-1,0.8C75.5,287,75,288,74.5,289.2"/>
	<path class="st0" d="M78.5,283.7c0.3-0.1,0.4-0.1,0.6-0.3c0.5-0.1,1-0.3,1.5-0.4c0.9-0.1,1.8-0.4,2.7-0.6h0.6
		c0.4-0.1,0.8-0.1,1-0.3l1.5-0.1c0.5,0,1.1-0.1,1.8-0.3l1.5-0.1c0.5-0.1,0.9-0.1,1.4-0.3h0.4c0.8-0.1,1.4-0.3,2-0.4
		c0.3-0.1,0.5-0.1,0.6-0.1c0.6-0.1,1.3-0.4,1.9-0.6c0.5-0.1,1-0.4,1.5-0.5c0.4-0.1,0.8-0.5,1.1-0.8c0.8-0.5,1.5-1,1.9-1.6
		c0.1-0.4,0.4-0.9,0.4-1.3v-0.5c0.1-0.8,0.1-1.8,0.1-2.5v-2.4l-0.1-0.4V269c0-0.3-0.1-0.4-0.1-0.6v-6.9c0.1-2.4,0-4.9,0.1-7.3v-1
		c0-0.1,0.1-0.4,0-0.6v-0.4c0-0.1,0.1-0.4,0.1-0.6c0-0.4-0.1-0.8-0.1-1.3c0-0.4,0-0.6,0.1-0.9V249l0.1-0.4l-0.1-0.5l0.1-0.5
		c0-0.1-0.1-0.4-0.1-0.5v-3c0-0.3,0.1-0.4,0.1-0.6c0-0.3-0.1-0.4-0.1-0.6l0.1-0.4l0.1-1v-1.6l-0.1-0.5c0-0.4,0.1-0.8,0.1-1.1
		l-0.1-0.9c0-2.4-0.1-4.8,0-7.2v-8.2h-2.5c-0.5,0-0.9-0.1-1.4-0.1H97l-0.5,0.1l-0.8-0.1h-5c-0.4,0-0.9-0.3-1.3,0h-1.4
		c-0.5,0-1-0.1-1.5-0.1c-0.4,0.1-0.9-0.1-1.3,0.1h-2.5c-0.4,0-0.6-0.1-0.9-0.1h-2.4c-0.3,0-0.8-0.1-1,0l-0.1,0.1H78
		c-0.4,0-1.1-0.3-1.5-0.1h-0.3c-0.1,0-0.4,0-0.5,0.1h-4.3c-0.1,0-0.4-0.1-0.5,0H70c-0.4,0-1.3-0.1-1.6,0h-0.8c-0.1,0-0.4-0.1-0.5,0
		h-0.8c-0.5,0-0.9-0.1-1.3-0.1h-0.5c-0.3,0-0.6-0.1-0.9,0h-3.6c-0.4,0-1-0.1-1.3,0c-0.4,0-0.9-0.1-1.1,0c-0.8,0-1.4,0-2-0.1
		c-0.3,0-0.6-0.1-0.9,0h-0.4c-0.3,0-0.6-0.1-0.9,0c-0.3,0-0.6-0.1-0.8,0c-0.9,0-1.9,0-2.8-0.1c-0.3,0-0.6-0.1-0.9,0
		c-0.4,0-1.1-0.1-1.4,0c-0.1,0-0.5-0.1-0.6,0c-0.3,0.4-0.1,1.3-0.1,1.6v2.5l-0.1,2.9c0,0.3-0.1,0.5-0.1,0.8v0.8l-0.1,0.8
		c0.1,0.5,0.1,1.1,0.1,1.5c0,0.9-0.1,1.8-0.1,2.6v1.4c0,0.3-0.1,0.4-0.1,0.6v6.5c0,0.4-0.1,0.6-0.1,1v5.5l-0.1,1.4v5.4
		c0,0.4-0.1,0.8-0.1,1.3v2c0,1.6-0.1,3.1-0.1,4.8c0,0.8-0.1,1.4-0.1,2.1v1l0.9,0.5l-0.1,0.4v2.5c0,0.3,0.1,0.4,0.1,0.6
		c0,0.3-0.1,0.4-0.1,0.5c0,0.3,0.1,0.5,0.1,0.8c0,1.9,0,3.8,0.9,5.3c0.6,1,1.8,1.6,2.8,2.1c0.8,0.4,1.5,0.6,2.3,0.9
		c0.5,0.1,1.1,0.3,1.8,0.4l1.4,0.3c0.5,0,0.9,0,1.4,0.1c1,0.1,1.9,0.3,2.9,0.4c0.5,0,1,0.1,1.4,0.1c0.1,0,0.4,0.1,0.6,0.1h1l1.1,0.1
		h0.6c0.1,0.1,0.4,0.1,0.5,0.1l1.5,0.3l0.5,0.1c0.4,0.1,0.6,0.1,1,0.4c0.5,0.1,1,0.4,1.5,0.5l1,0.5l0.5,0.4c0.4,0.3,0.8,0.4,1.1,0.6
		c0.4,0.4,0.8,0.8,1.1,1.3c0.1,0.1,0.3,0.4,0.4,0.4h0.1l0.3-0.3l0.3-0.4c0.8-1.3,2-2.1,3.3-2.8C78.1,283.8,78.3,283.6,78.5,283.7"/>
	<path class="st1" d="M79,227L79,227l-0.2-0.5c0.2-0.5,0.5-0.6,0.6-1.1C79.9,225.9,79.3,226.7,79,227"/>
	<path class="st1" d="M80.7,223.8c0.1-0.1,0.2-0.4,0.3-0.5l0.3-0.4c0.2,0,0.5,0.1,0.7,0.1v0.1c-0.3,0-1.4,1.4-1.6,1.7
		c-0.1,0.1-0.2,0.5-0.3,0.5l-0.3-0.1c-0.2-0.1-0.1-0.4,0-0.6l0.1-0.4l0.3-0.1L80.7,223.8"/>
	<path class="st1" d="M78.4,224.1c0.1-0.1,0.1-0.4,0.1-0.7c0.1-0.3,0.4-0.3,0.6-0.5c0.2-0.1,0.2-0.4,0.4-0.5
		c0.1-0.1,0.4-0.3,0.5-0.3h0.5c0,0.1-0.2,0.4-0.4,0.5c-0.1,0.3-0.2,0.5-0.4,0.7c-0.1,0.3-0.2,0.4-0.4,0.7c-0.1,0.1-0.1,0.4-0.2,0.5
		l-0.2,0.3l-0.2,0.3l-0.2,0.3c-0.1,0.3-0.1,0.5-0.4,0.7c-0.1,0.1-0.5,0.3-0.7,0.1h-0.1l0.6-1.1l0.4-0.3l0.1-0.4
		C78.2,224.4,78.4,224.3,78.4,224.1"/>
	<path class="st1" d="M75.7,223.7c0-0.1,0.2-0.4,0.2-0.6c0.1-0.3,0-0.4,0.1-0.7c0.1-0.3,1.1,0,1.4-0.3H78v0.3
		c-0.2,0.4-0.4,1-0.6,1.5l-0.2,0.6l-0.2,0.6c-0.1,0.4-0.6,1.1-1.1,1.1v-0.4c0-0.1-0.1-0.4-0.1-0.6c0-0.3,0.1-0.4,0.1-0.6
		C75.7,224.2,75.5,224,75.7,223.7"/>
	<path class="st1" d="M72.6,222.3c0.1-0.1,0.6-0.1,0.9-0.1c0.3,0.1,0.9,0.1,1.2,0.1v0.6c0,0.1,0.1,0.3,0.1,0.4l-0.1,0.4
		c0,0.7-0.1,1.3-0.1,2.1l0.1,1.2l0,0c-0.5,0-1-1.8-1.3-2.1c-0.1-0.3-0.3-0.4-0.4-0.6C72.6,223.9,72.1,222.7,72.6,222.3"/>
	<path class="st1" d="M69.1,222.6c0.1-0.3,0.6-0.3,0.8-0.4c0.2,0,0.5,0,0.6,0.1c0.5,0.3,0.7,1.2,0.9,1.8l0.5,1.2l0.3,0.6
		c0.1,0.1,0.1,0.4,0.1,0.6c0,0.1,0,0.4-0.1,0.6h-0.3C71.7,226.8,69.1,222.9,69.1,222.6L69.1,222.6"/>
	<path class="st1" d="M67.9,222.1c0.2,0.1,0.3,0.1,0.6,0.4c0.3,0.3,0.5,0.6,0.7,1c0.1,0.3,0.1,0.4,0.3,0.5l0.6,0.6
		c0.1,0.3,0.3,0.4,0.5,0.6l0.1,0.3L71,226c0.2,0.3,0.5,0.5,0.6,0.9l-0.1,0.1c-0.2,0-0.5,0-0.6-0.1l-0.7-0.8
		c-0.1-0.1-0.3-0.3-0.5-0.4c-0.2-0.4-0.5-0.8-0.7-1.1c-0.1-0.1-0.3-0.3-0.6-0.4l0,0c-0.1-0.3-0.2-0.5-0.3-0.8
		c-0.1-0.3-0.5-0.4-0.6-0.6v-0.1C67.4,222.3,67.7,222.3,67.9,222.1"/>
	<path class="st1" d="M76.4,230.2h0.3c0.3,0.1,0.5,0.6,0.4,0.9c-0.1,0.1-0.2,0.3-0.3,0.5l-0.3,0.2c-0.2,0-0.1-0.5-0.1-0.6
		c0-0.2,0.2-0.2,0.2-0.3C76.5,230.5,76.3,230.3,76.4,230.2"/>
	<path class="st1" d="M77,229.1c-0.1,0.2-0.2,0.3-0.4,0.3c-0.2,0-0.4-0.5-0.5-0.6c-0.1-0.2-0.5-0.3-0.5-0.6c0-0.2,0.1-0.2,0.2-0.3
		l0,0c0.2,0.2,0.4,0.3,0.6,0.3c0.2,0.2,0.5,0.2,0.7,0.3v0.2C77.2,228.9,77.1,229.1,77,229.1"/>
	<path class="st1" d="M76.4,233.1c-0.2,0.3-1,0.4-1.4,0.3c-0.6-0.1,0.4-0.6,0.6-0.8C75.8,232.8,76.4,232.9,76.4,233.1"/>
	<path class="st1" d="M74.7,233.4l-0.3-0.1l-0.3-0.1c-0.1-0.2-0.1-0.3-0.1-0.7v-0.5l0.3-0.2c0.1,0,0.3,0,0.4,0.1l0.9,0.8
		C75.6,233.1,74.9,233.4,74.7,233.4"/>
	<path class="st1" d="M79.6,231c0,0.3-0.2,0.6-0.6,0.8h-0.2C78.8,231.5,79.2,231.2,79.6,231L79.6,231z"/>
	<path class="st1" d="M78.3,230.1c-0.1,0.1-0.3,0.1-0.6,0.1c-0.4,0-0.2-0.1-0.4-0.2v-1.1l0.6-0.3c0.4,0.1,0.4,0.2,0.6,0.4
		C78.9,229.6,79.1,229.9,78.3,230.1"/>
	<path class="st1" d="M78,232.9L78,232.9c0,0.3-0.6,0.7-0.7,0.5c-0.3-0.3,0.1-0.5,0.3-0.7C77.7,232.6,77.9,232.6,78,232.9"/>
	<path class="st1" d="M74.5,228.6h0.3c0.2,0.1,0.9,0.5,0.7,0.8c-0.1,0.2-0.3,0.3-0.4,0.5c-0.2,0.1-0.3,0.3-0.6,0.3
		c-0.2,0-0.5-1-0.5-1.2L74.5,228.6L74.5,228.6"/>
	<path class="st1" d="M73.6,231.6c-0.1,0.1-0.4,0.3-0.5,0.3s-0.2-0.1-0.4-0.1c-0.2-0.2-0.4-0.5-0.4-0.8l0.1-0.3
		c0.1-0.2,0.2-0.3,0.4-0.5c0.4,0.1,1.2,0.6,1.1,1C74,231.4,73.7,231.5,73.6,231.6"/>
	<path class="st1" d="M74,233.4h-0.3c-0.9-0.1-1.7-0.2-1-0.8H73c0.2,0.1,0.2,0.2,0.3,0.3C73.5,233.1,73.8,233.2,74,233.4"/>
	<path class="st1" d="M70.8,229l0.6-0.4l0,0c0.8,0.4,1.4,0.9,0.6,1.4l-0.6,0.2c-0.6,0.1-0.4-0.5-0.4-0.7
		C71,229.2,70.8,229.1,70.8,229"/>
	<path class="st1" d="M71.6,228.2L71.6,228.2l0.3-0.1c0.7-0.1,1-0.1,1.5-0.3l0.5,0.1c0.3,0.3-1,0.7-1.4,0.7
		C72.1,228.6,71.9,228.2,71.6,228.2"/>
	<path class="st1" d="M71.6,231h0.2c0.1,0.1,0.6,0.7,0.6,1c0,0.3-0.3,0.6-0.5,0.6c-0.1,0-0.1-0.1-0.2-0.3
		C71.6,232,71.5,231.5,71.6,231"/>
	<path class="st1" d="M70.4,231c-0.6,0.1-0.4-0.6-0.4-0.8C70.4,230.4,71.3,231,70.4,231"/>
	<path class="st1" d="M74.8,269.7c0-0.1,1-1.2,1.4-1.4l0.3-0.1h0.7c0,0.3-1.2,1.5-1.6,1.6C75.5,269.8,75.1,269.8,74.8,269.7
		L74.8,269.7z"/>
	<path class="st1" d="M69.7,269.7c-0.2,0.1-0.4,0-0.6,0c0-0.4,1-1.3,1.2-1.6h0.4C70.8,268.4,69.9,269.6,69.7,269.7"/>
	<path class="st1" d="M79.6,277c-0.2,0.1-0.5-0.1-0.7-0.3c-0.1-0.1-0.1-0.4-0.2-0.6c-0.1-0.4-0.2-0.8-0.4-1
		c-0.1-0.3-0.2-0.5-0.2-0.9c0-0.1,0.1-0.3,0.4-0.4l0.2,0.1l0.1,0.4l0.4,1c0.1,0.4,0.2,0.9,0.5,1.3C79.6,276.8,79.7,277,79.6,277"/>
	<path class="st1" d="M78.8,268.1c0.1,0.2,1.3,1.5,1.1,1.6l-0.1,0.1h-2.6c0-0.1,0.1-0.2,0.1-0.4c0.1-0.4,0.9-1.2,0.8-1.6l-0.3-0.2
		c-0.5-0.1-1,0-1.5,0c-0.3,0-0.9-0.1-1.1,0c-0.5,0-2.3-0.2-2.4,0.1l0.1,0.4c0.1,0.4,0.5,0.7,0.8,1.1c0.1,0.2,0.3,0.4,0.4,0.6h-0.1
		c-1,0-2.1-0.1-3.1-0.1l0,0c0,0,1.5-1.7,1.8-1.9l0,0c-0.1,0-0.4-0.1-0.5-0.1l-1-0.1c-0.9,0-1.9,0-2.6-0.1c0-0.1,1.3-1.3,1.5-1.5
		c1.1-1.1,2.3-2.2,3.4-3.3c0.4-0.4,0.8-0.7,1.1-1.2c0.1-0.1,0.3-0.2,0.4-0.4v-0.1c0.3,0.1,0.5,0.4,0.6,0.6c0.4,0.4,0.6,0.7,1,1
		c0.3,0.1,0.4,0.4,0.6,0.6c1,1,2,1.9,3,2.8c0.4,0.4,1,0.9,1.3,1.2h-1.6c-0.4,0-1-0.1-1.3,0.1C78.4,267.8,78.6,268,78.8,268.1"/>
	<path class="st1" d="M67.5,272.3c0.1-0.2,3,0,3.5,0c0.8,0,1.5-0.1,2.1-0.1c1,0,2,0.1,3,0.1h5.1l0.1-0.4v-2.3c0-0.5,0-1.1,0.1-1.5
		c0.6,0.4,0.5,1.1,0.5,1.7v1.3l-0.1,0.7c0,0.4,0.1,0.7,0,1.1v0.1h-3.8c-0.6,0-1.4,0-2-0.1c-0.4,0-0.8-0.1-1,0h-1.9
		c-0.3,0-0.9-0.1-1.1,0h-3.6C68.3,272.8,67.8,272.9,67.5,272.3L67.5,272.3"/>
	<path class="st1" d="M81.9,281.6c-0.1,0.1-0.5,0.1-0.7,0.3V278l0.1-0.1h0.5l0.1,0.5v0.7c0,0.4-0.1,0.6,0,1
		C81.9,280.5,82.1,281.4,81.9,281.6"/>
	<path class="st1" d="M93.1,280.6c-0.1,0-0.2,0-0.4,0.1c-0.1,0-0.5,0.1-0.7,0.1c-0.4,0-0.6,0.1-1,0.3l-0.6,0.1h-0.6l-0.2,0.1
		c-0.2,0-0.5,0-0.6,0.1h-0.2c-0.4,0-0.7-0.1-1.1,0.1h-0.4c-0.1,0-0.4,0-0.5-0.1l-0.5,0.1h-1c-0.2,0-0.5,0-0.7,0.1
		c-0.1,0-0.4,0-0.5,0.1c-0.2,0-0.9,0.1-1-0.1c-0.2-0.1-0.1-2.4-0.1-2.9v-0.6c0-0.2,0.1-1-0.4-0.9c-0.2,0-0.7-0.1-0.9,0
		c-0.2,0-0.9,0-1-0.1c-0.2-0.2-0.4-1.1-0.5-1.5c-0.2-0.5-0.5-1-0.6-1.6v-0.2c0.1-0.1,0.6-0.1,0.7-0.1c0.4,0,2.3,0,2.6-0.2
		c0.1-0.1,0.1-0.7,0-1v-1.1c0-0.5-0.1-1.2,0.1-1.7c1.2,1.3,2.7,2.6,3.9,3.9c0.1,0.1,0.2,0.4,0.4,0.5c0.4,0.4,0.7,0.6,1,0.9
		c0.9,0.8,1.7,1.8,2.6,2.7l2.1,1.9c0.1,0.1,0.4,0.3,0.4,0.4C93.5,280.5,93.2,280.5,93.1,280.6"/>
	<path class="st1" d="M90.7,245l0.6-0.8c0.2-0.3,0.5-0.5,0.7-0.6c0.4-0.4,0.6-0.6,1-1c0.4-0.4,0.7-0.8,1.1-1l2.1-2.3
		c1.1-1,2.2-2.2,3.2-3.3c0.2-0.4,0.6-0.6,0.9-0.9c0.1,0.3,0.1,1,0.1,1.3c0.1,0.8,0,1.8,0,2.6l0.1,1.3c0,0.5-0.1,0.9-0.1,1.4l0.1,0.8
		v0.8l-0.1,0.4c-0.1,0.6-0.1,1.4-0.1,2.2l0.1,1l-0.1,0.6v1.9c0,0.3,0.1,0.6,0.1,0.9c0,0.4-0.1,0.8-0.1,1.3l0.1,1.5
		c0,0.4-0.1,0.6-0.1,1v1.4l0.1,0.8c0,0.1,0,0.4-0.1,0.5v1c0.1,0.5,0,1.3,0,1.8l-0.1,0.4c0,0.4,0.1,0.6,0.1,0.9l-0.1,0.5v1.3
		c0,0.3,0.1,1.7-0.1,1.7c-0.1,0-1.4-1.3-1.5-1.5l-4.5-4.6c-0.2-0.3-0.4-0.5-0.6-0.8l-0.6-0.6l-0.4-0.4c-1.5-1.5-2.9-2.9-4.4-4.3
		c-0.2-0.3-2.1-2.2-2.1-2.3v-0.1c0.1-0.4,0.7-0.8,1-1c0.4-0.4,0.5-0.6,0.9-1l0.9-0.8l0.4-0.3c0.2-0.3,0.5-0.5,0.6-0.8
		C90.2,245.5,90.4,245.3,90.7,245"/>
	<path class="st1" d="M82.1,224c0.1-0.1,0.2-0.1,0.4-0.3l0.2-0.4c0.2-0.4,0.4-0.5,0.6-0.8l0.2-0.3c0.1-0.1,0.5,0,0.6,0
		c0.4,0,0.7,0,1.2-0.1c0.2,0,0.4,0,0.5-0.1h0.9c0.2,0,0.6,0.1,1,0.1s0.5-0.1,0.9-0.1l0.4,0.1c0.4,0,0.7,0,1.1-0.1l0,0v0.1
		c-0.4,0.5-0.9,0.9-1.2,1.3l-2.3,2.4l-0.5,0.5c-0.7,0.8-1.4,1.5-2.1,2.3l-0.7,0.8c-0.1,0.1-0.4,0.3-0.5,0.4
		c-0.1,0.1-0.4,0.4-0.5,0.6c-0.5,0.5-1,1-1.4,1.4c-0.2,0.3-0.5,0.5-0.6,0.8l-1.5,1.5l-2.5,2.5c-0.2,0.3-0.5,0.6-0.7,0.8l0,0v-1.1
		l0.1-0.4c0-0.3-0.1-0.5,0-0.8c0.1-0.1,0.2-0.1,0.4-0.4c0.2-0.3,0.4-0.5,0.6-0.6c0.2-0.3,0.6-0.3,0.9-0.4l0.5-0.4
		c0.4-0.3,0.9-0.5,1.1-0.9l0.2-0.5l0.4-0.4c0.1-0.1,0.1-0.4,0.1-0.6c0-0.3,0.2-0.5,0.2-0.9l-0.1-0.9c0-0.4-0.2-0.8-0.5-1
		c-0.1-0.1-0.2-0.3-0.2-0.4v-0.1l0.1-0.3c0.2-0.4,0.5-0.8,0.9-1.1c0.2-0.1,0.2-0.4,0.4-0.5c0.1-0.3,0.4-0.4,0.6-0.5
		c0.1-0.1,0.1-0.3,0.2-0.4c0.1-0.1,0.1-0.4,0.2-0.4c0.1-0.1,0.2-0.1,0.4-0.3L82.1,224"/>
	<path class="st1" d="M60.5,222.2h1.1c0.3,0.1,0.5,0,0.9,0h1.6c0.1,0,0.3,0.1,0.4,0.1c0.3,0,0.6-0.1,0.9-0.1
		c0.4,0.1,0.6,0.5,0.9,0.8c0.4,0.4,0.8,0.8,1.3,1.1c0.3,0.3,0.5,0.6,0.8,0.9c0.4,0.4,0.8,0.6,1,1c0.3,0.3,0.4,0.4,0.5,0.6l0.4,0.3
		c0.3,0.1,0.4,0.4,0.5,0.6l-0.4,0.4c-0.4,0.4-0.5,0.6-0.6,1.2c-0.1,0.1-0.1,0.4-0.1,0.5c-0.1,0.3-0.1,0.5-0.1,0.9l0.1,0.6l0.3,0.6
		c0.1,0.3,0.1,0.5,0.4,0.6c0.1,0.1,0.4,0.3,0.4,0.4c0.1,0.1,0.3,0.3,0.4,0.4c0.1,0.1,0.3,0.1,0.4,0.1c0.1,0.1,0.4,0.3,0.6,0.4
		s0.5,0.3,0.8,0.5l0.4,0.6c0.1,0.1,0.4,0.3,0.5,0.5l0.1,0.5v0.5c0,0.4,0.3,0.8,0.1,1.1c-0.4,0-1-0.8-1.1-1l-1.4-1.3
		c-0.4-0.4-0.6-0.8-1-1.1c-0.6-0.8-1.4-1.4-2-2c-0.4-0.4-0.8-0.8-1.1-1.2l-0.5-0.5c-1.3-1.2-2.5-2.4-3.7-3.6l-1-1
		c-0.8-0.8-1.4-1.4-2.1-2.2c-0.4-0.4-1.1-0.8-1.3-1.3L60.5,222.2"/>
	<path class="st1" d="M52.8,259.3c-0.5,0.5-1,1.1-1.5,1.6l-2.3,2.4c-0.2,0.3-0.6,0.5-0.7,0.9l0,0l-0.1-0.1v-0.7l0.1-2.5v-2.6
		c0-0.6,0.1-1.2,0-2v-5.6c0-0.2,0.1-0.5,0.1-0.7c0.1-0.6,0-1.1,0-1.7c0-0.5,0-0.9,0.1-1.4c0-1-0.1-1.8,0-2.7l0.1-1.4l-0.1-0.7v-4.2
		c0-0.3-0.1-0.5,0-0.9c0-0.1,0-0.4,0.1-0.5v-1.4c0.4,0.1,0.6,0.5,1,0.9c0.6,0.6,1.2,1.2,1.9,1.9c0.2,0.2,0.5,0.5,0.6,0.7
		c0.5,0.5,1,1,1.5,1.5l0.5,0.5c0.4,0.4,0.6,0.5,1,0.9c0.1,0.1,0.2,0.4,0.4,0.4c0.7,0.7,1.5,1.4,2.2,2.1c0.7,0.7,1.5,1.5,2.1,2.2
		c0.5,0.4,3.3,3.1,3,3.5l-0.1,0.2c-0.4,0.6-1.1,1.2-1.6,1.7c-0.1,0.1-0.2,0.4-0.5,0.5l-1.2,1.2l-1.7,1.7l-1.2,1.1
		c-0.1,0.1-0.1,0.3-0.4,0.4L52.8,259.3"/>
	<path class="st1" d="M68.6,277.7c-0.4,0-1.4-0.1-1.6,0l-0.1,0.3v4.5l-0.1,0.3l0,0c-0.4,0-0.6-0.1-0.9-0.1h-1.4l-1.1-0.1h-0.5
		c-0.9,0-1.8-0.1-2.5-0.3c-0.4,0-0.8,0-1.1-0.1l-1-0.1l-0.4-0.1h-0.6l-1.5-0.3c-0.4-0.1-0.8-0.1-1.1-0.3l0,0v-0.1h0.1
		c0.3-0.4,0.6-0.6,0.9-1l0.8-0.8c0.4-0.4,0.9-0.8,1.3-1.1l0.6-0.6c0.1-0.1,0.4-0.4,0.5-0.5c1-1,2.1-2,3.1-3c0.6-0.6,1.1-1.3,1.9-1.9
		c0.9-0.9,1.8-1.6,2.6-2.5l0.8-0.8c0.1,0.3,0.1,1.1,0,1.4c0,0.5-0.1,1-0.1,1.5c0,0.4,0,0.6,0.1,1c0.1,0.3,0.3,0.5,0.4,0.8
		c0.1,0.1,0.1,0.4,0.4,0.4c0.3,0.1,1,0.1,1.3,0.1c0.5,0,1.1-0.1,1.6-0.1c0,0.4-0.3,0.8-0.4,1.1c-0.3,0.5-0.5,1.1-0.6,1.8
		c-0.1,0.3-0.1,0.5-0.4,0.6l-0.4,0.1L68.6,277.7"/>
	<path class="st1" d="M71,284.2c-0.4,0-0.7-0.4-1.1-0.5c-0.2-0.1-0.6-0.3-0.8-0.4l0,0c0.5,0,2.9,0.1,3.2-0.1
		c0.1-0.1,0.1-0.7,0.1-0.8c0-1.3-0.1-2.9,0.9-3.6c0.2-0.1,0.4-0.1,0.5-0.1c0.4,0,0.9,0.1,0.9,0.5l-0.2,0.1c-0.7,0.1-0.8,0.5-1.1,1.1
		c-0.2,0.5-0.2,1.3-0.2,2v1.8h-0.5c-0.2,0-0.4,0.1-0.5,0.1H71"/>
	<path class="st1" d="M75.7,284.6c-0.1,0.1-0.3,0.3-0.4,0.5c-0.4,0.3-0.7,0.6-1,0.9l0,0l-0.8-0.7c-0.3-0.2-0.7-0.5-1.1-0.6l0,0v-0.1
		l0,0l0.1-0.1c0.1,0,0.3-0.1,0.4-0.1h1.4l0.1-0.2c0-0.1,0-0.3,0.1-0.5l-0.1-0.5v-0.5c0-0.3-0.1-0.7,0-1c0-0.2,0.1-0.3,0.1-0.6
		c0.1-0.2,0.1-0.5,0.4-0.7c0.1-0.2,0.4-0.1,0.7-0.2l0.3,0.1c0.1,0.2,0,0.6,0,0.8v1.8c0,0.1,0.1,0.2,0.1,0.3c0.1,0.2,0.3,0.3,0.3,0.6
		l0,0C76.4,284.2,76,284.5,75.7,284.6"/>
	<path class="st1" d="M76.8,284.3c-0.2-0.1-0.3-0.5-0.3-0.8H78v0.1c-0.1,0-0.3,0.1-0.3,0.1L76.8,284.3L76.8,284.3"/>
	<path class="st1" d="M63.9,252.7c0-0.4,0.1-0.7,0.1-1l-0.1-1.1c0-0.6,0.1-1.2,0.1-1.8l-0.1-1.1v-0.9l-0.1-0.8
		c0-0.5,0.1-0.8,0.1-1.3c0-0.2,0-0.5-0.1-0.7v-0.5c0-0.5,0.1-1,0.1-1.6c0-0.4-0.1-1,0-1.2c0.1-0.4,0.9-1.5,1.2-1.6l0,0
		c0.1,0.2,0,0.6,0,1v3.2l-0.1,0.6v0.7c0,0.6-0.1,1.5,0,2.1c0,0.7-0.1,1.5-0.1,2.2v2.3l-0.1,0.7v1.2c0,0.5,0.1,1.5,0,1.8
		c-0.1,0.1-0.2,0.2-0.3,0.4l-0.3,0.5l-0.3,0.4c-0.1,0.2-0.2,0.5-0.3,0.7l0,0c0-0.7-0.1-1.5-0.1-2.1c0-0.4,0.1-0.8,0.1-1.2
		C63.9,253.2,63.9,253,63.9,252.7"/>
	<path class="st1" d="M64.5,257.5c0.1-0.5,0.4-0.6,0.8-0.8c0.1-0.2,0.4-0.4,0.6-0.5c1-0.6,2.5-0.6,3.8-0.4c0.3,0.1,0.5,0.1,0.6,0.1
		c0.8,0.1,1.5,0.2,2.2,0.6c0.4,0.2,0.8,0.6,1.2,0.8l0.4,0.1c0.1,0.1,0.4,0.4,0.6,0.4c0.4,0,0.5-0.5,0.9-0.6c0.3-0.2,0.5-0.4,0.9-0.6
		c0.9-0.4,1.8-0.8,2.8-1.1c0.4-0.1,0.8-0.1,1-0.2c0.3,0,0.4,0,0.6-0.1h0.9c0.5,0.1,1,0.4,1.4,0.6l0.5,0.5c0.3,0.4,0.5,0.6,0.6,1
		h-2.8c-0.3,0-0.6-0.1-0.9,0.1c-0.3,0-0.6-0.1-0.9,0h-0.3c-0.4,0-0.6-0.1-0.9,0.1c-0.1,0-0.3,0-0.4,0.1c-0.3,0-0.8-0.1-1,0l-0.3,0.1
		h-0.4c-0.1,0-0.4,0-0.5,0.1v0.2c0,0.6-0.5,1.2-1.2,1.2c-0.5,0-1-0.4-1.2-0.8c0-0.1,0-0.4-0.1-0.5l-0.3-0.1h-1.3
		c-0.6,0-1.2,0-1.8-0.1h-1.9c-0.3,0-0.5,0-0.6,0.1c-0.6,0-1.4-0.1-2.1-0.1c-0.3,0-0.5-0.1-0.8,0c-0.3,0-0.4,0-0.5-0.1
		C64.2,257.9,64.3,257.6,64.5,257.5"/>
	<path class="st1" d="M85.1,243c0-0.4-0.2-0.7-0.2-1v-0.9h-0.2c-0.2,0.7,0,1.5-0.2,2.4c0,0.4-0.2,0.5-0.2,0.7v0.9
		c-0.2,0-0.5,0-0.5-0.3c-0.2-0.2,0.2-0.5,0.2-0.7l-0.2-0.5c0-0.9,0.2-1.8,0.2-2.6v-0.5l-0.2-0.3h-0.2c0,0.6-0.2,1.2-0.2,1.8v0.4
		h-0.2c-0.2-0.5-0.2-1.1-0.2-1.7v-0.9c-0.2,0.3-0.2,0.4-0.2,0.6v2c-0.2,2.1-0.2,4.2-0.2,6.3v1.2c0,0.4-0.2,0.7-0.2,1.2v1.6
		c0,0.5-0.2,1.1,0,1.6l0.2,0.3l0,0c0.2-0.4,0.2-0.6,0.2-1c0-0.6,0.2-1.1,0.2-1.7c0-0.4-0.2-0.9,0-1.2l0.2-0.1l0.2,0.4
		c0.2,0.5,0,0.9,0,1.4v3l0.3,0.4c0-0.6,0.2-1.4,0.2-2V252l0.2-0.6c0-0.3-0.2-0.5-0.2-0.7c-0.2-0.4,0-0.9,0-1.2c0-0.3,0-0.5,0.2-0.6
		l0.2-0.2l0,0c0.2,0.1,0.3,0.2,0.3,0.4c0.2,0.5,0,1,0,1.5c0,0.1-0.2,0.4-0.2,0.5c0,0.4,0.2,0.9,0.2,1.2v2.7c0,0.5,0.2,1.1,0.2,1.6
		v0.4h0.2c0.2-0.4,0.2-0.7,0.2-1.1c0-0.4,0.2-0.9,0-1.4c0-0.3-0.2-0.6-0.2-0.9c0-0.4,0.2-0.6,0.2-0.9c0-0.5-0.2-0.9-0.2-1.4
		c0-0.5,0.2-1,0.2-1.5v-1.1l-0.2-0.5c0-0.3,0.2-0.4,0.2-0.6v-2.9C85.1,244.1,85.2,243.5,85.1,243 M83.5,248.7c0,0-0.3,0.4-0.3,0.1
		v-3c0-0.4,0-0.7,0.2-1l0.3,0.3c0.2,0.4,0,0.9,0,1.4C83.7,247.1,83.8,248.1,83.5,248.7 M83.7,243.3c-0.5,0-0.5-0.2-0.3-0.5
		C83.7,242.9,83.8,243.3,83.7,243.3 M84.3,247.7L84.3,247.7c-0.3-0.4-0.2-0.6-0.2-0.9c0-0.5-0.2-0.9,0.2-1.2l0.3,0.1
		C84.8,246.1,84.8,247.8,84.3,247.7"/>
	<path class="st1" d="M82.8,246.9l-0.1-0.6c0-1,0-1.9,0.1-2.9v-3.1l-0.1-0.6v-1.1c-0.1-0.1-0.4,0-0.6-0.1c-0.2,0-0.5-0.1-0.7-0.1
		c-0.2,0.1-0.6,0.1-1,0.1c-1.4,0.3-2.6,0.4-3.9,1c-0.4,0.1-0.6,0.4-0.9,0.6c-0.1,0.3-0.1,0.4-0.2,0.8c-0.1,0.6-0.1,1.4-0.1,2
		c0,0.4-0.1,0.8-0.1,1v1.5l-0.1,0.6l-0.1,1.5v5.2c0,0.4,0.1,0.6,0.1,1c0,1,0,2.2,0.4,2.9l0.1,0.1c0.4-0.1,0.7-0.5,1.1-0.8
		c0.4-0.3,0.7-0.4,1-0.5c0.4-0.3,0.6-0.4,1.1-0.4c0.1-0.1,0.6-0.1,0.9-0.1H80c0.4-0.3,1.4,0,1.7,0.1l0.6,0.1c0.1-0.6,0-1.3,0-1.8
		l0.1-1v-1.3l0.1-0.6v-1.4c0-0.3,0.1-0.5,0.1-0.9C82.9,248.1,82.9,247.6,82.8,246.9 M75.9,248.5c0.9-0.9,2.1-1.3,3.1-1.8
		c0.4-0.1,0.7-0.4,1.1-0.4c0.1-0.1,0.4-0.3,0.6-0.3l0,0c0.2,0,0.4,0.1,0.4,0.4c0,0.3-0.1,0.4-0.2,0.5c-0.4,0.3-0.7,0.3-1.1,0.4
		c-0.4,0.1-0.9,0.4-1.2,0.4c-0.2,0.1-0.6,0.1-0.9,0.3c-0.5,0.3-1,0.5-1.5,0.8c-0.2,0.1-0.4,0.3-0.6,0.3h-0.1
		C75.4,248.9,75.8,248.6,75.9,248.5 M81.2,251.5c-0.4,0.3-0.7,0.3-1,0.3l-1,0.3c-1.1,0.3-2,0.8-3,1.3c-0.1,0.1-0.4,0.4-0.5,0.1
		c-0.1-0.1,0.1-0.4,0.2-0.4c0.4-0.4,0.7-0.5,1.1-0.8c0.5-0.3,0.9-0.5,1.4-0.8c0.1-0.1,0.4-0.1,0.5-0.3c0.6-0.3,1.2-0.4,1.9-0.6
		c0.1,0,0.4,0,0.5,0.1C81.4,250.9,81.4,251.4,81.2,251.5 M81.1,242.2c-0.1,0.1-0.4,0.1-0.5,0.1c-0.4,0.1-0.9,0.3-1.2,0.4
		c-0.6,0.1-1.1,0.4-1.7,0.6l-1.1,0.6l-0.6,0.3l0,0c0.1-0.4,0.5-0.6,0.7-0.9c0.1-0.1,0.4-0.3,0.5-0.4c0.4-0.3,0.7-0.5,1.1-0.6
		c0.4-0.3,0.9-0.4,1.4-0.5l0.5-0.3c0.2-0.1,0.4-0.1,0.6-0.3h0.5C81.5,241.7,81.4,242.1,81.1,242.2"/>
	<path class="st1" d="M73.9,241.8c-0.1-0.5,0-1.1-0.2-1.5c-0.6-0.8-1.4-1.1-2.2-1.4c-0.2-0.1-0.5-0.1-0.6-0.3l-0.7-0.1
		c-0.4-0.1-0.9-0.1-1.2-0.3h-1.7c-0.2,0.1-0.5,0.1-0.6,0.3c-0.1,0.1-0.1,0.9-0.1,1.1c0,1-0.1,2-0.1,3v1.9l-0.1,1.5
		c0,0.4,0.1,0.8,0.1,1.1l-0.1,2.4c0,0.4-0.1,0.6-0.1,1v2c0,0.4-0.1,0.6-0.1,1c0,0.4,0.1,0.6,0.1,0.9c0,0.4-0.1,0.6-0.1,1h0.4
		l0.4-0.1l0.4-0.1h0.2c0.4-0.1,1.4,0,1.6,0.1c0.5,0.1,0.9,0.1,1.4,0.1c0.5,0.1,1.4,0.4,1.7,0.6c0.1,0.1,1.1,0.8,1.1,0.8l0,0
		c0.2-0.4,0.2-0.8,0.2-1.3c0.1-0.5,0.1-1.1,0.1-1.8c0-0.9,0.1-1.8,0.1-2.6v-1.1l0.1-3.1C73.9,245.2,74.1,243.4,73.9,241.8
		 M72.6,253.2c-0.6-0.4-1.4-0.6-2-0.8l-0.7-0.1l-1.1-0.3c-0.4,0-0.9,0-1.2-0.1l-0.1-0.1c-0.4-0.1-0.4-0.9,0.1-0.9l0,0
		c0.4,0,0.5,0.1,0.7,0.1c0.2,0,0.5,0,0.7,0.1l0.6,0.3c0.6,0.3,1.2,0.4,1.9,0.8c0.1,0.1,0.4,0.1,0.5,0.1c0.4,0.1,0.9,0.5,1.1,0.9
		c0.1,0.1,0.2,0.1,0.2,0.4C73.1,253.6,72.8,253.2,72.6,253.2 M73.4,249.1L73.4,249.1c-0.4,0.1-1.4-0.8-1.7-0.9
		c-0.4-0.3-0.7-0.4-1.1-0.5c-0.5-0.3-1-0.4-1.6-0.5l-0.6-0.1c-0.4,0-0.7,0-1-0.1c-0.2-0.3-0.1-0.8,0.2-0.8l0,0
		c1.6,0.1,3,0.9,4.3,1.6c0.4,0.3,1.2,0.8,1.5,1.1L73.4,249.1 M73.6,244.4l-0.2,0.1c-0.2,0-0.4-0.3-0.6-0.4c-0.2-0.1-0.4-0.3-0.6-0.4
		c-1.1-0.6-2.5-1-3.7-1.3c-0.4-0.1-0.9-0.1-1.1-0.3c-0.2-0.1-0.2-0.5,0-0.8c0.6,0,1,0.1,1.5,0.4l0.4,0.1c0.4,0.1,0.6,0.3,1,0.4
		c0.2,0.1,0.5,0.1,0.7,0.3l0.4,0.3c0.4,0.1,0.7,0.4,1.1,0.5C72.6,243.3,73.8,244,73.6,244.4"/>
	<path class="st2" d="M71.6,208.4c-0.5,0.1-1.1,0.1-1.8,0.3c-0.5,0.1-1,0.1-1.5,0.1c-1.1,0.3-2.4,0.5-3.5,0.6
		c-1.6,0.4-3.1,1-4.7,1.6c-2.9,1.1-5.5,2.5-8.1,4.2c-0.6,0.4-4.8,3.4-4.8,3.9l2,0.1c1.6,0.1,3.4,0,5,0l3,0.1c0.4-0.3,1-0.1,1.5-0.1
		c1.4,0,2.8,0.1,4,0.1c0.6-0.3,1.8,0,2.5,0h6.8l7.6,0.1c4.7,0,9.3-0.1,14-0.1c0.4-0.1,0.9,0,1.3,0c0.8,0,1.6,0.1,2.4,0.1h1.3
		c0.8,0,1.6,0.1,2.5,0.1h0.9c0.5,0-0.5-0.8-0.6-1c-0.6-0.6-1.3-1.1-1.9-1.6l-1.3-1c-0.9-0.6-1.8-1.1-2.5-1.8
		c-5.3-3.2-10.4-5.2-17-5.8L71.6,208.4"/>
	<path class="st2" d="M44.8,221.3l-2,2l-3.6,4.8c-2.5,4.3-4,8.8-5.1,13.8c-0.1,0.8-0.1,1.6-0.2,2.4c-0.4,4.2-0.5,8.8,0.1,12.8
		c0.1,0.6,0.4,1.4,0.5,2c0.2,1.1,0.4,2.2,0.7,3.2c0.4,0.9,0.6,1.6,1,2.5c0.4,1.3,1,2.4,1.6,3.6c1.4,2.8,3,5.3,4.9,7.9
		c0.2,0.4,1,1.4,1.5,1.4v-0.1c0.4-0.8,0.1-3,0.1-4.1V269c0-1.4-0.1-2.9,0-4.3c0.1-3.2,0-6.3,0.1-9.5c0-2.7,0.1-5.5,0.1-8.3
		c0-2.5-0.1-5.5,0.1-7.9v-3.3c0-1.1,0.1-2.2,0.1-3.3c-0.1-2.3-0.1-4.7-0.2-7C44.7,223.8,44.9,222.2,44.8,221.3"/>
	<path class="st2" d="M104.3,222.2c-0.1,1.6,0.1,4,0.1,5.6c-0.1,3.6-0.1,7.2-0.1,10.9v17.4c0,3.3-0.1,6.5,0,9.9v4
		c0,2.5,0.2,5-0.2,7.4c0,0.1-0.4,1.3-0.1,1.3c0.7,0,4.7-5.6,5.2-6.5c0.4-0.8,0.7-1.5,1.1-2.1l0.6-1.5c0.7-1.4,1.6-3,2.1-4.5
		c1-3.1,1.7-6.3,2.1-9.6c0.1-1.1,0.1-2.3,0.1-3.4v-1.9c-0.1-3.4-0.5-6.9-1.4-9.9c-0.9-3-2.2-5.8-3.6-8.5c-0.5-1-1.1-1.8-1.7-2.6
		C108,226.8,104.8,221.8,104.3,222.2"/>
	<path class="st2" d="M99,282.7c-2.2,1.8-6.9,1.9-10,2.3c-0.7,0.1-1.5,0.3-2.4,0.4c-3.7,0.3-8.6,0.5-10,4.4
		c-0.1,0.4-0.1,0.5-0.2,0.9c-0.1,0.4,1.7,0,2.5,0c0.2-0.1,0.6-0.1,0.9-0.1l0.5-0.1c0.5-0.3,1.1-0.3,1.7-0.3c0.4-0.3,0.9-0.3,1.4-0.3
		c0.5-0.3,1.7-0.5,2.4-0.5c1.1-0.4,2.1-0.8,3.2-1.1c3-1.3,6.2-2.5,8.8-4.5C97.9,283.6,98.4,283.5,99,282.7"/>
	<path class="st2" d="M51.4,283.5c0.6,0.7,1.6,1,2.5,1.6c0.5,0.4,1.1,0.7,1.6,1.1c1.9,0.8,3.3,1.6,5.2,2.2c2.1,0.6,4.2,1.3,6.3,1.7
		c0.8,0.1,5.9,1.1,6.1,0.6c0.4-0.7-1.4-2.5-2-3c-0.5-0.5-1.1-0.7-1.8-1.1c-0.6-0.4-1.3-0.5-1.9-0.6c-0.9-0.2-1.6-0.5-2.5-0.6
		c-0.8-0.1-1.8-0.1-2.5-0.2c-0.8-0.1-1.5-0.2-2.4-0.4c-1-0.1-2-0.1-3-0.2C55,284,53.3,283.6,51.4,283.5"/>
	<path class="st0" d="M173.2,219.4h-3.8v19.9c0,1.5,0.1,2.6,0.5,3.1c0.4,0.5,1.1,0.8,2.2,0.8v0.8h-9v-0.6c1.1,0,1.8-0.4,2.2-1
		c0.4-0.6,0.6-1.6,0.6-3.1v-19.7h-3.6c-1.7,0-3,0.3-3.8,0.9c-0.7,0.5-1.2,1.5-1.4,2.9h-0.7v-5.9h0.7c0.7,0.6,2,1,3.8,1h13.3
		c1.8,0,3.2-0.4,4-1h0.7v5.9h-0.5c-0.4-1.5-0.9-2.4-1.7-2.9C175.9,219.7,174.8,219.4,173.2,219.4"/>
	<path class="st0" d="M203.1,239.2v-7.6h-14.4v7.6c0,1.5,0.3,2.5,0.6,3.2c0.4,0.6,1.3,0.9,2.5,0.9v0.8h-9.5v-0.8
		c1.2,0,1.9-0.4,2.3-0.9c0.4-0.6,0.6-1.6,0.6-3.2V223c0-1.6-0.3-2.7-0.6-3.3c-0.4-0.6-1.2-0.9-2.3-0.9v-0.8h9.5v0.8
		c-1.2,0-1.9,0.4-2.5,1c-0.4,0.6-0.6,1.6-0.6,3.2v7.3h14.4V223c0-1.6-0.3-2.7-0.6-3.3c-0.4-0.5-1.2-0.9-2.3-0.9v-0.8h9.5v0.8
		c-1.2,0-1.9,0.4-2.3,0.9c-0.4,0.6-0.6,1.6-0.6,3.3v16.1c0,1.5,0.3,2.6,0.6,3.1c0.4,0.6,1.2,0.9,2.3,0.9v0.8h-9.5v-0.8
		c1.2,0,1.9-0.4,2.3-0.9C202.8,241.8,203.1,240.7,203.1,239.2"/>
	<path class="st0" d="M229.5,227.8h0.8v6.3h-0.8c-0.3-1.1-0.6-1.8-1-2c-0.4-0.3-1.3-0.4-2.6-0.4h-6.5v9.3c0,0.6,0.1,1.1,0.4,1.4
		c0.3,0.3,0.8,0.4,1.5,0.4h4.6c1.7,0,2.8-0.1,3.5-0.3c0.6-0.1,1.1-0.5,1.5-1c0.4-0.5,0.9-1.3,1.4-2.4h0.8l-1.3,4.9h-18.9v-0.8
		c1.1,0,1.9-0.4,2.4-0.9c0.4-0.6,0.6-1.6,0.6-3.1v-16.1c0-1.6-0.3-2.6-0.6-3.3c-0.4-0.6-1.1-0.9-2.3-0.9v-0.9h18.9v4.3h-0.5
		c-0.3-1.3-0.6-2-1.1-2.4c-0.5-0.4-1.5-0.6-3.2-0.6h-7.5v11h7.3c1,0,1.7-0.3,2-0.5C229,229.4,229.2,228.8,229.5,227.8"/>
	<path class="st0" d="M266.2,238.7v-15.7c0-1.5-0.3-2.5-0.6-3.2c-0.4-0.6-1.1-0.9-2.1-1v-0.6h9.1v0.8c-1.1,0-1.9,0.4-2.2,0.9
		c-0.4,0.6-0.6,1.6-0.6,3.3v16.2c0,1.5,0.2,2.5,0.6,3.2c0.4,0.6,1.1,0.9,2.2,0.9v0.8h-6.4v-3.7c-2.4,2.9-5.3,4.3-8.5,4.3
		c-2.8,0-4.9-0.8-6.4-2.4c-1.5-1.6-2.4-3.8-2.4-6.6v-12.8c0-1.5-0.2-2.7-0.6-3.3c-0.4-0.6-1.1-0.9-2.4-0.9v-0.6h9.3v0.8
		c-1.1,0-2,0.3-2.4,0.9c-0.4,0.6-0.6,1.6-0.6,3.2v13.2c0,2.2,0.6,3.8,1.7,5.1c1.1,1.3,2.8,1.8,4.8,1.8
		C262,243,264.5,241.6,266.2,238.7"/>
	<path class="st0" d="M295.5,219v-0.8h7.8v0.8c-1.3,0-2.1,0.3-2.5,0.9c-0.5,0.6-0.8,1.6-0.8,3.1v21h-0.8l-18.4-22.5v18.1
		c0,1.3,0.3,2.3,0.8,2.8c0.5,0.5,1.4,0.9,2.6,0.9v0.8h-7.8v-0.8c1.3,0,2.1-0.4,2.5-1c0.4-0.6,0.6-1.8,0.6-3.5v-15.1
		c0-1.6-0.4-2.8-0.9-3.5c-0.5-0.8-1.6-1.1-2.9-1.3v-0.8h6.7l16.2,20.1v-15.1c0-1.6-0.3-2.6-0.6-3.4C297.5,219.2,296.7,219,295.5,219
		"/>
	<path class="st0" d="M316.2,218.1v0.8c-1.1,0-1.8,0.4-2.1,0.9c-0.4,0.6-0.6,1.6-0.6,3.3v16.1c0,1.5,0.2,2.6,0.6,3.3
		c0.4,0.6,1.1,0.9,2.1,0.9v0.8h-8.8v-0.8c1.1,0,1.8-0.4,2.1-0.9c0.4-0.6,0.6-1.6,0.6-3.3V223c0-1.6-0.2-2.6-0.6-3.3
		c-0.4-0.6-1.1-0.9-2.3-0.9v-0.8H316.2L316.2,218.1z"/>
	<path class="st0" d="M345.3,218.1v0.8c-1.9,0-3.6,1.7-4.7,5.1l-7.8,20.7H332l-8.2-21.4c-0.8-1.9-1.4-3.2-1.9-3.7
		c-0.5-0.5-1.4-0.8-2.4-0.8v-0.8h9.6v0.8c-1.5,0-2.3,0.6-2.3,1.8c0,0.4,0.1,0.8,0.3,1.3l6.4,16.9l6.1-16.4c0.3-0.6,0.4-1.3,0.4-1.8
		c0-1.3-0.8-1.9-2.3-1.9v-0.6H345.3z"/>
	<path class="st0" d="M364.2,227.8h0.8v6.3h-0.8c-0.3-1.1-0.6-1.8-1-2c-0.4-0.3-1.3-0.4-2.6-0.4h-6.5v9.3c0,0.6,0.1,1.1,0.4,1.4
		c0.3,0.3,0.8,0.4,1.5,0.4h4.6c1.7,0,2.8-0.1,3.5-0.3s1.1-0.5,1.7-1c0.4-0.5,0.9-1.3,1.4-2.4h0.8l-1.3,4.9h-18.9v-0.8
		c1.1,0,1.9-0.4,2.4-0.9c0.4-0.6,0.6-1.6,0.6-3.1v-16.1c0-1.6-0.3-2.6-0.6-3.3c-0.4-0.6-1.1-0.9-2.3-0.9v-0.9h18.9v4.3h-0.5
		c-0.3-1.3-0.6-2-1.1-2.4c-0.5-0.4-1.5-0.6-3.2-0.6h-7.5v11h7.3c1,0,1.7-0.3,2-0.5C363.8,229.4,364.1,228.8,364.2,227.8"/>
	<path class="st0" d="M379.5,232h-2.1v7.1c0,1.5,0.2,2.7,0.6,3.3c0.4,0.6,1.1,0.9,2.2,0.9v0.8h-9.1v-0.8c1.1,0,1.8-0.4,2.4-0.9
		c0.4-0.6,0.6-1.6,0.6-3.2v-16.3c0-1.5-0.2-2.5-0.6-3.1c-0.4-0.6-1.1-0.9-2.4-0.9v-0.8h10.5c2.6,0,4.6,0.6,6.2,1.9
		c1.6,1.3,2.4,2.9,2.4,4.9c0,3.2-1.7,5.3-5.3,6.3c0.7,0.5,1.5,1.1,2.2,2c0.7,0.9,1.7,2.4,2.8,4.4c1.4,2.3,2.4,3.8,3.1,4.4
		c0.7,0.8,1.5,1.1,2.4,1.1v0.8h-5.2c-1.1-1.3-2.4-3.3-4-5.8c-1.6-2.6-2.8-4.4-3.8-5C381.6,232.5,380.5,232,379.5,232 M380,219.1
		h-2.6V231h3.1c1.8,0,3.3-0.5,4.3-1.6c1.1-1.1,1.6-2.5,1.6-4.3c0-1.8-0.6-3.2-1.7-4.3C383.6,219.6,382,219.1,380,219.1"/>
	<path class="st0" d="M410.9,218.2h0.8v5.9h-0.8c-0.1-1.6-0.8-3-1.8-3.8c-1-1-2.4-1.4-4-1.4c-1.4,0-2.6,0.4-3.5,1
		c-0.8,0.7-1.3,1.6-1.3,2.9c0,1.1,0.4,2.1,1,3c0.8,0.9,2.3,2,4.6,3.5c2.8,1.6,4.6,3,5.6,4.2c1,1.2,1.4,2.6,1.4,4.1
		c0,2-0.8,3.7-2.2,5.1c-1.5,1.5-3.2,2.1-5.2,2.1c-1.1,0-2.7-0.4-4.6-1c-0.8-0.3-1.3-0.4-1.5-0.4c-0.4,0-0.8,0.4-1,1h-0.8v-6.9h0.8
		c0,1.8,0.6,3.5,1.9,4.6c1.3,1.1,2.7,1.7,4.5,1.7c1.7,0,2.9-0.4,3.8-1.2c1-0.7,1.5-1.8,1.5-3.3c0-1-0.4-2-1.3-3
		c-0.8-1-2.4-2.1-5-3.6c-2-1.2-3.5-2.2-4.1-2.9c-0.6-0.7-1.1-1.5-1.5-2.4c-0.4-0.7-0.5-1.7-0.5-2.7c0-2,0.6-3.6,2-4.7
		c1.3-1.2,3.1-1.9,5.1-1.9c1.1,0,2.4,0.3,3.8,0.6c0.6,0.2,1.1,0.4,1.4,0.4s0.4,0,0.4-0.1C410.7,218.7,410.8,218.6,410.9,218.2"/>
	<path class="st0" d="M426.8,218.1v0.8c-1.2,0-1.9,0.4-2.3,0.9c-0.4,0.6-0.6,1.6-0.6,3.3v16.1c0,1.5,0.3,2.6,0.6,3.3
		c0.4,0.6,1.2,0.9,2.3,0.9v0.8h-9.6v-0.8c1.2,0,1.9-0.4,2.3-0.9c0.4-0.6,0.6-1.6,0.6-3.3V223c0-1.6-0.3-2.6-0.6-3.3
		c-0.4-0.6-1.2-0.9-2.5-0.9v-0.8H426.8L426.8,218.1z"/>
	<path class="st0" d="M446.9,219.4h-3.8v19.9c0,1.5,0.1,2.6,0.5,3.1c0.4,0.5,1.1,0.8,2.2,0.8v0.8h-9v-0.6c1.1,0,1.8-0.4,2.2-1
		c0.4-0.6,0.6-1.6,0.6-3.1v-19.7h-3.7c-1.7,0-3,0.3-3.8,0.9c-0.7,0.5-1.2,1.5-1.3,2.9h-0.7v-5.9h0.7c0.6,0.6,2,1,3.8,1h13.3
		c2,0,3.3-0.4,4.1-1h0.7v5.9h-0.5c-0.4-1.5-0.9-2.4-1.7-2.9C449.7,219.7,448.5,219.4,446.9,219.4"/>
	<path class="st0" d="M475,221.7l-6,9.2v8.1c0,1.6,0.3,2.6,0.6,3.3c0.4,0.6,1.2,0.9,2.3,0.9v0.8h-9.7v-0.8c1.3,0,2.2-0.4,2.6-1
		c0.4-0.6,0.6-1.6,0.6-3.1v-8.1l-5.7-8.5c-0.9-1.5-1.7-2.4-2.3-2.8c-0.6-0.4-1.4-0.6-2.5-0.8v-0.8h10.5v0.8c-1.8,0-2.7,0.4-2.7,1.3
		c0,0.4,0.1,0.8,0.5,1.4l5.3,7.8l4.3-6.4c0.6-1,0.9-1.8,0.9-2.5c0-1-0.5-1.5-1.8-1.5v-0.8h7.3v0.8c-1,0.1-1.7,0.3-2.3,0.6
		C476.5,219.9,475.8,220.6,475,221.7"/>
	<path class="st0" d="M165.6,264.1c1.2,0,2.2,0.5,3.1,1.6c0.9,1,1.4,2.3,1.4,3.6c0,2.5-0.9,4.9-2.7,7.4c-1.7,2.5-4,3.6-6.4,3.6
		c-1.4,0-2.5-0.5-3.4-1.6c-0.9-1-1.2-2.3-1.2-3.9c0-2.7,1-5.3,2.9-7.5C161.2,265.2,163.3,264.1,165.6,264.1 M162,279
		c1.5,0,2.7-0.9,3.9-2.7c1-1.8,1.6-4.1,1.6-6.6c0-1.2-0.2-2.2-0.9-3c-0.6-0.8-1.4-1.2-2.1-1.2c-1.4,0-2.6,0.9-3.7,2.7
		c-1.1,1.8-1.6,4-1.6,6.6c0,1.3,0.2,2.3,0.9,3.1C160.3,278.6,161.1,279,162,279"/>
	<path class="st0" d="M181.3,264.3l-0.1,1.3H178l-2.6,13.2c-0.6,3.5-1.4,6.2-2.2,7.7c-0.8,1.6-1.9,2.9-3.5,3.8
		c-1.4,0.9-3.1,1.4-4.8,1.4c-2.3,0-4.1-0.4-5.4-1.3l0.6-3.1h0.8c0.5,2.3,1.8,3.5,4,3.5c1.7,0,3.1-0.6,4.4-1.8c1.3-1.1,2.3-3.9,3.1-8
		l3-15.2h-3.4l0.1-1.3h3.2l1.2-5.5c0.6-2.9,1.5-4.9,3-6c1.4-1.1,3-1.6,4.9-1.6c0.9,0,1.9,0.3,3.1,0.6l0.1-0.5h0.9l-0.9,4h-0.9
		c-0.1-2.1-1.2-3.3-3-3.3c-2.2,0-3.7,1.9-4.5,5.5l-1.5,6.8L181.3,264.3L181.3,264.3L181.3,264.3z"/>
	<path class="st0" d="M212.4,263.5h0.8v6.3h-0.8c-0.3-1.1-0.6-1.8-1-2.1c-0.4-0.3-1.3-0.4-2.6-0.4h-6.6v9.3c0,0.6,0.1,1.1,0.4,1.4
		c0.3,0.3,0.8,0.4,1.5,0.4h4.6c1.7,0,2.8-0.1,3.5-0.3c0.6-0.1,1.2-0.5,1.7-1c0.5-0.5,0.9-1.3,1.4-2.4h0.8l-1.2,4.8h-19v-0.8
		c1.2,0,1.9-0.4,2.4-0.9c0.4-0.6,0.6-1.6,0.6-3.2v-16.3c0-1.6-0.3-2.6-0.6-3.3c-0.4-0.6-1.2-0.9-2.3-0.9v-0.6h19v4.3h-0.5
		c-0.3-1.3-0.6-2-1.2-2.4c-0.5-0.4-1.5-0.6-3.2-0.6h-7.6V266h7.3c1,0,1.7-0.1,2.1-0.5C211.9,265.1,212.1,264.5,212.4,263.5"/>
	<path class="st0" d="M219.3,279.5v-0.6c1,0,1.9-0.4,2.3-0.9c0.4-0.6,0.6-1.6,0.6-3.1v-16.1c0-1.5-0.3-2.6-0.6-3.3
		c-0.4-0.6-1.1-0.9-2.3-0.9v-0.9h11.9c4.4,0,7.9,1.3,10.7,3.8c2.6,2.5,4,5.7,4,9.6c0,3.9-1.3,6.8-3.8,9.1c-2.5,2.3-6,3.4-10.4,3.4
		H219.3z M230.5,254.7h-4.9v19.2c0,1.9,0.3,3,0.6,3.8c0.4,0.6,1.4,1,2.6,1h2.6c3.1,0,5.7-1,7.5-3c1.9-2,2.8-4.9,2.8-8.4
		c0-3.8-1-6.8-3-9.1C236.8,255.8,234,254.6,230.5,254.7"/>
	<path class="st0" d="M258.1,253.6v0.8c-1.1,0-1.8,0.4-2.1,0.9c-0.4,0.6-0.6,1.6-0.6,3.3v16.1c0,1.5,0.2,2.6,0.6,3.1
		c0.4,0.6,1.1,0.9,2.1,0.9v0.8h-8.8v-0.6c1.1,0,1.8-0.4,2.1-0.9c0.4-0.6,0.6-1.6,0.6-3.3v-16.1c0-1.6-0.2-2.6-0.6-3.3
		c-0.4-0.6-1.1-0.9-2.3-0.9v-0.8H258.1L258.1,253.6z"/>
	<path class="st0" d="M281.7,254.4v-0.8h7.8v0.8c-1.3,0-2.1,0.3-2.5,0.9c-0.5,0.6-0.8,1.6-0.8,3.3v20.9h-0.8L267.2,257v18.1
		c0,1.3,0.3,2.3,0.8,2.8c0.5,0.5,1.4,0.9,2.7,0.9v0.8h-7.8v-0.8c1.3,0,2.1-0.4,2.5-1c0.4-0.6,0.6-1.8,0.6-3.5v-15.1
		c0-1.6-0.4-2.8-0.9-3.5c-0.6-0.8-1.6-1.1-2.9-1.3v-0.8h6.7l16.3,20.1v-15.1c0-1.6-0.3-2.6-0.6-3.4
		C283.7,254.6,283,254.4,281.7,254.4"/>
	<path class="st0" d="M304,279.5h-11.8v-0.8c1.1,0,1.9-0.4,2.2-0.9c0.4-0.6,0.6-1.6,0.6-3.1v-16.1c0-1.6-0.2-2.6-0.6-3.3
		c-0.4-0.6-1.1-0.9-2.4-0.9v-0.8h9.7c2.7,0,5,0.5,6.6,1.8c1.6,1.1,2.4,2.7,2.4,4.5c0,2.8-1.7,4.7-5.1,5.8v0.1c2,0.4,3.5,1.3,4.7,2.6
		c1.2,1.4,1.9,2.9,1.9,4.7c0,1.9-0.7,3.4-2.2,4.7C308.4,279,306.3,279.5,304,279.5 M298.5,254.6v11h2.6c1.9,0,3.4-0.5,4.5-1.5
		c1.1-1,1.6-2.3,1.6-4c0-1.8-0.5-3.2-1.6-4c-1.1-1-2.6-1.5-4.6-1.5L298.5,254.6L298.5,254.6z M300.8,266.5h-2.5v7.7
		c0,1.6,0.1,2.9,0.5,3.4c0.4,0.6,1.1,0.9,2.1,0.9h2.1c1.5,0,2.7-0.5,3.6-1.5c1-1,1.5-2.4,1.5-4c0-1.9-0.6-3.5-2-4.7
		C304.8,267.1,303.1,266.6,300.8,266.5"/>
	<path class="st0" d="M335.6,274.1v-15.7c0-1.5-0.3-2.5-0.6-3.2c-0.4-0.6-1.2-0.9-2.2-1v-0.6h9.2v0.8c-1.2,0-1.9,0.4-2.3,0.9
		c-0.4,0.6-0.6,1.6-0.6,3.3v16.3c0,1.5,0.3,2.5,0.6,3.2c0.4,0.6,1.2,0.9,2.3,0.9v0.8h-6.5V276c-2.4,2.8-5.4,4.3-8.9,4.3
		c-2.8,0-5-0.8-6.5-2.4c-1.5-1.6-2.4-3.8-2.4-6.4v-12.8c0-1.5-0.3-2.6-0.6-3.3c-0.4-0.6-1.3-0.9-2.4-0.9v-0.9h9.5v0.8
		c-1.2,0-2,0.3-2.4,0.9c-0.4,0.6-0.6,1.6-0.6,3.2v13.1c0,2.1,0.6,3.8,1.8,5c1.2,1.3,2.8,1.8,5,1.8
		C331.1,278.5,333.7,277,335.6,274.1"/>
	<path class="st0" d="M354,267.5h-2.2v7.1c0,1.5,0.3,2.7,0.6,3.3c0.4,0.6,1.1,0.9,2.3,0.9v0.8h-9.4v-0.8c1.1,0,1.9-0.4,2.4-0.9
		c0.4-0.6,0.6-1.6,0.6-3.2v-16.3c0-1.5-0.1-2.5-0.6-3.1c-0.4-0.6-1.1-0.9-2.4-0.9v-0.8h10.8c2.7,0,4.7,0.6,6.4,1.9
		c1.7,1.3,2.4,2.9,2.4,4.8c0,3.1-1.8,5.3-5.5,6.3c0.8,0.5,1.5,1.1,2.3,2c0.8,0.9,1.8,2.4,2.9,4.4c1.4,2.3,2.4,3.8,3.2,4.4
		c0.8,0.8,1.5,1.1,2.4,1.1v0.8h-5.4c-1.1-1.3-2.4-3.3-4.1-5.8c-1.7-2.7-2.9-4.4-4-5C356.1,267.9,355.1,267.5,354,267.5 M354.6,254.6
		h-2.7v11.8h3.2c1.9,0,3.5-0.5,4.5-1.6c1.1-1.1,1.7-2.5,1.7-4.3c0-1.8-0.6-3.2-1.8-4.3C358.2,255.1,356.6,254.6,354.6,254.6"/>
	<path class="st0" d="M396.1,268.5v0.8c-1.1,0-2,0.3-2.4,0.8c-0.5,0.5-0.8,1.5-0.8,2.7v7c-0.6,0.1-1.8,0.4-3.4,0.4
		c-1.7,0.1-2.9,0.3-3.8,0.3c-4.8,0-8.5-1.1-11.3-3.6c-2.7-2.4-4.1-5.6-4.1-9.4c0-2.7,0.6-5.2,1.8-7.4c1.1-2.2,2.8-3.9,5-5.2
		c2.2-1.3,4.3-1.9,6.7-1.9c1.4,0,2.9,0.3,4.7,0.8c1,0.4,1.9,0.5,2.4,0.5c0.8,0,1.3-0.3,1.5-0.9h0.8v7.8h-0.8
		c-0.3-2.2-1.3-3.8-2.9-5.1c-1.7-1.3-3.6-1.9-5.7-1.9c-2.8,0-5.1,1.1-6.7,3.3c-1.8,2.2-2.7,5.1-2.7,8.5c0,3.8,1,7,3.1,9.5
		c2,2.6,4.6,3.8,7.8,3.8c2.9,0,4.5-1,4.5-2.8v-2.8c0-1.6-0.3-2.7-0.6-3.4c-0.4-0.6-1.1-1-2.2-1h-1v-0.8L396.1,268.5L396.1,268.5
		L396.1,268.5z"/>
	<path class="st0" d="M418.6,274.7v-7.6h-14.4v7.6c0,1.5,0.3,2.5,0.6,3.2c0.4,0.6,1.3,0.9,2.5,0.9v0.8h-9.5v-0.6
		c1.2,0,1.9-0.4,2.3-0.9c0.4-0.6,0.6-1.6,0.6-3.1v-16.1c0-1.6-0.3-2.6-0.6-3.3c-0.4-0.6-1.2-0.9-2.3-0.9v-0.9h9.5v0.8
		c-1.2,0-1.9,0.4-2.5,1c-0.4,0.6-0.6,1.6-0.6,3.2v7.3h14.4v-7.3c0-1.6-0.3-2.7-0.6-3.3c-0.4-0.6-1.2-0.9-2.3-0.9v-0.8h9.5v0.8
		c-1.2,0-1.9,0.4-2.3,0.9c-0.4,0.6-0.6,1.6-0.6,3.3v16.1c0,1.5,0.3,2.6,0.6,3.1c0.4,0.5,1.2,0.9,2.3,0.9v0.8h-9.5v-0.6
		c1.2,0,1.9-0.4,2.3-0.9C418.5,277.3,418.6,276.2,418.6,274.7"/>
</g>
</svg>
