<?xml version="1.0" encoding="utf-8"?>
<!-- Generator: Adobe Illustrator 28.0.0, SVG Export Plug-In . SVG Version: 6.00 Build 0)  -->
<svg version="1.1" id="Layer_1" xmlns="http://www.w3.org/2000/svg" xmlns:xlink="http://www.w3.org/1999/xlink" x="0px" y="0px"
	 viewBox="0 0 500 500" style="enable-background:new 0 0 500 500;" xml:space="preserve">
<style type="text/css">
	.st0{fill-rule:evenodd;clip-rule:evenodd;fill:#231F20;}
	.st1{fill-rule:evenodd;clip-rule:evenodd;fill:#0E5AA9;}
</style>
<g>
	<path class="st0" d="M107.6,279.4v6.9H96.8v37.6h-6.9v-37.6H79.1v-6.9H107.6z"/>
	<path class="st0" d="M87.6,78v14.1h18.3V99H87.6v16.6h-6.7V71.1h24.9V78H87.6z"/>
	<path class="st0" d="M214.4,279.4v44.5h-6.8V305h-18.4v18.8h-6.8v-44.5h6.8v18.8h18.4v-18.8H214.4z"/>
	<path class="st0" d="M426.2,279.4v44.5h-6.7v-27.1l-11.2,27.1H403l-11-26v26h-6.7v-44.5h6.7l13.9,31.7l13.7-31.7H426.2z"/>
	<path class="st0" d="M301.8,387.7c9,0,16.2,7.4,16.2,16.4v1.5c0,9.1-7.3,16.4-16.2,16.4h-0.3c-9,0-16.2-7.4-16.2-16.4v-1.5
		c0-9.1,7.3-16.4,16.2-16.4H301.8 M301.8,380.8h-0.3c-12.7,0-23,10.4-23,23.3v1.5c0,12.9,10.3,23.3,23,23.3h0.3
		c12.7,0,23-10.4,23-23.3v-1.5C324.8,391.2,314.5,380.8,301.8,380.8L301.8,380.8z"/>
	<path class="st0" d="M194.9,176.1h5.4l14,44.5h-6.6l-1.8-5.9h-16.3l-2.2,5.9h-7L194.9,176.1L194.9,176.1z M197.5,189.5l-5.9,18.8
		h11.7L197.5,189.5z"/>
	<path class="st1" d="M347.4,245v102.9h-92.5V142H152.6v-103H40v113.1h102.4V245H40v113h204.9v103h112.6V358H460V245H347.4z M50,142
		V49.2h92.5V142L50,142L50,142z M142.5,347.9H50v-92.8h92.5V347.9z M244.9,347.9h-92.5v-92.8h92.5V347.9z M244.9,245h-92.5v-92.8
		h92.5V245z M347.4,450.8h-92.5V358h92.5V450.8z M450,347.9h-92.5v-92.8H450V347.9z"/>
</g>
</svg>
