<?xml version="1.0" encoding="utf-8"?>
<!-- Generator: Adobe Illustrator 28.0.0, SVG Export Plug-In . SVG Version: 6.00 Build 0)  -->
<svg version="1.1" id="Layer_1" xmlns="http://www.w3.org/2000/svg" xmlns:xlink="http://www.w3.org/1999/xlink" x="0px" y="0px"
	 viewBox="0 0 500 500" style="enable-background:new 0 0 500 500;" xml:space="preserve">
<style type="text/css">
	.st0{fill-rule:evenodd;clip-rule:evenodd;fill:#231F20;}
	.st1{fill-rule:evenodd;clip-rule:evenodd;fill:#909395;}
	.st2{fill-rule:evenodd;clip-rule:evenodd;fill:#F26E62;}
</style>
<g>
	<path class="st0" d="M61,209.9l-1.2,11.9c-1.7-0.8-3.6-1.3-5.5-1.3c-2.8,0-4.7,0.9-5.6,2.7c-0.9,1.8-1.4,5.7-1.6,11.7h12.7v10.9
		H47.1v44.5H32.4v-44.5H21.6V235h10.9c0.1-7.1,0.8-12.3,2-15.7c1.2-3.3,3.2-5.9,6-7.7c2.8-1.8,6.7-2.7,11.6-2.7
		C55.3,208.8,58.3,209.2,61,209.9L61,209.9z"/>
	<path class="st0" d="M64.6,235.2h13.5l0.3,14c1-4.5,3-8,6-10.6c3-2.6,6.4-3.9,10.3-3.9c1.4,0,2.7,0.1,4,0.4v13.5
		c-1.1-0.6-2.6-0.9-4.5-0.9c-2.7,0-4.9,0.5-6.7,1.5c-1.8,1-3.3,2.4-4.4,4c-1.1,1.7-2,3.6-2.4,5.7c-0.5,2.1-0.7,5-0.7,8.7v22.7H65.1
		v-38.4l-0.4-15.2L64.6,235.2L64.6,235.2z"/>
	<path class="st0" d="M157.7,263.3c0,3.4-0.6,6.8-1.7,10.3c-1.1,3.5-2.8,6.5-5.1,9.2c-2.3,2.6-5.3,4.9-8.9,6.6
		c-3.7,1.8-8,2.7-12.9,2.7c-8.4,0-15.3-2.7-20.7-8.2c-5.4-5.5-8-12.5-8-21.2c0-8.7,2.7-16,8-21.5c5.4-5.5,12.3-8.3,20.7-8.3
		c8.5,0,15.3,2.8,20.6,8.3C155.1,246.8,157.7,254.1,157.7,263.3L157.7,263.3z M115.5,262.4c0,6.1,1.3,10.7,3.9,13.9
		c2.6,3.1,5.8,4.7,9.6,4.7c4.4,0,7.8-1.7,10.2-5.1c2.4-3.4,3.7-7.8,3.7-13.1c0-4.8-1.2-9.2-3.5-13c-2.3-3.9-5.7-5.8-10.1-5.8
		c-2,0-3.8,0.4-5.3,1.2c-1.6,0.8-2.9,2-4.1,3.5c-1.2,1.5-2.1,3.2-2.8,5.1C116,256.5,115.5,259.4,115.5,262.4L115.5,262.4z"/>
	<path class="st0" d="M179.6,234.8l0.4,8.5c4-6.2,10-9.4,18.1-9.4c3,0,5.8,0.4,8.2,1.3c2.4,0.9,4.4,2.1,6,3.6c1.6,1.5,2.7,3.2,3.5,5
		c0.8,1.8,1.3,4.4,1.7,7.7c0.1,1.6,0.2,5.8,0.3,12.5v26.2h-14.5v-27.8c0-6-0.5-10.1-1.6-12.2c-1.6-3.2-4.3-4.7-8.1-4.7
		c-2.4,0-4.6,0.7-6.7,2c-2.1,1.3-3.6,3.2-4.6,5.7c-1,2.5-1.4,6.1-1.4,10.8v26.3h-14.6v-44.6c0-3.8-0.2-7.5-0.5-11L179.6,234.8
		L179.6,234.8z"/>
	<path class="st0" d="M232.8,245.6h-10.6v-10.8H233v-11.5l13.8-4.6v16.1h13v10.8h-13v20.5c0,4.9,0.4,8.1,1.3,9.5
		c1.4,2.3,3.8,3.5,7.2,3.5c1.7,0,3.4-0.3,5.2-0.9l0.4,11.6c-2.8,0.9-6.1,1.4-9.8,1.4c-2.7,0-5-0.3-7-0.9c-2-0.6-3.7-1.5-5.1-2.6
		c-1.4-1.1-2.5-2.4-3.4-3.8c-0.8-1.4-1.5-3.4-2.1-6.1c-0.4-1.9-0.6-4.8-0.6-8.7L232.8,245.6L232.8,245.6z"/>
	<path class="st0" d="M283.1,224.3h-14.3v-13.7h14.3V224.3z M268.8,290.3v-55.9h14.3v55.9H268.8z"/>
	<path class="st0" d="M343.9,267.3h-37.8c0.1,2.5,0.9,4.9,2.3,7.1c1.4,2.2,3.3,3.9,5.5,5c2.3,1.1,5,1.6,8.3,1.6c3,0,5.9-0.4,8.8-1.2
		c2.9-0.8,6-2.2,9.2-4l0.2,12c-1.3,0.9-3.8,1.9-7.6,2.9c-3.8,1-7.7,1.5-11.7,1.5c-5.9,0-11.1-1.1-15.5-3.3
		c-4.4-2.2-7.8-5.6-10.1-10.2c-2.3-4.6-3.5-9.9-3.5-15.9c0-6,1.1-11.2,3.4-15.8c2.2-4.6,5.5-8,9.8-10.3c4.3-2.3,9-3.5,14.1-3.5
		c5.5,0,10.2,1.4,14.1,4.1c3.9,2.7,6.7,6.5,8.2,11.2c1.6,4.7,2.4,10,2.4,16C344.1,265,344,265.9,343.9,267.3L343.9,267.3z
		 M306,257.2h24.4c-0.2-4.6-1.4-8.1-3.5-10.4c-2.2-2.3-5-3.4-8.6-3.4c-3.3,0-5.9,1-7.8,3C307.9,249.1,306.4,252.7,306,257.2z"/>
	<path class="st0" d="M351.2,235.2h13.1l0.3,14c0.9-4.5,2.9-8,5.8-10.6c2.9-2.6,6.3-3.9,10-3.9c1.4,0,2.7,0.1,3.9,0.4v13.5
		c-1.1-0.6-2.6-0.9-4.4-0.9c-2.6,0-4.8,0.5-6.5,1.5s-3.2,2.4-4.3,4c-1.1,1.7-1.9,3.6-2.4,5.7c-0.5,2.1-0.7,5-0.7,8.7v22.7h-14.4
		v-38.4l-0.4-15.2L351.2,235.2L351.2,235.2z"/>
	<path class="st1" d="M196.4,330c-2.4,1.1-4.5,1.6-7,1.6c-6.8,0-11.1-4.4-11.1-11.4c0-7,4.1-11,10.3-11c6.2,0,9.5,4.2,9.5,11.5
		c0,0.1,0,0.4,0,0.7h-15.6c0.5,4.2,3.3,6.8,7.3,6.8c2.3,0,4.5-0.7,6.7-2L196.4,330L196.4,330z M194,318.3c-0.3-1.9-0.5-2.7-1.1-3.7
		c-1-1.5-2.6-2.4-4.4-2.4c-3.2,0-5.5,2.4-6,6H194z"/>
	<path class="st1" d="M216.9,330.4c-1.6,0.8-3.4,1.1-5.6,1.1c-6.9,0-11.5-4.5-11.5-11.2c0-3,0.9-5.6,2.8-7.7
		c2.1-2.2,5.3-3.6,8.5-3.6c1.8,0,3.6,0.3,5.1,0.9l-0.3,3.6c-1.2-0.7-2.5-1-4.1-1c-4.5,0-7.6,3.2-7.6,7.6c0,4.7,3.1,7.9,7.5,7.9
		c1.8,0,3-0.4,4.7-1.4L216.9,330.4L216.9,330.4z"/>
	<path class="st1" d="M228.9,309.1c6.7,0,11.3,4.6,11.3,11.4c0,6.4-4.7,11-11.3,11c-6.5,0-11.1-4.7-11.1-11.1
		C217.8,314,222.4,309.1,228.9,309.1z M229,328.4c4,0,6.9-3.4,6.9-7.9c0-4.9-2.9-8.3-6.9-8.3c-4,0-6.9,3.4-6.9,8.1
		C222,325,224.9,328.4,229,328.4z"/>
	<path class="st1" d="M244,320.2c0-4.5-0.1-8-0.3-10.7h3.6l0.2,3.3c1.6-2.4,4.1-3.7,7.2-3.7c3.6,0,6.3,1.9,7.2,5.1
		c0.4,1.3,0.6,3.1,0.6,6.5v9.8h-3.9v-9.5c0-3.3,0-4.1-0.3-5.2c-0.6-2.2-2.2-3.4-4.4-3.4c-2.6,0-4.7,1.7-5.5,4.4
		c-0.4,1.3-0.5,2.2-0.5,6.1v7.7H244V320.2L244,320.2z"/>
	<path class="st1" d="M277.3,309.1c6.7,0,11.3,4.6,11.3,11.4c0,6.4-4.7,11-11.3,11c-6.5,0-11.1-4.7-11.1-11.1
		C266.1,314,270.8,309.1,277.3,309.1z M277.3,328.4c4,0,6.9-3.4,6.9-7.9c0-4.9-2.9-8.3-6.9-8.3c-4,0-6.9,3.4-6.9,8.1
		C270.4,325,273.3,328.4,277.3,328.4z"/>
	<path class="st1" d="M292.4,318.7c0-3.3-0.1-5.7-0.3-9.2h3.7l0.2,3.4c1.1-2.4,3.7-3.8,6.8-3.8c3.1,0,5.4,1.5,6.3,4.2
		c1.4-2.8,3.9-4.2,7.1-4.2c3.2,0,5.7,1.6,6.6,4.6c0.4,1.3,0.6,2.9,0.6,5.8v11.1h-4v-10.4c0-2.8-0.1-4-0.4-4.9
		c-0.5-1.9-1.8-2.9-3.7-2.9c-2.3,0-4.4,1.8-5.1,4.4c-0.4,1.2-0.4,1.9-0.4,4.9v8.9h-4v-10.8c0-2.6,0-3.6-0.3-4.4
		c-0.5-1.9-1.8-2.9-3.6-2.9c-2.2,0-4.2,1.5-5.1,3.8c-0.5,1.4-0.6,2-0.6,5.1v9.3h-4L292.4,318.7L292.4,318.7z"/>
	<path class="st1" d="M327.9,300.2h4.5v4.3h-4.5V300.2z M328.2,309.5h4.1v21.1h-4.1V309.5z"/>
	<path class="st1" d="M352.1,330.4c-1.5,0.8-3.2,1.1-5.3,1.1c-6.5,0-10.9-4.5-10.9-11.2c0-3,0.9-5.6,2.6-7.7c2-2.2,5-3.6,8.1-3.6
		c1.7,0,3.4,0.3,4.9,0.9l-0.3,3.6c-1.2-0.7-2.4-1-3.9-1c-4.2,0-7.2,3.2-7.2,7.6c0,4.7,2.9,7.9,7.1,7.9c1.7,0,2.8-0.4,4.5-1.4
		L352.1,330.4z"/>
	<path class="st1" d="M353.3,326.7c2.1,1,3.7,1.4,5.3,1.4c2.5,0,4.3-1.2,4.3-2.8c0-0.8-0.4-1.5-1.1-2c-0.3-0.2-1-0.6-1.9-1l-1.8-0.8
		c-2.1-1-2.7-1.4-3.5-2.1c-1.1-1-1.7-2.3-1.7-3.9c0-3.8,3.1-6.3,7.8-6.3c1.8,0,3.3,0.3,5.3,0.9l-0.3,3.4c-1.6-0.8-3-1.1-4.6-1.1
		c-2.3,0-3.8,1.1-3.8,2.7c0,1.2,1,2.1,3.1,3.1l1.7,0.8c3.7,1.7,5.1,3.3,5.1,6c0,3.9-3.3,6.6-8.2,6.6c-2.2,0-3.9-0.3-5.9-1.2V326.7z"
		/>
	<path class="st2" d="M169.4,193.9c0,0,215.9-89,309.1,66.3l-21.5,44.4C417.3,128.1,169.4,193.9,169.4,193.9z"/>
</g>
</svg>
