<?xml version="1.0" encoding="utf-8"?>
<!-- Generator: Adobe Illustrator 28.0.0, SVG Export Plug-In . SVG Version: 6.00 Build 0)  -->
<svg version="1.1" id="Layer_1" xmlns="http://www.w3.org/2000/svg" xmlns:xlink="http://www.w3.org/1999/xlink" x="0px" y="0px"
	 viewBox="0 0 500 500" style="enable-background:new 0 0 500 500;" xml:space="preserve">
<style type="text/css">
	.st0{fill-rule:evenodd;clip-rule:evenodd;fill:#8A1A9B;}
	.st1{fill-rule:evenodd;clip-rule:evenodd;fill:#2E2D62;}
	.st2{fill-rule:evenodd;clip-rule:evenodd;fill:#FFFFFF;}
	.st3{fill-rule:evenodd;clip-rule:evenodd;fill:#BE2BBB;}
</style>
<g>
	<path class="st0" d="M318.2,270.9h-6.4v-29.8h6.4V270.9z"/>
	<path class="st0" d="M343.7,259.5v11.4H338v-10.2c0-0.7,0.5-6-3.6-6.2c-2-0.1-5.6,1-5.6,6.5v9.9h-5.7v-21.1h4.4l0.7,2.6h0.7
		c0.9-1,2.9-2.8,6.5-2.8C341,249.6,343.7,253.7,343.7,259.5z"/>
	<path class="st0" d="M368.6,259.5v11.4h-5.7v-10.2c0-0.7,0.5-6-3.6-6.2c-2-0.1-5.6,1-5.6,6.5v9.9H348v-21.1h4.4l0.7,2.6h0.7
		c0.9-1,2.9-2.8,6.5-2.8C365.9,249.6,368.6,253.7,368.6,259.5z"/>
	<path class="st0" d="M372.1,260.3c0-6.7,5.3-10.7,11.1-10.7c5.8,0,10.9,4,10.9,10.6c0,6.6-5.3,10.7-11.1,10.7
		S372.1,266.9,372.1,260.3L372.1,260.3z M388.5,260.3c0-3.3-2-5.8-5.3-5.8s-5.5,2.5-5.5,5.8s2.2,5.8,5.5,5.8
		S388.5,263.5,388.5,260.3z"/>
	<path class="st0" d="M416.9,249.6l-6.9,21.3h-8.2l-6.9-21.3h5.7l4.9,15.7h0.9l4.9-15.7H416.9z"/>
	<path class="st0" d="M439.6,266.7v4h-1.3c-2.4,0-4.2-0.9-4.9-2.7c-1.3,1.7-3.4,2.9-6.6,2.9c-4.8,0-7.8-2.4-7.8-6.2
		c0-6.5,9-7.1,13-7.3c-0.1-2.4-1.4-3.3-3.6-3.3c-3,0-3.2,1.8-3.2,1.8H420c0.4-3.7,3.4-6.3,8.6-6.3c5.1,0,8.5,2.5,8.5,8.5v5.6
		C437.1,266.1,438,266.7,439.6,266.7L439.6,266.7z M431.9,262v-0.4c-3.8,0.4-7.6,0.9-7.6,3C424.3,267.8,431.6,267.5,431.9,262z"/>
	<path class="st0" d="M456.6,269.2c0,0-1.7,1.8-4.9,1.8c-3.9,0-7.3-2.8-7.3-7v-9.8h-4.1V250h2.1c1.4,0,2.3-1,2.3-2.5v-4.2h5v6.3h5.2
		v4.5h-5.2v9.5c0,1.4,1.1,2.5,2.6,2.5c1.2,0,2.4-0.7,2.4-0.7L456.6,269.2L456.6,269.2z"/>
	<path class="st0" d="M478.6,261.9h-15.3c0.6,3.2,3.2,4.3,5.5,4.3c2.8,0,4.1-1.8,4.1-1.8h5.3c-1.6,4.2-5.4,6.5-9.5,6.5
		c-5.6,0-10.6-4.3-10.6-10.8c0-6.5,4.9-10.5,10.4-10.5C474,249.6,479.2,253.4,478.6,261.9L478.6,261.9z M463.6,257.7h9.4
		c-0.6-2.5-2.3-3.5-4.4-3.5C466.3,254.2,464.5,255.5,463.6,257.7z"/>
	<path class="st0" d="M335.9,301.8c0,9.3-5.4,13.2-12,13.2c-6.6,0-12.1-3.9-12.1-13.2v-17.3h5.9v16.9c0,4.9,2.1,7.9,6.2,7.9
		s6.1-3,6.1-7.9v-16.9h5.9L335.9,301.8L335.9,301.8z"/>
	<path class="st0" d="M349.1,301.7h-2.5v12.6h-5.7v-29.8h5.7v11.7h2.4l7.5-11.7h6.5l-9.3,14.5l10.6,15.3h-6.6L349.1,301.7
		L349.1,301.7z"/>
	<path class="st1" d="M21.4,212.7h131.4v130.6H21.4V212.7z"/>
	<path class="st2" d="M137.8,226.9h-15.2l-20.4,21.9v-21.9H72.7V256c0,6.2-4.6,9.8-10.6,9.8c-6.1,0-10.6-3.6-10.6-9.8v-29.1H36.3
		v29.3c0,13.1,10.5,20.6,22.4,21.8H36.3v51.1h15.2v-18.9h6.6l14,18.9h65.7v-10.3H120v-30.5h17.8v-13.5l-21.8-22.4l21.8-22.4
		L137.8,226.9L137.8,226.9z M87,262.4v23.7c-3.2-5.5-10.7-8.1-21.7-8.1C75.2,277,84.3,271.7,87,262.4L87,262.4z M51.4,288.4h13.9
		c5.7,0,8,2.2,8,5.7c0,3.5-2.3,5.8-8,5.8H51.4V288.4L51.4,288.4z M104.8,318.8H87v7.2l-12.5-16.5c9.5-1.8,14.5-6.7,14.5-15.4
		c0-2.1-0.3-4-0.9-5.7h16.8V318.8L104.8,318.8z M122.6,278h-20.4v-21.9L122.6,278z"/>
	<path class="st0" d="M152.7,321.4h83.8v22h-83.8V321.4z"/>
	<path class="st0" d="M216.6,212.7h66.7V244h-66.7V212.7z"/>
	<path class="st3" d="M216.8,244v-31.9v-16.5h-64.1v16.5v109.4h83.8v21.8h46.9V244H216.8z"/>
	<path class="st0" d="M29.6,156.6c2,0,3.8,0.6,5.2,1.9c1.8,1.8,2.2,4,2.2,6.7c0,2.7-0.4,4.8-2.2,6.6c-1.3,1.3-3.1,1.9-5.1,1.9h-6.1
		v-17H29.6z M33.2,170.3c1.4-1.4,1.5-3.3,1.5-5.2c0-1.8-0.1-3.8-1.5-5.2c-0.9-0.9-2.1-1.4-3.8-1.4h-3.7v13.1h3.7
		C31.1,171.7,32.3,171.2,33.2,170.3z"/>
	<path class="st0" d="M40.7,172c-1.1-1.1-1.6-2.6-1.6-4.3c0-1.4,0.3-2.6,1-3.7c0.9-1.4,2.6-2.4,4.8-2.4c3.4,0,5.5,2.5,5.5,5.5
		c0,0.4,0,0.8,0,1.2h-9.1c0,2.1,1.4,3.7,3.8,3.7c1.4,0,2.6-0.7,3-2h2.1c-0.3,2.2-2.6,3.7-5.2,3.7C43.3,173.7,41.7,173,40.7,172z
		 M48.3,166.6c0-2-1.2-3.4-3.4-3.4c-2.2,0-3.5,1.7-3.5,3.4H48.3z"/>
	<path class="st0" d="M53.3,170.9v-14.3h2.2v14c0,0.8,0.3,1.2,1.2,1.2c0.2,0,0.4,0,0.9,0v1.7c-0.5,0.1-0.8,0.2-1.4,0.2
		C54.4,173.7,53.3,172.8,53.3,170.9z"/>
	<path class="st0" d="M62.6,156.6v2.4h-2.1v-2.4H62.6z M62.4,161.8v11.9h-1.9v-11.9H62.4z"/>
	<path class="st0" d="M64.7,161.6h2.2l3.6,9.7l3.4-9.7H76l-4.5,12.1h-2.3L64.7,161.6z"/>
	<path class="st0" d="M79,172c-1-1.1-1.5-2.6-1.5-4.3c0-1.4,0.3-2.6,0.9-3.7c0.9-1.4,2.4-2.4,4.5-2.4c3.2,0,5.2,2.5,5.2,5.5
		c0,0.4,0,0.8,0,1.2h-8.5c0,2.1,1.3,3.7,3.6,3.7c1.4,0,2.4-0.7,2.8-2h2c-0.3,2.2-2.4,3.7-4.8,3.7C81.4,173.7,79.9,173,79,172z
		 M86.1,166.6c0-2-1.1-3.4-3.2-3.4c-2.1,0-3.3,1.7-3.3,3.4H86.1z"/>
	<path class="st0" d="M91.7,161.7h1.8l0.2,2.1c0.6-1.5,2-2.2,3.5-2.2c0.3,0,0.6,0,0.9,0.1v2c-0.3-0.1-0.6-0.1-0.9-0.1
		c-2.6,0-3.5,2-3.5,4.3v5.8h-2V161.7z"/>
	<path class="st0" d="M101.1,172c-1.1-1.1-1.6-2.6-1.6-4.3c0-1.4,0.3-2.6,1-3.7c0.9-1.4,2.6-2.4,4.8-2.4c3.4,0,5.5,2.5,5.5,5.5
		c0,0.4,0,0.8,0,1.2h-9.1c0,2.1,1.4,3.7,3.8,3.7c1.4,0,2.6-0.7,3-2h2.1c-0.3,2.2-2.6,3.7-5.2,3.7C103.7,173.7,102.1,173,101.1,172z
		 M108.7,166.6c0-2-1.2-3.4-3.4-3.4s-3.5,1.7-3.5,3.4H108.7z"/>
	<path class="st0" d="M114.9,172.4c-1.3-1.1-1.9-2.9-1.9-4.8c0-2,0.7-3.9,2.1-5c0.9-0.7,2.1-1.2,3.6-1.2c1.6,0,3.1,0.7,3.6,1.7v-6.4
		h2.1v16.7h-1.9l-0.1-1.8c-0.6,1.4-2.3,2.1-3.8,2.1C117,173.7,115.8,173.1,114.9,172.4z M121,171.2c1-0.8,1.3-2.2,1.3-3.7
		s-0.3-2.9-1.3-3.7c-0.5-0.4-1.2-0.8-2.2-0.8c-1.1,0-1.9,0.3-2.4,0.9c-0.9,0.9-1.2,2.3-1.2,3.6s0.3,2.6,1.1,3.5c0.6,0.6,1.4,1,2.5,1
		C119.7,172,120.4,171.6,121,171.2z"/>
	<path class="st0" d="M135.7,156.6v2.4h-2.1v-2.4H135.7z M135.6,161.8v11.9h-1.9v-11.9H135.6z"/>
	<path class="st0" d="M139.9,161.9h1.8l0.2,1.8c0.6-1.4,2.4-2.1,3.7-2.1c2.8,0,4.3,1.6,4.3,4.3v7.7h-2v-7.5c0-1.7-0.8-2.8-2.6-2.8
		c-2,0-3.3,1.7-3.3,3.9v6.4h-2V161.9z"/>
	<path class="st0" d="M159.1,161.9h1.9l0.1,1.7c0.5-1.4,2.4-2.1,3.9-2.1c1.6,0,2.8,0.5,3.7,1.3c1.2,1.1,1.8,2.9,1.8,4.9
		c0,2-0.6,3.8-1.9,5c-0.8,0.7-2.1,1.2-3.6,1.2c-1.5,0-3.1-0.6-3.8-1.8v6.4h-2.1V161.9z M167.2,171.2c0.8-0.9,1.1-2.2,1.1-3.5
		s-0.3-2.6-1-3.4c-0.6-0.6-1.4-1.1-2.6-1.1c-0.9,0-1.6,0.3-2.1,0.8c-1.1,0.9-1.4,2.3-1.4,3.7s0.3,2.9,1.4,3.7
		c0.5,0.4,1.2,0.8,2.1,0.8C165.8,172.3,166.6,171.9,167.2,171.2z"/>
	<path class="st0" d="M172.6,170.1c0-1.5,1-3.4,4.4-3.6l3.7-0.2v-0.8c0-1.6-0.9-2.4-2.7-2.4c-1.7,0-2.8,0.8-2.8,2.1h-2
		c0-2.3,2.2-3.6,4.8-3.6c2.9,0,4.7,1.4,4.7,4v5.5c0,0.6,0.3,0.8,0.7,0.8c0.1,0,0.3,0,0.5-0.1v1.4c-0.4,0.2-0.8,0.3-1.4,0.3
		c-1.1,0-1.8-0.8-1.8-1.7c-0.7,1.1-2.2,1.9-4,1.9C174,173.7,172.6,171.9,172.6,170.1z M180.7,168.5v-0.7l-3.5,0.2
		c-1.2,0.1-2.5,0.7-2.5,2.1c0,1,0.7,2,2.4,2C179.4,172.1,180.7,170.5,180.7,168.5z"/>
	<path class="st0" d="M186.8,161.7h1.8l0.2,2.1c0.6-1.5,2-2.2,3.5-2.2c0.3,0,0.6,0,0.9,0.1v2c-0.3-0.1-0.6-0.1-0.9-0.1
		c-2.6,0-3.5,2-3.5,4.3v5.8h-2V161.7z"/>
	<path class="st0" d="M197.4,170.3v-6.9h-2.7v-1.7h2.7v-3.1l2.1-0.5v3.6h3.6v1.7h-3.6v6.7c0,1.2,0.7,1.8,1.8,1.8
		c0.7,0,1.4-0.1,1.9-0.2v1.7c-0.5,0.2-1.1,0.4-2.2,0.4C198.2,173.7,197.4,171.9,197.4,170.3z"/>
	<path class="st0" d="M206,161.9h1.8l0.2,1.8c0.6-1.4,2.4-2.1,3.7-2.1c2.8,0,4.3,1.6,4.3,4.3v7.7h-2v-7.5c0-1.7-0.8-2.8-2.6-2.8
		c-2,0-3.3,1.7-3.3,3.9v6.4h-2V161.9z"/>
	<path class="st0" d="M220.4,172c-1.1-1.1-1.6-2.6-1.6-4.3c0-1.4,0.3-2.6,1-3.7c0.9-1.4,2.6-2.4,4.8-2.4c3.4,0,5.5,2.5,5.5,5.5
		c0,0.4,0,0.8,0,1.2H221c0,2.1,1.4,3.7,3.8,3.7c1.4,0,2.6-0.7,3-2h2.1c-0.3,2.2-2.6,3.7-5.2,3.7C222.9,173.7,221.4,173,220.4,172z
		 M228,166.6c0-2-1.2-3.4-3.4-3.4s-3.5,1.7-3.5,3.4H228z"/>
	<path class="st0" d="M233,161.7h2l0.2,2.1c0.7-1.5,2.3-2.2,3.9-2.2c0.3,0,0.7,0,1,0.1v2c-0.3-0.1-0.6-0.1-1-0.1
		c-2.9,0-3.9,2-3.9,4.3v5.8H233V161.7z"/>
	<path class="st0" d="M241.5,169.7h2c0,1.5,1.4,2.3,3.1,2.3c1.5,0,2.8-0.6,2.8-1.9c0-0.9-0.7-1.4-1.9-1.6l-2.7-0.4
		c-1.8-0.3-3-1.3-3-3.1c0-2.1,2.1-3.5,4.5-3.5c2.7,0,4.7,1.4,4.7,3.6h-2c0-1.3-1.1-2-2.7-2c-1.5,0-2.6,0.7-2.6,1.8
		c0,0.9,0.7,1.3,1.6,1.4l2.8,0.4c1.7,0.3,3.1,1.4,3.1,3.1c0,2.4-2.2,3.6-4.9,3.6C243.7,173.7,241.5,172.2,241.5,169.7z"/>
	<path class="st0" d="M256.3,156.6v6.7c0.7-1.2,2.3-1.9,3.6-1.9c2.8,0,4.3,1.6,4.3,4.4v7.8h-2v-7.6c0-1.8-0.8-2.8-2.7-2.8
		c-2,0-3.2,1.7-3.2,4v6.4h-2v-17H256.3z"/>
	<path class="st0" d="M270.6,156.6v2.4h-2.1v-2.4H270.6z M270.5,161.8v11.9h-1.9v-11.9H270.5z"/>
	<path class="st0" d="M274.9,161.9h1.7l0.1,1.7c0.5-1.4,2.2-2.1,3.6-2.1c1.5,0,2.6,0.5,3.4,1.3c1.1,1.1,1.7,2.9,1.7,4.9
		c0,2-0.6,3.8-1.8,5c-0.8,0.7-1.9,1.2-3.3,1.2c-1.4,0-2.9-0.6-3.5-1.8v6.4h-2V161.9z M282.4,171.2c0.8-0.9,1-2.2,1-3.5
		s-0.3-2.6-1-3.4c-0.5-0.6-1.3-1.1-2.5-1.1c-0.9,0-1.5,0.3-2,0.8c-1,0.9-1.3,2.3-1.3,3.7s0.3,2.9,1.3,3.7c0.5,0.4,1.1,0.8,2,0.8
		C281.1,172.3,281.9,171.9,282.4,171.2z"/>
	<path class="st0" d="M309.6,161.6l-3.2,12.1h-2l-3.2-9.4l-3.4,9.4h-1.9l-3.2-12.1h2.1l2.4,9.1l3.2-9h1.8l3.2,9l2.4-9.1H309.6z"/>
	<path class="st0" d="M313.9,156.6v2.4h-2.1v-2.4H313.9z M313.8,161.8v11.9h-1.9v-11.9H313.8z"/>
	<path class="st0" d="M319.5,170.3v-6.9h-2.7v-1.7h2.7v-3.1l2.1-0.5v3.6h3.6v1.7h-3.6v6.7c0,1.2,0.7,1.8,1.8,1.8
		c0.7,0,1.4-0.1,1.9-0.2v1.7c-0.5,0.2-1.1,0.4-2.2,0.4C320.4,173.7,319.5,171.9,319.5,170.3z"/>
	<path class="st0" d="M330.1,156.6v6.7c0.7-1.2,2.3-1.9,3.6-1.9c2.8,0,4.3,1.6,4.3,4.4v7.8h-2v-7.6c0-1.8-0.8-2.8-2.7-2.8
		c-2,0-3.2,1.7-3.2,4v6.4h-2v-17H330.1z"/>
	<path class="st0" d="M344.4,161.6v2.8h-2.8v-2.8H344.4z M344.4,170.8v2.8h-2.8v-2.8H344.4z"/>
</g>
</svg>
