<?xml version="1.0" encoding="utf-8"?>
<!-- Generator: Adobe Illustrator 28.0.0, SVG Export Plug-In . SVG Version: 6.00 Build 0)  -->
<svg version="1.1" id="Layer_1" xmlns="http://www.w3.org/2000/svg" xmlns:xlink="http://www.w3.org/1999/xlink" x="0px" y="0px"
	 viewBox="0 0 500 500" style="enable-background:new 0 0 500 500;" xml:space="preserve">
<style type="text/css">
	.st0{fill-rule:evenodd;clip-rule:evenodd;fill:#425454;}
	.st1{fill-rule:evenodd;clip-rule:evenodd;fill:#828585;}
	.st2{fill-rule:evenodd;clip-rule:evenodd;fill:url(#SVGID_1_);}
	.st3{fill-rule:evenodd;clip-rule:evenodd;fill:url(#SVGID_00000153679883610645543760000010138053579199455913_);}
	.st4{fill-rule:evenodd;clip-rule:evenodd;fill:url(#SVGID_00000078010733005376816450000017405783236497206670_);}
	.st5{fill-rule:evenodd;clip-rule:evenodd;fill:url(#SVGID_00000044177067505417998670000008842143055570197695_);}
</style>
<g>
	<path class="st0" d="M155.1,234.3h4.7v21.9H174v4.2h-18.9V234.3z"/>
	<path class="st0" d="M177.6,249.5v-15.3h4.6v15.1c0,4.9,2.5,7.6,6.6,7.6c4.1,0,6.6-2.5,6.6-7.4v-15.3h4.6v15.1
		c0,7.9-4.4,11.9-11.3,11.9C181.9,261.2,177.6,257.3,177.6,249.5z"/>
	<path class="st0" d="M206.4,234.3h4.8v13.1l13-13.1h5.9l-11.4,11.2l11.9,14.9h-5.9l-9.4-11.7l-4.3,4.2v7.6h-4.8V234.3z"/>
	<path class="st0" d="M234.3,234.3h19.6v4.1h-14.9v6.8h13.2v4.1h-13.2v7H254v4.1h-19.8L234.3,234.3L234.3,234.3z"/>
	<path class="st0" d="M281.1,233.4h4.3l11.8,27h-5l-2.7-6.5h-12.6l-2.8,6.5h-4.8L281.1,233.4L281.1,233.4z M287.8,249.7l-4.6-10.7
		l-4.6,10.7H287.8z"/>
	<path class="st0" d="M301.7,234.3h4.4l14.4,18v-18h4.6v26.1h-4l-14.8-18.6v18.6h-4.6V234.3z"/>
	<path class="st0" d="M331.4,234.3h10c8.4,0,14.3,5.6,14.3,13v0.1c0,7.3-5.8,13-14.3,13h-10V234.3L331.4,234.3z M336.1,238.4v17.7
		h5.3c5.6,0,9.3-3.7,9.3-8.8v-0.1c0-5.1-3.7-8.9-9.3-8.9H336.1z"/>
	<path class="st0" d="M362,234.3h11.8c3.3,0,5.9,1,7.6,2.6c1.4,1.4,2.2,3.4,2.2,5.6v0.1c0,4.3-2.6,6.9-6.3,7.9l7.2,9.9H379l-6.5-9.1
		h-5.8v9.1H362V234.3z M373.4,247.2c3.3,0,5.4-1.7,5.4-4.4v-0.1c0-2.8-2-4.3-5.5-4.3h-6.8v8.8L373.4,247.2L373.4,247.2z"/>
	<path class="st0" d="M389,234.3h20.5v4.1h-15.6v6.8h13.8v4.1h-13.8v7h15.8v4.1H389L389,234.3L389,234.3z"/>
	<path class="st0" d="M412.4,234.3h5.1l6.5,19.8l6.7-19.9h4l6.7,19.9l6.5-19.8h5l-9.4,26.9h-4.1l-6.7-19.2l-6.7,19.2h-4.1
		L412.4,234.3L412.4,234.3z"/>
	<path class="st0" d="M454.6,257l2.8-3.4c2.6,2.2,5.1,3.5,8.4,3.5c2.9,0,4.7-1.4,4.7-3.4v-0.1c0-1.9-1.1-3-6-4.2
		c-5.7-1.4-8.9-3.1-8.9-8.1v-0.1c0-4.7,3.8-7.9,9.1-7.9c3.9,0,7,1.2,9.7,3.4l-2.5,3.6c-2.4-1.8-4.8-2.8-7.2-2.8
		c-2.8,0-4.3,1.4-4.3,3.2v0.1c0,2.1,1.2,3,6.4,4.3c5.6,1.4,8.5,3.4,8.5,8v0.1c0,5.1-3.9,8.1-9.5,8.1
		C461.7,261.2,457.9,259.8,454.6,257L454.6,257z"/>
	<path class="st1" d="M342.2,275.7h8.3c7.8,0,13.3,5.2,13.3,12.1v0.1c0,6.8-5.4,12.1-13.3,12.1h-8.3V275.7L342.2,275.7z
		 M344.1,277.3v20.9h6.5c7,0,11.3-4.6,11.3-10.4v-0.1c0-5.8-4.4-10.5-11.3-10.5H344.1z"/>
	<path class="st1" d="M370.1,275.7H387v1.7h-15.1v9.5h13.6v1.7h-13.6v9.8h15.3v1.7h-17.1V275.7L370.1,275.7z"/>
	<path class="st1" d="M391.7,296.8l1.2-1.4c2.7,2.6,5.2,3.8,8.8,3.8c3.6,0,6.2-2.1,6.2-5V294c0-2.7-1.4-4.2-6.9-5.4
		c-5.9-1.2-8.3-3.3-8.3-7.1v-0.1c0-3.8,3.3-6.7,7.9-6.7c3.6,0,5.9,1,8.4,3.1l-1.1,1.5c-2.3-2.1-4.6-2.9-7.3-2.9c-3.6,0-6,2.1-6,4.8
		v0.1c0,2.7,1.3,4.3,7.2,5.5c5.7,1.2,8,3.3,8,7v0.1c0,4.1-3.4,6.9-8.1,6.9C397.6,300.8,394.6,299.5,391.7,296.8L391.7,296.8z"/>
	<path class="st1" d="M415.9,275.6h1.8v24.3h-1.8V275.6z"/>
	<path class="st1" d="M424,287.9L424,287.9c0-6.9,4.9-13.1,12.4-13.1c4.1,0,6.7,1.2,9.2,3.3l-1.2,1.4c-2-1.7-4.3-3-8.1-3
		c-6.1,0-10.4,5.2-10.4,11.3v0.1c0,6.5,4,11.4,10.8,11.4c3.2,0,6.2-1.3,8-2.9V289h-8.4v-1.7h10.2v9.7c-2.3,2-5.8,3.8-9.9,3.8
		C428.7,300.8,424,295,424,287.9z"/>
	<path class="st1" d="M452.8,275.6h1.7l17.2,21.1v-21.1h1.8v24.3h-1.4l-17.5-21.6v21.6h-1.8V275.6z"/>
	
		<linearGradient id="SVGID_1_" gradientUnits="userSpaceOnUse" x1="-10.1231" y1="296.237" x2="115.6007" y2="176.175" gradientTransform="matrix(1 0 0 -1 6 504)">
		<stop  offset="0" style="stop-color:#A6FFBB"/>
		<stop  offset="0.12" style="stop-color:#94E4A5"/>
		<stop  offset="0.54" style="stop-color:#588C5F"/>
		<stop  offset="0.58" style="stop-color:#4E835C"/>
		<stop  offset="0.71" style="stop-color:#356E54"/>
		<stop  offset="0.97" style="stop-color:#334647"/>
		<stop  offset="1" style="stop-color:#334647"/>
	</linearGradient>
	<path class="st2" d="M119.5,292.1H45.2V177.6l-20.5,15.3v119.7h20.5h91.1L119.5,292.1z"/>
	
		<linearGradient id="SVGID_00000147934403608166502290000003131538341907546276_" gradientUnits="userSpaceOnUse" x1="18.6898" y1="241.4078" x2="158.1033" y2="241.4078" gradientTransform="matrix(1 0 0 -1 6 504)">
		<stop  offset="0" style="stop-color:#A6FFBB"/>
		<stop  offset="0.12" style="stop-color:#94E4A5"/>
		<stop  offset="0.54" style="stop-color:#588C5F"/>
		<stop  offset="0.58" style="stop-color:#4E835C"/>
		<stop  offset="0.71" style="stop-color:#356E54"/>
		<stop  offset="0.97" style="stop-color:#334647"/>
		<stop  offset="1" style="stop-color:#334647"/>
	</linearGradient>
	<path style="fill-rule:evenodd;clip-rule:evenodd;fill:url(#SVGID_00000147934403608166502290000003131538341907546276_);" d="
		M155.9,312.6L65.7,202.8v23.8l70.8,86H24.7l20.5,9.8h118.9L155.9,312.6z"/>
	
		<linearGradient id="SVGID_00000035528931657567373340000002162373443223453076_" gradientUnits="userSpaceOnUse" x1="148.7244" y1="164.9682" x2="16.1467" y2="304.2998" gradientTransform="matrix(1 0 0 -1 6 504)">
		<stop  offset="0" style="stop-color:#A6FFBB"/>
		<stop  offset="0.12" style="stop-color:#94E4A5"/>
		<stop  offset="0.54" style="stop-color:#588C5F"/>
		<stop  offset="0.58" style="stop-color:#4E835C"/>
		<stop  offset="0.71" style="stop-color:#356E54"/>
		<stop  offset="0.97" style="stop-color:#334647"/>
		<stop  offset="1" style="stop-color:#334647"/>
	</linearGradient>
	<path style="fill-rule:evenodd;clip-rule:evenodd;fill:url(#SVGID_00000035528931657567373340000002162373443223453076_);" d="
		M172.2,307.9L65.8,177.7v-0.1H45.4v114.5h20.4v-38.2h41.9l-0.2-0.2l56.2,68.7L172.2,307.9z M65.8,236.8v-34.1l27.9,34.1H65.8z"/>
	
		<linearGradient id="SVGID_00000109724713924539607720000011726198739644318901_" gradientUnits="userSpaceOnUse" x1="60.0642" y1="244.5559" x2="101.4385" y2="244.5559" gradientTransform="matrix(1 0 0 -1 6 504)">
		<stop  offset="0" style="stop-color:#A6FFBB"/>
		<stop  offset="0.12" style="stop-color:#94E4A5"/>
		<stop  offset="0.54" style="stop-color:#588C5F"/>
		<stop  offset="0.58" style="stop-color:#4E835C"/>
		<stop  offset="0.71" style="stop-color:#356E54"/>
		<stop  offset="0.97" style="stop-color:#334647"/>
		<stop  offset="1" style="stop-color:#334647"/>
	</linearGradient>
	<path style="fill-rule:evenodd;clip-rule:evenodd;fill:url(#SVGID_00000109724713924539607720000011726198739644318901_);" d="
		M66.1,264.8V254h41.4l-10.1,10.8H66.1z"/>
</g>
</svg>
