<?xml version="1.0" encoding="utf-8"?>
<!-- Generator: Adobe Illustrator 28.0.0, SVG Export Plug-In . SVG Version: 6.00 Build 0)  -->
<svg version="1.1" id="Layer_1" xmlns="http://www.w3.org/2000/svg" xmlns:xlink="http://www.w3.org/1999/xlink" x="0px" y="0px"
	 viewBox="0 0 500 500" style="enable-background:new 0 0 500 500;" xml:space="preserve">
<style type="text/css">
	.st0{fill-rule:evenodd;clip-rule:evenodd;fill:#005988;}
	.st1{fill-rule:evenodd;clip-rule:evenodd;fill:#FFFFFF;}
	.st2{fill-rule:evenodd;clip-rule:evenodd;fill:#E0374C;}
</style>
<g>
	<path class="st0" d="M201.8,239.6c-11.5,0-19.1-8.4-19.1-20.7c0-12.3,8.1-20.9,19.5-20.9c11.4,0,17.8,8,17.8,21.2v1.5h-25.9
		c0,6.9,3,10.6,8.1,10.6c3.6,0,6.4-2.2,7.2-5.8l10.4,0.9C217.5,234.8,210.9,239.6,201.8,239.6 M209,214.3c0-5.8-2.8-8.9-7.2-8.9
		c-4.5,0-7,3.2-7.2,8.9H209L209,214.3z"/>
	<path class="st0" d="M460.1,239.6c-11.7,0-19.5-8.4-19.5-20.7c0-12.3,8.3-20.9,20-20.9c11.7,0,18.2,8,18.2,21.2v1.5h-26.5
		c0,6.9,3,10.6,8.3,10.6c3.7,0,6.5-2.2,7.4-5.8l10.6,0.9C476,234.8,469.2,239.6,460.1,239.6 M467.3,214.3c0-5.8-2.8-8.9-7.4-8.9
		c-4.6,0-7.2,3.2-7.4,8.9H467.3L467.3,214.3z"/>
	<path class="st0" d="M220.9,198.8h12.5l5.6,22.9l5.6-22.9h10.1l5.8,23.3l6.7-23.3h9.3l-11.4,39.1h-10.3l-6.5-25.4l-6.5,25.4h-9.5
		L220.9,198.8"/>
	<path class="st0" d="M297.6,206c-4.8,0-8.2,4.2-8.4,12.5c-0.2,8.2,3.2,12.5,8,12.5c3.8,0,7.2-3,7.8-7.8l9.7,1.1
		c-1.3,8.9-8.4,14.6-18.1,14.6c-11.4,0-19.4-8.2-19.2-20.3c0.2-12.3,8.4-20.5,20.7-20.5c9.3,0,15.6,5.5,16.7,14.6l-9.9,1.1
		C304.1,208.7,301,205.9,297.6,206"/>
	<path class="st0" d="M343.8,231.4c-2.6,4.7-7,7.3-12.4,7.3c-8.3,0-13.2-4.7-13.2-12c0-9.2,8.5-14.1,25.4-14.1v-1.7
		c0-3.8-2.2-6-6.3-6c-4.6,0-7.2,1.9-7.8,5.5l-10.2-1.1c1.7-7.7,8-11.5,18.7-11.5c11.9,0,16.5,4.5,16.5,15.2v17.3
		c0,3.2,0.2,5.8,1.1,7.5h-10.9C344,235.9,343.8,233.8,343.8,231.4 M329.6,226.1c0,3.2,2,5.1,5.6,5.1c4.6,0,8-3.8,8-9.2v-3.4
		C334.4,218.8,329.6,221.6,329.6,226.1z"/>
	<path class="st0" d="M368,226c0.9,3.6,4.3,5.5,9,5.5c4.1,0,6.4-1.9,6.4-4.2c0-3.4-3.2-3.2-9-4.5c-9.2-1.9-13.9-4.9-13.9-12.1
		c0-7.2,6-12.8,15.9-12.8c7.9,0,13.5,3.6,15.9,10.2l-8.8,1.7c-1.3-3.2-3.6-4.5-7.5-4.5c-3.6,0-5.6,1.3-5.6,3.8
		c0,3.4,3.9,3.2,10.7,4.7c8.6,1.9,12.7,4.9,12.7,11.7c0,7.7-6.4,13.2-17.6,13.2c-9,0-15.4-4.5-17.1-11.7L368,226"/>
	<path class="st0" d="M424.1,184.9h11.3v53h-11.3V184.9"/>
	<path class="st0" d="M194.7,270.5c1.7-2.8,3.5-4.7,5.9-6c2.2-1.3,4.8-1.9,7.6-1.9c2.4,0,4.3,0.4,6.1,1.5c1.7,0.9,3,2.3,3.9,4.5
		c1.1,2.1,1.5,4.3,1.5,6.8v17.7c0,1.3,0.2,2.3,0.9,2.8c0.7,0.6,1.5,0.9,3,0.9h2.6v2.8h-19.3v-2.8h1.7c1.7,0,2.8-0.2,3.7-0.9
		c0.7-0.6,1.1-1.3,1.1-2.3v-15.8c0-3.4-0.4-5.8-1.5-7.5c-1.5-2.3-3.7-3.4-6.5-3.4c-2.8,0-5.4,1.1-7.4,3.4c-2,2.3-3,5.3-3,9.2v13.4
		c0,1.3,0.2,2.3,0.9,2.8c0.7,0.6,1.5,0.9,3,0.9h2.6v2.8h-19.7v-2.8h2.6c1.3,0,2.2-0.2,2.8-0.9c0.7-0.4,1.1-1.1,1.1-1.9v-23.5
		c0-1.5-0.4-2.8-1.3-3.6c-0.9-0.9-2-1.3-3.7-1.3H181v-2.6l13-0.6L194.7,270.5"/>
	<path class="st0" d="M226.1,262.9l14.6-0.4v31.4c0,0.9,0.2,1.5,0.6,1.9c0.6,0.4,1.3,0.9,2.4,0.9h4.1v2.8H227v-2.8h3.9
		c1.1,0,1.9-0.2,2.6-0.9c0.4-0.6,0.9-1.3,0.9-2.4V270c0-1.5-0.4-2.6-1.3-3.2c-0.9-0.6-2.1-1.1-3.7-1.1h-3v-2.8 M236.2,247.4
		c1.1,0,2.1,0.4,3,1.3c0.9,0.9,1.3,1.9,1.3,3.2c0,1.1-0.4,2.2-1.3,3c-0.9,0.9-1.9,1.3-3,1.3c-1.3,0-2.1-0.4-3-1.3
		c-0.9-0.9-1.3-1.9-1.3-3c0-1.1,0.4-2.2,1.3-3C234.1,247.8,235.1,247.4,236.2,247.4z"/>
	<path class="st0" d="M388.5,262.9l14.6-0.4v31.4c0,0.9,0.2,1.5,0.6,1.9c0.6,0.4,1.3,0.9,2.4,0.9h4.1v2.8h-20.9v-2.8h3.9
		c1.1,0,1.9-0.2,2.6-0.9c0.4-0.6,0.9-1.3,0.9-2.4V270c0-1.5-0.4-2.6-1.3-3.2c-0.9-0.6-2.1-1.1-3.7-1.1h-3v-2.8 M398.8,247.4
		c1.1,0,2.1,0.4,3,1.3c0.9,0.9,1.3,1.9,1.3,3.2c0,1.1-0.4,2.2-1.3,3c-0.9,0.9-1.9,1.3-3,1.3c-1.3,0-2.1-0.4-3-1.3
		c-0.9-0.9-1.3-1.9-1.3-3c0-1.1,0.4-2.2,1.3-3C396.6,247.8,397.7,247.4,398.8,247.4z"/>
	<path class="st0" d="M245.2,263h18.2v2.8c-2.4,0-3.9,0.2-4.6,0.6c-0.7,0.4-1.1,0.9-1.1,1.5c0,0.6,0.2,1.1,0.4,1.7l9.8,21.7
		l8.9-20.8c0.2-0.4,0.2-0.6,0.2-1.1c0-1.9-2-3-5.6-3.4v-2.8h15.4v2.8c-1.5,0.2-2.8,0.6-3.7,1.3c-0.9,0.6-1.7,1.5-2.2,2.8l-13.7,31.1
		h-2.2l-14.3-32c-0.4-1.1-1.1-1.9-2-2.4c-0.6-0.4-2-0.7-3.5-0.7V263"/>
	<path class="st0" d="M318.6,281.1h-26.4c0.2,5.6,1.1,9.5,3.2,11.9c2.4,2.6,5.1,3.9,8.6,3.9c5.1,0,9.2-2.8,12.4-8.6l2.6,1.1
		c-3.9,7.4-9.2,11-16.5,11c-4.9,0-9-1.7-12.4-5.4c-3.4-3.7-4.9-8.2-4.9-13.6c0-6,1.7-10.8,4.9-14.5c3.2-3.7,7.3-5.6,12.2-5.6
		c3.4,0,6.6,0.9,9.2,2.8c2.6,1.7,4.5,4.5,5.8,8C318.2,274.5,318.6,277.5,318.6,281.1 M292.2,278.4h16.1c0.9,0,1.7-0.2,2.1-0.9
		c0.4-0.7,0.9-1.7,0.9-3.2c0-2.8-0.9-5.4-2.8-7.3c-1.7-1.9-3.9-3-6.4-3c-2.8,0-5.1,1.3-7.1,3.7C293.3,269.9,292.4,273.6,292.2,278.4
		z"/>
	<path class="st0" d="M357.8,285.8c1.7,4.6,3.4,7.8,5.6,9.6c2.2,1.7,4.7,2.6,7.8,2.6c2.8,0,5-0.7,6.7-2c1.5-1.3,2.4-2.8,2.4-4.8
		c0-1.1-0.2-2.2-0.9-2.8c-0.6-0.9-1.3-1.5-2.4-2c-1.1-0.4-3.7-1.1-7.8-1.7c-3.9-0.9-6.7-1.7-8.4-2.4c-1.5-0.9-2.8-2.2-3.7-3.7
		c-0.9-1.5-1.3-3.3-1.3-5c0-2.6,0.9-5.2,2.6-7.4c2.4-2.8,5.6-4.1,9.7-4.1c3.2,0,6,1.1,8.8,3l2.6-2.8h1.5l1.1,13.2h-2.6
		c-1.1-3.9-2.8-6.5-4.7-8.3c-1.9-1.7-4.3-2.6-7.3-2.6c-2.6,0-4.5,0.7-5.8,2c-1.5,1.3-2.2,2.8-2.2,4.6c0,1.5,0.6,2.8,1.9,3.9
		c1.3,1.1,3.9,2,7.5,2.6c4.3,0.7,7.1,1.3,8.4,2c2.2,0.9,3.9,2,5,3.7c1.1,1.7,1.7,3.7,1.7,6.1c0,3.3-1.3,6.1-3.9,8.3
		c-2.6,2.2-5.8,3.5-9.7,3.5c-3.7,0-6.9-1.3-10.1-3.7l-2.8,3.3h-2.2l-0.9-14.6h3.2"/>
	<path class="st0" d="M437.1,263h17.7v2.8h-1.7c-1.5,0-2.6,0.2-3.2,0.6c-0.6,0.4-0.9,0.9-0.9,1.7c0,0.4,0,0.6,0.2,1.1l10.4,21.8
		l7.8-17.9c0.6-1.3,0.9-2.6,0.9-3.8c0-0.9-0.4-1.7-1.1-2.1c-0.9-0.4-2.4-0.9-4.5-1.1v-2.8h15.3v2.8c-2.8,0.2-4.7,1.5-5.8,3.8
		l-13.8,31.4c-2.4,5.3-4.7,9-7.1,10.9c-2.4,1.9-5,3-7.6,3c-1.9,0-3.4-0.4-4.7-1.5c-1.3-1.1-1.7-2.3-1.7-3.8c0-1.1,0.4-2.1,1.1-2.8
		c0.6-0.9,1.7-1.1,2.8-1.1c1.1,0,1.9,0.4,2.6,1.1c0.6,0.6,1.1,1.5,1.1,2.3c0,0.2,0,0.6-0.2,1.1c0,0.4-0.2,0.6-0.2,0.9
		c0,0.6,0.4,0.9,1.3,0.9c0.9,0,1.9-0.2,3-0.9c1.1-0.6,2.2-1.5,3-3c0.9-1.3,2.6-4.5,5-9.2l-14-29.5c-0.4-1.1-1.1-1.7-1.9-2.3
		c-0.6-0.4-1.9-0.9-3.2-1.1V263"/>
	<path class="st0" d="M131.5,184.9H146l20.3,32.6v-32.6h11.2v53h-12.1L142.9,201l-0.2,36.9h-11.2V184.9"/>
	<path class="st0" d="M125.4,246.5h24v2.8h-4.1c-1.5,0-2.4,0.2-3,0.6c-0.6,0.4-0.9,1.3-0.9,2.1v28.8c0,3.4,0.2,6,0.9,7.7
		c0.9,2.6,2.6,4.7,4.9,6.2c2.3,1.5,5.3,2.3,9.2,2.3c5.1,0,9.2-1.3,12-4.1c2.8-2.8,4.1-6.4,4.1-10.9v-22.9c0-2.4-0.2-4.1-0.4-5.3
		c-0.4-1.3-0.9-2.1-1.5-2.8c-0.6-0.6-1.3-1.1-2.3-1.5c-0.9-0.4-2.6-0.4-4.7-0.4v-2.8h21.8v2.8h-1.5c-2.4,0-4.3,0.6-5.3,1.9
		c-1.3,1.3-1.7,3.2-1.7,5.8v24.6c0,6.2-1.7,10.9-5.3,14.1c-4.1,3.6-9.2,5.5-15.8,5.5c-5.8,0-10.3-0.9-13.5-2.3
		c-3.2-1.7-5.6-3.8-7.1-7.1c-1.1-2.4-1.7-5.1-1.7-8.8v-30.8c0-0.9-0.2-1.5-0.9-2.1c-0.6-0.4-1.5-0.9-2.8-0.9h-4.3L125.4,246.5"/>
	<path class="st0" d="M418.8,230.3c-1.3,0.2-2.3,0.4-3.4,0.4c-3.8,0-4.6-1.7-4.6-6.3v-17.7h8V199h-8v-11.5l-11.2,2.2v9.3h-5.1v7.8
		h5.1v19c0,9.7,3.6,13.8,12.7,13.8c2.1,0,4.2-0.2,6.5-0.7V230.3"/>
	<path class="st0" d="M434.9,285.4c-0.2,3.9-0.9,6.7-2.2,8.4c-1.3,1.7-2.9,2.6-4.6,2.6c-1.5,0-2.9-0.6-3.7-1.7
		c-0.9-1.1-1.5-2.6-1.5-4.7v-24h11.7v-3.2h-11.7v-15.3h-2.6c-0.2,5.2-1.5,9.1-3.7,12.1c-1.5,1.9-4,3.2-7.1,3.7v2.8h6.6v25.1
		c0,2.8,0.9,5,2.6,6.7c1.8,1.7,4.2,2.6,7.5,2.6c3.3,0,6.2-1.3,8.4-3.7c2.2-2.4,3.3-6,3.5-11h-3.1"/>
	<path class="st0" d="M347.9,261.3c-6.4,0-11.8,7.6-13.9,16.1v-15.2l-13.3,0.7v2.8h3.2c1.3,0,2.4,0.4,3.2,1.3
		c0.6,0.9,1.1,2.2,1.1,3.9v23.5c0,0.6-0.2,1.3-0.9,1.7c-0.6,0.4-1.5,0.7-2.8,0.7H321v2.8h22.7v-2.8H339c-1.5,0-2.6-0.2-3.2-0.7
		c-0.6-0.4-0.9-1.1-0.9-1.9v-7c0-7.2,3-19.3,9-19.3c1.7,0,1.3,2.6,4.5,2.6c2.6,0,4.5-2,4.5-4.5C352.9,263,350.5,261.3,347.9,261.3"
		/>
	<path class="st0" d="M21.2,184.9v46.7c0,44.2,49.5,69.6,49.5,69.6s49.5-25.2,49.5-69.6v-46.7H21.2"/>
	<path class="st1" d="M97.6,263.9c0-2.6-0.4-5.3-1.1-7.7c-7.3,4.7-14.6,6-18.9,3.4c0.2-0.2,0.4-0.6,0.4-1.1c0-1.1-0.9-1.7-1.7-1.7
		c-0.4,0-0.9,0.2-1.1,0.4c-2.6-4.3-1.3-11.5,3.4-18.8c-2.8-1.1-5.4-1.5-8.2-1.5l0,0c-2.6,0-5.4,0.4-7.8,1.1c4.7,7.3,6,14.5,3.4,18.8
		c-0.2-0.2-0.6-0.4-1.1-0.4c-1.1,0-1.7,0.9-1.7,1.7c0,0.4,0.2,0.9,0.4,1.1c-4.3,2.6-11.6,1.3-18.9-3.4c-0.9,2.6-1.1,5.1-1.1,7.7l0,0
		c0,2.6,0.4,5.3,1.1,7.7c7.3-4.7,14.6-6,18.9-3.4c-0.2,0.2-0.4,0.6-0.4,1.1c0,1.1,0.9,1.7,1.7,1.7c0.4,0,0.9-0.2,1.1-0.4
		c2.6,4.3,1.3,11.5-3.4,18.8c2.6,0.9,5.2,1.1,7.8,1.1l0,0c2.6,0,5.4-0.4,7.8-1.1c-4.7-7.3-6-14.5-3.4-18.8c0.2,0.2,0.6,0.4,1.1,0.4
		c1.1,0,1.7-0.9,1.7-1.7c0-0.4-0.2-0.9-0.4-1.1c4.3-2.6,11.6-1.3,18.9,3.4C97.2,269,97.6,266.5,97.6,263.9L97.6,263.9"/>
	<path class="st0" d="M75.9,263.9c0,2.9-2.3,5.2-5.2,5.2c-2.9,0-5.2-2.3-5.2-5.2s2.3-5.2,5.2-5.2C73.7,258.7,75.9,260.9,75.9,263.9"
		/>
	<path class="st1" d="M23.8,187.5h93.8v44.3H23.8V187.5z"/>
	<path class="st2" d="M78.3,219c0.4,0.5,0.2,0.7,0,0.9c-0.2,0.2-2.6,1.8-4,1.4c-1.1-0.5-1.1-2.5-2.8-3.4c-1.3-0.7-2.8,0.5-2.8,0.5
		c2.3,0,3,3.4,3,3.4c-3.4-2.9-6.6-0.9-7,0.9c3-2,5.5,0.7,5.5,0.7c-1.1,0.2-3.4,2-1.7,5c0.4-3.4,3.6-4.1,3.6-4.1
		c-0.2,1.6,1.1,4.7,3.6,4.1c-1.9-1.4-1.5-2.7-1.5-3.4c0-0.5,0.4-0.9,1.1-0.9c3.6-0.5,3.6,2.5,3.6,2.5c1.1,0,3.6-3.8,3.6-5.9
		c1.1,1.6,3.6,2.5,5.5,1.1c-2.6-0.5-3.4-2.9-3.6-3.4c-0.2-0.5-0.6-3.6-1.9-4.7c-1.7-1.8-4-0.5-5.5,0.9c-0.4,0.5-1.7,2.7-0.2,3.4
		C77.6,218.5,77.9,218.7,78.3,219"/>
	<path class="st2" d="M38.9,211.8c-3.8,0-7.8-7.6-8.2-8.3c2.1-0.2,1.9-1.3,1.7-2c-0.6-2.6-5.5-0.2-5.9,0.2c0.2-2.6,2.7-3.5,4.4-3.2
		l0,0c-0.2-3.7-3.6-3.9-3.6-3.9c2.9-2.2,4.8,0.7,5.5,2.8c2.9-2.2,0.2-5.2-0.4-5.6c0,0,2.3-0.2,3.4,2.2c0.6,2.4-0.4,3.9-0.4,3.9
		s0.8,0,1.3-0.4c1.7-1.1,1.5-2.8,1.5-3c0,0,1.3,0.9,1.1,2.2c0,1.1-1.1,1.7-1.5,2.4c-0.4,0.7-1.5,1.7-0.2,5.4
		c0.6,1.7,1.5,3.3,2.1,3.5C39.3,208.8,38.4,209.6,38.9,211.8"/>
	<path class="st2" d="M30.5,217.2c-2.4,0.2-6.4,1.1-4.3,5.3c0-3,4.1-3.2,4.7-3c-1.9,3.2,0.2,6.1,2.1,6.1c-1.7-1.5-0.2-3.4,0-4
		c0.2-0.4,0.9-0.9,1.5-0.6c2.1,0.6,0.6,2.3,0.6,2.3c4.7,2.1,6.9,0.2,7.8-0.9c0,0,1.5,1.5,0,2.3c0.9,0.4,5.4,0.6,6.9-1.5
		c0.6,1.7,5.8,1.7,6.9,0.8c0,0-1.1-0.6-1.1-1.5c0-1.3,1.5-2.3,3.2-3.2c2.1-0.9,5.6-1.3,9-3c6.4-3,14.4-8.7,17-5.1
		c1.3,1.7,1.1,3.6,2.4,4.7c1.3,1.3,3.4,0.6,4.7,0.4c3.2-0.4,7.7-0.9,10.3-1.1c2.8-0.2,3.4,1.9,3.7,2.1c0.2,0.6,0,1.1-0.4,0.8
		c-0.9,0-2.6-0.4-3.7,0c-1.3,0.9-1.1,2.8-1.1,2.8c1.1-1.9,4.3-1.7,5.6-1.5c-1.1,0.9-3,4.4-0.2,5.9c-0.6-2.8,1.9-4.7,1.9-4.7
		c0.2,0.8,1.9,2.3,5.6,2.1c-3.9-1.3-3.2-3.2-3.2-3.2c1.3,0.6,4.1,0.2,5.4-2.8c-4.5,2.8-5.6,0.2-5.8-0.2c-0.9-1.5,1.3-1.7,1.3-1.7
		c-0.4-0.8-6.7-4.7-3.7-5.9c-1.1-0.6-3.7-0.4-5.8,1.3c0-0.4,0-1.9-0.6-2.5c0,0-3.7,2.5-6.7,2.1c-3-0.4-1.7-4.7-1.7-4.7
		s7.5,0.8,10.3-0.4c2.8-1.3,2.8-3.2,5.2-4.4c1.9-1.1,4.1-0.2,4.1-0.2c-0.4-1.1-4.1-2.5-6.9,0.4c0,0-0.2-5.3-6.9-4.7
		c-4.1,0.4-7.3,2.1-11.4,2.8c-4.1,0.8-8.2,1.5-10.8,1.5s-6.4-0.6-6.7-3.6c-0.2-1.7,1.1-2.3,2.4-2.3c1.9,0,4.7,1.1,7.1,1.9
		c1.5,0.6,3.2,0.6,4.1,0.6c2.4,0,5.4-1.1,6.9-1.7c1.5-0.6,2.6-0.8,5.6-0.6c-1.3-1.3-7.5-4-11.8-3.8c-4.1,0.2-4.3,2.1-8.4,1.9
		c-4.1-0.2-7.5,0.4-7.8,3.4c-0.2,3,2.6,6.1,9,5.7c2.8,0,12.9-1.7,14.8-2.3c2.6-0.9,12.7-2.8,10.8,2.1c-0.4,1.1-1.5,2.1-4.5,2.1
		c-3,0-6.7-0.9-7.5-1.1c-1.1-0.2-3.7-0.4-6.2-0.2c-2.4,0.4-18.9,2.8-21.7,3c0,1.1-0.6,4,2.1,5.9c-1.3,0.6-3.7,1.9-6,0.9
		c-0.2,0.8,0.9,2.1,1.9,3.4c-0.9,0.2-4.5,1.9-6.2,0.9c-0.6,1.3-3,4.7-8.2,3.6c0.4-0.2,0.2-1.9-1.1-2.3c-1.3,0.2-1.5,0.8-6.7,0.2
		c-1.5-0.2-2.8-0.6-3.2-1.7c-0.4-1.1,0.2-2.5-0.2-3.4c-0.6-1.7-3.2-1.5-3.2-1.5c2.4,1.7,0.9,4.2,0.9,4.2c-2.1-2.1-5.6-4.2-6.7-0.4
		C28.8,214,30.5,217.2,30.5,217.2"/>
	<path class="st2" d="M64.6,197.9c-1.3-2.6-4.4-0.6-4.4-0.6c0.9-0.8,0-3.8-0.9-4.2c0,1.5-1.3,1.9-2.2,1.7c-1.1-0.2-0.7-1.9-0.4-2.6
		c-0.9,0-2.8-0.2-4.2,1.7c-0.4-2.3-2.4-3.2-4.6-2.8c2.4,2.6-2.8,5.5-4.6,4.7c-0.9,1.7,2,3.6,2.4,3.2c-1.5,2.1-3.9,1.7-5.3,1.3
		c0,0.9,1.1,3,3.1,3c-1.1,1.1-3.3,1.1-4.2,0.9c-0.2,1.5,2.2,2.8,2.8,3c-2,3.2-1.3,7-0.2,8.5l0.7,1.3c1.8-3.2,5.5-1.9,4.8,1.1
		c3.5,0.4,5.3-2.5,6.1-4.5c1.3,1.3,2.8,1.5,3.7,1.3c-1.1-2.1-0.7-4.2-0.2-5.1c1.3,1.1,3.1,1.5,3.9,1.1c-1.1-1.5-1.1-5.3-0.9-6.8
		c0.9,0.4,2.6,1.1,3.5-0.9C62.2,202.8,62,197.9,64.6,197.9L64.6,197.9z M48.4,198.3c0.2-0.2,0.7-0.6,0.9-0.4
		c0.4,0.4,0.4,0.9,1.1,1.5c0.4,0.4,1.3,0.6,1.5,0.9c0.2,0.9-1.3,1.9-3.1,0.2C48.2,199.8,47.8,198.9,48.4,198.3z M52.4,208.7
		c-1.8,2.5-3.7,1.3-3.7,1.3s-2.2-0.8-1.1-3.6c-1.3-0.9-0.9-2.1-0.4-2.3c0.2,0.4,0.2,1.1,1.5,1.7c1.1,0.6,1.5,0.2,1.8,0
		c0.2-0.4-0.4-0.8-0.7-1.3c-0.4-0.4-0.4-1.1-0.2-1.5c0.4-0.4,1.1-0.4,1.3-0.2c-1.5,0.2,0.4,1.5,0.9,1.7c0.2,0.2,2.4,1.1,1.8-0.2
		c0.4,0,0.7,0.6,0.7,1.1c0,0.4-0.7,0.9-1.3,0.6c-0.7,0-1.3-0.2-1.5,0.2c-0.2,0.2,0,0.9,1.1,1.5c1.1,0.6,1.5,0.2,2.2,0
		C54.6,208.1,53.9,209.3,52.4,208.7z M58.3,203.2c-0.2,0.6-1.1,1.1-2.2,0.9c-2.2-0.4-2.2-2.1-1.5-2.3c0.2,0.2,0.9,0.6,1.5,0.9
		c0.9,0.2,1.3,0,2,0C58.3,202.3,58.3,202.8,58.3,203.2z"/>
</g>
</svg>
