<?xml version="1.0" encoding="utf-8"?>
<!-- Generator: Adobe Illustrator 28.0.0, SVG Export Plug-In . SVG Version: 6.00 Build 0)  -->
<svg version="1.1" id="Layer_1" xmlns="http://www.w3.org/2000/svg" xmlns:xlink="http://www.w3.org/1999/xlink" x="0px" y="0px"
	 viewBox="0 0 500 500" style="enable-background:new 0 0 500 500;" xml:space="preserve">
<style type="text/css">
	.st0{fill-rule:evenodd;clip-rule:evenodd;fill:#272860;}
	.st1{fill-rule:evenodd;clip-rule:evenodd;fill:#FFFFFF;}
	.st2{fill-rule:evenodd;clip-rule:evenodd;fill:#124B88;}
	.st3{fill-rule:evenodd;clip-rule:evenodd;fill:#3575BB;}
</style>
<g>
	<path class="st0" d="M22,204.4h104.3v104.3H22V204.4z"/>
	<path class="st1" d="M114.6,216.1h-12.2L86,233.6v-17.4H62.3v23.2c0,5-3.7,7.8-8.5,7.8c-4.9,0-8.5-2.9-8.5-7.8v-23.2H33v23.3
		c0,10.5,8.4,16.5,18,17.4H33v40.8h12.2v-15.1h5.3l11.3,15.1h52.8v-8.2h-14.3v-24.3h14.3v-10.8l-17.5-17.9l17.5-17.8L114.6,216.1
		L114.6,216.1z M73.8,244.4v18.9c-2.6-4.4-8.6-6.4-17.4-6.4C64.3,256.1,71.6,251.8,73.8,244.4 M45.2,265.1h11.2
		c4.6,0,6.4,1.8,6.4,4.6c0,2.8-1.9,4.6-6.4,4.6H45.2V265.1z M88.1,289.4H73.8v5.7L63.7,282c7.7-1.4,11.6-5.4,11.6-12.3
		c0-1.7-0.2-3.2-0.7-4.6h13.5V289.4z M102.4,256.9H86v-17.5L102.4,256.9z"/>
	<path class="st2" d="M136,204.4l64.7,85.7v-43H230v-42.7H136z"/>
	<path class="st3" d="M200.7,246.9v42.9l-64.6-85.4l-9.9-13.1v13.1v104.4H230v-61.8H200.7z"/>
	<path class="st0" d="M259.7,241c-4.5,0-7.6-3-7.6-7h3.8c0.4,2.6,2.5,3.2,3.8,3.2c1,0,3-0.4,3-2.3c0-1.8-1.7-2.5-3.4-3.2
		c-2.8-1.1-6.7-2.5-6.7-6.5c0-3.5,3-5.7,6.7-5.7c4.3,0,6.7,2.9,6.7,5.6h-3.8c-0.2-1.2-1.5-1.9-3-1.9c-1.5,0-2.6,0.7-2.6,2
		c0,1.3,1.2,1.8,3.2,2.7c2.1,1,6.7,2.2,6.7,6.9C266.6,238.9,263.4,241,259.7,241"/>
	<path class="st0" d="M276.1,241c-4.1,0-7.4-3.2-7.4-7.6c0-4.4,3.4-7.6,7.5-7.6c3.3,0,6.2,2.1,7,5.6h-4c-0.6-1.2-1.7-2-3.1-2
		c-2,0-3.7,1.7-3.7,4c0,2.3,1.6,4,3.7,4c1.3,0,2.3-0.7,3-1.8h4C282.2,239.2,279.1,241,276.1,241"/>
	<path class="st0" d="M285.2,221.4c0-1.4,1.3-2.5,2.8-2.5c1.5,0,2.7,1.1,2.7,2.5c0,1.3-1.2,2.5-2.7,2.5
		C286.5,223.9,285.2,222.7,285.2,221.4 M290.1,240.3h-4.2v-14.8h4.2V240.3z"/>
	<path class="st0" d="M307.3,234.6h-10.8c0.4,2.3,2.3,3.1,3.9,3.1c2,0,2.9-1.3,2.9-1.3h3.7c-1.1,3-3.8,4.6-6.7,4.6
		c-4,0-7.5-3.1-7.5-7.7c0-4.7,3.5-7.5,7.3-7.5C304.1,225.8,307.8,228.5,307.3,234.6 M296.8,231.5h6.6c-0.4-1.8-1.7-2.5-3.1-2.5
		C298.7,229.1,297.4,230,296.8,231.5"/>
	<path class="st0" d="M323.9,232.5v7.8h-4v-6.9c0-0.5,0.4-4.1-2.5-4.3c-1.4-0.1-4,0.7-4,4.4v6.8h-4V226h3.1l0.5,1.8h0.5
		c0.6-0.7,2.1-1.9,4.6-1.9C322,225.8,323.9,228.6,323.9,232.5"/>
	<path class="st0" d="M334.1,241c-4.1,0-7.4-3.2-7.4-7.6c0-4.4,3.4-7.6,7.5-7.6c3.3,0,6.2,2.1,7,5.6h-4c-0.6-1.2-1.7-2-3.1-2
		c-2,0-3.7,1.7-3.7,4c0,2.3,1.6,4,3.7,4c1.3,0,2.3-0.7,3-1.8h4C340.2,239.2,337.2,241,334.1,241"/>
	<path class="st0" d="M357.8,234.6H347c0.4,2.3,2.3,3.1,3.9,3.1c2,0,2.9-1.3,2.9-1.3h3.7c-1.1,3-3.8,4.6-6.7,4.6
		c-4,0-7.5-3.1-7.5-7.7c0-4.7,3.4-7.5,7.3-7.5C354.5,225.8,358.2,228.5,357.8,234.6 M347.2,231.5h6.6c-0.4-1.8-1.7-2.5-3.1-2.5
		C349.1,229.1,347.8,230,347.2,231.5"/>
	<path class="st0" d="M382.7,238v2.9h-0.9c-1.7,0-2.9-0.6-3.4-1.9c-0.9,1.2-2.4,2.1-4.7,2.1c-3.4,0-5.5-1.7-5.5-4.4
		c0-4.6,6.3-5.1,9.2-5.2c-0.1-1.7-1-2.3-2.5-2.3c-2.1,0-2.3,1.3-2.3,1.3h-3.7c0.3-2.7,2.4-4.5,6.1-4.5c3.6,0,6,1.8,6,6.1v4
		C380.9,237.6,381.5,238,382.7,238 M377.3,234.6v-0.3c-2.7,0.3-5.4,0.6-5.4,2.2C371.9,238.7,377,238.6,377.3,234.6"/>
	<path class="st0" d="M398.6,232.5v7.8h-3.8v-6.9c0-0.5,0.3-4.1-2.4-4.3c-1.4-0.1-3.8,0.7-3.8,4.4v6.8h-3.8V226h2.9l0.5,1.8h0.5
		c0.6-0.7,2-1.9,4.4-1.9C396.8,225.8,398.6,228.6,398.6,232.5"/>
	<path class="st0" d="M415.8,219.6v21.3h-2.9l-0.4-1.4H412c-0.9,1-2.2,1.6-3.8,1.6c-3.8,0-6.9-3.1-6.9-7.6c0-4.5,3.2-7.6,6.9-7.6
		c1.6,0,2.9,0.5,3.8,1.6v-7.8H415.8L415.8,219.6z M412.1,233.4c0-2.5-1.3-4-3.3-4c-1.8,0-3.6,1.3-3.6,4s1.8,4,3.6,4
		C410.8,237.3,412.1,235.9,412.1,233.4"/>
	<path class="st0" d="M266.6,253.7H261v17.1h-4v-17.1h-5.6V250h15.2V253.7z"/>
	<path class="st0" d="M279.7,265h-10.8c0.4,2.3,2.3,3.1,3.9,3.1c2,0,2.9-1.3,2.9-1.3h3.7c-1.1,3-3.8,4.6-6.7,4.6
		c-4,0-7.5-3.1-7.5-7.7c0-4.7,3.4-7.5,7.3-7.5C276.4,256.2,280.1,258.9,279.7,265 M269.1,261.9h6.6c-0.4-1.8-1.7-2.5-3.1-2.5
		C271,259.5,269.7,260.4,269.1,261.9"/>
	<path class="st0" d="M289.2,271.4c-4.1,0-7.4-3.2-7.4-7.6c0-4.4,3.4-7.6,7.5-7.6c3.3,0,6.2,2.1,7,5.6h-4c-0.6-1.2-1.7-2-3.1-2
		c-2,0-3.7,1.7-3.7,4c0,2.3,1.6,4,3.7,4c1.3,0,2.3-0.7,3-1.8h4C295.3,269.6,292.3,271.4,289.2,271.4"/>
	<path class="st0" d="M312.9,262.8v7.9H309v-7c0-1.4,0.2-4.3-2.4-4.3c-1.3,0-3.7,0.7-3.7,4.5v6.9h-3.9V250h3.7v7.7h0.5
		c0.7-0.7,2-1.7,4.2-1.7C311.1,256,312.9,258.8,312.9,262.8"/>
	<path class="st0" d="M330.8,262.9v7.8h-4v-6.9c0-0.5,0.4-4.1-2.5-4.3c-1.4-0.1-4,0.7-4,4.4v6.8h-4v-14.4h3.1l0.5,1.8h0.5
		c0.6-0.7,2.1-1.9,4.6-1.9C328.9,256.2,330.8,259,330.8,262.9"/>
	<path class="st0" d="M332.9,263.9c0-4.8,3.7-7.6,7.7-7.6c4,0,7.5,2.9,7.5,7.6c0,4.7-3.6,7.6-7.6,7.6
		C336.5,271.4,332.9,268.5,332.9,263.9 M344.2,263.8c0-2.3-1.4-4.1-3.6-4.1s-3.8,1.8-3.8,4.1c0,2.3,1.5,4.1,3.8,4.1
		S344.2,266.1,344.2,263.8"/>
	<path class="st0" d="M350.9,250h3.5v20.7h-3.5V250z"/>
	<path class="st0" d="M357.1,263.9c0-4.8,3.7-7.6,7.7-7.6c4,0,7.5,2.9,7.5,7.6c0,4.7-3.6,7.6-7.6,7.6
		C360.6,271.4,357.1,268.5,357.1,263.9 M368.4,263.8c0-2.3-1.4-4.1-3.6-4.1s-3.8,1.8-3.8,4.1c0,2.3,1.5,4.1,3.8,4.1
		S368.4,266.1,368.4,263.8"/>
	<path class="st0" d="M387.3,272.1c-0.1,3.3-3.2,4.9-6.8,4.9c-4.7,0-7.4-2.6-6.7-5.8l1.7-1.4c-1-0.6-1.6-1.5-1.6-2.6
		c0-1.2,0.8-2.1,1.9-2.6c-1-0.9-1.5-2.1-1.5-3.5c0-2.8,2.2-5,6-5c1.3,0,2.5,0.3,3.5,0.7c1.6-0.7,2.6-1.9,2.6-1.9l1.9,2.4
		c0,0-1,0.7-2.4,1.1c0.6,0.8,0.9,1.7,0.9,2.7c0,2.8-2.6,5-6.5,5c-0.8,0-1.5-0.1-2.1-0.3c-0.2,0.1-0.5,0.4-0.5,0.7
		c0,1.1,1.7,0.9,2.7,0.9h2.1C385.8,267.4,387.4,269.6,387.3,272.1 M383.6,272c0-0.8-0.7-1.4-2.4-1.4c-0.8,0-2,0-2.9,0l-1,1.1
		c-0.2,0.7,0.6,1.9,3.2,1.9C382.5,273.5,383.6,272.9,383.6,272 M377.9,261c0,1.1,0.8,1.9,2.6,1.9c1.8,0,2.6-0.8,2.6-1.9
		c0-1.1-0.8-1.9-2.6-1.9C378.7,259.1,377.9,259.9,377.9,261"/>
	<path class="st0" d="M405.5,256.2l-5.3,15.3c-0.9,2.4-1.9,5.5-6.5,5.5c-2.8,0-4.2-1.1-4.7-1.6l1.9-2.6c0.2,0.2,1.1,0.9,2.4,0.9
		c1.3,0,2.1-0.5,2.5-1.5l0.4-1.2h-2.1l-5.3-14.7h4.3l3.9,10.7h0.6l3.7-10.7H405.5L405.5,256.2z"/>
	<path class="st0" d="M256.8,284.2v4.6h8v3.6h-8v8.7h-4v-12.4v-8.4h13.8v3.8H256.8z"/>
	<path class="st0" d="M281.8,298.3v2.7h-0.9c-1.7,0-2.9-0.6-3.4-1.8c-0.9,1.2-2.4,2-4.7,2c-3.4,0-5.5-1.7-5.5-4.2
		c0-4.4,6.3-4.8,9.2-5c-0.1-1.7-1-2.2-2.5-2.2c-2.1,0-2.3,1.2-2.3,1.2H268c0.3-2.5,2.4-4.3,6.1-4.3c3.6,0,6,1.7,6,5.8v3.8
		C280,297.9,280.7,298.3,281.8,298.3 M276.4,295v-0.3c-2.7,0.3-5.4,0.6-5.4,2.1C271,299,276.1,298.8,276.4,295"/>
	<path class="st0" d="M290.2,301.1c-4.2,0-7.7-3-7.7-7.2c0-4.2,3.6-7.3,7.9-7.3c3.5,0,6.5,2,7.3,5.3h-4.2c-0.6-1.2-1.8-1.9-3.2-1.9
		c-2.1,0-3.9,1.6-3.9,3.8c0,2.2,1.7,3.8,3.9,3.8c1.4,0,2.5-0.6,3.1-1.7h4.2C296.6,299.4,293.4,301.1,290.2,301.1"/>
	<path class="st0" d="M299.8,282.2c0-1.4,1.1-2.5,2.4-2.5c1.3,0,2.4,1.1,2.4,2.5c0,1.3-1.1,2.5-2.4,2.5
		C300.9,284.7,299.8,283.5,299.8,282.2 M304,301.1h-3.6v-14.8h3.6V301.1z"/>
	<path class="st0" d="M307.4,280.4h4.1v20.7h-4.1V280.4z"/>
	<path class="st0" d="M314.3,282.2c0-1.4,1.1-2.5,2.4-2.5c1.3,0,2.4,1.1,2.4,2.5c0,1.3-1.1,2.5-2.4,2.5
		C315.4,284.7,314.3,283.5,314.3,282.2 M318.5,301.1h-3.6v-14.8h3.6V301.1z"/>
	<path class="st0" d="M332.2,299.9c0,0-1.2,1.2-3.5,1.2c-2.8,0-5.3-1.9-5.3-4.9v-6.9h-3v-2.9h1.5c1,0,1.7-0.7,1.7-1.7v-2.9h3.6v4.4
		h3.7v3.2h-3.7v6.6c0,1,0.8,1.8,1.9,1.8c0.9,0,1.7-0.5,1.7-0.5L332.2,299.9L332.2,299.9z"/>
	<path class="st0" d="M333.6,282.2c0-1.4,1.1-2.5,2.4-2.5c1.3,0,2.4,1.1,2.4,2.5c0,1.3-1.1,2.5-2.4,2.5
		C334.7,284.7,333.6,283.5,333.6,282.2 M337.9,301.1h-3.6v-14.8h3.6V301.1z"/>
	<path class="st0" d="M355,295h-10.8c0.4,2.2,2.3,3,3.9,3c2,0,2.9-1.2,2.9-1.2h3.7c-1.1,2.8-3.8,4.4-6.7,4.4c-4,0-7.5-2.9-7.5-7.4
		c0-4.4,3.5-7.1,7.3-7.1C351.7,286.6,355.5,289.2,355,295 M344.5,292.1h6.6c-0.4-1.7-1.7-2.4-3.1-2.4
		C346.4,289.7,345.1,290.6,344.5,292.1"/>
	<path class="st0" d="M363.1,289.6c-1.2,0-1.8,0.6-1.8,1.2c0,1,1.3,1.3,2.2,1.4c2.6,0.5,5.3,1.3,5.3,4.3c0,3-2.5,4.6-5.5,4.6
		c-3.4,0-6-2-6.2-5h3.6c0.1,0.9,0.7,2,2.5,2c1.5,0,1.9-0.8,1.9-1.4c0-1.1-1-1.4-2-1.6c-1.7-0.4-5.5-1.1-5.5-4.3
		c0-2.8,2.8-4.2,5.6-4.2c3.3,0,5.5,1.9,5.7,4.3h-3.6C365.1,290.5,364.6,289.6,363.1,289.6"/>
	<path class="st0" d="M395.8,294.9c-1.2,3.9-4.5,6.3-8.6,6.3c-5.5,0-9.4-4.4-9.4-10.4s3.9-10.4,9.4-10.4c4,0,7.4,2.4,8.6,6.3h-4.5
		c-0.8-1.6-2.2-2.4-4-2.4c-3.4,0-5.3,2.7-5.3,6.5c0,3.8,2,6.5,5.4,6.5c1.9,0,3.2-0.8,4-2.4L395.8,294.9L395.8,294.9z"/>
	<path class="st0" d="M397.2,293.9c0-4.6,3.7-7.3,7.7-7.3c4,0,7.5,2.8,7.5,7.2c0,4.5-3.6,7.3-7.6,7.3
		C400.7,301.1,397.2,298.4,397.2,293.9 M408.5,293.9c0-2.2-1.4-4-3.6-4s-3.8,1.7-3.8,4c0,2.2,1.5,4,3.8,4S408.5,296.1,408.5,293.9"
		/>
	<path class="st0" d="M429,286.6V301h-2.9l-0.5-1.6h-0.4c-0.6,0.7-1.8,1.7-4.2,1.7c-3.8,0-5.8-2.7-5.8-6.7v-7.8h3.9v6.9
		c0,1.8,0.2,4.3,2.6,4.3c1.3,0,3.4-0.7,3.4-4.4v-6.8H429z"/>
	<path class="st0" d="M446.9,293.3v7.8h-4v-6.9c0-0.5,0.4-4.1-2.5-4.3c-1.4-0.1-4,0.7-4,4.4v6.8h-4v-14.4h3.1l0.5,1.8h0.5
		c0.6-0.7,2.1-1.9,4.6-1.9C445,286.6,446.9,289.4,446.9,293.3"/>
	<path class="st0" d="M456.8,301.1c-4.2,0-7.7-3-7.7-7.2c0-4.2,3.6-7.3,7.9-7.3c3.5,0,6.5,2,7.3,5.3H460c-0.6-1.2-1.8-1.9-3.2-1.9
		c-2.1,0-3.9,1.6-3.9,3.8c0,2.2,1.7,3.8,3.9,3.8c1.4,0,2.5-0.6,3.1-1.7h4.2C463.1,299.4,460,301.1,456.8,301.1"/>
	<path class="st0" d="M466.3,282.2c0-1.4,1.1-2.5,2.4-2.5c1.3,0,2.4,1.1,2.4,2.5c0,1.3-1.1,2.5-2.4,2.5
		C467.4,284.7,466.3,283.5,466.3,282.2 M470.5,301.1h-3.6v-14.8h3.6V301.1z"/>
	<path class="st0" d="M473.9,280.4h4.1v20.7h-4.1V280.4z"/>
</g>
</svg>
