<?xml version="1.0" encoding="utf-8"?>
<!-- Generator: Adobe Illustrator 28.0.0, SVG Export Plug-In . SVG Version: 6.00 Build 0)  -->
<svg version="1.1" id="Layer_1" xmlns="http://www.w3.org/2000/svg" xmlns:xlink="http://www.w3.org/1999/xlink" x="0px" y="0px"
	 viewBox="0 0 500 500" style="enable-background:new 0 0 500 500;" xml:space="preserve">
<style type="text/css">
	.st0{fill-rule:evenodd;clip-rule:evenodd;fill:#B42024;}
	.st1{fill-rule:evenodd;clip-rule:evenodd;fill:url(#SVGID_1_);}
	.st2{fill-rule:evenodd;clip-rule:evenodd;fill:url(#SVGID_00000173130880262056393580000012995263476371518137_);}
	.st3{fill-rule:evenodd;clip-rule:evenodd;fill:url(#SVGID_00000084522258621752960480000011221484137537623199_);}
	.st4{fill-rule:evenodd;clip-rule:evenodd;fill:url(#SVGID_00000101784150718119469470000017354082595439933056_);}
	.st5{fill-rule:evenodd;clip-rule:evenodd;fill:url(#SVGID_00000061448585935899111620000011011566171188406952_);}
	.st6{fill-rule:evenodd;clip-rule:evenodd;fill:url(#SVGID_00000018228677953952746320000004074399799999807128_);}
	.st7{fill-rule:evenodd;clip-rule:evenodd;fill:url(#SVGID_00000182521240343109633060000004550457129029125266_);}
	.st8{fill-rule:evenodd;clip-rule:evenodd;fill:url(#SVGID_00000067197146650046477740000001709233845028343208_);}
	.st9{fill-rule:evenodd;clip-rule:evenodd;fill:url(#SVGID_00000041989338611315983080000013869862823744266673_);}
</style>
<g>
	<path class="st0" d="M40,214.9c-7.8,0-13.1-4.8-13.1-11.7v-27.1h7.3v27c0,4.1,2.7,6.3,6,6.3c3.3,0,6-2.2,6-6.3v-27H53v27
		C53,210.1,47.7,214.8,40,214.9"/>
	<path class="st0" d="M76.3,214.9L65,195.3h-0.1v19.6h-7.3v-38.8h7.3v17.7H65l11.4-17.7h7.5l-12.4,17.9l13.1,20.8H76.3z"/>
	<path class="st0" d="M35.5,248.5l-1.6-0.1v15.1h-7.1V227c3.4-1.5,7.1-2.2,10.9-2.1c10.1,0,14.4,5.1,14.4,11.9
		c0,6.8-4.9,12.7-16.6,11.9 M37.7,228.9c-1.2,0-2.5,0.2-3.6,0.6v14.8l1.5,0.1c7.1,0.6,9.7-2.5,9.7-7.8
		C45.2,231.4,43.1,228.9,37.7,228.9"/>
	<path class="st0" d="M65.6,264.5c-8.5,0-12.6-6.8-12.6-15.7c0-9,4.1-15.8,12.6-15.8s12.6,6.7,12.6,15.8
		C78.2,257.9,74.1,264.5,65.6,264.5 M65.6,237.3c-4.8,0-5.8,5.6-5.8,11.4c0,5.8,1.1,11.1,5.8,11.1c4.7,0,5.8-5.3,5.8-11.1
		C71.4,243,70.5,237.3,65.6,237.3"/>
	<path class="st0" d="M111.3,263.6H105l-5.2-18.6c-0.4-1.2-0.6-2.5-0.6-3.8h-0.1c-0.1,1.3-0.3,2.6-0.7,3.8L93,263.6h-6.3l-8.5-29.8
		h7l4.4,19.3c0.3,1.3,0.5,2.6,0.6,3.9h0.1c0.2-1.3,0.4-2.6,0.8-3.9l5.4-19.3h5.8l5.1,19.3c0.3,1.3,0.6,2.6,0.7,3.9h0.1
		c0.1-1.3,0.3-2.7,0.6-4l4.7-19.2h6.1L111.3,263.6L111.3,263.6z"/>
	<path class="st0" d="M127,251.2c0.6,5.7,3.2,8.5,8,8.5c2.6,0,5.1-0.5,7.4-1.7l1.6,4.3c-2.1,1.2-5.3,2.2-9.7,2.2
		c-8.4,0-13.6-5.6-13.6-15.9c0-10.3,4.8-15.7,12.5-15.7c7.7,0,12.1,5.3,11.8,15.5L127,251.2L127,251.2z M133,237.2
		c-3.9,0-6.5,3.3-6.4,10.6l12.2-1.9C138.8,239.7,136.7,237.2,133,237.2"/>
	<path class="st0" d="M161.7,238c-2.3-0.8-4.8-0.7-6.3,0.2v25.4h-6.8v-28.5c3.1-1.5,6.9-2.4,14.4-2.1L161.7,238L161.7,238z"/>
	<path class="st0" d="M49.9,313.2l-14.8-25c-1.3-2.2-2.3-4.3-2.3-4.3h-0.1c0,0,0.2,2.2,0.2,4.5v24.9h-6.1v-38.8h6.8l14,23.5
		c1.3,2.2,2.1,3.9,2.1,3.9h0.1c0,0-0.2-1.8-0.2-4.1v-23.3h6v38.8H49.9z"/>
	<path class="st0" d="M65.9,300.8c0.6,5.7,3.3,8.5,8.3,8.5c2.6,0.1,5.3-0.5,7.7-1.7l1.6,4.4c-2.2,1.2-5.4,2.2-10.1,2.2
		c-8.7,0-14.1-5.6-14.1-15.9c0-10.3,5-15.7,13-15.7c8,0,12.5,5.3,12.2,15.5L65.9,300.8z M72.1,286.7c-4,0-6.8,3.3-6.6,10.6l12.6-1.9
		C78.1,289.2,75.9,286.7,72.1,286.7"/>
	<path class="st0" d="M97.3,314c-6,0-8.4-4-8.4-8.3v-18.2h-3.4v-4.4h3.4v-6.8l6.9-1.9v8.7h5v4.4h-5v17.9c0,2.4,1,4,3.4,4
		c0.6,0,1.1-0.1,1.6-0.3v4.3C99.7,313.9,98.4,314.1,97.3,314"/>
	<path class="st0" d="M134.6,313.2h-6.2l-5.2-18.6c-0.4-1.2-0.6-2.5-0.6-3.8h-0.1c-0.1,1.3-0.3,2.6-0.7,3.8l-5.4,18.6h-6.2
		l-8.4-29.8h7l4.5,19.3c0.3,1.3,0.5,2.6,0.6,3.9h0.1c0.2-1.3,0.4-2.6,0.8-3.9l5.4-19.3h5.8l5.1,19.3c0.3,1.3,0.6,2.6,0.7,3.9h0.1
		c0.1-1.3,0.3-2.7,0.6-4l4.7-19.2h6.1L134.6,313.2L134.6,313.2z"/>
	<path class="st0" d="M155.8,314.1c-8.5,0-12.6-6.8-12.6-15.7c0-9,4.1-15.8,12.6-15.8s12.6,6.7,12.6,15.8
		C168.4,307.5,164.3,314.1,155.8,314.1 M155.8,286.9c-4.8,0-5.8,5.6-5.8,11.4s1.1,11.1,5.8,11.1c4.7,0,5.8-5.3,5.8-11.1
		C161.6,292.5,160.7,286.9,155.8,286.9"/>
	<path class="st0" d="M185.1,287.6c-2.3-0.8-4.8-0.7-6.3,0.2v25.4H172v-28.5c3.1-1.5,6.9-2.4,14.4-2.1L185.1,287.6L185.1,287.6z"/>
	<path class="st0" d="M205,313.2l-10-15.5H195v15.5h-6.7V269h6.7v27.5h0.1l9.5-13.7h6.9l-10.3,13.9l11.5,16.4H205z"/>
	<path class="st0" d="M221.7,314c-2.9,0.1-5.7-0.7-8.2-2.2l1.8-4.4c1.7,1.2,3.6,1.8,5.6,1.7c2.7,0,4.6-1.8,4.6-4.3
		c0-2.5-1.3-3.9-4.3-5c-5.6-2.2-6.8-5.4-6.8-8.5c0-4.9,3.8-8.8,9.5-8.8c2.7-0.1,5.4,0.6,7.8,2.2l-1.7,4c-1.3-1.1-3-1.7-4.8-1.7
		c-2.7,0-4.2,1.8-4.2,4c0,2.5,1.8,3.8,4.4,4.8c5.8,2.4,7.1,5.4,7.1,9c0,5-4.1,9.3-10.6,9.3"/>
	
		<linearGradient id="SVGID_1_" gradientUnits="userSpaceOnUse" x1="242.1934" y1="392.4487" x2="348.0958" y2="142.4112" gradientTransform="matrix(1 0 0 -1 6 506)">
		<stop  offset="0" style="stop-color:#F79128"/>
		<stop  offset="0.5" style="stop-color:#D85826"/>
		<stop  offset="1" style="stop-color:#BA2025"/>
	</linearGradient>
	<path class="st1" d="M171,177.5c-37.8,2.4-69.2,6.7-68.4,6.9l1.5,0.6c0.6,0.2,31.2-3.4,66.5-5.4C420.1,165,572,237.5,326.2,293.8
		c-18.9,4.3-38.8,8.4-57.1,12.7c-4.2,1-10.8,2.3-11.7,3.6c-0.9,1.3,2.7,3.8,11.3,3c6.3-0.6,12.3-1.6,17.9-2.4
		c18.3-2.8,35.3-6.1,50.6-9.7C605.7,239.1,437.4,160.8,171,177.5z"/>
	
		<linearGradient id="SVGID_00000132077623923776491620000004247795799902143622_" gradientUnits="userSpaceOnUse" x1="234.0194" y1="382.7206" x2="327.9666" y2="157.9172" gradientTransform="matrix(1 0 0 -1 6 506)">
		<stop  offset="0" style="stop-color:#F79128"/>
		<stop  offset="0.5" style="stop-color:#D85826"/>
		<stop  offset="1" style="stop-color:#BA2025"/>
	</linearGradient>
	<path style="fill-rule:evenodd;clip-rule:evenodd;fill:url(#SVGID_00000132077623923776491620000004247795799902143622_);" d="
		M255.2,302.3c3.9,0.1,11.4-1,14.6-1.4c19.4-2.5,37-5.9,52.5-9.5c238-54.3,91.8-124.7-152.1-110.9c-34.7,1.9-63.9,5.8-63.1,5.9
		l1.5,0.6c0.6,0.2,28.9-2.8,61.2-4.5c227.3-11.8,357.1,52.9,141.4,101.6c-16.3,3.7-33.5,7.2-49.3,10.9c-4.4,1-9.1,2.2-11.7,3.4
		C247.8,299.7,248.4,302.1,255.2,302.3z"/>
	
		<linearGradient id="SVGID_00000086689536826481413780000005911653256718664369_" gradientUnits="userSpaceOnUse" x1="225.6009" y1="372.5424" x2="306.9617" y2="174.7106" gradientTransform="matrix(1 0 0 -1 6 506)">
		<stop  offset="0" style="stop-color:#F79128"/>
		<stop  offset="0.5" style="stop-color:#D85826"/>
		<stop  offset="1" style="stop-color:#BA2025"/>
	</linearGradient>
	<path style="fill-rule:evenodd;clip-rule:evenodd;fill:url(#SVGID_00000086689536826481413780000005911653256718664369_);" d="
		M248,290.6c4.2,0.2,10.4-0.8,14-1.2c16.4-2,31.4-4.9,44.4-7.9c206-46.4,83.2-108.8-136.5-97.8c-31.4,1.6-58,4.8-57.3,5l1.5,0.6
		c0.6,0.2,26.4-2.3,55.4-3.5c203.3-8.9,309.8,47.8,125.8,88.5c-14.4,3.2-29.6,6.2-43,9.5c-3.8,0.9-8.8,2.1-10.2,3.2
		C240.5,288.2,241.8,290.3,248,290.6L248,290.6z"/>
	
		<linearGradient id="SVGID_00000170275682750688171370000018027621274882305696_" gradientUnits="userSpaceOnUse" x1="217.8648" y1="363.7193" x2="287.1261" y2="191.0458" gradientTransform="matrix(1 0 0 -1 6 506)">
		<stop  offset="0" style="stop-color:#F79128"/>
		<stop  offset="0.5" style="stop-color:#D85826"/>
		<stop  offset="1" style="stop-color:#BA2025"/>
	</linearGradient>
	<path style="fill-rule:evenodd;clip-rule:evenodd;fill:url(#SVGID_00000170275682750688171370000018027621274882305696_);" d="
		M250.5,278.6c13.8-1.4,27.5-3.7,41-6.8c177-39,75.9-94.2-122.4-85.9c-28.5,1.2-52.9,3.9-52.1,4.1l1.5,0.6
		c0.6,0.2,24.2-1.7,50.2-2.6c182-6.3,266.8,43.2,111.5,76.5c-14.1,3.1-30.7,6-42,9.5C231.7,276,236.9,280,250.5,278.6L250.5,278.6z"
		/>
	
		<linearGradient id="SVGID_00000015349642083615776590000006105044093795362732_" gradientUnits="userSpaceOnUse" x1="210.4041" y1="353.6395" x2="266.8986" y2="207.7076" gradientTransform="matrix(1 0 0 -1 6 506)">
		<stop  offset="0" style="stop-color:#F79128"/>
		<stop  offset="0.5" style="stop-color:#D85826"/>
		<stop  offset="1" style="stop-color:#BA2025"/>
	</linearGradient>
	<path style="fill-rule:evenodd;clip-rule:evenodd;fill:url(#SVGID_00000015349642083615776590000006105044093795362732_);" d="
		M228.5,265.5c3,2,7.7,2.1,17.6,1.1c10.1-1.1,20.2-2.6,30.1-4.7c147-31,68.4-78.2-107.2-72.7c-25.4,0.8-47.2,2.9-46.6,3.1l1.5,0.6
		c0.6,0.2,21.8-1.2,44.6-1.6c159.5-3.6,221.8,38.1,96.2,63.2c-10.3,2.1-21.4,4.1-30,6.5C230.2,262.2,226.4,264.1,228.5,265.5z"/>
	
		<linearGradient id="SVGID_00000094575894810601974410000002570197227744455593_" gradientUnits="userSpaceOnUse" x1="202.161" y1="344.6506" x2="246.7543" y2="224.3234" gradientTransform="matrix(1 0 0 -1 6 506)">
		<stop  offset="0" style="stop-color:#F79128"/>
		<stop  offset="0.5" style="stop-color:#D85826"/>
		<stop  offset="1" style="stop-color:#BA2025"/>
	</linearGradient>
	<path style="fill-rule:evenodd;clip-rule:evenodd;fill:url(#SVGID_00000094575894810601974410000002570197227744455593_);" d="
		M229.9,255.5c10.4-0.1,22.8-2.1,30.4-3.6c117.9-23.2,61.5-63.2-92.2-60.2c-22.3,0.4-41.9,2-41.1,2.2l1.5,0.6
		c0.6,0.2,19.4-0.6,39.2-0.7c137.8-1,178,33.4,81.1,50.8c-8.9,1.6-23.8,3.9-26.7,6.3C220.1,252.2,219,255.6,229.9,255.5L229.9,255.5
		z"/>
	
		<linearGradient id="SVGID_00000080903056210563038090000004713722566219883920_" gradientUnits="userSpaceOnUse" x1="194.2004" y1="335.3154" x2="226.0271" y2="242.0922" gradientTransform="matrix(1 0 0 -1 6 506)">
		<stop  offset="0" style="stop-color:#F79128"/>
		<stop  offset="0.5" style="stop-color:#D85826"/>
		<stop  offset="1" style="stop-color:#BA2025"/>
	</linearGradient>
	<path style="fill-rule:evenodd;clip-rule:evenodd;fill:url(#SVGID_00000080903056210563038090000004713722566219883920_);" d="
		M232.5,233.5c-8.7,1.2-16.7,2.6-20,4.6c-2.6,1.6-0.2,3.8,6.5,4.5c7.4,0.8,18.5-0.5,25.2-1.6c89-14.9,55.1-47-77-46.8
		c-19.2,0-36.5,1.1-35.7,1.3l1.5,0.6c0.6,0.2,17.1-0.1,33.8,0.2C283,197.8,300.6,224.5,232.5,233.5z"/>
	
		<linearGradient id="SVGID_00000071526162052034843340000003680599561197129119_" gradientUnits="userSpaceOnUse" x1="186.6583" y1="326.1302" x2="207.0706" y2="259.1049" gradientTransform="matrix(1 0 0 -1 6 506)">
		<stop  offset="0" style="stop-color:#F79128"/>
		<stop  offset="0.5" style="stop-color:#D85826"/>
		<stop  offset="1" style="stop-color:#BA2025"/>
	</linearGradient>
	<path style="fill-rule:evenodd;clip-rule:evenodd;fill:url(#SVGID_00000071526162052034843340000003680599561197129119_);" d="
		M166.7,199c37.8,1.8,79.1,7.2,77,16.8c-0.4,1.8-2.7,3.7-8.6,5.3c-6.7,1.7-18.1,2-25.5,3.5c-7.4,1.6-6.6,3.6-1.9,5
		c4.4,1.3,12.3,2.1,21,1.1c60.5-6.8,48.8-31.4-61.5-33.7c-16.1-0.3-30.9,0.2-30.3,0.3l1.5,0.6C139,198.1,153,198.3,166.7,199
		L166.7,199z"/>
	
		<linearGradient id="SVGID_00000163781363240933397400000000183270190933591711_" gradientUnits="userSpaceOnUse" x1="177.5025" y1="317.8539" x2="189.6561" y2="272.9539" gradientTransform="matrix(1 0 0 -1 6 506)">
		<stop  offset="0" style="stop-color:#F79128"/>
		<stop  offset="0.5" style="stop-color:#D85826"/>
		<stop  offset="1" style="stop-color:#BA2025"/>
	</linearGradient>
	<path style="fill-rule:evenodd;clip-rule:evenodd;fill:url(#SVGID_00000163781363240933397400000000183270190933591711_);" d="
		M165.8,202.3c15.2,1.4,30.4,3.2,40.4,6c5.5,1.6,19,6.2,2,7.5c-5.9,0.5-8.5,0.9-9.1,2.3c-0.5,1.2,2.8,2.8,6.5,3.6
		c6.2,1.3,18.3-0.8,23.4-2c11.8-2.9,6.5-7.3,0.7-9.9c-11.9-5.2-37.1-8.2-63.4-9.6c-13-0.7-25.5-0.7-24.8-0.6l1.5,0.6
		c0.6,0.2,12.3,0.9,22.9,1.9L165.8,202.3z"/>
	<path class="st0" d="M33.4,357.3c-2.9,0-5.1-0.5-6.5-1.4v-22.5c2-1,4.1-1.4,6.3-1.4c7,0,10,5.1,10,12.5
		C43.1,351.9,40.3,357.3,33.4,357.3z M33.2,335.1c-0.8,0-1.5,0.1-2.2,0.4v18.4c0.8,0.3,1.5,0.4,2.3,0.4c4,0,5.5-3,5.5-9.7
		C38.8,338.2,37.1,335.1,33.2,335.1L33.2,335.1z"/>
	<path class="st0" d="M49.9,349c0.4,3.6,2,5.3,5.1,5.3c1.6,0,3.2-0.3,4.6-1.1l1,2.7c-1.9,1-4,1.4-6.1,1.3c-5.3,0-8.6-3.5-8.6-10
		c0-6.4,3.1-9.9,7.9-9.9c4.8,0,7.6,3.4,7.4,9.8L49.9,349L49.9,349z M53.6,340.2c-2.4,0-4.1,2.1-4,6.7l7.7-1.2
		C57.3,341.7,55.9,340.2,53.6,340.2L53.6,340.2z"/>
	<path class="st0" d="M63.8,329.4h4.5v27.9h-4.5V329.4z"/>
	<path class="st0" d="M74.1,334.7c-1.2-0.1-2-1.2-1.9-2.4c0.1-1.2,1.2-2,2.4-1.9c1.1,0.1,1.9,1.1,1.9,2.2
		C76.4,333.7,75.3,334.7,74.1,334.7L74.1,334.7z M71.9,357.3V338h4.2v19.4H71.9z"/>
	<path class="st0" d="M88.4,357.3h-4l-6.1-18.9h4.6l3.3,12.2c0.2,0.8,0.4,1.7,0.5,2.6h0.1c0.1-0.9,0.3-1.7,0.5-2.6l3.4-12.2h4
		L88.4,357.3L88.4,357.3z"/>
	<path class="st0" d="M98.8,349c0.4,3.6,2.1,5.3,5.3,5.3c1.7,0,3.4-0.3,4.9-1.1l1,2.7c-2,1-4.2,1.4-6.5,1.3c-5.6,0-9.1-3.5-9.1-10
		c0-6.2,3.3-9.9,8.4-9.9c5.1,0,8,3.4,7.8,9.8L98.8,349L98.8,349z M102.7,340.2c-2.6,0-4.4,2.1-4.2,6.7l8.1-1.2
		C106.6,341.7,105.2,340.2,102.7,340.2z"/>
	<path class="st0" d="M121.6,340.7c-1.3-0.5-2.7-0.4-4,0.2v16.4h-4.2v-18.4c1.9-1,4.3-1.5,9-1.4L121.6,340.7L121.6,340.7z"/>
	<path class="st0" d="M126.4,334.7c-1.2-0.1-2-1.2-1.9-2.4c0.1-1.2,1.2-2,2.4-1.9c1.1,0.1,1.9,1.1,1.9,2.2
		C128.7,333.7,127.6,334.7,126.4,334.7L126.4,334.7z M124.2,357.3V338h4.2v19.4H124.2z"/>
	<path class="st0" d="M142.3,357.3v-13.8c0-1.6-0.7-3.2-3.5-3.2c-1,0-2.1,0.2-3,0.5v16.4h-4.4v-18.4c2.4-1,5-1.5,7.6-1.4
		c5.8,0,7.7,2.8,7.7,5.9v13.8L142.3,357.3L142.3,357.3z"/>
	<path class="st0" d="M157,364.5c-2.2,0.1-4.4-0.4-6.5-1.3l1.2-2.8c1.4,0.7,3,1.1,4.5,1.1c3.2,0,4.4-1.7,4.4-4.2v-1.2
		c-1.1,0.5-2.3,0.8-3.5,0.7c-4.5,0-7.6-3.5-7.6-9.2c0-6.1,3.1-10.1,9.2-10.1c2.1-0.1,4.3,0.4,6.2,1.4v18
		C164.8,361.9,161.7,364.5,157,364.5L157,364.5z M160.6,340.5c-0.7-0.3-1.5-0.5-2.2-0.4c-3.3,0-4.7,2.7-4.7,7.4
		c0,4.7,1.3,6.9,4.5,6.9c0.8,0,1.7-0.2,2.4-0.6L160.6,340.5L160.6,340.5z"/>
	<path class="st0" d="M180.1,364.6H178l3.2-7.4l-6.5-18.7h2.1l4.7,14.7c0.2,0.7,0.4,1.4,0.5,2.1h0.1c0,0,0.2-0.9,0.5-2.1l4.8-14.7
		h1.8L180.1,364.6L180.1,364.6z"/>
	<path class="st0" d="M197.8,357.3c-4.9,0-6.8-4.3-6.8-9.9c0-5.6,1.9-9.9,6.7-9.9c4.8,0,6.8,4.3,6.8,10
		C204.5,353.2,202.6,357.3,197.8,357.3L197.8,357.3z M197.8,338.7c-4.2,0-5,4.7-5,8.7c0,4,0.9,8.5,5,8.5c4.1,0,4.9-4.4,4.9-8.5
		C202.7,343.4,201.9,338.7,197.8,338.7z"/>
	<path class="st0" d="M214,357.3c-4.3,0-5.9-2.5-5.9-5.8v-13.1h1.8v13c0,2.6,1.4,4.5,4.3,4.5c1.3,0.1,2.6-0.3,3.8-0.9v-16.6h1.8
		v17.4C218,356.8,216,357.4,214,357.3L214,357.3z"/>
	<path class="st0" d="M231,339.1c-1.6-0.5-3.3-0.3-4.8,0.5v16.8h-1.9v-17.6c1.8-0.9,3-1.3,7.2-1.3L231,339.1z"/>
	<path class="st0" d="M243.2,348.2c0.3,5.1,2.5,7.6,6.1,7.6c1.5,0,3.1-0.4,4.4-1.1l0.6,1.4c-1.5,0.8-3.3,1.3-5,1.2
		c-4.4,0-7.9-2.8-7.9-10c0-6.8,3.1-9.9,6.9-9.9c3.9,0,6.6,2.6,6.6,9L243.2,348.2L243.2,348.2z M248.4,338.9c-2.9,0-5.2,2.3-5.2,8.2
		l10-1.6C253.2,340.7,251.3,338.9,248.4,338.9z"/>
	<path class="st0" d="M258.6,329.4h1.8v27.9h-1.8V329.4z"/>
	<path class="st0" d="M265.9,348.2c0.3,5.1,2.7,7.6,6.5,7.6c1.6,0,3.3-0.4,4.7-1.1l0.6,1.4c-1.6,0.8-3.5,1.3-5.3,1.2
		c-4.7,0-8.4-2.8-8.4-10c0-6.8,3.3-9.9,7.4-9.9c4.1,0,7,2.6,7,9L265.9,348.2L265.9,348.2z M271.4,338.9c-3.1,0-5.6,2.3-5.6,8.2
		l10.7-1.6C276.5,340.7,274.5,338.9,271.4,338.9L271.4,338.9z"/>
	<path class="st0" d="M287.9,357.3c-3.9,0-6.8-3.9-6.8-9.9s2.8-9.9,6.9-9.9c1.4-0.1,2.8,0.3,3.9,1.2l-0.5,1.2c-0.9-0.7-2-1.1-3.1-1
		c-3.9,0-5.3,3.6-5.3,8.3c0,4.7,1.8,8.5,5.2,8.5c1.1,0,2.2-0.4,3.1-1l0.6,1.3C290.7,357,289.3,357.4,287.9,357.3L287.9,357.3z"/>
	<path class="st0" d="M299.8,357.3c-3,0-4-2.4-4-4.4v-13.5h-2.1v-1.1h2.1v-4.5l1.8-0.7v5.2h3.3v1.1h-3.3V353c0,1.6,0.7,3,2.6,3
		c0.3,0,0.5,0,0.7-0.1v1.2C300.6,357.3,300.2,357.3,299.8,357.3L299.8,357.3z"/>
	<path class="st0" d="M310.3,339.1c-1.6-0.5-3.3-0.3-4.8,0.5v16.8h-1.9v-17.6c1.8-0.9,3-1.3,7.2-1.3L310.3,339.1z"/>
	<path class="st0" d="M314.5,333.8c-0.5,0-0.9-0.6-0.9-1.3c0-0.7,0.4-1.3,0.9-1.3s0.9,0.6,0.9,1.3
		C315.4,333.2,315,333.8,314.5,333.8L314.5,333.8z M313.8,357.3v-19.4h1.4v19.4H313.8z"/>
	<path class="st0" d="M325.8,357.3c-3.9,0-6.8-3.9-6.8-9.9s2.8-9.9,6.9-9.9c1.4-0.1,2.8,0.3,3.9,1.2l-0.6,1.2c-0.9-0.7-2-1.1-3.1-1
		c-3.9,0-5.3,3.6-5.3,8.3s1.8,8.5,5.2,8.5c1.1,0,2.2-0.4,3.1-1l0.6,1.3C328.5,357,327.2,357.4,325.8,357.3z"/>
	<path class="st0" d="M333.8,333.8c-0.7,0-1.4-0.6-1.4-1.3c0-0.7,0.6-1.3,1.4-1.3s1.4,0.6,1.4,1.3
		C335.2,333.2,334.6,333.8,333.8,333.8L333.8,333.8z M332.8,357.3v-19.4h2v19.4H332.8z"/>
	<path class="st0" d="M344.7,357.3c-3.3,0-4.4-2.4-4.4-4.4v-13.5h-2.3v-1.1h2.4v-4.5l2-0.7v5.2h3.7v1.1h-3.7V353c0,1.6,0.8,3,2.9,3
		c0.3,0,0.5,0,0.8-0.1v1.2C345.6,357.3,345.1,357.3,344.7,357.3L344.7,357.3z"/>
	<path class="st0" d="M352.3,364.6h-2.1l3.2-7.4l-6.5-18.7h2.1l4.7,14.8c0.2,0.7,0.4,1.4,0.5,2.1h0.1c0,0,0.2-0.9,0.5-2.1l4.8-14.7
		h1.8L352.3,364.6z"/>
</g>
</svg>
