<?xml version="1.0" encoding="utf-8"?>
<!-- Generator: Adobe Illustrator 28.0.0, SVG Export Plug-In . SVG Version: 6.00 Build 0)  -->
<svg version="1.1" id="Layer_1" xmlns="http://www.w3.org/2000/svg" xmlns:xlink="http://www.w3.org/1999/xlink" x="0px" y="0px"
	 viewBox="0 0 500 500" style="enable-background:new 0 0 500 500;" xml:space="preserve">
<style type="text/css">
	.st0{fill:#FFFFFF;}
</style>
<g>
	<path d="M458.4,376.8h-2.1v21.6h2.1V387h0.1l10.8,11.5h3.3L461,386.7l10.9-9.8h-3.1l-10.3,9.7h-0.1L458.4,376.8z M450,393.8
		c-0.7,1-1.7,1.9-2.8,2.5c-1.1,0.5-2.3,0.8-3.6,0.8c-1.3,0-2.6-0.2-3.7-0.8c-1-0.5-2-1.2-2.8-2c-0.8-0.9-1.4-1.9-1.8-3
		c-0.9-2.3-0.9-4.8,0-7.2c0.4-1.1,1-2.1,1.8-3c1.7-1.8,4.1-2.9,6.6-2.8c0.7,0,1.3,0.1,1.9,0.2c0.6,0.1,1.1,0.4,1.7,0.6
		c0.5,0.2,0.9,0.6,1.4,0.9c0.4,0.3,0.7,0.7,0.9,1l1.8-1.4c-0.4-0.6-0.9-1-1.4-1.4c-0.6-0.4-1.2-0.8-1.8-1c-0.7-0.3-1.4-0.6-2.1-0.7
		c-0.8-0.1-1.5-0.2-2.3-0.2c-1.5,0-3.1,0.3-4.5,0.9c-1.4,0.6-2.6,1.4-3.6,2.3c-2.1,2.1-3.3,5.1-3.2,8.1c0,1.5,0.3,3.1,0.9,4.5
		c0.6,1.4,1.3,2.6,2.3,3.6c1,1,2.2,1.8,3.6,2.4c1.4,0.6,2.9,0.9,4.5,0.9c0.9,0,1.8-0.1,2.7-0.3c0.8-0.2,1.5-0.5,2.3-0.9
		c0.7-0.4,1.3-0.8,1.8-1.3c0.5-0.5,0.9-1,1.4-1.5L450,393.8z M427.5,376.8h-2.1v21.6h2.1V376.8z M394.8,376.8h-2.3l6.4,21.6h2.6
		l5.4-18.5h0.1l5.4,18.5h2.6l6.4-21.6h-2.3l-5.3,18.5h-0.1l-5.4-18.5h-2.6l-5.4,18.5H400L394.8,376.8z M377.7,378.7h3.9
		c0.7,0,1.5,0.1,2.2,0.2c0.6,0.1,1.2,0.4,1.7,0.7c0.5,0.3,0.9,0.7,1.1,1.2c0.3,0.6,0.4,1.2,0.4,1.8c0.1,1.2-0.5,2.3-1.4,2.9
		c-1.2,0.7-2.6,1-4.1,1h-3.8L377.7,378.7L377.7,378.7z M377.7,388.3h3.7l6,10.1h2.6l-6.3-10.3c0.7-0.1,1.5-0.2,2.1-0.6
		c0.7-0.2,1.2-0.7,1.7-1.2c0.5-0.5,0.9-1,1.2-1.7c0.3-0.7,0.4-1.4,0.4-2.1c0.1-0.9-0.2-1.8-0.6-2.6c-0.4-0.7-0.9-1.4-1.5-1.8
		c-0.7-0.5-1.5-0.8-2.3-1c-1-0.2-2-0.3-2.9-0.3h-6.3v21.6h2.1L377.7,388.3L377.7,388.3z M361.6,379.3l4.8,11.5h-9.5L361.6,379.3z
		 M356.1,392.7h11.2l2.3,5.6h2.5l-9.3-21.6h-2.1l-9.3,21.6h2.4L356.1,392.7z M326,376.8h-2.3l6.4,21.6h2.5l5.4-18.5h0.1l5.4,18.5
		h2.6l6.3-21.6H350l-5.3,18.5l0,0l-5.4-18.5h-2.6l-5.4,18.5h-0.1L326,376.8z M303.3,388.2h10.1v-2h-10.1v-7.4h10.8v-2h-13v21.6h2.1
		L303.3,388.2z M293.2,391.3c-0.4,1.1-1,2.1-1.8,3c-1.7,1.8-4.1,2.8-6.6,2.8c-1.3,0-2.6-0.2-3.7-0.8c-2.1-1-3.8-2.8-4.6-5
		c-0.8-2.3-0.8-4.8,0-7.2c0.8-2.2,2.5-4.1,4.6-5c1.2-0.6,2.5-0.8,3.7-0.7c1.3,0,2.6,0.2,3.7,0.7c1,0.5,2,1.2,2.8,2.1
		c0.8,0.9,1.4,1.9,1.8,3C294.1,386.4,294.1,388.9,293.2,391.3 M295.3,383.1c-0.6-1.4-1.4-2.6-2.3-3.6c-1-1-2.3-1.8-3.6-2.3
		c-1.4-0.6-2.9-0.9-4.5-0.9c-1.5,0-3.1,0.3-4.5,0.9c-1.4,0.6-2.5,1.4-3.6,2.3c-1,1-1.8,2.3-2.3,3.6c-0.6,1.5-0.9,3-0.9,4.5
		c0,1.5,0.3,3.1,0.9,4.5c0.6,1.4,1.4,2.6,2.3,3.6c1,1,2.2,1.8,3.6,2.4c2.9,1.1,6.1,1.1,9,0c1.4-0.6,2.6-1.4,3.6-2.4
		c1-1,1.8-2.3,2.3-3.6C296.4,389.3,296.4,386,295.3,383.1 M256.4,389.1l8-12.3h-2.6l-6.6,10.4l-6.5-10.4H246l8.1,12.3v9.3h2.2
		L256.4,389.1z M236.4,378.8h7.2v-2H227v2h7.2v19.6h2.1V378.8z M223.9,376.9h-2.1v21.5h2.1V376.9z M216.9,378.9
		c-0.6-0.8-1.4-1.4-2.3-1.8c-1.2-0.6-2.5-0.8-3.7-0.8c-0.8,0-1.6,0.1-2.4,0.3c-0.8,0.2-1.5,0.6-2.2,1.1c-0.7,0.5-1.2,1.1-1.6,1.8
		c-0.4,0.9-0.6,1.8-0.6,2.7c0,0.9,0.2,1.7,0.5,2.5c0.3,0.7,0.8,1.2,1.4,1.7c0.6,0.4,1.2,0.8,1.8,1.1c0.7,0.3,1.4,0.6,2.1,0.8
		s1.4,0.4,2,0.7c0.6,0.2,1.2,0.5,1.7,0.9c0.5,0.3,0.9,0.7,1.2,1.2c0.6,1.2,0.6,2.5,0,3.7c-0.3,0.5-0.7,0.9-1.2,1.3
		c-0.4,0.4-1,0.7-1.5,0.8c-0.6,0.2-1.1,0.2-1.7,0.2c-1,0-2.1-0.2-2.9-0.8c-0.8-0.5-1.5-1.1-2-1.9l-1.9,1.4c0.4,0.5,0.9,1,1.4,1.4
		c0.5,0.4,1,0.7,1.7,1c0.6,0.3,1.2,0.5,1.8,0.6c0.6,0.1,1.3,0.2,2,0.2c0.9,0,1.7-0.1,2.6-0.4c0.8-0.2,1.6-0.6,2.3-1.2
		c0.7-0.5,1.2-1.2,1.6-1.9c0.4-0.9,0.6-1.8,0.6-2.8c0.1-1.7-0.7-3.4-2.1-4.4c-0.6-0.4-1.4-0.8-2.1-1.1c-0.7-0.3-1.5-0.6-2.3-0.8
		c-0.6-0.2-1.2-0.4-1.7-0.6c-0.6-0.2-1-0.4-1.5-0.8c-0.4-0.3-0.8-0.7-1-1.2c-0.3-0.5-0.4-1.1-0.4-1.7c0-0.6,0.1-1.2,0.4-1.8
		c0.2-0.5,0.6-0.9,1.1-1.2c0.4-0.3,0.9-0.6,1.5-0.7s1.1-0.2,1.6-0.2c0.9-0.1,1.8,0.2,2.6,0.6c0.7,0.4,1.4,0.9,1.8,1.5L216.9,378.9z
		 M188.3,378.7h3.9c0.7,0,1.5,0.1,2.2,0.2c0.6,0.1,1.2,0.4,1.7,0.7c0.5,0.3,0.9,0.7,1.1,1.2c0.3,0.6,0.4,1.2,0.4,1.8
		c0.1,1.2-0.5,2.3-1.5,2.9c-1.2,0.7-2.6,1-4.1,1h-3.8L188.3,378.7L188.3,378.7z M188.3,388.3h3.7l6,10.1h2.7l-6.3-10.3
		c0.7-0.1,1.5-0.2,2.1-0.6c0.7-0.2,1.2-0.7,1.7-1.2c0.5-0.5,0.9-1,1.2-1.7c0.3-0.7,0.4-1.4,0.4-2.1c0.1-0.9-0.2-1.8-0.6-2.6
		c-0.4-0.7-0.9-1.3-1.5-1.8c-0.7-0.5-1.5-0.8-2.4-1c-1-0.2-2-0.3-2.9-0.3h-6.3v21.6h2.1L188.3,388.3L188.3,388.3z M170,388.1h10.4
		v-2H170v-7.4h11.1v-2h-13.4v21.6h13.8v-2H170L170,388.1z M148.1,376.8h-2.4l8.2,21.6h2.3l8.2-21.6h-2.4l-7,18.7h-0.1L148.1,376.8z
		 M142,376.8h-2.1v21.6h2.1V376.8z M119.9,376.8h-2.8v21.6h2.2v-18.5h0.1l12.6,18.5h2.7v-21.6h-2.2v18.4h-0.1L119.9,376.8z
		 M108,398.1c1-0.5,1.8-1.2,2.5-2.1c0.6-0.9,1-1.8,1.2-2.8c0.2-0.9,0.3-1.9,0.3-2.8V377h-2.1v13.3c0,0.9-0.1,1.7-0.3,2.6
		c-0.2,0.8-0.6,1.5-1,2.2c-0.5,0.7-1.1,1.2-1.8,1.5c-0.9,0.4-1.8,0.6-2.8,0.6c-1,0.1-1.9-0.2-2.8-0.6c-0.7-0.4-1.4-0.9-1.8-1.5
		c-0.4-0.7-0.8-1.4-1-2.2c-0.2-0.9-0.3-1.7-0.3-2.6V377h-2.2v13.5c0,1,0.1,1.9,0.3,2.8c0.2,1,0.6,2,1.2,2.8c0.7,0.9,1.5,1.6,2.5,2.1
		c1.2,0.6,2.6,0.9,4,0.9c1.4,0.1,2.8-0.2,4-0.9 M72.1,388.1h10.4v-2H72.1v-7.4h11.2v-2H69.8v21.6h13.8v-2H72.1L72.1,388.1
		L72.1,388.1z M48.1,398.4h2.1v-10.3h11.8v10.2h2.2v-21.5h-2.2v9.4H50.3v-9.3h-2.1V398.4z M36.9,378.8h7.2v-2H27.5v2h7.2v19.6h2.1
		L36.9,378.8L36.9,378.8z"/>
	<path d="M95.4,355.2l19.7-67.2h-6.6l-17.1,59.5l-15.8-53.8h-8.2l-16.1,53.8L34.2,288h-6.6l19.7,67.2h7.9l16.3-54.1l16,54.1H95.4z
		 M329.5,355.2h6.4V288h-6.4V355.2z M329.5,355.2h6.4V288h-6.4V355.2z M329.5,355.2h6.4V288h-6.4V355.2z M463.3,355.2h9.2L437,321.6
		l33.6-33.6h-8.8l-34.3,33.6L463.3,355.2z"/>
	<rect x="417.5" y="288" width="6.4" height="67.2"/>
	<path d="M144.1,288h-6l-30,67.2h6.7l7.7-17.9h37.1l7.7,17.9h6.7L144.1,288z M125.1,331.7l16-36.8l16,36.8H125.1z"/>
	<path d="M144.1,288h-6l-30,67.2h6.7l7.7-17.9h37.1l7.7,17.9h6.7L144.1,288z M125.1,331.7l16-36.8l16,36.8H125.1z"/>
	<polygon points="299,355.2 318.7,288 312.1,288 295,347.5 279.5,293.7 270.7,293.7 254.9,347.5 237.8,288 231.2,288 251,355.2 
		258.8,355.2 275.1,301.1 291.1,355.2 	"/>
	<path d="M382.8,351.2c-18,0-29.2-12.9-29.2-29.7l0,0c0-16.7,11.2-29.8,29.2-29.8c6.9,0,15.5,3.2,20.3,10.4l5.2-3.9
		c-6.5-8.7-15.5-12.2-25.5-12.2c-21,0-35.5,15-35.5,35.5l0,0c0,20.5,14.5,35.4,35.5,35.4c10.1,0,19-3.5,25.5-12.3l-5.2-3.9
		C398.2,348,389.7,351.2,382.8,351.2z"/>
	<path d="M207.8,323.9c7.5-1.3,16.9-5.2,16.9-17.7c0-17.7-17.9-18.2-23.3-18.2h-19.3v67.2h6.4v-61.5h13.8c13.5,0,16,7.9,16,12.6
		c0,4.7-2.6,12.6-16,12.6H195v5.7h6.4l18.4,30.7h7.3L207.8,323.9z"/>
	<polygon class="st0" points="94.8,101 181.9,254.5 250.4,133.4 319.2,254.5 405.9,101 	"/>
	<polygon id="SVGID" points="94.8,101 181.9,254.5 250.4,133.4 319.2,254.5 405.9,101 	"/>
</g>
</svg>
