<?xml version="1.0" encoding="utf-8"?>
<!-- Generator: Adobe Illustrator 24.0.1, SVG Export Plug-In . SVG Version: 6.00 Build 0)  -->
<svg version="1.1" id="Layer_1" xmlns="http://www.w3.org/2000/svg" xmlns:xlink="http://www.w3.org/1999/xlink" x="0px" y="0px"
	 viewBox="0 0 600 800" style="enable-background:new 0 0 600 800;" xml:space="preserve">
<style type="text/css">
	.st0{font-family:'OpenSans';}
	.st1{font-size:20.2678px;}
	.st2{fill:#A7AB3D;}
	.st3{fill:#E52421;}
	.st4{fill:#EFD45B;}
	.st5{fill:#5E54A0;}
	.st6{fill:#F3911A;}
	.st7{fill:#F8DBAC;}
	.st8{fill:#EECEE4;}
	.st9{fill:#DEB64D;}
	.st10{fill:#9DCFAC;}
	.st11{fill:#6C270D;}
	.st12{fill:#CF6714;}
	.st13{fill:#F3E600;}
	.st14{fill:#657232;}
	.st15{fill:#A1943F;}
	.st16{fill:#A8C09F;}
	.st17{fill:#96C11E;}
	.st18{fill:#8CC265;}
	.st19{fill:#A7CA5B;}
	.st20{fill:#D9D9D9;}
	.st21{fill:#BA8591;}
	.st22{fill:#A664A5;}
	.st23{fill:#29A951;}
	.st24{fill:#5F5F5E;}
	.st25{fill:#2D509F;}
	.st26{fill:#945415;}
	.st27{fill:#375624;}
</style>
<g>
	<text transform="matrix(1 0 0 1 105.2316 53.2777)"><tspan x="0" y="0" class="st0 st1">Spring Barley</tspan><tspan x="0" y="24.32" class="st0 st1">Beet</tspan><tspan x="0" y="48.64" class="st0 st1">Daffodil</tspan><tspan x="0" y="72.96" class="st0 st1">Spring Linseed</tspan><tspan x="0" y="97.29" class="st0 st1">Maize</tspan><tspan x="0" y="121.61" class="st0 st1">Spring Oats</tspan><tspan x="0" y="145.93" class="st0 st1">Onions</tspan><tspan x="0" y="170.25" class="st0 st1">Spring Wheat</tspan><tspan x="0" y="194.57" class="st0 st1">Sping Cabbage</tspan><tspan x="0" y="218.89" class="st0 st1">Potato</tspan><tspan x="0" y="243.21" class="st0 st1">Mixed Crop-Group 1</tspan><tspan x="0" y="267.54" class="st0 st1">Winter Barley</tspan><tspan x="0" y="291.86" class="st0 st1">Winter Oats</tspan><tspan x="0" y="316.18" class="st0 st1">Winter Wheat</tspan><tspan x="0" y="340.5" class="st0 st1">Winter Oilseed</tspan><tspan x="0" y="364.82" class="st0 st1">Winter Rye</tspan><tspan x="0" y="389.14" class="st0 st1">Winter Triticale</tspan><tspan x="0" y="413.46" class="st0 st1">Spring Field Beans</tspan><tspan x="0" y="437.79" class="st0 st1">Spring Peas</tspan><tspan x="0" y="462.11" class="st0 st1">Soya</tspan><tspan x="0" y="486.43" class="st0 st1">Lucerne</tspan><tspan x="0" y="510.75" class="st0 st1">Winter Field Beans</tspan><tspan x="0" y="535.07" class="st0 st1">Fallow Land</tspan><tspan x="0" y="559.39" class="st0 st1">Heathland &amp; Bracken</tspan><tspan x="0" y="583.71" class="st0 st1">Heather</tspan><tspan x="0" y="608.04" class="st0 st1">Grass</tspan><tspan x="0" y="632.36" class="st0 st1">Non-vegetated or Sparsely-vegetated Land</tspan><tspan x="0" y="656.68" class="st0 st1">Water</tspan><tspan x="0" y="681" class="st0 st1">Perennial Crops &amp; Isolated Trees</tspan><tspan x="0" y="705.32" class="st0 st1">Trees &amp; Scrubs, Short Woody Plants, Hedgerows</tspan></text>
	<g>
		<rect x="40.83" y="39.68" class="st2" width="54.05" height="13.51"/>
		<rect x="40.83" y="65.01" class="st3" width="54.05" height="13.51"/>
		<rect x="40.83" y="88.66" class="st4" width="54.05" height="13.51"/>
		<rect x="40.83" y="112.3" class="st5" width="54.05" height="13.51"/>
		<rect x="40.83" y="137.64" class="st6" width="54.05" height="13.51"/>
		<rect x="40.83" y="161.28" class="st7" width="54.05" height="13.51"/>
		<rect x="40.83" y="184.93" class="st8" width="54.05" height="13.51"/>
		<rect x="40.83" y="210.27" class="st9" width="54.05" height="13.51"/>
		<rect x="40.83" y="232.22" class="st10" width="54.05" height="15.2"/>
		<rect x="40.83" y="257.56" class="st11" width="54.05" height="13.51"/>
		<rect x="40.83" y="282.89" class="st12" width="54.05" height="13.51"/>
		<rect x="40.83" y="306.54" class="st2" width="54.05" height="13.51"/>
		<rect x="40.83" y="330.18" class="st7" width="54.05" height="13.51"/>
		<rect x="40.83" y="355.52" class="st9" width="54.05" height="13.51"/>
		<rect x="40.83" y="379.16" class="st13" width="54.05" height="13.51"/>
		<rect x="40.83" y="402.81" class="st14" width="54.05" height="13.51"/>
		<rect x="40.83" y="426.46" class="st15" width="54.05" height="13.51"/>
		<rect x="40.83" y="451.79" class="st16" width="54.05" height="13.51"/>
		<rect x="40.83" y="477.13" class="st17" width="54.05" height="13.51"/>
		<rect x="40.83" y="500.77" class="st18" width="54.05" height="13.51"/>
		<rect x="40.83" y="526.11" class="st19" width="54.05" height="13.51"/>
		<rect x="40.83" y="549.75" class="st16" width="54.05" height="13.51"/>
		<rect x="40.83" y="573.4" class="st20" width="54.05" height="13.51"/>
		<rect x="40.83" y="597.04" class="st21" width="54.05" height="13.51"/>
		<rect x="40.83" y="622.38" class="st22" width="54.05" height="13.51"/>
		<rect x="40.83" y="647.71" class="st23" width="54.05" height="13.51"/>
		<rect x="40.83" y="671.36" class="st24" width="54.05" height="13.51"/>
		<rect x="40.83" y="695" class="st25" width="54.05" height="13.51"/>
		<rect x="40.83" y="720.34" class="st26" width="54.05" height="13.51"/>
		<rect x="40.83" y="743.99" class="st27" width="54.05" height="13.51"/>
	</g>
</g>
</svg>
