<?xml version="1.0" encoding="UTF-8"?>
<svg id="Layer_1" data-name="Layer 1" xmlns="http://www.w3.org/2000/svg" xmlns:xlink="http://www.w3.org/1999/xlink" viewBox="0 0 1047.42 815.66">
  <defs>
    <filter id="drop-shadow-1" filterUnits="userSpaceOnUse">
      <feOffset dx="5" dy="5"/>
      <feGaussianBlur result="blur" stdDeviation="5"/>
      <feFlood flood-color="#000" flood-opacity=".75"/>
      <feComposite in2="blur" operator="in"/>
      <feComposite in="SourceGraphic"/>
    </filter>
  </defs>
  <g id="white" fill="none" filter="url(#drop-shadow-1)">
    <path id="bottom" d="m946.03,392.31c.07-16.67-11.77-30.6-27.52-33.75-2.9-1.39-16.81-.23-19.63,1.84-12.49,5.07-21.34,17.29-21.4,31.61v1.07c.08,1.16-4.48,3.82-10.14,5.92l-157.84,58.53c-5.66,2.1-13.88.43-18.27-3.71,0,0-8.62-8.12-20.65-8.17-18.93-.08-34.35,15.19-34.43,34.13v3.01c.61,3.13-3.35,7.8-8.81,10.37l-157.88,74.4c-5.46,2.57-13.65,1.44-18.2-2.52,0,0-7.93-6.9-19.27-6.95-28.95,0-32.42,23.26-32.42,23.26-2.58,5.45-6.83,10.71-12.78,11.69l-145.16,23.91c-5.95.98-13.86-2.11-17.56-6.87,0,0-10.54-13.54-25.18-13.6-18.93-.08-34.35,15.19-34.43,34.13-.08,18.93,15.19,34.35,34.13,34.43.75,0,1.48-.08,2.21-.15,42.74,52.23,97.05,92.59,157.98,118.35,2.48,16.42,16.57,29.05,33.7,29.13,9.31.04,17.75-3.64,23.96-9.64,32.53,8.35,66.34,12.79,100.81,12.94.64,0,1.23,0,1.87,0,40.52,0,79.68-5.93,116.71-16.91,5.61,4.08,12.49,6.52,19.96,6.56,16.33.07,30.03-11.3,33.54-26.58,51.53-23.53,97.4-57.39,134.95-98.93.69.06,1.39.12,2.11.12,18.93.08,34.35-15.19,34.43-34.13.02-3.63-.54-7.12-1.57-10.41,41.96-61.55,67.63-135.04,70.84-214.28,9.55-6.05,15.92-16.66,15.98-28.8Zm-242.14,96.19s.78-1.66.81-8.43v-1.07c-.08-1.16,4.48-3.82,10.14-5.92l157.84-58.52c5.66-2.1,13.88-.43,18.27,3.71,0,0,.28.26.77.66-2.76,71.08-25.48,137.08-62.69,192.57-.79-.06-1.57-.13-2.37-.13-6.15-.03-6.78.23-6.78.23-5.58,2.3-13.53.58-17.67-3.81l-95.46-101.37c-4.14-4.39-5.43-12.46-2.86-17.92Zm-46.2,34.45c2.97-5.25,7.52-9.19,10.11-8.76h2.46c6.19.04,6.88-.25,6.88-.25,5.57-2.31,13.52-.61,17.65,3.78l95.42,101.33c4.14,4.39,3.97,15.18,3.32,18.28-.65,3.1-6.08,6.23-12.07,6.94l-177.64,21.2c-5.99.71-11.96-.97-13.26-3.75s-3.87-13.18-.9-18.43l68.03-120.34Zm-191.58,70.78c0-5.48,4.08-8.34,9.54-10.91l159.52-75.18c5.46-2.57,9.98-5.51,10.96-3.59s-.25,6.35-3.22,11.6l-67.44,119.31c-2.97,5.25-8.21,8.91-11.64,8.14h-3.33c-9.53-.06-15.33,3.88-15.33,3.88-4.99,3.39-13.17,3.41-18.17.03l-54.04-36.42c-9.59-5.9-6.87-12.66-6.85-16.87Zm-24.42,30.95c4.05-1.01,16.92-3.91,21.92-.54l54.89,36.99c5,3.37,8.42,9.05,7.59,12.61l-.02,3.46-.02,4.25c1.21,4.3-2.04,10.36-7.21,13.47l-91.23,54.75c-5.17,3.1-14.15,1.21-16.28-.1-2.13-1.3-2.81-7.19-1.49-13.08l22.12-99.28c1.31-5.89,5.7-11.53,9.75-12.54Zm-211.16,15.93c3.55-3.62,8.62-6.59,13-7.31l146.69-24.16c5.95-.98,12.98,1.17,15.62,4.78,5.42,4.48,13.65,7.23,9.86,20.54l-21.99,98.7c-1.31,5.89-6.85,12.82-12.3,15.41,0,0-1.02.49-2.59,1.4-57.29-23.22-108.36-60.57-148.3-109.35Zm288.56,136.66c-.56,0-1.13,0-1.7,0-29.25-.13-57.97-3.7-85.71-10.36,1.08-.96,2.29-1.86,3.59-2.64l92.85-55.72c5.17-3.1,13.59-3.03,18.71.16,0,0,4.64,2.9,13.36,2.94,6.9.03,8.76-.84,8.76-.84,5.47-2.55,13.51-1.23,17.87,2.94l32.45,31c4.36,4.17,5.82,12.04,3.23,17.49,0,0-.06.15-.16.48-32.82,9.47-67.46,14.57-103.27,14.57Zm156.34-34.41c-5.5-3.82-12.16-6.08-19.36-6.11-6.1-.03-6.63.19-6.63.19-5.59,2.27-13.73.73-18.09-3.44l-33.21-31.72c-4.36-4.17-7.21-9.17-6.32-11.11s3.2-8.77,13.18-8.77l179.16-21.38c1.68-.2,3.53-.07,5.4.3-32.33,34.07-71.02,62.05-114.12,82.04Z" fill="#fff"/>
    <path id="middle" d="m33.08,619.33c-11.41,0-25.93-2.19-31.31-14.28-6.6-14.82,7.01-28.21,11.48-32.61,6.28-6.19,15.37-13.38,27-21.38,19.15-13.17,38.8-24.19,39.63-24.65,7.23-4.04,16.37-1.46,20.41,5.77,4.04,7.23,1.46,16.37-5.77,20.41-.15.08-15.46,8.67-31.53,19.31-11.08,7.34-18.53,13-23.51,17.22,14.97-1.01,44.76-5.58,103.39-20.85,86.22-22.46,215.2-62.82,383.37-119.97,171.99-58.45,301.59-106.12,385.2-141.68,58.01-24.68,84.57-39.63,96.7-47.99-14.24-.77-37.1.38-58.34,3.29-8.21,1.12-15.77-4.62-16.89-12.83-1.12-8.21,4.62-15.77,12.83-16.89.85-.12,21.16-2.87,42.31-3.64,27.85-1.01,54.25.71,58.81,20.07,4.15,17.57-16.14,30.99-24.8,36.72-16.46,10.88-41.96,23.91-77.96,39.83-83.15,36.77-220.49,87.75-408.21,151.55-183.78,62.45-320.87,104.91-407.47,126.18-37.69,9.26-65.44,14.48-84.83,15.96-2.73.21-6.42.49-10.51.49Z" fill="#fff"/>
    <path id="top" d="m909.78,266.52c-20.19-53.3-50.85-101.28-90.17-141.62-7.15-7.33-14.58-14.42-22.29-21.23-3.86-3.41-7.78-6.75-11.77-10.02-7.98-6.54-16.23-12.82-24.75-18.8-21.77-15.3-44.74-28.35-68.65-39.06C639.56,12.23,582.45,0,523.71,0c-77.88,0-150.78,21.69-213,59.33-16.93-13.12-38.16-20.94-61.23-20.94-55.28,0-100.1,44.81-100.1,100.1,0,23.07,7.83,44.3,20.94,61.23-37.64,62.22-59.33,135.13-59.33,213,0,41.02,6.01,81.54,17.85,120.43,2.7,8.87,10.85,14.58,19.67,14.58,1.98,0,4-.29,6-.9,1.55-.47,5.8-2.06,6.77-2.39l298-101.71c4.28-1.46,9.13-6.11,10.77-10.33l6.8-17.5c1.64-4.22-.42-9.13-4.58-10.92l-137.95-59.27c-4.16-1.79-5.47-6.3-2.91-10.04l27.81-40.65c2.56-3.73,7.79-4.84,11.64-2.46l45.95,28.45c3.85,2.38,4.04,6.56.43,9.29l-13.12,9.9c-3.61,2.73-3.35,6.79.58,9.04l81.7,46.68c3.93,2.24,7.45,7.77,7.83,12.28l1.23,14.74c.38,4.51,4.19,7,8.47,5.54l218.67-74.63c4.28-1.46,6.96-6.27,5.95-10.68l-9.36-40.98c-1.01-4.41,1.81-8.68,6.26-9.49l15.21-2.77c4.45-.81,5.48-4.09,2.28-7.29l-88.27-88.27c-3.2-3.2-9.48-5.29-13.96-4.65l-23.67,3.38c-4.48.64-5.43-1.35-2.11-4.43l23.41-21.67c3.32-3.07,9.21-3.69,13.1-1.37l219.24,131.04c3.88,2.32,10.57,3.02,14.85,1.56l12.32-4.21c10.62-4.03,15.97-15.9,11.95-26.52Zm-267.76-131.93c-3.85-2.38-9.63-1.73-12.86,1.44l-175.23,172.56c-3.22,3.17-8.96,3.75-12.76,1.29l-76.12-49.54c-3.79-2.47-9.02-1.46-11.63,2.24l-184.46,262.5c-.13-1.3-.39-2.61-.78-3.91-10.66-35-16.07-71.48-16.07-108.44,0-67.73,18.23-131.29,50.02-186.03,14.09,7.58,30.21,11.89,47.33,11.89,55.28,0,100.1-44.81,100.1-100.1,0-17.12-4.31-33.24-11.89-47.33,54.74-31.79,118.29-50.02,186.03-50.02,151.39,0,289.26,93.79,345.22,234l-226.9-140.54Z" fill="#fff"/>
  </g>
</svg>