<svg xmlns="http://www.w3.org/2000/svg" width="900" height="900" fill="none"><g clip-path="url(#a)"><path fill="#0A4452" d="M450 900c248.528 0 450-201.472 450-450S698.528 0 450 0 0 201.472 0 450s201.472 450 450 450"/><g fill="#116275" opacity=".75"><path d="M341.5 847c30.2-1.6 56.2-8.8 79.5-22 37.1-20.9 53.6-65.1 38.6-102.6-8.2-20.5-19-39.7-29.4-58.3l-1.3-2.2c-16-28.6-26.8-56.9-32.9-86.5-6.2-29.9-7.1-61-7.9-91-.3-9.4-.5-19.2-1-28.8-1.1-23.8-3-49.2-9.8-74.5-14.8-54.7-47.7-93.1-97.9-113.9-23.4-9.7-49.7-16.6-82.9-21.8-7.3-1.1-14.5-2.2-21.8-3.4-37.4-5.8-75.7-11.7-113.8-18.4-2.2 3.8-4.3 7.6-6.4 11.4 39.7 7.5 79.8 13.4 118.8 19.1l12.3 1.8c32.2 4.8 66.2 10.6 97.5 25.5 32.5 15.5 56.5 39.5 71.4 71.3 14.6 31.2 18.1 64.2 19.6 92.3.6 12.2 1.1 24.6 1.5 36.6.6 17.7 1.3 36 2.6 54.1 3.4 46.1 17.3 90.8 41.2 132.7 7.8 13.6 16.8 29.6 24.3 45.9 20.6 44.5 6.2 84.9-37.6 105.3-18.7 8.7-39.4 13.4-64.9 14.7-41.4 2.1-84.7-5.9-132.3-24.4-18.8-7.3-36.1-13.6-52.4-18.8 8.9 7.7 18.2 15 27.7 22 6.1 2.2 12.3 4.6 18.6 7 52.4 20.7 96.5 29.2 138.7 26.9M515 147.5c2.3 2.8 4.6 5.7 6.9 8.5 30.7 37.7 51.2 75.4 62.6 115.4 7.3 25.6 12.9 52 18.3 77.7l1.5 7C620.8 433.5 656 498.6 709 549.5c18.1 17.4 37.5 33.8 56.4 49.8 2.8 2.4 5.6 4.8 8.4 7.1 27 22.9 49 44.7 67.2 66.6 2-3.4 3.9-6.9 5.8-10.4-20.1-23.9-42.6-46.2-67.3-66.7-27.9-23.2-56.8-47.2-81.6-75.1-29.5-33.3-51.4-70.7-67-114.3-9-24.5-14.5-50.5-19.9-75.5-2.4-11.3-4.9-23.1-7.7-34.6-9.3-38.2-20.5-68.2-35.5-94.3-16.2-28.3-36.4-53.6-55.8-76.7C479.3 86.5 453.8 44.6 435.9.2q-6.3.15-12.6.6c10.4 26.4 23.8 52.6 40.6 79 15.3 24 33.5 46.2 51.1 67.7"/><path d="M203.7 739.3c12.3.7 24.8-.6 36.8-1.9 1.5-.2 2.9-.3 4.4-.5 15.6-1.6 28.9-4.6 40.7-9.1 17-6.6 28.7-17.2 35.8-32.4 6.5-13.9 9.5-28.6 11.7-42.4 3.5-21.7 4.9-43.8 6.2-65.2.2-2.7.3-5.4.5-8.1.6-9.6 1.3-19.3 2-28.7 1.9-26.4 4-53.6 3.7-80.7-.3-26.6-1-48.8-7.6-71.4-13.1-45.2-38.6-76.6-78-96.2-31.5-15.6-65.3-22.4-97.1-27.4-29.5-4.6-59.6-9-88.6-13.2-10.2-1.5-20.6-3-31.1-4.5-1.8 3.8-3.5 7.6-5.2 11.4 35.2 5 70.4 10.3 104.8 15.5l11.1 1.7c27.9 4.2 57.6 9.2 86.2 20.3 38.9 15 65.2 40.1 80.3 76.6 11.8 28.5 13.3 58.3 13.1 86.4-.2 29.5-2.3 59.4-4.4 88.4-.5 7.2-1 14.4-1.5 21.5-1.6 22.7-3.3 43.1-5.2 62.4-1.6 15.9-4.1 28.6-8 40.1-5.3 15.8-13.5 26-25.7 31.9-8.7 4.2-17.2 6.9-25.3 8.1-26 3.7-49.3 5.3-71.2 4.8-3.3-.1-6.6-.4-10.1-.8-4.3-.5-8.7-1-13.2-.9-17.8.4-36-.8-53.6-2-6.7-.4-13.6-.9-20.5-1.3-1.1-.1-2.2-.1-3.3-.2 3.4 4.5 6.8 8.8 10.4 13.2 19.3 1.4 38.6 2 57.5 2.6 14.5.7 29.6 1.2 44.4 2m348.2-634.9c6 6.5 12.2 13.3 18.1 20.1 28.9 32.7 47 68.3 55.5 108.8 4.6 21.8 7.4 44.2 10.1 65.9 1.2 9.2 2.4 18.8 3.7 28.1 4.3 30.6 9.9 55.6 17.8 78.9 17.4 51.8 50.3 97.3 103.6 143.2 15.1 13 31.1 25.4 46.5 37.4 7.2 5.6 14.6 11.3 21.8 17.1q17.4 13.8 32.7 27.9c1.6-3.7 3.2-7.4 4.8-11.2-12.4-11.2-25.3-22.1-38.9-32.5-29.8-22.8-61.2-47.5-89.1-75.5-41.4-41.5-67.4-88.4-79.5-143.4-5.2-23.6-8.2-47.9-11.1-71.5-1.5-12.3-3.1-25-4.9-37.5-8.7-58.4-29.7-105.3-64.1-143.2l-2.3-2.6c-16.4-18-33.3-36.7-49-55.7-15.1-18.3-27.6-37.3-37.3-57-4.4-.4-8.9-.7-13.4-1 7.6 16 16.9 31.8 28 47.5 14.1 20.2 30.8 38.5 47 56.2"/><path d="M737 144.9c-18.2 4.3-31 15.4-38.1 33.2-4.3 10.8-7.6 21.9-9.7 33-9.4 48.9-11.2 97.2-5.4 143.5 6.3 49.7 28.2 95.2 65.2 135.1 25.6 27.6 55.4 49.4 92.3 73.7 4.4 2.9 8.7 5.7 13.1 8.6 7.9 5.2 16 10.5 24 15.8 1.2-3.8 2.4-7.7 3.5-11.5-9.1-6-18.2-12-27.2-17.9l-6.6-4.3c-36.8-24.1-66.4-45.8-91.6-73.3C722 443.1 702.2 402 696 355.2c-2.2-16.4-2.3-32.7-2.4-53.4v-4.5c-1-22.9 1.6-51.7 7.7-85.5 1.8-10.2 4.9-20.5 9.3-31.5 5.3-13.1 15-21.2 28.8-23.9 9.9-2 20-3 30.5-3 5.9 0 11.9.3 18.1.9.4 0 .9.1 1.3.1-4-4.5-8-9-12.1-13.4-13.4-.5-26.7.7-40.2 3.9m-108.2-108c-12.2-5.3-24.8-10.1-37.5-14.3 7.9 5.1 16.3 9.1 25.3 12 4.3 1.5 8.4 2.2 12.2 2.3M190.3 669.6c39.9-14.9 68.6-42.4 85.4-81.8 10.1-23.8 17.5-49.2 22-75.5 4.1-24.3 7.4-50.6 3-77.6-8.2-51-36.3-86.5-83.4-105.5-21.4-8.6-44.3-14.9-68.1-18.6-25.3-4-51.1-7.8-76-11.4-14.7-2.1-29.9-4.4-44.9-6.6-1.5 3.9-2.9 7.9-4.3 11.9 19.2 2.7 38.3 5.5 57.1 8.2l10.8 1.6c5.3.8 10.6 1.5 15.9 2.2 25.2 3.5 51.3 7.1 76.3 14.1 21.8 6 46.8 14.6 66.9 32.3 24.8 21.8 37.5 51.1 38.7 89.4 1.3 39.9-5.5 79.6-20.9 121.5-16.6 45.1-46.2 73.8-90.7 87.8-33.5 10.5-67.9 13-94.1 14.1-7.7.3-15.5.5-23.3.6 2.4 4.2 4.9 8.3 7.5 12.4 12.7-.3 25.3-.9 37.9-1.9 34.4-3.1 60.3-8.3 84.2-17.2m506.9-3.7c-15.8-9.6-30-15-44.6-17.1-16.3-2.3-26.1 2.6-33.9 16.7-4.8 8.7-7.3 18-7.3 27.5-.1 20.2-2.2 40.6-4.2 60.4l-.2 1.8c-4.4 43.6-22.3 82.6-53.1 116.1-6.8 7.3-14.1 14.4-22 21.2 7.4-1.4 14.8-2.9 22.1-4.6 2.4-2.4 4.7-4.8 7-7.3 34.3-36.8 54-80.2 58.8-129 1.9-19.6 3.8-40.4 4.4-61.7.2-8.1 2.2-15.1 6-21.1 3.3-5.2 7.6-7.7 14.2-8 1-.1 2-.1 3-.1 12.9 0 24.6 4.8 37.9 11.9 25.2 13.4 46.8 34.5 66.2 64.4 6.3 9.7 12.4 19.6 18.4 29.5 2.9-2.9 5.7-5.8 8.4-8.8-3.2-5.3-6.4-10.6-9.6-15.7-15.5-24.6-37.5-55.5-71.5-76.1M147.8 134.8c9.9 7.7 20.8 13.7 32.6 17.9 22.7 8.1 47.4 12.2 75.5 12.4h2.6c16.9 0 32.2-2.4 46.8-7.3 30.2-10.2 37.2-37 33.8-58.7-4.4-27.5-15.1-52.3-31.9-73.7-.5-.6-1-1.2-1.4-1.8-4.1 1.4-8.1 2.8-12.1 4.3 21.4 23.3 32.7 51.6 33.6 84.4.4 15-6.3 25.5-20.5 32.1-16.4 7.6-34.6 7.8-50.6 8-24.9.1-47.3-3-68.6-9.8-11.8-3.7-22.7-9.5-32.5-17-3.4-2.6-6-5.4-8-8.4-2.9 2.7-5.8 5.3-8.6 8.1 2.4 3.4 5.6 6.6 9.3 9.5"/><path d="M174.6 525.1c10.7-18.6 15.8-35.4 15.6-51.6-.2-25.2-11.3-46.1-32-60.7-12.5-8.8-26.8-15.8-43.7-21.3-29.1-9.6-59.5-15.1-88.9-20.5l-5.7-1c-4.2-.8-8.3-1.5-12.4-2.2-.7 4-1.4 8.1-2.1 12.1 15.7 2.5 32 5.6 49.4 9.1l.6.1c25.4 5.2 51.6 10.5 75.5 21.4 12.9 5.9 27.3 13.8 36.5 27.9 12.5 19.1 13.8 40.5 4.2 65.4-10.4 26.8-29.1 47.9-55.6 62.8-24.8 13.9-53.3 21.9-89.5 25.3l-3.6.3c1.4 4.2 2.8 8.3 4.3 12.5 20.7-2.2 38.8-5.9 55.8-11.4 44-14.3 73.1-36 91.6-68.2m561.6-245.8c-6.6 18-10.7 38.4-11 54.7 0 28.2 5 53.9 14.9 76.3 15.5 35.1 42.1 65.2 81.3 91.9 21 14.3 43.9 27.1 69.3 38.8.8-3.9 1.6-7.9 2.3-11.9-25.8-12.1-49.3-25.6-71.2-41-26.3-18.5-45.5-38.1-58.7-59.9-31.6-52.3-34.4-106.7-8.1-161.6 11.1-23.3 32.2-38.6 62.6-45.6 5.7-1.3 11.6-2.4 17.8-3.4-2.3-3.8-4.6-7.5-7-11.2-2.3.4-4.7.8-7 1.3-42.3 8.8-71 32.9-85.2 71.6"/><path d="M88.5 481.7c-.9-12.8-8.5-24.7-21.3-33.5-9.4-6.4-18.3-11.3-27.4-14.8-12.8-5-25.8-9.3-38.9-12.9-.3 4-.5 8-.6 12.1 14.3 4 28.2 8.8 41.8 14.4 7.7 3.2 15.1 7.7 22.8 13.9 7.2 5.8 11.2 14 11.4 23 .2 10.2-4.6 20.3-13.1 27.6-14.6 12.7-32.6 21.1-54.8 25.8.8 3.9 1.6 7.8 2.4 11.6 19.5-5 41.9-12.3 59.7-28.7 12.6-11.4 19-25.1 18-38.5m706.6-175.4c-23.1 33.7-21.7 75.3 3.6 111.4 23.5 33.5 56.4 55.6 100 67.2.3-4 .6-8 .8-12-35.9-11-62.5-27.3-83.2-50.9-19.6-22.3-27.6-48.1-23.9-76.5 3.9-29.7 21.1-50.7 51.3-62.7 7.1-2.8 14.3-4.9 21.6-6.5-1.6-3.8-3.2-7.5-4.9-11.2-11.5 2.9-22 6.8-31.9 11.8-13.5 6.7-24.7 16.7-33.4 29.4M525 830.2c17.8-27.6 25.2-57.2 21.9-88-2.3-21.2-8.9-42.1-21.5-67.7-9.4-19-20.7-37.1-31.5-54.6l-.1-.1c-4.5-7.2-9.1-14.6-13.5-22-22-36.8-33.9-77.2-36.2-123.3-.4-7.9-.7-15.8-1-23.5-.7-18.3-1.5-37.2-3.4-55.8-3.6-33.5-10-60-20.3-83.4-15.1-34.3-38.7-59.8-70.4-75.6-18.9-9.4-39.8-16.4-67.9-22.6-22.6-5-45.8-8.3-68.3-11.5-6.5-.9-13-1.9-19.5-2.8-39.7-6-72.6-12.6-102-20.9-4.2 5.6-8.4 11.3-12.3 17.1 10.6 3.2 20.9 6.1 31.1 8.5 34.8 8.5 70.6 13.8 105.2 19 9.3 1.4 18.9 2.8 28.4 4.3 26 4.1 56.4 9.7 85 21.2 35.3 14.2 59.5 38.4 73.9 73.9 10.2 25 15.8 53 18.4 90.6.7 10.7 1.2 21.6 1.7 32.1v.2c.7 16.1 1.5 32.7 3.1 49 1.8 19.2 6 38.7 12.9 59.6 9.3 28.3 24.8 53.7 38.5 76.2 1.8 3 3.7 6 5.5 9 13.9 22.6 28.3 46.1 36.9 71.6 13.6 40.4 10.2 75.8-10.5 108.1-14.5 22.6-34.8 41-62 56.1-16.4 9.1-33.9 16-51.7 21.9 14.9 1.8 30.1 2.9 45.5 3.2q8.4-3.9 16.5-8.4c29.4-16.5 51.5-36.6 67.6-61.4m-54.7-623.3 5.1 6.9c9.5 13.1 19.3 26.6 28.3 40.2 19.8 30.1 31.6 63.9 41.4 95.8 14.1 46 28.7 90.8 51 132.6 18.3 34.3 38.4 61.8 61.4 84.4C673 582 689.8 596 706 609.5l.5.4c4.3 3.6 8.5 7.1 12.8 10.7 23.6 19.9 50.5 44.2 71.7 73.3 6.4 8.8 12.3 18 18.1 27.4 4.2-5.6 8.4-11.3 12.3-17.1-11.9-19.2-25.9-37.4-41.8-54.2-19.6-20.7-41.5-39.1-62.8-56.8l-.7-.6c-3.9-3.2-7.8-6.5-11.6-9.8-21.1-17.8-43-37.5-60.8-61.3-24.4-32.7-43.8-70.4-59.3-115.3-5-14.6-9.7-29.4-14.3-43.8-4.1-12.8-8.3-26.1-12.7-39.1-13.8-40.5-29.4-71.5-49.3-97.4-34.5-44.9-65.2-95.5-91.2-150.5-12.6-26.5-23.1-49.6-32.2-70.7-6.7 1-13.3 2.1-19.9 3.3 13.2 31 26.6 60 40.1 87.6 22.3 45.1 43 80.5 65.4 111.3"/><path d="M219.2 576.5c24.1-32.5 37.1-68.5 38.6-106.8 1.9-46.9-17.9-81.7-59.1-103.6-18.6-9.9-39.3-17.2-63.3-22.4-24.7-5.4-50-9.2-74.4-12.9-12.2-1.8-24.8-3.7-37.2-5.8-2-.3-4-.7-6-1-1.9 6.5-3.6 13.1-5.3 19.7 32.5 4.5 66.6 9.9 103.2 16.4 24.6 4.4 53.3 11 79.5 26.7 22.1 13.3 35.2 31.3 40.1 54.9 4.3 20.9 2.7 43.3-4.8 68.5-15.1 50.7-45.1 84.3-91.7 102.6-28 11-59.1 16.9-100.7 18.9 3 6.7 6.1 13.4 9.4 19.9 28.9-2.1 53.4-6.3 76.6-12.9 41.9-12 73-32.4 95.1-62.2"/></g><path fill="#fff" fill-rule="evenodd" d="M304.7 202.342c-15.555 1.968-28.153 15.564-29.83 32.193l-.687 6.814-4.106-.814c-7.709-1.527-17.698-.799-23.488 1.713-6.019 2.611-14.165 10.171-17.002 15.78-3.707 7.329-4.115 13.05-4.115 57.743 0 28.217-.35 43.451-.997 43.451-.549 0-2.722-1.558-4.83-3.463-6.443-5.82-12.345-7.89-22.673-7.952-7.764-.046-9.755.312-14.5 2.606-13.315 6.438-21.968 21.384-20.257 34.987 1.1 8.738 6.48 38.553 7.276 40.322.496 1.1 2.319 10.1 4.051 20s3.947 19.8 4.921 22 2.098 5.125 2.498 6.5c1.305 4.481 5.795 15.487 6.528 16 .393.275 1.725 2.525 2.96 5 4.162 8.34 15.68 22.412 30.395 37.136l14.628 14.636v221.075l2.589 3.076c2.183 2.594 3.293 3.077 7.077 3.077 3.627 0 5.049-.561 7.411-2.923l2.923-2.923V538.842l-18.311-18.56c-10.07-10.208-20.127-21.035-22.348-24.06-5.995-8.167-12.82-21.509-15.345-30-1.227-4.125-2.625-8.276-3.106-9.225-.482-.949-2.483-10.849-4.448-22s-3.96-21.175-4.434-22.275c-1.513-3.513-5.008-24.984-5.008-30.766 0-4.606.472-6.142 2.703-8.793 4.696-5.581 12.423-7.479 18.228-4.477 4.739 2.451 7.653 6.848 9.058 13.671.721 3.501 1.646 6.815 2.056 7.365s1.963 6.59 3.45 13.423 3.157 13.413 3.708 14.624c1.262 2.768 7.703 6.453 11.282 6.453 3.697 0 9.321-2.802 10.8-5.38.911-1.589 1.34-20.694 1.715-76.298.492-73.052.531-74.22 2.571-77 3.2-4.361 8.107-6.504 13.775-6.015 3.95.341 5.52 1.093 8.5 4.071l3.654 3.654.5 66.567.5 66.566 3.266 2.918c4.463 3.987 9.32 3.984 13.311-.006l2.923-2.923.032-82.327.032-82.327 2.718-5.5c3.193-6.462 5.687-7.965 13.245-7.985 6.252-.017 8.794 1.341 11.891 6.352 2.065 3.342 2.082 4.028 2.082 86.1 0 91.057-.207 87.962 6.053 90.555 3.728 1.544 9.127.542 11.56-2.146 1.799-1.986 1.91-5.194 2.387-68.408.491-65.106.538-66.375 2.571-69.146 3.222-4.39 8.102-6.504 13.864-6.006 4.227.365 5.481 1.012 8.75 4.516l3.815 4.091v57.588c0 49.136.219 58.012 1.494 60.478 3.423 6.618 10.625 8.046 15.583 3.088l2.923-2.923v-29.018c0-18.267.371-29.247 1-29.636.55-.34 1-1.544 1-2.677 0-1.132 1.747-3.805 3.882-5.941 3.582-3.581 4.315-3.882 9.458-3.882 5.156 0 5.899.307 9.868 4.082l4.292 4.082.286 36.492c.283 36.147.265 36.526-1.924 40.068-1.632 2.639-2.33 5.65-2.669 11.501l-.459 7.926-5.117-.825c-14.951-2.413-25.971.709-34.535 9.784-9.143 9.687-9.082 9.276-9.082 60.897 0 24.656-.273 45.541-.607 46.411-.93 2.423-2.643 1.911-6.194-1.854-7.341-7.783-24.655-10.45-36.199-5.575-7.09 2.994-15.255 10.859-18.091 17.425-3.691 8.544-3.596 15.772.518 39.702 2.022 11.761 4.094 22.284 4.604 23.384s2.086 8.525 3.503 16.5c2.585 14.551 3.815 19.783 5.526 23.5.507 1.1 2.084 5.15 3.507 9 6.015 16.284 16.83 31.264 37.969 52.594l14.464 14.594v20.706c0 21.912.599 25.25 4.945 27.576 4.138 2.215 10.954.788 13.773-2.883 1.499-1.953 1.78-51.75.305-54.087-.521-.825-8.726-9.401-18.235-19.058s-18.666-19.332-20.35-21.5c-5.033-6.478-13.181-21.492-15.436-28.442-1.16-3.575-2.527-7.27-3.039-8.21s-2.55-10.841-4.53-22c-1.979-11.16-4.003-21.19-4.496-22.29-1.326-2.954-5.937-29.645-5.937-34.366 0-11.507 10.526-18.091 21.302-13.325 5.403 2.39 7.769 6.362 9.645 16.191.683 3.575 1.595 6.95 2.027 7.5s1.793 5.725 3.024 11.5c2.978 13.97 4.037 16.314 8.28 18.328 8.106 3.846 16.562.336 18.59-7.717.79-3.137 1.132-25.848 1.132-75.103 0-79.283-.393-75.065 7.316-78.565 5.266-2.39 8.102-2.39 13.368 0 8.185 3.717 7.783.048 8.07 73.557.177 45.044.594 65.657 1.36 67.14 1.382 2.673 4.979 4.36 9.297 4.36 4.04 0 8.071-3.659 8.967-8.139.342-1.711.622-39.704.622-84.429 0-81.06.007-81.329 2.12-84.911 2.686-4.552 6.489-6.522 12.58-6.517 5.802.004 10.335 2.514 12.934 7.161 1.773 3.17 1.88 7.507 2.148 87.481l.283 84.146 2.604 2.604c2.824 2.825 7.419 3.432 11.588 1.533 5.375-2.449 5.204-.33 5.743-71.429.397-52.374.775-66.482 1.831-68.335 1.508-2.646 8.416-6.121 12.169-6.121s10.661 3.475 12.169 6.121c1.056 1.853 1.434 15.961 1.831 68.335.539 71.099.368 68.98 5.743 71.429 6.419 2.924 13.301-.4 14.635-7.068.342-1.711.622-18.814.622-38.007v-34.897l2.589-3.911c5.462-8.255 18.36-8.255 23.822 0l2.589 3.911v63.963c0 41.562-.35 64.178-1 64.58-.55.34-1 1.884-1 3.431 0 5.927-5.14 22.836-9.592 31.557-6.676 13.075-11.386 19.238-25.711 33.645-7.041 7.081-13.454 14.434-14.25 16.339-1.121 2.683-1.447 8.665-1.447 26.546 0 24.45.517 27.583 4.945 29.952 4.138 2.215 10.954.788 13.773-2.883.87-1.133 1.227-7.842 1.25-23.448l.032-21.86 12.571-13.049c6.914-7.177 14.227-15.528 16.25-18.558a787 787 0 0 1 4.434-6.591c3.853-5.513 10.183-19.269 12.752-27.71 1.736-5.704 3.536-11.099 4.001-11.989 2.891-5.539 3.492-19.555 3.492-81.382 0-69.573.161-67.644-6.432-77.146-9.23-13.304-22.522-17.838-40.318-13.752l-2.75.631V322.182l2.485-3.937c3.175-5.029 5.391-6.166 12.015-6.166 6.677 0 8.807 1.118 12.265 6.436l2.735 4.207.5 59c.275 32.45.89 59.8 1.368 60.778 2.713 5.56 13.704 4.814 16.772-1.138 1.1-2.135 1.456-17.661 1.86-81.14.549-86.178.159-81.275 6.712-84.4 7.032-3.353 17.349-.782 20.341 5.07 1.223 2.391 1.485 15.783 1.692 86.33.135 45.925.479 84.504.764 85.732 1.059 4.549 10.695 6.915 15.23 3.739 1.201-.842 2.648-3.204 3.217-5.25.66-2.378 1.035-26.381 1.038-66.491l.006-62.77 2.485-3.937c3.175-5.029 5.391-6.166 12.015-6.166 6.691 0 8.836 1.131 12.173 6.417l2.643 4.187-.226 62.161c-.237 65.314-.029 68.906 4.161 71.841 5.307 3.717 14.02.822 15.697-5.215.63-2.27 1.045-17.747 1.05-39.248.009-32.963.144-35.72 1.888-38.58 5.063-8.303 19.165-8.303 24.228 0 1.786 2.929 1.879 6.23 1.882 67.22.003 53.622-.249 65.472-1.538 72.269-1.748 9.213-8.469 27.355-12.137 32.76-1.346 1.983-3.137 5.33-3.981 7.438-1.415 3.538-1.391 4.125.313 7.613 1.322 2.706 2.831 4.098 5.31 4.899 4.07 1.316 8.926.262 10.825-2.348 3.966-5.45 6.812-10.564 9.869-17.736 1.884-4.419 3.793-8.715 4.244-9.547 2.549-4.707 5.933-20.59 7.33-34.406 1.419-14.034 2.105-118.646.786-119.965-.559-.559-1.017-2.485-1.017-4.279 0-6.197-3.953-14.423-9.525-19.819-7.499-7.264-13.919-10.013-23.388-10.016-4.173-.002-9.209.372-11.191.831l-3.603.834-.524-15.577c-.491-14.614-.701-15.932-3.396-21.334-4.119-8.257-11.578-15.438-18.904-18.2-6.642-2.503-17.883-3.05-22.882-1.112-1.602.621-3.243.775-3.648.342-.404-.433-1.174-4.162-1.712-8.287-1.194-9.165-3.897-15.15-9.403-20.823-4.546-4.684-6.687-5.993-14.916-9.121-7.529-2.861-13.29-2.624-22.054.907-13.43 5.411-21.827 17.171-21.869 30.625-.022 7.003-.84 7.945-5.55 6.391-5.79-1.911-16.07-1.482-22.514.94-7.254 2.726-12.902 7.651-17.619 15.364l-3.802 6.217-.284 51.75c-.189 34.428-.627 51.75-1.308 51.75-.562 0-4.034-.494-7.715-1.098-6.049-.992-11.209-.647-18.121 1.214-1.44.387-1.913-1.273-3.489-12.223-.441-3.07-2.297-7.097-5.562-12.069-4.42-6.733-5.564-7.784-11.71-10.748-3.746-1.808-7.592-3.689-8.547-4.181s-5.343-.895-9.75-.895h-8.014v-27.596c0-22.124-.312-28.668-1.571-33-.864-2.972-1.876-5.405-2.25-5.406-.373-.001-1.892-1.913-3.375-4.25s-4.52-5.367-6.75-6.734-4.054-2.817-4.054-3.222-2.549-1.477-5.665-2.383c-5.308-1.543-10.28-1.581-23.335-.178l-2.5.269-.523-16.5c-.498-15.687-.664-16.769-3.372-21.956-3.415-6.544-11.195-13.841-17.51-16.423-5.093-2.083-15.669-2.653-23.345-1.257l-4.75.863v-5.432c0-8.138-2.345-14.581-7.747-21.287-7.819-9.706-19.011-14.035-32.025-12.388m361.412 384.891c-5.862 5.147-5.626 11.198.585 14.985 4.674 2.85 8.37 2.563 11.852-.919 6.225-6.226 1.709-17.077-7.107-17.077-1.045 0-3.444 1.355-5.33 3.011m.3 50.25c-1.845 1.244-3.667 3.381-4.048 4.75-1.154 4.146-1.026 122.307.137 125.641 2.166 6.215 11.9 8.51 16.516 3.893l2.455-2.454V641.068l-2.923-2.923c-3.583-3.583-7.487-3.796-12.137-.662" clip-rule="evenodd"/></g><defs><clipPath id="a"><path fill="#fff" d="M0 0h900v900H0z"/></clipPath></defs></svg>