<?xml version="1.0" encoding="UTF-8"?>
<!-- Generator: Adobe Illustrator 28.0.0, SVG Export Plug-In . SVG Version: 6.00 Build 0)  -->
<svg width="900" height="900" version="1.1" viewBox="0 0 900 900" xml:space="preserve" xmlns="http://www.w3.org/2000/svg">
<style type="text/css">
	.st0{display:none;fill:#FFFFFF;}
	.st1{fill:#0A4452;}
	.st2{opacity:0.75;}
	.st3{fill:#116275;}
	.st4{opacity:0.5;}
	.st5{fill:none;stroke:#FFFFFF;stroke-width:40;stroke-linecap:round;stroke-miterlimit:133.3333;}
	.st6{fill:none;stroke:#FFFFFF;stroke-width:40;stroke-miterlimit:133.3333;}
</style>
<rect class="st0" x="165.3" y="165.3" width="568.9" height="568.9"/>
<g transform="translate(-50,-50)">
	<circle class="st1" cx="500" cy="500" r="450"/>
	<g class="st2">
		<path class="st3" d="m391.5 897c30.2-1.6 56.2-8.8 79.5-22 37.1-20.9 53.6-65.1 38.6-102.6-8.2-20.5-19-39.7-29.4-58.3l-1.3-2.2c-16-28.6-26.8-56.9-32.9-86.5-6.2-29.9-7.1-61-7.9-91-0.3-9.4-0.5-19.2-1-28.8-1.1-23.8-3-49.2-9.8-74.5-14.8-54.7-47.7-93.1-97.9-113.9-23.4-9.7-49.7-16.6-82.9-21.8-7.3-1.1-14.5-2.2-21.8-3.4-37.4-5.8-75.7-11.7-113.8-18.4-2.2 3.8-4.3 7.6-6.4 11.4 39.7 7.5 79.8 13.4 118.8 19.1l12.3 1.8c32.2 4.8 66.2 10.6 97.5 25.5 32.5 15.5 56.5 39.5 71.4 71.3 14.6 31.2 18.1 64.2 19.6 92.3 0.6 12.2 1.1 24.6 1.5 36.6 0.6 17.7 1.3 36 2.6 54.1 3.4 46.1 17.3 90.8 41.2 132.7 7.8 13.6 16.8 29.6 24.3 45.9 20.6 44.5 6.2 84.9-37.6 105.3-18.7 8.7-39.4 13.4-64.9 14.7-41.4 2.1-84.7-5.9-132.3-24.4-18.8-7.3-36.1-13.6-52.4-18.8 8.9 7.7 18.2 15 27.7 22 6.1 2.2 12.3 4.6 18.6 7 52.4 20.7 96.5 29.2 138.7 26.9z"/>
		<path class="st3" d="m565 197.5c2.3 2.8 4.6 5.7 6.9 8.5 30.7 37.7 51.2 75.4 62.6 115.4 7.3 25.6 12.9 52 18.3 77.7l1.5 7c16.5 77.4 51.7 142.5 104.7 193.4 18.1 17.4 37.5 33.8 56.4 49.8 2.8 2.4 5.6 4.8 8.4 7.1 27 22.9 49 44.7 67.2 66.6 2-3.4 3.9-6.9 5.8-10.4-20.1-23.9-42.6-46.2-67.3-66.7-27.9-23.2-56.8-47.2-81.6-75.1-29.5-33.3-51.4-70.7-67-114.3-9-24.5-14.5-50.5-19.9-75.5-2.4-11.3-4.9-23.1-7.7-34.6-9.3-38.2-20.5-68.2-35.5-94.3-16.2-28.3-36.4-53.6-55.8-76.7-32.7-38.9-58.2-80.8-76.1-125.2-4.2 0.1-8.4 0.3-12.6 0.6 10.4 26.4 23.8 52.6 40.6 79 15.3 24 33.5 46.2 51.1 67.7z"/>
		<path class="st3" d="m253.7 789.3c12.3 0.7 24.8-0.6 36.8-1.9 1.5-0.2 2.9-0.3 4.4-0.5 15.6-1.6 28.9-4.6 40.7-9.1 17-6.6 28.7-17.2 35.8-32.4 6.5-13.9 9.5-28.6 11.7-42.4 3.5-21.7 4.9-43.8 6.2-65.2 0.2-2.7 0.3-5.4 0.5-8.1 0.6-9.6 1.3-19.3 2-28.7 1.9-26.4 4-53.6 3.7-80.7-0.3-26.6-1-48.8-7.6-71.4-13.1-45.2-38.6-76.6-78-96.2-31.5-15.6-65.3-22.4-97.1-27.4-29.5-4.6-59.6-9-88.6-13.2-10.2-1.5-20.6-3-31.1-4.5-1.8 3.8-3.5 7.6-5.2 11.4 35.2 5 70.4 10.3 104.8 15.5l11.1 1.7c27.9 4.2 57.6 9.2 86.2 20.3 38.9 15 65.2 40.1 80.3 76.6 11.8 28.5 13.3 58.3 13.1 86.4-0.2 29.5-2.3 59.4-4.4 88.4-0.5 7.2-1 14.4-1.5 21.5-1.6 22.7-3.3 43.1-5.2 62.4-1.6 15.9-4.1 28.6-8 40.1-5.3 15.8-13.5 26-25.7 31.9-8.7 4.2-17.2 6.9-25.3 8.1-26 3.7-49.3 5.3-71.2 4.8-3.3-0.1-6.6-0.4-10.1-0.8-4.3-0.5-8.7-1-13.2-0.9-17.8 0.4-36-0.8-53.6-2-6.7-0.4-13.6-0.9-20.5-1.3-1.1-0.1-2.2-0.1-3.3-0.2 3.4 4.5 6.8 8.8 10.4 13.2 19.3 1.4 38.6 2 57.5 2.6 14.5 0.7 29.6 1.2 44.4 2z"/>
		<path class="st3" d="m601.9 154.4c6 6.5 12.2 13.3 18.1 20.1 28.9 32.7 47 68.3 55.5 108.8 4.6 21.8 7.4 44.2 10.1 65.9 1.2 9.2 2.4 18.8 3.7 28.1 4.3 30.6 9.9 55.6 17.8 78.9 17.4 51.8 50.3 97.3 103.6 143.2 15.1 13 31.1 25.4 46.5 37.4 7.2 5.6 14.6 11.3 21.8 17.1 11.6 9.2 22.5 18.5 32.7 27.9 1.6-3.7 3.2-7.4 4.8-11.2-12.4-11.2-25.3-22.1-38.9-32.5-29.8-22.8-61.2-47.5-89.1-75.5-41.4-41.5-67.4-88.4-79.5-143.4-5.2-23.6-8.2-47.9-11.1-71.5-1.5-12.3-3.1-25-4.9-37.5-8.7-58.4-29.7-105.3-64.1-143.2l-2.3-2.6c-16.4-18-33.3-36.7-49-55.7-15.1-18.3-27.6-37.3-37.3-57-4.4-0.4-8.9-0.7-13.4-1 7.6 16 16.9 31.8 28 47.5 14.1 20.2 30.8 38.5 47 56.2z"/>
		<path class="st3" d="m787 194.9c-18.2 4.3-31 15.4-38.1 33.2-4.3 10.8-7.6 21.9-9.7 33-9.4 48.9-11.2 97.2-5.4 143.5 6.3 49.7 28.2 95.2 65.2 135.1 25.6 27.6 55.4 49.4 92.3 73.7 4.4 2.9 8.7 5.7 13.1 8.6 7.9 5.2 16 10.5 24 15.8 1.2-3.8 2.4-7.7 3.5-11.5-9.1-6-18.2-12-27.2-17.9l-6.6-4.3c-36.8-24.1-66.4-45.8-91.6-73.3-34.5-37.7-54.3-78.8-60.5-125.6-2.2-16.4-2.3-32.7-2.4-53.4v-4.5c-1-22.9 1.6-51.7 7.7-85.5 1.8-10.2 4.9-20.5 9.3-31.5 5.3-13.1 15-21.2 28.8-23.9 9.9-2 20-3 30.5-3 5.9 0 11.9 0.3 18.1 0.9 0.4 0 0.9 0.1 1.3 0.1-4-4.5-8-9-12.1-13.4-13.4-0.5-26.7 0.7-40.2 3.9z"/>
		<path class="st3" d="m678.8 86.9c-12.2-5.3-24.8-10.1-37.5-14.3 7.9 5.1 16.3 9.1 25.3 12 4.3 1.5 8.4 2.2 12.2 2.3z"/>
		<path class="st3" d="m240.3 719.6c39.9-14.9 68.6-42.4 85.4-81.8 10.1-23.8 17.5-49.2 22-75.5 4.1-24.3 7.4-50.6 3-77.6-8.2-51-36.3-86.5-83.4-105.5-21.4-8.6-44.3-14.9-68.1-18.6-25.3-4-51.1-7.8-76-11.4-14.7-2.1-29.9-4.4-44.9-6.6-1.5 3.9-2.9 7.9-4.3 11.9 19.2 2.7 38.3 5.5 57.1 8.2l10.8 1.6c5.3 0.8 10.6 1.5 15.9 2.2 25.2 3.5 51.3 7.1 76.3 14.1 21.8 6 46.8 14.6 66.9 32.3 24.8 21.8 37.5 51.1 38.7 89.4 1.3 39.9-5.5 79.6-20.9 121.5-16.6 45.1-46.2 73.8-90.7 87.8-33.5 10.5-67.9 13-94.1 14.1-7.7 0.3-15.5 0.5-23.3 0.6 2.4 4.2 4.9 8.3 7.5 12.4 12.7-0.3 25.3-0.9 37.9-1.9 34.4-3.1 60.3-8.3 84.2-17.2z"/>
		<path class="st3" d="m747.2 715.9c-15.8-9.6-30-15-44.6-17.1-16.3-2.3-26.1 2.6-33.9 16.7-4.8 8.7-7.3 18-7.3 27.5-0.1 20.2-2.2 40.6-4.2 60.4l-0.2 1.8c-4.4 43.6-22.3 82.6-53.1 116.1-6.8 7.3-14.1 14.4-22 21.2 7.4-1.4 14.8-2.9 22.1-4.6 2.4-2.4 4.7-4.8 7-7.3 34.3-36.8 54-80.2 58.8-129 1.9-19.6 3.8-40.4 4.4-61.7 0.2-8.1 2.2-15.1 6-21.1 3.3-5.2 7.6-7.7 14.2-8 1-0.1 2-0.1 3-0.1 12.9 0 24.6 4.8 37.9 11.9 25.2 13.4 46.8 34.5 66.2 64.4 6.3 9.7 12.4 19.6 18.4 29.5 2.9-2.9 5.7-5.8 8.4-8.8-3.2-5.3-6.4-10.6-9.6-15.7-15.5-24.6-37.5-55.5-71.5-76.1z"/>
		<path class="st3" d="m197.8 184.8c9.9 7.7 20.8 13.7 32.6 17.9 22.7 8.1 47.4 12.2 75.5 12.4h2.6c16.9 0 32.2-2.4 46.8-7.3 30.2-10.2 37.2-37 33.8-58.7-4.4-27.5-15.1-52.3-31.9-73.7-0.5-0.6-1-1.2-1.4-1.8-4.1 1.4-8.1 2.8-12.1 4.3 21.4 23.3 32.7 51.6 33.6 84.4 0.4 15-6.3 25.5-20.5 32.1-16.4 7.6-34.6 7.8-50.6 8-24.9 0.1-47.3-3-68.6-9.8-11.8-3.7-22.7-9.5-32.5-17-3.4-2.6-6-5.4-8-8.4-2.9 2.7-5.8 5.3-8.6 8.1 2.4 3.4 5.6 6.6 9.3 9.5z"/>
		<path class="st3" d="m224.6 575.1c10.7-18.6 15.8-35.4 15.6-51.6-0.2-25.2-11.3-46.1-32-60.7-12.5-8.8-26.8-15.8-43.7-21.3-29.1-9.6-59.5-15.1-88.9-20.5l-5.7-1c-4.2-0.8-8.3-1.5-12.4-2.2-0.7 4-1.4 8.1-2.1 12.1 15.7 2.5 32 5.6 49.4 9.1l0.6 0.1c25.4 5.2 51.6 10.5 75.5 21.4 12.9 5.9 27.3 13.8 36.5 27.9 12.5 19.1 13.8 40.5 4.2 65.4-10.4 26.8-29.1 47.9-55.6 62.8-24.8 13.9-53.3 21.9-89.5 25.3l-3.6 0.3c1.4 4.2 2.8 8.3 4.3 12.5 20.7-2.2 38.8-5.9 55.8-11.4 44-14.3 73.1-36 91.6-68.2z"/>
		<path class="st3" d="m786.2 329.3c-6.6 18-10.7 38.4-11 54.7 0 28.2 5 53.9 14.9 76.3 15.5 35.1 42.1 65.2 81.3 91.9 21 14.3 43.9 27.1 69.3 38.8 0.8-3.9 1.6-7.9 2.3-11.9-25.8-12.1-49.3-25.6-71.2-41-26.3-18.5-45.5-38.1-58.7-59.9-31.6-52.3-34.4-106.7-8.1-161.6 11.1-23.3 32.2-38.6 62.6-45.6 5.7-1.3 11.6-2.4 17.8-3.4-2.3-3.8-4.6-7.5-7-11.2-2.3 0.4-4.7 0.8-7 1.3-42.3 8.8-71 32.9-85.2 71.6z"/>
		<path class="st3" d="m138.5 531.7c-0.9-12.8-8.5-24.7-21.3-33.5-9.4-6.4-18.3-11.3-27.4-14.8-12.8-5-25.8-9.3-38.9-12.9-0.3 4-0.5 8-0.6 12.1 14.3 4 28.2 8.8 41.8 14.4 7.7 3.2 15.1 7.7 22.8 13.9 7.2 5.8 11.2 14 11.4 23 0.2 10.2-4.6 20.3-13.1 27.6-14.6 12.7-32.6 21.1-54.8 25.8 0.8 3.9 1.6 7.8 2.4 11.6 19.5-5 41.9-12.3 59.7-28.7 12.6-11.4 19-25.1 18-38.5z"/>
		<path class="st3" d="m845.1 356.3c-23.1 33.7-21.7 75.3 3.6 111.4 23.5 33.5 56.4 55.6 100 67.2 0.3-4 0.6-8 0.8-12-35.9-11-62.5-27.3-83.2-50.9-19.6-22.3-27.6-48.1-23.9-76.5 3.9-29.7 21.1-50.7 51.3-62.7 7.1-2.8 14.3-4.9 21.6-6.5-1.6-3.8-3.2-7.5-4.9-11.2-11.5 2.9-22 6.8-31.9 11.8-13.5 6.7-24.7 16.7-33.4 29.4z"/>
		<path class="st3" d="m575 880.2c17.8-27.6 25.2-57.2 21.9-88-2.3-21.2-8.9-42.1-21.5-67.7-9.4-19-20.7-37.1-31.5-54.6l-0.1-0.1c-4.5-7.2-9.1-14.6-13.5-22-22-36.8-33.9-77.2-36.2-123.3-0.4-7.9-0.7-15.8-1-23.5-0.7-18.3-1.5-37.2-3.4-55.8-3.6-33.5-10-60-20.3-83.4-15.1-34.3-38.7-59.8-70.4-75.6-18.9-9.4-39.8-16.4-67.9-22.6-22.6-5-45.8-8.3-68.3-11.5-6.5-0.9-13-1.9-19.5-2.8-39.7-6-72.6-12.6-102-20.9-4.2 5.6-8.4 11.3-12.3 17.1 10.6 3.2 20.9 6.1 31.1 8.5 34.8 8.5 70.6 13.8 105.2 19 9.3 1.4 18.9 2.8 28.4 4.3 26 4.1 56.4 9.7 85 21.2 35.3 14.2 59.5 38.4 73.9 73.9 10.2 25 15.8 53 18.4 90.6 0.7 10.7 1.2 21.6 1.7 32.1v0.2c0.7 16.1 1.5 32.7 3.1 49 1.8 19.2 6 38.7 12.9 59.6 9.3 28.3 24.8 53.7 38.5 76.2 1.8 3 3.7 6 5.5 9 13.9 22.6 28.3 46.1 36.9 71.6 13.6 40.4 10.2 75.8-10.5 108.1-14.5 22.6-34.8 41-62 56.1-16.4 9.1-33.9 16-51.7 21.9 14.9 1.8 30.1 2.9 45.5 3.2 5.6-2.6 11.1-5.4 16.5-8.4 29.4-16.5 51.5-36.6 67.6-61.4z"/>
		<path class="st3" d="m520.3 256.9 5.1 6.9c9.5 13.1 19.3 26.6 28.3 40.2 19.8 30.1 31.6 63.9 41.4 95.8 14.1 46 28.7 90.8 51 132.6 18.3 34.3 38.4 61.8 61.4 84.4 15.5 15.2 32.3 29.2 48.5 42.7l0.5 0.4c4.3 3.6 8.5 7.1 12.8 10.7 23.6 19.9 50.5 44.2 71.7 73.3 6.4 8.8 12.3 18 18.1 27.4 4.2-5.6 8.4-11.3 12.3-17.1-11.9-19.2-25.9-37.4-41.8-54.2-19.6-20.7-41.5-39.1-62.8-56.8l-0.7-0.6c-3.9-3.2-7.8-6.5-11.6-9.8-21.1-17.8-43-37.5-60.8-61.3-24.4-32.7-43.8-70.4-59.3-115.3-5-14.6-9.7-29.4-14.3-43.8-4.1-12.8-8.3-26.1-12.7-39.1-13.8-40.5-29.4-71.5-49.3-97.4-34.5-44.9-65.2-95.5-91.2-150.5-12.6-26.5-23.1-49.6-32.2-70.7-6.7 1-13.3 2.1-19.9 3.3 13.2 31 26.6 60 40.1 87.6 22.3 45.1 43 80.5 65.4 111.3z"/>
		<path class="st3" d="m269.2 626.5c24.1-32.5 37.1-68.5 38.6-106.8 1.9-46.9-17.9-81.7-59.1-103.6-18.6-9.9-39.3-17.2-63.3-22.4-24.7-5.4-50-9.2-74.4-12.9-12.2-1.8-24.8-3.7-37.2-5.8-2-0.3-4-0.7-6-1-1.9 6.5-3.6 13.1-5.3 19.7 32.5 4.5 66.6 9.9 103.2 16.4 24.6 4.4 53.3 11 79.5 26.7 22.1 13.3 35.2 31.3 40.1 54.9 4.3 20.9 2.7 43.3-4.8 68.5-15.1 50.7-45.1 84.3-91.7 102.6-28 11-59.1 16.9-100.7 18.9 3 6.7 6.1 13.4 9.4 19.9 28.9-2.1 53.4-6.3 76.6-12.9 41.9-12 73-32.4 95.1-62.2z"/>
	</g>
</g>

<g transform="matrix(7.1804 0 0 7.4316 105.34 93.285)" fill="#fff"><path class="MsftOfcThm_Background1_Fill_v2" d="m29 26c1.7 0 3-1.3 3-3v-6c0-1.7-1.3-3-3-3s-3 1.3-3 3v6c0 1.7 1.3 3 3 3z"/><path class="MsftOfcThm_Background1_Fill_v2" d="m20 68h16v8h-16zm0-12h16v8h-16zm0-12h16v8h-16zm36 0v8h-16v-8zm20 0v8h-16v-8zm0 20h-16v-8h16zm0 12h-16v-8h16zm-36-12v-8h16v8zm0 12v-8h16v8zm-26 6h68v-44h-68z"/><path class="MsftOfcThm_Background1_Fill_v2" d="m67 26c1.7 0 3-1.3 3-3v-6c0-1.7-1.3-3-3-3s-3 1.3-3 3v6c0 1.7 1.3 3 3 3z"/><path class="MsftOfcThm_Background1_Fill_v2" d="m74 20v3c0 3.9-3.1 7-7 7s-7-3.1-7-7v-3h-24v3c0 3.9-3.1 7-7 7s-7-3.1-7-7v-3h-8v14h68v-14z"/></g></svg>
