<?xml version="1.0" encoding="UTF-8"?>
<svg id="Layer_2" data-name="Layer 2" xmlns="http://www.w3.org/2000/svg" xmlns:xlink="http://www.w3.org/1999/xlink" viewBox="0 0 1498.15 1143.46">
  <defs>
    <linearGradient id="linear-gradient" x1="0" y1="614.33" x2="1058.24" y2="614.33" gradientUnits="userSpaceOnUse">
      <stop offset="0" stop-color="#b268c1"/>
      <stop offset=".04" stop-color="#9d67b7"/>
      <stop offset=".12" stop-color="#7a67a7"/>
      <stop offset=".21" stop-color="#5b6799"/>
      <stop offset=".31" stop-color="#42678d"/>
      <stop offset=".41" stop-color="#2f6784"/>
      <stop offset=".54" stop-color="#22677e"/>
      <stop offset=".7" stop-color="#1a677b"/>
      <stop offset="1" stop-color="#18677a"/>
    </linearGradient>
    <linearGradient id="linear-gradient-2" x1="821.35" y1="981.47" x2="1033.04" y2="981.47" xlink:href="#linear-gradient"/>
    <linearGradient id="linear-gradient-3" x1="1058.24" y1="699.51" x2="1498.15" y2="699.51" xlink:href="#linear-gradient"/>
    <linearGradient id="linear-gradient-4" x1="861.26" y1="154.54" x2="1170.34" y2="154.54" xlink:href="#linear-gradient"/>
  </defs>
  <g id="Sparkle">
    <g>
      <path d="M529.12,85.21q0,190.83,0,0c78.1,333.62,195.5,451.03,529.12,529.12q-190.83,0,0,0-190.83,0,0,0c-333.62,78.1-451.03,195.5-529.12,529.12q0-190.83,0,0,0-190.83,0,0C451.03,809.83,333.62,692.43,0,614.33q190.83,0,0,0,190.83,0,0,0c333.62-78.1,451.03-195.5,529.12-529.12q0,190.83,0,0Z" style="fill: url(#linear-gradient); stroke-width: 0px;"/>
      <path d="M927.2,886.28q0,34.33,0,0c15.62,60.02,39.11,81.14,105.84,95.19q-38.17,0,0,0-38.17,0,0,0c-66.74,14.05-90.22,35.17-105.84,95.19q0-34.33,0,0,0-34.33,0,0c-15.62-60.02-39.11-81.14-105.84-95.19q38.17,0,0,0,38.17,0,0,0c66.74-14.05,90.22-35.17,105.84-95.19q0,34.33,0,0Z" style="fill: url(#linear-gradient-2); stroke-width: 0px;"/>
      <path d="M1278.2,489.9q0,75.6,0,0c32.46,132.17,81.27,178.68,219.95,209.61q-79.33,0,0,0-79.33,0,0,0c-138.68,30.94-187.49,77.45-219.95,209.61q0-75.6,0,0,0-75.6,0,0c-32.46-132.17-81.27-178.68-219.95-209.61q79.33,0,0,0,79.33,0,0,0c138.68-30.94,187.49-77.45,219.95-209.61q0,75.6,0,0Z" style="fill: url(#linear-gradient-3); stroke-width: 0px;"/>
      <path d="M1015.8,0q0,55.73,0,0c22.81,97.44,57.1,131.73,154.54,154.54q-55.73,0,0,0-55.73,0,0,0c-97.44,22.81-131.73,57.1-154.54,154.54q0-55.73,0,0,0-55.73,0,0c-22.81-97.44-57.1-131.73-154.54-154.54q55.73,0,0,0,55.73,0,0,0C958.7,131.73,992.99,97.44,1015.8,0q0,55.73,0,0Z" style="fill: url(#linear-gradient-4); stroke-width: 0px;"/>
    </g>
  </g>
</svg>