<?xml version="1.0" encoding="utf-8"?>
<!-- Generator: Adobe Illustrator 28.0.0, SVG Export Plug-In . SVG Version: 6.00 Build 0)  -->
<svg version="1.1" id="Layer_1" xmlns="http://www.w3.org/2000/svg" xmlns:xlink="http://www.w3.org/1999/xlink" x="0px" y="0px"
	 viewBox="0 0 1000 1000" style="enable-background:new 0 0 1000 1000;" xml:space="preserve">
<path style="fill:#FFFFFF;" d="M900.2,763.4l-173.3-415c-8.3-19.9-23.5-35.1-43-42.8c-18.6-7.3-39-6.8-57.2,1.6
	c-17.5,8-31.4,22.5-39.1,40.9l-30.5,73.1L482,241.3c-9.9-24-28.3-42.3-51.8-51.6c-22.4-8.8-46.9-8.1-68.9,1.9
	c-21.1,9.7-37.9,27.2-47.1,49.3L100.4,753.8c-5.9,13.7-4.8,29.4,2.9,42c7.6,12.7,21.3,20.6,35.7,20.6c0.1,0,0.2,0,0.3,0h500.3h17.7
	H867c20.1,0,36.3-17,36.3-37.8c0,0,0,0,0,0C903.3,773.3,902.3,768.2,900.2,763.4z M630.4,367.2c3.3-7.9,9.3-13.9,16.9-16.9
	c7.1-2.8,14.9-2.6,21.8,0.6c6.9,3.2,12.4,8.9,15.4,16.3l61.6,147.4l-33.8,35.5c0,0,0,0,0,0c-0.7,0.8-1.5,1-2.1,1c0,0,0,0,0,0
	c-0.5,0-1.3-0.2-2.1-0.9c0,0-0.1-0.1-0.1-0.1l-53.8-56.3c-9.2-9.7-22.1-15.3-35.2-15.3h-35.1L630.4,367.2z M362.7,262.7
	C362.7,262.7,362.7,262.7,362.7,262.7c4.3-10.4,12.2-18.3,22.2-22.2c9.4-3.7,19.6-3.4,28.8,0.8c9.1,4.2,16.2,11.7,20.2,21.4
	l76.7,183.6l-42.8,45c-1.2,1.2-2.7,1.9-4.3,1.9c-1.6,0-3.1-0.7-4.3-1.9c0,0-0.1-0.1-0.1-0.1l-66.5-69.6
	c-11-11.6-26.2-18.2-41.8-18.2h-46.9L362.7,262.7z M281.3,457.8h69.6c0,0,0.1,0,0.1,0c1.6,0,3.1,0.7,4.2,1.9c0,0,0.1,0.1,0.1,0.1
	l66.2,69.6c11,11.6,26.2,18.3,41.9,18.4c0,0,0.1,0,0.1,0c15.6,0,30.8-6.6,41.7-18.2l27.9-29.1l109.3,261.7l-488.1-0.5L281.3,457.8z
	 M699.7,768.6c-0.4-5-1.5-9.8-3.5-14.5l-95.2-228H619c0.1,0,0.1,0,0.2,0c0.7,0,1.4,0.3,2,0.9c0,0,0.1,0.1,0.1,0.1l53.5,56.3
	c9.2,9.8,22.1,15.4,35.3,15.5c0,0,0.1,0,0.1,0c13.1,0,26-5.6,35.1-15.3l20.6-21.4l86.2,206.5L699.7,768.6z"/>
</svg>
