<?xml version="1.0" encoding="utf-8"?>
<!-- Generator: Adobe Illustrator 25.1.0, SVG Export Plug-In . SVG Version: 6.00 Build 0)  -->
<svg version="1.1" id="Capa_1" xmlns="http://www.w3.org/2000/svg" xmlns:xlink="http://www.w3.org/1999/xlink" x="0px" y="0px"
	 viewBox="0 0 124.5 124.5" style="enable-background:new 0 0 124.5 124.5;" xml:space="preserve">
<style type="text/css">
	.st0{display:none;fill:#7D7D7D;}
	.st1{fill:#FFFFFF;}
	.st2{display:none;}
	.st3{display:inline;}
</style>
<rect class="st0" width="124.5" height="124.5"/>
<g>
	<path class="st1" d="M56.6,82.1c5.2,0,10.1-1.6,14.1-4.3l14.6,14.6c1.1,1.1,3,1.1,4.2,0l2.8-2.8c1.1-1.1,1.1-3,0-4.2L77.8,70.8
		c2.7-4,4.3-8.9,4.3-14.1c0-14-11.4-25.4-25.4-25.4S31.2,42.7,31.2,56.7C31.2,70.7,42.6,82.1,56.6,82.1z M56.6,41.2
		c8.5,0,15.4,6.9,15.4,15.4s-6.9,15.4-15.4,15.4s-15.4-6.9-15.4-15.4S48.1,41.2,56.6,41.2z"/>
</g>
<g class="st2">
	<g class="st3">
		<g>
			<path class="st1" d="M102.7,81L87.2,68c-0.8-0.6-1.8-0.8-2.8-0.4C83.5,68.1,83,69,83,70v7.8h-4.3c-3.6,0-6.9-1.8-8.8-4.9
				L53.1,46.1c-3.8-6.1-10.4-9.7-17.6-9.7H20.9v10.3h14.7c3.6,0,6.9,1.8,8.8,4.9l16.8,26.8c3.8,6.1,10.4,9.7,17.6,9.7H83v7.8
				c0,1,0.6,1.9,1.5,2.3c0.3,0.2,0.7,0.2,1.1,0.2c0.6,0,1.2-0.2,1.7-0.6l15.5-12.9c0.6-0.5,0.9-1.2,0.9-2
				C103.7,82.2,103.3,81.5,102.7,81z"/>
		</g>
	</g>
	<g class="st3">
		<g>
			<path class="st1" d="M102.7,39.6L87.2,26.6c-0.8-0.6-1.8-0.8-2.8-0.4c-0.9,0.4-1.5,1.3-1.5,2.3v7.8h-4.3
				c-7.2,0-13.7,3.6-17.6,9.7l-0.9,1.5l6.1,9.8l3.6-5.8c1.9-3,5.2-4.9,8.8-4.9H83v7.8c0,1,0.6,1.9,1.5,2.3c0.3,0.2,0.7,0.2,1.1,0.2
				c0.6,0,1.2-0.2,1.7-0.6l15.5-12.9c0.6-0.5,0.9-1.2,0.9-2C103.7,40.8,103.3,40.1,102.7,39.6z"/>
		</g>
	</g>
	<g class="st3">
		<g>
			<path class="st1" d="M47.9,67.1l-3.6,5.8c-1.9,3-5.2,4.9-8.8,4.9H20.9v10.3h14.7c7.2,0,13.7-3.6,17.6-9.7l0.9-1.5L47.9,67.1z"/>
		</g>
	</g>
</g>
</svg>
