<?xml version="1.0" encoding="UTF-8"?>
<svg id="logo-no-text" xmlns="http://www.w3.org/2000/svg" xmlns:xlink="http://www.w3.org/1999/xlink" viewBox="0 0 829.92 830">
  <defs>
    <clipPath id="clippath">
      <polygon points="14.96 18 281.96 104 281.96 811 14.96 724 14.96 18" fill="none"/>
    </clipPath>
    <filter id="drop-shadow-1" filterUnits="userSpaceOnUse">
      <feOffset dx="5" dy="5"/>
      <feGaussianBlur result="blur" stdDeviation="5"/>
      <feFlood flood-color="#000" flood-opacity=".75"/>
      <feComposite in2="blur" operator="in"/>
      <feComposite in="SourceGraphic"/>
    </filter>
    <clipPath id="clippath-1">
      <polygon points="281.96 104 544.74 15 551.58 726.12 293.64 811 281.96 104" fill="none"/>
    </clipPath>
    <filter id="drop-shadow-2" filterUnits="userSpaceOnUse">
      <feOffset dx="5" dy="5"/>
      <feGaussianBlur result="blur-2" stdDeviation="5"/>
      <feFlood flood-color="#000" flood-opacity=".75"/>
      <feComposite in2="blur-2" operator="in"/>
      <feComposite in="SourceGraphic"/>
    </filter>
    <clipPath id="clippath-2">
      <polygon points="554.96 18 821.96 104 821.96 811 554.96 724 554.96 18" fill="none"/>
    </clipPath>
    <filter id="drop-shadow-3" filterUnits="userSpaceOnUse">
      <feOffset dx="5" dy="5"/>
      <feGaussianBlur result="blur-3" stdDeviation="5"/>
      <feFlood flood-color="#000" flood-opacity=".75"/>
      <feComposite in2="blur-3" operator="in"/>
      <feComposite in="SourceGraphic"/>
    </filter>
  </defs>
  <polygon points="15 15.08 281.64 108.68 552.46 16.48 814.92 108.68 814.92 817.52 551.38 727.19 286.39 813.42 15 723.19 15 15.08" fill="#16687b"/>
  <g>
    <g clip-path="url(#clippath)" fill="none">
      <g id="blue" fill="none" filter="url(#drop-shadow-1)">
        <path id="bottom" d="m692.84,511.88c.05-11.36-8.02-22.18-18.76-26.1-1.98-1.27-11.46-2.05-13.38-.95-8.52,2.05-14.54,9.39-14.59,19.14v.73c.05.8-3.06,2.1-6.91,2.89l-107.59,22.16c-3.86.79-9.46-1.27-12.45-4.58,0,0-5.88-6.5-14.07-7.89-12.91-2.19-23.41,6.5-23.47,19.39v2.05c.41,2.2-2.28,4.94-6,6.08l-107.62,32.97c-3.72,1.14-9.3-.55-12.41-3.77,0,0-5.4-5.59-13.14-6.9-19.73-3.25-22.1,12.21-22.1,12.21-1.76,3.43-4.65,6.54-8.71,6.54l-98.95-.02c-4.06,0-9.45-3-11.97-6.66,0,0-7.18-10.41-17.16-12.1-12.91-2.19-23.41,6.5-23.47,19.39-.06,12.9,10.36,25.12,23.26,27.31.51.09,1.01.11,1.5.15,29.13,40.41,66.15,74.02,107.69,98.43,1.69,11.47,11.3,21.67,22.97,23.64,6.35,1.07,12.1-.49,16.33-3.88,22.17,9.35,45.22,16.17,68.72,20.15.43.07.84.14,1.28.21,27.62,4.55,54.32,4.91,79.55,1.59,3.83,3.41,8.51,5.85,13.6,6.71,11.13,1.89,20.47-4.33,22.86-14.35,35.13-10.25,66.4-28.17,91.99-52.27.47.12.95.24,1.44.32,12.9,2.19,23.41-6.5,23.47-19.39.01-2.47-.37-4.92-1.07-7.27,28.6-37.24,46.1-84.45,48.29-138.1,6.51-3.05,10.85-9.57,10.89-17.84Zm-165.05,38.35s.53-1.04.55-5.66v-.73c-.05-.8,3.06-2.1,6.91-2.89l107.59-22.15c3.86-.79,9.46,1.27,12.45,4.58,0,0,.19.21.52.54-1.88,48.14-17.37,90.58-42.73,124.22-.54-.13-1.07-.26-1.61-.35-4.19-.71-4.62-.61-4.62-.61-3.8.94-9.22-1.13-12.04-4.58l-65.07-79.82c-2.82-3.46-3.7-9.1-1.95-12.54Zm-31.49,18.29c2.02-3.25,5.12-5.42,6.89-4.84l1.68.28c4.22.71,4.69.6,4.69.6,3.8-.95,9.21,1.11,12.03,4.56l65.05,79.79c2.82,3.46,2.7,10.79,2.26,12.84-.44,2.04-4.15,3.56-8.23,3.37l-121.09-5.51c-4.08-.19-8.15-2.01-9.04-4.05s-2.64-9.42-.61-12.67l46.37-74.39Zm-130.59,26.72c0-3.74,2.78-5.22,6.5-6.36l108.74-33.32c3.72-1.14,6.8-2.64,7.47-1.22s-.17,4.3-2.19,7.55l-45.97,73.75c-2.02,3.25-5.6,5.15-7.94,4.24l-2.27-.38c-6.5-1.1-10.45.93-10.45.93-3.4,1.75-8.98.84-12.39-2.02l-36.83-30.9c-6.54-5.1-4.68-9.4-4.67-12.27Zm-16.65,18.35c2.76-.23,11.53-.76,14.94,2.1l37.41,31.38c3.41,2.86,5.74,7.11,5.17,9.45v2.36l-.02,2.9c.82,3.07-1.39,6.83-4.92,8.37l-62.19,27.07c-3.53,1.53-9.65-.77-11.1-1.9-1.45-1.13-1.91-5.22-1.02-9.08l15.08-65.19c.89-3.87,3.88-7.22,6.64-7.45Zm-143.94-12.87c2.42-2.07,5.88-3.52,8.86-3.52l99.99.02c4.06,0,8.85,2.26,10.65,5.01,3.7,3.67,9.3,6.46,6.72,15.11l-14.99,64.81c-.89,3.87-4.67,7.97-8.38,9.12,0,0-.7.22-1.76.66-39.05-22.27-73.87-53.46-101.09-91.21Zm196.7,125.59c-.38-.06-.77-.13-1.16-.19-19.94-3.38-39.51-9.04-58.43-16.69.73-.53,1.56-1.01,2.45-1.4l63.29-27.55c3.53-1.53,9.27-.54,12.75,2.21,0,0,3.16,2.5,9.1,3.5,4.7.8,5.97.41,5.97.41,3.73-1.12,9.21.68,12.18,4.01l22.12,24.78c2.97,3.33,3.96,8.86,2.2,12.28,0,0-.04.09-.11.31-22.37,2.77-45.99,2.35-70.39-1.68Zm106.57-5.89c-3.75-3.22-8.29-5.51-13.2-6.34-4.16-.7-4.52-.62-4.52-.62-3.81.92-9.36-1.05-12.33-4.38l-22.64-25.36c-2.97-3.33-4.91-7.06-4.31-8.28s2.18-5.62,8.98-4.49l122.13,5.56c1.15.05,2.41.35,3.68.81-22.04,19.59-48.41,34.32-77.79,43.1Z" fill="#7ccbdb"/>
        <path id="middle" d="m70.52,564.03c-7.78-1.28-17.67-4.41-21.34-13.25-4.5-10.84,4.78-18.44,7.83-20.94,4.28-3.51,10.48-7.39,18.4-11.54,13.05-6.83,26.45-12.13,27.01-12.35,4.93-1.94,11.16.84,13.91,6.23,2.76,5.38,1,11.32-3.93,13.27-.1.04-10.54,4.17-21.49,9.62-7.55,3.76-12.63,6.78-16.03,9.1,10.2,1,30.51,1.23,70.47-2.6,58.77-5.62,146.69-18.64,261.33-38.7,117.24-20.51,205.58-38.44,262.57-53.29,39.55-10.3,57.65-17.51,65.92-21.85-9.71-2.12-25.29-3.91-39.77-4.32-5.59-.16-10.75-4.92-11.52-10.64-.77-5.72,3.15-10.23,8.74-10.07.58.02,14.42.42,28.84,2.27,18.98,2.44,36.98,6.58,40.09,20.29,2.83,12.45-11,19.31-16.91,22.24-11.22,5.57-28.6,11.58-53.14,18.39-56.68,15.72-150.3,35.04-278.26,57.43-125.27,21.92-218.72,35.45-277.76,40.22-25.69,2.07-44.61,2.51-57.83,1.34-1.86-.16-4.38-.39-7.17-.85Z" fill="#7ccbdb"/>
        <path id="top" d="m668.13,422.07c-13.76-38.6-34.66-74.75-61.47-106.67-4.87-5.8-9.94-11.47-15.2-16.98-2.63-2.76-5.3-5.47-8.02-8.15-5.44-5.36-11.07-10.56-16.87-15.6-14.84-12.88-30.5-24.36-46.8-34.34-35.85-21.97-74.78-36.73-114.82-43.33-53.09-8.75-102.78-2.16-145.2,16.51-11.54-10.84-26.01-18.56-41.74-21.16-37.68-6.21-68.23,19.3-68.23,56.98,0,15.73,5.34,31.08,14.28,44.09-25.66,38.18-40.45,85.44-40.45,138.53,0,27.96,4.09,56.26,12.17,84.1,1.84,6.35,7.4,11.16,13.41,12.15,1.35.22,2.73.25,4.09.06,1.06-.15,3.95-.75,4.62-.87l203.13-35.84c2.92-.52,6.22-3.14,7.34-5.83l4.64-11.16c1.12-2.69-.29-6.27-3.12-7.95l-94.03-55.9c-2.83-1.68-3.73-4.91-1.99-7.17l18.96-24.58c1.74-2.26,5.31-2.42,7.94-.37l31.32,24.55c2.62,2.06,2.75,4.93.29,6.38l-8.94,5.27c-2.46,1.45-2.29,4.25.39,6.23l55.69,41c2.68,1.97,5.08,6.13,5.33,9.25l.84,10.19c.26,3.12,2.85,5.24,5.77,4.73l149.06-26.3c2.92-.52,4.75-3.49,4.06-6.61l-6.38-28.99c-.69-3.12,1.23-5.72,4.27-5.77l10.37-.18c3.03-.05,3.73-2.17,1.55-4.71l-60.17-70.09c-2.18-2.54-6.46-4.67-9.52-4.74l-16.14-.36c-3.05-.07-3.7-1.53-1.44-3.25l15.96-12.14c2.26-1.72,6.28-1.48,8.93.54l149.44,113.96c2.65,2.02,7.2,3.25,10.12,2.73l8.4-1.48c7.24-1.55,10.89-9.04,8.14-16.74Zm-182.52-120.02c-2.62-2.06-6.57-2.26-8.76-.46l-119.45,97.93c-2.2,1.8-6.11,1.55-8.7-.56l-51.89-42.32c-2.59-2.11-6.15-2.01-7.92.22l-125.74,158.2c-.09-.9-.26-1.82-.53-2.76-7.27-25.05-10.95-50.53-10.95-75.72,0-46.17,12.43-87.44,34.1-121.19,9.61,6.75,20.59,11.5,32.27,13.42,37.68,6.21,68.23-19.3,68.23-56.98,0-11.67-2.94-23.14-8.1-33.6,37.32-15.52,80.64-20.8,126.81-13.19,103.2,17.01,197.17,96.44,235.32,198.3l-154.67-121.3Z" fill="#7ccbdb"/>
      </g>
    </g>
    <g clip-path="url(#clippath-1)" fill="none">
      <g id="blue-2" data-name="blue" fill="none" filter="url(#drop-shadow-2)">
        <path id="bottom-2" data-name="bottom" d="m691.84,359.37c.05-11.37-8.02-19.33-18.76-19.42-1.98-.57-11.46,2.03-13.38,3.81-8.52,5.09-14.54,14.57-14.59,24.34v.73c.05.78-3.06,3.19-6.91,5.35l-107.59,60.47c-3.86,2.17-9.46,2.1-12.45-.15,0,0-5.88-4.41-14.07-2.88-12.91,2.41-23.41,14.83-23.47,27.75v2.05c.41,2.05-2.28,5.75-6,8.21l-107.62,71.3c-3.72,2.46-9.3,2.76-12.41.65,0,0-5.4-3.67-13.14-2.22-19.73,3.77-22.1,20.09-22.1,20.09-1.76,4.05-4.65,8.19-8.71,9.64l-98.95,35.22c-4.06,1.44-9.45.37-11.97-2.4,0,0-7.18-7.85-17.16-5.99-12.91,2.41-23.41,14.83-23.47,27.75-.06,12.92,10.36,21.43,23.26,19.02.51-.1,1.01-.25,1.5-.39,29.13,30.03,66.15,50.46,107.69,60.08,1.69,10.87,11.3,17.64,22.97,15.46,6.35-1.18,12.1-4.8,16.33-9.69,22.17,1.45,45.22.07,68.72-4.32.43-.08.84-.16,1.28-.24,27.62-5.28,54.32-14.43,79.55-26.74,3.83,2.05,8.51,2.82,13.6,1.87,11.13-2.08,20.47-11.62,22.86-22.49,35.13-22.75,66.4-51.82,91.99-85.03.47-.05.95-.1,1.44-.19,12.9-2.41,23.41-14.83,23.47-27.75.01-2.48-.37-4.79-1.07-6.89,28.6-47.43,46.1-100.87,48.29-155.3,6.51-5.37,10.85-13.43,10.89-21.71Zm-165.05,97.13s.53-1.23.55-5.85v-.73c-.05-.78,3.06-3.19,6.91-5.35l107.59-60.47c3.86-2.17,9.46-2.1,12.45.14,0,0,.19.14.52.35-1.88,48.81-17.37,96.76-42.73,139.44-.54.06-1.07.12-1.61.22-4.19.78-4.62,1.04-4.62,1.04-3.8,2.29-9.22,2.16-12.04-.3l-65.07-56.65c-2.82-2.45-3.7-7.78-1.95-11.84Zm-31.49,29.5c2.02-3.97,5.12-7.25,6.89-7.29l1.68-.31c4.22-.79,4.69-1.07,4.69-1.07,3.8-2.3,9.21-2.18,12.03.28l65.05,56.63c2.82,2.45,2.7,9.83,2.26,12.03-.44,2.2-4.15,5.04-8.23,6.31l-121.09,37.61c-4.08,1.27-8.15.9-9.04-.83s-2.64-8.48-.61-12.45l46.37-90.9Zm-130.59,73.22c0-3.74,2.78-6.21,6.5-8.68l108.74-72.04c3.72-2.46,6.8-5.06,7.47-3.88s-.17,4.36-2.19,8.33l-45.97,90.12c-2.02,3.97-5.6,7.15-7.94,7.07l-2.27.42c-6.5,1.21-10.45,4.66-10.45,4.66-3.4,2.96-8.98,4.04-12.39,2.39l-36.83-17.78c-6.54-2.77-4.68-7.73-4.67-10.61Zm-16.65,24.28c2.76-1.22,11.53-4.87,14.94-3.22l37.41,18.06c3.41,1.65,5.74,5.07,5.17,7.61v2.36l-.02,2.9c.82,2.78-1.39,7.33-4.92,10.12l-62.19,49.22c-3.53,2.79-9.65,2.67-11.1,2.06-1.45-.61-1.91-4.54-1.02-8.72l15.08-70.56c.89-4.19,3.88-8.6,6.64-9.82Zm-143.94,38.39c2.42-2.93,5.88-5.61,8.86-6.68l99.99-35.59c4.06-1.44,8.85-.89,10.65,1.22,3.7,2.35,9.3,3.15,6.72,12.71l-14.99,70.14c-.89,4.19-4.67,9.63-8.38,12.11,0,0-.7.47-1.76,1.29-39.05-8.36-73.87-27.16-101.09-55.21Zm196.7,55.54c-.38.07-.77.15-1.16.22-19.94,3.72-39.51,5.04-58.43,4.11.73-.79,1.56-1.57,2.45-2.27l63.29-50.09c3.53-2.79,9.27-3.84,12.75-2.33,0,0,3.16,1.37,9.1.26,4.7-.88,5.97-1.71,5.97-1.71,3.73-2.45,9.21-2.6,12.18-.33l22.12,16.9c2.97,2.27,3.96,7.45,2.2,11.5,0,0-.04.11-.11.35-22.37,10.74-45.99,18.72-70.39,23.39Zm106.57-43.84c-3.75-1.88-8.29-2.56-13.2-1.64-4.16.78-4.52,1-4.52,1-3.81,2.28-9.36,2.28-12.33.01l-22.64-17.3c-2.97-2.27-4.91-5.31-4.31-6.75s2.18-6.39,8.98-7.69l122.13-37.93c1.15-.36,2.41-.5,3.68-.5-22.04,27.44-48.41,51.55-77.79,70.8Z" fill="#7ccbdb"/>
        <path id="middle-2" data-name="middle" d="m69.52,633.13c-7.78,1.49-17.67,1.89-21.34-5.65-4.5-9.24,4.78-20.14,7.83-23.73,4.28-5.04,10.48-11.12,18.4-18.09,13.05-11.47,26.45-21.55,27.01-21.97,4.93-3.7,11.16-3.13,13.91,1.27,2.76,4.4,1,10.97-3.93,14.67-.1.08-10.54,7.93-21.49,17.28-7.55,6.45-12.63,11.28-16.03,14.8,10.2-2.64,30.51-9.64,70.47-27.69,58.77-26.55,146.69-70.88,261.33-131.76,117.24-62.26,205.58-111.65,262.57-146.8,39.55-24.38,57.65-38.04,65.92-45.32-9.71,1.33-25.29,5.1-39.77,9.85-5.59,1.84-10.75-1.09-11.52-6.54-.77-5.45,3.15-11.35,8.74-13.19.58-.19,14.42-4.71,28.84-8,18.98-4.32,36.98-6.59,40.09,6.01,2.83,11.44-11,23.23-16.91,28.26-11.22,9.56-28.6,21.77-53.14,37.31-56.68,35.9-150.3,88.56-278.26,156.52-125.27,66.53-218.72,113.34-277.76,139.13-25.69,11.22-44.61,18.4-57.83,21.94-1.86.5-4.38,1.17-7.17,1.7Z" fill="#7ccbdb"/>
        <path id="top-2" data-name="top" d="m667.13,278.35c-13.76-33.7-34.66-62.41-61.47-84.78-4.87-4.07-9.94-7.93-15.2-11.57-2.63-1.82-5.3-3.59-8.02-5.3-5.44-3.42-11.07-6.62-16.87-9.59-14.84-7.59-30.5-13.49-46.8-17.68-35.85-9.2-74.78-10.1-114.82-2.44-53.09,10.15-102.78,34.44-145.2,68.21-11.54-6.73-26.01-9.3-41.74-6.29-37.68,7.21-68.23,43.6-68.23,81.28,0,15.73,5.34,29.18,14.28,39.01-25.66,47.32-40.45,99.84-40.45,152.93,0,27.96,4.09,54.8,12.17,79.76,1.84,5.69,7.4,8.52,13.41,7.37,1.35-.26,2.73-.72,4.09-1.39,1.06-.52,3.95-2.16,4.62-2.51l203.13-108.18c2.92-1.55,6.22-5.35,7.34-8.44l4.64-12.81c1.12-3.09-.29-6.17-3.12-6.84l-94.03-22.41c-2.83-.68-3.73-3.58-1.99-6.46l18.96-31.34c1.74-2.88,5.31-4.32,7.94-3.19l31.32,13.4c2.62,1.12,2.75,3.95.29,6.27l-8.94,8.46c-2.46,2.33-2.29,5.07.39,6.09l55.69,21.17c2.68,1.02,5.08,4.33,5.33,7.35l.84,9.89c.26,3.02,2.85,4.23,5.77,2.67l149.06-79.38c2.92-1.55,4.75-5.18,4.06-8.06l-6.38-26.71c-.69-2.88,1.23-6.15,4.27-7.29l10.37-3.87c3.03-1.13,3.73-3.5,1.55-5.27l-60.17-48.66c-2.18-1.76-6.46-2.37-9.52-1.35l-16.14,5.39c-3.05,1.02-3.7-.21-1.44-2.74l15.96-17.83c2.26-2.53,6.28-3.72,8.93-2.64l149.44,60.74c2.65,1.08,7.2.68,10.12-.87l8.4-4.47c7.24-4.13,10.89-12.92,8.14-19.64Zm-182.52-55.02c-2.62-1.12-6.57.07-8.76,2.66l-119.45,140.47c-2.2,2.58-6.11,3.73-8.7,2.54l-51.89-23.84c-2.59-1.19-6.15.18-7.92,3.05l-125.74,202.98c-.09-.87-.26-1.73-.53-2.57-7.27-22.47-10.95-46.63-10.95-71.82,0-46.17,12.43-91.87,34.1-133.33,9.61,3.33,20.59,4.16,32.27,1.93,37.68-7.21,68.23-43.6,68.23-81.28,0-11.67-2.94-22.1-8.1-30.72,37.32-28.81,80.64-49.52,126.81-58.35,103.2-19.74,197.17,26.22,235.32,114.5l-154.67-66.22Z" fill="#7ccbdb"/>
      </g>
    </g>
    <g clip-path="url(#clippath-2)" fill="none">
      <g id="blue-3" data-name="blue" fill="none" filter="url(#drop-shadow-3)">
        <path id="bottom-3" data-name="bottom" d="m703.84,415.78c.05-11.36-8.02-22.26-18.76-26.29-1.98-1.29-11.46-2.16-13.38-1.09-8.52,1.97-14.54,9.24-14.59,18.99v.73c.05.8-3.06,2.07-6.91,2.82l-107.59,21.07c-3.86.76-9.46-1.36-12.45-4.71,0,0-5.88-6.56-14.07-8.03-12.91-2.32-23.41,6.26-23.47,19.16v2.05c.41,2.21-2.28,4.92-6,6.02l-107.62,31.89c-3.72,1.1-9.3-.65-12.41-3.89,0,0-5.4-5.65-13.14-7.03-19.73-3.45-22.1,11.99-22.1,11.99-1.76,3.41-4.65,6.49-8.71,6.45l-98.95-1.01c-4.06-.04-9.45-3.09-11.97-6.78,0,0-7.18-10.48-17.16-12.27-12.91-2.32-23.41,6.26-23.47,19.16-.06,12.89,10.36,25.23,23.26,27.54.51.09,1.01.12,1.5.16,29.13,40.7,66.15,74.69,107.69,99.51,1.69,11.49,11.3,21.78,22.97,23.87,6.35,1.14,12.1-.37,16.33-3.71,22.17,9.57,45.22,16.63,68.72,20.84.43.08.84.15,1.28.22,27.62,4.83,54.32,5.46,79.55,2.39,3.83,3.45,8.51,5.94,13.6,6.85,11.13,2,20.47-4.12,22.86-14.12,35.13-9.89,66.4-27.5,91.99-51.34.47.13.95.25,1.44.33,12.9,2.32,23.41-6.26,23.47-19.16.01-2.47-.37-4.92-1.07-7.28,28.6-36.95,46.1-83.99,48.29-137.61,6.51-2.98,10.85-9.46,10.89-17.73Zm-165.05,36.69s.53-1.04.55-5.65v-.73c-.05-.8,3.06-2.07,6.91-2.82l107.59-21.07c3.86-.76,9.46,1.36,12.45,4.71,0,0,.19.21.52.54-1.88,48.12-17.37,90.4-42.73,123.79-.54-.13-1.07-.27-1.61-.37-4.19-.75-4.62-.65-4.62-.65-3.8.9-9.22-1.22-12.04-4.71l-65.07-80.48c-2.82-3.49-3.7-9.14-1.95-12.56Zm-31.49,17.97c2.02-3.23,5.12-5.37,6.89-4.77l1.68.3c4.22.76,4.69.64,4.69.64,3.8-.91,9.21,1.2,12.03,4.68l65.05,80.45c2.82,3.49,2.7,10.82,2.26,12.86-.44,2.04-4.15,3.52-8.23,3.29l-121.09-6.73c-4.08-.23-8.15-2.09-9.04-4.14s-2.64-9.45-.61-12.67l46.37-73.92Zm-130.59,25.4c0-3.74,2.78-5.2,6.5-6.3l108.74-32.22c3.72-1.1,6.8-2.57,7.47-1.14s-.17,4.3-2.19,7.53l-45.97,73.28c-2.02,3.23-5.6,5.1-7.94,4.16l-2.27-.41c-6.5-1.17-10.45.83-10.45.83-3.4,1.72-8.98.75-12.39-2.14l-36.83-31.27c-6.54-5.17-4.68-9.45-4.67-12.32Zm-16.65,18.19c2.76-.21,11.53-.65,14.94,2.25l37.41,31.76c3.41,2.89,5.74,7.17,5.17,9.5v2.36l-.02,2.9c.82,3.08-1.39,6.82-4.92,8.32l-62.19,26.44c-3.53,1.5-9.65-.86-11.1-2.01-1.45-1.14-1.91-5.24-1.02-9.09l15.08-65.04c.89-3.86,3.88-7.18,6.64-7.39Zm-143.94-14.32c2.42-2.04,5.88-3.46,8.86-3.43l99.99,1.02c4.06.04,8.85,2.35,10.65,5.12,3.7,3.7,9.3,6.55,6.72,15.17l-14.99,64.66c-.89,3.86-4.67,7.92-8.38,9.04,0,0-.7.22-1.76.65-39.05-22.66-73.87-54.21-101.09-92.23Zm196.7,127.56c-.38-.07-.77-.14-1.16-.21-19.94-3.58-39.51-9.43-58.43-17.28.73-.53,1.56-1,2.45-1.37l63.29-26.91c3.53-1.5,9.27-.45,12.75,2.34,0,0,3.16,2.53,9.1,3.59,4.7.84,5.97.47,5.97.47,3.73-1.09,9.21.78,12.18,4.14l22.12,25c2.97,3.36,3.96,8.9,2.2,12.31,0,0-.04.09-.11.31-22.37,2.54-45.99,1.89-70.39-2.38Zm106.57-4.82c-3.75-3.26-8.29-5.59-13.2-6.47-4.16-.75-4.52-.66-4.52-.66-3.81.88-9.36-1.14-12.33-4.5l-22.64-25.59c-2.97-3.36-4.91-7.11-4.31-8.32s2.18-5.59,8.98-4.4l122.13,6.79c1.15.06,2.41.38,3.68.85-22.04,19.37-48.41,33.83-77.79,42.31Z" fill="#7ccbdb"/>
        <path id="middle-3" data-name="middle" d="m81.52,461.67c-7.78-1.36-17.67-4.58-21.34-13.46-4.5-10.89,4.78-18.39,7.83-20.86,4.28-3.47,10.48-7.29,18.4-11.35,13.05-6.69,26.45-11.86,27.01-12.08,4.93-1.89,11.16.96,13.91,6.37,2.76,5.41,1,11.33-3.93,13.23-.1.04-10.54,4.07-21.49,9.41-7.55,3.68-12.63,6.65-16.03,8.93,10.2,1.1,30.51,1.53,70.47-1.89,58.77-5.03,146.69-17.16,261.33-36.07,117.24-19.33,205.58-36.37,262.57-50.65,39.55-9.9,57.65-16.93,65.92-21.18-9.71-2.22-25.29-4.16-39.77-4.72-5.59-.21-10.75-5.03-11.52-10.76-.77-5.73,3.15-10.2,8.74-9.99.58.02,14.42.57,28.84,2.56,18.98,2.63,36.98,6.95,40.09,20.69,2.83,12.47-11,19.2-16.91,22.07-11.22,5.46-28.6,11.3-53.14,17.85-56.68,15.15-150.3,33.53-278.26,54.63-125.27,20.66-218.72,33.25-277.76,37.42-25.69,1.82-44.61,2.07-57.83.76-1.86-.18-4.38-.43-7.17-.92Z" fill="#7ccbdb"/>
        <path id="top-3" data-name="top" d="m679.13,325.71c-13.76-38.74-34.66-75.1-61.47-107.29-4.87-5.85-9.94-11.57-15.2-17.13-2.63-2.78-5.3-5.53-8.02-8.23-5.44-5.41-11.07-10.67-16.87-15.77-14.84-13.03-30.5-24.66-46.8-34.81-35.85-22.33-74.78-37.48-114.82-44.49-53.09-9.29-102.78-3.19-145.2,15.05-11.54-10.96-26.01-18.83-41.74-21.58-37.68-6.59-68.23,18.61-68.23,56.3,0,15.73,5.34,31.13,14.28,44.24-25.66,37.93-40.45,85.03-40.45,138.12,0,27.96,4.09,56.3,12.17,84.22,1.84,6.37,7.4,11.23,13.41,12.28,1.35.24,2.73.28,4.09.1,1.06-.14,3.95-.71,4.62-.82l203.13-33.8c2.92-.49,6.22-3.08,7.34-5.75l4.64-11.12c1.12-2.68-.29-6.27-3.12-7.99l-94.03-56.85c-2.83-1.71-3.73-4.95-1.99-7.19l18.96-24.39c1.74-2.24,5.31-2.37,7.94-.29l31.32,24.87c2.62,2.08,2.75,4.95.29,6.38l-8.94,5.18c-2.46,1.43-2.29,4.23.39,6.23l55.69,41.56c2.68,2,5.08,6.19,5.33,9.3l.84,10.19c.26,3.12,2.85,5.27,5.77,4.79l149.06-24.8c2.92-.49,4.75-3.44,4.06-6.57l-6.38-29.05c-.69-3.13,1.23-5.7,4.27-5.72l3.49.1c3.03-.02,4.18-3.44,2-6l-53.73-69.56c-2.18-2.56-6.46-4.74-9.52-4.84l-16.14-.52c-3.05-.1-3.7-1.57-1.44-3.27l15.96-11.98c2.26-1.7,6.28-1.42,8.93.63l149.44,115.46c2.65,2.05,7.2,3.32,10.12,2.84l8.4-1.4c7.24-1.48,10.89-8.93,8.14-16.65Zm-182.52-121.86c-2.62-2.08-6.57-2.33-8.76-.55l-119.45,96.73c-2.2,1.78-6.11,1.49-8.7-.65l-51.89-42.84c-2.59-2.13-6.15-2.07-7.92.14l-125.74,156.94c-.09-.9-.26-1.83-.53-2.76-7.27-25.13-10.95-50.64-10.95-75.83,0-46.17,12.43-87.32,34.1-120.84,9.61,6.85,20.59,11.71,32.27,13.75,37.68,6.59,68.23-18.61,68.23-56.3,0-11.67-2.94-23.17-8.1-33.68,37.32-15.14,80.64-19.99,126.81-11.91,103.2,18.05,197.17,98.42,235.32,200.67l-154.67-122.86Z" fill="#7ccbdb"/>
      </g>
    </g>
  </g>
  <path d="m548.28,15v710.59m0-710.51l266.64,88.88v710.95M548.18,15.08l-133.32,44.44m133.42,666.6l-266.64,88.88V103.96L15,15.08v711.04l133.32,44.44m399.86-44.44l133.32,44.44" fill="none" stroke="#0b4452" stroke-linecap="round" stroke-linejoin="round" stroke-width="30"/>
</svg>