<?xml version="1.0" encoding="utf-8"?>
<!-- Generator: Adobe Illustrator 27.5.0, SVG Export Plug-In . SVG Version: 6.00 Build 0)  -->
<svg version="1.1" id="Layer_1" xmlns="http://www.w3.org/2000/svg" xmlns:xlink="http://www.w3.org/1999/xlink" x="0px" y="0px"
	 viewBox="0 0 1000 1000" style="enable-background:new 0 0 1000 1000;" xml:space="preserve">
<style type="text/css">
	.st0{fill:#FFFFFF;}
	.st1{fill:#18677A;}
	.st2{fill:#1F89A2;}
	.st3{opacity:0.4;}
	.st4{clip-path:url(#SVGID_00000155133206715319725400000007321124697938839688_);}
</style>
<circle class="st0" cx="500" cy="500" r="500"/>
<g>
	<path class="st1" d="M500,82.4c-158.5,0-287,128.5-287,287c0,78.1,72.4,189.9,139.3,293.3C421.1,769.3,470,866.4,500,866.4
		s78.9-97.1,147.7-203.7C714.6,559.3,787,447.5,787,369.4C787,210.9,658.5,82.4,500,82.4z M500,472.4c-70.1,0-127-56.9-127-127
		s56.9-127,127-127s127,56.9,127,127S570.1,472.4,500,472.4z"/>
	<g id="layer1" transform="translate(-53.437414,-25)">
		<circle class="st0" cx="553.4" cy="370.4" r="127"/>
		<path class="st2" d="M520,466.3c-0.2,0-0.5,0-0.7,0c-5.3-0.2-10.3-2.5-13.9-6.4s-5.5-9-5.3-14.4c0.1-3.3,1.1-6.6,2.7-9.4l-32.1-27
			c-2.4,1.6-5.2,2.4-8.1,2.3c-3.6-0.1-7-1.7-9.4-4.3c-2.5-2.7-3.7-6.1-3.6-9.7s1.7-7,4.3-9.4c2.6-2.4,5.9-3.7,9.4-3.6l15.9-57.1
			c-7.1-3.4-11.5-10.8-11.2-18.7c0.2-5.3,2.5-10.3,6.4-13.9s9-5.5,14.4-5.3c5.3,0.2,10.3,2.5,13.9,6.4s5.5,8.9,5.3,14.1l26.8,4.8
			l9-15.1c-2.5-2.6-3.9-6.2-3.8-9.9l0,0c0.3-7.5,6.5-13.3,14-13c3.6,0.1,7,1.7,9.4,4.3c2.5,2.7,3.8,6.1,3.6,9.7
			c-0.1,1.6-0.4,3.1-0.9,4.5L602,322c2.5-2.1,5.8-3.2,9.1-3.1c7.5,0.3,13.3,6.6,13,14c-0.3,7.1-5.9,12.7-12.9,13l-7.8,37.2l17.2,4.6
			c3.1-7.7,10.8-12.8,19.3-12.5c5.3,0.2,10.3,2.5,13.9,6.4c3.6,3.9,5.5,9,5.3,14.4c-0.2,5.3-2.5,10.3-6.4,13.9s-9,5.5-14.4,5.3
			c-4.3-0.2-8.3-1.7-11.7-4.3l-26.2,23.4c0.8,1.8,1.2,3.8,1.1,5.8c-0.1,3.6-1.7,7-4.3,9.4c-2.6,2.5-6.1,3.7-9.7,3.6
			c-3.6-0.1-7-1.7-9.4-4.3c-2.5-2.7-3.7-6.1-3.6-9.7c0-0.1,0-0.1,0-0.2l-36.7-12.2l-3.8,5.6c0.1,0.1,0.3,0.3,0.4,0.4
			c3.6,3.9,5.5,9,5.3,14.4C539.6,457.8,530.8,466.3,520,466.3z M470.7,405.2c0.4,0,0.8,0.1,1.1,0.4l34.3,28.9
			c0.7,0.6,0.8,1.6,0.3,2.3c-1.8,2.6-2.9,5.7-3,8.9c-0.2,4.4,1.4,8.7,4.4,11.9c3,3.2,7.1,5.1,11.5,5.3c0.2,0,0.4,0,0.6,0
			c9,0,16.2-7,16.6-16c0.2-4.4-1.4-8.7-4.4-11.9c-0.4-0.4-0.8-0.8-1.3-1.2c-0.6-0.6-0.8-1.5-0.3-2.2l5.3-7.9c0.4-0.6,1.2-0.9,2-0.7
			l39.2,13c0.8,0.3,1.3,1.1,1.1,1.9c-0.1,0.4-0.1,0.9-0.1,1.3c-0.1,2.7,0.9,5.3,2.7,7.3s4.3,3.1,7,3.2c0.1,0,0.3,0,0.4,0
			c2.6,0,5-1,6.9-2.7c2-1.8,3.1-4.3,3.2-7c0.1-1.9-0.4-3.7-1.3-5.3c-0.4-0.7-0.2-1.6,0.4-2.1l28.3-25.3c0.7-0.6,1.7-0.6,2.3,0
			c2.9,2.7,6.7,4.2,10.6,4.4c0.2,0,0.4,0,0.6,0c4.2,0,8.2-1.6,11.3-4.4c3.2-3,5.1-7.1,5.3-11.5s-1.4-8.7-4.4-11.9
			c-3-3.2-7.1-5.1-11.5-5.3c-7.5-0.3-14.2,4.5-16.5,11.7c-0.3,0.9-1.2,1.4-2.1,1.1l-20.3-5.4c-0.9-0.2-1.4-1.1-1.2-2l8.4-40.1
			c0.2-0.8,0.9-1.4,1.8-1.4h0.3c0.1,0,0.2,0,0.4,0c5.5,0,9.9-4.3,10.1-9.8c0.2-5.6-4.2-10.3-9.7-10.5c-2.9-0.1-5.6,1-7.6,3.1
			c-0.6,0.6-1.6,0.7-2.2,0.2L563,297c-0.7-0.5-0.9-1.4-0.5-2.2c0.7-1.4,1.1-2.8,1.2-4.4c0.1-2.7-0.9-5.3-2.7-7.3s-4.3-3.1-7-3.2
			c-0.1,0-0.3,0-0.4,0c-5.5,0-9.9,4.3-10.1,9.8l0,0c-0.1,3.1,1.2,6.1,3.6,8.1c0.6,0.5,0.8,1.5,0.4,2.2L537,317.3
			c-0.4,0.6-1.1,0.9-1.8,0.8l-29.4-5.3c-0.9-0.2-1.5-1-1.4-1.9c0-0.4,0.1-0.7,0.1-1.1c0.2-4.4-1.4-8.7-4.4-11.9
			c-3-3.2-7.1-5.1-11.5-5.3c-4.4-0.2-8.7,1.4-11.9,4.4c-3.2,3-5.1,7.1-5.3,11.5c-0.3,7,4,13.5,10.5,16c0.8,0.3,1.3,1.2,1,2
			l-16.7,59.9c-0.2,0.8-1,1.3-1.9,1.2c-0.3,0-0.6-0.1-0.9-0.1c-2.7-0.1-5.3,0.9-7.3,2.7c-2,1.8-3.1,4.3-3.2,7s0.9,5.3,2.7,7.3
			c1.8,2,4.3,3.1,7,3.2c0.1,0,0.3,0,0.4,0c2.4,0,4.7-0.8,6.5-2.4C469.9,405.3,470.3,405.2,470.7,405.2z M577.5,436
			c-0.2,0-0.4,0-0.5-0.1l-38.2-12.7c-0.5-0.2-0.9-0.6-1.1-1.1c-0.2-0.5-0.1-1.1,0.2-1.5l19.3-28.7c0.5-0.7,1.4-1,2.2-0.6
			c2.2,1.2,4.7,1.8,7.2,1.9c4.4,0.2,8.7-1.4,11.9-4.4l0,0c1.9-1.8,3.3-3.8,4.2-6.2c0.3-0.8,1.2-1.3,2-1l13,3.5
			c0.9,0.2,1.4,1.1,1.2,2l-8.6,41c-0.2,0.8-0.9,1.4-1.8,1.4l-0.1-1.7l-0.1,1.7c-2.7-0.1-5.3,0.9-7.3,2.7c-0.9,0.8-1.6,1.8-2.2,2.9
			C578.8,435.6,578.1,436,577.5,436z M541.9,420.6l34.8,11.6c0.6-1,1.4-1.8,2.2-2.6c2.3-2.2,5.3-3.4,8.4-3.6l8-38l-10-2.7
			c-1.1,2.3-2.6,4.3-4.5,6.1l0,0c-3.9,3.6-9,5.5-14.4,5.3c-2.6-0.1-5-0.7-7.3-1.7L541.9,420.6z M507.2,434.8c-0.4,0-0.8-0.1-1.1-0.4
			l-34.2-28.8c-0.7-0.6-0.8-1.5-0.3-2.2c0.2-0.3,0.3-0.5,0.5-0.8c0.4-0.7,1.3-1.1,2-0.8l39.7,13.2c0.6,0.2,1,0.7,1.1,1.4l1.9,12
			c0.1,0.9-0.4,1.7-1.2,1.9c-2.6,0.7-4.9,2-6.9,3.9l-0.3,0.2C508.1,434.7,507.6,434.8,507.2,434.8z M478.8,406.9l28.4,23.9
			c1.8-1.5,3.8-2.7,6-3.4l-1.5-9.5L478.8,406.9z M596.4,432.7c-0.4,0-0.9-0.2-1.2-0.5c-1-1-2.2-1.8-3.6-2.2c-0.8-0.3-1.3-1.1-1.1-2
			l8.5-40.8c0.1-0.5,0.4-0.9,0.8-1.1c0.4-0.2,0.9-0.3,1.3-0.2l20.3,5.4c0.8,0.2,1.3,1,1.3,1.8c0,0.4-0.1,0.8-0.1,1.2
			c-0.1,3.8,1,7.4,3.2,10.4c0.5,0.7,0.4,1.7-0.2,2.3l-28.1,25.1C597.2,432.5,596.8,432.7,596.4,432.7z M594.1,427.3
			c0.8,0.4,1.5,0.8,2.2,1.4l25.8-23.1c-2.1-3.4-3.1-7.2-3-11.3l-17.2-4.6L594.1,427.3z M529.1,432.1c-0.3,0-0.6-0.1-0.9-0.2
			c-2.3-1.3-5-2.1-7.7-2.2c-0.6,0-1.2,0-1.9,0c-0.9,0-1.7-0.6-1.8-1.4l-1.6-10.2c-0.1-0.6,0.1-1.2,0.6-1.6s1.1-0.5,1.6-0.3l16.9,5.6
			c0.5,0.2,0.9,0.6,1.1,1.1c0.2,0.5,0.1,1.1-0.2,1.5l-4.7,7C530.2,431.8,529.7,432.1,529.1,432.1z M520,426.2c0.2,0,0.5,0,0.7,0
			c2.7,0.1,5.4,0.8,7.9,1.9l2.6-3.9l-12.1-4L520,426.2z M535.8,422.1c-0.2,0-0.4,0-0.5-0.1l-19.5-6.5c-0.6-0.2-1-0.7-1.1-1.4
			l-5.4-34.1c-0.1-0.8,0.4-1.6,1.2-1.9c1.4-0.5,2.7-1.2,3.8-2.2c1.4-1.3,2.4-2.9,2.9-4.7c0.2-0.8,1-1.4,1.9-1.2l30.1,4.2
			c0.9,0.1,1.5,0.9,1.5,1.8c-0.2,4.4,1.4,8.7,4.4,11.9c0.5,0.6,1.1,1.1,1.7,1.6c0.7,0.6,0.8,1.5,0.3,2.3l-19.8,29.5
			C536.9,421.8,536.4,422.1,535.8,422.1z M517.9,412.6l17.3,5.7l18.3-27.2c-0.3-0.3-0.6-0.6-0.9-0.9c-3.3-3.5-5.2-8-5.3-12.8
			l-27.3-3.8c-0.7,1.8-1.9,3.5-3.3,4.9c-1.1,1-2.3,1.9-3.7,2.5L517.9,412.6z M512.6,414.4c-0.2,0-0.4,0-0.5-0.1l-37.9-12.6
			c-0.8-0.3-1.3-1.1-1.1-1.9c0.1-0.5,0.2-1,0.2-1.5c0.1-2.7-0.9-5.3-2.7-7.3c-0.9-1-2-1.8-3.3-2.4c-0.8-0.3-1.2-1.2-0.9-2l16.7-59.8
			c0.2-0.9,1.1-1.4,2-1.2c0.8,0.1,1.6,0.2,2.4,0.3c1.4,0.1,2.9-0.1,4.3-0.4c0.9-0.2,1.7,0.3,2,1.1l10.1,31c0.3,0.8-0.1,1.7-0.9,2.1
			c-0.9,0.4-1.6,1-2.3,1.6c-2,1.8-3.1,4.3-3.2,7s0.9,5.3,2.7,7.3c1.8,2,4.3,3.1,7,3.2c0.1,0,0.3,0,0.4,0c0.8,0,1.7,0.6,1.8,1.4
			l5.1,32.3c0.1,0.6-0.1,1.2-0.6,1.6C513.4,414.3,513,414.4,512.6,414.4z M476.6,398.9l33.9,11.3l-4.4-28.1
			c-3.3-0.3-6.3-1.8-8.6-4.3c-2.5-2.6-3.7-6.1-3.6-9.7s1.7-7,4.3-9.4c0.6-0.5,1.2-1,1.8-1.4l-9.2-28.2c-1.2,0.2-2.4,0.2-3.6,0.2
			c-0.5,0-0.9,0-1.4-0.1l-15.9,57.1c1.1,0.7,2.2,1.5,3.1,2.5c2.5,2.6,3.7,6.1,3.6,9.7C476.6,398.5,476.6,398.7,476.6,398.9z
			 M598,385c-0.1,0-0.3,0-0.4-0.1l-12.8-3.4c-0.9-0.2-1.4-1.1-1.2-1.9c0.1-0.8,0.2-1.5,0.2-2.3c0.2-4.4-1.4-8.7-4.4-11.9l-0.1-0.1
			c-0.6-0.7-0.6-1.7,0.1-2.4l22.9-22.5c0.6-0.6,1.6-0.7,2.2-0.1c0.8,0.6,1.6,1.1,2.6,1.4c0.8,0.3,1.2,1.1,1.1,1.9l-8.4,40
			c-0.1,0.5-0.4,0.9-0.8,1.1C598.7,384.9,598.3,385,598,385z M587.1,378.6l9.6,2.6l7.7-36.9c-0.3-0.1-0.6-0.3-0.8-0.5l-20.7,20.4
			c3,3.8,4.5,8.4,4.3,13.2C587.2,377.8,587.1,378.2,587.1,378.6z M549.4,374.2c-0.1,0-0.2,0-0.2,0L519,370c-0.8-0.1-1.5-0.8-1.5-1.7
			c-0.1-3.2-1.7-6.1-4.2-8c-0.7-0.5-0.9-1.5-0.5-2.3l23.1-38.7c0.4-0.6,1.1-0.9,1.8-0.8l61.5,11c0.9,0.2,1.5,0.9,1.4,1.8
			c0,0.1,0,0.3,0,0.4c-0.1,2.3,0.6,4.4,1.9,6.3c0.5,0.7,0.4,1.6-0.2,2.2L579.1,363c-0.6,0.6-1.5,0.7-2.2,0.2c-2.7-1.9-5.8-3-9.1-3.1
			c-7.9-0.3-15,5.1-16.8,12.8C550.8,373.7,550.1,374.2,549.4,374.2z M520.8,366.8l27.3,3.8c2.7-8.5,10.8-14.3,19.8-14
			c3.5,0.1,6.8,1.1,9.8,3l21.1-20.8c-1.1-1.9-1.7-4-1.7-6.2L538.2,322l-21.7,36.4C518.8,360.7,520.4,363.6,520.8,366.8z
			 M511.1,359.1c-0.2,0-0.4,0-0.5-0.1c-0.9-0.3-1.9-0.5-2.8-0.5c-0.7,0-1.4,0-2.1,0.1c-0.8,0.1-1.6-0.4-1.9-1.2l-10.1-31
			c-0.3-0.8,0.1-1.7,0.9-2.1c1.7-0.7,3.2-1.8,4.6-3c2.2-2,3.7-4.5,4.6-7.3c0.3-0.8,1.1-1.3,1.9-1.2l28.2,5.1c0.6,0.1,1,0.5,1.3,1
			s0.2,1.1-0.1,1.6l-22.5,37.8C512.3,358.8,511.7,359.1,511.1,359.1z M507.4,355c0.2,0,0.3,0,0.5,0c0.8,0,1.7,0.1,2.5,0.3l20.6-34.5
			l-24.3-4.4c-1.1,2.8-2.8,5.3-5,7.4c-1.3,1.2-2.7,2.2-4.2,3l9.2,28.2C506.8,355,507.1,355,507.4,355z M599.6,329.6
			c-0.1,0-0.2,0-0.3,0l-60.4-10.8c-0.6-0.1-1-0.5-1.3-1c-0.2-0.5-0.2-1.1,0.1-1.6l9.6-16.2c0.4-0.7,1.4-1,2.1-0.7
			c1.1,0.5,2.4,0.8,3.6,0.8c0.1,0,0.3,0,0.4,0c2.7,0,5.3-1.1,7.2-3c0.6-0.6,1.6-0.7,2.2-0.2l38.2,28.5c0.7,0.5,0.9,1.4,0.5,2.2
			c-0.2,0.3-0.3,0.6-0.4,0.9C600.9,329.2,600.3,329.6,599.6,329.6z M541.9,315.8l53.3,9.6L562,300.5c-2.5,2-5.7,3.1-9,3
			c-1.2,0-2.3-0.2-3.4-0.6L541.9,315.8z"/>
		<path id="path11539_00000155122727848596696790000007096451914449565117_" class="st2" d="M541.6,289.6c-0.1,3.8,1.5,7.2,4.2,9.5
			l0,0l-10.3,17.3l-29.4-5.3c0-0.4,0.1-0.8,0.1-1.2l0,0c0.2-4.9-1.6-9.5-4.9-13.1l0,0c-3.3-3.6-7.9-5.7-12.7-5.8l0,0
			c-4.9-0.2-9.5,1.6-13.1,4.9l0,0c-3.6,3.3-5.7,7.9-5.8,12.7l0,0c-0.3,8,4.6,14.9,11.6,17.7l0,0l-16.7,59.9c-0.3,0-0.7-0.1-1-0.1
			l0,0c-3.2-0.1-6.2,1-8.5,3.2l0,0c-2.3,2.2-3.7,5.1-3.8,8.2l0,0c-0.1,3.2,1,6.2,3.2,8.5l0,0c2.2,2.3,5.1,3.7,8.2,3.8l0,0
			c0.1,0,0.3,0,0.4,0l0,0c2.8,0,5.5-1,7.6-2.8l0,0l34.3,28.9c-2,2.9-3.2,6.2-3.3,9.8l0,0c-0.2,4.9,1.6,9.5,4.9,13.1l0,0
			c3.3,3.6,7.9,5.7,12.7,5.8l0,0c0.2,0,0.5,0,0.7,0l0,0c9.8,0,17.9-7.8,18.3-17.6l0,0c0.2-4.9-1.6-9.5-4.9-13.1l0,0
			c-0.4-0.5-0.9-0.9-1.4-1.4l0,0l5.3-7.9l39.2,13c-0.1,0.5-0.1,1-0.1,1.5l0,0c-0.1,3.2,1,6.2,3.2,8.5l0,0c2.2,2.3,5.1,3.7,8.2,3.8
			l0,0c0.1,0,0.3,0,0.4,0l0,0c3,0,5.8-1.1,8-3.2l0,0c2.3-2.2,3.7-5.1,3.8-8.2l0,0l0,0c0.1-2.2-0.4-4.3-1.5-6.2l0,0l28.3-25.3
			c3.2,3,7.3,4.7,11.7,4.8l0,0c0.2,0,0.5,0,0.7,0l0,0c4.6,0,9-1.7,12.4-4.9l0,0c3.6-3.3,5.7-7.9,5.8-12.7l0,0
			c0.2-4.9-1.6-9.5-4.9-13.1l0,0c-3.3-3.6-7.9-5.7-12.7-5.8l0,0c-8.4-0.3-15.8,5.2-18.1,12.9l0,0l-20.3-5.4l8.4-40.1
			c0.1,0,0.2,0,0.3,0l0,0c0.1,0,0.3,0,0.4,0l0,0c6.3,0,11.6-5,11.8-11.4l0,0c0.2-6.5-4.9-12-11.4-12.3l0,0c-3.5-0.1-6.7,1.3-8.9,3.6
			l0,0l-38.2-28.5c0.8-1.5,1.3-3.3,1.4-5.1l0,0l0,0c0.2-6.5-4.9-12-11.4-12.3l0,0c-0.1,0-0.3,0-0.4,0l0,0
			C547.1,278.2,541.9,283.2,541.6,289.6 M561.9,298.3l38.2,28.5c-0.2,0.3-0.3,0.7-0.5,1.1l0,0L539.2,317l9.6-16.2
			c1.3,0.6,2.7,0.9,4.2,0.9l0,0c0.1,0,0.3,0,0.4,0l0,0C556.7,301.8,559.7,300.5,561.9,298.3 M495.3,326c1.8-0.8,3.6-1.9,5.1-3.4l0,0
			c2.4-2.2,4.1-5,5.1-8.1l0,0l28.2,5.1l-22.5,37.8c-1.1-0.4-2.2-0.6-3.3-0.6l0,0c-0.8,0-1.6,0-2.4,0.2l0,0L495.3,326z M519.2,368.3
			c-0.1-3.8-2-7.2-5-9.3l0,0l23.1-38.7l61.5,11c0,0.2,0,0.3,0,0.5l0,0c-0.1,2.7,0.7,5.3,2.2,7.3l0,0l-23.1,22.7
			c-2.9-2.1-6.4-3.3-10-3.4l0,0c-8.9-0.3-16.6,5.8-18.5,14.2l0,0L519.2,368.3z M492,327.1l10.1,31c-1,0.5-1.9,1.1-2.7,1.9l0,0
			c-2.3,2.2-3.7,5.1-3.8,8.2l0,0c-0.1,3.2,1,6.2,3.2,8.5l0,0c2.2,2.3,5.1,3.7,8.2,3.8l0,0c0.1,0,0.3,0,0.4,0l0,0c0.1,0,0.1,0,0.2,0
			l0,0l5.1,32.3l-37.9-12.6c0.1-0.6,0.2-1.2,0.2-1.8l0,0c0.1-3.2-1-6.2-3.2-8.5l0,0c-1.1-1.2-2.4-2.1-3.8-2.8l0,0l16.7-59.8
			c0.9,0.2,1.8,0.3,2.7,0.3l0,0c0.2,0,0.5,0,0.7,0l0,0C489.3,327.5,490.7,327.3,492,327.1 M585.2,379.8c0.1-0.8,0.2-1.7,0.3-2.5l0,0
			c0.2-4.9-1.6-9.5-4.9-13.1l0,0c0,0,0,0-0.1-0.1l0,0l22.9-22.5c0.9,0.7,1.9,1.3,3,1.7l0,0l-8.4,40L585.2,379.8z M516.3,413.9
			l-5.4-34.1c1.6-0.5,3.1-1.4,4.4-2.6l0,0c1.6-1.5,2.8-3.4,3.3-5.5l0,0l30.1,4.2c-0.2,4.9,1.6,9.5,4.9,13.1l0,0
			c0.6,0.6,1.2,1.2,1.9,1.8l0,0l-19.8,29.5L516.3,413.9z M579.6,390.1c2.1-1.9,3.7-4.3,4.6-6.9l0,0l13,3.5l-8.6,41
			c-0.1,0-0.1,0-0.2,0l0,0c-3.2-0.1-6.2,1-8.5,3.2l0,0c-1.1,1-1.9,2.2-2.6,3.4l0,0l-38.2-12.7l19.3-28.7c2.4,1.3,5.1,2,7.9,2.1l0,0
			c0.2,0,0.5,0,0.7,0l0,0C571.8,395,576.2,393.2,579.6,390.1 M592.2,428.3l8.5-40.8L621,393c0,0.4-0.1,0.9-0.1,1.3l0,0
			c-0.2,4.2,1.1,8.2,3.5,11.5l0,0l-28,25.2C595.1,429.8,593.7,428.9,592.2,428.3 M473,404.3c0.2-0.3,0.4-0.6,0.5-0.9l0,0l39.7,13.2
			l1.9,12c-2.8,0.8-5.4,2.2-7.6,4.3l0,0c-0.1,0.1-0.2,0.2-0.3,0.3l0,0L473,404.3z M517,417.8l16.9,5.6l-4.7,7
			c-2.6-1.5-5.5-2.3-8.5-2.4l0,0c-0.7,0-1.4,0-2.1,0l0,0L517,417.8z"/>
	</g>
	<g class="st3">
		<g>
			<defs>
				<path id="SVGID_1_" d="M500,82.4c-158.5,0-287,128.5-287,287c0,78.1,72.4,189.9,139.3,293.3C421.1,769.3,470,866.4,500,866.4
					s78.9-97.1,147.7-203.7C714.6,559.3,787,447.5,787,369.4C787,210.9,658.5,82.4,500,82.4z M500,472.4c-70.1,0-127-56.9-127-127
					s56.9-127,127-127s127,56.9,127,127S570.1,472.4,500,472.4z"/>
			</defs>
			<clipPath id="SVGID_00000147934397481187442720000014877916327821505666_">
				<use xlink:href="#SVGID_1_"  style="overflow:visible;"/>
			</clipPath>
			<g style="clip-path:url(#SVGID_00000147934397481187442720000014877916327821505666_);">
				<g>
					<path class="st2" d="M584.2,386.1c-0.4-0.1-0.9-0.1-1.4-0.2c-9.8-1.7-18.3-7.1-24-15.3c-5.7-8.1-7.9-18-6.2-27.7
						c1.1-6.1,3.6-11.8,7.4-16.6l-52.1-57.9c-4.7,2.3-10.1,3.1-15.4,2.2c-6.6-1.2-12.4-4.8-16.2-10.3c-3.9-5.5-5.3-12.2-4.2-18.8
						c1.2-6.6,4.8-12.4,10.3-16.2c5.3-3.7,11.8-5.2,18.2-4.3l43.8-100.9c-12.1-8.1-18.5-22.8-15.9-37.3c1.7-9.8,7.1-18.3,15.3-24
						c8.1-5.7,18-7.9,27.7-6.2c9.8,1.7,18.3,7.1,24,15.3c5.6,8,7.8,17.7,6.2,27.3l48,15.6l20.4-25.5c-4-5.5-5.6-12.3-4.4-19.1l0,0
						c2.4-13.7,15.4-22.8,29.1-20.4c6.6,1.2,12.4,4.8,16.2,10.3c3.9,5.5,5.3,12.2,4.2,18.8c-0.5,2.9-1.5,5.5-2.9,8l59.2,58.4
						c5.2-3.2,11.5-4.4,17.5-3.4c13.7,2.4,22.8,15.5,20.4,29.1c-2.3,13-14.1,21.9-27.1,20.7l-23.8,66.4l30.4,12.8
						c7.7-13.4,23.1-20.8,38.6-18.1c9.8,1.7,18.3,7.1,24,15.3c5.7,8.1,7.9,18,6.2,27.7c-1.7,9.8-7.1,18.3-15.3,24
						c-8.1,5.7-18,7.9-27.8,6.2c-7.8-1.4-14.9-5.2-20.3-10.8l-54.1,36.4c1,3.6,1.1,7.3,0.5,11c-1.2,6.6-4.8,12.4-10.3,16.2
						c-5.5,3.8-12.2,5.3-18.8,4.2c-6.6-1.2-12.4-4.8-16.2-10.3c-3.9-5.5-5.3-12.2-4.2-18.8c0-0.1,0-0.3,0.1-0.4L627,317.8l-8.3,9.3
						c0.2,0.3,0.5,0.6,0.7,0.9c5.7,8.1,7.9,18,6.2,27.7C622.4,375.5,604.1,388.8,584.2,386.1z M509.2,261.3c0.7,0.1,1.4,0.4,1.9,1
						l55.6,61.8c1.1,1.2,1.1,3.1,0,4.3c-4,4.3-6.7,9.7-7.7,15.6c-1.4,8.1,0.4,16.3,5.1,23s11.8,11.2,19.9,12.7
						c0.4,0.1,0.7,0.1,1.1,0.2c16.5,2.3,31.7-8.8,34.5-25.2c1.4-8.1-0.4-16.3-5.1-23c-0.6-0.9-1.3-1.7-2-2.6c-1-1.2-1-3,0-4.2
						l11.7-13.1c0.9-1.1,2.5-1.4,3.8-0.7l68.8,33.9c1.4,0.7,2.1,2.3,1.6,3.8c-0.2,0.8-0.4,1.5-0.6,2.3c-0.9,4.9,0.2,9.9,3.1,14
						c2.9,4.1,7.2,6.9,12.1,7.7c0.2,0,0.5,0.1,0.7,0.1c4.7,0.7,9.4-0.5,13.3-3.2c4.1-2.9,6.9-7.2,7.7-12.1c0.6-3.4,0.3-6.9-1-10
						c-0.5-1.4,0-3,1.2-3.8l58.4-39.3c1.4-0.9,3.2-0.6,4.2,0.6c4.7,5.7,11.2,9.5,18.5,10.8c0.4,0.1,0.8,0.1,1.1,0.2
						c7.7,1.1,15.5-0.8,21.9-5.3c6.7-4.7,11.2-11.8,12.7-19.9c1.4-8.1-0.4-16.3-5.1-23s-11.8-11.2-19.9-12.7
						c-13.7-2.4-27.3,4.7-33.2,17.3c-0.7,1.5-2.5,2.2-4.1,1.6l-35.9-15.2c-1.5-0.7-2.3-2.4-1.8-4l25.7-71.7c0.5-1.5,2.1-2.4,3.6-2
						l0.6,0.1c0.2,0,0.5,0.1,0.7,0.1c10.1,1.4,19.3-5.4,21.1-15.4c1.8-10.2-5-20-15.3-21.8c-5.2-0.9-10.6,0.4-14.8,3.7
						c-1.3,1-3,0.9-4.2-0.2l-62.9-62c-1.1-1.1-1.3-2.8-0.3-4.1c1.7-2.3,2.8-4.9,3.3-7.7c0.9-4.9-0.2-9.9-3.1-14s-7.2-6.9-12.1-7.7
						c-0.2,0-0.5-0.1-0.7-0.1c-10.1-1.4-19.3,5.4-21.1,15.4l0,0c-1,5.7,0.7,11.5,4.6,15.9c1,1.2,1.1,2.9,0.1,4.1l-23.4,29.2
						c-0.8,1-2.2,1.4-3.5,1l-52.7-17.2c-1.6-0.5-2.5-2.2-2.1-3.8c0.2-0.7,0.3-1.3,0.4-2c1.4-8.1-0.4-16.3-5.1-23
						c-4.7-6.7-11.8-11.2-19.9-12.7c-8.1-1.4-16.3,0.4-23,5.1S536.4,75.9,534.9,84c-2.3,12.8,3.9,25.8,15.2,32.2
						c1.4,0.8,2,2.5,1.3,4L505.5,226c-0.6,1.4-2.2,2.2-3.7,1.8c-0.5-0.1-1.1-0.3-1.6-0.4c-4.9-0.9-9.9,0.2-14,3.1
						c-4.1,2.9-6.9,7.2-7.7,12.1c-0.9,4.9,0.2,9.9,3.1,14s7.2,6.9,12.1,7.7c0.2,0,0.5,0.1,0.7,0.1c4.4,0.6,8.8-0.3,12.6-2.7
						C507.7,261.3,508.5,261.2,509.2,261.3z M697.8,345c-0.3,0-0.7-0.1-1-0.3l-67.1-33.1c-0.9-0.4-1.5-1.3-1.7-2.2
						c-0.2-1,0.1-2,0.7-2.7l42.8-47.9c1.1-1.2,2.9-1.4,4.2-0.5c3.8,2.8,8.1,4.6,12.8,5.4c8,1.4,16.3-0.4,23-5.1l0,0
						c3.9-2.7,7.1-6.2,9.3-10.4c0.8-1.4,2.5-2,4-1.4l23.1,9.7c1.5,0.7,2.3,2.4,1.8,4l-26.2,73.1c-0.5,1.5-2,2.4-3.6,2l0.3-3.2
						l-0.5,3.1c-4.9-0.9-9.9,0.2-14,3.1c-1.9,1.3-3.5,3-4.8,4.9C700.1,344.7,698.9,345.2,697.8,345z M636.3,307.8l61,30.1
						c1.4-1.6,3-3,4.7-4.3c4.9-3.4,10.6-5,16.4-4.5l24.3-67.9l-17.8-7.5c-2.6,3.9-5.8,7.3-9.8,10.1l0,0c-8.1,5.7-18,7.9-27.7,6.2
						c-4.7-0.8-9-2.5-13-4.9L636.3,307.8z M568.8,325.1c-0.7-0.1-1.4-0.4-1.9-1l-55.6-61.7c-1.1-1.2-1.1-3,0-4.2
						c0.4-0.4,0.7-0.9,1-1.3c0.9-1.3,2.6-1.7,4-1l69.6,34.4c1.1,0.5,1.7,1.6,1.8,2.8l0.4,22.6c0,1.6-1.2,3-2.8,3.2
						c-4.9,0.6-9.6,2.5-13.7,5.3l-0.5,0.4C570.4,325,569.6,325.2,568.8,325.1z M523.6,266.5l46.1,51.2c3.7-2.3,7.8-3.9,12-4.8
						l-0.3-17.9L523.6,266.5z M733.2,343.8c-0.8-0.1-1.5-0.5-2.1-1.2c-1.6-2.1-3.7-3.8-6-5c-1.4-0.7-2-2.4-1.5-3.9l26-72.7
						c0.3-0.8,0.9-1.5,1.7-1.8s1.7-0.4,2.5,0l35.9,15.2c1.4,0.6,2.2,2.2,1.8,3.7c-0.2,0.7-0.3,1.4-0.5,2.2c-1.2,6.9-0.1,13.8,3.3,20
						c0.8,1.4,0.3,3.2-1,4.1l-58,39C734.8,343.7,734,343.9,733.2,343.8z M730.5,333.4c1.3,0.9,2.6,1.9,3.7,3.1l53.4-35.9
						c-3-6.7-3.9-14.1-2.6-21.5l-30.4-12.8L730.5,333.4z M609.8,325.6c-0.5-0.1-1.1-0.3-1.5-0.6c-3.9-3.1-8.6-5.1-13.6-6
						c-1.1-0.2-2.2-0.3-3.5-0.4c-1.6-0.1-2.9-1.5-3-3.1l-0.4-19.2c0-1.1,0.5-2.1,1.5-2.7c0.9-0.6,2.1-0.7,3.1-0.2L622,308
						c0.9,0.4,1.5,1.3,1.7,2.2c0.2,1-0.1,2-0.7,2.7l-10.4,11.7C611.8,325.4,610.8,325.8,609.8,325.6z M594.5,312.5
						c0.4,0.1,0.8,0.1,1.2,0.2c5,0.9,9.8,2.8,14,5.5l5.7-6.4l-21.2-10.4L594.5,312.5z M624.7,309c-0.3,0-0.7-0.1-1-0.3l-34.2-16.9
						c-1.1-0.5-1.7-1.6-1.8-2.8l-1.2-64c0-1.6,1.1-2.9,2.6-3.2c2.7-0.5,5.3-1.5,7.6-3.1c2.9-2,5.1-4.7,6.5-7.9
						c0.6-1.5,2.2-2.2,3.8-1.8l54.3,15.4c1.6,0.4,2.5,2,2.3,3.6c-1.4,8.1,0.4,16.3,5.1,23c0.8,1.2,1.7,2.3,2.7,3.4
						c1.1,1.2,1.1,3.1,0,4.3l-44,49.2C626.7,308.8,625.7,309.1,624.7,309z M594,287l30.3,14.9l40.5-45.3c-0.5-0.6-1-1.2-1.4-1.9
						c-5.1-7.3-7.4-16.1-6.6-24.9l-49.2-14c-1.8,3.2-4.3,5.9-7.4,8.1c-2.3,1.6-4.8,2.8-7.4,3.6L594,287z M583.9,288.9
						c-0.3,0-0.7-0.1-1-0.3l-66.5-32.8c-1.4-0.7-2.1-2.4-1.6-3.9c0.3-0.9,0.5-1.9,0.7-2.8c0.9-4.9-0.2-9.9-3.1-14
						c-1.5-2.1-3.3-3.8-5.4-5.2c-1.3-0.8-1.9-2.5-1.2-4l45.9-105.8c0.7-1.5,2.3-2.3,3.9-1.7c1.4,0.5,2.9,0.9,4.4,1.1
						c2.6,0.5,5.3,0.6,8,0.4c1.6-0.1,3.1,1,3.4,2.6L582,182c0.3,1.5-0.6,3.1-2.1,3.6c-1.7,0.6-3.3,1.4-4.7,2.4
						c-4.1,2.9-6.9,7.2-7.7,12.1c-0.9,4.9,0.2,9.9,3.1,14c2.9,4.1,7.2,6.9,12.1,7.7c0.2,0,0.5,0.1,0.7,0.1c1.5,0.2,3,1.5,3,3.1
						l1.1,60.6c0,1.1-0.5,2.1-1.5,2.7C585.4,288.8,584.7,289,583.9,288.9z M521.6,251.2l59.5,29.4l-1-52.8c-6-1.4-11.2-4.9-14.8-10
						c-3.9-5.5-5.3-12.2-4.2-18.8c1.2-6.6,4.8-12.4,10.3-16.2c1.2-0.8,2.5-1.6,3.8-2.2l-9.7-54.2c-2.3,0-4.5-0.2-6.7-0.6
						c-0.8-0.1-1.7-0.3-2.5-0.5l-43.7,100.8c1.9,1.5,3.6,3.3,5,5.3c3.9,5.5,5.3,12.2,4.2,18.8C521.7,250.5,521.7,250.9,521.6,251.2z
						 M748.5,256.5c-0.3,0-0.5-0.1-0.8-0.2l-22.7-9.6c-1.5-0.6-2.3-2.3-1.8-3.9c0.4-1.4,0.8-2.7,1-4.1c1.4-8.1-0.4-16.3-5.1-23
						l-0.1-0.2c-1-1.4-0.6-3.3,0.7-4.3l47.8-35.6c1.3-0.9,3-0.8,4.2,0.3c1.3,1.3,2.8,2.4,4.4,3.3c1.4,0.7,2,2.4,1.5,3.9l-25.5,71.4
						c-0.3,0.8-0.9,1.5-1.7,1.8C749.6,256.5,749,256.6,748.5,256.5z M730,242l17,7.2l23.6-65.8c-0.5-0.3-1-0.7-1.4-1.1l-43.3,32.3
						c4.5,7.7,6.1,16.5,4.6,25.3C730.3,240.6,730.2,241.3,730,242z M661.7,224.4c-0.1,0-0.3-0.1-0.4-0.1l-54.4-15.5
						c-1.5-0.4-2.5-1.9-2.3-3.4c0.7-5.8-1.5-11.7-5.8-15.8c-1.2-1.1-1.3-3-0.3-4.3l52.3-65.3c0.8-1,2.2-1.4,3.5-1l110.2,36
						c1.6,0.5,2.5,2.1,2.1,3.7c-0.1,0.3-0.1,0.5-0.2,0.8c-0.7,4.1-0.1,8.3,1.9,12c0.7,1.4,0.3,3.1-0.9,4l-48.2,35.9
						c-1.2,0.9-3,0.8-4.1-0.3c-4.4-4.2-9.9-7-15.9-8.1c-14.5-2.6-28.8,5.6-34.1,19.3C664.6,223.8,663.2,224.6,661.7,224.4z
						 M611.1,203.5l49.3,14c7.1-15,23.5-23.6,40-20.6c6.4,1.1,12.3,3.8,17.2,7.9l44.1-32.8c-1.5-3.7-2-7.7-1.6-11.7l-105.6-34.4
						l-49.2,61.4C609,191.8,611.1,197.6,611.1,203.5z M595.3,186.8c-0.3,0-0.7-0.1-1-0.3c-1.6-0.8-3.3-1.4-5.1-1.7
						c-1.3-0.2-2.6-0.3-3.9-0.3c-1.6,0-2.9-1.1-3.2-2.6l-10.6-59.5c-0.3-1.6,0.7-3.2,2.3-3.6c3.3-0.9,6.4-2.4,9.2-4.4
						c4.5-3.1,8-7.4,10.3-12.3c0.7-1.5,2.3-2.2,3.9-1.7l50.5,16.5c1,0.3,1.8,1.1,2.1,2.1s0.1,2.1-0.6,2.9l-51,63.7
						C597.5,186.5,596.4,187,595.3,186.8z M589.4,178.4c0.3,0,0.6,0.1,0.9,0.1c1.5,0.3,3,0.7,4.5,1.2l46.6-58.3l-43.6-14.2
						c-2.7,4.9-6.5,9.1-11.1,12.3c-2.6,1.8-5.4,3.3-8.4,4.4l9.7,54.2C588.4,178.3,588.9,178.4,589.4,178.4z M765.4,155.1
						c-0.2,0-0.4-0.1-0.5-0.1l-108.2-35.3c-1-0.3-1.8-1.1-2.1-2.1s-0.1-2.1,0.6-2.9L677,87.4c1-1.2,2.7-1.6,4.1-0.7
						c2,1.2,4.1,2,6.4,2.4c0.2,0,0.5,0.1,0.7,0.1c5,0.7,9.9-0.6,14-3.7c1.3-1,3-0.8,4.1,0.3l63,62.1c1.1,1.1,1.3,2.8,0.4,4.1
						c-0.4,0.5-0.7,1-1,1.6C767.9,154.7,766.7,155.3,765.4,155.1z M662.9,115.1l95.6,31.2l-54.9-54.1c-5.2,3.1-11.2,4.3-17.3,3.2
						c-2.1-0.4-4.2-1-6.1-1.9L662.9,115.1z"/>
					<path id="path11539_00000123421907122064362480000004071348911865231779_" class="st2" d="M669.1,66.8
						c-1.2,6.9,1,13.7,5.3,18.5l0,0L651,114.5l-52.7-17.2c0.2-0.7,0.3-1.5,0.5-2.2l0,0c1.6-8.9-0.4-17.9-5.6-25.4l0,0
						c-5.2-7.4-13-12.4-21.9-14l0,0c-8.9-1.6-17.9,0.4-25.4,5.6l0,0c-7.4,5.2-12.4,13-14,21.9l0,0c-2.6,14.5,4.6,28.6,16.8,35.5l0,0
						l-45.9,105.8c-0.6-0.2-1.2-0.3-1.9-0.4l0,0c-5.8-1-11.6,0.3-16.4,3.6l0,0c-4.8,3.4-8,8.4-9,14.2l0,0c-1,5.8,0.3,11.6,3.6,16.4
						l0,0c3.4,4.8,8.4,8,14.2,9l0,0c0.3,0,0.5,0.1,0.8,0.1l0,0c5.2,0.7,10.3-0.4,14.7-3.2l0,0l55.6,61.8c-4.4,4.7-7.4,10.7-8.5,17.2
						l0,0c-1.6,8.9,0.4,17.9,5.6,25.4l0,0c5.2,7.4,13,12.4,21.9,14l0,0c0.4,0.1,0.8,0.1,1.2,0.2l0,0c18,2.5,34.9-9.7,38.1-27.8l0,0
						c1.6-8.9-0.4-17.9-5.6-25.4l0,0c-0.7-1-1.4-1.9-2.2-2.9l0,0l11.7-13.1l68.8,33.9c-0.3,0.9-0.5,1.8-0.6,2.7l0,0
						c-1,5.8,0.3,11.6,3.6,16.4l0,0c3.4,4.8,8.4,8,14.2,9l0,0c0.3,0,0.5,0.1,0.8,0.1l0,0c5.5,0.8,11-0.6,15.6-3.8l0,0
						c4.8-3.4,8-8.4,9-14.2l0,0l0,0c0.7-4,0.3-8-1.1-11.7l0,0l58.4-39.3c5.1,6.3,12.3,10.5,20.4,11.9l0,0c0.4,0.1,0.8,0.1,1.3,0.2
						l0,0c8.5,1.2,17-0.9,24.1-5.8l0,0c7.4-5.2,12.4-13,14-21.9l0,0c1.6-8.9-0.4-17.9-5.6-25.4l0,0c-5.2-7.4-13-12.4-21.9-14l0,0
						c-15.4-2.7-30.3,5.5-36.6,19l0,0l-35.9-15.2l25.7-71.7c0.2,0,0.4,0.1,0.6,0.1l0,0c0.3,0,0.5,0.1,0.8,0.1l0,0
						c11.6,1.6,22.6-6.3,24.6-18l0,0c2.1-11.9-5.9-23.3-17.8-25.4l0,0c-6.4-1.1-12.6,0.6-17.3,4.3l0,0l-62.9-62
						c1.9-2.6,3.2-5.7,3.8-9l0,0l0,0c2.1-11.9-5.9-23.3-17.8-25.4l0,0c-0.3,0-0.5-0.1-0.8-0.1l0,0C682.1,47.2,671.1,55.1,669.1,66.8
						 M704,88l63,62.1c-0.4,0.6-0.8,1.2-1.2,1.8l0,0l-108.2-35.3l21.8-27.3c2.2,1.3,4.8,2.3,7.5,2.8l0,0c0.3,0,0.5,0.1,0.8,0.1l0,0
						C693.7,93.2,699.5,91.5,704,88 M574.6,121.9c3.6-1,7-2.7,10.2-4.9l0,0c5-3.5,8.9-8.2,11.4-13.6l0,0l50.5,16.5l-51,63.7
						c-1.8-0.9-3.8-1.6-6-2l0,0c-1.5-0.3-3-0.4-4.5-0.3l0,0L574.6,121.9z M607.8,205.8c0.8-7.1-1.9-13.8-6.7-18.4l0,0l52.3-65.3
						L763.5,158c-0.1,0.3-0.1,0.6-0.2,0.9l0,0c-0.9,5,0,9.9,2.2,14l0,0l-48.2,35.9c-4.8-4.6-10.9-7.7-17.6-8.9l0,0
						c-16.3-2.9-31.9,6.4-37.6,21.3l0,0L607.8,205.8z M568.2,123.1l10.6,59.5c-1.9,0.7-3.8,1.6-5.5,2.8l0,0c-4.8,3.4-8,8.4-9,14.2
						l0,0c-1,5.8,0.3,11.6,3.6,16.4l0,0c3.4,4.8,8.4,8,14.2,9l0,0c0.3,0,0.5,0.1,0.8,0.1l0,0c0.1,0,0.2,0,0.3,0l0,0l1.1,60.6
						l-66.5-32.8c0.4-1.1,0.6-2.1,0.8-3.3l0,0c1-5.8-0.3-11.6-3.6-16.4l0,0c-1.7-2.5-3.9-4.5-6.4-6l0,0l45.9-105.8
						c1.6,0.5,3.2,0.9,4.9,1.2l0,0c0.4,0.1,0.8,0.1,1.3,0.2l0,0C563.2,123.2,565.7,123.3,568.2,123.1 M726.2,243.8
						c0.5-1.5,0.9-3,1.1-4.5l0,0c1.6-8.9-0.4-17.9-5.6-25.4l0,0c0-0.1-0.1-0.1-0.1-0.1l0,0l47.8-35.6c1.5,1.5,3.2,2.8,5.1,3.8l0,0
						L749,253.4L726.2,243.8z M590.9,289l-1.2-64c3.1-0.5,6.1-1.8,8.8-3.7l0,0c3.4-2.4,6-5.6,7.5-9.2l0,0l54.3,15.4
						c-1.6,8.9,0.4,17.9,5.6,25.4l0,0c0.9,1.3,1.9,2.6,3,3.7l0,0l-44,49.2L590.9,289z M713.4,261.2c4.3-3,7.8-7,10.3-11.5l0,0
						l23.1,9.7l-26.2,73.1c-0.1,0-0.2,0-0.3-0.1l0,0c-5.8-1-11.6,0.3-16.4,3.6l0,0c-2.2,1.6-4.1,3.5-5.6,5.7l0,0l-67.1-33.1
						l42.8-47.9c4.1,3,8.9,5,14.1,6l0,0c0.4,0.1,0.8,0.1,1.3,0.2l0,0C697.8,268.2,706.3,266.2,713.4,261.2 M726.6,334.8l26-72.7
						l35.9,15.2c-0.2,0.8-0.4,1.6-0.5,2.4l0,0c-1.3,7.6-0.1,15.3,3.6,22.1l0,0l-58,39C731.7,338.2,729.3,336.2,726.6,334.8
						 M513.7,260.2c0.4-0.5,0.8-1,1.2-1.5l0,0l69.6,34.4l0.4,22.6c-5.4,0.7-10.5,2.7-15.1,5.9l0,0c-0.2,0.1-0.4,0.3-0.6,0.4l0,0
						L513.7,260.2z M591.1,296.3l29.6,14.6l-10.4,11.7c-4.3-3.4-9.4-5.7-15-6.6l0,0c-1.3-0.2-2.5-0.4-3.8-0.4l0,0L591.1,296.3z"/>
				</g>
				<g>
					<path class="st2" d="M490.3,123.6c0.3,0.4,0.5,0.8,0.8,1.2c5.4,8.8,7,19.2,4.6,29.2s-8.6,18.5-17.4,23.9
						c-5.5,3.4-11.7,5.3-18.1,5.6l-9.4,80.5c5.1,2.1,9.4,5.8,12.3,10.6c3.6,6,4.7,13,3.1,19.8s-5.8,12.5-11.8,16.2
						c-6,3.6-13,4.7-19.8,3.1c-6.6-1.6-12.2-5.6-15.9-11.3l-109,35.2c2,15.1-5.1,30.1-18.2,38.1c-8.8,5.4-19.2,7-29.2,4.6
						s-18.5-8.6-23.9-17.5c-5.4-8.8-7-19.2-4.6-29.2c2.4-9.9,8.4-18.3,17-23.7L230,261.7l-34,1.6c-1.6,6.9-5.8,12.8-11.9,16.6l0,0
						c-12.4,7.5-28.4,3.7-36-8.7c-3.6-6-4.7-13-3.1-19.8c1.6-6.8,5.8-12.5,11.8-16.2c2.6-1.6,5.3-2.7,8.2-3.3l4.9-86.5
						c-6.1-1.9-11.3-5.9-14.7-11.4c-7.5-12.3-3.6-28.5,8.7-36c11.7-7.2,26.8-4.1,34.8,7l68.2-27.1L256,45.3
						c-15.8,3.2-32.2-3.7-40.7-17.8c-5.4-8.8-7-19.2-4.6-29.2s8.6-18.5,17.4-23.9c8.8-5.4,19.2-7,29.2-4.6s18.6,8.6,23.9,17.5
						c4.3,7,6.2,15.2,5.5,23.4L352.3,28c2.1-3.2,4.9-5.9,8.2-8c6-3.6,13-4.7,19.8-3.1s12.5,5.9,16.2,11.8c3.6,6,4.7,13,3.1,19.8
						s-5.8,12.5-11.8,16.2c-0.1,0.1-0.2,0.1-0.4,0.2l19.4,72.1l13,0.1c0.1-0.4,0.2-0.8,0.3-1.2c2.4-10,8.6-18.5,17.5-23.9
						C455.8,101.1,478.8,106.2,490.3,123.6z M444.4,268.2c-0.4-0.6-0.6-1.4-0.5-2.2l10-86c0.2-1.7,1.7-3,3.4-2.9
						c6.1,0.2,12.2-1.4,17.5-4.7c7.3-4.5,12.5-11.5,14.5-19.8s0.7-16.9-3.8-24.2c-0.2-0.3-0.4-0.7-0.6-1
						c-9.6-14.5-28.6-18.7-43.4-9.7c-7.3,4.5-12.5,11.5-14.5,19.8c-0.3,1.1-0.5,2.2-0.6,3.4c-0.2,1.6-1.6,2.9-3.3,2.9l-18.4-0.1
						c-1.5,0-2.8-1-3.2-2.4L380.7,64c-0.4-1.6,0.4-3.2,1.8-3.9c0.8-0.3,1.5-0.7,2.2-1.1c4.5-2.7,7.6-7,8.8-12.1
						c1.2-5.1,0.4-10.3-2.3-14.8c-0.1-0.2-0.3-0.4-0.4-0.6c-2.7-4.1-6.9-7-11.7-8.2c-5.1-1.2-10.3-0.4-14.8,2.3
						c-3.1,1.9-5.5,4.5-7.2,7.7c-0.7,1.4-2.3,2.1-3.8,1.7l-70.9-18.6c-1.6-0.4-2.7-2.1-2.4-3.7c1.2-7.5-0.3-15.3-4.3-21.8
						c-0.2-0.3-0.4-0.7-0.6-1c-4.5-6.8-11.3-11.5-19.2-13.5c-8.3-2-16.9-0.7-24.2,3.8S219.2-8.3,217.2,0s-0.7,16.9,3.8,24.2
						c7.6,12.4,22.5,18.1,36.3,14.1c1.7-0.5,3.5,0.4,4.1,2.1l12.8,38.5c0.6,1.7-0.3,3.5-1.9,4.1l-73.7,29.2c-1.5,0.6-3.3,0-4.1-1.4
						l-0.3-0.5c-0.1-0.2-0.3-0.4-0.4-0.6c-5.8-8.8-17.5-11.4-26.5-5.9c-9.2,5.6-12.1,17.7-6.5,26.9c2.9,4.7,7.6,8,13.1,9
						c1.6,0.3,2.8,1.8,2.7,3.4l-5.2,91.9c-0.1,1.6-1.4,2.9-3,3.1c-2.9,0.3-5.7,1.2-8.3,2.8c-4.5,2.7-7.6,7-8.8,12.1
						c-1.2,5.1-0.4,10.3,2.3,14.8c0.1,0.2,0.3,0.4,0.4,0.6c5.8,8.8,17.5,11.4,26.5,5.9l0,0c5.2-3.2,8.5-8.4,9.2-14.5
						c0.2-1.6,1.5-2.8,3.1-2.9L232,255c1.4-0.1,2.6,0.7,3.2,2l22.8,53c0.7,1.6,0,3.4-1.5,4.2c-0.6,0.3-1.3,0.7-1.9,1.1
						c-7.3,4.5-12.5,11.5-14.5,19.8s-0.7,16.9,3.8,24.2c4.5,7.3,11.5,12.5,19.8,14.5c8.3,2,16.9,0.7,24.2-3.8
						c11.6-7.1,17.5-20.7,14.7-34c-0.3-1.7,0.6-3.3,2.2-3.8l114.3-36.9c1.6-0.5,3.2,0.2,4,1.7c0.3,0.5,0.5,1,0.8,1.5
						c2.7,4.5,7,7.6,12.1,8.8c5.1,1.2,10.3,0.4,14.8-2.3s7.6-7,8.8-12.1c1.2-5.1,0.4-10.3-2.3-14.8c-0.1-0.2-0.3-0.4-0.4-0.6
						c-2.6-3.9-6.3-6.6-10.8-8C445.4,269.3,444.8,268.8,444.4,268.2z M380.2,63.2c0.2,0.3,0.3,0.6,0.4,1l20.3,75.2
						c0.3,1,0.1,2.1-0.6,2.9c-0.6,0.8-1.6,1.3-2.6,1.3l-66.9-0.5c-1.7,0-3.1-1.3-3.3-3c-0.5-4.9-2-9.5-4.6-13.7
						c-4.4-7.3-11.5-12.5-19.8-14.5l0,0c-4.8-1.2-9.7-1.2-14.5-0.1c-1.7,0.4-3.3-0.6-3.9-2.2l-8.3-24.7c-0.6-1.7,0.3-3.5,1.9-4.1
						L353.5,51c1.5-0.6,3.2-0.1,4.1,1.4l-2.7,2l2.8-1.7c2.7,4.4,7,7.6,12.1,8.8c2.3,0.6,4.7,0.7,7.1,0.4
						C378.3,61.5,379.5,62.1,380.2,63.2z M393.4,136.8L375,68.4c-2.2,0-4.4-0.2-6.6-0.7c-6-1.5-11.2-4.9-14.8-9.8l-69.8,27.7l6.4,19
						c4.8-0.7,9.7-0.5,14.6,0.7l0,0c10,2.4,18.6,8.7,23.9,17.4c2.6,4.2,4.3,8.8,5.1,13.5L393.4,136.8z M453.2,177.7
						c0.4,0.6,0.6,1.4,0.5,2.2l-10,85.9c-0.2,1.7-1.6,2.9-3.3,2.9c-0.6,0-1.2,0-1.7,0.1c-1.6,0.2-3.1-0.9-3.5-2.4l-21-78.1
						c-0.3-1.2,0-2.5,1-3.3l17.4-15.9c1.2-1.1,3.1-1.2,4.4,0c3.9,3.4,8.5,5.8,13.6,7l0.7,0.1C452.1,176.5,452.8,177,453.2,177.7z
						 M438.6,253.3l8.3-71.3c-4.3-1.3-8.4-3.4-12-6.1l-13.8,12.6L438.6,253.3z M354.8,36.3c0.5,0.7,0.7,1.6,0.5,2.4
						c-0.5,2.7-0.4,5.5,0.2,8.1c0.4,1.6-0.5,3.2-2,3.8l-74.8,29.7c-0.8,0.3-1.8,0.3-2.6-0.1c-0.8-0.4-1.5-1.1-1.7-1.9l-12.9-38.5
						c-0.5-1.5,0.2-3.2,1.6-4c0.7-0.4,1.4-0.7,2-1.1c6.3-3.8,10.9-9.5,13.4-16.3c0.6-1.6,2.3-2.5,3.9-2.1l70.4,18.5
						C353.7,35.1,354.3,35.6,354.8,36.3z M348.5,45.6c-0.2-1.7-0.3-3.3-0.1-5l-64.8-17c-3.2,7-8.3,12.8-15,16.9L279.5,73L348.5,45.6
						z M425.5,145.3c0.3,0.5,0.5,1,0.5,1.6c0.3,5.2,1.9,10.3,4.6,14.8c0.6,1,1.3,2,2.1,3c1,1.4,0.9,3.3-0.4,4.5l-14.7,13.5
						c-0.8,0.8-2,1.1-3.2,0.7c-1.1-0.3-2-1.2-2.3-2.3l-8.9-33.2c-0.3-1-0.1-2.1,0.6-2.9c0.6-0.8,1.6-1.3,2.6-1.3l16.3,0.1
						C423.9,143.8,424.9,144.4,425.5,145.3z M425.8,166.2c-0.2-0.4-0.5-0.7-0.7-1.1c-2.8-4.5-4.6-9.6-5.3-14.7l-9-0.1l6.4,23.7
						L425.8,166.2z M402.2,145.1c0.2,0.3,0.3,0.6,0.4,1l10.3,38.3c0.3,1.2,0,2.5-1,3.3l-49.2,45c-1.2,1.1-3,1.2-4.3,0.1
						c-2.2-1.8-4.8-3.1-7.6-3.8c-3.5-0.9-7.2-0.7-10.6,0.4c-1.6,0.5-3.3-0.2-4-1.7L311,174.6c-0.7-1.5-0.2-3.4,1.3-4.2
						c7.3-4.5,12.5-11.5,14.5-19.8c0.4-1.4,0.6-2.9,0.8-4.5c0.2-1.7,1.6-3,3.3-3l68.7,0.5C400.6,143.6,401.6,144.2,402.2,145.1z
						 M406.1,184.2l-9.2-34l-63.3-0.5c-0.1,0.8-0.3,1.6-0.5,2.4c-2.2,9.1-7.5,16.9-15,22.2l22.9,48c3.7-0.8,7.6-0.7,11.4,0.2
						c2.8,0.7,5.5,1.8,7.9,3.4L406.1,184.2z M414.5,190.8c0.2,0.3,0.3,0.6,0.4,1l20.1,74.6c0.4,1.6-0.4,3.3-1.9,3.9
						c-0.9,0.4-1.8,0.8-2.7,1.4c-4.5,2.7-7.6,7-8.8,12.1c-0.6,2.6-0.7,5.2-0.3,7.8c0.3,1.6-0.7,3.2-2.2,3.7L304.9,332
						c-1.6,0.5-3.4-0.3-4.1-1.9c-0.6-1.5-1.3-2.9-2.2-4.2c-1.4-2.4-3.2-4.6-5.2-6.5c-1.2-1.2-1.4-3.1-0.3-4.4l39.2-49.2
						c1-1.3,2.8-1.6,4.2-0.8c1.6,0.9,3.3,1.6,5.1,2c5.1,1.2,10.3,0.4,14.8-2.3c4.5-2.7,7.6-7,8.8-12.1c1.2-5.1,0.4-10.3-2.3-14.8
						c-0.1-0.2-0.3-0.4-0.4-0.7c-0.9-1.4-0.8-3.4,0.4-4.5l46.6-42.6c0.9-0.8,2-1.1,3.2-0.7C413.5,189.6,414.1,190.1,414.5,190.8z
						 M428,265.4l-18-66.7l-40.6,37.1c3,5.7,3.8,12.2,2.3,18.4c-1.6,6.8-5.8,12.5-11.8,16.2c-6,3.6-13,4.7-19.8,3.1
						c-1.5-0.4-2.9-0.8-4.3-1.4l-35.7,44.8c1.6,1.8,3,3.6,4.2,5.6c0.5,0.8,0.9,1.5,1.3,2.3l108.9-35.2c-0.1-2.5,0.1-5.1,0.7-7.6
						c1.6-6.8,5.8-12.5,11.8-16.2C427.4,265.7,427.7,265.6,428,265.4z M276.1,84.4c0.2,0.2,0.3,0.5,0.4,0.8l8.1,24.3
						c0.5,1.6-0.2,3.4-1.8,4.1c-1.4,0.6-2.7,1.3-3.9,2c-7.3,4.5-12.5,11.5-14.5,19.8v0.2c-0.4,1.7-2.2,2.8-3.9,2.4l-60.7-12.9
						c-1.6-0.3-2.7-1.8-2.6-3.5c0.1-1.9,0-3.8-0.4-5.7c-0.4-1.6,0.5-3.2,2-3.8L272.2,83c0.8-0.3,1.8-0.3,2.6,0.1
						C275.3,83.5,275.8,83.9,276.1,84.4z M277.4,108.8l-6.1-18.3l-67.6,26.9c0.1,0.6,0.1,1.2,0.1,1.9l55,11.7
						c2.9-8.8,8.7-16.2,16.6-21C276.1,109.6,276.7,109.2,277.4,108.8z M310.7,174.3c0.1,0.1,0.2,0.3,0.2,0.4l25.3,53.2
						c0.7,1.5,0.2,3.2-1.1,4.1c-5,3.5-8.1,9.2-8.4,15.4c-0.1,1.7-1.4,3.1-3.1,3.2l-87,4.1c-1.4,0.1-2.6-0.7-3.2-2l-47.7-110.9
						c-0.7-1.6-0.1-3.4,1.4-4.2c0.2-0.1,0.5-0.3,0.7-0.4c3.7-2.3,6.5-5.6,8.1-9.7c0.6-1.5,2.2-2.4,3.8-2.1l61.2,13
						c1.6,0.3,2.7,1.8,2.6,3.4c-0.3,6.3,1.3,12.5,4.7,18c8,13.1,24.2,18.7,38.6,13.4C308.2,172.5,309.8,173,310.7,174.3z
						 M329.1,228.3l-22.9-48.1c-16.6,4.7-34.6-2.1-43.6-17.1c-3.5-5.8-5.4-12.3-5.6-18.9l-56-11.9c-1.9,3.7-4.6,6.9-8.1,9.3
						l45.7,106.2l81.9-3.8C321.4,238,324.5,232.3,329.1,228.3z M327,252.1c0.2,0.3,0.3,0.6,0.4,1c0.5,1.8,1.2,3.5,2.2,5.1
						c0.7,1.2,1.5,2.2,2.5,3.2c1.1,1.2,1.2,3,0.2,4.3L293,315c-1.1,1.3-2.9,1.6-4.4,0.7c-3-1.9-6.3-3.3-9.8-4.2
						c-5.5-1.3-11.3-1.2-16.7,0.4c-1.6,0.5-3.3-0.3-4-1.9l-21.9-50.8c-0.4-1-0.3-2.1,0.2-3.1c0.6-0.9,1.6-1.5,2.6-1.5l84.9-4
						C325.2,250.6,326.3,251.2,327,252.1z M324.5,262.5c-0.2-0.3-0.3-0.5-0.5-0.8c-0.8-1.4-1.5-2.8-2.1-4.3l-77.6,3.6l18.9,43.9
						c5.7-1.2,11.6-1.2,17.3,0.2c3.2,0.8,6.3,2,9.2,3.5l35.7-44.9C325.1,263.3,324.8,262.9,324.5,262.5z M185.2,140.9
						c0.1,0.2,0.2,0.3,0.3,0.5l46.9,108.9c0.4,1,0.3,2.1-0.2,3.1c-0.6,0.9-1.6,1.5-2.6,1.5l-36.3,1.7c-1.7,0.1-3.1-1.1-3.4-2.7
						c-0.4-2.4-1.3-4.6-2.5-6.6c-0.1-0.2-0.3-0.4-0.4-0.6c-2.9-4.4-7.3-7.3-12.5-8.4c-1.6-0.3-2.7-1.8-2.6-3.4l5.2-92
						c0.1-1.6,1.3-2.9,3-3.1c0.6-0.1,1.3-0.2,1.9-0.3C183.1,139.2,184.4,139.8,185.2,140.9z M224.4,248.6L183,152.4l-4.5,80.2
						c6,1.9,11.1,5.8,14.4,11.3c1.2,1.9,2.1,3.9,2.7,6.1L224.4,248.6z"/>
					<path id="path11539_00000091736477998486411730000014045503250662563209_" class="st2" d="M182.4,277
						c6.2-3.8,10-10.2,10.8-16.9l0,0l38.9-1.8l22.8,53.1c-0.7,0.4-1.4,0.7-2.1,1.2l0,0c-8.1,4.9-13.7,12.7-16,21.9l0,0
						c-2.2,9.2-0.7,18.7,4.2,26.7l0,0c4.9,8.1,12.7,13.7,21.9,16l0,0c9.2,2.2,18.7,0.7,26.7-4.2l0,0c13.1-8,19.2-23.3,16.2-37.5l0,0
						l114.3-36.9c0.3,0.6,0.6,1.2,1,1.8l0,0c3.2,5.2,8.2,8.9,14.1,10.3l0,0c5.9,1.4,12.1,0.5,17.3-2.7l0,0
						c5.2-3.2,8.9-8.2,10.3-14.1l0,0c1.4-5.9,0.5-12.1-2.7-17.3l0,0c-0.1-0.2-0.3-0.5-0.5-0.7l0,0c-3-4.5-7.4-7.8-12.6-9.3l0,0
						l10-86c6.7,0.2,13.4-1.6,19.3-5.2l0,0c8.1-4.9,13.7-12.7,16-21.9l0,0c2.2-9.2,0.7-18.7-4.2-26.7l0,0c-0.2-0.4-0.5-0.7-0.7-1.1
						l0,0c-10.4-15.8-31.6-20.6-47.9-10.7l0,0c-8.1,4.9-13.7,12.7-16,21.9l0,0c-0.3,1.2-0.5,2.5-0.7,3.7l0,0l-18.4-0.1l-20.8-77.1
						c0.9-0.4,1.7-0.8,2.5-1.3l0,0c5.2-3.2,8.9-8.2,10.3-14.1l0,0c1.4-5.9,0.5-12.1-2.7-17.3l0,0c-0.1-0.2-0.3-0.5-0.5-0.7l0,0
						c-3.2-4.8-8-8.2-13.7-9.6l0,0c-5.9-1.4-12.1-0.5-17.3,2.7l0,0l0,0c-3.6,2.2-6.5,5.3-8.4,9l0,0l-70.9-18.6
						c1.4-8.3-0.3-16.8-4.7-24.1l0,0c-0.2-0.4-0.5-0.8-0.7-1.1l0,0c-4.9-7.5-12.4-12.7-21.2-14.8l0,0c-9.2-2.2-18.7-0.7-26.7,4.2
						l0,0c-8.1,4.9-13.7,12.7-16,21.9l0,0c-2.2,9.2-0.7,18.7,4.2,26.7l0,0c8.5,13.9,25.1,19.9,40.1,15.5l0,0l12.8,38.5L197,109.5
						c-0.1-0.2-0.2-0.4-0.3-0.6l0,0c-0.1-0.2-0.3-0.5-0.5-0.7l0,0c-6.7-10.2-20.5-13.3-31-6.9l0,0c-10.8,6.6-14.2,20.7-7.6,31.4l0,0
						c3.5,5.7,9.1,9.4,15.3,10.5l0,0l-5.2,91.9c-3.3,0.3-6.6,1.4-9.7,3.2l0,0l0,0c-10.8,6.6-14.2,20.7-7.6,31.4l0,0
						c0.1,0.2,0.3,0.5,0.5,0.7l0,0C158.1,280.3,171.8,283.4,182.4,277 M175,235.1l5.2-92c0.7-0.1,1.5-0.2,2.2-0.4l0,0l46.9,108.9
						l-36.3,1.7c-0.5-2.7-1.5-5.3-3-7.8l0,0c-0.1-0.2-0.3-0.5-0.5-0.7l0,0C186.1,239.6,180.7,236.2,175,235.1 M290.4,312.9
						c-3.3-2.1-6.9-3.7-10.8-4.6l0,0c-6.2-1.5-12.5-1.3-18.4,0.5l0,0L239.3,258l84.9-4c0.6,2.1,1.4,4.1,2.6,6l0,0
						c0.8,1.4,1.8,2.6,2.9,3.8l0,0L290.4,312.9z M333.2,229.3c-6.1,4.2-9.5,11-9.8,17.9l0,0l-87,4.1l-47.7-110.9
						c0.3-0.2,0.6-0.3,0.9-0.5l0,0c4.5-2.7,7.7-6.8,9.4-11.4l0,0l61.2,13c-0.3,6.9,1.5,13.8,5.1,19.9l0,0c9,14.7,27,20.5,42.5,14.7
						l0,0L333.2,229.3z M295.7,317.1l39.2-49.2c1.9,1.1,3.9,1.9,6,2.4l0,0c5.9,1.4,12.1,0.5,17.3-2.7l0,0c5.2-3.2,8.9-8.2,10.3-14.1
						l0,0c1.4-5.9,0.5-12.1-2.7-17.3l0,0c-0.1-0.2-0.3-0.5-0.5-0.7l0,0c-0.1-0.1-0.1-0.2-0.2-0.3l0,0l46.6-42.6l20.1,74.6
						c-1.1,0.4-2.1,1-3.1,1.6l0,0c-5.2,3.2-8.9,8.2-10.3,14.1l0,0c-0.7,3-0.8,6.1-0.3,9.1l0,0l-114.2,36.9c-0.7-1.6-1.5-3.1-2.4-4.6
						l0,0c-0.2-0.4-0.5-0.8-0.7-1.1l0,0C299.3,320.9,297.6,318.9,295.7,317.1 M281.5,110.6c-1.5,0.6-2.9,1.4-4.3,2.2l0,0
						c-8.1,4.9-13.7,12.7-16,21.9l0,0c0,0.1,0,0.1,0,0.2l0,0L200.5,122c0.2-2.2,0-4.4-0.5-6.6l0,0l73.4-29.1L281.5,110.6z
						 M409.8,185.2l-49.2,45c-2.6-2.1-5.6-3.6-8.9-4.4l0,0c-4.2-1-8.4-0.8-12.4,0.5l0,0L314,173.2c8.1-4.9,13.7-12.7,16-21.9l0,0
						c0.4-1.6,0.7-3.3,0.8-4.9l0,0l68.7,0.5L409.8,185.2z M303.9,108.6c-5.4-1.3-10.8-1.3-16-0.2l0,0l-8.3-24.7l75.2-29.8
						c0.1,0.1,0.1,0.2,0.2,0.3l0,0c3.2,5.2,8.2,8.9,14.1,10.3l0,0c2.8,0.7,5.6,0.8,8.3,0.5l0,0l20.3,75.2l-66.9-0.5
						c-0.5-5.3-2.2-10.4-5-15.1l0,0c-0.2-0.4-0.5-0.8-0.7-1.1l0,0C320.1,116,312.7,110.7,303.9,108.6 M352.3,47.6l-74.8,29.7
						l-12.9-38.5c0.8-0.4,1.5-0.8,2.2-1.2l0,0c6.9-4.2,12-10.5,14.8-18l0,0L352,38.1C351.4,41.3,351.5,44.5,352.3,47.6 M440.5,265.4
						c-0.7,0-1.4,0-2,0.1l0,0l-21-78.1l17.4-15.9c4.2,3.7,9.3,6.4,15,7.8l0,0c0.2,0.1,0.5,0.1,0.7,0.2l0,0L440.5,265.4z
						 M415.4,180.1l-8.9-33.2l16.3,0.1c0.3,5.7,2.1,11.3,5.1,16.3l0,0c0.7,1.1,1.5,2.2,2.3,3.3l0,0L415.4,180.1z"/>
				</g>
				<g>
					<path class="st2" d="M259.3,728.6c-0.4-0.1-0.9-0.3-1.3-0.4c-9.3-3.2-16.8-9.8-21.2-18.7c-4.3-8.9-4.9-18.9-1.7-28.2
						c2-5.8,5.4-11,9.9-15.1l-42.1-64.9c-5,1.5-10.4,1.5-15.5-0.3c-6.3-2.2-11.4-6.7-14.3-12.7c-2.9-6-3.3-12.8-1.2-19.1
						c2.2-6.3,6.7-11.4,12.7-14.3c5.8-2.8,12.4-3.3,18.6-1.4l58.6-92.2c-10.6-9.9-14.6-25.2-9.8-39.1c3.2-9.3,9.8-16.8,18.7-21.2
						c8.9-4.3,18.8-4.9,28.2-1.7c9.3,3.2,16.8,9.8,21.2,18.7c4.3,8.7,4.9,18.6,1.9,27.8l44.6,22.8l24-21.9c-3.1-6-3.6-13-1.4-19.4
						l0,0c4.5-13.1,18.6-20,31.7-15.5c6.3,2.2,11.4,6.7,14.3,12.7s3.4,12.8,1.2,19.1c-0.9,2.7-2.3,5.2-4.1,7.4l49.1,66.5
						c5.6-2.3,11.9-2.5,17.7-0.6c13,4.5,20,18.7,15.5,31.7c-4.3,12.4-17.2,19.3-29.8,16.1l-33.6,61.5l27.9,17.3
						c9.7-12,25.9-16.9,40.7-11.8c9.3,3.2,16.8,9.8,21.2,18.7s4.9,18.9,1.7,28.2s-9.8,16.8-18.7,21.2c-8.8,4.3-18.9,5-28.2,1.7
						c-7.4-2.6-13.8-7.4-18.3-13.8L418.8,715c0.4,3.6,0,7.4-1.2,10.9c-2.2,6.3-6.7,11.4-12.7,14.3c-6,2.9-12.8,3.3-19.1,1.2
						c-6.3-2.2-11.4-6.7-14.3-12.7s-3.3-12.8-1.2-19.1c0-0.1,0.1-0.3,0.1-0.4l-58.2-41.1l-9.6,7.9c0.2,0.3,0.4,0.7,0.5,1
						c4.3,8.9,4.9,18.9,1.7,28.2C298.4,724.2,278.4,734.4,259.3,728.6z M205.1,594.5c0.7,0.2,1.3,0.7,1.7,1.3l45,69.3
						c0.9,1.4,0.6,3.2-0.7,4.2c-4.6,3.6-8.1,8.5-10,14.1c-2.7,7.7-2.1,16,1.4,23.4c3.6,7.3,9.8,12.9,17.5,15.5
						c0.4,0.1,0.7,0.2,1.1,0.3c15.8,4.8,32.4-3.7,37.8-19.3c2.7-7.7,2.1-16-1.4-23.4c-0.5-1-1-1.9-1.6-2.9c-0.8-1.3-0.6-3.1,0.7-4.1
						l13.6-11.1c1.1-0.9,2.7-0.9,3.8-0.1l62.2,44c1.3,0.9,1.7,2.6,1,4c-0.4,0.7-0.7,1.4-0.9,2.2c-1.6,4.7-1.3,9.8,0.9,14.3
						c2.2,4.5,6,7.8,10.7,9.5c0.2,0.1,0.4,0.1,0.7,0.2c4.5,1.4,9.3,1,13.6-1.1c4.5-2.2,7.8-6,9.5-10.7c1.1-3.2,1.3-6.7,0.6-10
						c-0.3-1.4,0.4-2.9,1.7-3.5l63.4-29.5c1.5-0.7,3.2-0.1,4,1.3c3.7,6.3,9.5,11.1,16.4,13.5c0.4,0.1,0.7,0.2,1.1,0.4
						c7.4,2.2,15.3,1.6,22.3-1.8c7.3-3.6,12.8-9.8,15.5-17.5s2.1-16-1.4-23.4c-3.6-7.3-9.8-12.9-17.5-15.5
						c-13.1-4.5-27.5,0.4-35.3,11.8c-1,1.4-2.8,1.8-4.3,0.9l-32.9-20.4c-1.4-0.9-1.9-2.7-1.1-4.2l36.3-66.3c0.8-1.4,2.4-2,3.9-1.4
						l0.5,0.2c0.2,0.1,0.4,0.1,0.7,0.2c9.7,2.9,19.8-2.3,23.1-11.8c3.3-9.7-1.9-20.4-11.6-23.7c-5-1.7-10.5-1.2-15.1,1.3
						c-1.4,0.8-3.1,0.4-4.1-0.9l-52.1-70.7c-0.9-1.3-0.8-3,0.3-4.1c2-2,3.5-4.4,4.4-7.1c1.6-4.7,1.3-9.8-0.9-14.3
						c-2.2-4.5-6-7.9-10.7-9.5c-0.2-0.1-0.4-0.1-0.7-0.2c-9.7-2.9-19.8,2.3-23.1,11.8l0,0c-1.9,5.5-1.1,11.4,2,16.3
						c0.8,1.3,0.6,3-0.5,4l-27.5,25.1c-1,0.9-2.4,1.1-3.6,0.5l-49.1-25.1c-1.5-0.7-2.1-2.5-1.5-4c0.3-0.6,0.5-1.3,0.7-1.9
						c2.7-7.7,2.1-16-1.4-23.4c-3.6-7.3-9.8-12.8-17.5-15.5s-16-2.1-23.4,1.4c-7.3,3.6-12.9,9.8-15.5,17.5
						c-4.2,12.2-0.2,25.9,9.9,33.9c1.3,1,1.6,2.8,0.7,4.2l-61.5,96.7c-0.8,1.3-2.5,1.8-3.9,1.2c-0.5-0.2-1-0.4-1.5-0.6
						c-4.7-1.6-9.8-1.3-14.3,0.9s-7.8,6-9.5,10.7s-1.3,9.8,0.9,14.3s6,7.8,10.7,9.5c0.2,0.1,0.5,0.2,0.7,0.2c4.3,1.3,8.7,1,12.8-0.7
						C203.6,594.3,204.4,594.3,205.1,594.5z M377.1,706c-0.3-0.1-0.6-0.2-0.9-0.4l-60.7-42.9c-0.8-0.6-1.3-1.5-1.3-2.5
						s0.4-1.9,1.2-2.5l49.4-40.4c1.3-1,3.1-0.9,4.2,0.2c3.3,3.3,7.2,5.7,11.7,7.3c7.7,2.7,16.1,2.1,23.4-1.4l0,0
						c4.3-2.1,7.9-5,10.8-8.7c1-1.3,2.8-1.6,4.2-0.7l21.1,13.1c1.4,0.9,1.9,2.7,1.1,4.2L404.2,699c-0.7,1.4-2.3,2-3.8,1.4l0.8-3.1
						l-1,3c-4.7-1.6-9.8-1.3-14.3,0.9c-2.1,1-3.9,2.4-5.5,4C379.5,706,378.2,706.3,377.1,706z M322.5,659.9l55.2,39
						c1.6-1.4,3.4-2.5,5.3-3.5c5.3-2.6,11.2-3.2,16.8-1.8l34.4-62.9L418,620.6c-3.1,3.5-6.9,6.3-11.1,8.4l0,0
						c-8.8,4.3-18.9,4.9-28.2,1.7c-4.5-1.5-8.5-3.8-12-6.8L322.5,659.9z M253.7,666.3c-0.7-0.2-1.3-0.7-1.7-1.3l-45-69.2
						c-0.9-1.3-0.6-3.1,0.6-4.1c0.4-0.4,0.8-0.7,1.2-1.1c1.1-1.1,2.8-1.2,4.1-0.4l63,44.5c1,0.7,1.5,1.8,1.3,3l-3.1,22.2
						c-0.2,1.6-1.6,2.8-3.2,2.7c-4.9-0.1-9.8,0.9-14.3,3.1L256,666C255.3,666.5,254.4,666.6,253.7,666.3z M218.4,601.9l37.3,57.4
						c4-1.7,8.2-2.6,12.5-2.9l2.5-17.6L218.4,601.9z M412.1,710.3c-0.8-0.2-1.4-0.7-1.8-1.5c-1.3-2.3-3-4.3-5.1-5.9
						c-1.3-0.9-1.6-2.7-0.9-4l36.9-67.4c0.4-0.8,1.1-1.3,2-1.5c0.8-0.2,1.7-0.1,2.5,0.4l32.9,20.5c1.3,0.8,1.8,2.5,1.2,3.9
						c-0.3,0.7-0.6,1.4-0.8,2.1c-2.3,6.6-2.2,13.6,0.1,20.1c0.5,1.5-0.2,3.2-1.6,3.9l-63,29.3C413.6,710.4,412.8,710.5,412.1,710.3z
						 M411.1,699.6c1.2,1.1,2.2,2.3,3.2,3.6l58-26.9c-1.9-7.1-1.7-14.5,0.7-21.5l-27.8-17.3L411.1,699.6z M293.8,673.3
						c-0.5-0.2-1-0.4-1.4-0.9c-3.4-3.6-7.7-6.4-12.4-8c-1-0.4-2.2-0.7-3.3-0.9c-1.6-0.4-2.7-1.9-2.4-3.5l2.6-18.9
						c0.2-1.1,0.9-2,1.9-2.5c1-0.4,2.2-0.3,3.1,0.3l26.8,18.9c0.8,0.6,1.3,1.5,1.3,2.5s-0.4,1.9-1.2,2.5l-12,9.8
						C295.8,673.4,294.8,673.6,293.8,673.3z M280.9,658c0.4,0.1,0.8,0.2,1.2,0.4c4.8,1.6,9.2,4.2,12.9,7.6l6.6-5.4l-19.1-13.5
						L280.9,658z M311,659.2c-0.3-0.1-0.6-0.2-0.9-0.4l-30.9-21.9c-1-0.7-1.5-1.8-1.3-3l8.8-63c0.2-1.5,1.5-2.7,3.1-2.7
						c2.7,0,5.4-0.7,7.9-1.9c3.1-1.5,5.7-3.9,7.6-6.8c0.8-1.3,2.6-1.8,4-1.2L360,582c1.5,0.7,2.2,2.4,1.7,3.9
						c-2.7,7.7-2.1,16,1.4,23.4c0.6,1.3,1.4,2.5,2.2,3.7c0.9,1.4,0.6,3.2-0.6,4.2l-50.8,41.5C313.1,659.3,312,659.5,311,659.2z
						 M284.3,632.9l27.4,19.4l46.8-38.2c-0.4-0.7-0.7-1.4-1.1-2c-3.9-8-4.8-16.9-2.6-25.5l-46.1-21.4c-2.3,2.8-5.2,5.2-8.5,6.8
						c-2.5,1.2-5.1,2-7.8,2.3L284.3,632.9z M274.1,633.2c-0.3-0.1-0.6-0.2-0.9-0.4L213,590.2c-1.3-0.9-1.7-2.6-1-4
						c0.4-0.8,0.8-1.7,1.1-2.6c1.6-4.7,1.3-9.8-0.9-14.3c-1.1-2.3-2.6-4.3-4.5-5.9c-1.2-1-1.4-2.8-0.6-4.1l61.5-96.7
						c0.9-1.4,2.7-1.9,4.1-1.1c1.3,0.7,2.7,1.3,4.1,1.8c2.5,0.9,5.1,1.4,7.8,1.6c1.6,0.1,2.9,1.5,2.9,3.1l1.2,60
						c0,1.6-1.1,2.9-2.6,3.2c-1.7,0.3-3.4,0.9-5,1.6c-4.5,2.2-7.8,6-9.5,10.7c-1.6,4.7-1.3,9.8,0.9,14.3c2.2,4.5,6,7.8,10.7,9.5
						c0.2,0.1,0.5,0.2,0.7,0.2c1.5,0.5,2.7,2,2.5,3.5l-8.3,59.7c-0.2,1.1-0.9,2-1.9,2.5C275.6,633.4,274.8,633.4,274.1,633.2z
						 M218.8,586.5l53.8,38.1l7.2-52c-5.7-2.3-10.2-6.6-12.9-12.1c-2.9-6-3.3-12.8-1.2-19.1c2.2-6.3,6.7-11.4,12.7-14.3
						c1.3-0.6,2.7-1.2,4-1.6l-1.1-54.7c-2.2-0.3-4.4-0.9-6.5-1.6c-0.8-0.3-1.6-0.6-2.4-0.9l-58.6,92.2c1.6,1.8,3,3.8,4.1,6
						c2.9,6,3.3,12.8,1.2,19.1C219.1,585.9,218.9,586.2,218.8,586.5z M440.6,627c-0.3-0.1-0.5-0.2-0.7-0.3l-20.8-12.9
						c-1.4-0.9-1.9-2.6-1.1-4.1c0.6-1.3,1.2-2.6,1.6-3.9c2.7-7.7,2.1-16-1.4-23.4l-0.1-0.2c-0.7-1.5-0.1-3.4,1.4-4.1l52.4-27.5
						c1.4-0.7,3.1-0.3,4,1c1.1,1.5,2.3,2.8,3.8,3.9c1.2,0.9,1.6,2.6,0.8,4l-36.2,66.1c-0.4,0.8-1.1,1.3-2,1.5
						C441.8,627.2,441.2,627.2,440.6,627z M424.8,609.8l15.6,9.7l33.3-60.9c-0.4-0.4-0.8-0.8-1.2-1.3L425,582.2
						c3.3,8.2,3.5,17.2,0.6,25.5C425.3,608.5,425,609.2,424.8,609.8z M360.5,582c-0.1,0-0.3-0.1-0.4-0.2l-51-23.6
						c-1.4-0.6-2.1-2.2-1.7-3.7c1.6-5.6,0.4-11.7-3.2-16.4c-1-1.3-0.8-3.1,0.4-4.2l61.4-56c1-0.9,2.4-1.1,3.6-0.5l102.6,52.4
						c1.4,0.7,2.1,2.4,1.5,4c-0.1,0.3-0.2,0.5-0.3,0.8c-1.4,3.9-1.4,8.1,0,12c0.5,1.5-0.1,3.1-1.5,3.8L419,578.1
						c-1.4,0.7-3,0.3-4-0.9c-3.6-4.8-8.6-8.4-14.4-10.4c-13.8-4.8-29.2,1-36.5,13.7C363.4,581.8,361.9,582.4,360.5,582z M314,553.6
						l46.2,21.4c9.3-13.6,26.7-19.5,42.4-14c6.1,2.1,11.5,5.7,15.7,10.4l48.3-25.4c-0.9-3.9-0.8-7.9,0.2-11.8L368.5,484l-57.8,52.7
						C313.8,541.8,315,547.8,314,553.6z M301.1,534.8c-0.3-0.1-0.6-0.2-0.9-0.4c-1.5-1-3.1-1.9-4.7-2.4c-1.2-0.4-2.5-0.7-3.8-0.9
						c-1.6-0.2-2.7-1.5-2.8-3.1l-1.2-60c0-1.6,1.2-3,2.8-3.2c3.4-0.4,6.7-1.4,9.8-2.9c4.9-2.4,9-6,12-10.5c0.9-1.3,2.6-1.8,4.1-1.1
						l47,24c0.9,0.5,1.6,1.4,1.7,2.4s-0.2,2.1-1,2.7L304.2,534C303.3,534.8,302.1,535.1,301.1,534.8z M296.6,525.6
						c0.3,0.1,0.6,0.2,0.9,0.3c1.4,0.5,2.8,1.1,4.2,1.9l54.8-49.9l-40.6-20.7c-3.4,4.4-7.8,7.9-12.8,10.4c-2.9,1.4-5.9,2.4-8.9,3
						l1.1,54.7C295.7,525.4,296.2,525.5,296.6,525.6z M473,530.1c-0.2-0.1-0.4-0.1-0.5-0.2l-100.7-51.4c-0.9-0.5-1.6-1.4-1.7-2.4
						s0.2-2.1,1-2.7l25.6-23.4c1.2-1.1,2.9-1.1,4.1-0.1c1.8,1.5,3.7,2.6,5.9,3.3c0.2,0.1,0.4,0.1,0.7,0.2c4.8,1.4,9.8,0.9,14.3-1.4
						c1.4-0.7,3.1-0.4,4,0.9l52.2,70.7c0.9,1.2,0.8,3-0.3,4.1c-0.4,0.4-0.8,0.9-1.2,1.4C475.6,530.1,474.2,530.5,473,530.1z
						 M378.6,474.9l89,45.4l-45.5-61.7c-5.6,2.3-11.7,2.4-17.5,0.5c-2-0.7-3.9-1.6-5.7-2.8L378.6,474.9z"/>
					<path id="path11539_00000077296075984505431500000018394953229331877563_" class="st2" d="M392.2,428.4
						c-2.3,6.6-1.2,13.6,2.4,19l0,0L367,472.5l-49-25.1c0.3-0.7,0.6-1.4,0.8-2.1l0,0c2.9-8.5,2.4-17.7-1.6-25.8l0,0
						c-4-8.1-10.8-14.2-19.4-17.1l0,0c-8.5-2.9-17.7-2.4-25.8,1.6l0,0c-8.1,4-14.2,10.8-17.1,19.4l0,0c-4.8,13.9,0.1,28.8,11,37.4
						l0,0l-61.5,96.7c-0.6-0.3-1.2-0.5-1.8-0.7l0,0c-5.5-1.9-11.4-1.5-16.7,1l0,0c-5.2,2.6-9.2,7-11.1,12.5l0,0
						c-1.9,5.5-1.5,11.4,1,16.7l0,0c2.6,5.2,7,9.2,12.5,11.1l0,0c0.3,0.1,0.5,0.2,0.8,0.3l0,0c4.9,1.5,10.2,1.2,14.9-0.8l0,0
						l45,69.3c-5.1,4-8.9,9.3-11,15.5l0,0c-2.9,8.5-2.4,17.7,1.6,25.8l0,0c4,8.1,10.8,14.2,19.4,17.1l0,0c0.4,0.1,0.8,0.3,1.2,0.4
						l0,0c17.3,5.2,35.8-4.1,41.7-21.3l0,0c2.9-8.5,2.4-17.7-1.6-25.8l0,0c-0.5-1.1-1.1-2.1-1.8-3.1l0,0l13.6-11.1l62.2,44
						c-0.4,0.8-0.7,1.6-1,2.5l0,0c-1.9,5.5-1.5,11.4,1,16.7l0,0c2.6,5.2,7,9.2,12.5,11.1l0,0c0.3,0.1,0.5,0.2,0.8,0.3l0,0
						c5.3,1.6,10.9,1.2,15.9-1.3l0,0c5.2-2.6,9.2-7,11.1-12.5l0,0l0,0c1.3-3.8,1.5-7.8,0.7-11.7l0,0l63.4-29.5
						c4.1,7,10.4,12.2,18.1,14.8l0,0c0.4,0.1,0.8,0.3,1.2,0.4l0,0c8.2,2.5,16.9,1.8,24.6-2l0,0c8.1-4,14.2-10.8,17.1-19.4l0,0
						c2.9-8.5,2.4-17.7-1.6-25.8l0,0c-4-8.1-10.8-14.2-19.4-17.1l0,0c-14.7-5.1-30.6,0.7-38.9,13l0,0L447,627.4l36.3-66.3
						c0.2,0.1,0.4,0.2,0.6,0.2l0,0c0.3,0.1,0.5,0.2,0.8,0.2l0,0c11.2,3.4,23.1-2.7,27-13.8l0,0c3.9-11.4-2.2-23.8-13.5-27.7l0,0
						c-6.1-2.1-12.4-1.3-17.7,1.6l0,0l-52.1-70.7c2.2-2.3,4-5,5.1-8.3l0,0l0,0c3.9-11.4-2.2-23.8-13.5-27.7l0,0
						c-0.3-0.1-0.5-0.2-0.8-0.2l0,0C408,411.2,396,417.3,392.2,428.4 M423.2,454.7l52.2,70.7c-0.5,0.5-1,1.1-1.4,1.6l0,0
						l-100.7-51.4l25.6-23.4c2,1.7,4.3,3,6.9,3.9l0,0c0.3,0.1,0.5,0.2,0.8,0.2l0,0C412.2,458.2,418.2,457.4,423.2,454.7
						 M290.9,467.9c3.7-0.4,7.3-1.5,10.8-3.2l0,0c5.5-2.7,10-6.6,13.3-11.6l0,0l47,24l-60,54.7c-1.7-1.2-3.5-2.2-5.5-2.9l0,0
						c-1.4-0.5-2.9-0.8-4.4-1l0,0L290.9,467.9z M310.4,555.4c1.9-6.8,0.3-13.9-3.7-19.1l0,0l61.4-56l102.6,52.4
						c-0.1,0.3-0.2,0.6-0.3,0.9l0,0c-1.6,4.7-1.5,9.7,0,14.1l0,0l-52.9,27.7c-4-5.3-9.5-9.3-15.9-11.5l0,0
						c-15.5-5.4-32.3,1.3-40.2,15.1l0,0L310.4,555.4z M284.5,468l1.2,60c-2,0.4-4,1-5.9,1.9l0,0c-5.2,2.6-9.2,7-11.1,12.5l0,0
						c-1.9,5.5-1.5,11.4,1,16.7l0,0c2.6,5.2,7,9.2,12.5,11.1l0,0c0.3,0.1,0.5,0.2,0.8,0.3l0,0c0.1,0,0.2,0.1,0.3,0.1l0,0l-8.3,59.7
						l-60.2-42.5c0.5-1,1-2,1.3-3.1l0,0c1.9-5.5,1.5-11.4-1-16.7l0,0c-1.3-2.7-3.1-5-5.3-6.9l0,0l61.5-96.7c1.5,0.8,3,1.4,4.6,2l0,0
						c0.4,0.1,0.8,0.3,1.2,0.4l0,0C279.5,467.4,282,467.8,284.5,468 M420.7,611.1c0.7-1.4,1.3-2.8,1.8-4.3l0,0
						c2.9-8.5,2.4-17.7-1.6-25.8l0,0c0-0.1-0.1-0.1-0.1-0.2l0,0l52.4-27.5c1.2,1.7,2.7,3.3,4.4,4.6l0,0L441.5,624L420.7,611.1z
						 M281,634.3l8.8-63c3.2,0,6.3-0.8,9.2-2.2l0,0c3.7-1.8,6.7-4.5,8.8-7.9l0,0l50.9,23.6c-2.9,8.5-2.4,17.7,1.6,25.8l0,0
						c0.7,1.4,1.5,2.8,2.4,4.1l0,0l-50.8,41.5L281,634.3z M405.4,626.1c4.7-2.3,8.7-5.6,11.9-9.6l0,0l21.1,13.1l-37.1,67.7
						c-0.1,0-0.2-0.1-0.3-0.1l0,0c-5.5-1.9-11.4-1.5-16.7,1l0,0c-2.4,1.2-4.6,2.8-6.4,4.7l0,0L317.2,660l49.4-40.4
						c3.6,3.6,8,6.3,12.9,8l0,0c0.4,0.1,0.8,0.3,1.2,0.4l0,0C389,630.6,397.7,629.9,405.4,626.1 M407,700.4l36.9-67.4l32.9,20.5
						c-0.3,0.7-0.6,1.5-0.9,2.3l0,0c-2.5,7.3-2.4,15,0.1,22.2l0,0l-63,29.3C411.5,704.5,409.5,702.2,407,700.4 M209.6,594.1
						c0.5-0.4,1-0.9,1.4-1.3l0,0l63,44.5l-3.1,22.2c-5.4-0.2-10.8,1-15.7,3.4l0,0c-0.2,0.1-0.4,0.2-0.6,0.3l0,0L209.6,594.1z
						 M280,641.5l26.8,18.9l-12,9.8c-3.7-4-8.4-7-13.7-8.9l0,0c-1.2-0.4-2.4-0.8-3.7-1l0,0L280,641.5z"/>
				</g>
				<g>
					<path class="st2" d="M823.3,422c0.4,0.2,0.9,0.4,1.3,0.6c9.2,4.5,16.2,12.4,19.5,22.1s2.7,20.2-1.8,29.4
						c-2.8,5.8-7,10.7-12.2,14.4l35.2,72.5c5.4-1,11-0.2,16,2.3c6.2,3,10.9,8.4,13.2,14.9c2.3,6.6,1.8,13.6-1.2,19.9
						c-3.1,6.2-8.4,10.9-14.9,13.2c-6.4,2.2-13.2,1.8-19.4-1l-72.6,87.9c9.7,11.6,11.8,28,5.1,41.7c-4.5,9.2-12.4,16.2-22.1,19.5
						c-9.7,3.3-20.1,2.7-29.4-1.8c-9.2-4.5-16.2-12.4-19.5-22.1c-3.3-9.6-2.7-19.8,1.6-29l-43.2-29.3l-27.7,19.5
						c2.4,6.6,2,13.9-1.1,20.3l0,0c-6.3,12.9-21.8,18.3-34.8,11.9c-6.2-3.1-10.9-8.4-13.2-14.9c-2.3-6.6-1.8-13.6,1.2-19.9
						c1.3-2.7,3-5.1,5.2-7.2l-42.2-75.1c-6.1,1.7-12.7,1.1-18.4-1.7c-12.9-6.3-18.3-21.9-11.9-34.8c6-12.3,20.3-17.8,32.9-12.8
						l42.7-59.2L585,481.7c-11.5,11.2-29,14.1-43.7,6.9c-9.2-4.5-16.1-12.4-19.5-22.1s-2.7-20.2,1.8-29.4
						c4.5-9.2,12.4-16.1,22.1-19.5c9.7-3.3,20.2-2.7,29.4,1.8c7.4,3.6,13.3,9.4,17.1,16.6l64.3-20.7c0.1-3.8,1-7.6,2.7-11.1
						c3.1-6.2,8.4-10.9,14.9-13.2c6.5-2.2,13.7-1.8,19.9,1.2c6.3,3.1,10.9,8.4,13.2,14.9c2.3,6.6,1.8,13.6-1.2,19.9
						c-0.1,0.1-0.1,0.3-0.2,0.4l54.9,50l11-6.9c-0.1-0.4-0.3-0.7-0.4-1.1c-3.3-9.7-2.7-20.2,1.8-29.4
						C782.3,421.6,804.3,413.6,823.3,422z M862.2,567.8c-0.7-0.3-1.3-0.8-1.6-1.6L823,488.7c-0.7-1.5-0.2-3.4,1.3-4.3
						c5.2-3.2,9.5-7.7,12.2-13.3c3.7-7.7,4.3-16.3,1.5-24.4s-8.5-14.6-16.2-18.3c-0.4-0.2-0.7-0.3-1.1-0.5c-15.7-7-34-0.4-41.6,15.1
						c-3.7,7.7-4.3,16.3-1.5,24.4c0.4,1,0.8,2.1,1.3,3.2c0.7,1.5,0.2,3.3-1.2,4.2l-15.5,9.7c-1.2,0.8-2.9,0.6-4-0.4l-58.7-53.5
						c-1.2-1.1-1.4-2.9-0.5-4.2c0.5-0.7,0.9-1.4,1.2-2.1c2.3-4.7,2.6-10,0.9-14.9c-1.7-4.9-5.2-8.9-9.9-11.2
						c-0.2-0.1-0.4-0.2-0.7-0.3c-4.5-2-9.5-2.2-14.2-0.6c-4.9,1.7-8.9,5.2-11.2,9.9c-1.6,3.2-2.2,6.8-1.9,10.3
						c0.1,1.5-0.8,3-2.3,3.4l-69.4,22.3c-1.6,0.5-3.4-0.3-4-1.8c-3-7-8.4-12.7-15.3-16c-0.4-0.2-0.7-0.3-1.1-0.5
						c-7.4-3.3-15.6-3.6-23.3-1c-8.1,2.8-14.6,8.5-18.3,16.2s-4.3,16.3-1.5,24.4s8.5,14.6,16.2,18.3c13,6.3,28.6,3.2,38-7.6
						c1.2-1.3,3.2-1.5,4.5-0.4l31.4,25.4c1.4,1.1,1.6,3.1,0.6,4.5l-46.1,64c-1,1.3-2.7,1.8-4.2,1l-0.5-0.3c-0.2-0.1-0.4-0.2-0.7-0.3
						c-9.6-4.3-20.8-0.2-25.4,9.2c-4.7,9.6-0.7,21.3,8.9,26c4.9,2.4,10.7,2.6,15.8,0.6c1.5-0.6,3.3,0,4.1,1.4l44.8,79.8
						c0.8,1.4,0.4,3.2-0.8,4.2c-2.3,1.8-4.2,4.1-5.5,6.7c-2.3,4.7-2.6,9.9-0.9,14.9c1.7,4.9,5.2,8.9,9.9,11.2
						c0.2,0.1,0.4,0.2,0.7,0.3c9.6,4.3,20.8,0.2,25.4-9.2l0,0c2.6-5.4,2.6-11.6,0-17.1c-0.7-1.4-0.3-3.2,1.1-4.1l31.7-22.4
						c1.1-0.8,2.6-0.8,3.7,0l47.6,32.3c1.4,1,1.9,2.9,1,4.3c-0.4,0.6-0.7,1.2-1,1.9c-3.7,7.7-4.3,16.3-1.5,24.4
						c2.8,8.1,8.5,14.6,16.2,18.3c7.6,3.7,16.3,4.3,24.4,1.5c8.1-2.8,14.6-8.5,18.3-16.2c5.9-12.1,3.6-26.7-5.9-36.4
						c-1.2-1.2-1.3-3.1-0.2-4.4l76.1-92.1c1-1.3,2.8-1.6,4.2-0.7c0.5,0.3,1,0.6,1.5,0.8c4.7,2.3,9.9,2.6,14.9,0.9
						c4.9-1.7,8.9-5.2,11.2-9.9s2.6-10,0.9-14.9c-1.7-4.9-5.2-8.9-9.9-11.2c-0.2-0.1-0.4-0.2-0.7-0.3c-4.2-1.9-8.8-2.2-13.3-0.9
						C863.7,568.2,862.9,568.1,862.2,567.8z M698.6,430.3c0.3,0.1,0.6,0.3,0.9,0.6l57.3,52.2c0.8,0.7,1.2,1.7,1.1,2.7
						s-0.7,1.9-1.5,2.5l-56.3,35.4c-1.4,0.9-3.3,0.6-4.3-0.8c-3-3.8-6.7-6.9-11.1-9c-7.6-3.7-16.3-4.3-24.4-1.5l0,0
						c-4.7,1.6-8.8,4.2-12.3,7.7c-1.2,1.2-3.1,1.3-4.4,0.2L623.4,504c-1.4-1.1-1.6-3.1-0.6-4.5l47.1-65.3c0.9-1.3,2.7-1.8,4.2-1
						l-1.2,3.1l1.4-3c4.6,2.3,10,2.6,14.9,0.9c2.3-0.8,4.3-1.9,6.2-3.5C696.1,430,697.4,429.8,698.6,430.3z M749.1,485L697,437.5
						c-1.8,1.2-3.8,2.2-5.9,2.9c-5.8,2-12,1.9-17.7-0.3l-43.7,60.6l15.5,12.6c3.7-3.2,7.9-5.6,12.6-7.2l0,0
						c9.7-3.3,20.2-2.6,29.4,1.8c4.4,2.2,8.3,5,11.5,8.6L749.1,485z M821.2,487.2c0.7,0.3,1.3,0.8,1.6,1.6l37.6,77.4
						c0.7,1.5,0.2,3.3-1.2,4.2c-0.5,0.3-1,0.7-1.4,1c-1.3,1-3.1,0.9-4.2-0.2L794.1,517c-0.9-0.8-1.3-2.1-1-3.3l6.1-22.6
						c0.4-1.6,2-2.7,3.7-2.4c5,0.8,10.3,0.3,15.2-1.4l0.6-0.2C819.5,486.8,820.4,486.9,821.2,487.2z M849.3,558.4l-31.2-64.2
						c-4.3,1.2-8.8,1.7-13.3,1.3l-4.8,17.9L849.3,558.4z M662.9,421.4c0.8,0.3,1.4,1,1.7,1.8c1,2.6,2.6,4.8,4.5,6.7
						c1.2,1.1,1.3,3,0.4,4.3l-46.8,64.9c-0.5,0.7-1.3,1.2-2.2,1.3c-0.9,0.1-1.8-0.1-2.5-0.7l-31.4-25.4c-1.3-1-1.6-2.8-0.8-4.2
						c0.4-0.7,0.8-1.3,1.1-2c3.2-6.5,4.1-13.8,2.5-20.8c-0.4-1.7,0.6-3.3,2.2-3.8l68.9-22.2C661.3,421,662.2,421,662.9,421.4z
						 M662.6,432.5c-1.1-1.3-2-2.7-2.8-4.1l-63.4,20.4c1.1,7.6-0.1,15.2-3.5,22.2l26.6,21.5L662.6,432.5z M780.6,474.9
						c0.5,0.2,1,0.6,1.3,1.1c3,4.2,7.1,7.6,11.8,9.9c1,0.5,2.1,1,3.3,1.4c1.6,0.6,2.5,2.3,2.1,3.9l-5.1,19.2c-0.3,1.1-1.1,2-2.2,2.3
						c-1.1,0.3-2.3,0.1-3.1-0.7l-25.2-23c-0.8-0.7-1.2-1.7-1.1-2.7c0.1-1,0.7-1.9,1.5-2.5l13.7-8.6
						C778.4,474.5,779.6,474.4,780.6,474.9z M792,492.3c-0.4-0.2-0.8-0.4-1.2-0.5c-4.7-2.3-8.9-5.6-12.3-9.5l-7.6,4.7l18.1,16.5
						L792,492.3z M761,487.2c0.3,0.1,0.6,0.3,0.9,0.6l29.2,26.6c0.9,0.8,1.3,2.1,1,3.3l-17.2,64c-0.4,1.6-1.9,2.6-3.5,2.4
						c-2.9-0.3-5.7,0-8.4,0.9c-3.4,1.2-6.4,3.3-8.7,6c-1,1.3-2.9,1.6-4.3,0.7l-49.6-31c-1.4-0.9-2-2.7-1.2-4.2
						c3.7-7.7,4.3-16.3,1.5-24.4c-0.5-1.4-1.1-2.8-1.8-4.1c-0.8-1.5-0.3-3.4,1.2-4.3l57.9-36.4C758.8,486.8,760,486.7,761,487.2z
						 M785.1,517.9l-25.9-23.6l-53.3,33.5c0.3,0.7,0.6,1.5,0.9,2.2c3,8.8,2.8,18.1-0.6,26.7l44.9,28c2.7-2.6,6-4.7,9.7-5.9
						c2.7-0.9,5.6-1.4,8.4-1.4L785.1,517.9z M795.7,518.9c0.3,0.1,0.6,0.3,0.9,0.6l56.8,51.8c1.2,1.1,1.4,2.9,0.5,4.3
						c-0.6,0.8-1.1,1.7-1.5,2.6c-2.3,4.7-2.6,10-0.9,14.9c0.9,2.5,2.2,4.8,3.9,6.7c1.1,1.2,1.1,3,0.1,4.3l-76,92.1
						c-1.1,1.3-3,1.6-4.4,0.6c-1.3-0.9-2.7-1.7-4.1-2.4c-2.5-1.2-5.1-2.1-7.9-2.7c-1.7-0.3-2.8-1.9-2.6-3.6l6.5-62.2
						c0.2-1.6,1.5-2.9,3.1-2.9c1.8-0.1,3.7-0.4,5.4-1c4.9-1.7,8.9-5.2,11.2-9.9s2.6-10,0.9-14.9c-1.7-4.9-5.2-8.9-9.9-11.2
						c-0.2-0.1-0.5-0.2-0.7-0.3c-1.5-0.7-2.5-2.4-2.1-4l16.3-60.7c0.3-1.1,1.1-2,2.2-2.3C794.2,518.5,795,518.6,795.7,518.9z
						 M847,574.3L796.2,528L782,580.8c5.6,3.1,9.7,8.1,11.8,14.2c2.3,6.6,1.8,13.6-1.2,19.9c-3.1,6.2-8.4,10.9-14.9,13.2
						c-1.4,0.5-2.9,0.9-4.4,1.1l-5.9,56.7c2.3,0.6,4.4,1.5,6.5,2.5c0.8,0.4,1.6,0.8,2.3,1.3l72.5-87.8c-1.5-2.1-2.6-4.3-3.5-6.7
						c-2.3-6.6-1.8-13.6,1.2-19.9C846.6,574.9,846.8,574.6,847,574.3z M622.7,503.8c0.3,0.1,0.5,0.3,0.7,0.4l19.8,16.1
						c1.3,1.1,1.6,3,0.7,4.4c-0.8,1.2-1.6,2.5-2.2,3.8c-3.7,7.7-4.3,16.3-1.5,24.4l0.1,0.2c0.6,1.7-0.3,3.5-2,4.1l-57.8,21.7
						c-1.5,0.6-3.3-0.1-4-1.5c-0.9-1.7-2-3.2-3.4-4.5c-1.1-1.1-1.3-2.9-0.4-4.3l45.9-63.7c0.5-0.7,1.3-1.2,2.2-1.3
						C621.5,503.5,622.1,503.6,622.7,503.8z M636.9,523.6l-14.9-12l-42.3,58.7c0.4,0.5,0.8,1,1.1,1.5l52.4-19.7
						c-2.3-9-1.4-18.2,2.7-26.5C636.1,524.9,636.5,524.3,636.9,523.6z M699.8,560.7c0.1,0.1,0.3,0.1,0.4,0.2l49.7,31
						c1.4,0.9,1.9,2.6,1.3,4.1c-2.3,5.6-1.9,12.1,1.2,17.4c0.9,1.5,0.5,3.4-0.9,4.3l-70.8,50c-1.1,0.8-2.6,0.8-3.7,0l-99.4-67.4
						c-1.4-0.9-1.9-2.8-1-4.3c0.1-0.2,0.3-0.5,0.4-0.8c1.9-3.9,2.4-8.2,1.6-12.5c-0.3-1.6,0.5-3.2,2.1-3.7l58.3-21.9
						c1.5-0.6,3.2,0,4,1.4c3.2,5.4,7.8,9.8,13.6,12.6c13.7,6.7,30.3,2.7,39.5-9.5C696.8,560.5,698.4,560.1,699.8,560.7z
						 M744.2,596.1l-45-28.1c-11.4,12.9-30.1,16.7-45.7,9.1c-6-3-11.1-7.4-14.9-12.8l-53.3,20c0.4,4.2-0.2,8.3-1.8,12.2l95.2,64.6
						l66.6-47C742.9,608.3,742.5,602,744.2,596.1z M755.1,617.2c0.3,0.1,0.6,0.3,0.9,0.6c1.4,1.3,2.9,2.3,4.6,3.1
						c1.2,0.6,2.5,1.1,3.8,1.4c1.6,0.4,2.6,1.9,2.5,3.5l-6.5,62.2c-0.2,1.7-1.6,2.9-3.3,2.9c-3.6,0-7.1,0.6-10.5,1.7
						c-5.4,1.8-10.1,5-13.8,9.3c-1.1,1.3-3,1.5-4.3,0.6l-45.6-30.9c-0.9-0.6-1.4-1.6-1.4-2.7c0-1.1,0.5-2.1,1.4-2.7l69.1-48.8
						C752.9,616.9,754.1,616.8,755.1,617.2z M758.6,627.2c-0.3-0.1-0.6-0.3-0.9-0.4c-1.4-0.7-2.8-1.5-4.1-2.5L690.5,669l39.3,26.7
						c4.1-4.1,9.1-7.2,14.6-9.1c3.1-1.1,6.4-1.7,9.6-2l5.9-56.7C759.5,627.7,759.1,627.5,758.6,627.2z M576.7,599.9
						c0.2,0.1,0.3,0.2,0.5,0.3l97.6,66.2c0.9,0.6,1.4,1.6,1.4,2.7s-0.5,2.1-1.4,2.7l-29.5,20.9c-1.3,1-3.2,0.8-4.3-0.4
						c-1.6-1.7-3.5-3.2-5.7-4.2c-0.2-0.1-0.4-0.2-0.7-0.3c-4.8-2.1-10.1-2.2-14.9-0.3c-1.5,0.6-3.3,0-4.1-1.5l-44.8-80
						c-0.8-1.4-0.4-3.2,0.8-4.2c0.5-0.4,1-0.8,1.4-1.3C574,599.6,575.5,599.4,576.7,599.9z M667.2,669.2L581,610.7l39.1,69.7
						c6-1.6,12.4-1,18.1,1.8c2,1,3.8,2.2,5.5,3.6L667.2,669.2z"/>
					<path id="path11539_00000162350306392283836740000003607026353308049573_" class="st2" d="M647.2,715.5c3.2-6.5,3-13.9,0-20
						l0,0l31.7-22.4l47.6,32.3c-0.4,0.7-0.8,1.4-1.1,2.1l0,0c-4.1,8.4-4.7,18-1.7,26.9l0,0c3,8.9,9.4,16.1,17.8,20.2l0,0
						c8.4,4.1,18,4.7,26.9,1.7l0,0c8.9-3,16.1-9.4,20.2-17.8l0,0c6.7-13.7,3.6-29.8-6.5-40.1l0,0l76.1-92.1c0.6,0.3,1.2,0.7,1.8,1
						l0,0c5.5,2.7,11.6,3.1,17.4,1.1l0,0c5.7-2,10.4-6.1,13.1-11.5l0,0c2.7-5.5,3.1-11.6,1.1-17.4l0,0c-2-5.8-6.1-10.4-11.5-13.1
						l0,0c-0.3-0.1-0.5-0.2-0.8-0.4l0,0c-4.9-2.2-10.4-2.6-15.6-1.1l0,0l-37.6-77.5c5.8-3.5,10.4-8.5,13.4-14.7l0,0
						c4.1-8.4,4.7-18,1.7-26.9l0,0c-3-8.9-9.4-16.1-17.8-20.2l0,0c-0.4-0.2-0.8-0.4-1.2-0.6l0,0c-17.2-7.6-37.6-0.3-45.9,16.7l0,0
						c-4.1,8.4-4.7,18-1.7,26.9l0,0c0.4,1.2,0.9,2.4,1.4,3.5l0,0l-15.5,9.7l-58.7-53.5c0.5-0.8,1-1.6,1.4-2.5l0,0
						c2.7-5.5,3.1-11.6,1.1-17.4l0,0c-2-5.7-6.1-10.4-11.5-13.1l0,0c-0.3-0.1-0.5-0.2-0.8-0.4l0,0c-5.3-2.3-11.1-2.6-16.6-0.7l0,0
						c-5.7,2-10.4,6.1-13.1,11.5l0,0l0,0c-1.9,3.8-2.6,7.9-2.2,12l0,0L590.7,440c-3.3-7.7-9.2-14-16.8-17.7l0,0
						c-0.4-0.2-0.8-0.4-1.2-0.6l0,0c-8.1-3.6-17.2-4-25.7-1.1l0,0c-8.9,3-16.1,9.4-20.2,17.8l0,0c-4.1,8.4-4.7,18-1.7,26.9l0,0
						c3,8.9,9.4,16.1,17.8,20.2l0,0c14.6,7.1,31.7,3.2,41.9-8.4l0,0l31.4,25.4l-46.1,64c-0.2-0.1-0.4-0.2-0.6-0.3l0,0
						c-0.3-0.1-0.5-0.2-0.8-0.4l0,0c-11.1-4.9-24.3-0.2-29.7,10.8l0,0c-5.5,11.3-0.8,24.9,10.4,30.4l0,0c6,2.9,12.7,3,18.5,0.7l0,0
						l44.8,79.8c-2.6,2.1-4.8,4.7-6.4,7.9l0,0l0,0c-5.5,11.3-0.8,24.9,10.4,30.4l0,0c0.3,0.1,0.5,0.2,0.8,0.4l0,0
						C628.7,731.3,641.8,726.5,647.2,715.5 M618.5,684.3l-44.9-79.9c0.6-0.5,1.1-1,1.7-1.5l0,0l97.6,66.2L643.4,690
						c-1.8-2-4.1-3.7-6.6-4.9l0,0c-0.3-0.1-0.5-0.2-0.8-0.4l0,0C630.3,682.2,624,682.2,618.5,684.3 M757.1,687.8
						c-3.9,0-7.8,0.6-11.5,1.9l0,0c-6,2.1-11.2,5.6-15.2,10.3l0,0l-45.7-31l69.1-48.8c1.6,1.4,3.4,2.7,5.4,3.7l0,0
						c1.4,0.7,2.9,1.2,4.4,1.6l0,0L757.1,687.8z M748.2,594.7c-2.8,6.8-2.1,14.3,1.4,20.3l0,0l-70.8,50l-99.4-67.4
						c0.2-0.3,0.3-0.6,0.5-0.9l0,0c2.3-4.7,2.8-9.8,1.8-14.6l0,0l58.3-21.9c3.5,6,8.6,10.8,15,13.9l0,0c15.4,7.5,33.6,2.8,43.6-10.4
						l0,0L748.2,594.7z M763.7,688.4l6.5-62.2c2.1-0.1,4.2-0.5,6.3-1.2l0,0c5.7-2,10.4-6.1,13.1-11.5l0,0c2.7-5.5,3.1-11.6,1.1-17.4
						l0,0c-2-5.7-6.1-10.4-11.5-13.1l0,0c-0.3-0.1-0.5-0.2-0.8-0.4l0,0c-0.1,0-0.2-0.1-0.3-0.1l0,0l16.3-60.7l56.8,51.8
						c-0.7,0.9-1.2,2-1.8,3l0,0c-2.7,5.5-3.1,11.6-1.1,17.4l0,0c1,2.9,2.6,5.6,4.6,7.8l0,0l-76,92.1c-1.4-1-2.9-1.8-4.5-2.6l0,0
						c-0.4-0.2-0.8-0.4-1.2-0.6l0,0C768.8,689.7,766.3,688.9,763.7,688.4 M641.2,522.9c-0.9,1.3-1.7,2.7-2.4,4.2l0,0
						c-4.1,8.4-4.7,18-1.7,26.9l0,0c0,0.1,0,0.1,0.1,0.2l0,0l-57.8,21.7c-1-1.9-2.4-3.7-4-5.3l0,0l45.9-63.7L641.2,522.9z
						 M788.8,516.8l-17.2,64c-3.3-0.4-6.6,0-9.8,1.1l0,0c-4,1.4-7.5,3.8-10.2,7l0,0L702,558c4.1-8.4,4.7-18,1.7-26.9l0,0
						c-0.5-1.6-1.2-3.1-1.9-4.6l0,0l57.9-36.4L788.8,516.8z M659,509.2c-5.2,1.8-9.8,4.7-13.5,8.4l0,0l-20.2-16.3l47.1-65.3
						c0.1,0.1,0.2,0.1,0.3,0.2l0,0c5.5,2.7,11.6,3.1,17.4,1.1l0,0c2.7-0.9,5.1-2.3,7.2-4l0,0l57.3,52.2l-56.3,35.4
						c-3.2-4.2-7.4-7.6-12.3-10l0,0c-0.4-0.2-0.8-0.4-1.2-0.6l0,0C676.5,506.7,667.4,506.3,659,509.2 M666.9,432.2L620,497.1
						l-31.4-25.4c0.4-0.7,0.8-1.5,1.2-2.3l0,0c3.5-7.2,4.5-15.3,2.8-23l0,0l68.9-22.2C662.8,427.4,664.6,430,666.9,432.2
						 M857.4,567.6c-0.6,0.4-1.1,0.8-1.6,1.2l0,0l-59.4-54.2l6.1-22.6c5.5,0.9,11.3,0.4,16.7-1.5l0,0c0.2-0.1,0.5-0.2,0.7-0.3l0,0
						L857.4,567.6z M790.8,509.5l-25.2-23l13.7-8.6c3.3,4.6,7.8,8.4,13,10.9l0,0c1.2,0.6,2.4,1.1,3.7,1.5l0,0L790.8,509.5z"/>
				</g>
				<g>
					<path class="st2" d="M705.6,766.2c0.5,0.2,1.1,0.5,1.6,0.8c11.5,5.7,20.1,15.5,24.2,27.7c4.1,12.1,3.2,25.2-2.5,36.6
						c-3.6,7.2-8.8,13.3-15.3,17.9l43.5,90.7c6.7-1.2,13.7-0.2,19.9,2.9c7.8,3.8,13.6,10.5,16.3,18.7c2.8,8.2,2.2,17-1.7,24.8
						s-10.5,13.6-18.7,16.3c-8,2.7-16.5,2.2-24.2-1.4l-91.1,109.1c12.1,14.5,14.6,34.9,6.1,52c-5.7,11.5-15.5,20.1-27.7,24.2
						c-12.1,4.1-25.1,3.2-36.6-2.5s-20.1-15.5-24.1-27.7c-4-12-3.2-24.7,2.2-36.1l-53.7-36.9l-34.6,24.2c2.9,8.3,2.4,17.3-1.5,25.3
						l0,0c-8,16.1-27.4,22.7-43.5,14.7c-7.8-3.8-13.6-10.5-16.3-18.7c-2.8-8.2-2.2-17,1.7-24.8c1.7-3.3,3.8-6.3,6.5-8.9l-52.1-94
						c-7.6,2.1-15.8,1.3-22.9-2.2c-16-8-22.6-27.5-14.7-43.5c7.6-15.3,25.4-22,41.1-15.7l53.6-73.6l-33-27
						c-14.5,13.9-36.2,17.4-54.5,8.3c-11.5-5.7-20.1-15.5-24.2-27.7c-4.1-12.1-3.2-25.2,2.5-36.6c5.7-11.5,15.5-20.1,27.7-24.2
						c12.1-4.1,25.2-3.2,36.6,2.5c9.1,4.5,16.6,11.9,21.2,20.9l80.3-25.3c0.1-4.8,1.2-9.5,3.4-13.8c3.9-7.8,10.5-13.6,18.7-16.3
						c8.2-2.8,17.1-2.1,24.8,1.7c7.8,3.9,13.6,10.5,16.4,18.7c2.8,8.2,2.2,17-1.7,24.8c-0.1,0.2-0.2,0.3-0.2,0.5l68.1,62.8l13.7-8.5
						c-0.2-0.5-0.3-0.9-0.5-1.4c-4.1-12.1-3.2-25.2,2.5-36.6C654.4,765.4,681.9,755.5,705.6,766.2z M753.1,948.2
						c-0.9-0.4-1.6-1.1-2-2l-46.4-96.9c-0.9-1.9-0.2-4.2,1.6-5.3c6.6-3.9,11.8-9.6,15.3-16.5c4.7-9.5,5.4-20.3,2.1-30.4
						c-3.4-10.1-10.5-18.2-20-22.9c-0.4-0.2-0.9-0.4-1.3-0.6c-19.6-8.8-42.4-0.7-52,18.6c-4.7,9.5-5.5,20.3-2.1,30.4
						c0.4,1.3,1,2.6,1.6,3.9c0.9,1.9,0.2,4.1-1.6,5.2l-19.3,12c-1.6,1-3.6,0.8-4.9-0.5l-72.8-67.1c-1.5-1.4-1.8-3.6-0.6-5.3
						c0.6-0.9,1.1-1.8,1.5-2.6c2.9-5.8,3.3-12.4,1.3-18.5c-2.1-6.1-6.4-11.1-12.2-14c-0.3-0.1-0.5-0.3-0.8-0.4
						c-5.6-2.5-11.9-2.8-17.7-0.9c-6.1,2.1-11.1,6.4-14,12.2c-2,4-2.8,8.4-2.5,12.8c0.2,1.9-1,3.7-2.8,4.3l-86.7,27.4
						c-2,0.6-4.2-0.4-5-2.3c-3.7-8.7-10.4-15.9-18.9-20.1c-0.5-0.2-0.9-0.4-1.4-0.6c-9.2-4.1-19.5-4.6-29-1.4
						c-10.1,3.4-18.2,10.5-22.9,20c-4.7,9.5-5.5,20.3-2.1,30.4c3.4,10.1,10.5,18.2,20,22.9c16.1,8,35.6,4.1,47.5-9.3
						c1.5-1.6,4-1.9,5.7-0.5l39,31.9c1.7,1.4,2,3.8,0.7,5.6l-57.9,79.5c-1.2,1.6-3.4,2.2-5.2,1.2l-0.7-0.3c-0.3-0.1-0.5-0.3-0.8-0.4
						c-12-5.4-25.9-0.4-31.7,11.4c-5.9,12-1,26.6,11,32.5c6.1,3.1,13.3,3.3,19.7,0.8c1.9-0.7,4.1,0,5.1,1.8l55.4,99.8
						c1,1.8,0.5,4-1.1,5.2c-2.9,2.3-5.2,5.1-6.8,8.4c-2.9,5.8-3.3,12.4-1.2,18.5c2.1,6.2,6.4,11.1,12.2,14c0.3,0.1,0.5,0.3,0.8,0.4
						c12,5.4,25.9,0.4,31.7-11.4l0,0c3.3-6.7,3.4-14.5,0.1-21.3c-0.9-1.8-0.3-4,1.3-5.1L522,1075c1.4-1,3.3-1,4.7,0l59.1,40.5
						c1.8,1.2,2.3,3.6,1.2,5.4c-0.4,0.8-0.9,1.6-1.3,2.4c-4.7,9.5-5.4,20.3-2.1,30.4c3.4,10.1,10.5,18.2,20,22.9
						c9.5,4.7,20.3,5.4,30.4,2.1c10.1-3.4,18.2-10.5,22.9-20c7.5-15.1,4.6-33.3-7.1-45.4c-1.5-1.5-1.5-3.9-0.2-5.5l95.5-114.4
						c1.3-1.6,3.5-1.9,5.3-0.9c0.6,0.4,1.2,0.7,1.9,1c5.8,2.9,12.4,3.3,18.5,1.3c6.1-2.1,11.1-6.4,14-12.2s3.3-12.4,1.3-18.5
						c-2.1-6.1-6.4-11.1-12.2-14c-0.3-0.1-0.6-0.3-0.8-0.4c-5.3-2.4-11-2.8-16.6-1.2C754.9,948.7,753.9,948.6,753.1,948.2z
						 M549.9,775.7c0.4,0.2,0.8,0.4,1.1,0.7l71.1,65.5c0.9,0.9,1.4,2.1,1.3,3.4s-0.8,2.4-1.9,3.1L551,892.1c-1.8,1.1-4.1,0.7-5.4-1
						c-3.7-4.8-8.4-8.6-13.8-11.3c-9.5-4.7-20.4-5.4-30.4-2.1l0,0c-5.8,2-11,5.2-15.3,9.5c-1.5,1.5-3.8,1.6-5.5,0.3l-25-20.5
						c-1.7-1.4-2-3.8-0.7-5.6l59.1-81.1c1.2-1.6,3.4-2.2,5.2-1.2l-1.5,3.8l1.8-3.7c5.8,2.9,12.4,3.3,18.5,1.3c2.8-1,5.4-2.4,7.7-4.3
						C546.9,775.2,548.5,775.1,549.9,775.7z M612.6,844.2L548,784.7c-2.3,1.5-4.8,2.7-7.4,3.6c-7.3,2.4-15,2.3-22-0.5l-54.9,75.3
						l19.3,15.8c4.6-3.9,9.9-6.9,15.8-8.9l0,0c12.1-4.1,25.2-3.2,36.6,2.5c5.5,2.7,10.3,6.3,14.3,10.8L612.6,844.2z M702.5,847.4
						c0.9,0.4,1.6,1.1,2,2l46.4,96.7c0.9,1.9,0.3,4.1-1.5,5.2c-0.6,0.4-1.2,0.8-1.8,1.3c-1.6,1.2-3.8,1.1-5.3-0.2l-73.8-68
						c-1.1-1-1.6-2.6-1.2-4.1l7.7-28.1c0.6-2,2.5-3.3,4.6-3c6.3,1,12.8,0.4,18.9-1.6l0.8-0.3C700.4,847,701.5,847,702.5,847.4z
						 M737.1,936.5l-38.5-80.3c-5.4,1.5-11,2-16.6,1.6l-6.1,22.3L737.1,936.5z M505.5,764.3c0.9,0.4,1.7,1.2,2.1,2.2
						c1.3,3.2,3.2,6,5.6,8.4c1.5,1.4,1.7,3.7,0.5,5.4L454.9,861c-0.7,0.9-1.7,1.5-2.8,1.7c-1.1,0.1-2.2-0.2-3.1-0.9l-39-31.9
						c-1.6-1.3-2-3.5-0.9-5.2c0.5-0.8,1-1.7,1.4-2.5c4-8.1,5.2-17.1,3.3-26c-0.4-2.1,0.8-4.1,2.8-4.8l86.1-27.2
						C503.6,763.8,504.6,763.9,505.5,764.3z M505.1,778.2c-1.3-1.6-2.5-3.3-3.5-5.1l-79.2,25c1.3,9.4-0.3,18.9-4.6,27.6l33,27
						L505.1,778.2z M651.9,831.8c0.6,0.3,1.2,0.7,1.6,1.3c3.7,5.2,8.8,9.5,14.7,12.4c1.3,0.6,2.7,1.2,4.1,1.8c2,0.8,3.1,2.9,2.5,4.9
						l-6.5,23.9c-0.4,1.4-1.4,2.5-2.8,2.9c-1.4,0.4-2.9,0-3.9-0.9l-31.3-28.9c-0.9-0.9-1.4-2.1-1.3-3.4c0.1-1.3,0.8-2.4,1.9-3.1
						l17.2-10.6C649.2,831.3,650.7,831.3,651.9,831.8z M666,853.6c-0.5-0.2-1-0.5-1.5-0.7c-5.9-2.9-11.1-7-15.3-12l-9.5,5.9
						l22.4,20.7L666,853.6z M627.4,847c0.4,0.2,0.8,0.4,1.1,0.7l36.2,33.4c1.1,1,1.6,2.6,1.2,4.1L644,964.9c-0.5,1.9-2.4,3.2-4.4,3
						c-3.6-0.4-7.1,0-10.5,1.1c-4.3,1.4-8,4-10.9,7.4c-1.3,1.6-3.6,1.9-5.3,0.8l-61.7-38.9c-1.8-1.1-2.4-3.4-1.5-5.3
						c4.7-9.5,5.4-20.3,2.1-30.4c-0.6-1.8-1.3-3.5-2.2-5.2c-0.9-1.9-0.3-4.2,1.5-5.3l72.4-45C624.7,846.5,626.1,846.5,627.4,847z
						 M657.3,885.5l-32.1-29.6l-66.7,41.4c0.4,0.9,0.7,1.9,1,2.8c3.7,11,3.3,22.6-1,33.2l55.8,35.2c3.4-3.3,7.5-5.8,12.1-7.3
						c3.4-1.2,7-1.7,10.5-1.7L657.3,885.5z M670.5,886.8c0.4,0.2,0.8,0.4,1.1,0.7l70.5,64.9c1.5,1.4,1.8,3.7,0.6,5.4
						c-0.7,1-1.4,2.1-1.9,3.2c-2.9,5.8-3.3,12.4-1.3,18.5c1.1,3.1,2.7,5.9,4.9,8.4c1.3,1.5,1.4,3.8,0.1,5.3L649,1107.6
						c-1.4,1.6-3.7,2-5.5,0.7c-1.6-1.1-3.3-2.1-5.1-3c-3.1-1.5-6.4-2.7-9.8-3.4c-2.1-0.4-3.5-2.4-3.3-4.5l8.5-77.6
						c0.2-2,1.9-3.6,3.9-3.6c2.3-0.1,4.6-0.5,6.7-1.3c6.1-2.1,11.1-6.4,14-12.2s3.3-12.4,1.3-18.5c-2.1-6.1-6.4-11.1-12.2-14
						c-0.3-0.1-0.6-0.3-0.9-0.4c-1.8-0.8-3.1-3-2.6-4.9l20.7-75.5c0.4-1.4,1.4-2.5,2.8-2.9C668.6,886.3,669.6,886.4,670.5,886.8z
						 M734,956.2l-63-58.1l-18,65.8c6.9,3.9,12.1,10.2,14.6,17.8c2.8,8.2,2.2,17-1.7,24.8s-10.5,13.6-18.7,16.3
						c-1.8,0.6-3.6,1-5.5,1.3l-7.8,70.7c2.8,0.8,5.5,1.9,8.1,3.2c1,0.5,2,1,2.9,1.6l91-109c-1.8-2.6-3.3-5.4-4.3-8.4
						c-2.8-8.2-2.2-17,1.7-24.8C733.6,957,733.8,956.6,734,956.2z M454.8,866.9c0.3,0.1,0.6,0.3,0.9,0.6l24.6,20.1
						c1.6,1.3,2,3.7,0.8,5.5c-1,1.5-2,3.1-2.8,4.7c-4.7,9.5-5.4,20.3-2.1,30.4l0.1,0.3c0.7,2.1-0.4,4.3-2.5,5.1l-72.2,26.7
						c-1.9,0.7-4.1-0.1-5-1.9c-1.1-2.1-2.5-4-4.2-5.7c-1.4-1.4-1.6-3.7-0.4-5.3l57.7-79.1c0.7-0.9,1.7-1.5,2.8-1.7
						C453.4,866.5,454.1,866.6,454.8,866.9z M472.4,891.7l-18.5-15.1l-53.2,73c0.5,0.6,0.9,1.2,1.4,1.9l65.4-24.2
						c-2.8-11.2-1.6-22.7,3.5-33C471.5,893.3,471.9,892.5,472.4,891.7z M550.6,938.3c0.2,0.1,0.3,0.2,0.5,0.3l61.8,39
						c1.7,1.1,2.4,3.2,1.6,5.1c-2.9,7-2.4,15.1,1.4,21.7c1.1,1.8,0.5,4.2-1.2,5.4l-88.6,61.9c-1.4,1-3.3,1-4.7,0L397.9,987
						c-1.7-1.2-2.3-3.5-1.3-5.4c0.2-0.3,0.3-0.6,0.5-0.9c2.4-4.8,3.1-10.2,2-15.5c-0.4-2,0.7-4,2.6-4.7l72.8-26.9
						c1.9-0.7,4,0.1,5,1.8c3.9,6.8,9.7,12.3,16.8,15.8c17,8.5,37.8,3.6,49.3-11.5C546.9,938,548.9,937.5,550.6,938.3z M605.8,982.7
						l-55.9-35.3c-14.2,16-37.7,20.7-57.1,11c-7.5-3.7-13.8-9.2-18.4-16.1l-66.6,24.6c0.5,5.2-0.3,10.3-2.3,15.2l118.3,81.2
						l83.3-58.2C604.1,998,603.6,990,605.8,982.7z M619.3,1009.1c0.4,0.2,0.8,0.4,1.1,0.7c1.7,1.6,3.6,2.9,5.7,3.9
						c1.5,0.7,3.1,1.3,4.7,1.8c2,0.5,3.3,2.4,3,4.4l-8.5,77.6c-0.2,2.1-2,3.7-4.1,3.6c-4.4,0-8.8,0.7-13.1,2.1
						c-6.7,2.3-12.7,6.2-17.2,11.5c-1.4,1.6-3.7,1.9-5.4,0.7l-56.6-38.9c-1.1-0.8-1.8-2-1.8-3.4c0-1.3,0.6-2.6,1.8-3.4l86.4-60.4
						C616.4,1008.7,618,1008.6,619.3,1009.1z M623.5,1021.7c-0.4-0.2-0.7-0.3-1.1-0.5c-1.8-0.9-3.5-1.9-5.1-3.1l-79,55.2l48.9,33.5
						c5.1-5,11.4-8.9,18.3-11.2c3.9-1.3,8-2.1,12-2.4l7.8-70.7C624.7,1022.2,624.1,1021.9,623.5,1021.7z M396.9,986.4
						c0.2,0.1,0.4,0.2,0.6,0.4l121.3,83.2c1.1,0.8,1.8,2,1.8,3.4c0,1.3-0.6,2.6-1.8,3.4l-37,25.8c-1.7,1.2-4,0.9-5.4-0.6
						c-2-2.2-4.4-4-7.1-5.3c-0.3-0.1-0.5-0.3-0.8-0.4c-5.9-2.7-12.5-2.9-18.6-0.5c-1.9,0.7-4.1-0.1-5-1.8l-55.4-100
						c-1-1.8-0.5-4,1-5.2c0.6-0.5,1.2-1,1.8-1.6C393.6,986,395.4,985.7,396.9,986.4z M509.3,1073.4l-107.1-73.5l48.3,87.1
						c7.6-2,15.5-1.2,22.6,2.3c2.5,1.2,4.8,2.8,6.9,4.6L509.3,1073.4z"/>
					<path id="path11539_00000072997376119610427480000014472383707401311674_" class="st2" d="M484,1131c4-8.1,3.8-17.3,0.1-24.9
						l0,0l39.7-27.7l59.1,40.5c-0.5,0.8-1,1.7-1.4,2.6l0,0c-5.2,10.5-6,22.4-2.3,33.5l0,0c3.7,11.1,11.6,20.1,22.1,25.3l0,0
						c10.5,5.2,22.4,6,33.5,2.3l0,0c11.1-3.7,20.1-11.6,25.3-22.1l0,0c8.5-17.1,4.7-37.1-7.9-50.1l0,0L747.7,996
						c0.7,0.4,1.4,0.8,2.2,1.2l0,0c6.8,3.4,14.5,3.9,21.7,1.5l0,0c7.2-2.4,13-7.5,16.4-14.3l0,0c3.4-6.8,3.9-14.5,1.5-21.7l0,0
						c-2.4-7.2-7.5-13-14.3-16.4l0,0c-0.3-0.2-0.6-0.3-1-0.5l0,0c-6.1-2.8-12.9-3.3-19.4-1.4l0,0l-46.4-96.9
						c7.2-4.3,13-10.5,16.8-18.2l0,0c5.2-10.5,6-22.4,2.3-33.5l0,0c-3.7-11.1-11.6-20.1-22.1-25.3l0,0c-0.5-0.2-1-0.5-1.5-0.7l0,0
						c-21.4-9.6-46.8-0.7-57.3,20.5l0,0c-5.2,10.5-6,22.4-2.3,33.5l0,0c0.5,1.5,1.1,2.9,1.7,4.3l0,0l-19.3,12L553.9,773
						c0.6-1,1.2-2,1.8-3.1l0,0c3.4-6.8,3.9-14.5,1.5-21.7l0,0c-2.4-7.2-7.5-13-14.3-16.4l0,0c-0.3-0.2-0.6-0.3-1-0.5l0,0
						c-6.5-3-13.9-3.3-20.7-1l0,0c-7.2,2.4-13,7.5-16.4,14.3l0,0l0,0c-2.3,4.7-3.3,9.9-2.9,15l0,0L415.2,787
						c-4.1-9.7-11.4-17.5-20.9-22.2l0,0c-0.5-0.2-1-0.5-1.5-0.7l0,0c-10.1-4.6-21.4-5.1-32-1.6l0,0c-11.1,3.7-20.1,11.6-25.3,22.1
						l0,0c-5.2,10.5-6,22.4-2.3,33.5l0,0c3.7,11.1,11.6,20.1,22.1,25.3l0,0c18.1,9,39.5,4.2,52.3-10.2l0,0l39,31.9l-57.9,79.5
						c-0.2-0.1-0.5-0.3-0.7-0.4l0,0c-0.3-0.2-0.6-0.3-1-0.5l0,0c-13.8-6.2-30.3-0.4-37.1,13.3l0,0c-7,14-1.2,31.1,12.8,38l0,0
						c7.5,3.7,15.8,3.8,23,0.9l0,0l55.4,99.8c-3.3,2.5-6,5.8-8,9.8l0,0l0,0c-6.9,14-1.2,31.1,12.8,38l0,0c0.3,0.2,0.6,0.3,0.9,0.5
						l0,0C460.8,1150.5,477.3,1144.7,484,1131 M448.5,1091.9L393.1,992c0.7-0.6,1.4-1.2,2.1-1.8l0,0l121.3,83.2l-37,25.8
						c-2.3-2.5-5.1-4.6-8.3-6.2l0,0c-0.3-0.2-0.6-0.3-1-0.4l0,0C463.2,1089.3,455.3,1089.3,448.5,1091.9 M621.2,1097.1
						c-4.8,0-9.7,0.7-14.4,2.3l0,0c-7.5,2.5-14,6.9-19,12.7l0,0l-56.6-38.9l86.4-60.4c1.9,1.8,4.2,3.4,6.7,4.6l0,0
						c1.8,0.9,3.6,1.6,5.5,2.1l0,0L621.2,1097.1z M610.7,981c-3.6,8.5-2.7,17.8,1.6,25.3l0,0l-88.6,61.9l-123.5-84.7
						c0.2-0.4,0.4-0.7,0.6-1.1l0,0c2.9-5.8,3.6-12.2,2.4-18.2l0,0l72.8-26.9c4.3,7.5,10.7,13.5,18.6,17.4l0,0
						c19.1,9.5,41.9,3.7,54.4-12.7l0,0L610.7,981z M629.5,1098l8.5-77.6c2.6-0.1,5.3-0.6,7.9-1.5l0,0c7.2-2.4,13-7.5,16.4-14.3l0,0
						c3.4-6.8,3.9-14.5,1.5-21.7l0,0c-2.4-7.2-7.5-13-14.3-16.4l0,0c-0.3-0.2-0.6-0.3-1-0.5l0,0c-0.1-0.1-0.2-0.1-0.4-0.1l0,0
						l20.7-75.5l70.5,64.9c-0.8,1.2-1.6,2.4-2.2,3.7l0,0c-3.4,6.8-3.9,14.5-1.5,21.7l0,0c1.2,3.7,3.2,7,5.7,9.8l0,0L645.9,1105
						c-1.8-1.2-3.6-2.3-5.6-3.3l0,0c-0.5-0.2-1-0.5-1.5-0.7l0,0C635.8,1099.6,632.7,1098.6,629.5,1098 M477.8,890.8
						c-1.1,1.6-2.1,3.4-3,5.2l0,0c-5.2,10.5-6,22.4-2.3,33.5l0,0c0,0.1,0.1,0.1,0.1,0.2l0,0l-72.2,26.7c-1.3-2.4-2.9-4.6-4.9-6.6
						l0,0l57.7-79.1L477.8,890.8z M661.9,884.1l-21.8,79.7c-4.1-0.5-8.3,0-12.3,1.3l0,0c-5,1.7-9.4,4.7-12.7,8.7l0,0l-61.7-38.9
						c5.2-10.5,6-22.4,2.3-33.5l0,0c-0.7-2-1.5-3.9-2.4-5.7l0,0l72.4-45L661.9,884.1z M500,873.9c-6.5,2.2-12.2,5.8-16.9,10.4l0,0
						l-25-20.5l59.1-81.1c0.1,0.1,0.3,0.1,0.4,0.2l0,0c6.8,3.4,14.5,3.9,21.7,1.5l0,0c3.3-1.1,6.4-2.8,9-5l0,0l71.1,65.5l-70.5,43.8
						c-4-5.2-9.2-9.5-15.3-12.5l0,0c-0.5-0.2-1-0.5-1.5-0.7l0,0C521.9,870.9,510.6,870.3,500,873.9 M510.4,777.9l-58.8,80.7
						l-39-31.9c0.5-0.9,1.1-1.8,1.5-2.8l0,0c4.5-9,5.7-19,3.6-28.7l0,0l86.1-27.2C505.3,771.8,507.6,775.1,510.4,777.9 M747.1,947.9
						c-0.7,0.5-1.4,0.9-2.1,1.5l0,0l-73.8-68l7.7-28.1c6.9,1.1,14,0.5,20.9-1.8l0,0c0.3-0.1,0.6-0.2,0.9-0.3l0,0L747.1,947.9z
						 M664.4,875l-31.3-28.9l17.2-10.6c4.1,5.8,9.6,10.5,16.2,13.7l0,0c1.5,0.7,3,1.4,4.5,1.9l0,0L664.4,875z"/>
				</g>
				<polygon class="st1" points="760.3,250.2 753,270.6 789,284.4 784,256.4 				"/>
				<path class="st1" d="M730,242l17,7.2l-4.3,12.1l-17.8-7.5C724.9,253.8,729,248.4,730,242z"/>
			</g>
		</g>
	</g>
	<g>
		<path class="st2" d="M603.9,813.2c31.2,3,86,10.6,108.5,33.1c9.1,9,11.7,22,5,33.3c-9,14.9-26.9,22.3-42.1,28.2
			c-75.3,26.3-184,27.7-263.1,18.7c-33.2-4.1-124.5-17.5-132.8-55.4c-1.4-6.1,0.1-13.4,3.3-18.6c17.1-27.7,82.7-36.4,113.4-39.3
			c9.2-0.5,10.8,12.3,2.1,14.3c-13.9,2.7-27.9,5.7-41.5,9.5c-16.2,4.7-32.8,9.9-46.7,19.1c-3,2.1-5.3,4-7.1,6.5
			c-0.7,1.1-1.5,2.3-1,3.4c2.3,4.5,8.2,7.9,13.1,10.5c11.7,5.9,25.1,9.7,38,12.8c20.5,4.8,41.3,7.8,62.3,10
			c70.3,6.6,141.9,6,211.6-5.6c13.6-2.5,27.2-5.4,40.2-9.7c8.7-2.9,28.8-10.4,31.2-18.7c0-1-0.9-2.4-1.6-3.3c-1.7-2.1-3.9-4-6.7-5.9
			c-14.1-9.3-30.5-14.4-46.7-19.1c-13.6-3.8-27.5-6.8-41.5-9.5C592.8,825.6,594.8,812.7,603.9,813.2L603.9,813.2z"/>
	</g>
</g>
</svg>
