<?xml version="1.0" encoding="utf-8"?>
<!-- Generator: Adobe Illustrator 27.5.0, SVG Export Plug-In . SVG Version: 6.00 Build 0)  -->
<svg version="1.1" id="Layer_1" xmlns="http://www.w3.org/2000/svg" xmlns:xlink="http://www.w3.org/1999/xlink" x="0px" y="0px"
	 viewBox="0 0 1000 1000" style="enable-background:new 0 0 1000 1000;" xml:space="preserve">
<style type="text/css">
	.st0{fill:#FFFFFF;}
	.st1{fill:#18677A;}
	.st2{fill:#1F89A2;}
	.st3{opacity:0.4;}
	.st4{clip-path:url(#SVGID_00000172400132303221384640000012158451267077515407_);}
</style>
<g>
	<circle class="st0" cx="500" cy="500" r="368"/>
	<g>
		<path class="st1" d="M500,192.6c-116.7,0-211.2,94.6-211.2,211.2c0,57.5,53.3,139.8,102.5,215.9c50.6,78.5,86.6,149.9,108.7,149.9
			c22.1,0,58.1-71.5,108.7-149.9c49.2-76.1,102.5-158.4,102.5-215.9C711.2,287.2,616.7,192.6,500,192.6z M500,479.7
			c-51.6,0-93.5-41.9-93.5-93.5s41.9-93.5,93.5-93.5s93.5,41.9,93.5,93.5S551.6,479.7,500,479.7z"/>
		<g id="layer1" transform="translate(-53.437414,-25)">
			<circle class="st0" cx="553.4" cy="411.2" r="93.5"/>
			<path class="st2" d="M528.8,481.8c-0.1,0-0.4,0-0.5,0c-3.9-0.1-7.6-1.8-10.2-4.7c-2.6-2.9-4-6.6-3.9-10.6c0.1-2.4,0.8-4.9,2-6.9
				l-23.6-19.9c-1.8,1.2-3.8,1.8-6,1.7c-2.6-0.1-5.2-1.3-6.9-3.2c-1.8-2-2.7-4.5-2.6-7.1s1.3-5.2,3.2-6.9s4.3-2.7,6.9-2.6l11.7-42
				c-5.2-2.5-8.5-7.9-8.2-13.8c0.1-3.9,1.8-7.6,4.7-10.2c2.9-2.6,6.6-4,10.6-3.9c3.9,0.1,7.6,1.8,10.2,4.7c2.6,2.9,4,6.6,3.9,10.4
				l19.7,3.5l6.6-11.1c-1.8-1.9-2.9-4.6-2.8-7.3l0,0c0.2-5.5,4.8-9.8,10.3-9.6c2.6,0.1,5.2,1.3,6.9,3.2c1.8,2,2.8,4.5,2.6,7.1
				c-0.1,1.2-0.3,2.3-0.7,3.3l26.4,19.7c1.8-1.5,4.3-2.4,6.7-2.3c5.5,0.2,9.8,4.9,9.6,10.3c-0.2,5.2-4.3,9.3-9.5,9.6l-5.7,27.4
				l12.7,3.4c2.3-5.7,7.9-9.4,14.2-9.2c3.9,0.1,7.6,1.8,10.2,4.7s4,6.6,3.9,10.6c-0.1,3.9-1.8,7.6-4.7,10.2c-2.9,2.6-6.6,4-10.6,3.9
				c-3.2-0.1-6.1-1.3-8.6-3.2L588,458.2c0.6,1.3,0.9,2.8,0.8,4.3c-0.1,2.6-1.3,5.2-3.2,6.9c-1.9,1.8-4.5,2.7-7.1,2.6
				c-2.6-0.1-5.2-1.3-6.9-3.2c-1.8-2-2.7-4.5-2.6-7.1c0-0.1,0-0.1,0-0.1l-27-9l-2.8,4.1c0.1,0.1,0.2,0.2,0.3,0.3
				c2.6,2.9,4,6.6,3.9,10.6C543.3,475.5,536.8,481.8,528.8,481.8z M492.5,436.8c0.3,0,0.6,0.1,0.8,0.3l25.2,21.3
				c0.5,0.4,0.6,1.2,0.2,1.7c-1.3,1.9-2.1,4.2-2.2,6.6c-0.1,3.2,1,6.4,3.2,8.8s5.2,3.8,8.5,3.9c0.1,0,0.3,0,0.4,0
				c6.6,0,11.9-5.2,12.2-11.8c0.1-3.2-1-6.4-3.2-8.8c-0.3-0.3-0.6-0.6-1-0.9c-0.4-0.4-0.6-1.1-0.2-1.6l3.9-5.8
				c0.3-0.4,0.9-0.7,1.5-0.5l28.9,9.6c0.6,0.2,1,0.8,0.8,1.4c-0.1,0.3-0.1,0.7-0.1,1c-0.1,2,0.7,3.9,2,5.4c1.3,1.5,3.2,2.3,5.2,2.4
				c0.1,0,0.2,0,0.3,0c1.9,0,3.7-0.7,5.1-2c1.5-1.3,2.3-3.2,2.4-5.2c0.1-1.4-0.3-2.7-1-3.9c-0.3-0.5-0.1-1.2,0.3-1.5l20.8-18.6
				c0.5-0.4,1.3-0.4,1.7,0c2.1,2,4.9,3.1,7.8,3.2c0.1,0,0.3,0,0.4,0c3.1,0,6-1.2,8.3-3.2c2.4-2.2,3.8-5.2,3.9-8.5s-1-6.4-3.2-8.8
				c-2.2-2.4-5.2-3.8-8.5-3.9c-5.5-0.2-10.5,3.3-12.1,8.6c-0.2,0.7-0.9,1-1.5,0.8l-14.9-4c-0.7-0.1-1-0.8-0.9-1.5l6.2-29.5
				c0.1-0.6,0.7-1,1.3-1h0.2c0.1,0,0.1,0,0.3,0c4,0,7.3-3.2,7.4-7.2c0.1-4.1-3.1-7.6-7.1-7.7c-2.1-0.1-4.1,0.7-5.6,2.3
				c-0.4,0.4-1.2,0.5-1.6,0.1l-28.1-21c-0.5-0.4-0.7-1-0.4-1.6c0.5-1,0.8-2.1,0.9-3.2c0.1-2-0.7-3.9-2-5.4c-1.3-1.5-3.2-2.3-5.2-2.4
				c-0.1,0-0.2,0-0.3,0c-4,0-7.3,3.2-7.4,7.2l0,0c-0.1,2.3,0.9,4.5,2.6,6c0.4,0.4,0.6,1.1,0.3,1.6l-7.7,12.7
				c-0.3,0.4-0.8,0.7-1.3,0.6l-21.6-3.9c-0.7-0.1-1.1-0.7-1-1.4c0-0.3,0.1-0.5,0.1-0.8c0.1-3.2-1-6.4-3.2-8.8
				c-2.2-2.4-5.2-3.8-8.5-3.9c-3.2-0.1-6.4,1-8.8,3.2c-2.4,2.2-3.8,5.2-3.9,8.5c-0.2,5.2,2.9,9.9,7.7,11.8c0.6,0.2,1,0.9,0.7,1.5
				L489.2,423c-0.1,0.6-0.7,1-1.4,0.9c-0.2,0-0.4-0.1-0.7-0.1c-2-0.1-3.9,0.7-5.4,2c-1.5,1.3-2.3,3.2-2.4,5.2s0.7,3.9,2,5.4
				c1.3,1.5,3.2,2.3,5.2,2.4c0.1,0,0.2,0,0.3,0c1.8,0,3.5-0.6,4.8-1.8C492,436.9,492.2,436.8,492.5,436.8z M571.1,459.5
				c-0.1,0-0.3,0-0.4-0.1l-28.1-9.3c-0.4-0.1-0.7-0.4-0.8-0.8c-0.1-0.4-0.1-0.8,0.1-1.1l14.2-21.1c0.4-0.5,1-0.7,1.6-0.4
				c1.6,0.9,3.5,1.3,5.3,1.4c3.2,0.1,6.4-1,8.8-3.2l0,0c1.4-1.3,2.4-2.8,3.1-4.6c0.2-0.6,0.9-1,1.5-0.7l9.6,2.6
				c0.7,0.1,1,0.8,0.9,1.5l-6.3,30.2c-0.1,0.6-0.7,1-1.3,1l-0.1-1.3l-0.1,1.3c-2-0.1-3.9,0.7-5.4,2c-0.7,0.6-1.2,1.3-1.6,2.1
				C572.1,459.2,571.6,459.5,571.1,459.5z M544.9,448.2l25.6,8.5c0.4-0.7,1-1.3,1.6-1.9c1.7-1.6,3.9-2.5,6.2-2.6l5.9-28l-7.4-2
				c-0.8,1.7-1.9,3.2-3.3,4.5l0,0c-2.9,2.6-6.6,4-10.6,3.9c-1.9-0.1-3.7-0.5-5.4-1.3L544.9,448.2z M519.4,458.6
				c-0.3,0-0.6-0.1-0.8-0.3l-25.2-21.2c-0.5-0.4-0.6-1.1-0.2-1.6c0.1-0.2,0.2-0.4,0.4-0.6c0.3-0.5,1-0.8,1.5-0.6l29.2,9.7
				c0.4,0.1,0.7,0.5,0.8,1l1.4,8.8c0.1,0.7-0.3,1.3-0.9,1.4c-1.9,0.5-3.6,1.5-5.1,2.9l-0.2,0.1C520.1,458.5,519.7,458.6,519.4,458.6
				z M498.5,438.1l20.9,17.6c1.3-1.1,2.8-2,4.4-2.5l-1.1-7L498.5,438.1z M585.1,457.1c-0.3,0-0.7-0.1-0.9-0.4
				c-0.7-0.7-1.6-1.3-2.6-1.6c-0.6-0.2-1-0.8-0.8-1.5l6.3-30c0.1-0.4,0.3-0.7,0.6-0.8c0.3-0.1,0.7-0.2,1-0.1l14.9,4
				c0.6,0.1,1,0.7,1,1.3c0,0.3-0.1,0.6-0.1,0.9c-0.1,2.8,0.7,5.4,2.4,7.7c0.4,0.5,0.3,1.3-0.1,1.7l-20.7,18.5
				C585.6,456.9,585.4,457.1,585.1,457.1z M583.4,453.1c0.6,0.3,1.1,0.6,1.6,1l19-17c-1.5-2.5-2.3-5.3-2.2-8.3l-12.7-3.4
				L583.4,453.1z M535.5,456.6c-0.2,0-0.4-0.1-0.7-0.1c-1.7-1-3.7-1.5-5.7-1.6c-0.4,0-0.9,0-1.4,0c-0.7,0-1.3-0.4-1.3-1l-1.2-7.5
				c-0.1-0.4,0.1-0.9,0.4-1.2c0.4-0.3,0.8-0.4,1.2-0.2l12.4,4.1c0.4,0.1,0.7,0.4,0.8,0.8c0.1,0.4,0.1,0.8-0.1,1.1l-3.5,5.2
				C536.3,456.4,536,456.6,535.5,456.6z M528.8,452.3c0.1,0,0.4,0,0.5,0c2,0.1,4,0.6,5.8,1.4l1.9-2.9l-8.9-2.9L528.8,452.3z
				 M540.5,449.3c-0.1,0-0.3,0-0.4-0.1l-14.4-4.8c-0.4-0.1-0.7-0.5-0.8-1l-4-25.1c-0.1-0.6,0.3-1.2,0.9-1.4c1-0.4,2-0.9,2.8-1.6
				c1-1,1.8-2.1,2.1-3.5c0.1-0.6,0.7-1,1.4-0.9l22.2,3.1c0.7,0.1,1.1,0.7,1.1,1.3c-0.1,3.2,1,6.4,3.2,8.8c0.4,0.4,0.8,0.8,1.3,1.2
				c0.5,0.4,0.6,1.1,0.2,1.7l-14.6,21.7C541.3,449,540.9,449.3,540.5,449.3z M527.3,442.3l12.7,4.2l13.5-20
				c-0.2-0.2-0.4-0.4-0.7-0.7c-2.4-2.6-3.8-5.9-3.9-9.4l-20.1-2.8c-0.5,1.3-1.4,2.6-2.4,3.6c-0.8,0.7-1.7,1.4-2.7,1.8L527.3,442.3z
				 M523.4,443.6c-0.1,0-0.3,0-0.4-0.1l-27.9-9.3c-0.6-0.2-1-0.8-0.8-1.4c0.1-0.4,0.1-0.7,0.1-1.1c0.1-2-0.7-3.9-2-5.4
				c-0.7-0.7-1.5-1.3-2.4-1.8c-0.6-0.2-0.9-0.9-0.7-1.5l12.3-44c0.1-0.7,0.8-1,1.5-0.9c0.6,0.1,1.2,0.1,1.8,0.2
				c1,0.1,2.1-0.1,3.2-0.3c0.7-0.1,1.3,0.2,1.5,0.8l7.4,22.8c0.2,0.6-0.1,1.3-0.7,1.5c-0.7,0.3-1.2,0.7-1.7,1.2
				c-1.5,1.3-2.3,3.2-2.4,5.2s0.7,3.9,2,5.4c1.3,1.5,3.2,2.3,5.2,2.4c0.1,0,0.2,0,0.3,0c0.6,0,1.3,0.4,1.3,1l3.8,23.8
				c0.1,0.4-0.1,0.9-0.4,1.2C524,443.5,523.7,443.6,523.4,443.6z M496.9,432.2l25,8.3l-3.2-20.7c-2.4-0.2-4.6-1.3-6.3-3.2
				c-1.8-1.9-2.7-4.5-2.6-7.1c0.1-2.6,1.3-5.2,3.2-6.9c0.4-0.4,0.9-0.7,1.3-1l-6.8-20.8c-0.9,0.1-1.8,0.1-2.6,0.1
				c-0.4,0-0.7,0-1-0.1l-11.7,42c0.8,0.5,1.6,1.1,2.3,1.8c1.8,1.9,2.7,4.5,2.6,7.1C496.9,431.9,496.9,432,496.9,432.2z M586.2,422
				c-0.1,0-0.2,0-0.3-0.1l-9.4-2.5c-0.7-0.1-1-0.8-0.9-1.4c0.1-0.6,0.1-1.1,0.1-1.7c0.1-3.2-1-6.4-3.2-8.8l-0.1-0.1
				c-0.4-0.5-0.4-1.3,0.1-1.8l16.9-16.6c0.4-0.4,1.2-0.5,1.6-0.1c0.6,0.4,1.2,0.8,1.9,1c0.6,0.2,0.9,0.8,0.8,1.4l-6.2,29.4
				c-0.1,0.4-0.3,0.7-0.6,0.8C586.8,421.9,586.5,422,586.2,422z M578.2,417.2l7.1,1.9l5.7-27.2c-0.2-0.1-0.4-0.2-0.6-0.4l-15.2,15
				c2.2,2.8,3.3,6.2,3.2,9.7C578.3,416.7,578.2,417,578.2,417.2z M550.5,414c-0.1,0-0.1,0-0.1,0l-22.2-3.1c-0.6-0.1-1.1-0.6-1.1-1.3
				c-0.1-2.4-1.3-4.5-3.1-5.9c-0.5-0.4-0.7-1.1-0.4-1.7l17-28.5c0.3-0.4,0.8-0.7,1.3-0.6l45.3,8.1c0.7,0.1,1.1,0.7,1,1.3
				c0,0.1,0,0.2,0,0.3c-0.1,1.7,0.4,3.2,1.4,4.6c0.4,0.5,0.3,1.2-0.1,1.6l-17.1,16.8c-0.4,0.4-1.1,0.5-1.6,0.1
				c-2-1.4-4.3-2.2-6.7-2.3c-5.8-0.2-11,3.8-12.4,9.4C551.5,413.6,551,414,550.5,414z M529.4,408.6l20.1,2.8
				c2-6.3,7.9-10.5,14.6-10.3c2.6,0.1,5,0.8,7.2,2.2l15.5-15.3c-0.8-1.4-1.3-2.9-1.3-4.6l-43.4-7.8l-16,26.8
				C527.9,404.1,529.1,406.2,529.4,408.6z M522.3,402.9c-0.1,0-0.3,0-0.4-0.1c-0.7-0.2-1.4-0.4-2.1-0.4c-0.5,0-1,0-1.5,0.1
				c-0.6,0.1-1.2-0.3-1.4-0.9l-7.4-22.8c-0.2-0.6,0.1-1.3,0.7-1.5c1.3-0.5,2.4-1.3,3.4-2.2c1.6-1.5,2.7-3.3,3.4-5.4
				c0.2-0.6,0.8-1,1.4-0.9l20.8,3.8c0.4,0.1,0.7,0.4,1,0.7c0.2,0.4,0.1,0.8-0.1,1.2l-16.6,27.8C523.2,402.7,522.7,402.9,522.3,402.9
				z M519.6,399.9c0.1,0,0.2,0,0.4,0c0.6,0,1.3,0.1,1.8,0.2l15.2-25.4l-17.9-3.2c-0.8,2.1-2.1,3.9-3.7,5.4c-1,0.9-2,1.6-3.1,2.2
				l6.8,20.8C519.1,399.9,519.3,399.9,519.6,399.9z M587.4,381.2c-0.1,0-0.1,0-0.2,0l-44.5-7.9c-0.4-0.1-0.7-0.4-1-0.7
				c-0.1-0.4-0.1-0.8,0.1-1.2l7.1-11.9c0.3-0.5,1-0.7,1.5-0.5c0.8,0.4,1.8,0.6,2.6,0.6c0.1,0,0.2,0,0.3,0c2,0,3.9-0.8,5.3-2.2
				c0.4-0.4,1.2-0.5,1.6-0.1l28.1,21c0.5,0.4,0.7,1,0.4,1.6c-0.1,0.2-0.2,0.4-0.3,0.7C588.4,380.9,587.9,381.2,587.4,381.2z
				 M544.9,371l39.2,7.1l-24.4-18.3c-1.8,1.5-4.2,2.3-6.6,2.2c-0.9,0-1.7-0.1-2.5-0.4L544.9,371z"/>
			<path id="path11539_00000155122727848596696790000007096451914449565117_" class="st2" d="M544.7,351.7c-0.1,2.8,1.1,5.3,3.1,7
				l0,0l-7.6,12.7l-21.6-3.9c0-0.3,0.1-0.6,0.1-0.9l0,0c0.1-3.6-1.2-7-3.6-9.6l0,0c-2.4-2.6-5.8-4.2-9.3-4.3l0,0
				c-3.6-0.1-7,1.2-9.6,3.6l0,0c-2.6,2.4-4.2,5.8-4.3,9.3l0,0c-0.2,5.9,3.4,11,8.5,13l0,0l-12.3,44.1c-0.2,0-0.5-0.1-0.7-0.1l0,0
				c-2.4-0.1-4.6,0.7-6.3,2.4l0,0c-1.7,1.6-2.7,3.8-2.8,6l0,0c-0.1,2.4,0.7,4.6,2.4,6.3l0,0c1.6,1.7,3.8,2.7,6,2.8l0,0
				c0.1,0,0.2,0,0.3,0l0,0c2.1,0,4-0.7,5.6-2.1l0,0l25.2,21.3c-1.5,2.1-2.4,4.6-2.4,7.2l0,0c-0.1,3.6,1.2,7,3.6,9.6l0,0
				c2.4,2.6,5.8,4.2,9.3,4.3l0,0c0.1,0,0.4,0,0.5,0l0,0c7.2,0,13.2-5.7,13.5-13l0,0c0.1-3.6-1.2-7-3.6-9.6l0,0c-0.3-0.4-0.7-0.7-1-1
				l0,0l3.9-5.8l28.9,9.6c-0.1,0.4-0.1,0.7-0.1,1.1l0,0c-0.1,2.4,0.7,4.6,2.4,6.3l0,0c1.6,1.7,3.8,2.7,6,2.8l0,0c0.1,0,0.2,0,0.3,0
				l0,0c2.2,0,4.3-0.8,5.9-2.4l0,0c1.7-1.6,2.7-3.8,2.8-6l0,0l0,0c0.1-1.6-0.3-3.2-1.1-4.6l0,0l20.8-18.6c2.4,2.2,5.4,3.5,8.6,3.5
				l0,0c0.1,0,0.4,0,0.5,0l0,0c3.4,0,6.6-1.3,9.1-3.6l0,0c2.6-2.4,4.2-5.8,4.3-9.3l0,0c0.1-3.6-1.2-7-3.6-9.6l0,0
				c-2.4-2.6-5.8-4.2-9.3-4.3l0,0c-6.2-0.2-11.6,3.8-13.3,9.5l0,0l-14.9-4l6.2-29.5c0.1,0,0.1,0,0.2,0l0,0c0.1,0,0.2,0,0.3,0l0,0
				c4.6,0,8.5-3.7,8.7-8.4l0,0c0.1-4.8-3.6-8.8-8.4-9.1l0,0c-2.6-0.1-4.9,1-6.6,2.6l0,0l-28.1-21c0.6-1.1,1-2.4,1-3.8l0,0l0,0
				c0.1-4.8-3.6-8.8-8.4-9.1l0,0c-0.1,0-0.2,0-0.3,0l0,0C548.8,343.4,544.9,347,544.7,351.7 M559.7,358.1l28.1,21
				c-0.1,0.2-0.2,0.5-0.4,0.8l0,0l-44.5-8L550,360c1,0.4,2,0.7,3.1,0.7l0,0c0.1,0,0.2,0,0.3,0l0,0
				C555.8,360.7,558,359.8,559.7,358.1 M510.6,378.5c1.3-0.6,2.6-1.4,3.8-2.5l0,0c1.8-1.6,3-3.7,3.8-6l0,0l20.8,3.8l-16.6,27.8
				c-0.8-0.3-1.6-0.4-2.4-0.4l0,0c-0.6,0-1.2,0-1.8,0.1l0,0L510.6,378.5z M528.2,409.7c-0.1-2.8-1.5-5.3-3.7-6.8l0,0l17-28.5
				l45.3,8.1c0,0.1,0,0.2,0,0.4l0,0c-0.1,2,0.5,3.9,1.6,5.4l0,0l-17,16.7c-2.1-1.5-4.7-2.4-7.4-2.5l0,0c-6.6-0.2-12.2,4.3-13.6,10.5
				l0,0L528.2,409.7z M508.2,379.3l7.4,22.8c-0.7,0.4-1.4,0.8-2,1.4l0,0c-1.7,1.6-2.7,3.8-2.8,6l0,0c-0.1,2.4,0.7,4.6,2.4,6.3l0,0
				c1.6,1.7,3.8,2.7,6,2.8l0,0c0.1,0,0.2,0,0.3,0l0,0c0.1,0,0.1,0,0.1,0l0,0l3.8,23.8l-27.9-9.3c0.1-0.4,0.1-0.9,0.1-1.3l0,0
				c0.1-2.4-0.7-4.6-2.4-6.3l0,0c-0.8-0.9-1.8-1.5-2.8-2.1l0,0l12.3-44c0.7,0.1,1.3,0.2,2,0.2l0,0c0.1,0,0.4,0,0.5,0l0,0
				C506.2,379.6,507.3,379.5,508.2,379.3 M576.8,418.1c0.1-0.6,0.1-1.3,0.2-1.8l0,0c0.1-3.6-1.2-7-3.6-9.6l0,0c0,0,0,0-0.1-0.1l0,0
				l16.9-16.6c0.7,0.5,1.4,1,2.2,1.3l0,0l-6.2,29.4L576.8,418.1z M526.1,443.2l-4-25.1c1.2-0.4,2.3-1,3.2-1.9l0,0
				c1.2-1.1,2.1-2.5,2.4-4l0,0l22.2,3.1c-0.1,3.6,1.2,7,3.6,9.6l0,0c0.4,0.4,0.9,0.9,1.4,1.3l0,0l-14.6,21.7L526.1,443.2z
				 M572.7,425.7c1.5-1.4,2.7-3.2,3.4-5.1l0,0l9.6,2.6l-6.3,30.2c-0.1,0-0.1,0-0.1,0l0,0c-2.4-0.1-4.6,0.7-6.3,2.4l0,0
				c-0.8,0.7-1.4,1.6-1.9,2.5l0,0l-28.1-9.3l14.2-21.1c1.8,1,3.8,1.5,5.8,1.5l0,0c0.1,0,0.4,0,0.5,0l0,0
				C567,429.3,570.2,428,572.7,425.7 M582,453.8l6.3-30l14.9,4c0,0.3-0.1,0.7-0.1,1l0,0c-0.1,3.1,0.8,6,2.6,8.5l0,0l-20.6,18.5
				C584.1,454.9,583.1,454.3,582,453.8 M494.2,436.2c0.1-0.2,0.3-0.4,0.4-0.7l0,0l29.2,9.7l1.4,8.8c-2.1,0.6-4,1.6-5.6,3.2l0,0
				c-0.1,0.1-0.1,0.1-0.2,0.2l0,0L494.2,436.2z M526.6,446.1l12.4,4.1l-3.5,5.2c-1.9-1.1-4-1.7-6.3-1.8l0,0c-0.5,0-1,0-1.5,0l0,0
				L526.6,446.1z"/>
		</g>
		<g class="st3">
			<g>
				<g>
					<defs>
						<path id="SVGID_1_" d="M500,192.6c-116.7,0-211.2,94.6-211.2,211.2c0,57.5,53.3,139.8,102.5,215.9
							c50.6,78.5,86.6,149.9,108.7,149.9c22.1,0,58.1-71.5,108.7-149.9c49.2-76.1,102.5-158.4,102.5-215.9
							C711.2,287.2,616.7,192.6,500,192.6z M500,479.7c-51.6,0-93.5-41.9-93.5-93.5s41.9-93.5,93.5-93.5s93.5,41.9,93.5,93.5
							S551.6,479.7,500,479.7z"/>
					</defs>
					<clipPath id="SVGID_00000166672980872392593490000017881473472999190684_">
						<use xlink:href="#SVGID_1_"  style="overflow:visible;"/>
					</clipPath>
					<g style="clip-path:url(#SVGID_00000166672980872392593490000017881473472999190684_);">
						<g>
							<path class="st2" d="M562,416.2c-0.3-0.1-0.7-0.1-1-0.1c-7.2-1.3-13.5-5.2-17.7-11.3c-4.2-6-5.8-13.2-4.6-20.4
								c0.8-4.5,2.6-8.7,5.4-12.2l-38.3-42.6c-3.5,1.7-7.4,2.3-11.3,1.6c-4.9-0.9-9.1-3.5-11.9-7.6c-2.9-4-3.9-9-3.1-13.8
								c0.9-4.9,3.5-9.1,7.6-11.9c3.9-2.7,8.7-3.8,13.4-3.2l32.2-74.3c-8.9-6-13.6-16.8-11.7-27.5c1.3-7.2,5.2-13.5,11.3-17.7
								c6-4.2,13.2-5.8,20.4-4.6c7.2,1.3,13.5,5.2,17.7,11.3c4.1,5.9,5.7,13,4.6,20.1l35.3,11.5l15-18.8c-2.9-4-4.1-9.1-3.2-14.1
								l0,0c1.8-10.1,11.3-16.8,21.4-15c4.9,0.9,9.1,3.5,11.9,7.6c2.9,4,3.9,9,3.1,13.8c-0.4,2.1-1.1,4-2.1,5.9l43.6,43
								c3.8-2.4,8.5-3.2,12.9-2.5c10.1,1.8,16.8,11.4,15,21.4c-1.7,9.6-10.4,16.1-19.9,15.2L690.3,319l22.4,9.4
								c5.7-9.9,17-15.3,28.4-13.3c7.2,1.3,13.5,5.2,17.7,11.3c4.2,6,5.8,13.2,4.6,20.4c-1.3,7.2-5.2,13.5-11.3,17.7
								c-6,4.2-13.2,5.8-20.5,4.6c-5.7-1-11-3.8-14.9-7.9l-39.8,26.8c0.7,2.6,0.8,5.4,0.4,8.1c-0.9,4.9-3.5,9.1-7.6,11.9
								c-4,2.8-9,3.9-13.8,3.1c-4.9-0.9-9.1-3.5-11.9-7.6c-2.9-4-3.9-9-3.1-13.8c0-0.1,0-0.2,0.1-0.3l-47.3-23.3l-6.1,6.8
								c0.1,0.2,0.4,0.4,0.5,0.7c4.2,6,5.8,13.2,4.6,20.4C590.1,408.4,576.6,418.2,562,416.2z M506.8,324.3c0.5,0.1,1,0.3,1.4,0.7
								l40.9,45.5c0.8,0.9,0.8,2.3,0,3.2c-2.9,3.2-4.9,7.1-5.7,11.5c-1,6,0.3,12,3.8,16.9c3.5,4.9,8.7,8.2,14.6,9.3
								c0.3,0.1,0.5,0.1,0.8,0.1c12.1,1.7,23.3-6.5,25.4-18.5c1-6-0.3-12-3.8-16.9c-0.4-0.7-1-1.3-1.5-1.9c-0.7-0.9-0.7-2.2,0-3.1
								l8.6-9.6c0.7-0.8,1.8-1,2.8-0.5l50.6,25c1,0.5,1.5,1.7,1.2,2.8c-0.1,0.6-0.3,1.1-0.4,1.7c-0.7,3.6,0.1,7.3,2.3,10.3
								c2.1,3,5.3,5.1,8.9,5.7c0.1,0,0.4,0.1,0.5,0.1c3.5,0.5,6.9-0.4,9.8-2.4c3-2.1,5.1-5.3,5.7-8.9c0.4-2.5,0.2-5.1-0.7-7.4
								c-0.4-1,0-2.2,0.9-2.8l43-28.9c1-0.7,2.4-0.4,3.1,0.4c3.5,4.2,8.2,7,13.6,7.9c0.3,0.1,0.6,0.1,0.8,0.1
								c5.7,0.8,11.4-0.6,16.1-3.9c4.9-3.5,8.2-8.7,9.3-14.6c1-6-0.3-12-3.8-16.9c-3.5-4.9-8.7-8.2-14.6-9.3
								c-10.1-1.8-20.1,3.5-24.4,12.7c-0.5,1.1-1.8,1.6-3,1.2l-26.4-11.2c-1.1-0.5-1.7-1.8-1.3-2.9l18.9-52.8
								c0.4-1.1,1.5-1.8,2.6-1.5l0.4,0.1c0.1,0,0.4,0.1,0.5,0.1c7.4,1,14.2-4,15.5-11.3c1.3-7.5-3.7-14.7-11.3-16
								c-3.8-0.7-7.8,0.3-10.9,2.7c-1,0.7-2.2,0.7-3.1-0.1l-46.3-45.6c-0.8-0.8-1-2.1-0.2-3c1.3-1.7,2.1-3.6,2.4-5.7
								c0.7-3.6-0.1-7.3-2.3-10.3c-2.1-3-5.3-5.1-8.9-5.7c-0.1,0-0.4-0.1-0.5-0.1c-7.4-1-14.2,4-15.5,11.3l0,0
								c-0.7,4.2,0.5,8.5,3.4,11.7c0.7,0.9,0.8,2.1,0.1,3L613,217.9c-0.6,0.7-1.6,1-2.6,0.7L571.6,206c-1.2-0.4-1.8-1.6-1.5-2.8
								c0.1-0.5,0.2-1,0.3-1.5c1-6-0.3-12-3.8-16.9c-3.5-4.9-8.7-8.2-14.6-9.3c-6-1-12,0.3-16.9,3.8c-4.9,3.5-8.2,8.7-9.3,14.6
								c-1.7,9.4,2.9,19,11.2,23.7c1,0.6,1.5,1.8,1,2.9L504,298.3c-0.4,1-1.6,1.6-2.7,1.3c-0.4-0.1-0.8-0.2-1.2-0.3
								c-3.6-0.7-7.3,0.1-10.3,2.3c-3,2.1-5.1,5.3-5.7,8.9c-0.7,3.6,0.1,7.3,2.3,10.3c2.1,3,5.3,5.1,8.9,5.7c0.1,0,0.4,0.1,0.5,0.1
								c3.2,0.4,6.5-0.2,9.3-2C505.7,324.3,506.3,324.2,506.8,324.3z M645.6,385.9c-0.2,0-0.5-0.1-0.7-0.2l-49.4-24.4
								c-0.7-0.3-1.1-1-1.3-1.6c-0.1-0.7,0.1-1.5,0.5-2l31.5-35.3c0.8-0.9,2.1-1,3.1-0.4c2.8,2.1,6,3.4,9.4,4c5.9,1,12-0.3,16.9-3.8
								l0,0c2.9-2,5.2-4.6,6.8-7.7c0.6-1,1.8-1.5,2.9-1l17,7.1c1.1,0.5,1.7,1.8,1.3,2.9l-19.3,53.8c-0.4,1.1-1.5,1.8-2.6,1.5
								l0.2-2.4l-0.4,2.3c-3.6-0.7-7.3,0.1-10.3,2.3c-1.4,1-2.6,2.2-3.5,3.6C647.3,385.7,646.4,386.1,645.6,385.9z M600.3,358.5
								l44.9,22.2c1-1.2,2.2-2.2,3.5-3.2c3.6-2.5,7.8-3.7,12.1-3.3l17.9-50l-13.1-5.5c-1.9,2.9-4.3,5.4-7.2,7.4l0,0
								c-6,4.2-13.2,5.8-20.4,4.6c-3.5-0.6-6.6-1.8-9.6-3.6L600.3,358.5z M550.6,371.3c-0.5-0.1-1-0.3-1.4-0.7l-40.9-45.4
								c-0.8-0.9-0.8-2.2,0-3.1c0.3-0.3,0.5-0.7,0.7-1c0.7-1,1.9-1.3,2.9-0.7l51.2,25.3c0.8,0.4,1.3,1.2,1.3,2.1l0.3,16.6
								c0,1.2-0.9,2.2-2.1,2.4c-3.6,0.4-7.1,1.8-10.1,3.9l-0.4,0.3C551.8,371.2,551.2,371.3,550.6,371.3z M517.4,328.1l33.9,37.7
								c2.7-1.7,5.7-2.9,8.8-3.5l-0.2-13.2L517.4,328.1z M671.6,385c-0.6-0.1-1.1-0.4-1.5-0.9c-1.2-1.5-2.7-2.8-4.4-3.7
								c-1-0.5-1.5-1.8-1.1-2.9l19.1-53.5c0.2-0.6,0.7-1.1,1.3-1.3s1.3-0.3,1.8,0l26.4,11.2c1,0.4,1.6,1.6,1.3,2.7
								c-0.1,0.5-0.2,1-0.4,1.6c-0.9,5.1-0.1,10.2,2.4,14.7c0.6,1,0.2,2.4-0.7,3l-42.7,28.7C672.8,385,672.2,385.1,671.6,385z
								 M669.6,377.4c1,0.7,1.9,1.4,2.7,2.3l39.3-26.4c-2.2-4.9-2.9-10.4-1.9-15.8l-22.4-9.4L669.6,377.4z M580.8,371.6
								c-0.4-0.1-0.8-0.2-1.1-0.4c-2.9-2.3-6.3-3.8-10-4.4c-0.8-0.1-1.6-0.2-2.6-0.3c-1.2-0.1-2.1-1.1-2.2-2.3l-0.3-14.1
								c0-0.8,0.4-1.5,1.1-2c0.7-0.4,1.5-0.5,2.3-0.1l21.8,10.7c0.7,0.3,1.1,1,1.3,1.6c0.1,0.7-0.1,1.5-0.5,2l-7.7,8.6
								C582.3,371.5,581.5,371.8,580.8,371.6z M569.6,362c0.3,0.1,0.6,0.1,0.9,0.1c3.7,0.7,7.2,2.1,10.3,4l4.2-4.7l-15.6-7.7
								L569.6,362z M591.8,359.4c-0.2,0-0.5-0.1-0.7-0.2l-25.2-12.4c-0.8-0.4-1.3-1.2-1.3-2.1l-0.9-47.1c0-1.2,0.8-2.1,1.9-2.4
								c2-0.4,3.9-1.1,5.6-2.3c2.1-1.5,3.8-3.5,4.8-5.8c0.4-1.1,1.6-1.6,2.8-1.3l40,11.3c1.2,0.3,1.8,1.5,1.7,2.6
								c-1,6,0.3,12,3.8,16.9c0.6,0.9,1.3,1.7,2,2.5c0.8,0.9,0.8,2.3,0,3.2l-32.4,36.2C593.3,359.3,592.5,359.5,591.8,359.4z
								 M569.2,343.2l22.3,11l29.8-33.3c-0.4-0.4-0.7-0.9-1-1.4c-3.8-5.4-5.4-11.8-4.9-18.3l-36.2-10.3c-1.3,2.4-3.2,4.3-5.4,6
								c-1.7,1.2-3.5,2.1-5.4,2.6L569.2,343.2z M561.8,344.6c-0.2,0-0.5-0.1-0.7-0.2l-48.9-24.1c-1-0.5-1.5-1.8-1.2-2.9
								c0.2-0.7,0.4-1.4,0.5-2.1c0.7-3.6-0.1-7.3-2.3-10.3c-1.1-1.5-2.4-2.8-4-3.8c-1-0.6-1.4-1.8-0.9-2.9l33.8-77.9
								c0.5-1.1,1.7-1.7,2.9-1.3c1,0.4,2.1,0.7,3.2,0.8c1.9,0.4,3.9,0.4,5.9,0.3c1.2-0.1,2.3,0.7,2.5,1.9l7.8,43.8
								c0.2,1.1-0.4,2.3-1.5,2.6c-1.3,0.4-2.4,1-3.5,1.8c-3,2.1-5.1,5.3-5.7,8.9c-0.7,3.6,0.1,7.3,2.3,10.3s5.3,5.1,8.9,5.7
								c0.1,0,0.4,0.1,0.5,0.1c1.1,0.1,2.2,1.1,2.2,2.3l0.8,44.6c0,0.8-0.4,1.5-1.1,2C562.9,344.6,562.3,344.7,561.8,344.6z
								 M515.9,316.9l43.8,21.6l-0.7-38.9c-4.4-1-8.2-3.6-10.9-7.4c-2.9-4-3.9-9-3.1-13.8c0.9-4.9,3.5-9.1,7.6-11.9
								c0.9-0.6,1.8-1.2,2.8-1.6l-7.1-39.9c-1.7,0-3.3-0.1-4.9-0.4c-0.6-0.1-1.3-0.2-1.8-0.4l-32.2,74.2c1.4,1.1,2.6,2.4,3.7,3.9
								c2.9,4,3.9,9,3.1,13.8C516,316.4,516,316.7,515.9,316.9z M682.9,320.8c-0.2,0-0.4-0.1-0.6-0.1l-16.7-7.1
								c-1.1-0.4-1.7-1.7-1.3-2.9c0.3-1,0.6-2,0.7-3c1-6-0.3-12-3.8-16.9l-0.1-0.1c-0.7-1-0.4-2.4,0.5-3.2l35.2-26.2
								c1-0.7,2.2-0.6,3.1,0.2c1,1,2.1,1.8,3.2,2.4c1,0.5,1.5,1.8,1.1,2.9l-18.8,52.6c-0.2,0.6-0.7,1.1-1.3,1.3
								C683.7,320.8,683.3,320.9,682.9,320.8z M669.3,310.1l12.5,5.3l17.4-48.4c-0.4-0.2-0.7-0.5-1-0.8l-31.9,23.8
								c3.3,5.7,4.5,12.1,3.4,18.6C669.5,309.1,669.4,309.6,669.3,310.1z M619,297.2c-0.1,0-0.2-0.1-0.3-0.1l-40-11.4
								c-1.1-0.3-1.8-1.4-1.7-2.5c0.5-4.3-1.1-8.6-4.3-11.6c-0.9-0.8-1-2.2-0.2-3.2l38.5-48.1c0.6-0.7,1.6-1,2.6-0.7l81.1,26.5
								c1.2,0.4,1.8,1.5,1.5,2.7c-0.1,0.2-0.1,0.4-0.1,0.6c-0.5,3-0.1,6.1,1.4,8.8c0.5,1,0.2,2.3-0.7,2.9l-35.5,26.4
								c-0.9,0.7-2.2,0.6-3-0.2c-3.2-3.1-7.3-5.2-11.7-6c-10.7-1.9-21.2,4.1-25.1,14.2C621.1,296.7,620.1,297.3,619,297.2z
								 M581.8,281.8l36.3,10.3c5.2-11,17.3-17.4,29.4-15.2c4.7,0.8,9.1,2.8,12.7,5.8l32.5-24.1c-1.1-2.7-1.5-5.7-1.2-8.6
								l-77.7-25.3l-36.2,45.2C580.2,273.2,581.8,277.4,581.8,281.8z M570.1,269.5c-0.2,0-0.5-0.1-0.7-0.2c-1.2-0.6-2.4-1-3.8-1.3
								c-1-0.1-1.9-0.2-2.9-0.2c-1.2,0-2.1-0.8-2.4-1.9l-7.8-43.8c-0.2-1.2,0.5-2.4,1.7-2.6c2.4-0.7,4.7-1.8,6.8-3.2
								c3.3-2.3,5.9-5.4,7.6-9.1c0.5-1.1,1.7-1.6,2.9-1.3l37.2,12.1c0.7,0.2,1.3,0.8,1.5,1.5c0.2,0.7,0.1,1.5-0.4,2.1l-37.5,46.9
								C571.8,269.3,571,269.6,570.1,269.5z M565.8,263.3c0.2,0,0.4,0.1,0.7,0.1c1.1,0.2,2.2,0.5,3.3,0.9l34.3-42.9L572,210.9
								c-2,3.6-4.8,6.7-8.2,9.1c-1.9,1.3-4,2.4-6.2,3.2l7.1,39.9C565.1,263.2,565.4,263.3,565.8,263.3z M695.3,246.2
								c-0.1,0-0.3-0.1-0.4-0.1l-79.6-26c-0.7-0.2-1.3-0.8-1.5-1.5c-0.2-0.7-0.1-1.5,0.4-2.1l16-20.1c0.7-0.9,2-1.2,3-0.5
								c1.5,0.9,3,1.5,4.7,1.8c0.1,0,0.4,0.1,0.5,0.1c3.7,0.5,7.3-0.4,10.3-2.7c1-0.7,2.2-0.6,3,0.2l46.4,45.7c0.8,0.8,1,2.1,0.3,3
								c-0.3,0.4-0.5,0.7-0.7,1.2C697.2,245.9,696.3,246.3,695.3,246.2z M619.9,216.7l70.4,23l-40.4-39.8c-3.8,2.3-8.2,3.2-12.7,2.4
								c-1.5-0.3-3.1-0.7-4.5-1.4L619.9,216.7z"/>
							<path id="path11539_00000123421907122064362480000004071348911865231779_" class="st2" d="M624.5,181.2
								c-0.9,5.1,0.7,10.1,3.9,13.6l0,0l-17.2,21.5l-38.8-12.7c0.1-0.5,0.2-1.1,0.4-1.6l0,0c1.2-6.6-0.3-13.2-4.1-18.7l0,0
								c-3.8-5.4-9.6-9.1-16.1-10.3l0,0c-6.6-1.2-13.2,0.3-18.7,4.1l0,0c-5.4,3.8-9.1,9.6-10.3,16.1l0,0c-1.9,10.7,3.4,21,12.4,26.1
								l0,0l-33.8,77.9c-0.4-0.1-0.9-0.2-1.4-0.3l0,0c-4.3-0.7-8.5,0.2-12.1,2.6l0,0c-3.5,2.5-5.9,6.2-6.6,10.5l0,0
								c-0.7,4.3,0.2,8.5,2.6,12.1l0,0c2.5,3.5,6.2,5.9,10.5,6.6l0,0c0.2,0,0.4,0.1,0.6,0.1l0,0c3.8,0.5,7.6-0.3,10.8-2.4l0,0
								l40.9,45.5c-3.2,3.5-5.4,7.9-6.3,12.7l0,0c-1.2,6.6,0.3,13.2,4.1,18.7l0,0c3.8,5.4,9.6,9.1,16.1,10.3l0,0
								c0.3,0.1,0.6,0.1,0.9,0.1l0,0c13.2,1.8,25.7-7.1,28-20.5l0,0c1.2-6.6-0.3-13.2-4.1-18.7l0,0c-0.5-0.7-1-1.4-1.6-2.1l0,0
								l8.6-9.6l50.6,25c-0.2,0.7-0.4,1.3-0.4,2l0,0c-0.7,4.3,0.2,8.5,2.6,12.1l0,0c2.5,3.5,6.2,5.9,10.5,6.6l0,0
								c0.2,0,0.4,0.1,0.6,0.1l0,0c4,0.6,8.1-0.4,11.5-2.8l0,0c3.5-2.5,5.9-6.2,6.6-10.5l0,0l0,0c0.5-2.9,0.2-5.9-0.8-8.6l0,0
								l43-28.9c3.8,4.6,9.1,7.7,15,8.8l0,0c0.3,0.1,0.6,0.1,1,0.1l0,0c6.3,0.9,12.5-0.7,17.7-4.3l0,0c5.4-3.8,9.1-9.6,10.3-16.1
								l0,0c1.2-6.6-0.3-13.2-4.1-18.7l0,0c-3.8-5.4-9.6-9.1-16.1-10.3l0,0c-11.3-2-22.3,4-26.9,14l0,0L687.8,320l18.9-52.8
								c0.1,0,0.3,0.1,0.4,0.1l0,0c0.2,0,0.4,0.1,0.6,0.1l0,0c8.5,1.2,16.6-4.6,18.1-13.2l0,0c1.5-8.8-4.3-17.1-13.1-18.7l0,0
								c-4.7-0.8-9.3,0.4-12.7,3.2l0,0L653.7,193c1.4-1.9,2.4-4.2,2.8-6.6l0,0l0,0c1.5-8.8-4.3-17.1-13.1-18.7l0,0
								c-0.2,0-0.4-0.1-0.6-0.1l0,0C634,166.7,625.9,172.6,624.5,181.2 M650.1,196.8l46.4,45.7c-0.3,0.4-0.6,0.9-0.9,1.3l0,0
								l-79.6-26l16-20.1c1.6,1,3.5,1.7,5.5,2.1l0,0c0.2,0,0.4,0.1,0.6,0.1l0,0C642.6,200.6,646.8,199.3,650.1,196.8 M554.9,221.7
								c2.6-0.7,5.2-2,7.5-3.6l0,0c3.7-2.6,6.6-6,8.4-10l0,0l37.2,12.1l-37.5,46.9c-1.3-0.7-2.8-1.2-4.4-1.5l0,0
								c-1.1-0.2-2.2-0.3-3.3-0.2l0,0L554.9,221.7z M579.3,283.5c0.6-5.2-1.4-10.2-4.9-13.5l0,0l38.5-48.1l81,26.4
								c-0.1,0.2-0.1,0.4-0.1,0.7l0,0c-0.7,3.7,0,7.3,1.6,10.3l0,0l-35.5,26.4c-3.5-3.4-8-5.7-13-6.6l0,0
								c-12-2.1-23.5,4.7-27.7,15.7l0,0L579.3,283.5z M550.2,222.6l7.8,43.8c-1.4,0.5-2.8,1.2-4,2.1l0,0c-3.5,2.5-5.9,6.2-6.6,10.5
								l0,0c-0.7,4.3,0.2,8.5,2.6,12.1l0,0c2.5,3.5,6.2,5.9,10.5,6.6l0,0c0.2,0,0.4,0.1,0.6,0.1l0,0c0.1,0,0.1,0,0.2,0l0,0l0.8,44.6
								l-48.9-24.1c0.3-0.8,0.4-1.5,0.6-2.4l0,0c0.7-4.3-0.2-8.5-2.6-12.1l0,0c-1.3-1.8-2.9-3.3-4.7-4.4l0,0l33.8-77.9
								c1.2,0.4,2.4,0.7,3.6,0.9l0,0c0.3,0.1,0.6,0.1,1,0.1l0,0C546.5,222.7,548.4,222.7,550.2,222.6 M666.5,311.4
								c0.4-1.1,0.7-2.2,0.8-3.3l0,0c1.2-6.6-0.3-13.2-4.1-18.7l0,0c0-0.1-0.1-0.1-0.1-0.1l0,0l35.2-26.2c1.1,1.1,2.4,2.1,3.8,2.8
								l0,0l-18.8,52.6L666.5,311.4z M566.9,344.7l-0.9-47.1c2.3-0.4,4.5-1.3,6.5-2.7l0,0c2.5-1.8,4.4-4.1,5.5-6.8l0,0l40,11.3
								c-1.2,6.6,0.3,13.2,4.1,18.7l0,0c0.7,1,1.4,1.9,2.2,2.7l0,0l-32.4,36.2L566.9,344.7z M657.1,324.2c3.2-2.2,5.7-5.2,7.6-8.5
								l0,0l17,7.1l-19.3,53.8c-0.1,0-0.1,0-0.2-0.1l0,0c-4.3-0.7-8.5,0.2-12.1,2.6l0,0c-1.6,1.2-3,2.6-4.1,4.2l0,0l-49.4-24.4
								l31.5-35.3c3,2.2,6.6,3.7,10.4,4.4l0,0c0.3,0.1,0.6,0.1,1,0.1l0,0C645.6,329.4,651.8,327.9,657.1,324.2 M666.8,378.4
								l19.1-53.5l26.4,11.2c-0.1,0.6-0.3,1.2-0.4,1.8l0,0c-1,5.6-0.1,11.3,2.6,16.3l0,0l-42.7,28.7
								C670.5,380.9,668.8,379.4,666.8,378.4 M510.1,323.5c0.3-0.4,0.6-0.7,0.9-1.1l0,0l51.2,25.3l0.3,16.6c-4,0.5-7.7,2-11.1,4.3
								l0,0c-0.1,0.1-0.3,0.2-0.4,0.3l0,0L510.1,323.5z M567,350.1l21.8,10.7l-7.7,8.6c-3.2-2.5-6.9-4.2-11-4.9l0,0
								c-1-0.1-1.8-0.3-2.8-0.3l0,0L567,350.1z"/>
						</g>
						<g>
							<path class="st2" d="M492.9,223c0.2,0.3,0.4,0.6,0.6,0.9c4,6.5,5.2,14.1,3.4,21.5c-1.8,7.4-6.3,13.6-12.8,17.6
								c-4,2.5-8.6,3.9-13.3,4.1l-6.9,59.2c3.8,1.5,6.9,4.3,9.1,7.8c2.6,4.4,3.5,9.6,2.3,14.6c-1.2,5-4.3,9.2-8.7,11.9
								c-4.4,2.6-9.6,3.5-14.6,2.3c-4.9-1.2-9-4.1-11.7-8.3l-80.2,25.9c1.5,11.1-3.8,22.2-13.4,28c-6.5,4-14.1,5.2-21.5,3.4
								c-7.4-1.8-13.6-6.3-17.6-12.9c-4-6.5-5.2-14.1-3.4-21.5c1.8-7.3,6.2-13.5,12.5-17.4l-15.3-35.5l-25,1.2
								c-1.2,5.1-4.3,9.4-8.8,12.2l0,0c-9.1,5.5-20.9,2.7-26.5-6.4c-2.6-4.4-3.5-9.6-2.3-14.6c1.2-5,4.3-9.2,8.7-11.9
								c1.9-1.2,3.9-2,6-2.4L257,239c-4.5-1.4-8.3-4.3-10.8-8.4c-5.5-9.1-2.6-21,6.4-26.5c8.6-5.3,19.7-3,25.6,5.2l50.2-19.9l-8-24
								c-11.6,2.4-23.7-2.7-30-13.1c-4-6.5-5.2-14.1-3.4-21.5c1.8-7.4,6.3-13.6,12.8-17.6c6.5-4,14.1-5.2,21.5-3.4
								c7.4,1.8,13.7,6.3,17.6,12.9c3.2,5.2,4.6,11.2,4,17.2l48.3,12.7c1.5-2.4,3.6-4.3,6-5.9c4.4-2.6,9.6-3.5,14.6-2.3
								s9.2,4.3,11.9,8.7c2.6,4.4,3.5,9.6,2.3,14.6c-1.2,5-4.3,9.2-8.7,11.9c-0.1,0.1-0.1,0.1-0.3,0.1l14.3,53.1l9.6,0.1
								c0.1-0.3,0.1-0.6,0.2-0.9c1.8-7.4,6.3-13.6,12.9-17.6C467.5,206.4,484.4,210.2,492.9,223z M459.1,329.4
								c-0.3-0.4-0.4-1-0.4-1.6l7.4-63.3c0.1-1.3,1.3-2.2,2.5-2.1c4.5,0.1,9-1,12.9-3.5c5.4-3.3,9.2-8.5,10.7-14.6
								c1.5-6.1,0.5-12.4-2.8-17.8c-0.1-0.2-0.3-0.5-0.4-0.7c-7.1-10.7-21-13.8-31.9-7.1c-5.4,3.3-9.2,8.5-10.7,14.6
								c-0.2,0.8-0.4,1.6-0.4,2.5c-0.1,1.2-1.2,2.1-2.4,2.1l-13.5-0.1c-1.1,0-2.1-0.7-2.4-1.8l-15.3-56.9c-0.3-1.2,0.3-2.4,1.3-2.9
								c0.6-0.2,1.1-0.5,1.6-0.8c3.3-2,5.6-5.2,6.5-8.9c0.9-3.8,0.3-7.6-1.7-10.9c-0.1-0.1-0.2-0.3-0.3-0.4c-2-3-5.1-5.2-8.6-6
								c-3.8-0.9-7.6-0.3-10.9,1.7c-2.3,1.4-4,3.3-5.3,5.7c-0.5,1-1.7,1.5-2.8,1.3l-52.2-13.7c-1.2-0.3-2-1.5-1.8-2.7
								c0.9-5.5-0.2-11.3-3.2-16c-0.1-0.2-0.3-0.5-0.4-0.7c-3.3-5-8.3-8.5-14.1-9.9c-6.1-1.5-12.4-0.5-17.8,2.8
								c-5.4,3.3-9.2,8.5-10.7,14.6c-1.5,6.1-0.5,12.4,2.8,17.8c5.6,9.1,16.6,13.3,26.7,10.4c1.3-0.4,2.6,0.3,3,1.5l9.4,28.3
								c0.4,1.3-0.2,2.6-1.4,3l-54.2,21.5c-1.1,0.4-2.4,0-3-1l-0.2-0.4c-0.1-0.1-0.2-0.3-0.3-0.4c-4.3-6.5-12.9-8.4-19.5-4.3
								c-6.8,4.1-8.9,13-4.8,19.8c2.1,3.5,5.6,5.9,9.6,6.6c1.2,0.2,2.1,1.3,2,2.5l-3.8,67.6c-0.1,1.2-1,2.1-2.2,2.3
								c-2.1,0.2-4.2,0.9-6.1,2.1c-3.3,2-5.6,5.2-6.5,8.9c-0.9,3.8-0.3,7.6,1.7,10.9c0.1,0.1,0.2,0.3,0.3,0.4
								c4.3,6.5,12.9,8.4,19.5,4.3l0,0c3.8-2.4,6.3-6.2,6.8-10.7c0.1-1.2,1.1-2.1,2.3-2.1l28.9-1.4c1-0.1,1.9,0.5,2.4,1.5l16.8,39
								c0.5,1.2,0,2.5-1.1,3.1c-0.4,0.2-1,0.5-1.4,0.8c-5.4,3.3-9.2,8.5-10.7,14.6c-1.5,6.1-0.5,12.4,2.8,17.8
								c3.3,5.4,8.5,9.2,14.6,10.7c6.1,1.5,12.4,0.5,17.8-2.8c8.5-5.2,12.9-15.2,10.8-25c-0.2-1.3,0.4-2.4,1.6-2.8l84.1-27.2
								c1.2-0.4,2.4,0.1,2.9,1.3c0.2,0.4,0.4,0.7,0.6,1.1c2,3.3,5.2,5.6,8.9,6.5c3.8,0.9,7.6,0.3,10.9-1.7c3.3-2,5.6-5.2,6.5-8.9
								c0.9-3.8,0.3-7.6-1.7-10.9c-0.1-0.1-0.2-0.3-0.3-0.4c-1.9-2.9-4.6-4.9-7.9-5.9C459.8,330.2,459.4,329.8,459.1,329.4z
								 M411.8,178.5c0.1,0.2,0.2,0.4,0.3,0.7l14.9,55.3c0.2,0.7,0.1,1.5-0.4,2.1c-0.4,0.6-1.2,1-1.9,1l-49.2-0.4
								c-1.3,0-2.3-1-2.4-2.2c-0.4-3.6-1.5-7-3.4-10.1c-3.2-5.4-8.5-9.2-14.6-10.7l0,0c-3.5-0.9-7.1-0.9-10.7-0.1
								c-1.3,0.3-2.4-0.4-2.9-1.6l-6.1-18.2c-0.4-1.3,0.2-2.6,1.4-3l55.3-21.9c1.1-0.4,2.4-0.1,3,1l-2,1.5l2.1-1.3
								c2,3.2,5.2,5.6,8.9,6.5c1.7,0.4,3.5,0.5,5.2,0.3C410.4,177.3,411.3,177.7,411.8,178.5z M421.5,232.7L408,182.3
								c-1.6,0-3.2-0.1-4.9-0.5c-4.4-1.1-8.2-3.6-10.9-7.2L340.9,195l4.7,14c3.5-0.5,7.1-0.4,10.7,0.5l0,0
								c7.4,1.8,13.7,6.4,17.6,12.8c1.9,3.1,3.2,6.5,3.8,9.9L421.5,232.7z M465.6,262.8c0.3,0.4,0.4,1,0.4,1.6l-7.4,63.2
								c-0.1,1.3-1.2,2.1-2.4,2.1c-0.4,0-0.9,0-1.3,0.1c-1.2,0.1-2.3-0.7-2.6-1.8l-15.5-57.5c-0.2-0.9,0-1.8,0.7-2.4l12.8-11.7
								c0.9-0.8,2.3-0.9,3.2,0c2.9,2.5,6.3,4.3,10,5.2l0.5,0.1C464.7,261.9,465.3,262.3,465.6,262.8z M454.8,318.4l6.1-52.5
								c-3.2-1-6.2-2.5-8.8-4.5l-10.2,9.3L454.8,318.4z M393.1,158.7c0.4,0.5,0.5,1.2,0.4,1.8c-0.4,2-0.3,4,0.1,6
								c0.3,1.2-0.4,2.4-1.5,2.8l-55.1,21.9c-0.6,0.2-1.3,0.2-1.9-0.1c-0.6-0.3-1.1-0.8-1.3-1.4l-9.5-28.3c-0.4-1.1,0.1-2.4,1.2-2.9
								c0.5-0.3,1-0.5,1.5-0.8c4.6-2.8,8-7,9.9-12c0.4-1.2,1.7-1.8,2.9-1.5l51.8,13.6C392.3,157.8,392.8,158.2,393.1,158.7z
								 M388.5,165.6c-0.1-1.3-0.2-2.4-0.1-3.7l-47.7-12.5c-2.4,5.2-6.1,9.4-11,12.4l8,23.9L388.5,165.6z M445.2,238.9
								c0.2,0.4,0.4,0.7,0.4,1.2c0.2,3.8,1.4,7.6,3.4,10.9c0.4,0.7,1,1.5,1.5,2.2c0.7,1,0.7,2.4-0.3,3.3l-10.8,9.9
								c-0.6,0.6-1.5,0.8-2.4,0.5c-0.8-0.2-1.5-0.9-1.7-1.7l-6.6-24.4c-0.2-0.7-0.1-1.5,0.4-2.1c0.4-0.6,1.2-1,1.9-1l12,0.1
								C444,237.8,444.7,238.3,445.2,238.9z M445.4,254.3c-0.1-0.3-0.4-0.5-0.5-0.8c-2.1-3.3-3.4-7.1-3.9-10.8l-6.6-0.1l4.7,17.4
								L445.4,254.3z M428,238.8c0.1,0.2,0.2,0.4,0.3,0.7l7.6,28.2c0.2,0.9,0,1.8-0.7,2.4l-36.2,33.1c-0.9,0.8-2.2,0.9-3.2,0.1
								c-1.6-1.3-3.5-2.3-5.6-2.8c-2.6-0.7-5.3-0.5-7.8,0.3c-1.2,0.4-2.4-0.1-2.9-1.3l-18.5-39.1c-0.5-1.1-0.1-2.5,1-3.1
								c5.4-3.3,9.2-8.5,10.7-14.6c0.3-1,0.4-2.1,0.6-3.3c0.1-1.3,1.2-2.2,2.4-2.2l50.6,0.4C426.8,237.7,427.6,238.1,428,238.8z
								 M430.9,267.6l-6.8-25l-46.6-0.4c-0.1,0.6-0.2,1.2-0.4,1.8c-1.6,6.7-5.5,12.4-11,16.3l16.9,35.3c2.7-0.6,5.6-0.5,8.4,0.1
								c2.1,0.5,4,1.3,5.8,2.5L430.9,267.6z M437.1,272.4c0.1,0.2,0.2,0.4,0.3,0.7l14.8,54.9c0.3,1.2-0.3,2.4-1.4,2.9
								c-0.7,0.3-1.3,0.6-2,1c-3.3,2-5.6,5.2-6.5,8.9c-0.4,1.9-0.5,3.8-0.2,5.7c0.2,1.2-0.5,2.4-1.6,2.7l-84.1,27
								c-1.2,0.4-2.5-0.2-3-1.4c-0.4-1.1-1-2.1-1.6-3.1c-1-1.8-2.4-3.4-3.8-4.8c-0.9-0.9-1-2.3-0.2-3.2l28.9-36.2
								c0.7-1,2.1-1.2,3.1-0.6c1.2,0.7,2.4,1.2,3.8,1.5c3.8,0.9,7.6,0.3,10.9-1.7c3.3-2,5.6-5.2,6.5-8.9s0.3-7.6-1.7-10.9
								c-0.1-0.1-0.2-0.3-0.3-0.5c-0.7-1-0.6-2.5,0.3-3.3l34.3-31.4c0.7-0.6,1.5-0.8,2.4-0.5C436.3,271.5,436.8,271.9,437.1,272.4z
								 M447,327.3l-13.2-49.1l-29.9,27.3c2.2,4.2,2.8,9,1.7,13.5c-1.2,5-4.3,9.2-8.7,11.9c-4.4,2.6-9.6,3.5-14.6,2.3
								c-1.1-0.3-2.1-0.6-3.2-1l-26.3,33c1.2,1.3,2.2,2.6,3.1,4.1c0.4,0.6,0.7,1.1,1,1.7l80.2-25.9c-0.1-1.8,0.1-3.8,0.5-5.6
								c1.2-5,4.3-9.2,8.7-11.9C446.6,327.6,446.8,327.5,447,327.3z M335.2,194.1c0.1,0.1,0.2,0.4,0.3,0.6l6,17.9
								c0.4,1.2-0.1,2.5-1.3,3c-1,0.4-2,1-2.9,1.5c-5.4,3.3-9.2,8.5-10.7,14.6v0.1c-0.3,1.3-1.6,2.1-2.9,1.8l-44.7-9.5
								c-1.2-0.2-2-1.3-1.9-2.6c0.1-1.4,0-2.8-0.3-4.2c-0.3-1.2,0.4-2.4,1.5-2.8l54-21.4c0.6-0.2,1.3-0.2,1.9,0.1
								C334.6,193.5,335,193.8,335.2,194.1z M336.2,212.1l-4.5-13.5l-49.8,19.8c0.1,0.4,0.1,0.9,0.1,1.4l40.5,8.6
								c2.1-6.5,6.4-11.9,12.2-15.5C335.2,212.7,335.7,212.4,336.2,212.1z M360.7,260.3c0.1,0.1,0.1,0.2,0.1,0.3l18.6,39.2
								c0.5,1.1,0.1,2.4-0.8,3c-3.7,2.6-6,6.8-6.2,11.3c-0.1,1.3-1,2.3-2.3,2.4l-64,3c-1,0.1-1.9-0.5-2.4-1.5l-35.1-81.6
								c-0.5-1.2-0.1-2.5,1-3.1c0.1-0.1,0.4-0.2,0.5-0.3c2.7-1.7,4.8-4.1,6-7.1c0.4-1.1,1.6-1.8,2.8-1.5l45,9.6
								c1.2,0.2,2,1.3,1.9,2.5c-0.2,4.6,1,9.2,3.5,13.2c5.9,9.6,17.8,13.8,28.4,9.9C358.8,259,360,259.3,360.7,260.3z M374.2,300
								l-16.9-35.4c-12.2,3.5-25.5-1.5-32.1-12.6c-2.6-4.3-4-9.1-4.1-13.9l-41.2-8.8c-1.4,2.7-3.4,5.1-6,6.8l33.6,78.2l60.3-2.8
								C368.6,307.2,370.8,303,374.2,300z M372.7,317.5c0.1,0.2,0.2,0.4,0.3,0.7c0.4,1.3,0.9,2.6,1.6,3.8c0.5,0.9,1.1,1.6,1.8,2.4
								c0.8,0.9,0.9,2.2,0.1,3.2l-28.9,36.3c-0.8,1-2.1,1.2-3.2,0.5c-2.2-1.4-4.6-2.4-7.2-3.1c-4-1-8.3-0.9-12.3,0.3
								c-1.2,0.4-2.4-0.2-2.9-1.4l-16.1-37.4c-0.3-0.7-0.2-1.5,0.1-2.3c0.4-0.7,1.2-1.1,1.9-1.1l62.5-2.9
								C371.3,316.4,372.2,316.9,372.7,317.5z M370.8,325.2c-0.1-0.2-0.2-0.4-0.4-0.6c-0.6-1-1.1-2.1-1.5-3.2l-57.1,2.6l13.9,32.3
								c4.2-0.9,8.5-0.9,12.7,0.1c2.4,0.6,4.6,1.5,6.8,2.6l26.3-33C371.3,325.8,371.1,325.5,370.8,325.2z M268.3,235.7
								c0.1,0.1,0.1,0.2,0.2,0.4l34.5,80.2c0.3,0.7,0.2,1.5-0.1,2.3c-0.4,0.7-1.2,1.1-1.9,1.1l-26.7,1.3c-1.3,0.1-2.3-0.8-2.5-2
								c-0.3-1.8-1-3.4-1.8-4.9c-0.1-0.1-0.2-0.3-0.3-0.4c-2.1-3.2-5.4-5.4-9.2-6.2c-1.2-0.2-2-1.3-1.9-2.5l3.8-67.7
								c0.1-1.2,1-2.1,2.2-2.3c0.4-0.1,1-0.1,1.4-0.2C266.8,234.5,267.7,234.9,268.3,235.7z M297.2,315l-30.5-70.8l-3.3,59
								c4.4,1.4,8.2,4.3,10.6,8.3c0.9,1.4,1.5,2.9,2,4.5L297.2,315z"/>
							<path id="path11539_00000091736477998486411730000014045503250662563209_" class="st2" d="M266.2,335.9
								c4.6-2.8,7.4-7.5,7.9-12.4l0,0l28.6-1.3l16.8,39.1c-0.5,0.3-1,0.5-1.5,0.9l0,0c-6,3.6-10.1,9.3-11.8,16.1l0,0
								c-1.6,6.8-0.5,13.8,3.1,19.7l0,0c3.6,6,9.3,10.1,16.1,11.8l0,0c6.8,1.6,13.8,0.5,19.7-3.1l0,0c9.6-5.9,14.1-17.1,11.9-27.6
								l0,0l84.1-27.2c0.2,0.4,0.4,0.9,0.7,1.3l0,0c2.4,3.8,6,6.6,10.4,7.6l0,0c4.3,1,8.9,0.4,12.7-2l0,0c3.8-2.4,6.6-6,7.6-10.4
								l0,0c1-4.3,0.4-8.9-2-12.7l0,0c-0.1-0.1-0.2-0.4-0.4-0.5l0,0c-2.2-3.3-5.4-5.7-9.3-6.8l0,0l7.4-63.3
								c4.9,0.1,9.9-1.2,14.2-3.8l0,0c6-3.6,10.1-9.3,11.8-16.1l0,0c1.6-6.8,0.5-13.8-3.1-19.7l0,0c-0.1-0.3-0.4-0.5-0.5-0.8l0,0
								c-7.7-11.6-23.3-15.2-35.3-7.9l0,0c-6,3.6-10.1,9.3-11.8,16.1l0,0c-0.2,0.9-0.4,1.8-0.5,2.7l0,0l-13.5-0.1l-15.3-56.7
								c0.7-0.3,1.3-0.6,1.8-1l0,0c3.8-2.4,6.6-6,7.6-10.4l0,0c1-4.3,0.4-8.9-2-12.7l0,0c-0.1-0.1-0.2-0.4-0.4-0.5l0,0
								c-2.4-3.5-5.9-6-10.1-7.1l0,0c-4.3-1-8.9-0.4-12.7,2l0,0l0,0c-2.6,1.6-4.8,3.9-6.2,6.6l0,0l-52.2-13.7
								c1-6.1-0.2-12.4-3.5-17.7l0,0c-0.1-0.3-0.4-0.6-0.5-0.8l0,0c-3.6-5.5-9.1-9.3-15.6-10.9l0,0c-6.8-1.6-13.8-0.5-19.7,3.1l0,0
								c-6,3.6-10.1,9.3-11.8,16.1l0,0c-1.6,6.8-0.5,13.8,3.1,19.7l0,0c6.3,10.2,18.5,14.6,29.5,11.4l0,0l9.4,28.3L277,212.6
								c-0.1-0.1-0.1-0.3-0.2-0.4l0,0c-0.1-0.1-0.2-0.4-0.4-0.5l0,0c-4.9-7.5-15.1-9.8-22.8-5.1l0,0c-7.9,4.9-10.5,15.2-5.6,23.1
								l0,0c2.6,4.2,6.7,6.9,11.3,7.7l0,0l-3.8,67.6c-2.4,0.2-4.9,1-7.1,2.4l0,0l0,0c-7.9,4.9-10.5,15.2-5.6,23.1l0,0
								c0.1,0.1,0.2,0.4,0.4,0.5l0,0C248.4,338.3,258.4,340.6,266.2,335.9 M260.8,305l3.8-67.7c0.5-0.1,1.1-0.1,1.6-0.3l0,0
								l34.5,80.2l-26.7,1.3c-0.4-2-1.1-3.9-2.2-5.7l0,0c-0.1-0.1-0.2-0.4-0.4-0.5l0,0C269,308.3,265,305.8,260.8,305 M345.7,362.3
								c-2.4-1.5-5.1-2.7-7.9-3.4l0,0c-4.6-1.1-9.2-1-13.5,0.4l0,0l-16.1-37.4l62.5-2.9c0.4,1.5,1,3,1.9,4.4l0,0
								c0.6,1,1.3,1.9,2.1,2.8l0,0L345.7,362.3z M377.2,300.8c-4.5,3.1-7,8.1-7.2,13.2l0,0l-64,3l-35.1-81.6
								c0.2-0.1,0.4-0.2,0.7-0.4l0,0c3.3-2,5.7-5,6.9-8.4l0,0l45,9.6c-0.2,5.1,1.1,10.2,3.8,14.6l0,0c6.6,10.8,19.9,15.1,31.3,10.8
								l0,0L377.2,300.8z M349.6,365.4l28.9-36.2c1.4,0.8,2.9,1.4,4.4,1.8l0,0c4.3,1,8.9,0.4,12.7-2l0,0c3.8-2.4,6.6-6,7.6-10.4l0,0
								c1-4.3,0.4-8.9-2-12.7l0,0c-0.1-0.1-0.2-0.4-0.4-0.5l0,0c-0.1-0.1-0.1-0.1-0.1-0.2l0,0l34.3-31.4l14.8,54.9
								c-0.8,0.3-1.5,0.7-2.3,1.2l0,0c-3.8,2.4-6.6,6-7.6,10.4l0,0c-0.5,2.2-0.6,4.5-0.2,6.7l0,0l-84.1,27.2
								c-0.5-1.2-1.1-2.3-1.8-3.4l0,0c-0.1-0.3-0.4-0.6-0.5-0.8l0,0C352.3,368.2,351,366.7,349.6,365.4 M339.2,213.4
								c-1.1,0.4-2.1,1-3.2,1.6l0,0c-6,3.6-10.1,9.3-11.8,16.1l0,0c0,0.1,0,0.1,0,0.1l0,0l-44.7-9.5c0.1-1.6,0-3.2-0.4-4.9l0,0
								l54-21.4L339.2,213.4z M433.6,268.3l-36.2,33.1c-1.9-1.5-4.1-2.6-6.6-3.2l0,0c-3.1-0.7-6.2-0.6-9.1,0.4l0,0l-18.6-39.1
								c6-3.6,10.1-9.3,11.8-16.1l0,0c0.3-1.2,0.5-2.4,0.6-3.6l0,0l50.6,0.4L433.6,268.3z M355.7,211.9c-4-1-7.9-1-11.8-0.1l0,0
								l-6.1-18.2l55.3-21.9c0.1,0.1,0.1,0.1,0.1,0.2l0,0c2.4,3.8,6,6.6,10.4,7.6l0,0c2.1,0.5,4.1,0.6,6.1,0.4l0,0l14.9,55.3
								l-49.2-0.4c-0.4-3.9-1.6-7.7-3.7-11.1l0,0c-0.1-0.3-0.4-0.6-0.5-0.8l0,0C367.6,217.4,362.1,213.5,355.7,211.9 M391.3,167
								l-55.1,21.9l-9.5-28.3c0.6-0.3,1.1-0.6,1.6-0.9l0,0c5.1-3.1,8.8-7.7,10.9-13.2l0,0l51.8,13.6
								C390.6,162.4,390.7,164.8,391.3,167 M456.2,327.3c-0.5,0-1,0-1.5,0.1l0,0l-15.5-57.5l12.8-11.7c3.1,2.7,6.8,4.7,11,5.7l0,0
								c0.1,0.1,0.4,0.1,0.5,0.1l0,0L456.2,327.3z M437.7,264.6l-6.6-24.4l12,0.1c0.2,4.2,1.5,8.3,3.8,12l0,0
								c0.5,0.8,1.1,1.6,1.7,2.4l0,0L437.7,264.6z"/>
						</g>
						<g>
							<path class="st2" d="M322.8,668.2c-0.3-0.1-0.7-0.2-1-0.3c-6.8-2.4-12.4-7.2-15.6-13.8c-3.2-6.6-3.6-13.9-1.3-20.8
								c1.5-4.3,4-8.1,7.3-11.1l-31-47.8c-3.7,1.1-7.7,1.1-11.4-0.2c-4.6-1.6-8.4-4.9-10.5-9.3c-2.1-4.4-2.4-9.4-0.9-14.1
								c1.6-4.6,4.9-8.4,9.3-10.5c4.3-2.1,9.1-2.4,13.7-1l43.1-67.9c-7.8-7.3-10.7-18.5-7.2-28.8c2.4-6.8,7.2-12.4,13.8-15.6
								c6.6-3.2,13.8-3.6,20.8-1.3c6.8,2.4,12.4,7.2,15.6,13.8c3.2,6.4,3.6,13.7,1.4,20.5l32.8,16.8l17.7-16.1
								c-2.3-4.4-2.6-9.6-1-14.3l0,0c3.3-9.6,13.7-14.7,23.3-11.4c4.6,1.6,8.4,4.9,10.5,9.3c2.1,4.4,2.5,9.4,0.9,14.1
								c-0.7,2-1.7,3.8-3,5.4l36.1,48.9c4.1-1.7,8.8-1.8,13-0.4c9.6,3.3,14.7,13.8,11.4,23.3c-3.2,9.1-12.7,14.2-21.9,11.8
								l-24.7,45.3l20.5,12.7c7.1-8.8,19.1-12.4,30-8.7c6.8,2.4,12.4,7.2,15.6,13.8c3.2,6.6,3.6,13.9,1.3,20.8s-7.2,12.4-13.8,15.6
								c-6.5,3.2-13.9,3.7-20.8,1.3c-5.4-1.9-10.2-5.4-13.5-10.2l-43.2,20.1c0.3,2.6,0,5.4-0.9,8c-1.6,4.6-4.9,8.4-9.3,10.5
								c-4.4,2.1-9.4,2.4-14.1,0.9c-4.6-1.6-8.4-4.9-10.5-9.3c-2.1-4.4-2.4-9.4-0.9-14.1c0-0.1,0.1-0.2,0.1-0.3l-42.8-30.2l-7.1,5.8
								c0.1,0.2,0.3,0.5,0.4,0.7c3.2,6.6,3.6,13.9,1.3,20.8C351.6,665,336.9,672.5,322.8,668.2z M283,569.6c0.5,0.1,1,0.5,1.3,1
								l33.1,51c0.7,1,0.4,2.4-0.5,3.1c-3.4,2.6-6,6.3-7.4,10.4c-2,5.7-1.5,11.8,1,17.2c2.6,5.4,7.2,9.5,12.9,11.4
								c0.3,0.1,0.5,0.1,0.8,0.2c11.6,3.5,23.8-2.7,27.8-14.2c2-5.7,1.5-11.8-1-17.2c-0.4-0.7-0.7-1.4-1.2-2.1c-0.6-1-0.4-2.3,0.5-3
								l10-8.2c0.8-0.7,2-0.7,2.8-0.1l45.8,32.4c1,0.7,1.3,1.9,0.7,2.9c-0.3,0.5-0.5,1-0.7,1.6c-1.2,3.5-1,7.2,0.7,10.5
								c1.6,3.3,4.4,5.7,7.9,7c0.1,0.1,0.3,0.1,0.5,0.1c3.3,1,6.8,0.7,10-0.8c3.3-1.6,5.7-4.4,7-7.9c0.8-2.4,1-4.9,0.4-7.4
								c-0.2-1,0.3-2.1,1.3-2.6l46.7-21.7c1.1-0.5,2.4-0.1,2.9,1c2.7,4.6,7,8.2,12.1,9.9c0.3,0.1,0.5,0.1,0.8,0.3
								c5.4,1.6,11.3,1.2,16.4-1.3c5.4-2.6,9.4-7.2,11.4-12.9c2-5.7,1.5-11.8-1-17.2c-2.6-5.4-7.2-9.5-12.9-11.4
								c-9.6-3.3-20.2,0.3-26,8.7c-0.7,1-2.1,1.3-3.2,0.7l-24.2-15c-1-0.7-1.4-2-0.8-3.1l26.7-48.8c0.6-1,1.8-1.5,2.9-1l0.4,0.1
								c0.1,0.1,0.3,0.1,0.5,0.1c7.1,2.1,14.6-1.7,17-8.7c2.4-7.1-1.4-15-8.5-17.4c-3.7-1.3-7.7-0.9-11.1,1c-1,0.6-2.3,0.3-3-0.7
								l-38.3-52c-0.7-1-0.6-2.2,0.2-3c1.5-1.5,2.6-3.2,3.2-5.2c1.2-3.5,1-7.2-0.7-10.5c-1.6-3.3-4.4-5.8-7.9-7
								c-0.1-0.1-0.3-0.1-0.5-0.1c-7.1-2.1-14.6,1.7-17,8.7l0,0c-1.4,4-0.8,8.4,1.5,12c0.6,1,0.4,2.2-0.4,2.9l-20.2,18.5
								c-0.7,0.7-1.8,0.8-2.6,0.4l-36.1-18.5c-1.1-0.5-1.5-1.8-1.1-2.9c0.2-0.4,0.4-1,0.5-1.4c2-5.7,1.5-11.8-1-17.2
								c-2.6-5.4-7.2-9.4-12.9-11.4s-11.8-1.5-17.2,1c-5.4,2.6-9.5,7.2-11.4,12.9c-3.1,9-0.1,19.1,7.3,25c1,0.7,1.2,2.1,0.5,3.1
								l-45.3,71.2c-0.6,1-1.8,1.3-2.9,0.9c-0.4-0.1-0.7-0.3-1.1-0.4c-3.5-1.2-7.2-1-10.5,0.7c-3.3,1.6-5.7,4.4-7,7.9
								c-1.3,3.5-1,7.2,0.7,10.5s4.4,5.7,7.9,7c0.1,0.1,0.4,0.1,0.5,0.1c3.2,1,6.4,0.7,9.4-0.5C281.8,569.4,282.4,569.4,283,569.6z
								 M409.5,651.6c-0.2-0.1-0.4-0.1-0.7-0.3l-44.7-31.6c-0.6-0.4-1-1.1-1-1.8s0.3-1.4,0.9-1.8l36.4-29.7c1-0.7,2.3-0.7,3.1,0.1
								c2.4,2.4,5.3,4.2,8.6,5.4c5.7,2,11.8,1.5,17.2-1l0,0c3.2-1.5,5.8-3.7,7.9-6.4c0.7-1,2.1-1.2,3.1-0.5l15.5,9.6
								c1,0.7,1.4,2,0.8,3.1l-27.3,49.8c-0.5,1-1.7,1.5-2.8,1l0.6-2.3l-0.7,2.2c-3.5-1.2-7.2-1-10.5,0.7c-1.5,0.7-2.9,1.8-4,2.9
								C411.3,651.6,410.4,651.8,409.5,651.6z M369.4,617.7l40.6,28.7c1.2-1,2.5-1.8,3.9-2.6c3.9-1.9,8.2-2.4,12.4-1.3l25.3-46.3
								l-11.9-7.4c-2.3,2.6-5.1,4.6-8.2,6.2l0,0c-6.5,3.2-13.9,3.6-20.8,1.3c-3.3-1.1-6.3-2.8-8.8-5L369.4,617.7z M318.7,622.4
								c-0.5-0.1-1-0.5-1.3-1l-33.1-50.9c-0.7-1-0.4-2.3,0.4-3c0.3-0.3,0.6-0.5,0.9-0.8c0.8-0.8,2.1-0.9,3-0.3l46.4,32.8
								c0.7,0.5,1.1,1.3,1,2.2l-2.3,16.3c-0.1,1.2-1.2,2.1-2.4,2c-3.6-0.1-7.2,0.7-10.5,2.3l-0.4,0.2
								C319.9,622.5,319.2,622.6,318.7,622.4z M292.7,575l27.5,42.2c2.9-1.3,6-1.9,9.2-2.1l1.8-13L292.7,575z M435.3,654.8
								c-0.6-0.1-1-0.5-1.3-1.1c-1-1.7-2.2-3.2-3.8-4.3c-1-0.7-1.2-2-0.7-2.9l27.2-49.6c0.3-0.6,0.8-1,1.5-1.1
								c0.6-0.1,1.3-0.1,1.8,0.3l24.2,15.1c1,0.6,1.3,1.8,0.9,2.9c-0.2,0.5-0.4,1-0.6,1.5c-1.7,4.9-1.6,10,0.1,14.8
								c0.4,1.1-0.1,2.4-1.2,2.9l-46.4,21.6C436.4,654.9,435.8,654.9,435.3,654.8z M434.6,646.9c0.9,0.8,1.6,1.7,2.4,2.6l42.7-19.8
								c-1.4-5.2-1.3-10.7,0.5-15.8l-20.5-12.7L434.6,646.9z M348.2,627.5c-0.4-0.1-0.7-0.3-1-0.7c-2.5-2.6-5.7-4.7-9.1-5.9
								c-0.7-0.3-1.6-0.5-2.4-0.7c-1.2-0.3-2-1.4-1.8-2.6l1.9-13.9c0.1-0.8,0.7-1.5,1.4-1.8c0.7-0.3,1.6-0.2,2.3,0.2l19.7,13.9
								c0.6,0.4,1,1.1,1,1.8c0,0.7-0.3,1.4-0.9,1.8l-8.8,7.2C349.7,627.6,349,627.8,348.2,627.5z M338.7,616.3
								c0.3,0.1,0.6,0.1,0.9,0.3c3.5,1.2,6.8,3.1,9.5,5.6l4.9-4l-14.1-9.9L338.7,616.3z M360.9,617.2c-0.2-0.1-0.4-0.1-0.7-0.3
								l-22.7-16.1c-0.7-0.5-1.1-1.3-1-2.2l6.5-46.4c0.1-1.1,1.1-2,2.3-2c2,0,4-0.5,5.8-1.4c2.3-1.1,4.2-2.9,5.6-5
								c0.6-1,1.9-1.3,2.9-0.9l37.3,17.4c1.1,0.5,1.6,1.8,1.3,2.9c-2,5.7-1.5,11.8,1,17.2c0.4,1,1,1.8,1.6,2.7
								c0.7,1,0.4,2.4-0.4,3.1L363,616.8C362.4,617.2,361.6,617.4,360.9,617.2z M341.2,597.8l20.2,14.3l34.4-28.1
								c-0.3-0.5-0.5-1-0.8-1.5c-2.9-5.9-3.5-12.4-1.9-18.8L359.2,548c-1.7,2.1-3.8,3.8-6.3,5c-1.8,0.9-3.8,1.5-5.7,1.7L341.2,597.8
								z M333.7,598c-0.2-0.1-0.4-0.1-0.7-0.3l-44.3-31.4c-1-0.7-1.3-1.9-0.7-2.9c0.3-0.6,0.6-1.3,0.8-1.9c1.2-3.5,1-7.2-0.7-10.5
								c-0.8-1.7-1.9-3.2-3.3-4.3c-0.9-0.7-1-2.1-0.4-3l45.3-71.2c0.7-1,2-1.4,3-0.8c1,0.5,2,1,3,1.3c1.8,0.7,3.8,1,5.7,1.2
								c1.2,0.1,2.1,1.1,2.1,2.3l0.9,44.2c0,1.2-0.8,2.1-1.9,2.4c-1.3,0.2-2.5,0.7-3.7,1.2c-3.3,1.6-5.7,4.4-7,7.9
								c-1.2,3.5-1,7.2,0.7,10.5c1.6,3.3,4.4,5.7,7.9,7c0.1,0.1,0.4,0.1,0.5,0.1c1.1,0.4,2,1.5,1.8,2.6l-6.1,43.9
								c-0.1,0.8-0.7,1.5-1.4,1.8C334.8,598.2,334.3,598.2,333.7,598z M293,563.7l39.6,28l5.3-38.3c-4.2-1.7-7.5-4.9-9.5-8.9
								c-2.1-4.4-2.4-9.4-0.9-14.1c1.6-4.6,4.9-8.4,9.3-10.5c1-0.4,2-0.9,2.9-1.2l-0.8-40.3c-1.6-0.2-3.2-0.7-4.8-1.2
								c-0.6-0.2-1.2-0.4-1.8-0.7l-43.1,67.9c1.2,1.3,2.2,2.8,3,4.4c2.1,4.4,2.4,9.4,0.9,14.1C293.3,563.2,293.1,563.4,293,563.7z
								 M456.3,593.5c-0.2-0.1-0.4-0.1-0.5-0.2l-15.3-9.5c-1-0.7-1.4-1.9-0.8-3c0.4-1,0.9-1.9,1.2-2.9c2-5.7,1.5-11.8-1-17.2
								l-0.1-0.1c-0.5-1.1-0.1-2.5,1-3l38.6-20.2c1-0.5,2.3-0.2,2.9,0.7c0.8,1.1,1.7,2.1,2.8,2.9c0.9,0.7,1.2,1.9,0.6,2.9L459,592.4
								c-0.3,0.6-0.8,1-1.5,1.1C457.2,593.6,456.7,593.6,456.3,593.5z M444.7,580.8l11.5,7.1l24.5-44.8c-0.3-0.3-0.6-0.6-0.9-1
								l-35,18.3c2.4,6,2.6,12.7,0.4,18.8C445,579.9,444.8,580.4,444.7,580.8z M397.3,560.4c-0.1,0-0.2-0.1-0.3-0.1l-37.5-17.4
								c-1-0.4-1.5-1.6-1.3-2.7c1.2-4.1,0.3-8.6-2.4-12.1c-0.7-1-0.6-2.3,0.3-3.1l45.2-41.2c0.7-0.7,1.8-0.8,2.6-0.4l75.5,38.6
								c1,0.5,1.5,1.8,1.1,2.9c-0.1,0.2-0.1,0.4-0.2,0.6c-1,2.9-1,6,0,8.8c0.4,1.1-0.1,2.3-1.1,2.8l-38.9,20.4
								c-1,0.5-2.2,0.2-2.9-0.7c-2.6-3.5-6.3-6.2-10.6-7.7c-10.2-3.5-21.5,0.7-26.9,10.1C399.5,560.2,398.4,560.6,397.3,560.4z
								 M363.1,539.4l34,15.8c6.8-10,19.7-14.4,31.2-10.3c4.5,1.5,8.5,4.2,11.6,7.7l35.5-18.7c-0.7-2.9-0.6-5.8,0.1-8.7l-72.3-36.9
								L360.7,527C363,530.8,363.8,535.2,363.1,539.4z M353.6,525.6c-0.2-0.1-0.4-0.1-0.7-0.3c-1.1-0.7-2.3-1.4-3.5-1.8
								c-0.9-0.3-1.8-0.5-2.8-0.7c-1.2-0.1-2-1.1-2.1-2.3l-0.9-44.2c0-1.2,0.9-2.2,2.1-2.4c2.5-0.3,4.9-1,7.2-2.1
								c3.6-1.8,6.6-4.4,8.8-7.7c0.7-1,1.9-1.3,3-0.8l34.6,17.7c0.7,0.4,1.2,1,1.3,1.8c0.1,0.7-0.1,1.5-0.7,2L355.9,525
								C355.2,525.6,354.3,525.8,353.6,525.6z M350.3,518.8c0.2,0.1,0.4,0.1,0.7,0.2c1,0.4,2.1,0.8,3.1,1.4l40.3-36.7l-29.9-15.2
								c-2.5,3.2-5.7,5.8-9.4,7.7c-2.1,1-4.3,1.8-6.6,2.2l0.8,40.3C349.6,518.7,350,518.8,350.3,518.8z M480.1,522.2
								c-0.1-0.1-0.3-0.1-0.4-0.1l-74.1-37.8c-0.7-0.4-1.2-1-1.3-1.8s0.1-1.5,0.7-2l18.8-17.2c0.9-0.8,2.1-0.8,3-0.1
								c1.3,1.1,2.7,1.9,4.3,2.4c0.1,0.1,0.3,0.1,0.5,0.1c3.5,1,7.2,0.7,10.5-1c1-0.5,2.3-0.3,2.9,0.7l38.4,52
								c0.7,0.9,0.6,2.2-0.2,3c-0.3,0.3-0.6,0.7-0.9,1C482,522.2,481,522.4,480.1,522.2z M410.6,481.5l65.5,33.4l-33.5-45.4
								c-4.1,1.7-8.6,1.8-12.9,0.4c-1.5-0.5-2.9-1.2-4.2-2.1L410.6,481.5z"/>
							<path id="path11539_00000077296075984505431500000018394953229331877563_" class="st2" d="M420.7,447.3
								c-1.7,4.9-0.9,10,1.8,14l0,0l-20.3,18.5L366,461.3c0.2-0.5,0.4-1,0.6-1.5l0,0c2.1-6.3,1.8-13-1.2-19l0,0
								c-2.9-6-7.9-10.5-14.3-12.6l0,0c-6.3-2.1-13-1.8-19,1.2l0,0c-6,2.9-10.5,7.9-12.6,14.3l0,0c-3.5,10.2,0.1,21.2,8.1,27.5l0,0
								l-45.3,71.2c-0.4-0.2-0.9-0.4-1.3-0.5l0,0c-4-1.4-8.4-1.1-12.3,0.7l0,0c-3.8,1.9-6.8,5.2-8.2,9.2l0,0
								c-1.4,4-1.1,8.4,0.7,12.3l0,0c1.9,3.8,5.2,6.8,9.2,8.2l0,0c0.2,0.1,0.4,0.1,0.6,0.2l0,0c3.6,1.1,7.5,0.9,11-0.6l0,0l33.1,51
								c-3.8,2.9-6.6,6.8-8.1,11.4l0,0c-2.1,6.3-1.8,13,1.2,19l0,0c2.9,6,7.9,10.5,14.3,12.6l0,0c0.3,0.1,0.6,0.2,0.9,0.3l0,0
								c12.7,3.8,26.3-3,30.7-15.7l0,0c2.1-6.3,1.8-13-1.2-19l0,0c-0.4-0.8-0.8-1.5-1.3-2.3l0,0l10-8.2l45.8,32.4
								c-0.3,0.6-0.5,1.2-0.7,1.8l0,0c-1.4,4-1.1,8.4,0.7,12.3l0,0c1.9,3.8,5.2,6.8,9.2,8.2l0,0c0.2,0.1,0.4,0.1,0.6,0.2l0,0
								c3.9,1.2,8,0.9,11.7-1l0,0c3.8-1.9,6.8-5.2,8.2-9.2l0,0l0,0c1-2.8,1.1-5.7,0.5-8.6l0,0l46.7-21.7c3,5.2,7.7,9,13.3,10.9l0,0
								c0.3,0.1,0.6,0.2,0.9,0.3l0,0c6,1.8,12.4,1.3,18.1-1.5l0,0c6-2.9,10.5-7.9,12.6-14.3l0,0c2.1-6.3,1.8-13-1.2-19l0,0
								c-2.9-6-7.9-10.5-14.3-12.6l0,0c-10.8-3.8-22.5,0.5-28.6,9.6l0,0L461,593.8l26.7-48.8c0.1,0.1,0.3,0.1,0.4,0.1l0,0
								c0.2,0.1,0.4,0.1,0.6,0.1l0,0c8.2,2.5,17-2,19.9-10.2l0,0c2.9-8.4-1.6-17.5-9.9-20.4l0,0c-4.5-1.5-9.1-1-13,1.2l0,0l-38.3-52
								c1.6-1.7,2.9-3.7,3.8-6.1l0,0l0,0c2.9-8.4-1.6-17.5-9.9-20.4l0,0c-0.2-0.1-0.4-0.1-0.6-0.1l0,0
								C432.3,434.6,423.5,439.1,420.7,447.3 M443.5,466.7l38.4,52c-0.4,0.4-0.7,0.8-1,1.2l0,0L406.7,482l18.8-17.2
								c1.5,1.3,3.2,2.2,5.1,2.9l0,0c0.2,0.1,0.4,0.1,0.6,0.1l0,0C435.4,469.2,439.8,468.6,443.5,466.7 M346.1,476.4
								c2.7-0.3,5.4-1.1,7.9-2.4l0,0c4-2,7.4-4.9,9.8-8.5l0,0l34.6,17.7l-44.2,40.3c-1.3-0.9-2.6-1.6-4-2.1l0,0
								c-1-0.4-2.1-0.6-3.2-0.7l0,0L346.1,476.4z M360.5,540.8c1.4-5,0.2-10.2-2.7-14.1l0,0l45.2-41.2l75.5,38.6
								c-0.1,0.2-0.1,0.4-0.2,0.7l0,0c-1.2,3.5-1.1,7.1,0,10.4l0,0l-38.9,20.4c-2.9-3.9-7-6.8-11.7-8.5l0,0
								c-11.4-4-23.8,1-29.6,11.1l0,0L360.5,540.8z M341.4,476.4l0.9,44.2c-1.5,0.3-2.9,0.7-4.3,1.4l0,0c-3.8,1.9-6.8,5.2-8.2,9.2
								l0,0c-1.4,4-1.1,8.4,0.7,12.3l0,0c1.9,3.8,5.2,6.8,9.2,8.2l0,0c0.2,0.1,0.4,0.1,0.6,0.2l0,0c0.1,0,0.1,0.1,0.2,0.1l0,0
								l-6.1,43.9l-44.3-31.3c0.4-0.7,0.7-1.5,1-2.3l0,0c1.4-4,1.1-8.4-0.7-12.3l0,0c-1-2-2.3-3.7-3.9-5.1l0,0l45.3-71.2
								c1.1,0.6,2.2,1,3.4,1.5l0,0c0.3,0.1,0.6,0.2,0.9,0.3l0,0C337.7,476,339.6,476.3,341.4,476.4 M441.6,581.8
								c0.5-1,1-2.1,1.3-3.2l0,0c2.1-6.3,1.8-13-1.2-19l0,0c0-0.1-0.1-0.1-0.1-0.1l0,0l38.6-20.2c0.9,1.3,2,2.4,3.2,3.4l0,0
								l-26.6,48.6L441.6,581.8z M338.8,598.8l6.5-46.4c2.4,0,4.6-0.6,6.8-1.6l0,0c2.7-1.3,4.9-3.3,6.5-5.8l0,0l37.5,17.4
								c-2.1,6.3-1.8,13,1.2,19l0,0c0.5,1,1.1,2.1,1.8,3l0,0L361.6,615L338.8,598.8z M430.4,592.8c3.5-1.7,6.4-4.1,8.8-7.1l0,0
								l15.5,9.6l-27.3,49.8c-0.1,0-0.1-0.1-0.2-0.1l0,0c-4-1.4-8.4-1.1-12.3,0.7l0,0c-1.8,0.9-3.4,2.1-4.7,3.5l0,0l-44.7-31.6
								l36.4-29.7c2.6,2.6,5.9,4.6,9.5,5.9l0,0c0.3,0.1,0.6,0.2,0.9,0.3l0,0C418.3,596.1,424.7,595.6,430.4,592.8 M431.6,647.5
								l27.2-49.6l24.2,15.1c-0.2,0.5-0.4,1.1-0.7,1.7l0,0c-1.8,5.4-1.8,11,0.1,16.3l0,0L436,652.6
								C434.9,650.5,433.4,648.8,431.6,647.5 M286.3,569.3c0.4-0.3,0.7-0.7,1-1l0,0l46.4,32.8l-2.3,16.3c-4-0.1-7.9,0.7-11.6,2.5
								l0,0c-0.1,0.1-0.3,0.1-0.4,0.2l0,0L286.3,569.3z M338.1,604.1l19.7,13.9l-8.8,7.2c-2.7-2.9-6.2-5.2-10.1-6.6l0,0
								c-0.9-0.3-1.8-0.6-2.7-0.7l0,0L338.1,604.1z"/>
						</g>
						<g>
							<path class="st2" d="M737.9,442.6c0.3,0.1,0.7,0.3,1,0.4c6.8,3.3,11.9,9.1,14.4,16.3c2.4,7.1,2,14.9-1.3,21.6
								c-2.1,4.3-5.2,7.9-9,10.6l25.9,53.4c4-0.7,8.1-0.1,11.8,1.7c4.6,2.2,8,6.2,9.7,11c1.7,4.9,1.3,10-0.9,14.6
								c-2.3,4.6-6.2,8-11,9.7c-4.7,1.6-9.7,1.3-14.3-0.7l-53.4,64.7c7.1,8.5,8.7,20.6,3.8,30.7c-3.3,6.8-9.1,11.9-16.3,14.4
								c-7.1,2.4-14.8,2-21.6-1.3c-6.8-3.3-11.9-9.1-14.4-16.3c-2.4-7.1-2-14.6,1.2-21.3l-31.8-21.6l-20.4,14.4
								c1.8,4.9,1.5,10.2-0.8,14.9l0,0c-4.6,9.5-16,13.5-25.6,8.8c-4.6-2.3-8-6.2-9.7-11c-1.7-4.9-1.3-10,0.9-14.6
								c1-2,2.2-3.8,3.8-5.3l-31.1-55.3c-4.5,1.3-9.3,0.8-13.5-1.3c-9.5-4.6-13.5-16.1-8.8-25.6c4.4-9.1,14.9-13.1,24.2-9.4
								l31.4-43.6l-19.6-15.9c-8.5,8.2-21.3,10.4-32.2,5.1c-6.8-3.3-11.8-9.1-14.4-16.3c-2.5-7.1-2-14.9,1.3-21.6
								c3.3-6.8,9.1-11.8,16.3-14.4c7.1-2.4,14.9-2,21.6,1.3c5.4,2.6,9.8,6.9,12.6,12.2l47.3-15.2c0.1-2.8,0.7-5.6,2-8.2
								c2.3-4.6,6.2-8,11-9.7c4.8-1.6,10.1-1.3,14.6,0.9c4.6,2.3,8,6.2,9.7,11c1.7,4.9,1.3,10-0.9,14.6c-0.1,0.1-0.1,0.2-0.1,0.3
								l40.4,36.8l8.1-5.1c-0.1-0.3-0.2-0.5-0.3-0.8c-2.4-7.1-2-14.9,1.3-21.6C707.8,442.3,724,436.4,737.9,442.6z M766.6,549.9
								c-0.5-0.2-1-0.6-1.2-1.2l-27.7-57c-0.5-1.1-0.1-2.5,1-3.2c3.8-2.4,7-5.7,9-9.8c2.7-5.7,3.2-12,1.1-18s-6.3-10.7-11.9-13.5
								c-0.3-0.1-0.5-0.2-0.8-0.4c-11.6-5.2-25-0.3-30.6,11.1c-2.7,5.7-3.2,12-1.1,18c0.3,0.7,0.6,1.5,1,2.4
								c0.5,1.1,0.1,2.4-0.9,3.1l-11.4,7.1c-0.9,0.6-2.1,0.4-2.9-0.3l-43.2-39.4c-0.9-0.8-1-2.1-0.4-3.1c0.4-0.5,0.7-1,0.9-1.5
								c1.7-3.5,1.9-7.4,0.7-11c-1.3-3.6-3.8-6.6-7.3-8.2c-0.1-0.1-0.3-0.1-0.5-0.2c-3.3-1.5-7-1.6-10.5-0.4
								c-3.6,1.3-6.6,3.8-8.2,7.3c-1.2,2.4-1.6,5-1.4,7.6c0.1,1.1-0.6,2.2-1.7,2.5l-51.1,16.4c-1.2,0.4-2.5-0.2-2.9-1.3
								c-2.2-5.2-6.2-9.3-11.3-11.8c-0.3-0.1-0.5-0.2-0.8-0.4c-5.4-2.4-11.5-2.6-17.1-0.7c-6,2.1-10.7,6.3-13.5,11.9
								c-2.7,5.7-3.2,12-1.1,18s6.3,10.7,11.9,13.5c9.6,4.6,21,2.4,28-5.6c0.9-1,2.4-1.1,3.3-0.3l23.1,18.7c1,0.8,1.2,2.3,0.4,3.3
								l-33.9,47.1c-0.7,1-2,1.3-3.1,0.7l-0.4-0.2c-0.1-0.1-0.3-0.1-0.5-0.2c-7.1-3.2-15.3-0.1-18.7,6.8c-3.5,7.1-0.5,15.7,6.6,19.1
								c3.6,1.8,7.9,1.9,11.6,0.4c1.1-0.4,2.4,0,3,1l33,58.7c0.6,1,0.3,2.4-0.6,3.1c-1.7,1.3-3.1,3-4,4.9c-1.7,3.5-1.9,7.3-0.7,11
								c1.3,3.6,3.8,6.6,7.3,8.2c0.1,0.1,0.3,0.1,0.5,0.2c7.1,3.2,15.3,0.1,18.7-6.8l0,0c1.9-4,1.9-8.5,0-12.6c-0.5-1-0.2-2.4,0.8-3
								l23.3-16.5c0.8-0.6,1.9-0.6,2.7,0l35,23.8c1,0.7,1.4,2.1,0.7,3.2c-0.3,0.4-0.5,0.9-0.7,1.4c-2.7,5.7-3.2,12-1.1,18
								c2.1,6,6.3,10.7,11.9,13.5c5.6,2.7,12,3.2,18,1.1s10.7-6.3,13.5-11.9c4.3-8.9,2.6-19.7-4.3-26.8c-0.9-0.9-1-2.3-0.1-3.2
								l56-67.8c0.7-1,2.1-1.2,3.1-0.5c0.4,0.2,0.7,0.4,1.1,0.6c3.5,1.7,7.3,1.9,11,0.7c3.6-1.3,6.6-3.8,8.2-7.3
								c1.7-3.5,1.9-7.4,0.7-11c-1.3-3.6-3.8-6.6-7.3-8.2c-0.1-0.1-0.3-0.1-0.5-0.2c-3.1-1.4-6.5-1.6-9.8-0.7
								C767.7,550.2,767.1,550.1,766.6,549.9z M646.2,448.7c0.2,0.1,0.4,0.2,0.7,0.4l42.2,38.4c0.6,0.5,0.9,1.3,0.8,2
								c-0.1,0.7-0.5,1.4-1.1,1.8l-41.4,26.1c-1,0.7-2.4,0.4-3.2-0.6c-2.2-2.8-4.9-5.1-8.2-6.6c-5.6-2.7-12-3.2-18-1.1l0,0
								c-3.5,1.2-6.5,3.1-9.1,5.7c-0.9,0.9-2.3,1-3.2,0.1l-14.9-12c-1-0.8-1.2-2.3-0.4-3.3l34.7-48.1c0.7-1,2-1.3,3.1-0.7l-0.9,2.3
								l1-2.2c3.4,1.7,7.4,1.9,11,0.7c1.7-0.6,3.2-1.4,4.6-2.6C644.3,448.5,645.3,448.3,646.2,448.7z M683.3,489L645,454
								c-1.3,0.9-2.8,1.6-4.3,2.1c-4.3,1.5-8.8,1.4-13-0.2l-32.2,44.6l11.4,9.3c2.7-2.4,5.8-4.1,9.3-5.3l0,0
								c7.1-2.4,14.9-1.9,21.6,1.3c3.2,1.6,6.1,3.7,8.5,6.3L683.3,489z M736.4,490.6c0.5,0.2,1,0.6,1.2,1.2l27.7,57
								c0.5,1.1,0.1,2.4-0.9,3.1c-0.4,0.2-0.7,0.5-1,0.7c-1,0.7-2.3,0.7-3.1-0.1l-43.8-39.9c-0.7-0.6-1-1.5-0.7-2.4l4.5-16.6
								c0.3-1.2,1.5-2,2.7-1.8c3.7,0.6,7.6,0.2,11.2-1l0.4-0.1C735.2,490.3,735.8,490.4,736.4,490.6z M757.1,543l-23-47.3
								c-3.2,0.9-6.5,1.3-9.8,1l-3.5,13.2L757.1,543z M619.9,442.2c0.6,0.2,1,0.7,1.3,1.3c0.7,1.9,1.9,3.5,3.3,4.9
								c0.9,0.8,1,2.2,0.3,3.2l-34.4,47.8c-0.4,0.5-1,0.9-1.6,1c-0.7,0.1-1.3-0.1-1.8-0.5l-23.1-18.7c-1-0.7-1.2-2.1-0.6-3.1
								c0.3-0.5,0.6-1,0.8-1.5c2.4-4.8,3-10.2,1.8-15.3c-0.3-1.3,0.4-2.4,1.6-2.8l50.7-16.3C618.7,441.9,619.4,441.9,619.9,442.2z
								 M619.7,450.3c-0.8-1-1.5-2-2.1-3l-46.7,15c0.8,5.6-0.1,11.2-2.6,16.3l19.6,15.8L619.7,450.3z M706.5,481.5
								c0.4,0.1,0.7,0.4,1,0.8c2.2,3.1,5.2,5.6,8.7,7.3c0.7,0.4,1.5,0.7,2.4,1c1.2,0.4,1.8,1.7,1.5,2.9l-3.8,14.1
								c-0.2,0.8-0.8,1.5-1.6,1.7s-1.7,0.1-2.3-0.5l-18.5-16.9c-0.6-0.5-0.9-1.3-0.8-2c0.1-0.7,0.5-1.4,1.1-1.8l10.1-6.3
								C704.9,481.2,705.8,481.2,706.5,481.5z M714.9,494.3c-0.3-0.1-0.6-0.3-0.9-0.4c-3.5-1.7-6.6-4.1-9.1-7l-5.6,3.5l13.3,12.1
								L714.9,494.3z M692.1,490.6c0.2,0.1,0.4,0.2,0.7,0.4l21.5,19.6c0.7,0.6,1,1.5,0.7,2.4l-12.7,47.1c-0.3,1.2-1.4,1.9-2.6,1.8
								c-2.1-0.2-4.2,0-6.2,0.7c-2.5,0.9-4.7,2.4-6.4,4.4c-0.7,1-2.1,1.2-3.2,0.5l-36.5-22.8c-1-0.7-1.5-2-0.9-3.1
								c2.7-5.7,3.2-12,1.1-18c-0.4-1-0.8-2.1-1.3-3c-0.6-1.1-0.2-2.5,0.9-3.2l42.6-26.8C690.5,490.3,691.4,490.2,692.1,490.6z
								 M709.8,513.2l-19.1-17.4l-39.2,24.7c0.2,0.5,0.4,1.1,0.7,1.6c2.2,6.5,2.1,13.3-0.4,19.7l33,20.6c2-1.9,4.4-3.5,7.1-4.3
								c2-0.7,4.1-1,6.2-1L709.8,513.2z M717.6,513.9c0.2,0.1,0.4,0.2,0.7,0.4l41.8,38.1c0.9,0.8,1,2.1,0.4,3.2
								c-0.4,0.6-0.8,1.3-1.1,1.9c-1.7,3.5-1.9,7.4-0.7,11c0.7,1.8,1.6,3.5,2.9,4.9c0.8,0.9,0.8,2.2,0.1,3.2l-55.9,67.8
								c-0.8,1-2.2,1.2-3.2,0.4c-1-0.7-2-1.3-3-1.8c-1.8-0.9-3.8-1.5-5.8-2c-1.3-0.2-2.1-1.4-1.9-2.6l4.8-45.8
								c0.1-1.2,1.1-2.1,2.3-2.1c1.3-0.1,2.7-0.3,4-0.7c3.6-1.3,6.6-3.8,8.2-7.3c1.7-3.5,1.9-7.4,0.7-11c-1.3-3.6-3.8-6.6-7.3-8.2
								c-0.1-0.1-0.4-0.1-0.5-0.2c-1.1-0.5-1.8-1.8-1.5-2.9l12-44.7c0.2-0.8,0.8-1.5,1.6-1.7C716.5,513.6,717.1,513.7,717.6,513.9z
								 M755.4,554.7L718,520.6l-10.5,38.9c4.1,2.3,7.1,6,8.7,10.5c1.7,4.9,1.3,10-0.9,14.6c-2.3,4.6-6.2,8-11,9.7
								c-1,0.4-2.1,0.7-3.2,0.8l-4.3,41.7c1.7,0.4,3.2,1.1,4.8,1.8c0.6,0.3,1.2,0.6,1.7,1l53.4-64.6c-1.1-1.5-1.9-3.2-2.6-4.9
								c-1.7-4.9-1.3-10,0.9-14.6C755.1,555.1,755.2,554.9,755.4,554.7z M590.3,502.8c0.2,0.1,0.4,0.2,0.5,0.3l14.6,11.8
								c1,0.8,1.2,2.2,0.5,3.2c-0.6,0.9-1.2,1.8-1.6,2.8c-2.7,5.7-3.2,12-1.1,18l0.1,0.1c0.4,1.3-0.2,2.6-1.5,3l-42.5,16
								c-1.1,0.4-2.4-0.1-2.9-1.1c-0.7-1.3-1.5-2.4-2.5-3.3c-0.8-0.8-1-2.1-0.3-3.2l33.8-46.9c0.4-0.5,1-0.9,1.6-1
								C589.4,502.6,589.9,502.6,590.3,502.8z M600.8,517.4l-11-8.8l-31.1,43.2c0.3,0.4,0.6,0.7,0.8,1.1l38.6-14.5
								c-1.7-6.6-1-13.4,2-19.5C600.2,518.3,600.5,517.9,600.8,517.4z M647.1,544.7c0.1,0.1,0.2,0.1,0.3,0.1l36.6,22.8
								c1,0.7,1.4,1.9,1,3c-1.7,4.1-1.4,8.9,0.9,12.8c0.7,1.1,0.4,2.5-0.7,3.2L633,623.4c-0.8,0.6-1.9,0.6-2.7,0l-73.2-49.6
								c-1-0.7-1.4-2.1-0.7-3.2c0.1-0.1,0.2-0.4,0.3-0.6c1.4-2.9,1.8-6,1.2-9.2c-0.2-1.2,0.4-2.4,1.5-2.7l42.9-16.1
								c1.1-0.4,2.4,0,2.9,1c2.4,4,5.7,7.2,10,9.3c10.1,4.9,22.3,2,29.1-7C644.8,544.5,646,544.2,647.1,544.7z M679.7,570.7
								L646.6,550c-8.4,9.5-22.2,12.3-33.6,6.7c-4.4-2.2-8.2-5.4-11-9.4L562.8,562c0.3,3.1-0.1,6.1-1.3,9l70.1,47.5l49-34.6
								C678.8,579.7,678.5,575.1,679.7,570.7z M687.8,586.3c0.2,0.1,0.4,0.2,0.7,0.4c1,1,2.1,1.7,3.4,2.3c0.9,0.4,1.8,0.8,2.8,1
								c1.2,0.3,1.9,1.4,1.8,2.6l-4.8,45.8c-0.1,1.3-1.2,2.1-2.4,2.1c-2.6,0-5.2,0.4-7.7,1.3c-4,1.3-7.4,3.7-10.2,6.8
								c-0.8,1-2.2,1.1-3.2,0.4l-33.6-22.7c-0.7-0.4-1-1.2-1-2c0-0.8,0.4-1.5,1-2l50.9-35.9C686.1,586,687,586,687.8,586.3z
								 M690.3,593.6c-0.2-0.1-0.4-0.2-0.7-0.3c-1-0.5-2.1-1.1-3-1.8l-46.4,32.9l28.9,19.7c3-3,6.7-5.3,10.7-6.7
								c2.3-0.8,4.7-1.3,7.1-1.5l4.3-41.7C691,594,690.7,593.8,690.3,593.6z M556.5,573.5c0.1,0.1,0.2,0.1,0.4,0.2l71.8,48.7
								c0.7,0.4,1,1.2,1,2s-0.4,1.5-1,2l-21.7,15.4c-1,0.7-2.4,0.6-3.2-0.3c-1.2-1.3-2.6-2.4-4.2-3.1c-0.1-0.1-0.3-0.1-0.5-0.2
								c-3.5-1.5-7.4-1.6-11-0.2c-1.1,0.4-2.4,0-3-1.1l-33-58.9c-0.6-1-0.3-2.4,0.6-3.1c0.4-0.3,0.7-0.6,1-1
								C554.5,573.3,555.6,573.2,556.5,573.5z M623.1,624.5l-63.4-43.1l28.8,51.3c4.4-1.2,9.1-0.7,13.3,1.3c1.5,0.7,2.8,1.6,4,2.6
								L623.1,624.5z"/>
							<path id="path11539_00000162350306392283836740000003607026353308049573_" class="st2" d="M608.3,658.6
								c2.4-4.8,2.2-10.2,0-14.7l0,0l23.3-16.5l35,23.8c-0.3,0.5-0.6,1-0.8,1.5l0,0c-3,6.2-3.5,13.2-1.3,19.8l0,0
								c2.2,6.6,6.9,11.8,13.1,14.9l0,0c6.2,3,13.2,3.5,19.8,1.3l0,0c6.6-2.2,11.8-6.9,14.9-13.1l0,0c4.9-10.1,2.6-21.9-4.8-29.5
								l0,0l56-67.8c0.4,0.2,0.9,0.5,1.3,0.7l0,0c4,2,8.5,2.3,12.8,0.8l0,0c4.2-1.5,7.7-4.5,9.6-8.5l0,0c2-4,2.3-8.5,0.8-12.8l0,0
								c-1.5-4.3-4.5-7.7-8.5-9.6l0,0c-0.2-0.1-0.4-0.1-0.6-0.3l0,0c-3.6-1.6-7.7-1.9-11.5-0.8l0,0l-27.7-57
								c4.3-2.6,7.7-6.3,9.9-10.8l0,0c3-6.2,3.5-13.2,1.3-19.8l0,0c-2.2-6.6-6.9-11.8-13.1-14.9l0,0c-0.3-0.1-0.6-0.3-0.9-0.4l0,0
								c-12.7-5.6-27.7-0.2-33.8,12.3l0,0c-3,6.2-3.5,13.2-1.3,19.8l0,0c0.3,0.9,0.7,1.8,1,2.6l0,0l-11.4,7.1l-43.2-39.4
								c0.4-0.6,0.7-1.2,1-1.8l0,0c2-4,2.3-8.5,0.8-12.8l0,0c-1.5-4.2-4.5-7.7-8.5-9.6l0,0c-0.2-0.1-0.4-0.1-0.6-0.3l0,0
								c-3.9-1.7-8.2-1.9-12.2-0.5l0,0c-4.2,1.5-7.7,4.5-9.6,8.5l0,0l0,0c-1.4,2.8-1.9,5.8-1.6,8.8l0,0l-51.1,16.4
								c-2.4-5.7-6.8-10.3-12.4-13l0,0c-0.3-0.1-0.6-0.3-0.9-0.4l0,0c-6-2.6-12.7-2.9-18.9-0.8l0,0c-6.6,2.2-11.8,6.9-14.9,13.1l0,0
								c-3,6.2-3.5,13.2-1.3,19.8l0,0c2.2,6.6,6.9,11.8,13.1,14.9l0,0c10.7,5.2,23.3,2.4,30.8-6.2l0,0l23.1,18.7l-33.9,47.1
								c-0.1-0.1-0.3-0.1-0.4-0.2l0,0c-0.2-0.1-0.4-0.1-0.6-0.3l0,0c-8.2-3.6-17.9-0.1-21.9,7.9l0,0c-4,8.3-0.6,18.3,7.7,22.4l0,0
								c4.4,2.1,9.3,2.2,13.6,0.5l0,0l33,58.7c-1.9,1.5-3.5,3.5-4.7,5.8l0,0l0,0c-4,8.3-0.6,18.3,7.7,22.4l0,0
								c0.2,0.1,0.4,0.1,0.6,0.3l0,0C594.7,670.2,604.4,666.7,608.3,658.6 M587.2,635.6l-33-58.8c0.4-0.4,0.8-0.7,1.3-1.1l0,0
								l71.8,48.7l-21.7,15.4c-1.3-1.5-3-2.7-4.9-3.6l0,0c-0.2-0.1-0.4-0.1-0.6-0.3l0,0C595.9,634.1,591.3,634.1,587.2,635.6
								 M689.2,638.2c-2.9,0-5.7,0.4-8.5,1.4l0,0c-4.4,1.5-8.2,4.1-11.2,7.6l0,0l-33.6-22.8l50.9-35.9c1.2,1,2.5,2,4,2.7l0,0
								c1,0.5,2.1,0.9,3.2,1.2l0,0L689.2,638.2z M682.7,569.7c-2.1,5-1.5,10.5,1,14.9l0,0l-52.1,36.8l-73.2-49.6
								c0.1-0.2,0.2-0.4,0.4-0.7l0,0c1.7-3.5,2.1-7.2,1.3-10.7l0,0l42.9-16.1c2.6,4.4,6.3,7.9,11,10.2l0,0
								c11.3,5.5,24.7,2.1,32.1-7.7l0,0L682.7,569.7z M694.1,638.7l4.8-45.8c1.5-0.1,3.1-0.4,4.6-0.9l0,0c4.2-1.5,7.7-4.5,9.6-8.5
								l0,0c2-4,2.3-8.5,0.8-12.8l0,0c-1.5-4.2-4.5-7.7-8.5-9.6l0,0c-0.2-0.1-0.4-0.1-0.6-0.3l0,0c-0.1,0-0.1-0.1-0.2-0.1l0,0
								l12-44.7l41.8,38.1c-0.5,0.7-0.9,1.5-1.3,2.2l0,0c-2,4-2.3,8.5-0.8,12.8l0,0c0.7,2.1,1.9,4.1,3.4,5.7l0,0l-55.9,67.8
								c-1-0.7-2.1-1.3-3.3-1.9l0,0c-0.3-0.1-0.6-0.3-0.9-0.4l0,0C697.8,639.6,696,639,694.1,638.7 M603.9,516.9
								c-0.7,1-1.3,2-1.8,3.1l0,0c-3,6.2-3.5,13.2-1.3,19.8l0,0c0,0.1,0,0.1,0.1,0.1l0,0l-42.5,16c-0.7-1.4-1.8-2.7-2.9-3.9l0,0
								l33.8-46.9L603.9,516.9z M712.6,512.4l-12.7,47.1c-2.4-0.3-4.9,0-7.2,0.8l0,0c-2.9,1-5.5,2.8-7.5,5.2l0,0l-36.5-22.7
								c3-6.2,3.5-13.2,1.3-19.8l0,0c-0.4-1.2-0.9-2.3-1.4-3.4l0,0l42.6-26.8L712.6,512.4z M617,506.8c-3.8,1.3-7.2,3.5-9.9,6.2l0,0
								l-14.9-12l34.7-48.1c0.1,0.1,0.1,0.1,0.2,0.1l0,0c4,2,8.5,2.3,12.8,0.8l0,0c2-0.7,3.8-1.7,5.3-2.9l0,0l42.2,38.4l-41.4,26.1
								c-2.4-3.1-5.4-5.6-9.1-7.4l0,0c-0.3-0.1-0.6-0.3-0.9-0.4l0,0C629.9,504.9,623.2,504.6,617,506.8 M622.8,450.1l-34.5,47.8
								l-23.1-18.7c0.3-0.5,0.6-1.1,0.9-1.7l0,0c2.6-5.3,3.3-11.3,2.1-16.9l0,0l50.7-16.3C619.8,446.6,621.1,448.5,622.8,450.1
								 M763,549.8c-0.4,0.3-0.8,0.6-1.2,0.9l0,0l-43.7-39.9l4.5-16.6c4,0.7,8.3,0.3,12.3-1.1l0,0c0.1-0.1,0.4-0.1,0.5-0.2l0,0
								L763,549.8z M714,507l-18.5-16.9l10.1-6.3c2.4,3.4,5.7,6.2,9.6,8l0,0c0.9,0.4,1.8,0.8,2.7,1.1l0,0L714,507z"/>
						</g>
						<g>
							<path class="st2" d="M651.3,695.9c0.4,0.1,0.8,0.4,1.2,0.6c8.5,4.2,14.8,11.4,17.8,20.4c3,8.9,2.4,18.5-1.8,26.9
								c-2.6,5.3-6.5,9.8-11.3,13.2l32,66.8c4.9-0.9,10.1-0.1,14.6,2.1c5.7,2.8,10,7.7,12,13.8c2.1,6,1.6,12.5-1.3,18.3
								c-2.9,5.7-7.7,10-13.8,12c-5.9,2-12.1,1.6-17.8-1l-67,80.3c8.9,10.7,10.7,25.7,4.5,38.3c-4.2,8.5-11.4,14.8-20.4,17.8
								c-8.9,3-18.5,2.4-26.9-1.8c-8.5-4.2-14.8-11.4-17.7-20.4c-2.9-8.8-2.4-18.2,1.6-26.6l-39.5-27.2l-25.5,17.8
								c2.1,6.1,1.8,12.7-1.1,18.6l0,0c-5.9,11.8-20.2,16.7-32,10.8c-5.7-2.8-10-7.7-12-13.8c-2.1-6-1.6-12.5,1.3-18.3
								c1.3-2.4,2.8-4.6,4.8-6.6l-38.3-69.2c-5.6,1.5-11.6,1-16.9-1.6c-11.8-5.9-16.6-20.2-10.8-32c5.6-11.3,18.7-16.2,30.2-11.6
								l39.4-54.2l-24.3-19.9c-10.7,10.2-26.6,12.8-40.1,6.1c-8.5-4.2-14.8-11.4-17.8-20.4c-3-8.9-2.4-18.5,1.8-26.9
								c4.2-8.5,11.4-14.8,20.4-17.8c8.9-3,18.5-2.4,26.9,1.8c6.7,3.3,12.2,8.8,15.6,15.4l59.1-18.6c0.1-3.5,0.9-7,2.5-10.2
								c2.9-5.7,7.7-10,13.8-12c6-2.1,12.6-1.5,18.3,1.3c5.7,2.9,10,7.7,12.1,13.8c2.1,6,1.6,12.5-1.3,18.3
								c-0.1,0.1-0.1,0.2-0.1,0.4l50.1,46.2l10.1-6.3c-0.1-0.4-0.2-0.7-0.4-1c-3-8.9-2.4-18.5,1.8-26.9
								C613.6,695.3,633.9,688,651.3,695.9z M686.3,829.9c-0.7-0.3-1.2-0.8-1.5-1.5l-34.2-71.3c-0.7-1.4-0.1-3.1,1.2-3.9
								c4.9-2.9,8.7-7.1,11.3-12.1c3.5-7,4-14.9,1.5-22.4c-2.5-7.4-7.7-13.4-14.7-16.9c-0.3-0.1-0.7-0.3-1-0.4
								c-14.4-6.5-31.2-0.5-38.3,13.7c-3.5,7-4,14.9-1.5,22.4c0.3,1,0.7,1.9,1.2,2.9c0.7,1.4,0.1,3-1.2,3.8l-14.2,8.8
								c-1.2,0.7-2.6,0.6-3.6-0.4l-53.6-49.4c-1.1-1-1.3-2.6-0.4-3.9c0.4-0.7,0.8-1.3,1.1-1.9c2.1-4.3,2.4-9.1,1-13.6
								c-1.5-4.5-4.7-8.2-9-10.3c-0.2-0.1-0.4-0.2-0.6-0.3c-4.1-1.8-8.8-2.1-13-0.7c-4.5,1.5-8.2,4.7-10.3,9
								c-1.5,2.9-2.1,6.2-1.8,9.4c0.1,1.4-0.7,2.7-2.1,3.2l-63.8,20.2c-1.5,0.4-3.1-0.3-3.7-1.7c-2.7-6.4-7.7-11.7-13.9-14.8
								c-0.4-0.1-0.7-0.3-1-0.4c-6.8-3-14.4-3.4-21.3-1c-7.4,2.5-13.4,7.7-16.9,14.7s-4,14.9-1.5,22.4c2.5,7.4,7.7,13.4,14.7,16.9
								c11.8,5.9,26.2,3,35-6.8c1.1-1.2,2.9-1.4,4.2-0.4l28.7,23.5c1.3,1,1.5,2.8,0.5,4.1l-42.6,58.5c-0.9,1.2-2.5,1.6-3.8,0.9
								l-0.5-0.2c-0.2-0.1-0.4-0.2-0.6-0.3c-8.8-4-19.1-0.3-23.3,8.4c-4.3,8.8-0.7,19.6,8.1,23.9c4.5,2.3,9.8,2.4,14.5,0.6
								c1.4-0.5,3,0,3.8,1.3l40.8,73.5c0.7,1.3,0.4,2.9-0.8,3.8c-2.1,1.7-3.8,3.8-5,6.2c-2.1,4.3-2.4,9.1-0.9,13.6
								c1.5,4.6,4.7,8.2,9,10.3c0.2,0.1,0.4,0.2,0.6,0.3c8.8,4,19.1,0.3,23.3-8.4l0,0c2.4-4.9,2.5-10.7,0.1-15.7
								c-0.7-1.3-0.2-2.9,1-3.8l29.2-20.4c1-0.7,2.4-0.7,3.5,0l43.5,29.8c1.3,0.9,1.7,2.6,0.9,4c-0.3,0.6-0.7,1.2-1,1.8
								c-3.5,7-4,14.9-1.5,22.4c2.5,7.4,7.7,13.4,14.7,16.9c7,3.5,14.9,4,22.4,1.5c7.4-2.5,13.4-7.7,16.9-14.7
								c5.5-11.1,3.4-24.5-5.2-33.4c-1.1-1.1-1.1-2.9-0.1-4l70.3-84.2c1-1.2,2.6-1.4,3.9-0.7c0.4,0.3,0.9,0.5,1.4,0.7
								c4.3,2.1,9.1,2.4,13.6,1c4.5-1.5,8.2-4.7,10.3-9c2.1-4.3,2.4-9.1,1-13.6c-1.5-4.5-4.7-8.2-9-10.3c-0.2-0.1-0.4-0.2-0.6-0.3
								c-3.9-1.8-8.1-2.1-12.2-0.9C687.6,830.2,686.9,830.2,686.3,829.9z M536.7,702.9c0.3,0.1,0.6,0.3,0.8,0.5l52.3,48.2
								c0.7,0.7,1,1.5,1,2.5c-0.1,1-0.6,1.8-1.4,2.3l-51.9,32.2c-1.3,0.8-3,0.5-4-0.7c-2.7-3.5-6.2-6.3-10.2-8.3
								c-7-3.5-15-4-22.4-1.5l0,0c-4.3,1.5-8.1,3.8-11.3,7c-1.1,1.1-2.8,1.2-4,0.2l-18.4-15.1c-1.3-1-1.5-2.8-0.5-4.1l43.5-59.7
								c0.9-1.2,2.5-1.6,3.8-0.9l-1.1,2.8l1.3-2.7c4.3,2.1,9.1,2.4,13.6,1c2.1-0.7,4-1.8,5.7-3.2
								C534.5,702.5,535.7,702.5,536.7,702.9z M582.9,753.3l-47.5-43.8c-1.7,1.1-3.5,2-5.4,2.6c-5.4,1.8-11,1.7-16.2-0.4l-40.4,55.4
								l14.2,11.6c3.4-2.9,7.3-5.1,11.6-6.6l0,0c8.9-3,18.5-2.4,26.9,1.8c4,2,7.6,4.6,10.5,7.9L582.9,753.3z M649,755.7
								c0.7,0.3,1.2,0.8,1.5,1.5l34.2,71.2c0.7,1.4,0.2,3-1.1,3.8c-0.4,0.3-0.9,0.6-1.3,1c-1.2,0.9-2.8,0.8-3.9-0.1l-54.3-50
								c-0.8-0.7-1.2-1.9-0.9-3l5.7-20.7c0.4-1.5,1.8-2.4,3.4-2.2c4.6,0.7,9.4,0.3,13.9-1.2l0.6-0.2
								C647.5,755.4,648.3,755.4,649,755.7z M674.5,821.3l-28.3-59.1c-4,1.1-8.1,1.5-12.2,1.2l-4.5,16.4L674.5,821.3z M504,694.5
								c0.7,0.3,1.3,0.9,1.5,1.6c1,2.4,2.4,4.4,4.1,6.2c1.1,1,1.3,2.7,0.4,4l-43.3,59.4c-0.5,0.7-1.3,1.1-2.1,1.3
								c-0.8,0.1-1.6-0.1-2.3-0.7l-28.7-23.5c-1.2-1-1.5-2.6-0.7-3.8c0.4-0.6,0.7-1.3,1-1.8c2.9-6,3.8-12.6,2.4-19.1
								c-0.3-1.5,0.6-3,2.1-3.5l63.4-20C502.6,694.2,503.4,694.2,504,694.5z M503.8,704.8c-1-1.2-1.8-2.4-2.6-3.8l-58.3,18.4
								c1,6.9-0.2,13.9-3.4,20.3l24.3,19.9L503.8,704.8z M611.8,744.2c0.4,0.2,0.9,0.5,1.2,1c2.7,3.8,6.5,7,10.8,9.1
								c1,0.4,2,0.9,3,1.3c1.5,0.6,2.3,2.1,1.8,3.6l-4.8,17.6c-0.3,1-1,1.8-2.1,2.1s-2.1,0-2.9-0.7l-23-21.3c-0.7-0.7-1-1.5-1-2.5
								c0.1-1,0.6-1.8,1.4-2.3l12.7-7.8C609.8,743.8,610.9,743.8,611.8,744.2z M622.2,760.2c-0.4-0.1-0.7-0.4-1.1-0.5
								c-4.3-2.1-8.2-5.2-11.3-8.8l-7,4.3l16.5,15.2L622.2,760.2z M593.8,755.4c0.3,0.1,0.6,0.3,0.8,0.5l26.6,24.6
								c0.8,0.7,1.2,1.9,0.9,3L606,842.2c-0.4,1.4-1.8,2.4-3.2,2.2c-2.6-0.3-5.2,0-7.7,0.8c-3.2,1-5.9,2.9-8,5.4
								c-1,1.2-2.6,1.4-3.9,0.6l-45.4-28.6c-1.3-0.8-1.8-2.5-1.1-3.9c3.5-7,4-14.9,1.5-22.4c-0.4-1.3-1-2.6-1.6-3.8
								c-0.7-1.4-0.2-3.1,1.1-3.9l53.3-33.1C591.8,755,592.8,755,593.8,755.4z M615.8,783.7l-23.6-21.8l-49.1,30.5
								c0.3,0.7,0.5,1.4,0.7,2.1c2.7,8.1,2.4,16.6-0.7,24.4l41.1,25.9c2.5-2.4,5.5-4.3,8.9-5.4c2.5-0.9,5.2-1.3,7.7-1.3L615.8,783.7
								z M625.5,784.7c0.3,0.1,0.6,0.3,0.8,0.5l51.9,47.8c1.1,1,1.3,2.7,0.4,4c-0.5,0.7-1,1.5-1.4,2.4c-2.1,4.3-2.4,9.1-1,13.6
								c0.8,2.3,2,4.3,3.6,6.2c1,1.1,1,2.8,0.1,3.9l-70.3,84.2c-1,1.2-2.7,1.5-4,0.5c-1.2-0.8-2.4-1.5-3.8-2.2
								c-2.3-1.1-4.7-2-7.2-2.5c-1.5-0.3-2.6-1.8-2.4-3.3l6.3-57.1c0.1-1.5,1.4-2.6,2.9-2.6c1.7-0.1,3.4-0.4,4.9-1
								c4.5-1.5,8.2-4.7,10.3-9s2.4-9.1,1-13.6c-1.5-4.5-4.7-8.2-9-10.3c-0.2-0.1-0.4-0.2-0.7-0.3c-1.3-0.6-2.3-2.2-1.9-3.6
								l15.2-55.6c0.3-1,1-1.8,2.1-2.1C624.1,784.3,624.8,784.4,625.5,784.7z M672.2,835.8L625.9,793l-13.2,48.4
								c5.1,2.9,8.9,7.5,10.7,13.1c2.1,6,1.6,12.5-1.3,18.3s-7.7,10-13.8,12c-1.3,0.4-2.6,0.7-4,1l-5.7,52c2.1,0.6,4,1.4,6,2.4
								c0.7,0.4,1.5,0.7,2.1,1.2l67-80.2c-1.3-1.9-2.4-4-3.2-6.2c-2.1-6-1.6-12.5,1.3-18.3C671.9,836.4,672.1,836.1,672.2,835.8z
								 M466.7,770c0.2,0.1,0.4,0.2,0.7,0.4l18.1,14.8c1.2,1,1.5,2.7,0.6,4c-0.7,1.1-1.5,2.3-2.1,3.5c-3.5,7-4,14.9-1.5,22.4
								l0.1,0.2c0.5,1.5-0.3,3.2-1.8,3.8l-53.1,19.7c-1.4,0.5-3-0.1-3.7-1.4c-0.8-1.5-1.8-2.9-3.1-4.2c-1-1-1.2-2.7-0.3-3.9
								l42.5-58.2c0.5-0.7,1.3-1.1,2.1-1.3C465.7,769.7,466.2,769.8,466.7,770z M479.7,788.3l-13.6-11.1l-39.2,53.7
								c0.4,0.4,0.7,0.9,1,1.4l48.1-17.8c-2.1-8.2-1.2-16.7,2.6-24.3C479,789.5,479.3,788.9,479.7,788.3z M537.2,822.6
								c0.1,0.1,0.2,0.1,0.4,0.2l45.5,28.7c1.3,0.8,1.8,2.4,1.2,3.8c-2.1,5.2-1.8,11.1,1,16c0.8,1.3,0.4,3.1-0.9,4l-65.2,45.6
								c-1,0.7-2.4,0.7-3.5,0l-90.9-62.3c-1.3-0.9-1.7-2.6-1-4c0.1-0.2,0.2-0.4,0.4-0.7c1.8-3.5,2.3-7.5,1.5-11.4
								c-0.3-1.5,0.5-2.9,1.9-3.5l53.6-19.8c1.4-0.5,2.9,0.1,3.7,1.3c2.9,5,7.1,9.1,12.4,11.6c12.5,6.3,27.8,2.6,36.3-8.5
								C534.5,822.4,536,822,537.2,822.6z M577.9,855.3l-41.1-26c-10.5,11.8-27.7,15.2-42,8.1c-5.5-2.7-10.2-6.8-13.5-11.8l-49,18.1
								c0.4,3.8-0.2,7.6-1.7,11.2l87.1,59.8l61.3-42.8C576.6,866.5,576.2,860.6,577.9,855.3z M587.8,874.7c0.3,0.1,0.6,0.3,0.8,0.5
								c1.3,1.2,2.6,2.1,4.2,2.9c1.1,0.5,2.3,1,3.5,1.3c1.5,0.4,2.4,1.8,2.2,3.2l-6.3,57.1c-0.1,1.5-1.5,2.7-3,2.6
								c-3.2,0-6.5,0.5-9.6,1.5c-4.9,1.7-9.3,4.6-12.7,8.5c-1,1.2-2.7,1.4-4,0.5l-41.7-28.6c-0.8-0.6-1.3-1.5-1.3-2.5
								c0-1,0.4-1.9,1.3-2.5l63.6-44.5C585.7,874.4,586.8,874.3,587.8,874.7z M590.9,884c-0.3-0.1-0.5-0.2-0.8-0.4
								c-1.3-0.7-2.6-1.4-3.8-2.3l-58.1,40.6l36,24.7c3.8-3.7,8.4-6.6,13.5-8.2c2.9-1,5.9-1.5,8.8-1.8l5.7-52
								C591.8,884.3,591.3,884.1,590.9,884z M424.1,858c0.1,0.1,0.3,0.1,0.4,0.3l89.3,61.2c0.8,0.6,1.3,1.5,1.3,2.5
								c0,1-0.4,1.9-1.3,2.5l-27.2,19c-1.3,0.9-2.9,0.7-4-0.4c-1.5-1.6-3.2-2.9-5.2-3.9c-0.2-0.1-0.4-0.2-0.6-0.3
								c-4.3-2-9.2-2.1-13.7-0.4c-1.4,0.5-3-0.1-3.7-1.3l-40.8-73.6c-0.7-1.3-0.4-2.9,0.7-3.8c0.4-0.4,0.9-0.7,1.3-1.2
								C421.7,857.7,423,857.5,424.1,858z M506.8,922L428,867.9l35.5,64.1c5.6-1.5,11.4-0.9,16.6,1.7c1.8,0.9,3.5,2.1,5.1,3.4
								L506.8,922z"/>
							<path id="path11539_00000072997376119610427480000014472383707401311674_" class="st2" d="M488.2,964.4
								c2.9-6,2.8-12.7,0.1-18.3l0,0l29.2-20.4l43.5,29.8c-0.4,0.6-0.7,1.3-1,1.9l0,0c-3.8,7.7-4.4,16.5-1.7,24.7l0,0
								c2.7,8.2,8.5,14.8,16.3,18.6l0,0c7.7,3.8,16.5,4.4,24.7,1.7l0,0c8.2-2.7,14.8-8.5,18.6-16.3l0,0c6.3-12.6,3.5-27.3-5.8-36.9
								l0,0l70.3-84.2c0.5,0.3,1,0.6,1.6,0.9l0,0c5,2.5,10.7,2.9,16,1.1l0,0c5.3-1.8,9.6-5.5,12.1-10.5l0,0c2.5-5,2.9-10.7,1.1-16
								l0,0c-1.8-5.3-5.5-9.6-10.5-12.1l0,0c-0.2-0.1-0.4-0.2-0.7-0.4l0,0c-4.5-2.1-9.5-2.4-14.3-1l0,0l-34.2-71.3
								c5.3-3.2,9.6-7.7,12.4-13.4l0,0c3.8-7.7,4.4-16.5,1.7-24.7l0,0c-2.7-8.2-8.5-14.8-16.3-18.6l0,0c-0.4-0.1-0.7-0.4-1.1-0.5
								l0,0c-15.8-7.1-34.4-0.5-42.2,15.1l0,0c-3.8,7.7-4.4,16.5-1.7,24.7l0,0c0.4,1.1,0.8,2.1,1.3,3.2l0,0l-14.2,8.8l-53.6-49.4
								c0.4-0.7,0.9-1.5,1.3-2.3l0,0c2.5-5,2.9-10.7,1.1-16l0,0c-1.8-5.3-5.5-9.6-10.5-12.1l0,0c-0.2-0.1-0.4-0.2-0.7-0.4l0,0
								c-4.8-2.2-10.2-2.4-15.2-0.7l0,0c-5.3,1.8-9.6,5.5-12.1,10.5l0,0l0,0c-1.7,3.5-2.4,7.3-2.1,11l0,0l-63.8,20.2
								c-3-7.1-8.4-12.9-15.4-16.3l0,0c-0.4-0.1-0.7-0.4-1.1-0.5l0,0c-7.4-3.4-15.8-3.8-23.6-1.2l0,0c-8.2,2.7-14.8,8.5-18.6,16.3
								l0,0c-3.8,7.7-4.4,16.5-1.7,24.7l0,0c2.7,8.2,8.5,14.8,16.3,18.6l0,0c13.3,6.6,29.1,3.1,38.5-7.5l0,0l28.7,23.5l-42.6,58.5
								c-0.1-0.1-0.4-0.2-0.5-0.3l0,0c-0.2-0.1-0.4-0.2-0.7-0.4l0,0c-10.2-4.6-22.3-0.3-27.3,9.8l0,0c-5.2,10.3-0.9,22.9,9.4,28l0,0
								c5.5,2.7,11.6,2.8,16.9,0.7l0,0l40.8,73.5c-2.4,1.8-4.4,4.3-5.9,7.2l0,0l0,0c-5.1,10.3-0.9,22.9,9.4,28l0,0
								c0.2,0.1,0.4,0.2,0.7,0.4l0,0C471.1,978.8,483.3,974.5,488.2,964.4 M462.1,935.6l-40.8-73.5c0.5-0.4,1-0.9,1.5-1.3l0,0
								l89.3,61.2l-27.2,19c-1.7-1.8-3.8-3.4-6.1-4.6l0,0c-0.2-0.1-0.4-0.2-0.7-0.3l0,0C472.9,933.7,467.1,933.7,462.1,935.6
								 M589.2,939.5c-3.5,0-7.1,0.5-10.6,1.7l0,0c-5.5,1.8-10.3,5.1-14,9.3l0,0L523,921.9l63.6-44.5c1.4,1.3,3.1,2.5,4.9,3.4l0,0
								c1.3,0.7,2.6,1.2,4,1.5l0,0L589.2,939.5z M581.5,854c-2.6,6.3-2,13.1,1.2,18.6l0,0l-65.2,45.6l-90.9-62.3
								c0.1-0.3,0.3-0.5,0.4-0.8l0,0c2.1-4.3,2.6-9,1.8-13.4l0,0l53.6-19.8c3.2,5.5,7.9,9.9,13.7,12.8l0,0c14.1,7,30.8,2.7,40-9.3
								l0,0L581.5,854z M595.3,940.1l6.3-57.1c1.9-0.1,3.9-0.4,5.8-1.1l0,0c5.3-1.8,9.6-5.5,12.1-10.5l0,0c2.5-5,2.9-10.7,1.1-16
								l0,0c-1.8-5.3-5.5-9.6-10.5-12.1l0,0c-0.2-0.1-0.4-0.2-0.7-0.4l0,0c-0.1-0.1-0.1-0.1-0.3-0.1l0,0l15.2-55.6l51.9,47.8
								c-0.6,0.9-1.2,1.8-1.6,2.7l0,0c-2.5,5-2.9,10.7-1.1,16l0,0c0.9,2.7,2.4,5.2,4.2,7.2l0,0l-70.2,84.3c-1.3-0.9-2.6-1.7-4.1-2.4
								l0,0c-0.4-0.1-0.7-0.4-1.1-0.5l0,0C599.9,941.3,597.7,940.6,595.3,940.1 M483.7,787.6c-0.8,1.2-1.5,2.5-2.2,3.8l0,0
								c-3.8,7.7-4.4,16.5-1.7,24.7l0,0c0,0.1,0.1,0.1,0.1,0.1l0,0l-53.1,19.7c-1-1.8-2.1-3.4-3.6-4.9l0,0l42.5-58.2L483.7,787.6z
								 M619.2,782.7l-16,58.7c-3-0.4-6.1,0-9.1,1l0,0c-3.7,1.3-6.9,3.5-9.3,6.4l0,0l-45.4-28.6c3.8-7.7,4.4-16.5,1.7-24.7l0,0
								c-0.5-1.5-1.1-2.9-1.8-4.2l0,0l53.3-33.1L619.2,782.7z M500,775.2c-4.8,1.6-9,4.3-12.4,7.7l0,0l-18.4-15.1l43.5-59.7
								c0.1,0.1,0.2,0.1,0.3,0.1l0,0c5,2.5,10.7,2.9,16,1.1l0,0c2.4-0.8,4.7-2.1,6.6-3.7l0,0l52.3,48.2L536,786.1
								c-2.9-3.8-6.8-7-11.3-9.2l0,0c-0.4-0.1-0.7-0.4-1.1-0.5l0,0C516.1,773,507.8,772.5,500,775.2 M507.7,704.5l-43.3,59.4
								l-28.7-23.5c0.4-0.7,0.8-1.3,1.1-2.1l0,0c3.3-6.6,4.2-14,2.6-21.1l0,0l63.4-20C503.9,700,505.6,702.5,507.7,704.5
								 M681.9,829.7c-0.5,0.4-1,0.7-1.5,1.1l0,0l-54.3-50l5.7-20.7c5.1,0.8,10.3,0.4,15.4-1.3l0,0c0.2-0.1,0.4-0.1,0.7-0.2l0,0
								L681.9,829.7z M621,776l-23-21.3l12.7-7.8c3,4.3,7.1,7.7,11.9,10.1l0,0c1.1,0.5,2.2,1,3.3,1.4l0,0L621,776z"/>
						</g>
						<polygon class="st1" points="691.6,316.1 686.2,331.2 712.7,341.3 709,320.7 						"/>
						<path class="st1" d="M669.3,310.1l12.5,5.3l-3.2,8.9l-13.1-5.5C665.5,318.8,668.5,314.8,669.3,310.1z"/>
					</g>
				</g>
			</g>
		</g>
		<g>
			<path class="st2" d="M576.5,730.5c23,2.2,63.3,7.8,79.9,24.4c6.7,6.6,8.6,16.2,3.7,24.5c-6.6,11-19.8,16.4-31,20.8
				c-55.4,19.4-135.4,20.4-193.6,13.8c-24.4-3-91.6-12.9-97.7-40.8c-1-4.5,0.1-9.9,2.4-13.7c12.6-20.4,60.9-26.8,83.5-28.9
				c6.8-0.4,7.9,9.1,1.5,10.5c-10.2,2-20.5,4.2-30.5,7c-11.9,3.5-24.1,7.3-34.4,14.1c-2.2,1.5-3.9,2.9-5.2,4.8
				c-0.5,0.8-1.1,1.7-0.7,2.5c1.7,3.3,6,5.8,9.6,7.7c8.6,4.3,18.5,7.1,28,9.4c15.1,3.5,30.4,5.7,45.9,7.4
				c51.7,4.9,104.4,4.4,155.7-4.1c10-1.8,20-4,29.6-7.1c6.4-2.1,21.2-7.7,23-13.8c0-0.7-0.7-1.8-1.2-2.4c-1.3-1.5-2.9-2.9-4.9-4.3
				c-10.4-6.8-22.4-10.6-34.4-14.1c-10-2.8-20.2-5-30.5-7C568.3,739.6,569.8,730.1,576.5,730.5L576.5,730.5z"/>
		</g>
	</g>
</g>
</svg>
