<?xml version="1.0" encoding="UTF-8"?>
<svg id="Layer_1" data-name="Layer 1" xmlns="http://www.w3.org/2000/svg" viewBox="0 0 247.6 247.6">
  <defs>
    <style>
      .cls-1 {
        fill: #fff;
      }

      .cls-2, .cls-3, .cls-4, .cls-5, .cls-6 {
        isolation: isolate;
      }

      .cls-2, .cls-4 {
        fill: none;
        stroke: #68bf56;
        stroke-linecap: round;
        stroke-linejoin: round;
        stroke-width: 5px;
      }

      .cls-2, .cls-4, .cls-5, .cls-6 {
        font-family: ArialMT, Arial;
      }

      .cls-2, .cls-6 {
        font-size: 61.95px;
      }

      .cls-4, .cls-5 {
        font-size: 137.67px;
      }

      .cls-5, .cls-6, .cls-7 {
        fill: #68bf56;
      }
    </style>
  </defs>
  <g id="backgrounds">
    <g id="regular">
      <g id="regular-2" data-name="regular">
        <circle class="cls-1" cx="123.8" cy="123.8" r="111.8"/>
        <path class="cls-7" d="m123.8,18c58.4,0,105.8,47.4,105.8,105.8s-47.4,105.8-105.8,105.8S18,182.2,18,123.8,65.4,18,123.8,18m0-12c-31.5,0-61,12.3-83.3,34.5S6,92.3,6,123.8s12.3,61,34.5,83.3,51.8,34.5,83.3,34.5,61-12.3,83.3-34.5,34.5-51.8,34.5-83.3-12.3-61-34.5-83.3S155.3,6,123.8,6h0Z"/>
      </g>
    </g>
  </g>
  <g id="icons">
    <g id="air-quality">
      <g id="air-quality-2" data-name="air-quality" class="cls-3">
        <text class="cls-5" transform="translate(53.04 162.21)"><tspan x="0" y="0">O</tspan></text>
        <text class="cls-4" transform="translate(53.04 162.21)"><tspan x="0" y="0">O</tspan></text>
        <text class="cls-6" transform="translate(158.94 182.91)"><tspan x="0" y="0">2</tspan></text>
        <text class="cls-2" transform="translate(158.94 182.91)"><tspan x="0" y="0">2</tspan></text>
      </g>
    </g>
  </g>
</svg>