<?xml version="1.0" encoding="UTF-8"?>
<svg id="Layer_1" data-name="Layer 1" xmlns="http://www.w3.org/2000/svg" viewBox="0 0 247.6 247.6">
  <defs>
    <style>
      .cls-1 {
        fill: #fff;
      }

      .cls-2 {
        fill: #68bf56;
      }
    </style>
  </defs>
  <g id="backgrounds">
    <g id="regular">
      <g id="regular-2" data-name="regular">
        <circle class="cls-1" cx="123.8" cy="123.8" r="111.8"/>
        <path class="cls-2" d="m123.8,18c58.4,0,105.8,47.4,105.8,105.8s-47.4,105.8-105.8,105.8S18,182.2,18,123.8,65.4,18,123.8,18m0-12c-31.5,0-61,12.3-83.3,34.5S6,92.3,6,123.8s12.3,61,34.5,83.3,51.8,34.5,83.3,34.5,61-12.3,83.3-34.5,34.5-51.8,34.5-83.3-12.3-61-34.5-83.3S155.3,6,123.8,6h0Z"/>
      </g>
    </g>
  </g>
  <g id="icons">
    <g id="ea-flow">
      <g>
        <path class="cls-2" d="m207.5,118.3c1.6,0,3.1-.7,4.1-1.9.9-1.1,1.4-2.5,1.3-3.9s-.8-2.7-1.9-3.7c-16.5-14-31.5-20.8-45.6-20.8-15,0-27.4,7.6-39.8,16.1l-4.9,3.3v-.1c-.8.5-1.6,1.1-2.4,1.7-12.3,8.5-22.9,15.8-36.1,15.8-11.6,0-23.9-5.8-38.6-18.2-1-.8-2.2-1.3-3.5-1.3-1.6,0-3.1.7-4.1,1.9-.9,1.1-1.4,2.5-1.3,3.9.1,1.4.8,2.7,1.9,3.7,16.5,14,31.5,20.8,45.6,20.8,15,0,27.4-7.6,39.8-16.1l4.9-3.3v.1c.8-.5,1.6-1.1,2.4-1.7,12.3-8.5,22.9-15.8,36.1-15.8,11.6,0,23.9,5.8,38.6,18.2,1,.9,2.2,1.3,3.5,1.3Z"/>
        <path class="cls-2" d="m207.5,94.4c1.6,0,3.1-.7,4.1-1.9.9-1.1,1.4-2.5,1.3-3.9s-.8-2.7-1.9-3.7c-16.5-14-31.5-20.8-45.6-20.8-15,0-27.4,7.6-39.8,16.1l-4.9,3.3v-.1c-.8.5-1.6,1.1-2.4,1.7-12.3,8.5-22.9,15.8-36.1,15.8-11.6,0-23.9-5.8-38.6-18.2-1-.8-2.2-1.3-3.5-1.3-1.6,0-3.1.7-4.1,1.9-.9,1.1-1.4,2.5-1.3,3.9.1,1.4.8,2.7,1.9,3.7,16.5,14,31.5,20.8,45.6,20.8,15,0,27.4-7.6,39.8-16.1l4.9-3.3v.1c.8-.5,1.6-1.1,2.4-1.7,12.3-8.5,22.9-15.8,36.1-15.8,11.6,0,23.9,5.8,38.6,18.2,1,.9,2.2,1.3,3.5,1.3Z"/>
        <path class="cls-2" d="m207.5,142.2c1.6,0,3.1-.7,4.1-1.9.9-1.1,1.4-2.5,1.3-3.9-.1-1.4-.8-2.7-1.9-3.7-16.5-14-31.5-20.8-45.6-20.8-15,0-27.4,7.6-39.8,16.1l-4.9,3.3v-.1c-.8.5-1.6,1.1-2.4,1.7-12.3,8.5-22.9,15.8-36.1,15.8-11.6,0-23.9-5.8-38.6-18.2-1-.8-2.2-1.3-3.5-1.3-1.6,0-3.1.7-4.1,1.9-.9,1.1-1.4,2.5-1.3,3.9.1,1.4.8,2.7,1.9,3.7,16.5,14,31.5,20.8,45.6,20.8,15,0,27.4-7.6,39.8-16.1l4.9-3.3v.1c.8-.5,1.6-1.1,2.4-1.7,12.3-8.5,22.9-15.8,36.1-15.8,11.6,0,23.9,5.8,38.6,18.2,1,.8,2.2,1.3,3.5,1.3Z"/>
        <path class="cls-2" d="m207.5,166.2c1.6,0,3.1-.7,4.1-1.9.9-1.1,1.4-2.5,1.3-3.9-.1-1.4-.8-2.7-1.9-3.7-16.5-14-31.5-20.8-45.6-20.8-15,0-27.4,7.6-39.8,16.1l-4.9,3.3v-.1c-.8.5-1.6,1.1-2.4,1.7-12.3,8.5-22.9,15.8-36.1,15.8-11.6,0-23.9-5.8-38.6-18.2-1-.8-2.2-1.3-3.5-1.3-1.6,0-3.1.7-4.1,1.9-.9,1.1-1.4,2.5-1.3,3.9.1,1.4.8,2.7,1.9,3.7,16.5,14,31.5,20.8,45.6,20.8,15,0,27.4-7.6,39.8-16.1l4.9-3.3v.1c.8-.5,1.6-1.1,2.4-1.7,12.3-8.5,22.9-15.8,36.1-15.8,11.6,0,23.9,5.8,38.6,18.2,1,.8,2.2,1.3,3.5,1.3Z"/>
      </g>
    </g>
  </g>
</svg>