<?xml version="1.0" encoding="UTF-8"?>
<svg id="Layer_1" data-name="Layer 1" xmlns="http://www.w3.org/2000/svg" viewBox="0 0 247.6 247.6">
  <defs>
    <style>
      .cls-1 {
        fill: #fff;
      }

      .cls-2, .cls-3 {
        fill: none;
        stroke: #68bf56;
        stroke-miterlimit: 10;
        stroke-width: 12px;
      }

      .cls-4 {
        fill: #68bf56;
      }

      .cls-3 {
        stroke-linecap: round;
      }
    </style>
  </defs>
  <g id="backgrounds">
    <g id="regular">
      <g id="regular-2" data-name="regular">
        <circle class="cls-1" cx="123.8" cy="123.8" r="111.8"/>
        <path class="cls-4" d="m123.8,18c58.4,0,105.8,47.4,105.8,105.8s-47.4,105.8-105.8,105.8S18,182.2,18,123.8,65.4,18,123.8,18m0-12c-31.5,0-61,12.3-83.3,34.5S6,92.3,6,123.8s12.3,61,34.5,83.3,51.8,34.5,83.3,34.5,61-12.3,83.3-34.5,34.5-51.8,34.5-83.3-12.3-61-34.5-83.3S155.3,6,123.8,6h0Z"/>
      </g>
    </g>
  </g>
  <g id="icons">
    <g id="ea-rainfall">
      <g>
        <path class="cls-2" d="m67.7,88.7c0-16.3,13.2-29.4,29.4-29.4,4,0,11.3,2.2,11.3,2.2,7-7.8,17.2-12.7,28.6-12.7,21.3,0,38.5,17.2,38.5,38.5"/>
        <path class="cls-3" d="m74,141.9c-14.7,0-26.6-11.9-26.6-26.6s11.9-26.6,26.6-26.6c8,0,15.2,3.5,20.1,9.1"/>
        <path class="cls-3" d="m158,92.5c4.3-2.8,9.4-4.4,14.9-4.4,15.1,0,27.3,12.2,27.3,27.3s-12.2,27.3-27.3,27.3"/>
        <line class="cls-2" x1="74" y1="141.9" x2="173" y2="142.5"/>
      </g>
      <g>
        <line class="cls-3" x1="123.8" y1="161.5" x2="123.8" y2="176.8"/>
        <line class="cls-3" x1="167.8" y1="161.5" x2="167.8" y2="176.8"/>
        <line class="cls-3" x1="79.8" y1="161.5" x2="79.8" y2="176.8"/>
        <line class="cls-3" x1="100.8" y1="183.5" x2="100.8" y2="198.8"/>
        <line class="cls-3" x1="146.8" y1="183.5" x2="146.8" y2="198.8"/>
      </g>
    </g>
  </g>
</svg>