<?xml version="1.0" encoding="UTF-8"?>
<svg id="Layer_1" data-name="Layer 1" xmlns="http://www.w3.org/2000/svg" viewBox="0 0 247.6 247.6">
  <defs>
    <style>
      .cls-1 {
        fill: #fff;
      }

      .cls-2 {
        fill: #68bf56;
      }

      .cls-3 {
        stroke-linecap: round;
        stroke-width: 12px;
      }

      .cls-3, .cls-4 {
        fill: none;
        stroke: #68bf56;
        stroke-miterlimit: 10;
      }

      .cls-4 {
        stroke-width: 10px;
      }
    </style>
  </defs>
  <g id="backgrounds">
    <g id="regular">
      <g id="regular-2" data-name="regular">
        <circle class="cls-1" cx="123.8" cy="123.8" r="111.8"/>
        <path class="cls-2" d="m123.8,18c58.4,0,105.8,47.4,105.8,105.8s-47.4,105.8-105.8,105.8S18,182.2,18,123.8,65.4,18,123.8,18m0-12c-31.5,0-61,12.3-83.3,34.5S6,92.3,6,123.8s12.3,61,34.5,83.3,51.8,34.5,83.3,34.5,61-12.3,83.3-34.5,34.5-51.8,34.5-83.3-12.3-61-34.5-83.3S155.3,6,123.8,6h0Z"/>
      </g>
    </g>
  </g>
  <g id="icons">
    <g id="ea-temperature">
      <g>
        <path class="cls-4" d="m123.8,206.1c-19.4,0-35-15.7-35-35,0-12.7,6.7-23.8,16.8-29.9V61.3l.1-4.1c0-8.6,9.5-15.6,18.2-15.6s18.2,7,18.2,15.6v84c10.1,6.2,16.8,17.3,16.8,29.9-.1,19.3-15.7,35-35.1,35"/>
        <g>
          <circle class="cls-2" cx="123.8" cy="171.2" r="21"/>
          <line class="cls-3" x1="123.8" y1="107.7" x2="123.8" y2="150.2"/>
        </g>
      </g>
      <g>
        <path class="cls-2" d="m161,80.6c-1.5,0-2.9-.4-4.2-1.1s-2.3-1.7-3-3-1.1-2.6-1.1-4.2c0-1.5.4-2.9,1.1-4.2.7-1.3,1.7-2.3,3-3s2.6-1.1,4.2-1.1,2.9.4,4.2,1.1,2.2,1.7,3,3c.7,1.3,1.1,2.6,1.1,4.2,0,1.5-.4,2.9-1.1,4.2-.7,1.3-1.7,2.3-3,3-1.2.8-2.6,1.1-4.2,1.1Zm0-4.7c.7,0,1.2-.2,1.8-.5s.9-.7,1.3-1.3c.3-.5.5-1.1.5-1.8,0-.6-.2-1.2-.5-1.8-.3-.5-.7-.9-1.3-1.3-.5-.3-1.1-.5-1.8-.5s-1.2.2-1.8.5c-.5.3-1,.7-1.3,1.3-.3.5-.5,1.1-.5,1.8,0,.6.2,1.2.5,1.8.3.5.7,1,1.3,1.3s1.2.5,1.8.5Z"/>
        <path class="cls-2" d="m205.4,76.4h-7.4c-.1-1-.4-1.8-.8-2.6-.4-.7-1-1.4-1.6-1.9-.7-.5-1.4-.9-2.3-1.2-.8-.3-1.8-.4-2.8-.4-1.8,0-3.3.4-4.7,1.3-1.3.9-2.4,2.2-3.1,3.8s-1.1,3.7-1.1,6.1.4,4.5,1.1,6.2c.7,1.7,1.8,2.9,3.1,3.8s2.9,1.3,4.6,1.3c1,0,1.9-.1,2.7-.4s1.6-.6,2.2-1.1c.7-.5,1.2-1.1,1.6-1.8s.7-1.5.9-2.5h7.4c-.2,1.6-.7,3.1-1.4,4.6s-1.8,2.8-3.1,3.9c-1.3,1.2-2.8,2.1-4.6,2.7-1.8.7-3.7,1-6,1-3.1,0-5.8-.7-8.3-2.1s-4.3-3.4-5.7-6.1c-1.4-2.6-2.1-5.8-2.1-9.6s.7-7,2.1-9.6c1.4-2.6,3.3-4.7,5.8-6s5.2-2.1,8.2-2.1c2,0,3.9.3,5.6.8s3.2,1.4,4.6,2.5c1.3,1.1,2.4,2.4,3.2,3.9,1.1,1.7,1.7,3.5,1.9,5.5Z"/>
      </g>
    </g>
  </g>
</svg>