<?xml version="1.0" encoding="UTF-8"?>
<svg id="Layer_1" data-name="Layer 1" xmlns="http://www.w3.org/2000/svg" viewBox="0 0 247.6 247.6">
  <defs>
    <style>
      .cls-1 {
        fill: #fff;
      }

      .cls-2, .cls-3 {
        fill: none;
        stroke: #68bf56;
        stroke-miterlimit: 10;
        stroke-width: 12px;
      }

      .cls-4 {
        fill: #68bf56;
      }

      .cls-3 {
        stroke-linecap: round;
      }
    </style>
  </defs>
  <g id="backgrounds">
    <g id="regular">
      <g id="regular-2" data-name="regular">
        <circle class="cls-1" cx="123.8" cy="123.8" r="111.8"/>
        <path class="cls-4" d="m123.8,18c58.4,0,105.8,47.4,105.8,105.8s-47.4,105.8-105.8,105.8S18,182.2,18,123.8,65.4,18,123.8,18m0-12c-31.5,0-61,12.3-83.3,34.5S6,92.3,6,123.8s12.3,61,34.5,83.3,51.8,34.5,83.3,34.5,61-12.3,83.3-34.5,34.5-51.8,34.5-83.3-12.3-61-34.5-83.3S155.3,6,123.8,6h0Z"/>
      </g>
    </g>
  </g>
  <g id="icons">
    <g id="weather">
      <path class="cls-2" d="m91.3,138.7c0-12.8,10.3-23.1,23.1-23.1,3.1,0,8.9,1.8,8.9,1.8,5.5-6.1,13.5-10,22.4-10,16.7,0,30.3,13.5,30.3,30.3"/>
      <path class="cls-3" d="m96.3,180.5c-11.5,0-20.9-9.4-20.9-20.9s9.4-20.9,20.9-20.9c6.3,0,11.9,2.8,15.8,7.2"/>
      <path class="cls-3" d="m162.3,141.7c3.4-2.2,7.4-3.5,11.7-3.5,11.8,0,21.4,9.6,21.4,21.4s-9.6,21.4-21.4,21.4"/>
      <line class="cls-2" x1="96.3" y1="180.5" x2="174" y2="181"/>
      <g>
        <path class="cls-3" d="m85.2,141.9c-8.8-6.9-13.5-18.5-11-30.2,3.5-16.3,19.6-26.7,35.9-23.2,11.4,2.5,20,11.1,22.8,21.7"/>
        <line class="cls-3" x1="113.7" y1="71.6" x2="117" y2="56.6"/>
        <line class="cls-3" x1="42.2" y1="104.9" x2="57.3" y2="108.1"/>
        <g>
          <line class="cls-3" x1="143.6" y1="92.3" x2="156.6" y2="84"/>
          <line class="cls-3" x1="50.9" y1="152.2" x2="63.8" y2="143.9"/>
        </g>
        <line class="cls-3" x1="69.6" y1="65.2" x2="77.9" y2="78.2"/>
      </g>
    </g>
  </g>
</svg>