<?xml version="1.0" encoding="UTF-8"?>
<svg id="Layer_1" data-name="Layer 1" xmlns="http://www.w3.org/2000/svg" viewBox="0 0 247.6 247.6">
  <defs>
    <style>
      .cls-1 {
        fill: #fff;
      }

      .cls-2, .cls-3 {
        stroke-width: 8px;
      }

      .cls-2, .cls-3, .cls-4 {
        fill: none;
        stroke: #68bf56;
        stroke-miterlimit: 10;
      }

      .cls-2, .cls-4 {
        stroke-linecap: round;
      }

      .cls-5, .cls-6 {
        fill: #68bf56;
      }

      .cls-5, .cls-4 {
        font-family: ArialMT, Arial;
        font-size: 60px;
        isolation: isolate;
      }

      .cls-4 {
        stroke-width: 4px;
      }
    </style>
  </defs>
  <g id="backgrounds">
    <g id="regular">
      <g id="regular-2" data-name="regular">
        <circle class="cls-1" cx="123.8" cy="123.8" r="111.8"/>
        <path class="cls-6" d="m123.8,18c58.4,0,105.8,47.4,105.8,105.8s-47.4,105.8-105.8,105.8S18,182.2,18,123.8,65.4,18,123.8,18m0-12c-31.5,0-61,12.3-83.3,34.5S6,92.3,6,123.8s12.3,61,34.5,83.3,51.8,34.5,83.3,34.5,61-12.3,83.3-34.5,34.5-51.8,34.5-83.3-12.3-61-34.5-83.3S155.3,6,123.8,6h0Z"/>
      </g>
    </g>
  </g>
  <g id="icons">
    <g id="weather-obs">
      <g>
        <path class="cls-3" d="m96.1,103c0-11,8.9-19.9,19.9-19.9,2.7,0,7.6,1.5,7.6,1.5,4.8-5.3,11.7-8.6,19.3-8.6,14.4,0,26.1,11.7,26.1,26.1"/>
        <path class="cls-2" d="m100.4,139c-10,0-18-8.1-18-18s8.1-18,18-18c5.4,0,10.3,2.4,13.6,6.2"/>
        <path class="cls-2" d="m157.3,105.5c2.9-1.9,6.4-3,10.1-3,10.2,0,18.5,8.3,18.5,18.5s-8.3,18.5-18.5,18.5"/>
        <line class="cls-3" x1="100.4" y1="139" x2="167.4" y2="139.4"/>
        <g>
          <path class="cls-2" d="m90.8,105.7c-7.6-6-11.6-15.9-9.4-26,3-14.1,16.9-23,30.9-20,9.9,2.1,17.2,9.6,19.7,18.7"/>
          <line class="cls-2" x1="115.4" y1="45.1" x2="118.2" y2="32.2"/>
          <line class="cls-2" x1="53.8" y1="73.8" x2="66.8" y2="76.6"/>
          <g>
            <line class="cls-2" x1="141.2" y1="63" x2="152.4" y2="55.8"/>
            <line class="cls-2" x1="61.2" y1="114.6" x2="72.4" y2="107.4"/>
          </g>
          <line class="cls-2" x1="77.4" y1="39.6" x2="84.6" y2="50.8"/>
        </g>
      </g>
      <text class="cls-5" transform="translate(67.74 204.34)"><tspan x="0" y="0">Obs</tspan></text>
      <text id="weather-obs-2" data-name="weather-obs" class="cls-4" transform="translate(67.74 204.34)"><tspan x="0" y="0">Obs</tspan></text>
    </g>
  </g>
</svg>