<?xml version="1.0" encoding="UTF-8"?>
<svg id="Layer_1" data-name="Layer 1" xmlns="http://www.w3.org/2000/svg" viewBox="0 0 247.6 247.6">
  <defs>
    <style>
      .cls-1 {
        fill: #fff;
      }

      .cls-2 {
        fill: #68bf56;
      }

      .cls-3 {
        fill: none;
        stroke: #68bf56;
        stroke-linecap: round;
        stroke-miterlimit: 10;
        stroke-width: 12px;
      }
    </style>
  </defs>
  <g id="backgrounds">
    <g id="regular">
      <g id="regular-2" data-name="regular">
        <circle class="cls-1" cx="123.8" cy="123.8" r="111.8"/>
        <path class="cls-2" d="m123.8,18c58.4,0,105.8,47.4,105.8,105.8s-47.4,105.8-105.8,105.8S18,182.2,18,123.8,65.4,18,123.8,18m0-12c-31.5,0-61,12.3-83.3,34.5S6,92.3,6,123.8s12.3,61,34.5,83.3,51.8,34.5,83.3,34.5,61-12.3,83.3-34.5,34.5-51.8,34.5-83.3-12.3-61-34.5-83.3S155.3,6,123.8,6h0Z"/>
      </g>
    </g>
  </g>
  <g id="icons">
    <g id="ea-wind">
      <path class="cls-3" d="m85.8,124.3h85.2c13,0,23.6-10.6,23.6-23.6s-10.6-23.6-23.6-23.6-23.6,10.6-23.6,23.6"/>
      <path class="cls-3" d="m53,100.5h50.1c13,0,23.6-10.6,23.6-23.6s-10.6-23.6-23.6-23.6-23.5,10.6-23.5,23.7"/>
      <path class="cls-3" d="m53.9,147.1h95.4c13,0,23.6,10.6,23.6,23.6s-10.6,23.6-23.6,23.6-23.6-10.6-23.6-23.6"/>
    </g>
  </g>
</svg>