<?xml version="1.0" encoding="utf-8"?>
<!-- Generator: Adobe Illustrator 28.0.0, SVG Export Plug-In . SVG Version: 6.00 Build 0)  -->
<svg version="1.1" id="Layer_1" xmlns="http://www.w3.org/2000/svg" xmlns:xlink="http://www.w3.org/1999/xlink" x="0px" y="0px"
	 viewBox="0 0 937.9 643" style="enable-background:new 0 0 937.9 643;" xml:space="preserve">
<style type="text/css">
	.st0{fill:#007554;}
	.st1{fill:#595754;}
</style>
<path class="st0" d="M161.3,457.8v130c0,36.6-18,55.2-55.2,55.2H69.5c-36.6,0-55.2-18.6-55.2-55.2V284.7c0-36.6,18.6-55.2,55.2-55.2
	h35.4c37.2,0,55.2,18.6,55.2,55.2v121.3h-58.7v-115c0-7-2.9-10.5-10.5-10.5h-6.4c-7.6,0-11,3.5-11,10.5v290.3c0,7,3.5,10.5,11,10.5
	h7.6c7,0,10.5-3.5,10.5-10.5V457.7L161.3,457.8L161.3,457.8L161.3,457.8L161.3,457.8z"/>
<path class="st0" d="M360.7,485.6v153.9h-59.3V486.2c0-7-3.5-10.5-11-10.5h-14.5v163.7h-59.9V233.1h88.9c37.2,0,55.2,18.6,55.2,55.2
	v115c0,25.5-9.3,38.3-25.6,44.1C353.1,452.6,360.7,464.2,360.7,485.6L360.7,485.6z M289.8,284.8h-14v140.5h14c7.6,0,11-3.5,11-11
	v-119C300.8,288.3,297.3,284.8,289.8,284.8L289.8,284.8L289.8,284.8z"/>
<path class="st0" d="M468.8,492.6v92.3c0,6.4,2.9,9.3,9.3,9.3h4.7c6.4,0,9.9-2.9,9.9-9.3v-66.2h53.5v72c0,34.8-17.4,52.2-51.7,52.2
	h-29.1c-34.3,0-51.7-17.4-51.7-52.2v-238c0-34.2,17.4-51.7,51.7-51.7h29.1c34.3,0,51.7,17.4,51.7,51.7v139.9L468.8,492.6
	L468.8,492.6z M468.8,449.1h22.7v-91.2c0-6.4-2.9-9.3-9.3-9.3h-4.1c-6.4,0-9.3,2.9-9.3,9.3L468.8,449.1L468.8,449.1L468.8,449.1z"/>
<path class="st0" d="M600.2,233.1h83.7c43.6,0,64,20.9,64,63.9v278.7c0,43-20.3,63.9-64,63.9h-83.7V233.1L600.2,233.1z M660,588.4
	h11.6c11.6,0,16.9-4.7,16.9-16.3V300.4c0-11.6-5.2-16.3-16.9-16.3H660V588.4L660,588.4L660,588.4z"/>
<path class="st0" d="M853,643c-34.3,0-51.7-17.4-51.7-52.2v-238c0-34.2,17.4-51.7,51.7-51.7h33.1c34.9,0,51.7,17.4,51.7,51.7v238
	c0,34.8-16.9,52.2-51.7,52.2H853z M866.4,350.3c-6.4,0-9.3,2.9-9.3,9.3v224.7c0,6.4,2.9,9.3,9.3,9.3h6.4c6.4,0,9.3-2.9,9.3-9.3
	V359.6c0-6.4-2.9-9.3-9.3-9.3L866.4,350.3L866.4,350.3z"/>
<path class="st1" d="M661.9,0c-38.6,0-70.5,28.7-75.4,66H357.2c-4.9-37.2-36.8-66-75.4-66s-70.5,28.7-75.4,66h-54.8
	c-4.9-37.2-36.8-66-75.4-66C34.1,0,0,34,0,76s34.1,76,76.1,76c36.2,0,66.5-25.3,74.2-59.1h57.3c7.7,33.8,38,59.1,74.2,59.1
	s66.5-25.3,74.2-59.1h231.7c7.7,33.8,38,59.1,74.2,59.1c42,0,76.1-34,76.1-76S703.9,0,661.9,0L661.9,0z M76.1,125.1
	C49,125.1,27,103,27,76s22-49.1,49.1-49.1s49.1,22,49.1,49.1S103.2,125.1,76.1,125.1L76.1,125.1z M281.8,125.1
	c-27.1,0-49.1-22-49.1-49.1s22-49.1,49.1-49.1s49.1,22,49.1,49.1S308.9,125.1,281.8,125.1L281.8,125.1z M661.9,125.1
	c-27.1,0-49.1-22-49.1-49.1s22-49.1,49.1-49.1S711,48.9,711,76S688.9,125.1,661.9,125.1L661.9,125.1z"/>
</svg>
