<?xml version="1.0" encoding="iso-8859-1"?>
<!-- Generator: Adobe Illustrator 26.0.1, SVG Export Plug-In . SVG Version: 6.00 Build 0)  -->
<svg version="1.1" id="Layer_1" xmlns="http://www.w3.org/2000/svg" xmlns:xlink="http://www.w3.org/1999/xlink" x="0px" y="0px"
	 viewBox="0 0 256 256" style="enable-background:new 0 0 256 256;" xml:space="preserve">
<g>
	<circle style="fill:#FFFFFF;" cx="128" cy="128" r="107"/>
	<path style="fill:#0050BF;" d="M128,26c56.243,0,102,45.757,102,102s-45.757,102-102,102S26,184.243,26,128S71.757,26,128,26
		 M128,16C66.144,16,16,66.144,16,128s50.144,112,112,112s112-50.144,112-112S189.856,16,128,16L128,16z"/>
</g>
<path style="fill:#0050BF;" d="M128,71.825c0,0-40.125,50.064-40.125,72.225S105.84,184.175,128,184.175
	s40.125-17.965,40.125-40.125S128,71.825,128,71.825z M139.743,177.473c-0.431,0.196-0.884,0.29-1.329,0.29
	c-1.22,0-2.384-0.699-2.923-1.881c-0.735-1.613-0.022-3.517,1.591-4.252c8.191-3.732,14.759-10.296,18.493-18.484
	c0.733-1.613,2.638-2.326,4.252-1.588c1.613,0.735,2.324,2.639,1.588,4.252C157.04,165.405,149.343,173.098,139.743,177.473z"/>
</svg>
