<?xml version="1.0" encoding="utf-8"?>
<!-- Generator: Adobe Illustrator 28.0.0, SVG Export Plug-In . SVG Version: 6.00 Build 0)  -->
<svg version="1.1" id="Layer_1" xmlns="http://www.w3.org/2000/svg" xmlns:xlink="http://www.w3.org/1999/xlink" x="0px" y="0px"
	 viewBox="0 0 1000 1000" style="enable-background:new 0 0 1000 1000;" xml:space="preserve">
<path style="fill:#FFFFFF;" d="M612.3,469H128.8c-18.9,0-34.2,15.3-34.2,34.2v306.5c0,18.9,15.3,34.2,34.2,34.2h483.4
	c18.9,0,34.2-15.3,34.2-34.2V503.2C646.5,484.3,631.1,469,612.3,469z M578.1,537.4v238.1H163V537.4H578.1z"/>
<path style="fill:#FFFFFF;" d="M895.2,526c-7-7.1-16.6-9.6-25.4-6.7l-167.9,53.4c-12.4,3.9-21.1,17.5-21.1,33.1V709
	c0,15.6,8.7,29.3,21.3,33.2l167.9,51.6c2.2,0.7,4.6,1.1,7.1,1.1c6.7,0,13.2-2.8,18.2-8c6.4-6.5,10.1-16,10.1-26.3V552.4
	C905.4,542.1,901.7,532.5,895.2,526z M848.7,596.7v119.8l-111.3-34.2v-50.2L848.7,596.7z"/>
<path style="fill:#FFFFFF;" d="M200.5,236.5c-60.5,0-109.7,47.8-109.7,106.6c0,58.8,49.2,106.6,109.7,106.6s109.7-47.8,109.7-106.6
	C310.2,284.3,261,236.5,200.5,236.5z M241.8,343.1c0,21.1-18.5,38.2-41.3,38.2s-41.3-17.1-41.3-38.2c0-21.1,18.5-38.2,41.3-38.2
	S241.8,322.1,241.8,343.1z"/>
<path style="fill:#FFFFFF;" d="M500.9,156c-83.6,0-151.6,65.9-151.6,146.9c0,81,68,146.9,151.6,146.9c83.6,0,151.6-65.9,151.6-146.9
	C652.5,221.9,584.5,156,500.9,156z M584.1,302.9c0,43.2-37.3,78.4-83.2,78.4s-83.2-35.2-83.2-78.4s37.3-78.4,83.2-78.4
	S584.1,259.6,584.1,302.9z"/>
</svg>
