<?xml version="1.0" encoding="utf-8"?>
<!-- Generator: Adobe Illustrator 28.0.0, SVG Export Plug-In . SVG Version: 6.00 Build 0)  -->
<svg version="1.1" id="Layer_1" xmlns="http://www.w3.org/2000/svg" xmlns:xlink="http://www.w3.org/1999/xlink" x="0px" y="0px"
	 viewBox="0 0 1000 1000" style="enable-background:new 0 0 1000 1000;" xml:space="preserve">
<path style="fill:#FFFFFF;" d="M848.1,349.4c0-15.4,0-28.2-0.6-38.7c-0.7-10.7-2.2-20.9-6.1-30.7c-9.9-25.1-29.7-45-54.9-54.9
	c-9.9-3.9-20-5.4-30.7-6.1c-10.5-0.6-23.3-0.6-38.7-0.6h-10.6c-0.2-5.3-0.4-10.2-0.8-14.6c-1-11.6-3.4-23.2-9.7-34
	c-7-12.1-17-22.2-29.1-29.1c-10.9-6.3-22.4-8.6-34-9.7c-11.3-1-25-1-41.1-1h-53c-14.7,0-26.5,11.9-26.5,26.5s11.9,26.5,26.5,26.5
	h53.1c17,0,28,0,36.3,0.7c7.9,0.7,10.8,1.9,12.3,2.8c4.1,2.3,7.4,5.6,9.7,9.7c0.8,1.5,2,4.3,2.8,12.3c0.7,8.3,0.7,19.3,0.7,36.3
	s0,28-0.7,36.3c-0.7,7.9-1.9,10.8-2.8,12.3c-2.3,4.1-5.6,7.4-9.7,9.7c-1.5,0.8-4.3,2-12.3,2.8c-8.3,0.7-19.3,0.7-36.3,0.7H344.4
	c-17,0-28,0-36.3-0.7c-7.9-0.7-10.8-1.9-12.3-2.8c-4.1-2.3-7.4-5.6-9.7-9.7c-0.8-1.5-2-4.3-2.8-12.3c-0.7-8.3-0.7-19.3-0.7-36.3
	c0-17,0-28,0.7-36.3c0.7-7.9,1.9-10.8,2.8-12.3c2.3-4.1,5.6-7.4,9.7-9.7c1.5-0.8,4.3-2,12.3-2.8c8.3-0.7,19.3-0.7,36.3-0.7h53
	c14.7,0,26.5-11.9,26.5-26.5S412,130,397.5,130h-53c-16.1,0-29.8,0-41.1,1c-11.6,1-23.2,3.4-34,9.7c-12.1,7-22.2,17-29.1,29.1
	c-6.3,10.9-8.6,22.4-9.7,34c-0.5,4.9-0.6,10.3-0.8,16.1c-10.3,3.6-17.8,13.5-17.8,25c0,11.6,7.5,21.4,17.8,25
	c0.1,5.8,0.4,11.2,0.8,16.1c1,11.6,3.4,23.2,9.7,34c7,12.1,17,22.2,29.1,29.1c10.9,6.3,22.4,8.6,34,9.7c11.3,1,25,1,41.1,1h247.5
	c16.1,0,29.8,0,41.1-1c11.6-1,23.2-3.4,34-9.7c12.1-7,22.2-17,29.1-29.1c6.3-10.9,8.6-22.4,9.7-34c0.4-4.4,0.6-9.3,0.8-14.6h10.6
	c16.1,0,26.9,0,35.2,0.6c8.1,0.6,12.1,1.5,14.7,2.5c11.5,4.5,20.4,13.5,24.9,24.9c1,2.6,1.9,6.6,2.5,14.7c0.6,8.4,0.6,19.1,0.6,35.2
	c0,29.6-0.4,37.7-2.5,43.8c-3.7,10.4-11.2,19.1-21,24.3c-4,2.1-9.1,3.5-21.9,5.7l-162.2,24.7c-1,0-1.9,0.1-3,0.3
	c-13.5,2-26,3.9-37.3,5.8h-0.1l0,0c-12.2,2.1-23.1,4.3-32.6,7c-19.2,5.4-36.2,13.5-49.4,28.8c-15.4,17.9-20.5,39.8-22.4,64.7
	c-6.1,0.2-11.8,0.6-17,1.3c-12.6,1.7-25.9,5.6-36.8,16.6c-10.9,10.9-14.9,24.2-16.6,36.8c-1.6,11.8-1.6,26.4-1.6,42.3v141.4
	c0,15.9-0.1,30.5,1.6,42.3c1.7,12.6,5.6,25.9,16.6,36.8c10.9,10.9,24.2,14.9,36.8,16.6c11.8,1.6,26.4,1.6,42.3,1.6
	c15.9,0,30.5,0.1,42.3-1.6c12.6-1.7,25.9-5.6,36.8-16.6c10.9-10.9,14.9-24.2,16.6-36.8c1.6-11.8,1.6-26.4,1.6-42.3V651.4
	c0-15.9,0.1-30.5-1.6-42.3c-1.7-12.6-5.6-25.9-16.6-36.8c-10.9-10.9-24.2-14.9-36.8-16.6c-4.4-0.6-9.2-0.9-14.4-1.2
	c1.7-17.5,4.7-24.8,9.2-30.2c3.9-4.5,9.8-8.5,23.6-12.4c8.1-2.3,17.9-4.2,30.1-6.3l0,0l175.9-26.6c0.6-0.1,1.1-0.1,1.7-0.2
	c7.7-1.1,14.7-2.2,21.3-3.3h0.1l0,0c15.1-2.5,27.6-5.5,38.5-11.3c21.5-11.5,38-30.5,46.1-53.5C848.5,394,848.1,374.7,848.1,349.4z
	 M426.5,609.8L426.5,609.8L426.5,609.8L426.5,609.8z M426.5,609.8L426.5,609.8L426.5,609.8C426.5,609.8,426.5,609.8,426.5,609.8
	L426.5,609.8z M426.5,609.8L426.5,609.8L426.5,609.8L426.5,609.8z M426.5,834.4L426.5,834.4L426.5,834.4L426.5,834.4z M426.5,834.4
	L426.5,834.4L426.5,834.4L426.5,834.4L426.5,834.4z M426.5,834.4L426.5,834.4L426.5,834.4L426.5,834.4z M509.8,834.4L509.8,834.4
	L509.8,834.4L509.8,834.4z M509.8,609.8L509.8,609.8L509.8,609.8L509.8,609.8z M509.3,609.6c0.2,0.1,0.3,0.1,0.4,0.2
	c0.1,0,0.1,0,0.1,0.1c0,0,0,0,0.1,0.1c0,0.1,0.1,0.2,0.2,0.4c0.3,0.7,0.8,2.5,1.3,5.9c1,7.5,1,17.8,1,35.3v141.4
	c0,17.5-0.1,27.8-1,35.3c-0.5,3.4-1,5.1-1.3,5.9c-0.1,0.2-0.1,0.3-0.2,0.4c0,0.1,0,0.1-0.1,0.1c0,0,0,0-0.1,0.1
	c-0.1,0-0.2,0.1-0.4,0.2c-0.7,0.3-2.5,0.8-5.9,1.3c-7.5,1-17.8,1-35.3,1c-17.5,0-27.8-0.1-35.3-1c-3.4-0.5-5.1-1-5.9-1.3
	c-0.2-0.1-0.3-0.1-0.4-0.2c-0.1,0-0.1,0-0.1-0.1c0,0,0,0-0.1-0.1c0-0.1-0.1-0.2-0.2-0.4c-0.3-0.7-0.8-2.5-1.3-5.9
	c-1-7.5-1-17.8-1-35.3V651.4c0-17.5,0.1-27.8,1-35.3c0.5-3.4,1-5.1,1.3-5.9c0.1-0.2,0.1-0.3,0.2-0.4c0-0.1,0-0.1,0.1-0.1
	c0,0,0,0,0.1-0.1c0.1,0,0.2-0.1,0.4-0.2c0.7-0.3,2.5-0.8,5.9-1.3c7.5-1,17.8-1,35.3-1c17.5,0,27.8,0.1,35.3,1
	C506.8,608.7,508.5,609.3,509.3,609.6z"/>
</svg>
