<?xml version="1.0" encoding="UTF-8"?>
<svg xmlns="http://www.w3.org/2000/svg" xmlns:xlink="http://www.w3.org/1999/xlink" viewBox="0 0 2485.51 1677.17">
  <defs>
    <clipPath id="clippath">
      <rect x="282.75" y="540" width="1920" height="1080" fill="none"/>
    </clipPath>
    <linearGradient id="linear-gradient" x1="1242.75" y1="1620" x2="1242.75" y2="540" gradientUnits="userSpaceOnUse">
      <stop offset="0" stop-color="#5aadc7"/>
      <stop offset=".5" stop-color="#daedf2"/>
    </linearGradient>
    <radialGradient id="radial-gradient" cx="1242.75" cy="540" fx="1242.75" fy="540" r="778.85" gradientUnits="userSpaceOnUse">
      <stop offset="0" stop-color="#fff"/>
      <stop offset=".75" stop-color="#073a49" stop-opacity="0"/>
    </radialGradient>
  </defs>
  <g fill="none" isolation="isolate">
    <g id="Layer_1" data-name="Layer 1">
      <g clip-path="url(#clippath)" fill="none">
        <g>
          <rect x="282.75" y="540" width="1920" height="1080" fill="url(#linear-gradient)"/>
          <g>
            <path d="m42.82,1426.32c.76-.08,1.41-.45,1.93-.93l136.65,137.23c-.65.7-1.04,1.63-.93,2.66.19,1.88,1.87,3.24,3.75,3.05,1.87-.19,3.23-1.87,3.04-3.75-.02-.17-.11-.31-.15-.47l75.93-22.04,119.06,64.23c-.27.56-.46,1.16-.38,1.83.19,1.88,1.86,3.24,3.74,3.05,1.87-.2,3.23-1.87,3.04-3.75-.09-.83-.5-1.54-1.06-2.08l116.12-129.46c1.36,1.18,3.17,1.83,5.09,1.63,3.71-.38,6.41-3.74,6.03-7.5-.01-.11-.05-.2-.06-.31l172.37-31.64c.37,1.66,1.88,2.85,3.62,2.67,1.88-.19,3.24-1.87,3.05-3.74-.11-1.13-.8-2.01-1.7-2.54l120.05-222.54c.56.28,1.17.45,1.83.39,1.88-.2,3.24-1.87,3.05-3.75-.19-1.88-1.87-3.24-3.74-3.05-.72.07-1.33.42-1.84.86l-132.8-143.37c.48-.5.75-1.21.64-2-.09-.69-.45-1.29-.95-1.73l31.87-42.7c.65.45,1.43.71,2.27.62,1.87-.19,3.24-1.87,3.05-3.75-.19-1.87-1.87-3.23-3.75-3.04-.13.01-.24.09-.37.11l-19.49-75.02c1.53-.46,2.6-1.9,2.44-3.56-.08-.78-.46-1.44-.97-1.97l106.36-109.05c.69.63,1.62.99,2.62.89,1.88-.2,3.24-1.87,3.05-3.74-.13-1.32-1.02-2.35-2.18-2.8l50.77-146.5c.66.22,1.36.31,2.09.24,2.79-.29,4.82-2.8,4.52-5.62-.29-2.82-2.79-4.87-5.59-4.59-1.69.17-3.09,1.17-3.87,2.55l-316.87-173.61c.29-.57.47-1.18.4-1.85-.19-1.87-1.87-3.24-3.74-3.05-1.87.2-3.24,1.87-3.05,3.74.12,1.12.79,2.01,1.69,2.54l-139.72,248.07-145.82,26.4c-.37-1.67-1.89-2.86-3.63-2.68-1.87.2-3.24,1.87-3.05,3.75.17,1.68,1.56,2.89,3.19,2.99l-2.82,119.75-201.46,42.13c-.4-1.62-1.89-2.77-3.61-2.59-1.87.2-3.23,1.87-3.04,3.74.19,1.87,1.86,3.24,3.74,3.04.16-.01.28-.09.43-.13l39.57,142.64c-1.49.48-2.53,1.9-2.36,3.55.11,1.09.75,1.97,1.61,2.51l-67.53,121.55c-.57-.31-1.21-.49-1.9-.43-1.88.19-3.24,1.87-3.05,3.75.2,1.87,1.87,3.23,3.75,3.04.31-.03.58-.16.85-.27l51.17,117.55c-2.16.99-3.58,3.25-3.32,5.74.32,3.13,3.11,5.4,6.25,5.08.74-.08,1.43-.3,2.04-.62l27.95,51.66-43.6,31.51c-.7-.89-1.78-1.46-2.99-1.34-1.88.19-3.23,1.87-3.04,3.74.19,1.88,1.87,3.24,3.74,3.05Zm459.66,40.4l-130.6-89.76-7.92-136.93s.02,0,.03,0c.49-.05.93-.21,1.33-.43l139,225.36c-.73.47-1.35,1.06-1.85,1.76Zm184.98-31.23l-164.34-100.99,17.26-157.46c.36.03.72.04,1.09,0,.76-.07,1.46-.31,2.09-.64l144.94,258.06c-.43.26-.77.62-1.04,1.03Zm122.73-227.15l-263.65-36.31c.05-.41.06-.82.02-1.24-.11-1.1-.55-2.08-1.18-2.9l82.82-67.24,182.35,106.68c-.17.32-.29.65-.36,1.01Zm-122.44-277.41l-44.31-18.06,93.16-55.45-44.14,71.96c-.59-.34-1.26-.56-2-.48-1.25.13-2.23.95-2.71,2.02Zm-157.53-441.41l-57.27,227.97c-.56-.13-1.14-.2-1.74-.15-2.88.26-4.93,2.76-4.6,5.6.02.12.05.23.08.35l-20.59,3.72,84.02-237.52s.07.02.1.03Zm-287.37,277.31l81.85,85.83-10.56,18.75-21.29,4.46-50.67-108.52c.26-.13.47-.33.68-.51Zm-206.9,164.89l192.51,78.4c-.37.97-.55,2.02-.43,3.13.06.63.24,1.22.47,1.79l-60.58,25.23-132.33-107.88c.15-.2.25-.44.36-.67Zm41.44,148.89l235.44,80.67c-.23.72-.33,1.51-.24,2.32,0,.02,0,.04.01.06l-245.79,34.27,7.33-115.13c.15,0,.29.06.45.05,1.33-.13,2.37-1.04,2.8-2.23Zm-10.83,117.58l-3.65,57.28-56.82-46.57c.51-.65.78-1.49.71-2.38l59.76-8.33Zm434.67,271.77l-124.71-12.82-1.1-18.97,125.95,31.08c-.05.24-.12.47-.14.71Zm350.36-802.7l-249.08,228.92-45.19-18.42c.17-.47.27-.97.22-1.51-.06-.56-.28-1.05-.57-1.5l294.38-207.83c.08.11.15.23.24.33ZM63.19,1330.04l55.12-28.86,13.5,11.06-68.17,19.06c-.11-.44-.26-.86-.45-1.25Zm183.23,71.14l-10.3-112.72c.51-.05.99-.21,1.44-.41l36.3,78.72-24.31,35.26c-.9-.6-1.98-.93-3.13-.85Zm115.26-161.81l-61.07,88.59-60.84-41.81c.61-.95.92-2.09.8-3.29-.04-.38-.13-.75-.24-1.11l120.22-43.85c.24.6.62,1.11,1.13,1.48Zm-121.81,41.39c-.35-.6-.82-1.1-1.36-1.51l76.65-111.5c1.06.69,2.33,1.06,3.69.92.84-.09,1.62-.37,2.31-.77l23.81,38.61-105.08,74.26Zm82.58-121.58l47.6-45.37,49,36.62c-.41.61-.64,1.34-.59,2.13l-94.57,9.74c-.15-1.21-.67-2.28-1.44-3.12Zm-82.17-142.67c.16-.23.34-.47.47-.72l150.09,77.86-20.81,19.83-129.75-96.97Zm.57-.94c.33-.67.55-1.39.64-2.16l121.57,13.38,30.17,64.6-2.2,2.09-150.18-77.91Zm152.48,76.05l1.88,4.03-3.96-2.06,2.08-1.98Zm-29.99-64.8l87.53,9.63-57.46,54.77-30.07-64.4Zm-121.82-14.17l114.8-.3,6.62,14.18-121.42-13.36c.01-.17,0-.34,0-.52Zm115.07-.3l116.74-.31c0,.06-.02.12-.02.18.09.75.46,1.39.95,1.92l-23.17,22.09-87.86-9.67-6.64-14.21Zm121.34,2.76l10.13,25.18-21.34-2.34,8.94-22.84c.48.17.99.27,1.53.22.28-.02.5-.14.75-.22Zm-11.47,22.81l-15.06-1.66,23.02-21.94c.3.28.64.5,1.02.67l-8.97,22.93Zm-.09.23l-30.71,78.48-40.09-20.8-2.05-4.39,57.66-54.96,15.2,1.67Zm-30.8,78.71l-12.63,32.28c-.46-.17-.95-.26-1.47-.21-.35.04-.66.17-.96.31l-24.77-53.05,39.84,20.67Zm-16.4,33.35l-48.94-36.58,20.84-19.86,4.31,2.24,24.89,53.3c-.43.22-.8.53-1.09.9Zm-.16,3.96l-73.86,52.19-23.81-38.6c1.7-1.1,2.75-3.06,2.58-5.22l94.57-9.74c.07.51.26.96.52,1.37Zm-218.37,103.16l113.2-90.76c.32.4.7.74,1.11,1.04l-76.65,111.5c-.95-.64-2.09-.97-3.3-.85-2.79.29-4.82,2.8-4.52,5.63.02.25.09.48.15.72l-22.11,6.18-9.41-28.31c1.42-.54,2.39-1.91,2.22-3.49-.06-.64-.34-1.18-.7-1.65Zm33.84,31.03l-9.53,51.91-13.16-39.61,19.68-14.23c.73.98,1.79,1.67,3,1.93Zm-22.76,12.06l-3.12-9.41,22.07-6.17c.15.51.39.97.68,1.39l-19.63,14.19Zm88.75,27.73l-26.46,38.38-36.23-78.59c.75-.38,1.39-.93,1.86-1.61l60.83,41.81Zm-55.21,73.23l-20.14-60.64,9.6-52.34c.37.06.76.09,1.15.06l10.31,112.72c-.32.04-.62.1-.91.19Zm-20.39-60.62l-7.56,41.22-55.31-45.33,49.6-35.85,13.27,39.96Zm-63.06-4.26l-29.5-24.16,76.05-21.26,3.16,9.49-49.71,35.93Zm-29.72-24.35l-13.55-11.1,76.46-40.04c.65,1.14,1.92,1.85,3.31,1.71.21-.02.39-.13.59-.18l9.4,28.31-76.21,21.3Zm-69.18,17.42l50.16-32.69,5.04,4.12-55.03,28.82c-.05-.09-.11-.16-.17-.25Zm50.38-32.83l200.29-130.54c.04.06.08.12.12.18l-113.21,90.77c-.7-.82-1.74-1.33-2.89-1.21-1.88.2-3.24,1.87-3.05,3.75.04.4.18.77.35,1.11l-76.56,40.09-5.05-4.14Zm200.66-137.44l-145.8-118.88,60.45-25.18c1.15,2.66,3.88,4.41,6.89,4.1.91-.09,1.75-.37,2.5-.77l77.42,139.5c-.56.33-1.04.73-1.46,1.22Zm-73.79-142.59l129.72,96.94-47.58,45.35c-1.17-1.18-2.82-1.85-4.6-1.67-.74.08-1.44.31-2.06.63l-77.42-139.51c.76-.45,1.43-1.04,1.95-1.74Zm-.4-8.76l79.17-75.7,37.3,79.85-114.69.3c0-.19.01-.36,0-.55-.16-1.52-.81-2.86-1.77-3.9Zm79.36-75.87l42.56-40.69,112.63,118.11c-.6.6-.94,1.4-.95,2.3l-116.88.31-37.37-80.03Zm19.23-65.5l58.96-12.33c.23.63.62,1.19,1.11,1.67l-36.74,35.12-23.33-24.46Zm60.25-10.5c.9.77,2.09,1.24,3.35,1.17.38-.02.72-.1,1.05-.2l72.19,151.79c-.26.13-.47.32-.69.5l-112.65-118.12,36.75-35.14Zm6.97-2l68.57,10.45,2.46,143.98c-.08,0-.14-.03-.22-.03-.35.03-.65.16-.96.29l-72.19-151.81c1.29-.48,2.17-1.56,2.34-2.88Zm-.41-2.25l68.27-28.58.7,41.04-68.52-10.44c.02-.26,0-.53-.04-.8-.07-.43-.22-.84-.42-1.22Zm-1.87-1.9l66.22-122.92c.69.36,1.47.55,2.28.58l1.64,95.4-68.38,28.63c-.41-.7-1.02-1.29-1.76-1.69Zm70.88-122.82l41.72,78.1-42.23,17.68-1.63-95.3c.13,0,.26.02.4,0,.63-.06,1.21-.23,1.74-.48Zm41.84,78.31l36.45,68.24c-.85.49-1.4,1.34-1.59,2.31l-76.49-11.65-.71-41.18,42.34-17.73Zm126.9,107.47l-163.29,97.18c-.09-.13-.19-.23-.29-.35l123.25-113.27,40.33,16.44Zm-163.74,96.65c-.62-.61-1.43-.97-2.33-1.01l-2.46-143.97,76.46,11.64c-.03.25-.09.48-.07.74.19,1.87,1.87,3.24,3.74,3.05,1.25-.13,2.22-.95,2.71-2.02l45.11,18.38-123.16,113.19Zm.52,4.21l53.92,31.55-45.28-4.99-10.17-25.29c.65-.26,1.17-.71,1.53-1.28Zm54.43,31.84l93.85,54.91-82.74,67.17c-1.17-1.39-2.98-2.19-4.92-1.99-.5.05-.97.19-1.42.36l-50.46-125.47,45.7,5.02Zm1.78,123.03l-100.02-51.89,30.74-78.56,21.54,2.37,50.51,125.6c-1.19.5-2.16,1.38-2.77,2.49Zm-.58,1.72l-110.2-17.61c.04-.25.1-.49.07-.75-.13-1.27-.96-2.26-2.03-2.74l12.63-32.28,100.01,51.88c-.23.47-.39.97-.48,1.5Zm-112.73-14.74l38.04,140.47-94.05-57.8c.34-.6.55-1.26.48-2-.1-.98-.61-1.8-1.33-2.35l54.29-78.77c.63.41,1.36.65,2.16.57.15-.01.27-.1.41-.13Zm-60.6,78.06l-16.71-27.1,73.89-52.21c.19.25.38.5.63.69l-54.3,78.78c-.64-.42-1.38-.67-2.2-.59-.48.05-.92.2-1.32.43Zm-.19.16c-1.02.68-1.67,1.85-1.53,3.16.03.24.14.46.21.68l-120.24,43.86c-.07-.19-.14-.38-.24-.56l105.09-74.26,16.72,27.12Zm1.93,6.18l7.91,136.78-70.83-48.68,61.08-88.61c.54.34,1.16.53,1.84.52Zm7.92,137.08l3.52,60.78-77.04-19.02-24-52.04,26.55-38.51,70.98,48.79Zm4.63,80.03l-63.52-6.53-14.51-31.45,76.93,18.98,1.1,19.01Zm-78.45-38.35l-46.13-11.38c.11-.52.16-1.06.11-1.62-.16-1.5-.94-2.77-2.06-3.6l24.22-35.14,23.86,51.74Zm-52.8-17.29c-.84.31-1.57.82-2.14,1.49l-25.38-20.8,7.51-40.93,20.01,60.23Zm-2.95,2.86l-26.72-10.44,2.09-11.45,25.28,20.72c-.27.36-.49.76-.66,1.18Zm-26.95-10.53l-85.79-33.53,32.44-23.46,55.46,45.45-2.12,11.54Zm-86.05-33.64l-65.6-25.63c.27-.77.4-1.6.31-2.46-.02-.18-.08-.36-.11-.54l68.34-19.1,29.57,24.23-32.52,23.51Zm-70.49-33.18l4.53-71.03,49.75,40.78-50.11,32.66c-.95-1.35-2.46-2.26-4.17-2.4Zm8.2-128.83l245.85-34.27c.12.78.4,1.49.79,2.12l-200.35,130.59-49.94-40.94,3.66-57.5Zm10.55-119.92l90.53-37.7,145.9,118.95c-.36.47-.65.99-.86,1.56l-235.44-80.67c.11-.41.17-.84.12-1.3-.03-.31-.16-.57-.26-.85Zm160.86-71.54l63.13-112.08,17.47,37.42-79.23,75.76c-.41-.42-.87-.79-1.37-1.1Zm63.28-112.34l12.81-22.74,23.76-4.97,23.44,24.57-42.5,40.64-17.51-37.5Zm12.96-23.02l10.43-18.51,12.98,13.61-23.41,4.9Zm-13.09,22.75l-8.41-18.01,21.03-4.4-12.62,22.41Zm-57.86-128.05l99.07,54.88-17.75,31.5-81.79-85.76c.18-.18.32-.4.47-.62Zm99.28,54.99l54.68,30.29c-.34.65-.48,1.4-.36,2.21.02.18.08.34.13.5l-59.1,12.36-13.14-13.78,17.78-31.57Zm59.92,28.64l43.3-122.42,20.73-3.75c.35,1.46,1.29,2.68,2.54,3.4l-66.22,122.93c-.11-.06-.24-.1-.36-.15Zm74.25-127.87l373.48-57.01c.02.1.04.21.06.31l-334.41,140.02-41.72-78.09c1.78-.94,2.88-2.89,2.63-5.02,0-.07-.03-.13-.05-.2Zm374.25-55.07l-294.4,207.85c-.7-.91-1.79-1.49-3.01-1.37-.41.05-.79.19-1.14.36l-36.44-68.24,334.34-139.99c.14.51.38.97.66,1.39Zm1.45,1.45l-115.8,188.8-93.71,55.77-40.4-16.46,249.01-228.86c.27.28.56.53.89.75Zm-165.03,265.17l-207.74,77.28c-.05-.12-.07-.24-.13-.35l163.41-97.26,44.45,18.12c-.17.47-.27.98-.21,1.52.03.25.14.47.22.7Zm-207.52,79.51l194.04,47.82s0,.06,0,.09l-139.96-15.4-54.4-31.82c.12-.23.25-.44.32-.69Zm194.57,49.73l-46.51,37.76-93.47-54.68,139.44,15.34c0,.11-.04.2-.02.31.06.48.29.9.56,1.27Zm-151.78,271.76l-61.98-38.09-38.12-140.72c1.19-.37,2.05-1.34,2.28-2.55l110.18,17.6c-.06.44-.09.89-.04,1.36.28,2.68,2.37,4.71,4.93,5.05l-17.25,157.35Zm-.03.27l-14.17,129.29c-.47-.05-.95-.06-1.44-.01-.3.03-.59.11-.88.18l-45.37-167.48,61.86,38.01Zm-18.34,130.2l-138.99-225.39c.37-.25.68-.56.92-.93l94.26,57.92,45.42,167.71c-.57.16-1.11.39-1.61.69Zm-3.11,4.2l-126.01-31.11-3.51-60.66,130.45,89.66c-.43.64-.74,1.34-.93,2.1Zm.05,3.55l-122.01,35.43-2.93-50.62,124.69,12.82c-.03.39-.04.79,0,1.19.04.41.14.8.24,1.18Zm-122.24,35.5l-35.24,10.23-31.11-67.46,63.41,6.52,2.94,50.71Zm.01.24l5.55,96.06s-.02,0-.03,0c-.34.03-.65.17-.95.3l-39.72-86.14,35.15-10.21Zm4.06,96.59l-55.99-81.52,16.54-4.8,39.73,86.15c-.1.05-.19.11-.28.17Zm-56.13-81.73l-52.36-76.25,37.79,3.88,31.15,67.56-16.58,4.81Zm-52.54-76.52l-24.89-36.25c.92-.68,1.61-1.66,1.9-2.8l46.31,11.43,14.53,31.51-37.85-3.89Zm-.32-.03l-41.73-4.29,12.4-31.27c.71.27,1.48.4,2.29.32.84-.09,1.6-.4,2.26-.84l24.77,36.07Zm-41.97-4.31l-25.38-2.61,8.37-45.58,26.67,10.43c-.25.7-.36,1.46-.28,2.25.19,1.92,1.42,3.45,3.05,4.17l-12.43,31.34Zm-.09.23l-26.99,68.06-10.29-5.56,11.93-65.11,25.34,2.6Zm-37.51,62.38l-61.02-32.92-22.69-41.92,95.63,9.83-11.93,65.01Zm10.43,5.9l-20.17,50.89c-.14-.05-.27-.07-.41-.1l10.33-56.32,10.25,5.53Zm-22.82,51.05l-48.42-89.48,60.76,32.78-10.35,56.42c-.27-.04-.54-.11-.83-.08-.41.05-.8.18-1.16.36Zm-49.02-90.07l-87.87-47.4c.16-.33.26-.66.31-1.02l64.96,6.68,22.59,41.75Zm-44.51-82.25l21.78,40.25-64.8-6.66c.01-.19.07-.37.05-.57-.06-.58-.29-1.08-.59-1.53l43.56-31.49Zm.2-.15l40.09-28.98,85.98,33.61-8.38,45.64-95.81-9.85-21.88-40.42Zm-.11-.21l-27.94-51.63c1.11-.64,1.95-1.64,2.42-2.82l65.45,25.59-39.94,28.87ZM4.86,1209.86c.41-.19.77-.46,1.07-.78l56.97,46.69-4.54,71.22c-.27,0-.53-.03-.81,0-.55.05-1.05.21-1.54.41l-51.15-117.54Zm67.86-127.45c.37.2.77.31,1.2.36l-7.34,115.18-59.82,8.34c-.16-1.02-.75-1.83-1.57-2.34l67.53-121.55Zm-38.81-148.89c.6-.19,1.13-.5,1.54-.95l132.23,107.8-90.39,37.64c-.59-1.29-1.91-2.13-3.38-1.98-.16.02-.28.1-.43.14l-39.57-142.65Zm203.7-45.87l-2.79,118.09c-.25,0-.49-.03-.75,0-2.54.26-4.59,1.93-5.51,4.15l-192.49-78.39c.17-.47.27-.98.22-1.51,0-.08-.05-.15-.07-.23l201.38-42.1Zm.24-.05l54.86-11.47,8.51,18.22-63.21,112.21c-.89-.49-1.9-.76-2.95-.82l2.79-118.14Zm2.83-119.92c.1,0,.2.04.3.03.35-.04.66-.17.97-.3l50.66,108.51-54.75,11.44,2.82-119.67Zm148.9-30.21l-46.88,83.23-99.08-54.87c.29-.56.47-1.19.4-1.87,0-.05-.03-.09-.04-.14l145.6-26.36Zm.31-.05l55.85-10.11-43.25,122.27c-.56-.19-1.15-.28-1.76-.25-1.38.08-2.5.77-3.13,1.78l-54.69-30.29,46.98-83.41Zm139.79-248.18c.08.04.15.09.24.13l-84.08,237.68-55.8,10.1,139.64-247.91Zm321.23,172.33c-.43.85-.64,1.83-.53,2.85,0,.05.02.09.03.13l-373.49,57.01c-.41-1.95-1.88-3.48-3.73-4.03l57.29-228c.34.07.68.14,1.05.1,1.12-.12,2-.79,2.54-1.68l316.86,173.61Zm-48.02,153.6c-.43-.13-.88-.18-1.36-.13-1.88.19-3.24,1.87-3.05,3.74.05.47.19.9.4,1.29l-61.57,36.64,115.55-188.4c.25.14.51.27.78.37l-50.76,146.48Zm-109.8,114.63c-.13-.12-.27-.21-.41-.3l44.37-72.34,61.99-36.9c.12.18.26.34.41.49l-106.36,109.05Zm17.94,80.8c-1.37.42-2.32,1.62-2.39,3.06l-228.43-1.83c0-.07.03-.14.02-.22-.03-.28-.16-.51-.25-.76l207.73-77.27c.56,1.36,1.91,2.27,3.45,2.11.14-.02.25-.09.38-.12l19.49,75.03Zm-33.03,48.54c-.49-.36-1.09-.59-1.71-.55-1.09.07-1.9.84-2.12,1.85l-194.03-47.81c.04-.18.04-.37.05-.56l228.43,1.83c0,.09-.03.17-.02.26.1.94.58,1.76,1.26,2.31l-31.86,42.68Zm133.13,147.39c-.18.18-.33.37-.47.58l-182.26-106.63,46.45-37.7c.54.61,1.31,1.01,2.15.96.53-.03.96-.27,1.33-.58l132.8,143.37Zm-119.37,227.81c-.56-.28-1.17-.46-1.83-.39-.44.05-.84.19-1.21.38l-144.94-258.07c1.45-.85,2.45-2.31,2.72-4l263.68,36.32c-.02.22-.09.44-.07.68.11,1.13.8,2.01,1.7,2.55l-120.05,222.54Zm-177.18,35.13c-.54-2.91-2.83-5.09-5.64-5.51l14.17-129.2,164.25,100.94c-.34.59-.56,1.27-.47,2,0,.05.04.09.05.14l-172.35,31.63Zm-127.28,135.68c-.61-.51-1.41-.77-2.25-.76l-5.57-96.14,122.06-35.44c.37,1.14,1.03,2.12,1.87,2.9l-116.11,129.44Zm-123.91-63.2l63.7-18.49,56.04,81.6c-.37.27-.67.61-.89,1l-118.84-64.11Zm-57.9-31.23l27.02-68.15,41.99,4.32,52.43,76.35-63.86,18.54-57.59-31.07Zm-18.44,53.14c-.31-.93-.96-1.65-1.83-2.03l20.18-50.89,57.35,30.94-75.7,21.98Zm-142.11-138.64c.17-.18.29-.39.42-.61l88.19,47.58,48.6,89.79c-.21.12-.38.3-.56.47l-136.65-137.23Z" fill="#fff"/>
            <path d="m2442.69,733.68c-.76.08-1.41.45-1.93.93l-136.65-137.23c.65-.7,1.04-1.63.93-2.66-.19-1.88-1.87-3.24-3.75-3.05-1.87.19-3.23,1.87-3.04,3.75.02.17.11.31.15.47l-75.93,22.04-119.06-64.23c.27-.56.46-1.16.38-1.83-.19-1.88-1.86-3.24-3.74-3.05-1.87.2-3.23,1.87-3.04,3.75.09.83.5,1.54,1.06,2.08l-116.12,129.46c-1.36-1.18-3.17-1.83-5.09-1.63-3.71.38-6.41,3.74-6.03,7.5.01.11.05.2.06.31l-172.37,31.64c-.37-1.66-1.88-2.85-3.62-2.67-1.88.19-3.24,1.87-3.05,3.74.11,1.13.8,2.01,1.7,2.54l-120.05,222.54c-.56-.28-1.17-.45-1.83-.39-1.88.2-3.24,1.87-3.05,3.75.19,1.88,1.87,3.24,3.74,3.05.72-.07,1.33-.42,1.84-.86l132.8,143.37c-.48.5-.75,1.21-.64,2,.09.69.45,1.29.95,1.73l-31.87,42.7c-.65-.45-1.43-.71-2.27-.62-1.87.19-3.24,1.87-3.05,3.75.19,1.87,1.87,3.23,3.75,3.04.13-.01.24-.09.37-.11l19.49,75.02c-1.53.46-2.6,1.9-2.44,3.56.08.78.46,1.44.97,1.97l-106.36,109.05c-.69-.63-1.62-.99-2.62-.89-1.88.2-3.24,1.87-3.05,3.74.13,1.32,1.02,2.35,2.18,2.8l-50.77,146.5c-.66-.22-1.36-.31-2.09-.24-2.79.29-4.82,2.8-4.52,5.62.29,2.82,2.79,4.87,5.59,4.59,1.69-.17,3.09-1.17,3.87-2.55l316.87,173.61c-.29.57-.47,1.18-.4,1.85.19,1.87,1.87,3.24,3.74,3.05,1.87-.2,3.24-1.87,3.05-3.74-.12-1.12-.79-2.01-1.69-2.54l139.72-248.07,145.82-26.4c.37,1.67,1.89,2.86,3.63,2.68,1.87-.2,3.24-1.87,3.05-3.75-.17-1.68-1.56-2.89-3.19-2.99l2.82-119.75,201.46-42.13c.4,1.62,1.89,2.77,3.61,2.59,1.87-.2,3.23-1.87,3.04-3.74-.19-1.87-1.86-3.24-3.74-3.04-.16.01-.28.09-.43.13l-39.57-142.64c1.49-.48,2.53-1.9,2.36-3.55-.11-1.09-.75-1.97-1.61-2.51l67.53-121.55c.57.31,1.21.49,1.9.43,1.88-.19,3.24-1.87,3.05-3.75-.2-1.87-1.87-3.23-3.75-3.04-.31.03-.58.16-.85.27l-51.17-117.55c2.16-.99,3.58-3.25,3.32-5.74-.32-3.13-3.11-5.4-6.25-5.08-.74.08-1.43.3-2.04.62l-27.95-51.66,43.6-31.51c.7.89,1.78,1.46,2.99,1.34,1.88-.19,3.23-1.87,3.04-3.74-.19-1.88-1.87-3.24-3.74-3.05Zm-459.66-40.4l130.6,89.76,7.92,136.93s-.02,0-.03,0c-.49.05-.93.21-1.33.43l-139-225.36c.73-.47,1.35-1.06,1.85-1.76Zm-184.98,31.23l164.34,100.99-17.26,157.46c-.36-.03-.72-.04-1.09,0-.76.07-1.46.31-2.09.64l-144.94-258.06c.43-.26.77-.62,1.04-1.03Zm-122.73,227.15l263.65,36.31c-.05.41-.06.82-.02,1.24.11,1.1.55,2.08,1.18,2.9l-82.82,67.24-182.35-106.68c.17-.32.29-.65.36-1.01Zm122.44,277.41l44.31,18.06-93.16,55.45,44.14-71.96c.59.34,1.26.56,2,.48,1.25-.13,2.23-.95,2.71-2.02Zm157.53,441.41l57.27-227.97c.56.13,1.14.2,1.74.15,2.88-.26,4.93-2.76,4.6-5.6-.02-.12-.05-.23-.08-.35l20.59-3.72-84.02,237.52s-.07-.02-.1-.03Zm287.37-277.31l-81.85-85.83,10.56-18.75,21.29-4.46,50.67,108.52c-.26.13-.47.33-.68.51Zm206.9-164.89l-192.51-78.4c.37-.97.55-2.02.43-3.13-.06-.63-.24-1.22-.47-1.79l60.58-25.23,132.33,107.88c-.15.2-.25.44-.36.67Zm-41.44-148.89l-235.44-80.67c.23-.72.33-1.51.24-2.32,0-.02,0-.04-.01-.06l245.79-34.27-7.33,115.13c-.15,0-.29-.06-.45-.05-1.33.13-2.37,1.04-2.8,2.23Zm10.83-117.58l3.65-57.28,56.82,46.57c-.51.65-.78,1.49-.71,2.38l-59.76,8.33Zm-434.67-271.77l124.71,12.82,1.1,18.97-125.95-31.08c.05-.24.12-.47.14-.71Zm-350.36,802.7l249.08-228.92,45.19,18.42c-.17.47-.27.97-.22,1.51.06.56.28,1.05.57,1.5l-294.38,207.83c-.08-.11-.15-.23-.24-.33Zm788.41-662.78l-55.12,28.86-13.5-11.06,68.17-19.06c.11.44.26.86.45,1.25Zm-183.23-71.14l10.3,112.72c-.51.05-.99.21-1.44.41l-36.3-78.72,24.31-35.26c.9.6,1.98.93,3.13.85Zm-115.26,161.81l61.07-88.59,60.84,41.81c-.61.95-.92,2.09-.8,3.29.04.38.13.75.24,1.11l-120.22,43.85c-.24-.6-.62-1.11-1.13-1.48Zm121.81-41.39c.35.6.82,1.1,1.36,1.51l-76.65,111.5c-1.06-.69-2.33-1.06-3.69-.92-.84.09-1.62.37-2.31.77l-23.81-38.61,105.08-74.26Zm-82.58,121.58l-47.6,45.37-49-36.62c.41-.61.64-1.34.59-2.13l94.57-9.74c.15,1.21.67,2.28,1.44,3.12Zm82.17,142.67c-.16.23-.34.47-.47.72l-150.09-77.86,20.81-19.83,129.75,96.97Zm-.57.94c-.33.67-.55,1.39-.64,2.16l-121.57-13.38-30.17-64.6,2.2-2.09,150.18,77.91Zm-152.48-76.05l-1.88-4.03,3.96,2.06-2.08,1.98Zm29.99,64.8l-87.53-9.63,57.46-54.77,30.07,64.4Zm121.82,14.17l-114.8.3-6.62-14.18,121.42,13.36c-.01.17,0,.34,0,.52Zm-115.07.3l-116.74.31c0-.06.02-.12.02-.18-.09-.75-.46-1.39-.95-1.92l23.17-22.09,87.86,9.67,6.64,14.21Zm-121.34-2.76l-10.13-25.18,21.34,2.34-8.94,22.84c-.48-.17-.99-.27-1.53-.22-.28.02-.5.14-.75.22Zm11.47-22.81l15.06,1.66-23.02,21.94c-.3-.28-.64-.5-1.02-.67l8.97-22.93Zm.09-.23l30.71-78.48,40.09,20.8,2.05,4.39-57.66,54.96-15.2-1.67Zm30.8-78.71l12.63-32.28c.46.17.95.26,1.47.21.35-.04.66-.17.96-.31l24.77,53.05-39.84-20.67Zm16.4-33.35l48.94,36.58-20.84,19.86-4.31-2.24-24.89-53.3c.43-.22.8-.53,1.09-.9Zm.16-3.96l73.86-52.19,23.81,38.6c-1.7,1.1-2.75,3.06-2.58,5.22l-94.57,9.74c-.07-.51-.26-.96-.52-1.37Zm218.37-103.16l-113.2,90.76c-.32-.4-.7-.74-1.11-1.04l76.65-111.5c.95.64,2.09.97,3.3.85,2.79-.29,4.82-2.8,4.52-5.63-.02-.25-.09-.48-.15-.72l22.11-6.18,9.41,28.31c-1.42.54-2.39,1.91-2.22,3.49.06.64.34,1.18.7,1.65Zm-33.84-31.03l9.53-51.91,13.16,39.61-19.68,14.23c-.73-.98-1.79-1.67-3-1.93Zm22.76-12.06l3.12,9.41-22.07,6.17c-.15-.51-.39-.97-.68-1.39l19.63-14.19Zm-88.75-27.73l26.46-38.38,36.23,78.59c-.75.38-1.39.93-1.86,1.61l-60.83-41.81Zm55.21-73.23l20.14,60.64-9.6,52.34c-.37-.06-.76-.09-1.15-.06l-10.31-112.72c.32-.04.62-.1.91-.19Zm20.39,60.62l7.56-41.22,55.31,45.33-49.6,35.85-13.27-39.96Zm63.06,4.26l29.5,24.16-76.05,21.26-3.16-9.49,49.71-35.93Zm29.72,24.35l13.55,11.1-76.46,40.04c-.65-1.14-1.92-1.85-3.31-1.71-.21.02-.39.13-.59.18l-9.4-28.31,76.21-21.3Zm69.18-17.42l-50.16,32.69-5.04-4.12,55.03-28.82c.05.09.11.16.17.25Zm-50.38,32.83l-200.29,130.54c-.04-.06-.08-.12-.12-.18l113.21-90.77c.7.82,1.74,1.33,2.89,1.21,1.88-.2,3.24-1.87,3.05-3.75-.04-.4-.18-.77-.35-1.11l76.56-40.09,5.05,4.14Zm-200.66,137.44l145.8,118.88-60.45,25.18c-1.15-2.66-3.88-4.41-6.89-4.1-.91.09-1.75.37-2.5.77l-77.42-139.5c.56-.33,1.04-.73,1.46-1.22Zm73.79,142.59l-129.72-96.94,47.58-45.35c1.17,1.18,2.82,1.85,4.6,1.67.74-.08,1.44-.31,2.06-.63l77.42,139.51c-.76.45-1.43,1.04-1.95,1.74Zm.4,8.76l-79.17,75.7-37.3-79.85,114.69-.3c0,.19-.01.36,0,.55.16,1.52.81,2.86,1.77,3.9Zm-79.36,75.87l-42.56,40.69-112.63-118.11c.6-.6.94-1.4.95-2.3l116.88-.31,37.37,80.03Zm-19.23,65.5l-58.96,12.33c-.23-.63-.62-1.19-1.11-1.67l36.74-35.12,23.33,24.46Zm-60.25,10.5c-.9-.77-2.09-1.24-3.35-1.17-.38.02-.72.1-1.05.2l-72.19-151.79c.26-.13.47-.32.69-.5l112.65,118.12-36.75,35.14Zm-6.97,2l-68.57-10.45-2.46-143.98c.08,0,.14.03.22.03.35-.03.65-.16.96-.29l72.19,151.81c-1.29.48-2.17,1.56-2.34,2.88Zm.41,2.25l-68.27,28.58-.7-41.04,68.52,10.44c-.02.26,0,.53.04.8.07.43.22.84.42,1.22Zm1.87,1.9l-66.22,122.92c-.69-.36-1.47-.55-2.28-.58l-1.64-95.4,68.38-28.63c.41.7,1.02,1.29,1.76,1.69Zm-70.88,122.82l-41.72-78.1,42.23-17.68,1.63,95.3c-.13,0-.26-.02-.4,0-.63.06-1.21.23-1.74.48Zm-41.84-78.31l-36.45-68.24c.85-.49,1.4-1.34,1.59-2.31l76.49,11.65.71,41.18-42.34,17.73Zm-126.9-107.47l163.29-97.18c.09.13.19.23.29.35l-123.25,113.27-40.33-16.44Zm163.74-96.65c.62.61,1.43.97,2.33,1.01l2.46,143.97-76.46-11.64c.03-.25.09-.48.07-.74-.19-1.87-1.87-3.24-3.74-3.05-1.25.13-2.22.95-2.71,2.02l-45.11-18.38,123.16-113.19Zm-.52-4.21l-53.92-31.55,45.28,4.99,10.17,25.29c-.65.26-1.17.71-1.53,1.28Zm-54.43-31.84l-93.85-54.91,82.74-67.17c1.17,1.39,2.98,2.19,4.92,1.99.5-.05.97-.19,1.42-.36l50.46,125.47-45.7-5.02Zm-1.78-123.03l100.02,51.89-30.74,78.56-21.54-2.37-50.51-125.6c1.19-.5,2.16-1.38,2.77-2.49Zm.58-1.72l110.2,17.61c-.04.25-.1.49-.07.75.13,1.27.96,2.26,2.03,2.74l-12.63,32.28-100.01-51.88c.23-.47.39-.97.48-1.5Zm112.73,14.74l-38.04-140.47,94.05,57.8c-.34.6-.55,1.26-.48,2,.1.98.61,1.8,1.33,2.35l-54.29,78.77c-.63-.41-1.36-.65-2.16-.57-.15.01-.27.1-.41.13Zm60.6-78.06l16.71,27.1-73.89,52.21c-.19-.25-.38-.5-.63-.69l54.3-78.78c.64.42,1.38.67,2.2.59.48-.05.92-.2,1.32-.43Zm.19-.16c1.02-.68,1.67-1.85,1.53-3.16-.03-.24-.14-.46-.21-.68l120.24-43.86c.07.19.14.38.24.56l-105.09,74.26-16.72-27.12Zm-1.93-6.18l-7.91-136.78,70.83,48.68-61.08,88.61c-.54-.34-1.16-.53-1.84-.52Zm-7.92-137.08l-3.52-60.78,77.04,19.02,24,52.04-26.55,38.51-70.98-48.79Zm-4.63-80.03l63.52,6.53,14.51,31.45-76.93-18.98-1.1-19.01Zm78.45,38.35l46.13,11.38c-.11.52-.16,1.06-.11,1.62.16,1.5.94,2.77,2.06,3.6l-24.22,35.14-23.86-51.74Zm52.8,17.29c.84-.31,1.57-.82,2.14-1.49l25.38,20.8-7.51,40.93-20.01-60.23Zm2.95-2.86l26.72,10.44-2.09,11.45-25.28-20.72c.27-.36.49-.76.66-1.18Zm26.95,10.53l85.79,33.53-32.44,23.46-55.46-45.45,2.12-11.54Zm86.05,33.64l65.6,25.63c-.27.77-.4,1.6-.31,2.46.02.18.08.36.11.54l-68.34,19.1-29.57-24.23,32.52-23.51Zm70.49,33.18l-4.53,71.03-49.75-40.78,50.11-32.66c.95,1.35,2.46,2.26,4.17,2.4Zm-8.2,128.83l-245.85,34.27c-.12-.78-.4-1.49-.79-2.12l200.35-130.59,49.94,40.94-3.66,57.5Zm-10.55,119.92l-90.53,37.7-145.9-118.95c.36-.47.65-.99.86-1.56l235.44,80.67c-.11.41-.17.84-.12,1.3.03.31.16.57.26.85Zm-160.86,71.54l-63.13,112.08-17.47-37.42,79.23-75.76c.41.42.87.79,1.37,1.1Zm-63.28,112.34l-12.81,22.74-23.76,4.97-23.44-24.57,42.5-40.64,17.51,37.5Zm-12.96,23.02l-10.43,18.51-12.98-13.61,23.41-4.9Zm13.09-22.75l8.41,18.01-21.03,4.4,12.62-22.41Zm57.86,128.05l-99.07-54.88,17.75-31.5,81.79,85.76c-.18.18-.32.4-.47.62Zm-99.28-54.99l-54.68-30.29c.34-.65.48-1.4.36-2.21-.02-.18-.08-.34-.13-.5l59.1-12.36,13.14,13.78-17.78,31.57Zm-59.92-28.64l-43.3,122.42-20.73,3.75c-.35-1.46-1.29-2.68-2.54-3.4l66.22-122.93c.11.06.24.1.36.15Zm-74.25,127.87l-373.48,57.01c-.02-.1-.04-.21-.06-.31l334.41-140.02,41.72,78.09c-1.78.94-2.88,2.89-2.63,5.02,0,.07.03.13.05.2Zm-374.25,55.07l294.4-207.85c.7.91,1.79,1.49,3.01,1.37.41-.05.79-.19,1.14-.36l36.44,68.24-334.34,139.99c-.14-.51-.38-.97-.66-1.39Zm-1.45-1.45l115.8-188.8,93.71-55.77,40.4,16.46-249.01,228.86c-.27-.28-.56-.53-.89-.75Zm165.03-265.17l207.74-77.28c.05.12.07.24.13.35l-163.41,97.26-44.45-18.12c.17-.47.27-.98.21-1.52-.03-.25-.14-.47-.22-.7Zm207.52-79.51l-194.04-47.82s0-.06,0-.09l139.96,15.4,54.4,31.82c-.12.23-.25.44-.32.69Zm-194.57-49.73l46.51-37.76,93.47,54.68-139.44-15.34c0-.11.04-.2.02-.31-.06-.48-.29-.9-.56-1.27Zm151.78-271.76l61.98,38.09,38.12,140.72c-1.19.37-2.05,1.34-2.28,2.55l-110.18-17.6c.06-.44.09-.89.04-1.36-.28-2.68-2.37-4.71-4.93-5.05l17.25-157.35Zm.03-.27l14.17-129.29c.47.05.95.06,1.44.01.3-.03.59-.11.88-.18l45.37,167.48-61.86-38.01Zm18.34-130.2l138.99,225.39c-.37.25-.68.56-.92.93l-94.26-57.92-45.42-167.71c.57-.16,1.11-.39,1.61-.69Zm3.11-4.2l126.01,31.11,3.51,60.66-130.45-89.66c.43-.64.74-1.34.93-2.1Zm-.05-3.55l122.01-35.43,2.93,50.62-124.69-12.82c.03-.39.04-.79,0-1.19-.04-.41-.14-.8-.24-1.18Zm122.24-35.5l35.24-10.23,31.11,67.46-63.41-6.52-2.94-50.71Zm-.01-.24l-5.55-96.06s.02,0,.03,0c.34-.03.65-.17.95-.3l39.72,86.14-35.15,10.21Zm-4.06-96.59l55.99,81.52-16.54,4.8-39.73-86.15c.1-.05.19-.11.28-.17Zm56.13,81.73l52.36,76.25-37.79-3.88-31.15-67.56,16.58-4.81Zm52.54,76.52l24.89,36.25c-.92.68-1.61,1.66-1.9,2.8l-46.31-11.43-14.53-31.51,37.85,3.89Zm.32.03l41.73,4.29-12.4,31.27c-.71-.27-1.48-.4-2.29-.32-.84.09-1.6.4-2.26.84l-24.77-36.07Zm41.97,4.31l25.38,2.61-8.37,45.58-26.67-10.43c.25-.7.36-1.46.28-2.25-.19-1.92-1.42-3.45-3.05-4.17l12.43-31.34Zm.09-.23l26.99-68.06,10.29,5.56-11.93,65.11-25.34-2.6Zm37.51-62.38l61.02,32.92,22.69,41.92-95.63-9.83,11.93-65.01Zm-10.43-5.9l20.17-50.89c.14.05.27.07.41.1l-10.33,56.32-10.25-5.53Zm22.82-51.05l48.42,89.48-60.76-32.78,10.35-56.42c.27.04.54.11.83.08.41-.05.8-.18,1.16-.36Zm49.02,90.07l87.87,47.4c-.16.33-.26.66-.31,1.02l-64.96-6.68-22.59-41.75Zm44.51,82.25l-21.78-40.25,64.8,6.66c-.01.19-.07.37-.05.57.06.58.29,1.08.59,1.53l-43.56,31.49Zm-.2.15l-40.09,28.98-85.98-33.61,8.38-45.64,95.81,9.85,21.88,40.42Zm.11.21l27.94,51.63c-1.11.64-1.95,1.64-2.42,2.82l-65.45-25.59,39.94-28.87Zm84.06,179.34c-.41.19-.77.46-1.07.78l-56.97-46.69,4.54-71.22c.27,0,.53.03.81,0,.55-.05,1.05-.21,1.54-.41l51.15,117.54Zm-67.86,127.45c-.37-.2-.77-.31-1.2-.36l7.34-115.18,59.82-8.34c.16,1.02.75,1.83,1.57,2.34l-67.53,121.55Zm38.81,148.89c-.6.19-1.13.5-1.54.95l-132.23-107.8,90.39-37.64c.59,1.29,1.91,2.13,3.38,1.98.16-.02.28-.1.43-.14l39.57,142.65Zm-203.7,45.87l2.79-118.09c.25,0,.49.03.75,0,2.54-.26,4.59-1.93,5.51-4.15l192.49,78.39c-.17.47-.27.98-.22,1.51,0,.08.05.15.07.23l-201.38,42.1Zm-.24.05l-54.86,11.47-8.51-18.22,63.21-112.21c.89.49,1.9.76,2.95.82l-2.79,118.14Zm-2.83,119.92c-.1,0-.2-.04-.3-.03-.35.04-.66.17-.97.3l-50.66-108.51,54.75-11.44-2.82,119.67Zm-148.9,30.21l46.88-83.23,99.08,54.87c-.29.56-.47,1.19-.4,1.87,0,.05.03.09.04.14l-145.6,26.36Zm-.31.05l-55.85,10.11,43.25-122.27c.56.19,1.15.28,1.76.25,1.38-.08,2.5-.77,3.13-1.78l54.69,30.29-46.98,83.41Zm-139.79,248.18c-.08-.04-.15-.09-.24-.13l84.08-237.68,55.8-10.1-139.64,247.91Zm-321.23-172.33c.43-.85.64-1.83.53-2.85,0-.05-.02-.09-.03-.13l373.49-57.01c.41,1.95,1.88,3.48,3.73,4.03l-57.29,228c-.34-.07-.68-.14-1.05-.1-1.12.12-2,.79-2.54,1.68l-316.86-173.61Zm48.02-153.6c.43.13.88.18,1.36.13,1.88-.19,3.24-1.87,3.05-3.74-.05-.47-.19-.9-.4-1.29l61.57-36.64-115.55,188.4c-.25-.14-.51-.27-.78-.37l50.76-146.48Zm109.8-114.63c.13.12.27.21.41.3l-44.37,72.34-61.99,36.9c-.12-.18-.26-.34-.41-.49l106.36-109.05Zm-17.94-80.8c1.37-.42,2.32-1.62,2.39-3.06l228.43,1.83c0,.07-.03.14-.02.22.03.28.16.51.25.76l-207.73,77.27c-.56-1.36-1.91-2.27-3.45-2.11-.14.02-.25.09-.38.12l-19.49-75.03Zm33.03-48.54c.49.36,1.09.59,1.71.55,1.09-.07,1.9-.84,2.12-1.85l194.03,47.81c-.04.18-.04.37-.05.56l-228.43-1.83c0-.09.03-.17.02-.26-.1-.94-.58-1.76-1.26-2.31l31.86-42.68Zm-133.13-147.39c.18-.18.33-.37.47-.58l182.26,106.63-46.45,37.7c-.54-.61-1.31-1.01-2.15-.96-.53.03-.96.27-1.33.58l-132.8-143.37Zm119.37-227.81c.56.28,1.17.46,1.83.39.44-.05.84-.19,1.21-.38l144.94,258.07c-1.45.85-2.45,2.31-2.72,4l-263.68-36.32c.02-.22.09-.44.07-.68-.11-1.13-.8-2.01-1.7-2.55l120.05-222.54Zm177.18-35.13c.54,2.91,2.83,5.09,5.64,5.51l-14.17,129.2-164.25-100.94c.34-.59.56-1.27.47-2,0-.05-.04-.09-.05-.14l172.35-31.63Zm127.28-135.68c.61.51,1.41.77,2.25.76l5.57,96.14-122.06,35.44c-.37-1.14-1.03-2.12-1.87-2.9l116.11-129.44Zm123.91,63.2l-63.7,18.49-56.04-81.6c.37-.27.67-.61.89-1l118.84,64.11Zm57.9,31.23l-27.02,68.15-41.99-4.32-52.43-76.35,63.86-18.54,57.59,31.07Zm18.44-53.14c.31.93.96,1.65,1.83,2.03l-20.18,50.89-57.35-30.94,75.7-21.98Zm142.11,138.64c-.17.18-.29.39-.42.61l-88.19-47.58-48.6-89.79c.21-.12.38-.3.56-.47l136.65,137.23Z" fill="#fff"/>
          </g>
          <rect x="282.75" width="1920" height="1080" fill="url(#radial-gradient)" mix-blend-mode="lighten" opacity=".25"/>
        </g>
      </g>
    </g>
  </g>
</svg>