<?xml version="1.0" encoding="UTF-8"?><svg id="Layer_1" xmlns="http://www.w3.org/2000/svg" viewBox="0 0 3660 1040"><defs><style>.cls-1{fill:#750014;}</style></defs><path class="cls-1" d="M880,880h160V400h-160v480Zm240-560h400V160h-400v160Zm-240-160h160v160h-160V160Zm-240,720h160V160h-160V880Zm-240-160h160V160h-160V720Zm-240,160h160V160H160V880Zm960,0h160V400h-160v480ZM1737.063,160l28.252,100.42c3.357,12.867,6.713,25.734,8.951,36.364,1.399,6.154,2.517,12.028,3.636,17.623h.56c1.119-5.595,2.238-11.469,3.637-17.623,2.238-10.63,5.035-23.497,8.671-36.364l28.252-100.42h57.902v200h-37.762v-114.685c0-8.112,0-18.182,.839-26.853,.28-4.756,.56-9.791,.839-14.546h-.56c-.839,4.755-1.958,9.231-2.798,13.706-1.958,7.833-3.916,16.784-5.874,24.336l-34.406,118.042h-38.881l-33.567-118.042c-2.238-7.552-3.916-16.503-5.874-24.336-.839-4.476-1.958-8.951-2.798-13.706h-.559c.28,4.755,.559,9.79,.839,14.546,.28,8.671,.839,18.741,.839,26.853v114.685h-37.203V160h57.063Zm251.748,184.056h-.56c-3.637,5.595-8.112,10.35-14.546,13.706-6.714,3.357-15.385,5.595-27.692,5.595-29.651,0-50.07-15.105-50.07-43.916,0-15.665,6.154-26.294,16.784-33.287,10.629-6.993,24.615-10.629,40.839-12.867,24.056-3.357,34.686-5.315,34.686-16.224,0-10.63-7.833-17.063-24.056-17.063-17.902,0-26.574,6.154-27.692,20.14h-33.846c.28-12.867,5.595-24.336,15.664-33.007,10.07-8.671,25.175-14.266,46.154-14.266,43.077,0,60.42,19.021,60.42,52.867v73.007c0,10.909,1.679,17.343,5.035,19.86v1.399h-36.643c-2.238-3.077-3.637-9.511-4.476-15.944Zm-8.392-15.944c5.595-5.035,8.672-11.748,8.672-18.741v-21.539c-6.714,4.196-16.783,6.154-26.574,8.392-20.14,4.476-29.65,8.951-29.65,22.378s8.951,18.182,22.378,18.182c10.909,0,19.301-3.357,25.175-8.672Zm57.9-14.546h35.245c2.518,16.784,13.986,23.777,31.329,23.777,16.784,0,26.294-6.434,26.294-16.504,0-6.714-4.755-10.63-11.468-13.147-6.993-2.518-16.504-3.916-26.294-5.874-13.147-2.518-25.454-5.315-34.965-11.748-9.791-6.434-15.944-15.944-15.944-31.609s6.154-26.853,17.063-34.685c10.63-7.553,24.895-11.189,41.399-11.189,38.322,0,58.462,18.182,61.539,47.553h-34.406c-1.958-15.665-11.189-20.979-27.693-20.979-15.105,0-24.615,5.315-24.615,15.944,0,6.434,4.755,9.511,12.308,11.748,7.273,2.518,17.063,3.637,27.133,5.875,12.028,2.517,24.615,5.315,34.405,11.748,9.791,6.713,16.224,16.783,16.224,33.566,0,14.546-6.154,26.014-16.784,33.846-10.909,7.833-25.734,12.308-43.636,12.308-41.958,0-64.895-19.86-67.133-50.63Zm135.94,0h35.245c2.518,16.784,13.986,23.777,31.329,23.777,16.784,0,26.294-6.434,26.294-16.504,0-6.714-4.756-10.63-11.469-13.147-6.993-2.518-16.504-3.916-26.294-5.874-13.147-2.518-25.454-5.315-34.965-11.748-9.791-6.434-15.944-15.944-15.944-31.609s6.154-26.853,17.063-34.685c10.629-7.553,24.895-11.189,41.398-11.189,38.322,0,58.462,18.182,61.538,47.553h-34.405c-1.958-15.665-11.189-20.979-27.693-20.979-15.105,0-24.615,5.315-24.615,15.944,0,6.434,4.755,9.511,12.308,11.748,7.273,2.518,17.063,3.637,27.133,5.875,12.028,2.517,24.615,5.315,34.405,11.748,9.791,6.713,16.224,16.783,16.224,33.566,0,14.546-6.154,26.014-16.783,33.846-10.91,7.833-25.735,12.308-43.637,12.308-41.958,0-64.895-19.86-67.133-50.63Zm230.766,30.49h-.56c-3.637,5.595-8.112,10.35-14.546,13.706-6.714,3.357-15.385,5.595-27.692,5.595-29.651,0-50.07-15.105-50.07-43.916,0-15.665,6.154-26.294,16.784-33.287,10.629-6.993,24.615-10.629,40.839-12.867,24.056-3.357,34.686-5.315,34.686-16.224,0-10.63-7.833-17.063-24.056-17.063-17.902,0-26.574,6.154-27.692,20.14h-33.846c.28-12.867,5.595-24.336,15.664-33.007,10.07-8.671,25.175-14.266,46.154-14.266,43.077,0,60.42,19.021,60.42,52.867v73.007c0,10.909,1.679,17.343,5.035,19.86v1.399h-36.643c-2.238-3.077-3.637-9.511-4.476-15.944Zm-8.392-15.944c5.595-5.035,8.672-11.748,8.672-18.741v-21.539c-6.714,4.196-16.783,6.154-26.574,8.392-20.14,4.476-29.65,8.951-29.65,22.378s8.951,18.182,22.378,18.182c10.909,0,19.301-3.357,25.175-8.672Zm79.717,13.986c-12.867-13.427-19.86-32.448-19.86-53.706s6.993-40.28,19.581-53.986c12.308-13.427,29.93-21.819,52.028-21.819,18.742,0,33.567,5.595,44.755,14.546,10.909,9.231,17.902,22.378,20.42,38.042h-37.203c-2.518-12.867-12.028-22.098-26.294-22.098-23.217,0-34.685,17.063-34.685,45.315,0,27.413,10.629,45.315,34.126,45.315,15.665,0,26.294-7.832,28.811-24.336h36.643c-1.119,15.385-7.832,28.811-18.741,38.601-11.189,10.07-26.853,16.224-45.874,16.224-22.937,0-40.839-8.392-53.706-22.098Zm172.028-106.853c10.63-15.385,21.818-22.658,41.678-22.658,15.105,0,27.133,5.595,35.804,15.105,8.672,9.79,13.707,22.937,13.707,38.601v93.706h-38.042v-88.112c0-15.664-8.671-26.294-24.895-26.294-16.783,0-29.091,13.147-29.091,33.007v81.398h-38.042V160h38.042v75.245h.839Zm203.636,107.972h-.839c-9.791,13.147-20.979,20.699-41.119,20.699-32.168,0-49.79-19.86-49.79-51.748v-95.664h37.762v89.23c0,16.783,7.273,26.014,23.776,26.014,17.902,0,28.811-13.427,28.811-32.448v-82.797h38.042v143.496h-36.643v-16.783Zm50.63-29.651h35.245c2.518,16.784,13.986,23.777,31.329,23.777,16.784,0,26.294-6.434,26.294-16.504,0-6.714-4.756-10.63-11.469-13.147-6.993-2.518-16.504-3.916-26.294-5.874-13.147-2.518-25.454-5.315-34.965-11.748-9.791-6.434-15.944-15.944-15.944-31.609s6.154-26.853,17.063-34.685c10.629-7.553,24.895-11.189,41.398-11.189,38.322,0,58.462,18.182,61.538,47.553h-34.405c-1.958-15.665-11.189-20.979-27.693-20.979-15.105,0-24.615,5.315-24.615,15.944,0,6.434,4.755,9.511,12.308,11.748,7.273,2.518,17.063,3.637,27.133,5.875,12.028,2.517,24.615,5.315,34.405,11.748,9.791,6.713,16.224,16.783,16.224,33.566,0,14.546-6.154,26.014-16.783,33.846-10.91,7.833-25.735,12.308-43.637,12.308-41.958,0-64.895-19.86-67.133-50.63Zm156.637,28.532c-12.867-13.427-19.301-32.727-19.301-53.986s7.273-40.28,19.86-53.706c12.308-13.427,29.93-21.819,50.909-21.819,23.217,0,40.559,8.672,52.587,24.056,12.028,15.385,18.182,36.643,18.182,62.378h-104.056c3.077,22.378,14.825,35.804,36.643,35.804,15.105,0,23.497-6.714,27.693-17.623h37.482c-2.518,12.867-9.511,24.336-20.42,33.007-11.189,8.671-26.014,13.986-44.475,13.986-24.056,0-42.238-8.392-55.105-22.098Zm18.742-69.37h63.776c-1.119-18.462-12.868-30.77-30.49-30.77-20.14,0-29.93,11.749-33.287,30.77Zm128.111-56.224v-44.755h37.203v44.755h24.616v26.573h-24.616v74.685c0,10.909,5.595,14.266,14.266,14.266h7.273c1.399,0,2.518,0,3.916-.28v27.972c-1.958,.28-3.916,.28-6.154,.28-4.196,.28-10.07,.28-17.623,.28-9.231,0-18.741-1.678-26.294-6.993-7.553-5.315-12.588-13.986-12.588-27.413v-82.797h-19.86v-26.573h19.86Zm88.389,0v-44.755h37.203v44.755h24.616v26.573h-24.616v74.685c0,10.909,5.595,14.266,14.266,14.266h7.273c1.399,0,2.518,0,3.916-.28v27.972c-1.958,.28-3.916,.28-6.154,.28-4.196,.28-10.07,.28-17.623,.28-9.231,0-18.741-1.678-26.294-6.993-7.553-5.315-12.588-13.986-12.588-27.413v-82.797h-19.86v-26.573h19.86Zm72.162,97.062h35.245c2.518,16.784,13.986,23.777,31.329,23.777,16.784,0,26.294-6.434,26.294-16.504,0-6.714-4.756-10.63-11.469-13.147-6.993-2.518-16.504-3.916-26.294-5.874-13.147-2.518-25.454-5.315-34.965-11.748-9.791-6.434-15.944-15.944-15.944-31.609s6.154-26.853,17.063-34.685c10.629-7.553,24.895-11.189,41.398-11.189,38.322,0,58.462,18.182,61.538,47.553h-34.405c-1.958-15.665-11.189-20.979-27.693-20.979-15.105,0-24.615,5.315-24.615,15.944,0,6.434,4.755,9.511,12.308,11.748,7.273,2.518,17.063,3.637,27.133,5.875,12.028,2.517,24.615,5.315,34.405,11.748,9.791,6.713,16.224,16.783,16.224,33.566,0,14.546-6.154,26.014-16.783,33.846-10.91,7.833-25.735,12.308-43.637,12.308-41.958,0-64.895-19.86-67.133-50.63Zm-1646.126,106.434v200h-40.56v-200h40.56Zm64.333,76.084c9.79-15.664,22.657-23.497,42.517-23.497,15.105,0,27.133,5.595,35.804,15.105,8.672,9.79,13.707,22.937,13.707,38.601v93.706h-38.042v-88.112c0-15.664-8.671-26.294-24.895-26.294-16.783,0-29.091,13.147-29.091,33.007v81.398h-38.042v-143.496h37.203v19.58h.839Zm104.895,77.482h35.245c2.518,16.784,13.986,23.777,31.329,23.777,16.784,0,26.294-6.434,26.294-16.504,0-6.714-4.756-10.63-11.469-13.147-6.993-2.518-16.504-3.916-26.294-5.874-13.147-2.518-25.454-5.315-34.965-11.748-9.791-6.434-15.944-15.944-15.944-31.609s6.154-26.853,17.063-34.685c10.629-7.553,24.895-11.189,41.398-11.189,38.322,0,58.462,18.182,61.538,47.553h-34.405c-1.958-15.665-11.189-20.979-27.693-20.979-15.105,0-24.615,5.315-24.615,15.944,0,6.434,4.755,9.511,12.308,11.748,7.273,2.518,17.063,3.637,27.133,5.875,12.028,2.517,24.615,5.315,34.405,11.748,9.791,6.713,16.224,16.783,16.224,33.566,0,14.546-6.154,26.014-16.783,33.846-10.91,7.833-25.735,12.308-43.637,12.308-41.958,0-64.895-19.86-67.133-50.63Zm151.606-97.062v-44.755h37.203v44.755h24.616v26.573h-24.616v74.685c0,10.909,5.595,14.266,14.266,14.266h7.273c1.399,0,2.518,0,3.916-.28v27.972c-1.958,.28-3.916,.28-6.154,.28-4.196,.28-10.07,.28-17.623,.28-9.231,0-18.741-1.678-26.294-6.993-7.553-5.315-12.588-13.986-12.588-27.413v-82.797h-19.86v-26.573h19.86Zm117.759-51.189v34.126h-38.042v-34.126h38.042Zm0,51.189v143.496h-38.042v-143.496h38.042Zm34.406,0v-44.755h37.203v44.755h24.616v26.573h-24.616v74.685c0,10.909,5.595,14.266,14.266,14.266h7.273c1.399,0,2.518,0,3.916-.28v27.972c-1.958,.28-3.916,.28-6.154,.28-4.196,.28-10.07,.28-17.623,.28-9.231,0-18.741-1.678-26.294-6.993-7.553-5.315-12.588-13.986-12.588-27.413v-82.797h-19.86v-26.573h19.86Zm170.346,126.713h-.839c-9.791,13.147-20.979,20.699-41.119,20.699-32.168,0-49.79-19.86-49.79-51.748v-95.664h37.763v89.23c0,16.783,7.273,26.014,23.776,26.014,17.902,0,28.811-13.427,28.811-32.448v-82.797h38.042v143.496h-36.643v-16.783Zm71.05-126.713v-44.755h37.203v44.755h24.616v26.573h-24.616v74.685c0,10.909,5.595,14.266,14.266,14.266h7.273c1.399,0,2.518,0,3.916-.28v27.972c-1.958,.28-3.916,.28-6.154,.28-4.196,.28-10.07,.28-17.623,.28-9.231,0-18.741-1.678-26.294-6.993-7.553-5.315-12.588-13.986-12.588-27.413v-82.797h-19.86v-26.573h19.86Zm90.629,125.594c-12.868-13.427-19.301-32.727-19.301-53.986s7.273-40.28,19.86-53.706c12.308-13.427,29.93-21.819,50.909-21.819,23.217,0,40.559,8.672,52.587,24.056,12.028,15.385,18.182,36.643,18.182,62.378h-104.056c3.077,22.378,14.825,35.804,36.643,35.804,15.105,0,23.497-6.714,27.693-17.623h37.482c-2.518,12.867-9.511,24.336-20.42,33.007-11.189,8.671-26.014,13.986-44.475,13.986-24.056,0-42.238-8.392-55.105-22.098Zm18.741-69.37h63.776c-1.119-18.462-12.868-30.77-30.49-30.77-20.14,0-29.93,11.749-33.287,30.77Zm178.739,69.37c-13.427-13.427-20.979-32.448-20.979-53.706s7.553-40.28,20.979-53.986c13.147-13.427,31.609-21.819,53.986-21.819s40.839,8.392,54.265,21.819c13.147,13.706,20.7,32.727,20.7,53.986s-7.553,40.28-20.7,53.706c-13.427,13.706-31.888,22.098-54.265,22.098s-40.839-8.392-53.986-22.098Zm90.349-53.706c0-28.252-12.867-46.993-36.363-46.993s-36.364,18.742-36.364,46.993c0,27.972,12.867,46.713,36.364,46.713s36.363-18.741,36.363-46.713Zm62.936-71.888v-12.868c0-17.622,6.713-29.37,18.182-36.363,11.189-6.714,27.133-8.951,45.594-6.993v29.371c-17.902-.839-25.734,1.119-25.734,16.224v10.63h25.734v27.412h-25.734v116.084h-38.042v-116.084h-19.581v-27.412h19.581Zm-1095.65,203.496v34.126h-60.14v165.874h-40.559v-165.874h-60.14v-34.126h160.839Zm-4.194,182.098c-12.868-13.427-19.301-32.727-19.301-53.986s7.273-40.28,19.86-53.706c12.308-13.427,29.93-21.819,50.909-21.819,23.217,0,40.559,8.672,52.587,24.056,12.028,15.385,18.182,36.643,18.182,62.378h-104.056c3.077,22.378,14.825,35.804,36.643,35.804,15.105,0,23.497-6.714,27.693-17.623h37.482c-2.518,12.867-9.511,24.336-20.42,33.007-11.189,8.671-26.014,13.986-44.475,13.986-24.056,0-42.238-8.392-55.105-22.098Zm18.741-69.37h63.776c-1.119-18.462-12.868-30.77-30.49-30.77-20.14,0-29.93,11.749-33.287,30.77Zm132.305,69.37c-12.867-13.427-19.86-32.448-19.86-53.706s6.993-40.28,19.581-53.986c12.308-13.427,29.93-21.819,52.028-21.819,18.742,0,33.567,5.595,44.755,14.546,10.909,9.231,17.902,22.378,20.42,38.042h-37.203c-2.518-12.867-12.028-22.098-26.294-22.098-23.217,0-34.685,17.063-34.685,45.315,0,27.413,10.629,45.315,34.126,45.315,15.665,0,26.294-7.832,28.811-24.336h36.643c-1.119,15.385-7.832,28.811-18.741,38.601-11.189,10.07-26.853,16.224-45.874,16.224-22.937,0-40.839-8.392-53.706-22.098Zm172.029-106.853c10.63-15.385,21.818-22.658,41.678-22.658,15.105,0,27.133,5.595,35.804,15.105,8.672,9.79,13.707,22.937,13.707,38.601v93.706h-38.042v-88.112c0-15.664-8.671-26.294-24.895-26.294-16.783,0-29.091,13.147-29.091,33.007v81.398h-38.042v-200h38.042v75.245h.839Zm151.048,.839c9.79-15.664,22.657-23.497,42.517-23.497,15.105,0,27.133,5.595,35.804,15.105,8.672,9.79,13.707,22.937,13.707,38.601v93.706h-38.042v-88.112c0-15.664-8.671-26.294-24.895-26.294-16.783,0-29.091,13.147-29.091,33.007v81.398h-38.042v-143.496h37.203v19.58h.839Zm127.832,106.014c-13.427-13.427-20.979-32.448-20.979-53.706s7.553-40.28,20.979-53.986c13.147-13.427,31.609-21.819,53.986-21.819s40.839,8.392,54.265,21.819c13.147,13.706,20.7,32.727,20.7,53.986s-7.553,40.28-20.7,53.706c-13.427,13.706-31.888,22.098-54.265,22.098s-40.839-8.392-53.986-22.098Zm90.349-53.706c0-28.252-12.867-46.993-36.363-46.993s-36.364,18.742-36.364,46.993c0,27.972,12.867,46.713,36.364,46.713s36.363-18.741,36.363-46.713Zm93.145-128.392v200h-38.042v-200h38.042Zm37.482,182.098c-13.427-13.427-20.979-32.448-20.979-53.706s7.553-40.28,20.979-53.986c13.147-13.427,31.609-21.819,53.986-21.819s40.839,8.392,54.265,21.819c13.147,13.706,20.7,32.727,20.7,53.986s-7.553,40.28-20.7,53.706c-13.427,13.706-31.888,22.098-54.265,22.098s-40.839-8.392-53.986-22.098Zm90.349-53.706c0-28.252-12.867-46.993-36.363-46.993s-36.364,18.742-36.364,46.993c0,27.972,12.867,46.713,36.364,46.713s36.363-18.741,36.363-46.713Zm50.628,75.804h37.762c3.077,8.951,10.909,15.944,28.811,15.944,21.259,0,31.888-9.791,31.888-29.93v-15.665h-.839c-8.672,9.791-19.021,16.783-37.483,16.783-16.224,0-31.608-6.154-43.357-18.182-12.028-11.748-19.86-28.532-19.86-50.35,0-21.259,6.434-38.881,17.623-51.189,10.909-12.308,26.014-19.021,44.475-19.021,17.902,0,31.049,6.993,39.721,19.021h.559v-15.105h36.644v132.587c0,20.14-6.154,33.846-17.063,43.636-12.028,11.189-30.49,16.224-51.748,16.224-39.72,0-62.937-16.784-67.133-44.755Zm92.587-54.825c5.315-6.993,7.832-16.504,7.832-27.413,0-10.63-2.797-20.42-8.392-27.413-5.595-6.993-13.986-11.469-25.734-11.469-19.581,0-32.168,14.825-32.168,39.161,0,24.616,12.588,38.602,32.448,38.602,12.028,0,20.42-4.476,26.014-11.469Zm82.797,67.692c15.385,0,21.259-7.553,21.259-19.581,0-3.637-.56-8.392-2.238-14.266-1.958-5.874-4.476-13.707-8.672-24.616l-38.601-102.098h40l21.259,64.615c2.238,6.713,4.196,14.266,6.154,20.699,.839,3.637,1.958,6.993,3.077,10.63h.56c.839-3.637,1.679-6.993,2.518-10.63,1.399-6.434,3.637-13.986,5.874-20.699l20.14-64.615h38.322l-50.07,147.133c-5.594,16.224-10.909,26.853-18.462,33.566-7.832,6.993-17.622,9.791-32.168,9.791h-22.378v-29.93h13.427Z"/></svg>