<?xml version="1.0" encoding="utf-8"?>
<!-- Generator: Adobe Illustrator 27.7.0, SVG Export Plug-In . SVG Version: 6.00 Build 0)  -->
<svg version="1.1" id="logo-no-text" xmlns="http://www.w3.org/2000/svg" xmlns:xlink="http://www.w3.org/1999/xlink" x="0px"
	 y="0px" viewBox="0 0 829.9 1660" style="enable-background:new 0 0 829.9 1660;" xml:space="preserve">
<style type="text/css">
	.st0{clip-path:url(#SVGID_00000150075902689569205350000008177393154834460055_);}
	.st1{fill:#16687B;}
	.st2{fill:#0B4452;}
	.st3{opacity:0.2;}
	.st4{fill:#7CCBDB;}
	.st5{clip-path:url(#SVGID_00000098179788551449498100000015245968324173137584_);}
</style>
<g>
	<g>
		<defs>
			<path id="SVGID_1_" d="M746.8,330.8c0-4.5-2.4-8.7-6.2-11l-53.2-31.9l53.2-31.8c3.9-2.3,6.3-6.5,6.3-11s-2.4-8.7-6.2-11
				l-319-191.2c-4.1-2.4-9.2-2.4-13.2,0L89.4,234c-3.9,2.3-6.3,6.5-6.2,11c0,4.5,2.4,8.7,6.3,11l53.2,31.8l-53.2,31.9
				c-3.9,2.3-6.3,6.5-6.2,11c0,4.5,2.4,8.7,6.3,11l53.2,31.8l-53.2,31.9c-3.9,2.3-6.3,6.5-6.2,11c0,4.5,2.4,8.7,6.3,11l319,190.4
				c2,1.2,4.3,1.8,6.6,1.8c2.3,0,4.6-0.6,6.6-1.8l319-190.4c3.9-2.3,6.3-6.5,6.3-11s-2.4-8.7-6.2-11l-53.2-31.9l53.2-31.8
				C744.4,339.5,746.8,335.3,746.8,330.8z"/>
		</defs>
		<clipPath id="SVGID_00000158733437892591276670000000553065209634754724_">
			<use xlink:href="#SVGID_1_"  style="overflow:visible;"/>
		</clipPath>
		<g style="clip-path:url(#SVGID_00000158733437892591276670000000553065209634754724_);">
			<g>
				<g>
					<g>
						<g>
							<polygon class="st1" points="733.9,416.5 415,606.9 96,416.5 415,225.3 							"/>
							<path class="st2" d="M415,619.8c-2.3,0-4.6-0.6-6.6-1.8l-319-190.4c-3.9-2.3-6.3-6.5-6.3-11s2.4-8.7,6.2-11l319-191.2
								c4.1-2.4,9.2-2.4,13.2,0l319,191.2c3.9,2.3,6.3,6.5,6.2,11c0,4.5-2.4,8.7-6.3,11L421.4,618
								C419.5,619.2,417.2,619.8,415,619.8z M121,416.5l294,175.4l293.9-175.4L415,240.3L121,416.5z"/>
						</g>
					</g>
				</g>
				<polygon class="st3" points="733.9,375 415,565.4 96,375 415,183.8 				"/>
				<g>
					<g>
						<g>
							<polygon class="st1" points="733.9,330.8 415,521.1 96,330.8 415,139.5 							"/>
							<path class="st2" d="M415,534c-2.3,0-4.6-0.6-6.6-1.8l-319-190.4c-3.9-2.3-6.3-6.5-6.3-11s2.4-8.7,6.2-11l319-191.2
								c4.1-2.4,9.2-2.4,13.2,0l319,191.2c3.9,2.3,6.3,6.5,6.2,11c0,4.5-2.4,8.7-6.3,11l-319,190.4C419.5,533.4,417.2,534,415,534z
								 M121,330.7l294,175.5l293.9-175.4L415,154.5L121,330.7z"/>
						</g>
					</g>
				</g>
				<polygon class="st3" points="733.9,293 415,483.4 96,293 415,101.8 				"/>
				<g>
					<g>
						<g>
							<polygon class="st1" points="733.9,245 415,435.4 96,245 415,53.8 							"/>
							<path class="st2" d="M415,448.2c-2.3,0-4.6-0.6-6.6-1.8L89.4,256c-3.9-2.3-6.3-6.5-6.3-11s2.4-8.7,6.2-11l319-191.2
								c4.1-2.4,9.2-2.4,13.2,0l319,191.2c3.9,2.3,6.3,6.5,6.2,11c0,4.5-2.4,8.7-6.3,11l-319,190.4
								C419.5,447.6,417.2,448.2,415,448.2z M121,245l294,175.4L708.9,245L415,68.8L121,245z"/>
						</g>
					</g>
				</g>
			</g>
			<g id="blue_00000047743683463349392120000009322035155289683612_">
				<path id="bottom_00000004521897303577927780000011950595154916218267_" class="st4" d="M540.6,202.4c-1.6-4.4-6.3-8-11.2-8.8
					c-1-0.4-4.9-0.1-5.5,0.4c-3.2,1.3-4.8,4.4-3.6,8.2l0.1,0.3c0.1,0.3-1,1-2.5,1.6l-44.2,16.3c-1.7,0.6-4.3,0.1-5.9-1.1
					c0,0-3-2.4-6.7-2.4c-5.8,0-10.1,4.4-9.5,10.1l0.1,0.9c0.3,1-0.8,2.4-2.5,3.2l-51.3,24.5c-1.9,0.9-4.7,0.5-6.2-0.9
					c0,0-2.6-2.4-6.4-2.5c-9.8,0-11.7,8.2-11.7,8.2c-1.1,2-2.7,3.9-4.8,4.2l-52.5,8.8c-2.2,0.4-4.7-0.8-5.6-2.6c0,0-2.5-5.1-7.6-5.1
					c-6.6-0.1-13.6,5.7-15.7,13c-2.2,7.6,1.7,14,8.7,14.1c0.3,0,0.6,0,0.8-0.1c10.9,23.1,28.8,42.7,52,56.2c0,8.9,5.2,16,12.6,16
					c4,0,7.8-2,10.7-5.4c13.7,4.7,28.2,7.3,43.2,7.5c0.3,0,0.5,0,0.8,0c17.6,0.1,34.3-3.2,49.5-9.3c2.6,2.3,5.8,3.6,9,3.7
					c7,0.1,11.9-6.2,12.1-14.4c19.1-12,33.9-28.4,43.6-47c0.3,0,0.5,0.1,0.8,0.1c7.2,0.1,11-6.4,8.7-14.3c-0.4-1.5-1.1-2.9-1.8-4.2
					c7.5-23.2,7.6-47.8,0.3-71.3C540.9,208.6,541.8,205.7,540.6,202.4L540.6,202.4z M473.5,229.7c0,0,0.2-0.5-0.2-2.6l-0.1-0.3
					c-0.1-0.4,1.2-1.2,2.9-1.8l44.6-16.7c1.5-0.6,4.1-0.1,5.8,1c0,0,0.1,0.1,0.3,0.2c5.9,20.9,5.1,42.5-2,62.6c-0.3,0-0.6,0-0.9-0.1
					c-2.2,0-2.4,0.1-2.4,0.1c-1.7,0.9-4.7,0.2-6.6-1.5l-39.7-35.4C473.8,234,472.9,231.4,473.5,229.7L473.5,229.7z M460.2,240.6
					c0.7-1.7,2.1-3,2.9-2.8h0.8c2,0,2.2-0.1,2.2-0.1c1.7-0.7,4.4-0.2,5.9,1.2l39.7,36c1.9,1.7,2.9,6,2.9,7.2
					c0.1,1.2-1.6,2.5-3.7,2.8l-64.1,8.5c-2.2,0.3-4.5-0.4-5-1.6c-0.6-1.2-1.8-5.4-0.9-7.6L460.2,240.6L460.2,240.6z M396.5,265
					c0.1-2,1.5-3,3.4-4l52.3-25.3c1.7-0.8,3-1.7,3.4-1.1c0.4,0.6,0.2,2-0.6,3.7L435.6,281c-1,2.1-2.8,3.6-4,3.2h-1.2
					c-3.5,0-5.5,1.5-5.5,1.5c-1.8,1.4-4.8,1.4-6.6,0l-19.4-14.4C395.4,269.1,396.4,266.5,396.5,265L396.5,265z M387.4,276.7
					c1.5-0.4,6.1-1.5,7.9-0.2l19.9,15c1.9,1.4,3.2,3.8,2.9,5.3v1.5v1.8c0.5,1.9-0.7,4.5-2.6,5.9L379,331.6c-2.2,1.5-5.8,0.6-6.6-0.1
					c-0.8-0.6-0.9-3.5-0.1-6.4l11.4-43.6C384.2,279.3,385.9,277.1,387.4,276.7L387.4,276.7z M310.3,282.7c1.6-1.4,3.7-2.6,5.4-2.9
					l53.9-9.1c2.1-0.4,4.6,0.5,5.4,1.8c1.8,1.7,4.6,2.8,2.9,8l-11.9,43c-0.8,2.8-3.3,6.2-5.7,7.5c0,0-0.4,0.2-1.1,0.7
					C337.7,320.4,320.8,303.3,310.3,282.7L310.3,282.7z M416,345.9c-0.2,0-0.5,0-0.7,0c-12.2-0.1-24-2-35.3-5.5
					c0.5-0.5,1-0.9,1.6-1.3l37.5-26.8c2-1.4,5.2-1.4,7.3,0.1c0,0,1.9,1.3,5.2,1.4c2.7,0,3.4-0.4,3.4-0.4c2.1-1.2,5.2-0.5,7,1.4
					l14.1,14.8c2,2.1,2.9,6,2.2,8.8c0,0,0,0.1,0,0.2C445.1,343.4,430.9,346,416,345.9L416,345.9z M478.6,328.7c-2.5-1.9-5.3-3-8.1-3
					c-2.4,0-2.6,0.1-2.6,0.1c-2.1,1.1-5.4,0.3-7.4-1.7L446,309.3c-1.8-1.9-3.1-4.1-2.8-5c0.3-0.9,0.9-3.8,4.7-3.8l65.6-8.8
					c0.6-0.1,1.3,0,2,0.1C506.7,306.4,494.2,319.2,478.6,328.7L478.6,328.7z"/>
				<path id="middle_00000003814896418219066190000011806325695435233672_" class="st4" d="M241.8,274c-4.1,0-8.9-0.9-8.9-5.5
					c0-5.5,6.7-10.3,8.9-11.9c3-2.2,7.1-4.7,12.1-7.4c8.1-4.4,15.9-8.1,16.2-8.2c2.8-1.3,5.5-0.5,6.1,1.9c0.5,2.4-1.4,5.5-4.3,6.9
					c-0.1,0-6.3,3-13.1,6.7c-4.8,2.6-8.1,4.6-10.4,6.2c5.3-0.3,16.2-2,38.1-7.3c31.2-7.7,75.9-20.7,130-37.9
					c50.5-16,85.6-28.1,106.5-36.6c13.9-5.7,19.8-9,22.3-10.8c-3.9-0.2-10,0-15.4,0.7c-2.1,0.2-4.6-1-5.6-2.8
					c-0.9-1.8,0-3.4,2.1-3.6c0.2,0,5.4-0.6,10.9-0.7c7.3-0.2,14.4,0.2,17.5,4.4c2.9,3.9-1.3,6.9-3.1,8.2c-3.5,2.5-9.3,5.5-18,9.3
					c-20.7,9-58,22.4-114,40.6c-60.6,19.7-109.7,34.3-142.1,42c-14.4,3.4-25,5.4-32.1,5.9C244.6,273.9,243.2,274,241.8,274
					L241.8,274z"/>
				<path id="top_00000019653000707043309020000002411214333124297635_" class="st4" d="M519.5,171.7c-9.1-11.5-20-21.2-32-28.9
					c-2.1-1.4-4.3-2.7-6.4-3.9c-1.1-0.6-2.2-1.2-3.3-1.8c-2.2-1.2-4.4-2.3-6.7-3.3c-5.7-2.7-11.6-4.9-17.5-6.7
					c-12.7-3.9-26-5.9-39.5-6c-17.8-0.1-34.9,3.4-50.3,9.6c-3.6-2.2-8.4-3.6-13.8-3.6c-12.9-0.1-25.7,7.6-28.7,17.6
					c-1.3,4.4-0.5,8.6,1.9,12c-13.8,13.1-25.2,30.1-31.8,50.2c-3.8,11.6-5.9,23.9-6,36.4c0,3,2.1,4.9,5.1,4.9c0.7,0,1.4-0.1,2.1-0.3
					c0.6-0.2,2.1-0.7,2.5-0.8l100.7-31.4c1.3-0.4,2.9-1.7,3.4-2.9l2.2-4.9c0.5-1.2-0.1-2.5-1.3-3l-39-15.5c-1.1-0.4-1.3-1.6-0.5-2.5
					l9.1-9.6c0.8-0.9,2.3-1.1,3.3-0.6l12.2,6.7c1,0.6,1,1.6,0,2.2l-3.9,2.4c-1.1,0.7-1.1,1.7,0,2.2l23.3,12.2
					c1.2,0.6,2.2,2.1,2.3,3.3l0.3,4.1c0.1,1.3,1.3,2,2.6,1.6l62.9-19.6c1.2-0.4,1.7-1.6,1.2-2.7l-4.4-9.9c-0.5-1,0.1-2,1.3-2.2
					l4.1-0.6c1.2-0.2,1.3-0.9,0.3-1.7l-26.5-19c-0.9-0.6-2.6-1.1-3.7-1l-6,0.7c-1.1,0.1-1.4-0.3-0.6-0.9l5.5-4.3
					c0.8-0.6,2.2-0.7,3.3-0.3l64,28.1c1.2,0.5,3.1,0.7,4.2,0.4l3.1-1C520.9,176.8,521.4,174.1,519.5,171.7L519.5,171.7z
					 M443.9,144.4c-1-0.4-2.4-0.3-3.2,0.3l-45,36.1c-0.9,0.7-2.5,0.9-3.6,0.3l-19.9-11.4c-1-0.5-2.4-0.3-3.2,0.5l-69.5,70.5
					c0.1-0.4,0.1-0.9,0.1-1.3c-0.3-11.1,1.2-22,4.2-32.4c5.2-17.7,14.6-32.7,26.3-44.7c3.3,1.6,7.4,2.6,11.9,2.6
					c14.7,0.1,27.8-9.2,29.2-20c0.4-3.2-0.3-6.1-1.8-8.7c13.7-5.5,28.9-8.5,44.8-8.4c35.5,0.1,72.1,16.9,94.8,45.8L443.9,144.4
					L443.9,144.4z"/>
			</g>
		</g>
	</g>
</g>
<g>
	<path class="st2" d="M415,962.6c-16.4,0-29.8-13.3-29.8-29.8V731.1c0-16.4,13.3-29.8,29.8-29.8c16.4,0,29.8,13.3,29.8,29.8v201.8
		C444.7,949.3,431.4,962.6,415,962.6z"/>
	<g>
		<path class="st2" d="M339.4,835.9c-7.6,0-15.2-2.9-21-8.7c-11.6-11.6-11.6-30.5,0-42.1l75-75c11.6-11.6,30.5-11.6,42.1,0
			s11.6,30.5,0,42.1l-75,75C354.6,833,347,835.9,339.4,835.9z"/>
		<path class="st2" d="M490.6,835.9c-7.6,0-15.2-2.9-21-8.7l-75-75c-11.6-11.6-11.6-30.5,0-42.1s30.5-11.6,42.1,0l75,75
			c11.6,11.6,11.6,30.5,0,42.1C505.8,833,498.2,835.9,490.6,835.9z"/>
	</g>
</g>
<g>
	<g>
		<defs>
			<path id="SVGID_00000018933964035572466760000013139129209872382642_" d="M647.5,1221.5L494,1068c-3.2-3.2-7.5-5-12-5H328.5
				c-41.4,0-75.3,32.2-78.1,72.9c-40.7,2.8-72.9,36.8-72.9,78.1v307.1c0,43.2,35.1,78.3,78.3,78.3h245.6c41.4,0,75.3-32.2,78.1-72.9
				c40.7-2.8,72.9-36.8,72.9-78.1v-214.9C652.5,1229,650.7,1224.7,647.5,1221.5z"/>
		</defs>
		<clipPath id="SVGID_00000008868213001070961350000011983179441121196187_">
			<use xlink:href="#SVGID_00000018933964035572466760000013139129209872382642_"  style="overflow:visible;"/>
		</clipPath>
		<g style="clip-path:url(#SVGID_00000008868213001070961350000011983179441121196187_);">
			<g transform="translate(3 2)">
				<g>
					<path class="st1" d="M252.8,1150.7c-33.9,0-61.4,27.5-61.4,61.4v307.1c0,33.9,27.5,61.4,61.4,61.4h245.6
						c33.9,0,61.4-27.5,61.4-61.4"/>
					<path class="st2" d="M498.4,1597.5H252.8c-43.2,0-78.3-35.1-78.3-78.3v-307.1c0-43.2,35.1-78.3,78.3-78.3
						c9.3,0,16.9,7.6,16.9,16.9s-7.6,16.9-16.9,16.9c-24.5,0-44.5,20-44.5,44.5v307.1c0,24.5,20,44.5,44.5,44.5h245.6
						c24.5,0,44.5-20,44.5-44.5c0-9.3,7.6-16.9,16.9-16.9s16.9,7.6,16.9,16.9C576.8,1562.3,541.6,1597.5,498.4,1597.5z"/>
				</g>
				<g>
					<g class="st3">
						<g>
							<path d="M612.5,1466.4v-214.9L459,1098H305.5c-33.9,0-61.4,27.5-61.4,61.4v307.1c0,33.9,27.5,61.4,61.4,61.4h245.6
								C585,1527.9,612.5,1500.4,612.5,1466.4z"/>
							<path d="M459,1109.7c0,0,6.5,107.5,6.8,108.6s61.4,37.8,62.7,37.8s72.7-4.6,72.7-4.6s-3.4-17.7-2.4-17.7
								s-132.7-132-132.7-132L459,1109.7z"/>
							<path d="M551.1,1544.8H305.5c-43.2,0-78.3-35.1-78.3-78.3v-307.1c0-43.2,35.1-78.3,78.3-78.3H459c4.5,0,8.8,1.8,12,5
								l153.5,153.5c3.2,3.2,5,7.5,5,12v214.9C629.5,1509.6,594.3,1544.8,551.1,1544.8z M305.5,1114.9c-24.5,0-44.5,20-44.5,44.5
								v307.1c0,24.5,20,44.5,44.5,44.5h245.6c24.5,0,44.5-20,44.5-44.5v-207.9L452,1114.9H305.5z"/>
						</g>
					</g>
					<g>
						<g>
							<path class="st1" d="M632.5,1446.4v-214.9L479,1078H325.5c-33.9,0-61.4,27.5-61.4,61.4v307.1c0,33.9,27.5,61.4,61.4,61.4
								h245.6C605,1507.9,632.5,1480.4,632.5,1446.4z"/>
							<path class="st4" d="M479,1089.7c0,0,6.5,107.5,6.8,108.6s61.4,37.8,62.7,37.8s72.7-4.6,72.7-4.6s-3.4-17.7-2.4-17.7
								s-132.7-132-132.7-132L479,1089.7z"/>
							<path class="st2" d="M571.1,1524.8H325.5c-43.2,0-78.3-35.1-78.3-78.3v-307.1c0-43.2,35.1-78.3,78.3-78.3H479
								c4.5,0,8.8,1.8,12,5l153.5,153.5c3.2,3.2,5,7.5,5,12v214.9C649.5,1489.6,614.3,1524.8,571.1,1524.8z M325.5,1094.9
								c-24.5,0-44.5,20-44.5,44.5v307.1c0,24.5,20,44.5,44.5,44.5h245.6c24.5,0,44.5-20,44.5-44.5v-207.9L472,1094.9H325.5z"/>
						</g>
					</g>
				</g>
				<path class="st2" d="M632.5,1246.5h-92.1c-42.1,0-76.4-34.3-76.4-76.4V1078c0-8.3,6.7-15,15-15s15,6.7,15,15v92.1
					c0,25.6,20.8,46.4,46.4,46.4h92.1c8.3,0,15,6.7,15,15S640.8,1246.5,632.5,1246.5z"/>
			</g>
		</g>
	</g>
</g>
</svg>
