<?xml version="1.0" encoding="utf-8"?>
<!-- Generator: Adobe Illustrator 27.7.0, SVG Export Plug-In . SVG Version: 6.00 Build 0)  -->
<svg version="1.1" id="logo-no-text" xmlns="http://www.w3.org/2000/svg" xmlns:xlink="http://www.w3.org/1999/xlink" x="0px"
	 y="0px" viewBox="0 0 829.9 1660" style="enable-background:new 0 0 829.9 1660;" xml:space="preserve">
<style type="text/css">
	.st0{clip-path:url(#SVGID_00000183944053813573944280000013790008722250144421_);}
	.st1{fill:#16687B;}
	.st2{fill:#0B4452;}
	.st3{opacity:0.2;}
	.st4{fill:#7CCBDB;}
	.st5{clip-path:url(#SVGID_00000086651143648515722070000004648573993715839365_);}
</style>
<g>
	<g>
		<g>
			<defs>
				<path id="SVGID_1_" d="M693.7,409.2c0-3.8-2-7.3-5.2-9.2l-44.7-26.8l44.7-26.7c3.3-1.9,5.3-5.5,5.3-9.2c0-3.8-2-7.3-5.2-9.2
					L420.7,167.5c-3.4-2-7.7-2-11.1,0l-268,160.5c-3.3,1.9-5.3,5.5-5.2,9.2c0,3.8,2,7.3,5.3,9.2l44.7,26.7l-44.7,26.8
					c-3.3,1.9-5.3,5.5-5.2,9.2c0,3.8,2,7.3,5.3,9.2l44.7,26.7l-44.7,26.8c-3.3,1.9-5.3,5.5-5.2,9.2c0,3.8,2,7.3,5.3,9.2l267.9,159.9
					c1.7,1,3.6,1.5,5.5,1.5c1.9,0,3.9-0.5,5.5-1.5l267.9-159.9c3.3-1.9,5.3-5.5,5.3-9.2c0-3.8-2-7.3-5.2-9.2l-44.7-26.8l44.7-26.7
					C691.6,416.5,693.7,413,693.7,409.2z"/>
			</defs>
			<clipPath id="SVGID_00000133524052977766849970000010153614233935878800_">
				<use xlink:href="#SVGID_1_"  style="overflow:visible;"/>
			</clipPath>
			<g style="clip-path:url(#SVGID_00000133524052977766849970000010153614233935878800_);">
				<g>
					<g>
						<g>
							<g>
								<polygon class="st1" points="682.8,481.2 415,641.1 147.1,481.2 415,320.6 								"/>
								<path class="st2" d="M415,651.9c-1.9,0-3.9-0.5-5.5-1.5L141.6,490.5c-3.3-1.9-5.3-5.5-5.3-9.2c0-3.8,2-7.3,5.2-9.2
									l267.9-160.6c3.4-2,7.7-2,11.1,0L688.4,472c3.3,1.9,5.3,5.5,5.2,9.2c0,3.8-2,7.3-5.3,9.2L420.4,650.4
									C418.8,651.4,416.9,651.9,415,651.9z M168.1,481.2L415,628.5l246.8-147.3L415,333.2L168.1,481.2z"/>
							</g>
						</g>
					</g>
					<polygon class="st3" points="682.8,446.3 415,606.2 147.1,446.3 415,285.8 					"/>
					<g>
						<g>
							<g>
								<polygon class="st1" points="682.8,409.2 415,569 147.1,409.2 415,248.6 								"/>
								<path class="st2" d="M415,579.9c-1.9,0-3.9-0.5-5.5-1.5L141.6,418.5c-3.3-1.9-5.3-5.5-5.3-9.2c0-3.8,2-7.3,5.2-9.2
									l267.9-160.6c3.4-2,7.7-2,11.1,0L688.4,400c3.3,1.9,5.3,5.5,5.2,9.2c0,3.8-2,7.3-5.3,9.2L420.4,578.4
									C418.8,579.4,416.9,579.9,415,579.9z M168.1,409.1L415,556.5l246.8-147.3L415,261.2L168.1,409.1z"/>
							</g>
						</g>
					</g>
					<polygon class="st3" points="682.8,377.5 415,537.4 147.1,377.5 415,216.9 					"/>
					<g>
						<g>
							<g>
								<polygon class="st1" points="682.8,337.2 415,497.1 147.1,337.2 415,176.6 								"/>
								<path class="st2" d="M415,507.8c-1.9,0-3.9-0.5-5.5-1.5L141.6,346.4c-3.3-1.9-5.3-5.5-5.3-9.2c0-3.8,2-7.3,5.2-9.2
									l267.9-160.6c3.4-2,7.7-2,11.1,0l267.9,160.6c3.3,1.9,5.3,5.5,5.2,9.2c0,3.8-2,7.3-5.3,9.2L420.4,506.3
									C418.8,507.3,416.9,507.8,415,507.8z M168.1,337.2L415,484.5l246.8-147.3L415,189.2L168.1,337.2z"/>
							</g>
						</g>
					</g>
				</g>
				<g id="blue_00000047743683463349392120000009322035155289683612_">
					<path id="bottom_00000004521897303577927780000011950595154916218267_" class="st4" d="M520.5,301.4c-1.3-3.7-5.3-6.7-9.4-7.4
						c-0.8-0.3-4.1-0.1-4.6,0.3c-2.7,1.1-4,3.7-3,6.9l0.1,0.3c0.1,0.3-0.8,0.8-2.1,1.3l-37.1,13.7c-1.4,0.5-3.6,0.1-5-0.9
						c0,0-2.5-2-5.6-2c-4.9,0-8.5,3.7-8,8.5l0.1,0.8c0.3,0.8-0.7,2-2.1,2.7l-43.1,20.6c-1.6,0.8-3.9,0.4-5.2-0.8c0,0-2.2-2-5.4-2.1
						c-8.2,0-9.8,6.9-9.8,6.9c-0.9,1.7-2.3,3.3-4,3.5l-44.1,7.4c-1.8,0.3-3.9-0.7-4.7-2.2c0,0-2.1-4.3-6.4-4.3
						c-5.5-0.1-11.4,4.8-13.2,10.9c-1.8,6.4,1.4,11.8,7.3,11.8c0.3,0,0.5,0,0.7-0.1c9.2,19.4,24.2,35.9,43.7,47.2
						c0,7.5,4.4,13.4,10.6,13.4c3.4,0,6.6-1.7,9-4.5c11.5,3.9,23.7,6.1,36.3,6.3c0.3,0,0.4,0,0.7,0c14.8,0.1,28.8-2.7,41.6-7.8
						c2.2,1.9,4.9,3,7.6,3.1c5.9,0.1,10-5.2,10.2-12.1c16-10.1,28.5-23.8,36.6-39.5c0.3,0,0.4,0.1,0.7,0.1c6,0.1,9.2-5.4,7.3-12
						c-0.3-1.3-0.9-2.4-1.5-3.5c6.3-19.5,6.4-40.1,0.3-59.9C520.8,306.6,521.5,304.2,520.5,301.4L520.5,301.4z M464.2,324.3
						c0,0,0.2-0.4-0.2-2.2l-0.1-0.3c-0.1-0.3,1-1,2.4-1.5l37.5-14c1.3-0.5,3.4-0.1,4.9,0.8c0,0,0.1,0.1,0.3,0.2
						c5,17.6,4.3,35.7-1.7,52.6c-0.3,0-0.5,0-0.8-0.1c-1.8,0-2,0.1-2,0.1c-1.4,0.8-3.9,0.2-5.5-1.3l-33.3-29.7
						C464.4,327.9,463.7,325.8,464.2,324.3L464.2,324.3z M453,333.5c0.6-1.4,1.8-2.5,2.4-2.4h0.7c1.7,0,1.8-0.1,1.8-0.1
						c1.4-0.6,3.7-0.2,5,1l33.3,30.2c1.6,1.4,2.4,5,2.4,6c0.1,1-1.3,2.1-3.1,2.4l-53.8,7.1c-1.8,0.3-3.8-0.3-4.2-1.3
						c-0.5-1-1.5-4.5-0.8-6.4L453,333.5L453,333.5z M399.5,354c0.1-1.7,1.3-2.5,2.9-3.4l43.9-21.2c1.4-0.7,2.5-1.4,2.9-0.9
						c0.3,0.5,0.2,1.7-0.5,3.1l-16.3,35.9c-0.8,1.8-2.4,3-3.4,2.7h-1c-2.9,0-4.6,1.3-4.6,1.3c-1.5,1.2-4,1.2-5.5,0l-16.3-12.1
						C398.6,357.4,399.4,355.2,399.5,354L399.5,354z M391.9,363.8c1.3-0.3,5.1-1.3,6.6-0.2l16.7,12.6c1.6,1.2,2.7,3.2,2.4,4.5v1.3
						v1.5c0.4,1.6-0.6,3.8-2.2,5l-30.7,21.5c-1.8,1.3-4.9,0.5-5.5-0.1c-0.7-0.5-0.8-2.9-0.1-5.4l9.6-36.6
						C389.2,366,390.6,364.1,391.9,363.8L391.9,363.8z M327.1,368.8c1.3-1.2,3.1-2.2,4.5-2.4l45.3-7.6c1.8-0.3,3.9,0.4,4.5,1.5
						c1.5,1.4,3.9,2.4,2.4,6.7l-10,36.1c-0.7,2.4-2.8,5.2-4.8,6.3c0,0-0.3,0.2-0.9,0.6C350.1,400.5,335.9,386.1,327.1,368.8
						L327.1,368.8z M415.9,421.9c-0.2,0-0.4,0-0.6,0c-10.2-0.1-20.2-1.7-29.6-4.6c0.4-0.4,0.8-0.8,1.3-1.1l31.5-22.5
						c1.7-1.2,4.4-1.2,6.1,0.1c0,0,1.6,1.1,4.4,1.2c2.3,0,2.9-0.3,2.9-0.3c1.8-1,4.4-0.4,5.9,1.2l11.8,12.4c1.7,1.8,2.4,5,1.8,7.4
						c0,0,0,0.1,0,0.2C440.3,419.8,428.4,422,415.9,421.9L415.9,421.9z M468.4,407.5c-2.1-1.6-4.5-2.5-6.8-2.5c-2,0-2.2,0.1-2.2,0.1
						c-1.8,0.9-4.5,0.3-6.2-1.4l-12.2-12.4c-1.5-1.6-2.6-3.4-2.4-4.2c0.3-0.8,0.8-3.2,3.9-3.2l55.1-7.4c0.5-0.1,1.1,0,1.7,0.1
						C492,388.7,481.5,399.5,468.4,407.5L468.4,407.5z"/>
					<path id="middle_00000003814896418219066190000011806325695435233672_" class="st4" d="M269.6,361.5c-3.4,0-7.5-0.8-7.5-4.6
						c0-4.6,5.6-8.6,7.5-10c2.5-1.8,6-3.9,10.2-6.2c6.8-3.7,13.4-6.8,13.6-6.9c2.4-1.1,4.6-0.4,5.1,1.6c0.4,2-1.2,4.6-3.6,5.8
						c-0.1,0-5.3,2.5-11,5.6c-4,2.2-6.8,3.9-8.7,5.2c4.5-0.3,13.6-1.7,32-6.1c26.2-6.5,63.7-17.4,109.2-31.8
						c42.4-13.4,71.9-23.6,89.4-30.7c11.7-4.8,16.6-7.6,18.7-9.1c-3.3-0.2-8.4,0-12.9,0.6c-1.8,0.2-3.9-0.8-4.7-2.4
						c-0.8-1.5,0-2.9,1.8-3c0.2,0,4.5-0.5,9.2-0.6c6.1-0.2,12.1,0.2,14.7,3.7c2.4,3.3-1.1,5.8-2.6,6.9c-2.9,2.1-7.8,4.6-15.1,7.8
						c-17.4,7.6-48.7,18.8-95.7,34.1c-50.9,16.5-92.1,28.8-119.3,35.3c-12.1,2.9-21,4.5-27,5C271.9,361.4,270.8,361.5,269.6,361.5
						L269.6,361.5z"/>
					<path id="top_00000019653000707043309020000002411214333124297635_" class="st4" d="M502.8,275.6c-7.6-9.7-16.8-17.8-26.9-24.3
						c-1.8-1.2-3.6-2.3-5.4-3.3c-0.9-0.5-1.8-1-2.8-1.5c-1.8-1-3.7-1.9-5.6-2.8c-4.8-2.3-9.7-4.1-14.7-5.6c-10.7-3.3-21.8-5-33.2-5
						c-14.9-0.1-29.3,2.9-42.2,8.1c-3-1.8-7.1-3-11.6-3c-10.8-0.1-21.6,6.4-24.1,14.8c-1.1,3.7-0.4,7.2,1.6,10.1
						c-11.6,11-21.2,25.3-26.7,42.2c-3.2,9.7-5,20.1-5,30.6c0,2.5,1.8,4.1,4.3,4.1c0.6,0,1.2-0.1,1.8-0.3c0.5-0.2,1.8-0.6,2.1-0.7
						l84.6-26.4c1.1-0.3,2.4-1.4,2.9-2.4l1.8-4.1c0.4-1-0.1-2.1-1.1-2.5l-32.8-13c-0.9-0.3-1.1-1.3-0.4-2.1l7.6-8.1
						c0.7-0.8,1.9-0.9,2.8-0.5l10.2,5.6c0.8,0.5,0.8,1.3,0,1.8l-3.3,2c-0.9,0.6-0.9,1.4,0,1.8l19.6,10.2c1,0.5,1.8,1.8,1.9,2.8
						l0.3,3.4c0.1,1.1,1.1,1.7,2.2,1.3l52.8-16.5c1-0.3,1.4-1.3,1-2.3l-3.7-8.3c-0.4-0.8,0.1-1.7,1.1-1.8l3.4-0.5
						c1-0.2,1.1-0.8,0.3-1.4l-22.3-16c-0.8-0.5-2.2-0.9-3.1-0.8l-5,0.6c-0.9,0.1-1.2-0.3-0.5-0.8l4.6-3.6c0.7-0.5,1.8-0.6,2.8-0.3
						l53.7,23.6c1,0.4,2.6,0.6,3.5,0.3l2.6-0.8C504,279.9,504.4,277.6,502.8,275.6L502.8,275.6z M439.3,252.7
						c-0.8-0.3-2-0.3-2.7,0.3l-37.8,30.3c-0.8,0.6-2.1,0.8-3,0.3l-16.7-9.6c-0.8-0.4-2-0.3-2.7,0.4L318,333.6
						c0.1-0.3,0.1-0.8,0.1-1.1c-0.3-9.3,1-18.5,3.5-27.2c4.4-14.9,12.3-27.5,22.1-37.5c2.8,1.3,6.2,2.2,10,2.2
						c12.3,0.1,23.3-7.7,24.5-16.8c0.3-2.7-0.3-5.1-1.5-7.3c11.5-4.6,24.3-7.1,37.6-7.1c29.8,0.1,60.5,14.2,79.6,38.5L439.3,252.7
						L439.3,252.7z"/>
				</g>
			</g>
		</g>
	</g>
	<g>
		<path class="st2" d="M415,939.8c-13.8,0-25-11.2-25-25V745.4c0-13.8,11.2-25,25-25c13.8,0,25,11.2,25,25v169.5
			C440,928.6,428.8,939.8,415,939.8z"/>
		<g>
			<path class="st2" d="M351.5,833.4c-6.4,0-12.8-2.4-17.6-7.3c-9.7-9.7-9.7-25.6,0-35.4l63-63c9.7-9.7,25.6-9.7,35.4,0
				s9.7,25.6,0,35.4l-63,63C364.3,831,357.9,833.4,351.5,833.4z"/>
			<path class="st2" d="M478.5,833.4c-6.4,0-12.8-2.4-17.6-7.3l-63-63c-9.7-9.7-9.7-25.6,0-35.4c9.7-9.7,25.6-9.7,35.4,0l63,63
				c9.7,9.7,9.7,25.6,0,35.4C491.3,831,484.9,833.4,478.5,833.4z"/>
		</g>
	</g>
	<g>
		<g>
			<defs>
				<path id="SVGID_00000001634340292748050200000008198428057050941859_" d="M610.3,1157.2l-128.9-128.9c-2.7-2.7-6.3-4.2-10.1-4.2
					H342.4c-34.8,0-63.2,27-65.6,61.2c-34.2,2.4-61.2,30.9-61.2,65.6v257.9c0,36.3,29.5,65.8,65.8,65.8h206.2
					c34.8,0,63.2-27,65.6-61.2c34.2-2.4,61.2-30.9,61.2-65.6v-180.5C614.5,1163.5,613,1159.9,610.3,1157.2z"/>
			</defs>
			<clipPath id="SVGID_00000101070961246929620920000003472169742701156008_">
				<use xlink:href="#SVGID_00000001634340292748050200000008198428057050941859_"  style="overflow:visible;"/>
			</clipPath>
			<g style="clip-path:url(#SVGID_00000101070961246929620920000003472169742701156008_);">
				<g transform="translate(3 2)">
					<g>
						<path class="st1" d="M278.3,1097.4c-28.5,0-51.6,23.1-51.6,51.6v257.9c0,28.5,23.1,51.6,51.6,51.6h206.2
							c28.5,0,51.6-23.1,51.6-51.6"/>
						<path class="st2" d="M484.6,1472.6H278.3c-36.3,0-65.8-29.5-65.8-65.8V1149c0-36.3,29.5-65.8,65.8-65.8
							c7.8,0,14.2,6.4,14.2,14.2s-6.4,14.2-14.2,14.2c-20.6,0-37.4,16.8-37.4,37.4v257.9c0,20.6,16.8,37.4,37.4,37.4h206.2
							c20.6,0,37.4-16.8,37.4-37.4c0-7.8,6.4-14.2,14.2-14.2s14.2,6.4,14.2,14.2C550.4,1443.1,520.9,1472.6,484.6,1472.6z"/>
					</g>
					<g>
						<g class="st3">
							<g>
								<path d="M580.4,1362.5v-180.5l-128.9-128.9H322.6c-28.5,0-51.6,23.1-51.6,51.6v257.9c0,28.5,23.1,51.6,51.6,51.6h206.2
									C557.3,1414.2,580.4,1391.1,580.4,1362.5z"/>
								<path d="M451.5,1063c0,0,5.5,90.3,5.7,91.2s51.6,31.7,52.7,31.7c1.1,0,61.1-3.9,61.1-3.9s-2.9-14.9-2-14.9
									c0.8,0-111.4-110.8-111.4-110.8L451.5,1063z"/>
								<path d="M528.8,1428.4H322.6c-36.3,0-65.8-29.5-65.8-65.8v-257.9c0-36.3,29.5-65.8,65.8-65.8h128.9c3.8,0,7.4,1.5,10.1,4.2
									l128.9,128.9c2.7,2.7,4.2,6.3,4.2,10.1v180.5C594.7,1398.8,565.1,1428.4,528.8,1428.4z M322.6,1067.4
									c-20.6,0-37.4,16.8-37.4,37.4v257.9c0,20.6,16.8,37.4,37.4,37.4h206.2c20.6,0,37.4-16.8,37.4-37.4V1188l-120.6-120.7H322.6z
									"/>
							</g>
						</g>
						<g>
							<g>
								<path class="st1" d="M597.2,1345.7v-180.5l-128.9-128.9H339.4c-28.5,0-51.6,23.1-51.6,51.6v257.9
									c0,28.5,23.1,51.6,51.6,51.6h206.2C574.1,1397.4,597.2,1374.3,597.2,1345.7z"/>
								<path class="st4" d="M468.3,1046.2c0,0,5.5,90.3,5.7,91.2s51.6,31.7,52.7,31.7s61.1-3.9,61.1-3.9s-2.9-14.9-2-14.9
									c0.8,0-111.4-110.8-111.4-110.8L468.3,1046.2z"/>
								<path class="st2" d="M545.6,1411.6H339.4c-36.3,0-65.8-29.5-65.8-65.8v-257.9c0-36.3,29.5-65.8,65.8-65.8h128.9
									c3.8,0,7.4,1.5,10.1,4.2l128.9,128.9c2.7,2.7,4.2,6.3,4.2,10.1v180.5C611.5,1382,581.9,1411.6,545.6,1411.6z M339.4,1050.6
									c-20.6,0-37.4,16.8-37.4,37.4v257.9c0,20.6,16.8,37.4,37.4,37.4h206.2c20.6,0,37.4-16.8,37.4-37.4v-174.6l-120.6-120.7
									H339.4z"/>
							</g>
						</g>
					</g>
					<path class="st2" d="M597.2,1177.9h-77.3c-35.4,0-64.2-28.8-64.2-64.2v-77.3c0-7,5.6-12.6,12.6-12.6c7,0,12.6,5.6,12.6,12.6
						v77.3c0,21.5,17.5,39,39,39h77.3c7,0,12.6,5.6,12.6,12.6C609.8,1172.3,604.2,1177.9,597.2,1177.9z"/>
				</g>
			</g>
		</g>
	</g>
</g>
</svg>
