<?xml version="1.0" encoding="UTF-8"?>
<svg id="logo-no-text" xmlns="http://www.w3.org/2000/svg" xmlns:xlink="http://www.w3.org/1999/xlink" viewBox="0 0 1000 1000">
  <defs>
    <clipPath id="clippath">
      <polygon points="135.2 137.74 378.91 216.24 378.91 861.57 135.2 782.16 135.2 137.74" fill="none"/>
    </clipPath>
    <filter id="drop-shadow-1" filterUnits="userSpaceOnUse">
      <feOffset dx="5" dy="5"/>
      <feGaussianBlur result="blur" stdDeviation="5"/>
      <feFlood flood-color="#000" flood-opacity=".75"/>
      <feComposite in2="blur" operator="in"/>
      <feComposite in="SourceGraphic"/>
    </filter>
    <clipPath id="clippath-1">
      <polygon points="378.91 216.24 618.77 135 625.01 784.09 389.57 861.57 378.91 216.24" fill="none"/>
    </clipPath>
    <filter id="drop-shadow-2" filterUnits="userSpaceOnUse">
      <feOffset dx="5" dy="5"/>
      <feGaussianBlur result="blur-2" stdDeviation="5"/>
      <feFlood flood-color="#000" flood-opacity=".75"/>
      <feComposite in2="blur-2" operator="in"/>
      <feComposite in="SourceGraphic"/>
    </filter>
    <clipPath id="clippath-2">
      <polygon points="628.09 137.74 871.8 216.24 871.8 861.57 628.09 782.16 628.09 137.74" fill="none"/>
    </clipPath>
    <filter id="drop-shadow-3" filterUnits="userSpaceOnUse">
      <feOffset dx="5" dy="5"/>
      <feGaussianBlur result="blur-3" stdDeviation="5"/>
      <feFlood flood-color="#000" flood-opacity=".75"/>
      <feComposite in2="blur-3" operator="in"/>
      <feComposite in="SourceGraphic"/>
    </filter>
  </defs>
  <polygon points="135.23 135.08 378.61 220.51 625.82 136.35 865.38 220.51 865.38 867.52 624.83 785.07 382.95 863.78 135.23 781.42 135.23 135.08" fill="#16687b"/>
  <g>
    <g clip-path="url(#clippath)" fill="none">
      <g id="blue" fill="none" filter="url(#drop-shadow-1)">
        <path id="bottom" d="m753.94,588.54c.05-10.37-7.32-20.25-17.13-23.82-1.81-1.16-10.46-1.87-12.22-.87-7.77,1.87-13.28,8.57-13.32,17.47v.67c.05.73-2.79,1.92-6.31,2.64l-98.21,20.22c-3.52.72-8.64-1.16-11.37-4.18,0,0-5.37-5.94-12.85-7.2-11.78-1.99-21.37,5.93-21.42,17.7v1.87c.38,2.01-2.08,4.51-5.48,5.55l-98.23,30.1c-3.4,1.04-8.49-.51-11.32-3.44,0,0-4.93-5.1-11.99-6.3-18.01-2.97-20.17,11.15-20.17,11.15-1.61,3.13-4.25,5.97-7.95,5.97h-90.32c-3.7-.02-8.62-2.75-10.93-6.09,0,0-6.56-9.5-15.67-11.05-11.78-1.99-21.37,5.93-21.42,17.7s9.45,22.93,21.23,24.92c.47.08.92.1,1.37.13,26.59,36.88,60.38,67.57,98.29,89.84,1.54,10.47,10.31,19.78,20.97,21.58,5.79.98,11.05-.45,14.91-3.54,20.24,8.53,41.28,14.76,62.72,18.39.4.07.77.13,1.16.19,25.21,4.15,49.58,4.48,72.62,1.45,3.49,3.11,7.77,5.34,12.42,6.13,10.16,1.72,18.68-3.95,20.87-13.1,32.06-9.35,60.6-25.71,83.96-47.71.43.11.87.22,1.31.29,11.78,1.99,21.37-5.93,21.42-17.7.01-2.26-.34-4.49-.98-6.64,26.1-33.99,42.08-77.09,44.08-126.05,5.94-2.78,9.91-8.73,9.94-16.28Zm-150.66,35.01s.48-.95.5-5.16v-.67c-.05-.73,2.79-1.92,6.31-2.64l98.21-20.22c3.52-.72,8.64,1.16,11.37,4.18,0,0,.17.19.48.49-1.72,43.94-15.85,82.68-39.01,113.38-.49-.12-.98-.24-1.47-.32-3.83-.65-4.22-.55-4.22-.55-3.47.86-8.42-1.03-10.99-4.18l-59.4-72.86c-2.57-3.16-3.38-8.31-1.78-11.44Zm-28.75,16.69c1.85-2.96,4.68-4.95,6.29-4.41l1.53.26c3.85.65,4.28.54,4.28.54,3.47-.87,8.41,1.01,10.98,4.17l59.37,72.83c2.57,3.16,2.47,9.85,2.06,11.72-.4,1.86-3.79,3.25-7.51,3.08l-110.53-5.03c-3.73-.17-7.44-1.83-8.25-3.69s-2.41-8.6-.56-11.56l42.33-67.9Zm-119.2,24.39c0-3.41,2.54-4.77,5.93-5.81l99.25-30.41c3.4-1.04,6.21-2.41,6.82-1.11s-.15,3.93-2,6.89l-41.96,67.31c-1.85,2.96-5.11,4.7-7.24,3.87l-2.07-.35c-5.93-1-9.54.85-9.54.85-3.1,1.6-8.19.77-11.31-1.84l-33.62-28.2c-5.97-4.66-4.28-8.58-4.26-11.2Zm-15.2,16.75c2.52-.21,10.53-.7,13.64,1.91l34.15,28.65c3.11,2.61,5.24,6.49,4.72,8.63v2.15l-.02,2.64c.75,2.8-1.27,6.24-4.49,7.64l-56.76,24.71c-3.22,1.4-8.8-.7-10.13-1.73-1.33-1.03-1.75-4.76-.93-8.29l13.76-59.5c.82-3.53,3.54-6.59,6.06-6.8Zm-131.38-11.75c2.21-1.89,5.37-3.21,8.09-3.21h91.27c3.7.02,8.08,2.07,9.72,4.59,3.37,3.35,8.49,5.9,6.13,13.79l-13.68,59.15c-.82,3.53-4.26,7.28-7.65,8.33,0,0-.63.2-1.61.61-35.65-20.32-67.42-48.8-92.27-83.25Zm179.54,114.63c-.35-.06-.7-.12-1.06-.18-18.2-3.08-36.07-8.25-53.33-15.24.67-.49,1.42-.92,2.23-1.28l57.77-25.15c3.22-1.4,8.46-.49,11.64,2.02,0,0,2.89,2.28,8.31,3.2,4.29.73,5.45.38,5.45.38,3.4-1.03,8.41.62,11.12,3.66l20.19,22.62c2.71,3.04,3.62,8.09,2.01,11.21,0,0-.04.09-.1.28-20.42,2.53-41.97,2.14-64.25-1.53Zm97.27-5.37c-3.42-2.94-7.57-5.03-12.05-5.79-3.79-.64-4.13-.56-4.13-.56-3.48.84-8.54-.96-11.26-4l-20.67-23.15c-2.71-3.04-4.48-6.44-3.93-7.56s1.99-5.13,8.2-4.1l111.47,5.08c1.05.05,2.2.32,3.36.74-20.12,17.88-44.19,31.32-71.01,39.34Z" fill="#7ccbdb"/>
        <path id="middle" d="m185.91,636.14c-7.1-1.17-16.13-4.02-19.48-12.09-4.1-9.9,4.36-16.83,7.14-19.11,3.91-3.2,9.56-6.75,16.8-10.53,11.91-6.23,24.14-11.07,24.66-11.27,4.5-1.77,10.18.77,12.7,5.68,2.52,4.91.91,10.33-3.59,12.11-.09.04-9.62,3.81-19.62,8.78-6.89,3.43-11.53,6.19-14.63,8.3,9.31.91,27.85,1.12,64.33-2.37,53.64-5.13,133.9-17.01,238.53-35.32,107.01-18.72,187.65-35.09,239.67-48.64,36.1-9.4,52.62-15.98,60.17-19.94-8.86-1.94-23.08-3.57-36.3-3.94-5.11-.14-9.81-4.49-10.51-9.72-.7-5.22,2.88-9.34,7.98-9.2.53.02,13.17.39,26.33,2.07,17.33,2.23,33.75,6.01,36.59,18.52,2.58,11.36-10.04,17.63-15.43,20.3-10.24,5.08-26.11,10.57-48.5,16.78-51.74,14.35-137.19,31.98-253.99,52.42-114.34,20.01-199.64,32.36-253.53,36.71-23.45,1.89-40.72,2.29-52.78,1.23-1.7-.15-4-.35-6.54-.77Z" fill="#7ccbdb"/>
        <path id="top" d="m731.39,506.56c-12.56-35.23-31.64-68.23-56.1-97.36-4.45-5.3-9.07-10.47-13.87-15.5-2.4-2.52-4.84-5-7.32-7.44-4.97-4.89-10.1-9.64-15.4-14.24-13.55-11.76-27.84-22.23-42.71-31.35-32.72-20.05-68.26-33.53-104.81-39.55-48.46-7.99-93.82-1.97-132.53,15.07-10.53-9.9-23.74-16.94-38.1-19.31-34.4-5.67-62.28,17.62-62.28,52.01,0,14.36,4.87,28.37,13.03,40.25-23.42,34.85-36.92,77.99-36.92,126.44,0,25.52,3.74,51.35,11.11,76.76,1.68,5.8,6.75,10.18,12.24,11.09,1.23.2,2.49.23,3.73.06.96-.13,3.61-.69,4.21-.79l185.42-32.72c2.66-.47,5.68-2.86,6.7-5.32l4.23-10.19c1.02-2.46-.26-5.72-2.85-7.26l-85.83-51.03c-2.59-1.54-3.4-4.48-1.81-6.54l17.31-22.44c1.59-2.06,4.85-2.21,7.24-.34l28.59,22.41c2.39,1.88,2.51,4.5.27,5.82l-8.16,4.81c-2.25,1.33-2.09,3.88.36,5.68l50.83,37.43c2.44,1.8,4.64,5.6,4.87,8.44l.76,9.3c.23,2.84,2.6,4.79,5.27,4.32l136.06-24.01c2.66-.47,4.33-3.19,3.7-6.03l-5.82-26.46c-.63-2.85,1.13-5.22,3.9-5.26l9.46-.16c2.77-.05,3.41-1.98,1.42-4.3l-54.92-63.97c-1.99-2.32-5.9-4.27-8.69-4.33l-14.73-.32c-2.79-.06-3.38-1.4-1.31-2.97l14.56-11.08c2.07-1.57,5.73-1.35,8.15.49l136.41,104.02c2.42,1.84,6.57,2.97,9.24,2.5l7.67-1.35c6.61-1.41,9.94-8.25,7.43-15.28Zm-166.6-109.55c-2.39-1.88-5.99-2.07-8-.42l-109.03,89.39c-2.01,1.64-5.58,1.42-7.94-.51l-47.36-38.63c-2.36-1.92-5.61-1.83-7.23.2l-114.77,144.4c-.08-.82-.24-1.67-.49-2.51-6.63-22.87-10-46.12-10-69.12,0-42.14,11.34-79.82,31.12-110.62,8.77,6.16,18.8,10.5,29.45,12.25,34.4,5.67,62.28-17.62,62.28-52.01,0-10.65-2.68-21.12-7.4-30.67,34.06-14.16,73.6-18.99,115.75-12.04,94.19,15.53,179.98,88.03,214.79,181.01l-141.18-110.72Z" fill="#7ccbdb"/>
      </g>
    </g>
    <g clip-path="url(#clippath-1)" fill="none">
      <g id="blue-2" data-name="blue" fill="none" filter="url(#drop-shadow-2)">
        <path id="bottom-2" data-name="bottom" d="m753.03,449.33c.05-10.38-7.32-17.64-17.13-17.73-1.81-.52-10.46,1.85-12.22,3.48-7.77,4.64-13.28,13.3-13.32,22.21v.67c.05.71-2.79,2.91-6.31,4.89l-98.21,55.2c-3.52,1.98-8.64,1.92-11.37-.13,0,0-5.37-4.03-12.85-2.63-11.78,2.2-21.37,13.54-21.42,25.33v1.88c.38,1.87-2.08,5.25-5.48,7.5l-98.23,65.08c-3.4,2.25-8.49,2.52-11.32.6,0,0-4.93-3.35-11.99-2.03-18.01,3.44-20.17,18.33-20.17,18.33-1.61,3.7-4.25,7.48-7.95,8.8l-90.32,32.15c-3.7,1.32-8.62.33-10.93-2.19,0,0-6.56-7.17-15.67-5.47-11.78,2.2-21.37,13.54-21.42,25.33s9.45,19.56,21.23,17.36c.47-.09.92-.22,1.37-.35,26.59,27.41,60.38,46.06,98.29,54.84,1.54,9.92,10.31,16.1,20.97,14.11,5.79-1.08,11.05-4.38,14.91-8.85,20.24,1.33,41.28.06,62.72-3.94.4-.07.77-.14,1.16-.22,25.21-4.82,49.58-13.17,72.62-24.41,3.49,1.87,7.77,2.57,12.42,1.71,10.16-1.9,18.68-10.6,20.87-20.53,32.06-20.77,60.6-47.3,83.96-77.61.43-.04.87-.09,1.31-.18,11.78-2.2,21.37-13.54,21.42-25.33.01-2.26-.34-4.37-.98-6.29,26.1-43.29,42.08-92.07,44.08-141.75,5.94-4.9,9.91-12.26,9.94-19.82Zm-150.66,88.66s.48-1.12.5-5.34v-.67c-.05-.71,2.79-2.91,6.31-4.89l98.21-55.2c3.52-1.98,8.64-1.92,11.37.13,0,0,.17.13.48.32-1.72,44.55-15.85,88.32-39.01,127.28-.49.06-.98.11-1.47.2-3.83.71-4.22.95-4.22.95-3.47,2.09-8.42,1.97-10.99-.27l-59.4-51.71c-2.57-2.24-3.38-7.1-1.78-10.81Zm-28.75,26.93c1.85-3.62,4.68-6.62,6.29-6.65l1.53-.29c3.85-.72,4.28-.98,4.28-.98,3.47-2.1,8.41-1.99,10.98.25l59.37,51.69c2.57,2.24,2.47,8.97,2.06,10.98-.4,2.01-3.79,4.6-7.51,5.76l-110.53,34.33c-3.73,1.16-7.44.82-8.25-.76s-2.41-7.74-.56-11.36l42.33-82.97Zm-119.2,66.84c0-3.41,2.54-5.67,5.93-7.92l99.25-65.76c3.4-2.25,6.21-4.62,6.82-3.54s-.15,3.98-2,7.6l-41.96,82.26c-1.85,3.62-5.11,6.52-7.24,6.45l-2.07.39c-5.93,1.11-9.54,4.25-9.54,4.25-3.1,2.7-8.19,3.69-11.31,2.18l-33.62-16.23c-5.97-2.53-4.28-7.06-4.26-9.68Zm-15.2,22.16c2.52-1.11,10.53-4.45,13.64-2.94l34.15,16.48c3.11,1.5,5.24,4.63,4.72,6.95v2.16l-.02,2.65c.75,2.53-1.27,6.69-4.49,9.24l-56.76,44.92c-3.22,2.55-8.8,2.43-10.13,1.88-1.33-.56-1.75-4.14-.93-7.96l13.76-64.4c.82-3.82,3.54-7.85,6.06-8.96Zm-131.38,35.04c2.21-2.67,5.37-5.12,8.09-6.09l91.27-32.49c3.7-1.32,8.08-.82,9.72,1.12,3.37,2.14,8.49,2.87,6.13,11.6l-13.68,64.03c-.82,3.82-4.26,8.79-7.65,11.05,0,0-.63.43-1.61,1.18-35.65-7.63-67.42-24.79-92.27-50.39Zm179.54,50.69c-.35.07-.7.13-1.06.2-18.2,3.4-36.07,4.6-53.33,3.75.67-.72,1.42-1.43,2.23-2.07l57.77-45.72c3.22-2.55,8.46-3.5,11.64-2.12,0,0,2.89,1.25,8.31.24,4.29-.8,5.45-1.56,5.45-1.56,3.4-2.24,8.41-2.37,11.12-.3l20.19,15.43c2.71,2.07,3.62,6.8,2.01,10.5,0,0-.04.1-.1.32-20.42,9.8-41.97,17.09-64.25,21.35Zm97.27-40.01c-3.42-1.72-7.57-2.33-12.05-1.5-3.79.71-4.13.91-4.13.91-3.48,2.08-8.54,2.09-11.26.01l-20.67-15.79c-2.71-2.07-4.48-4.84-3.93-6.16s1.99-5.83,8.2-7.02l111.47-34.62c1.05-.33,2.2-.46,3.36-.46-20.12,25.05-44.19,47.06-71.01,64.62Z" fill="#7ccbdb"/>
        <path id="middle-2" data-name="middle" d="m185,699.21c-7.1,1.36-16.13,1.72-19.48-5.16-4.1-8.44,4.36-18.39,7.14-21.66,3.91-4.6,9.56-10.15,16.8-16.51,11.91-10.47,24.14-19.67,24.66-20.05,4.5-3.38,10.18-2.86,12.7,1.16,2.52,4.02.91,10.01-3.59,13.39-.09.07-9.62,7.24-19.62,15.77-6.89,5.89-11.53,10.29-14.63,13.51,9.31-2.41,27.85-8.8,64.33-25.28,53.64-24.23,133.9-64.7,238.53-120.27,107.01-56.83,187.65-101.91,239.67-133.99,36.1-22.26,52.62-34.72,60.17-41.37-8.86,1.22-23.08,4.65-36.3,8.99-5.11,1.68-9.81-1-10.51-5.97-.7-4.97,2.88-10.36,7.98-12.04.53-.17,13.17-4.3,26.33-7.3,17.33-3.95,33.75-6.01,36.59,5.49,2.58,10.44-10.04,21.2-15.43,25.8-10.24,8.73-26.11,19.87-48.5,34.06-51.74,32.77-137.19,80.84-253.99,142.87-114.34,60.73-199.64,103.45-253.53,126.99-23.45,10.24-40.72,16.79-52.78,20.02-1.7.45-4,1.07-6.54,1.56Z" fill="#7ccbdb"/>
        <path id="top-2" data-name="top" d="m730.48,375.38c-12.56-30.76-31.64-56.96-56.1-77.38-4.45-3.71-9.07-7.23-13.87-10.56-2.4-1.66-4.84-3.27-7.32-4.83-4.97-3.12-10.1-6.04-15.4-8.75-13.55-6.93-27.84-12.32-42.71-16.14-32.72-8.4-68.26-9.22-104.81-2.23-48.46,9.27-93.82,31.44-132.53,62.26-10.53-6.15-23.74-8.49-38.1-5.74-34.4,6.58-62.28,39.79-62.28,74.19,0,14.36,4.87,26.63,13.03,35.61-23.42,43.19-36.92,91.14-36.92,139.59,0,25.52,3.74,50.02,11.11,72.8,1.68,5.2,6.75,7.78,12.24,6.73,1.23-.24,2.49-.66,3.73-1.27.96-.48,3.61-1.97,4.21-2.29l185.42-98.75c2.66-1.42,5.68-4.89,6.7-7.71l4.23-11.7c1.02-2.82-.26-5.63-2.85-6.25l-85.83-20.46c-2.59-.62-3.4-3.27-1.81-5.9l17.31-28.6c1.59-2.63,4.85-3.94,7.24-2.92l28.59,12.23c2.39,1.02,2.51,3.6.27,5.73l-8.16,7.72c-2.25,2.13-2.09,4.63.36,5.55l50.83,19.33c2.44.93,4.64,3.95,4.87,6.71l.76,9.03c.23,2.76,2.6,3.86,5.27,2.44l136.06-72.46c2.66-1.42,4.33-4.73,3.7-7.35l-5.82-24.38c-.63-2.62,1.13-5.62,3.9-6.65l9.46-3.53c2.77-1.03,3.41-3.2,1.42-4.81l-54.92-44.42c-1.99-1.61-5.9-2.17-8.69-1.23l-14.73,4.92c-2.79.93-3.38-.2-1.31-2.5l14.56-16.27c2.07-2.31,5.73-3.39,8.15-2.41l136.41,55.44c2.42.98,6.57.62,9.24-.79l7.67-4.08c6.61-3.77,9.94-11.79,7.43-17.92Zm-166.6-50.22c-2.39-1.02-5.99.07-8,2.43l-109.03,128.22c-2.01,2.36-5.58,3.4-7.94,2.32l-47.36-21.76c-2.36-1.08-5.61.17-7.23,2.78l-114.77,185.27c-.08-.79-.24-1.58-.49-2.34-6.63-20.51-10-42.56-10-65.56,0-42.14,11.34-83.85,31.12-121.7,8.77,3.04,18.8,3.8,29.45,1.76,34.4-6.58,62.28-39.79,62.28-74.19,0-10.65-2.68-20.17-7.4-28.04,34.06-26.29,73.6-45.2,115.75-53.26,94.19-18.01,179.98,23.93,214.79,104.52l-141.18-60.44Z" fill="#7ccbdb"/>
      </g>
    </g>
    <g clip-path="url(#clippath-2)" fill="none">
      <g id="blue-3" data-name="blue" fill="none" filter="url(#drop-shadow-3)">
        <path id="bottom-3" data-name="bottom" d="m763.99,500.82c.05-10.36-7.32-20.32-17.13-24-1.81-1.18-10.46-1.98-12.22-.99-7.77,1.8-13.28,8.43-13.32,17.34v.67c.05.73-2.79,1.89-6.31,2.58l-98.21,19.24c-3.52.69-8.64-1.24-11.37-4.3,0,0-5.37-5.99-12.85-7.33-11.78-2.11-21.37,5.71-21.42,17.49v1.87c.38,2.02-2.08,4.49-5.48,5.49l-98.23,29.11c-3.4,1.01-8.49-.59-11.32-3.55,0,0-4.93-5.15-11.99-6.42-18.01-3.15-20.17,10.95-20.17,10.95-1.61,3.11-4.25,5.92-7.95,5.89l-90.32-.92c-3.7-.04-8.62-2.82-10.93-6.19,0,0-6.56-9.57-15.67-11.2-11.78-2.11-21.37,5.71-21.42,17.49-.05,11.77,9.45,23.02,21.23,25.14.47.08.92.11,1.37.15,26.59,37.15,60.38,68.17,98.29,90.83,1.54,10.49,10.31,19.88,20.97,21.79,5.79,1.04,11.05-.33,14.91-3.39,20.24,8.74,41.28,15.18,62.72,19.02.4.07.77.14,1.16.21,25.21,4.41,49.58,4.98,72.62,2.18,3.49,3.15,7.77,5.42,12.42,6.25,10.16,1.82,18.68-3.76,20.87-12.89,32.06-9.03,60.6-25.1,83.96-46.86.43.11.87.22,1.31.3,11.78,2.11,21.37-5.72,21.42-17.49.01-2.26-.34-4.49-.98-6.65,26.1-33.73,42.08-76.66,44.08-125.61,5.94-2.72,9.91-8.63,9.94-16.18Zm-150.66,33.49s.48-.95.5-5.16v-.67c-.05-.73,2.79-1.89,6.31-2.58l98.21-19.23c3.52-.69,8.64,1.24,11.37,4.29,0,0,.17.19.48.5-1.72,43.93-15.85,82.52-39.01,112.99-.49-.12-.98-.25-1.47-.34-3.83-.69-4.22-.59-4.22-.59-3.47.82-8.42-1.11-10.99-4.29l-59.4-73.46c-2.57-3.18-3.38-8.34-1.78-11.46Zm-28.75,16.4c1.85-2.94,4.68-4.9,6.29-4.35l1.53.28c3.85.69,4.28.59,4.28.59,3.47-.83,8.41,1.09,10.98,4.28l59.37,73.43c2.57,3.18,2.47,9.88,2.06,11.74-.4,1.86-3.79,3.21-7.51,3l-110.53-6.14c-3.73-.21-7.44-1.91-8.25-3.78s-2.41-8.62-.56-11.57l42.33-67.47Zm-119.2,23.19c0-3.41,2.54-4.74,5.93-5.75l99.25-29.41c3.4-1.01,6.21-2.34,6.82-1.04s-.15,3.92-2,6.87l-41.96,66.89c-1.85,2.94-5.11,4.65-7.24,3.8l-2.07-.37c-5.93-1.06-9.54.76-9.54.76-3.1,1.57-8.19.69-11.31-1.96l-33.62-28.54c-5.97-4.72-4.28-8.62-4.26-11.24Zm-15.2,16.6c2.52-.19,10.53-.59,13.64,2.05l34.15,28.99c3.11,2.64,5.24,6.55,4.72,8.67v2.15l-.02,2.64c.75,2.81-1.27,6.23-4.49,7.59l-56.76,24.14c-3.22,1.37-8.8-.79-10.13-1.83-1.33-1.04-1.75-4.78-.93-8.3l13.76-59.37c.82-3.52,3.54-6.56,6.06-6.74Zm-131.38-13.07c2.21-1.86,5.37-3.16,8.09-3.13l91.27.93c3.7.04,8.08,2.14,9.72,4.67,3.37,3.38,8.49,5.98,6.13,13.85l-13.68,59.02c-.82,3.52-4.26,7.23-7.65,8.25,0,0-.63.2-1.61.59-35.65-20.68-67.42-49.48-92.27-84.18Zm179.54,116.44c-.35-.06-.7-.12-1.06-.19-18.2-3.26-36.07-8.61-53.33-15.77.67-.48,1.42-.91,2.23-1.25l57.77-24.57c3.22-1.37,8.46-.41,11.64,2.14,0,0,2.89,2.31,8.31,3.28,4.29.77,5.45.43,5.45.43,3.4-.99,8.41.71,11.12,3.78l20.19,22.82c2.71,3.07,3.62,8.12,2.01,11.23,0,0-.04.09-.1.28-20.42,2.32-41.97,1.72-64.25-2.18Zm97.27-4.4c-3.42-2.97-7.57-5.1-12.05-5.91-3.79-.68-4.13-.6-4.13-.6-3.48.81-8.54-1.04-11.26-4.11l-20.67-23.35c-2.71-3.07-4.48-6.49-3.93-7.6s1.99-5.11,8.2-4.02l111.47,6.2c1.05.06,2.2.34,3.36.77-20.12,17.68-44.19,30.88-71.01,38.62Z" fill="#7ccbdb"/>
        <path id="middle-3" data-name="middle" d="m195.95,542.71c-7.1-1.24-16.13-4.18-19.48-12.29-4.1-9.94,4.36-16.79,7.14-19.04,3.91-3.16,9.56-6.65,16.8-10.36,11.91-6.11,24.14-10.83,24.66-11.03,4.5-1.73,10.18.87,12.7,5.81,2.52,4.94.91,10.34-3.59,12.07-.09.04-9.62,3.71-19.62,8.59-6.89,3.36-11.53,6.07-14.63,8.16,9.31,1,27.85,1.4,64.33-1.72,53.64-4.59,133.9-15.67,238.53-32.92,107.01-17.65,187.65-33.2,239.67-46.23,36.1-9.04,52.62-15.45,60.17-19.34-8.86-2.03-23.08-3.8-36.3-4.3-5.11-.19-9.81-4.59-10.51-9.82-.7-5.23,2.88-9.31,7.98-9.12.53.02,13.17.52,26.33,2.34,17.33,2.4,33.75,6.35,36.59,18.89,2.58,11.39-10.04,17.52-15.43,20.15-10.24,4.98-26.11,10.31-48.5,16.3-51.74,13.83-137.19,30.6-253.99,49.86-114.34,18.86-199.64,30.35-253.53,34.16-23.45,1.66-40.72,1.89-52.78.7-1.7-.17-4-.39-6.54-.84Z" fill="#7ccbdb"/>
        <path id="top-3" data-name="top" d="m741.43,418.61c-12.56-35.36-31.64-68.55-56.1-97.93-4.45-5.34-9.07-10.56-13.87-15.64-2.4-2.54-4.84-5.05-7.32-7.52-4.97-4.94-10.1-9.74-15.4-14.39-13.55-11.89-27.84-22.51-42.71-31.78-32.72-20.38-68.26-34.21-104.81-40.61-48.46-8.48-93.82-2.91-132.53,13.73-10.53-10-23.74-17.18-38.1-19.69-34.4-6.02-62.28,16.99-62.28,51.39,0,14.36,4.87,28.42,13.03,40.38-23.42,34.62-36.92,77.62-36.92,126.07,0,25.52,3.74,51.39,11.11,76.87,1.68,5.81,6.75,10.25,12.24,11.21,1.23.22,2.49.26,3.73.09.96-.13,3.61-.65,4.21-.75l185.42-30.85c2.66-.44,5.68-2.81,6.7-5.25l4.23-10.15c1.02-2.45-.26-5.73-2.85-7.29l-85.83-51.89c-2.59-1.56-3.4-4.52-1.81-6.56l17.31-22.27c1.59-2.05,4.85-2.16,7.24-.26l28.59,22.7c2.39,1.9,2.51,4.52.27,5.82l-8.16,4.73c-2.25,1.3-2.09,3.86.36,5.69l50.83,37.94c2.44,1.82,4.64,5.65,4.87,8.49l.76,9.3c.23,2.85,2.6,4.81,5.27,4.37l136.06-22.64c2.66-.44,4.33-3.14,3.7-6l-5.82-26.52c-.63-2.85,1.13-5.21,3.9-5.22l3.18.09c2.77-.02,3.82-3.14,1.83-5.48l-49.05-63.49c-1.99-2.34-5.9-4.33-8.69-4.42l-14.73-.47c-2.79-.09-3.38-1.43-1.31-2.98l14.56-10.94c2.07-1.55,5.73-1.29,8.15.57l136.41,105.39c2.42,1.87,6.57,3.03,9.24,2.59l7.67-1.28c6.61-1.35,9.94-8.15,7.43-15.2Zm-166.6-111.23c-2.39-1.9-5.99-2.13-8-.5l-109.03,88.29c-2.01,1.62-5.58,1.36-7.94-.59l-47.36-39.11c-2.36-1.95-5.61-1.89-7.23.13l-114.77,143.25c-.08-.83-.24-1.67-.49-2.52-6.63-22.94-10-46.22-10-69.22,0-42.14,11.34-79.7,31.12-110.3,8.77,6.25,18.8,10.68,29.45,12.55,34.4,6.02,62.28-16.99,62.28-51.39,0-10.65-2.68-21.15-7.4-30.74,34.06-13.82,73.6-18.25,115.75-10.88,94.19,16.48,179.98,89.84,214.79,183.17l-141.18-112.14Z" fill="#7ccbdb"/>
      </g>
    </g>
  </g>
  <path d="m622,135v648.61m0-648.53l243.38,81.13v648.94m-243.47-730.07l-121.69,40.56m121.78,608.45l-243.38,81.13V216.2l-243.38-81.13v649.02l121.69,40.56m364.98-40.56l121.69,40.56" fill="none" stroke="#0b4452" stroke-linecap="round" stroke-linejoin="round" stroke-width="30"/>
</svg>