<?xml version="1.0" encoding="UTF-8"?>
<svg id="final-logo" xmlns="http://www.w3.org/2000/svg" viewBox="0 0 2000 2000">
  <g id="coloured">
    <g id="flat">
      <path d="M1582.74,1417.38c-31.9-44.92-54.17-112.64-54.17-164.7s22.27-119.78,54.18-164.72c19.38-27.33,29.62-59.53,29.62-93.12,0-88.86-72.29-161.15-161.15-161.15s-161.15,72.29-161.15,161.15c0,33.59,10.24,65.79,29.63,93.14,31.9,44.92,54.17,112.64,54.17,164.7s-22.27,119.78-54.18,164.72c-19.38,27.33-29.62,59.53-29.62,93.12,0,88.86,72.29,161.15,161.15,161.15s161.15-72.29,161.15-161.15c0-33.59-10.24-65.79-29.62-93.12,0,0-.01-.01-.01-.02Z" fill="#137c3e"/>
      <path d="M680.3,912.02c-31.89-44.92-54.17-112.65-54.17-164.7s22.28-119.78,54.18-164.72c19.38-27.33,29.62-59.53,29.62-93.12,0-88.86-72.29-161.15-161.15-161.15s-161.15,72.29-161.15,161.15c0,33.59,10.24,65.8,29.63,93.14,31.89,44.92,54.17,112.65,54.17,164.7s-22.28,119.78-54.18,164.72c-19.38,27.33-29.62,59.53-29.62,93.12,0,88.86,72.29,161.15,161.15,161.15s161.15-72.29,161.15-161.15c0-33.59-10.24-65.8-29.62-93.12,0,0,0-.01-.01-.02Z" fill="#137c3e"/>
      <circle cx="1000" cy="265.15" r="161.15" fill="#137c3e"/>
      <circle cx="1000" cy="1734.85" r="161.15" fill="#137c3e"/>
      <path d="M1591.01,411.98c-43.23-77.63-141.56-105.62-219.19-62.39-29.35,16.34-52.5,40.95-66.95,71.18,0,0,0,.02-.01,.02-23.73,49.72-72.06,102.13-117.54,127.45-45.48,25.32-115.49,38.81-170.27,32.8-33.31-3.64-66.42,3.09-95.77,19.43-66.37,36.96-96.41,114.17-76.74,184.31,.17,.63,.36,1.26,.55,1.89,.36,1.21,.69,2.42,1.08,3.62,4.98,15.96,12.46,31.11,22.32,45.02,31.89,44.92,54.17,112.65,54.17,164.7s-18.72,111-68.67,190.87c-49.94,79.87-74.11,102.1-116.56,125.74-45.48,25.32-115.49,38.82-170.27,32.8-33.3-3.64-66.41,3.08-95.77,19.43-77.63,43.23-105.62,141.56-62.4,219.19,43.23,77.63,141.56,105.62,219.19,62.39,29.35-16.34,52.5-40.95,66.95-71.18,0,0,0-.02,.01-.02,23.73-49.72,72.06-102.13,117.54-127.45,45.48-25.32,115.49-38.81,170.27-32.8,33.31,3.64,66.42-3.09,95.77-19.43,66.37-36.96,96.41-114.17,76.74-184.31-.17-.63-.36-1.26-.55-1.89-.36-1.21-.69-2.42-1.08-3.62-4.98-15.96-12.46-31.11-22.32-45.02-31.89-44.92-54.17-112.65-54.17-164.7s18.72-111,68.67-190.87c49.94-79.87,74.11-102.1,116.56-125.74,45.48-25.32,115.49-38.82,170.27-32.8,33.3,3.64,66.41-3.08,95.77-19.43,77.63-43.23,105.62-141.56,62.4-219.19Z" fill="#16687b"/>
    </g>
  </g>
</svg>