<?xml version="1.0" encoding="UTF-8"?><svg id="Layer_1" xmlns="http://www.w3.org/2000/svg" viewBox="0 0 487.33 44.52"><defs><style>.cls-1,.cls-2,.cls-3,.cls-4{fill:none;stroke-miterlimit:10;}.cls-1,.cls-3,.cls-4{stroke:#9a9a9a;}.cls-2{stroke:#9898ae;}.cls-2,.cls-3{stroke-width:3px;}.cls-4{stroke-width:.5px;}.cls-5{fill:#9a9a9a;}</style></defs><path class="cls-5" d="m379.43,21.02c.1,2.9-.71,5.56-2.24,8.01-1.07,1.7-2.45,3.12-4.1,4.3-.84.6-1.7,1.18-2.65,1.6-1.74.77-3.54,1.31-5.44,1.53-1.41.16-2.78-.07-4.15-.31-2.51-.44-4.72-1.56-6.77-3-1.59-1.13-2.84-2.55-3.79-4.23-.49-.87-.93-1.77-1.41-2.65-.44-.81-.58-1.7-.65-2.59-.08-1.03-.12-2.07-.15-3.11-.04-1.44.24-2.83.74-4.19.43-1.15,1.03-2.21,1.7-3.24,1.59-2.46,3.75-4.29,6.36-5.62,2.07-1.05,4.29-1.49,6.63-1.51,2.26-.02,4.45.29,6.5,1.22,2.67,1.21,5.03,2.82,6.68,5.26,1.45,2.15,2.46,4.48,2.73,7.07.05.48,0,.98,0,1.47Zm-14.81.13c.9,0,1.63,0,2.36,0,.56,0,1.06.2,1.31.69.17.33.21.74.22,1.12.01,1.08-.03,2.16-.04,3.24,0,1.08,0,1.11,1.1,1.07,1.14-.04,2.05.42,2.87,1.13.15.14.3.29.45.43.19.17.38.15.54-.03.09-.11.18-.23.24-.35.52-1.08,1.2-2.1,1.56-3.25.21-.68.33-1.38.48-2.07.06-.28.06-.57.12-.84.2-.93.18-1.85-.07-2.78-.18-.69-.28-1.4-.44-2.09-.09-.39-.18-.81-.39-1.15-.52-.85-.92-1.76-1.54-2.57-.89-1.16-1.91-2.14-3.2-2.86-.23-.13-.46-.28-.68-.43-.7-.49-.87-.46-.97.37-.2,1.58-1.86,2.8-3.29,2.84-.75.02-1.49.07-2.24.1-.61.02-.72.11-.62.69.13.72.04,1.42-.06,2.13-.12.88-.6,1.35-1.49,1.47-.51.07-1.03.09-1.55.13-.37.03-.75.06-1.12.09-.3.02-.45.18-.45.47,0,.63-.01,1.26.01,1.89.02.45.17.57.64.55.5-.02,1-.09,1.49-.08,1.64.02,3.29.07,4.76.1Zm-13.19-.22c.05.6.08,1.2.16,1.81.36,2.83,1.65,5.21,3.68,7.23.65.65,1.43,1.11,2.18,1.62,1.22.83,2.63,1.2,4.06,1.5.44.09.54-.02.56-.48.03-.55.05-1.1.09-1.64.02-.3-.12-.45-.39-.54-.43-.15-.86-.31-1.28-.48-.69-.27-1.08-.79-1.32-1.45-.26-.7-.3-1.43-.33-2.16-.01-.39-.12-.7-.41-.98-.88-.87-1.73-1.76-2.59-2.64-.31-.32-.62-.66-.93-.98-.88-.89-1.76-1.78-2.67-2.65-.35-.34-.6-.27-.67.2-.09.54-.1,1.09-.15,1.65Z"/><path class="cls-5" d="m463.74,6c2.45-.07,4.78.43,6.98,1.53,1.62.81,3.13,1.78,4.4,3.07,1.57,1.6,2.68,3.47,3.48,5.53.83,2.14,1,4.35.77,6.61-.27,2.75-1.3,5.2-2.92,7.44-1.02,1.41-2.26,2.64-3.75,3.55-2.13,1.3-4.43,2.26-6.95,2.6-3.43.47-6.61-.3-9.61-1.9-1.31-.7-2.49-1.56-3.6-2.52-.55-.48-1.02-1.07-1.46-1.66-1.13-1.53-2-3.19-2.59-4.99-.14-.44-.22-.91-.26-1.38-.08-.79-.11-1.58-.16-2.38-.03-.47-.04-.94-.1-1.4-.11-.96.17-1.86.4-2.77.14-.53.3-1.06.5-1.57.15-.4.36-.78.58-1.14.6-.99,1.14-2.01,1.98-2.87,1.03-1.07,2.09-2.09,3.29-2.98,1.51-1.12,3.18-1.83,4.98-2.33,1.32-.36,2.66-.48,4.03-.45Zm-.15,3.17c-2.06-.11-4.42.82-6.24,1.84-1.21.67-2.22,1.56-3.11,2.6-.96,1.12-1.7,2.37-2.18,3.75-.77,2.22-.74,4.48-.22,6.75.38,1.69,1.16,3.19,2.24,4.52.62.76,1.33,1.46,2.08,2.1,1.28,1.09,2.83,1.69,4.44,2.16,2.86.83,5.66.59,8.33-.65,1.86-.86,3.4-2.1,4.62-3.8,1.04-1.45,1.76-2.98,2.1-4.7.11-.54.12-1.09.22-1.63.15-.81.14-1.62-.06-2.42-.1-.39-.15-.8-.24-1.2-.18-.75-.27-1.55-.6-2.23-.43-.89-.91-1.78-1.59-2.54-.8-.89-1.54-1.83-2.56-2.49-2.15-1.39-4.52-2.02-7.22-2.06Z"/><path class="cls-5" d="m427.53,7.67c.09.27.17.43.18.59.05.98.08,1.95.13,2.93.03.51-.16.9-.52,1.25-1.9,1.85-3.8,3.72-5.69,5.58-1.21,1.18-2.41,2.36-3.63,3.53-.25.24-.54.45-.81.67-.19.15-.38.16-.57.03-.25-.18-.5-.36-.72-.58-1.4-1.36-2.8-2.74-4.2-4.1-.21-.2-.43-.38-.67-.55-.45-.32-.54-.31-.96.07-.24.22-.48.45-.71.68-2.16,2.12-4.32,4.24-6.48,6.36-.78.76-1.55,1.53-2.31,2.31-.18.18-.37.35-.65.25-.29-.1-.33-.35-.33-.6.02-1.01-.23-2.02-.04-3.04.07-.36.18-.65.45-.9.7-.64,1.4-1.27,2.08-1.93.6-.58,1.17-1.21,1.77-1.8.48-.47.99-.92,1.48-1.39.39-.37.77-.74,1.15-1.11,1.11-1.08,2.21-2.16,3.31-3.23.6-.59.92-.6,1.53-.03.87.82,1.72,1.66,2.57,2.49.72.7,1.43,1.42,2.15,2.12.15.14.3.29.47.4.33.22.55.21.84-.05.28-.24.53-.52.8-.78,2.28-2.23,4.56-4.47,6.84-6.7.69-.68,1.35-1.38,2.03-2.07.11-.11.25-.2.51-.4Z"/><path class="cls-5" d="m424.44,27.18c0-2.26.01-4.52,0-6.78,0-.76.29-1.32.89-1.78.55-.43,1.06-.92,1.58-1.38.11-.09.21-.2.34-.27.31-.16.53-.05.58.28.02.14.01.28.01.43,0,3.01,0,6.03,0,9.04,0,2.36,0,4.72.02,7.07,0,.16,0,.33,0,.49-.03.43-.16.64-.58.66-.77.05-1.54.05-2.31.02-.36-.01-.47-.18-.49-.58-.02-.65-.02-1.3-.03-1.95,0-1.75,0-3.5,0-5.25Z"/><path class="cls-5" d="m405.58,29.99c0-1.02,0-2.04,0-3.05,0-.72.16-1.34.77-1.84.56-.46,1.03-1,1.56-1.49.22-.21.47-.41.73-.56.41-.25.59-.14.67.33.02.1.02.2.02.3-.02.65-.05,1.3-.08,1.95-.01.24-.04.49-.02.73.18,2.58-.12,5.16,0,7.74.03.72-.07.82-.79.89-.6.05-1.2.1-1.8.09-.68,0-.89-.22-.93-.88-.07-1.4-.12-2.8-.17-4.2.02,0,.03,0,.05,0Z"/><path class="cls-5" d="m421.72,29.04c0,1.69,0,3.38,0,5.07,0,.73-.11.85-.86.88-.68.02-1.37.02-2.05-.02-.48-.03-.53-.15-.53-.63,0-.57-.07-1.13-.07-1.7,0-1.75-.01-3.5,0-5.25,0-.51.04-1.02.14-1.52.07-.3.24-.62.47-.84.69-.68,1.41-1.32,2.13-1.96.31-.27.53-.21.64.18.08.29.11.6.11.9.01,1.63,0,3.26,0,4.89,0,0,0,0,.01,0Z"/><path class="cls-5" d="m412.22,22.8c.16.1.34.16.47.28.71.63,1.41,1.26,2.1,1.91.48.44.68.99.68,1.65-.02,2.48,0,4.97,0,7.45,0,.1,0,.2,0,.31-.04.41-.15.53-.58.58-.68.07-1.36.16-2.05.03-.62-.12-.74-.2-.74-.83,0-1.69-.01-3.38-.01-5.07,0-1.26,0-2.52,0-3.78,0-.45-.07-.89-.09-1.34-.01-.39-.15-.81.24-1.19Z"/><path class="cls-5" d="m402.87,28.94c.04,1.46.07,2.86.11,4.25,0,.36.03.73.06,1.09.03.39-.05.58-.41.63-.82.1-1.64.27-2.47.09-.26-.06-.49-.19-.52-.46-.08-.82-.29-1.64-.02-2.48.11-.34.29-.61.55-.86.69-.64,1.47-1.19,2.02-1.97.15-.22.38-.3.7-.3Z"/><path class="cls-5" d="m464,11.9c1.45.03,2.72.54,3.85,1.34,1.36.97,2.06,3.12,1.21,4.71-.66,1.24-1.59,2.23-2.56,3.2-.42.42-.77.86-.94,1.42-.1.33-.17.67-.21,1.01-.06.63-.2.81-.81.87-.54.05-1.08.11-1.62.11-.68,0-.96-.32-.86-.97.13-.84.18-1.72.77-2.42.36-.42.78-.79,1.17-1.18.54-.54,1.1-1.05,1.6-1.62.27-.3.46-.68.64-1.04.18-.36.06-.72-.11-1.06-.15-.29-.3-.59-.51-.84-.16-.19-.4-.36-.64-.45-.89-.35-1.77-.16-2.6.21-.27.12-.51.43-.64.71-.5,1.05-1.11,1.21-2.16.59-.29-.17-.59-.31-.87-.49-.4-.25-.47-.52-.24-.93.83-1.45,2.02-2.48,3.7-2.88.6-.15,1.22-.21,1.83-.31Z"/><path class="cls-5" d="m463.87,26.45c1.94.04,2.15,1.55,1.72,2.64-.34.85-1.64,1.48-2.66,1.06-1.26-.52-1.38-1.39-1.18-2.48.07-.4.38-.69.76-.83.44-.16.9-.27,1.36-.39Z"/><polygon class="cls-3" points="301.56 33.11 301.56 17.69 312.39 9.07 323.26 17.18 323.26 33.11 315.41 33.11 315.41 24.13 309.03 24.13 309.03 33.11 301.56 33.11"/><circle class="cls-2" cx="24.02" cy="22.37" r="13.05"/><circle class="cls-2" cx="66.55" cy="22.37" r="13.05"/><circle class="cls-2" cx="144.89" cy="22.37" r="13.05"/><line class="cls-2" x1="37.07" y1="22.37" x2="53.5" y2="22.37"/><line class="cls-2" x1="79.6" y1="22.37" x2="131.84" y2="22.03"/><rect class="cls-4" x=".25" y=".25" width="486.83" height="44.02"/><line class="cls-1" x1="289.08" y1="44.27" x2="289.08" y2=".41"/><line class="cls-1" x1="338.64" y1="44.27" x2="338.64" y2=".41"/><line class="cls-1" x1="388.53" y1="44.27" x2="388.53" y2=".41"/><line class="cls-1" x1="438.64" y1="44.27" x2="438.64" y2=".41"/></svg>