<?xml version="1.0" encoding="UTF-8"?>
<svg id="Layer_2" data-name="Layer 2" xmlns="http://www.w3.org/2000/svg" viewBox="0 0 23.18 22.52">
  <defs>
    <style>
      .cls-1 {
        fill: #317884;
      }
    </style>
  </defs>
  <g id="Layer_1-2" data-name="Layer 1">
    <g>
      <path class="cls-1" d="m11.72,22.51C5.2,22.52.04,17.6,0,11.34-.04,5.04,5.24,0,11.86,0c6.12,0,11.26,5.06,11.32,11.06.07,6.66-5.93,11.74-11.46,11.46Zm-.1-2.18c4.56.43,9.59-3.84,9.44-9.12-.13-4.96-4.33-9.13-9.49-9.07-4.61.05-9.38,3.17-9.41,9.06-.03,5.19,4.09,9.15,9.45,9.13Z"/>
      <path class="cls-1" d="m11.18,6.76q1.72,1.19.07,3.53c1.46,0,2.69,0,3.93,0,.61,0,1.02.09,1.03.85.01.82-.19,1.18-1.12,1.11-1.17-.09-2.35-.02-3.52-.02-.04.11-.08.21-.13.32.28.25.56.49.84.74.52.46.75.96.24,1.58-.5.6-1.07.6-1.61.11-1.13-1.02-2.27-2.03-3.32-3.13-.2-.2-.17-.89.03-1.13,1.16-1.38,2.39-2.7,3.55-3.97Z"/>
    </g>
  </g>
</svg>