<?xml version="1.0" encoding="UTF-8"?>
<svg id="Layer_2" data-name="Layer 2" xmlns="http://www.w3.org/2000/svg" viewBox="0 0 99.53 196.91">
  <defs>
    <style>
      .cls-1 {
        fill: none;
      }

      .cls-1, .cls-2 {
        stroke: #5a5a5b;
        stroke-miterlimit: 10;
        stroke-width: 2px;
      }

      .cls-3 {
        fill: #5a5a5b;
        font-family: Verdana-Bold, Verdana;
        font-size: 24px;
        font-weight: 700;
      }

      .cls-2 {
        fill: #7f7f7f;
      }
    </style>
  </defs>
  <g id="Layer_1-2" data-name="Layer 1">
    <g>
      <path class="cls-2" d="m1,47.34v23.83l48.34-.17c0-5.4,0-10.8,0-16.19-.82-.03-2.21-.2-3.6-1.06-3.24-2.01-3.53-5.94-3.55-6.4.14-7.7.28-15.4.43-23.11.02-.44.19-3.73,2.98-5.79,1.98-1.46,4.11-1.44,4.77-1.4V1.04c-4.09-.13-18.36-.06-31.32,10.21C2.25,24.56,1.12,44.33,1,47.34Z"/>
      <path class="cls-1" d="m49.34,71l49.19.17v-27.4c-.63-3.91-3.71-20.19-18.64-31.96C67.81,2.28,54.93,1.21,50.36,1.04v16c.74,0,1.7.11,2.68.6,3.3,1.65,3.56,6.01,3.57,6.3-.13,8.03-.26,16.06-.38,24.09-.08.63-.49,3.2-2.77,5.09-1.59,1.32-3.3,1.63-4.04,1.72-.03,5.39-.06,10.78-.09,16.17Z"/>
      <path class="cls-1" d="m1,70.8h97.53v42.64c-4.05,23.41-24.03,40.78-47.23,41.49-24.3.75-46.03-16.95-50.3-41.49v-42.64Z"/>
    </g>
    <text class="cls-3" transform="translate(24.41 189.63)"><tspan x="0" y="0">Pan</tspan></text>
  </g>
</svg>